<svg xmlns="http://www.w3.org/2000/svg" xmlns:xlink="http://www.w3.org/1999/xlink" width="273.295" height="324.803" viewBox="0 0 273.295 324.803">
  <defs>
    <radialGradient id="radial-gradient" cx="1.934" cy="1.073" r="1.68" gradientTransform="matrix(1.071, 0.317, -0.359, 0.948, -4.937, -3.515)" gradientUnits="objectBoundingBox">
      <stop offset="0" stop-color="#fffca6"/>
      <stop offset="0.47" stop-color="#fdfda4"/>
      <stop offset="0.66" stop-color="#f9f39f"/>
      <stop offset="0.8" stop-color="#f0f396"/>
      <stop offset="0.91" stop-color="#e9e98a"/>
      <stop offset="1" stop-color="#dfd87d"/>
    </radialGradient>
    <radialGradient id="radial-gradient-2" cx="0.504" cy="0.546" r="0.534" gradientTransform="matrix(0.967, 0.279, -0.281, 0.96, -0.317, -0.469)" gradientUnits="objectBoundingBox">
      <stop offset="0" stop-color="#fff5c5"/>
      <stop offset="0.5" stop-color="#fef4c3"/>
      <stop offset="0.7" stop-color="#fce9bb"/>
      <stop offset="0.85" stop-color="#faf3af"/>
      <stop offset="0.97" stop-color="#f6f69e"/>
      <stop offset="1" stop-color="#f5ec99"/>
    </radialGradient>
    <radialGradient id="radial-gradient-3" cx="0.584" cy="0.531" r="0.706" gradientTransform="matrix(-0.697, -0.27, -0.132, 0.65, -73.423, -13.443)" gradientUnits="objectBoundingBox">
      <stop offset="0" stop-color="#f1afc9"/>
      <stop offset="0.29" stop-color="#f1b1ca"/>
      <stop offset="0.5" stop-color="#f3bad1"/>
      <stop offset="0.68" stop-color="#f5cadb"/>
      <stop offset="0.84" stop-color="#f9e0ea"/>
      <stop offset="0.99" stop-color="#fefbfc"/>
      <stop offset="1" stop-color="#fff"/>
    </radialGradient>
    <radialGradient id="radial-gradient-4" cx="0.43" cy="0.576" r="0.568" gradientTransform="matrix(0.746, 0.338, -0.268, 0.941, 219.294, -356.924)" gradientUnits="objectBoundingBox">
      <stop offset="0" stop-color="#fff"/>
      <stop offset="0.48" stop-color="#f8dae6"/>
      <stop offset="1" stop-color="#f1afc9"/>
    </radialGradient>
    <radialGradient id="radial-gradient-5" cx="-1.56" cy="0.108" r="1.795" gradientTransform="matrix(1.381, 0.294, -0.424, 0.956, -6.08, -2.23)" gradientUnits="objectBoundingBox">
      <stop offset="0" stop-color="#fff6a6"/>
      <stop offset="0.47" stop-color="#fdfda4"/>
      <stop offset="0.66" stop-color="#f9f69f"/>
      <stop offset="0.8" stop-color="#f3e696"/>
      <stop offset="0.91" stop-color="#e6e98a"/>
      <stop offset="1" stop-color="#dfd57d"/>
    </radialGradient>
    <radialGradient id="radial-gradient-6" cx="0.545" cy="0.521" r="0.7" gradientTransform="matrix(0.7, 0.299, -0.148, 0.644, 2.39, -6.662)" gradientUnits="objectBoundingBox">
      <stop offset="0" stop-color="#f1afc9"/>
      <stop offset="0.29" stop-color="#edf1b1"/>
      <stop offset="0.5" stop-color="#f3bad1"/>
      <stop offset="0.68" stop-color="#f5cadb"/>
      <stop offset="0.84" stop-color="#f9e0ea"/>
      <stop offset="0.99" stop-color="#fefbfc"/>
      <stop offset="1" stop-color="#fff"/>
    </radialGradient>
    <radialGradient id="radial-gradient-7" cx="0.476" cy="0.51" r="0.551" gradientTransform="matrix(-0.75, -0.426, -0.353, 0.905, 1035.795, 249.866)" xlink:href="#radial-gradient-4"/>
    <radialGradient id="radial-gradient-8" cx="0.368" cy="0.685" r="0.458" gradientTransform="matrix(1.566, 0.287, -0.399, 0.814, -148.392, -73.953)" gradientUnits="objectBoundingBox">
      <stop offset="0" stop-color="#68403c"/>
      <stop offset="0.21" stop-color="#6a423e"/>
      <stop offset="0.36" stop-color="#714b47"/>
      <stop offset="0.49" stop-color="#7d5a57"/>
      <stop offset="0.6" stop-color="#8e706d"/>
      <stop offset="0.71" stop-color="#a38b89"/>
      <stop offset="0.82" stop-color="#beadac"/>
      <stop offset="0.91" stop-color="#ddd5d4"/>
      <stop offset="1" stop-color="#fff"/>
    </radialGradient>
    <radialGradient id="radial-gradient-9" cx="0.492" cy="0.602" r="1.406" gradientTransform="matrix(0.411, 0.368, -0.143, 0.818, -3.497, -4.352)" gradientUnits="objectBoundingBox">
      <stop offset="0" stop-color="#fff"/>
      <stop offset="0.37" stop-color="#fcfdfd"/>
      <stop offset="0.55" stop-color="#f5f7f8"/>
      <stop offset="0.69" stop-color="#e8ecf0"/>
      <stop offset="0.81" stop-color="#d5dde4"/>
      <stop offset="0.92" stop-color="#bdcad5"/>
      <stop offset="1" stop-color="#a4b6c6"/>
    </radialGradient>
  </defs>
  <g id="Gruppe_1544" data-name="Gruppe 1544" transform="translate(-66 -37)">
    <g id="Gruppe_601" data-name="Gruppe 601" transform="translate(31 -19.336)">
      <rect id="Rechteck_239" data-name="Rechteck 239" width="30" height="30" rx="15" transform="translate(93 60.336)" fill="#fff200"/>
      <path id="Pfad_2256" data-name="Pfad 2256" d="M-15365.588,7325.453s-10.834,1.75-10.608,8.82,2.556,7.571,2.756,7.757,4.658-2.276,3.167-5.11S-15365.588,7325.453-15365.588,7325.453Z" transform="translate(15472.446 -7262.747)" fill="#fffbb8"/>
    </g>
    <g id="Gruppe_602" data-name="Gruppe 602" transform="translate(244.297 138.664)">
      <g id="Gruppe_600" data-name="Gruppe 600" transform="translate(65.704 70.586)">
        <rect id="Rechteck_239-2" data-name="Rechteck 239" width="30" height="30" rx="15" transform="translate(-5.001 -10.25)" fill="#870f3b"/>
      </g>
      <path id="Pfad_2257" data-name="Pfad 2257" d="M-15365.588,7325.453s-10.834,1.75-10.608,8.82,2.556,7.571,2.756,7.757,4.658-2.276,3.167-5.11S-15365.588,7325.453-15365.588,7325.453Z" transform="translate(15440.446 -7262.747)" fill="#f47479"/>
    </g>
    <g id="Gruppe_604" data-name="Gruppe 604" transform="translate(5.297 76.664)">
      <g id="Gruppe_600-2" data-name="Gruppe 600" transform="translate(65.704 70.586)">
        <rect id="Rechteck_239-3" data-name="Rechteck 239" width="30" height="30" rx="15" transform="translate(-5.001 -10.25)" fill="#335381"/>
      </g>
      <path id="Pfad_2257-2" data-name="Pfad 2257" d="M-15365.588,7325.453s-10.834,1.75-10.608,8.82,2.556,7.571,2.756,7.757,4.658-2.276,3.167-5.11S-15365.588,7325.453-15365.588,7325.453Z" transform="translate(15440.446 -7262.747)" fill="#5d7597"/>
    </g>
    <g id="Gruppe_605" data-name="Gruppe 605" transform="translate(214.297 -23.336)">
      <g id="Gruppe_600-3" data-name="Gruppe 600" transform="translate(65.704 70.586)">
        <rect id="Rechteck_239-4" data-name="Rechteck 239" width="30" height="30" rx="15" transform="translate(-5.001 -10.25)" fill="#f26522"/>
      </g>
      <path id="Pfad_2257-3" data-name="Pfad 2257" d="M-15365.588,7325.453s-10.834,1.75-10.608,8.82,2.556,7.571,2.756,7.757,4.658-2.276,3.167-5.11S-15365.588,7325.453-15365.588,7325.453Z" transform="translate(15440.446 -7262.747)" fill="#f7a178"/>
    </g>
    <g id="gitl3" transform="translate(105.496 62.704)">
      <g id="Layer_2">
        <g id="kids">
          <ellipse id="Ellipse_429" data-name="Ellipse 429" cx="70.572" cy="11.218" rx="70.572" ry="11.218" transform="translate(13 276.662)" fill="#bfc8dc" opacity="0.5"/>
          <path id="Pfad_2363" data-name="Pfad 2363" d="M177.627,183.87s-2.122,34,21.041,43.337c0,0,10.078-3.457,11.743-11.731,0,0-9.926-5.121-16.992-12.8-8.536-9.273-7.213-18.657-7.213-18.657s-5.42,3.609-8.572-.152Z" transform="translate(-69.314 -71.764)" fill="#5ca536"/>
          <path id="Pfad_2364" data-name="Pfad 2364" d="M263.3,107.417l.03,1.232c.311-.006.622-.03.921-.055l-.122-1.225c.28-.024.555-.067.823-.11l.207,1.207c.3-.055.6-.116.9-.189l-.287-1.183q.4-.1.8-.219l.366,1.158c.287-.091.579-.2.866-.3l-.445-1.122c.262-.1.518-.207.768-.323l.518,1.079c.274-.134.549-.274.811-.427l-.585-1.036c.244-.134.488-.274.719-.427l.652.976c.256-.171.506-.354.744-.537l-.713-.915c.226-.165.445-.341.658-.524l.768.847c.226-.207.451-.421.658-.646l-.8-.768c.2-.2.39-.4.579-.61l.835.689c.2-.232.378-.482.561-.732l-.854-.6c.171-.226.335-.451.494-.689l.866.524c.159-.256.3-.524.451-.8l-.866-.451c.14-.244.274-.494.4-.75l.86.378c.122-.274.232-.555.335-.841l-.854-.317c.1-.262.2-.524.293-.8l.847.256q.128-.421.238-.86l-.854-.207c.067-.274.128-.549.177-.829l.866.165c.055-.287.1-.579.146-.872l-.89-.128c.018-.177.037-.348.049-.524.006-.1.006-.207.012-.317l.933.091c.018-.171.03-.348.043-.524.006-.122.018-.25.018-.372l-.994-.043c-.006-.287-.024-.567-.055-.847l1.049-.037c-.012-.311-.03-.622-.067-.927l-1.091.122c-.049-.28-.1-.555-.165-.829L276.032,92c-.061-.3-.134-.61-.213-.908l-1.128.317c-.085-.268-.177-.53-.274-.793l1.122-.408c-.1-.287-.226-.579-.354-.86l-1.1.5c-.116-.25-.25-.5-.384-.744l1.067-.585c-.146-.268-.3-.53-.469-.787l-1.018.658c-.152-.232-.311-.457-.482-.683l.976-.732q-.274-.366-.567-.713l-.927.793c-.183-.207-.366-.415-.561-.61l.884-.847c-.219-.226-.433-.439-.646-.634l-.841.915c-.207-.183-.415-.36-.634-.53l.8-.969c-.256-.213-.494-.4-.713-.555l-.762,1.043c-.226-.152-.463-.3-.7-.439l.707-1.122c-.268-.171-.427-.256-.427-.256l-.64,1.177a12.3,12.3,0,0,0-11.377-.116l-.378-.7c-.128.067-.25.14-.378.207l.384.683c-.262.146-.518.293-.768.457l-.415-.671c-.256.159-.506.317-.744.482l.463.677c-.226.171-.451.348-.665.537l-.53-.683c-.244.189-.482.39-.707.585l.61.683c-.2.2-.4.408-.585.628l-.7-.658q-.329.348-.622.713l.768.61c-.171.226-.335.463-.494.7l-.829-.537c-.171.262-.335.543-.482.823l.86.445c-.14.25-.268.506-.39.768l-.872-.354c-.116.287-.219.579-.317.878l.847.268c-.1.268-.2.537-.274.817l-.811-.189c-.067.287-.128.585-.177.89l.768.128q-.091.412-.165.841l-.732-.079c-.031.287-.061.579-.079.884l.707.049c-.006.1-.018.2-.024.3-.012.183-.018.366-.024.549l-.7-.018c-.006.28-.012.573-.006.866h.713c.012.274.037.555.067.829l-.762.03c.012.28.024.561.043.854l.835-.055c.055.28.116.561.189.835l-.945.116c.037.311.091.616.146.915l1.043-.213c.091.268.189.537.3.793l-1.116.323c.085.3.189.6.3.89l1.171-.445c.122.25.25.494.39.732l-1.189.579a9.112,9.112,0,0,0,.451.829l1.183-.707c.152.226.317.451.482.665l-1.14.829c.183.25.378.5.585.738l1.079-.939c.183.2.372.4.567.591l-1,1.03c.219.213.457.427.7.622l.908-1.1q.311.265.64.512l-.811,1.146c.25.177.506.348.774.506l.713-1.183c.232.152.463.293.7.427l-.61,1.2c.268.134.549.268.823.39l.524-1.213c.25.116.5.232.756.329l-.433,1.213c.287.1.573.2.86.28l.354-1.219c.262.085.53.159.8.219l-.274,1.219c.293.067.591.122.884.171l.2-1.219c.268.049.543.085.823.116l-.122,1.225c.3.03.61.055.908.061l.049-1.232c.28.012.555.012.829.006Z" transform="translate(-97.548 -32.308)" fill="#870f3b"/>
          <path id="Pfad_2365" data-name="Pfad 2365" d="M214.31,5.25s27.284,2.774,39.014,29.375c3.1,11.4.506,28.839-3.469,30.735-3.451-.7-6.213-13.816-9.834-22.626,0,0-1.542-19.169-25.711-37.484Z" transform="translate(-83.651 -2.048)" fill="#da1c5c"/>
          <path id="Pfad_2366" data-name="Pfad 2366" d="M248.552,44.449c.341-1.689-3.872-.774-4.3-5.335-.39-4.128,3.183-4.725,1.9-7.219-6.042,3.268-6.865-6.213-9.45-10.84-4.865-8.322-12.548-13.249-21.967-15.767-.262-.037-.4-.049-.4-.049,24.168,18.315,25.711,37.484,25.711,37.484,3.622,8.81,6.377,21.931,9.834,22.626a2.576,2.576,0,0,0,.494-.329c-3.189-4.756-8.17-15.59-1.8-20.571Z" transform="translate(-83.659 -2.044)" fill="#c01c5c" opacity="0.6"/>
          <path id="Pfad_2367" data-name="Pfad 2367" d="M186.81,224.577c.408.811.841,1.61,1.311,2.39,4.457-1.988,8.1-5.859,10.59-10.322-.482-.469-.957-.951-1.421-1.445-2.823,3.823-6.134,7.524-10.481,9.371Z" transform="translate(-72.918 -83.993)" fill="#5c7236"/>
          <path id="Pfad_2368" data-name="Pfad 2368" d="M203.774,221.47A20.145,20.145,0,0,1,193.11,233.1c.415.524.847,1.043,1.3,1.543a19.982,19.982,0,0,0,11.127-11.712c-.585-.463-1.177-.957-1.762-1.457Z" transform="translate(-75.377 -86.44)" fill="#5c7236"/>
          <path id="Pfad_2369" data-name="Pfad 2369" d="M211.65,227.96c-2.317,5.554-6.432,9.347-11.42,12.127q.878.722,1.829,1.39a29.817,29.817,0,0,0,11.56-12.163C212.991,228.9,212.326,228.442,211.65,227.96Z" transform="translate(-78.156 -88.973)" fill="#5c7236"/>
          <path id="Pfad_2370" data-name="Pfad 2370" d="M220.106,233.566c-1.689,5.56-6.566,9.566-11.706,11.987.738.378,1.5.726,2.292,1.049,0,0,10.078-3.457,11.743-11.731,0,0-.89-.463-2.329-1.311Z" transform="translate(-81.345 -91.159)" fill="#5c7236"/>
          <path id="Pfad_2371" data-name="Pfad 2371" d="M189.907,208.3a50.856,50.856,0,0,1,4.2-4.878c-.232-.244-.469-.488-.7-.738-8.536-9.273-7.213-18.657-7.213-18.657s-5.42,3.609-8.572-.152c0,0-2.122,34,21.041,43.337a19.921,19.921,0,0,0,2.384-1.055C193.016,222.108,185.6,215.133,189.907,208.3Z" transform="translate(-69.314 -71.768)" fill="#527b4f" opacity="0.3"/>
          <path id="Pfad_2372" data-name="Pfad 2372" d="M192.445,328.365s6.3-.9,10.8,0,8.889,7.816,7.4,18.773c-1.341,9.853-5.981,18.309-12.688,18.138-5.816.274-10.377-7.274-8.505-11.218s6.237-5.951,6.237-5.951,6.17-14.608-3.244-19.742Z" transform="translate(-73.785 -128.006)" fill="#a10013"/>
          <path id="Pfad_2373" data-name="Pfad 2373" d="M213.433,347.332c1.488-10.956-2.9-17.87-7.4-18.772-.207-.043-.415-.079-.628-.11,5.207,4.719,6.4,13.236,5.438,20.285a22.5,22.5,0,0,1-4.286,9.688,22.32,22.32,0,0,1-10.4,5.6,7.339,7.339,0,0,0,4.585,1.433c6.707.171,11.346-8.28,12.688-18.138Z" transform="translate(-76.567 -128.195)" fill="#400013"/>
          <path id="Pfad_2374" data-name="Pfad 2374" d="M206.832,347.333c2.866-10.4-2.28-14.956-10.389-17.023,6.365,6.006,1.2,18.254,1.2,18.254a13.811,13.811,0,0,0-1.6.921c4.512.012,10.09.372,10.786-2.152Z" transform="translate(-76.52 -128.921)" fill="#600213" opacity="0.3"/>
          <path id="Pfad_2375" data-name="Pfad 2375" d="M134.309,311.626s-3.7,18.468-1.372,27.022,23.516,8.761,34.99,1.963c0,0,11.084-9.908,2.927-19.632l-12.249.579-.384-13.218s-13.413,6.408-23.912,3.292Z" transform="translate(-51.591 -120.346)" fill="#870f3b"/>
          <path id="Pfad_2376" data-name="Pfad 2376" d="M164.182,338.778a31.4,31.4,0,0,1-10.237,2.646c-7.518.512-19.053-7.841-11.4-12.377,11.011-4.384,16.462-8.706,15.864-14.553l-.177-6.164s-13.413,6.408-23.912,3.292c0,0-3.7,18.468-1.372,27.022s23.516,8.761,34.99,1.963a20.514,20.514,0,0,0,5.475-8.743c-2.134,3.25-5.676,5.085-9.225,6.914Z" transform="translate(-51.595 -120.342)" fill="#9f3c4c" opacity="0.26"/>
          <path id="Pfad_2377" data-name="Pfad 2377" d="M224.9,149.786c-.213,1.329-8.792,16.962.25,26.022s9.981,6.036,18.254,11.011,4.841,12.127,4.841,12.127,4.036-2.524,4.231-9.3l2.536,6.762s4.183-3.408,4.006-10.694-2.274-13.98-9.072-19.62-18.681-10.743-19.657-15.895l-5.378-.421Z" transform="translate(-86.27 -58.459)" fill="#04141e"/>
          <path id="Pfad_2378" data-name="Pfad 2378" d="M74.281,110.44c.018,1.341,6.243,18.053-4.012,25.717s-10.755,4.53-19.657,8.249-6.542,11.3-6.542,11.3-3.634-3.079-2.841-9.81l-3.487,6.329s-3.646-3.975-2.414-11.164,4.274-13.5,11.816-18.1S67.178,115.037,68.9,110.08l5.384.366Z" transform="translate(-13.694 -42.964)" fill="#04141e"/>
          <path id="Pfad_2379" data-name="Pfad 2379" d="M55.093,370.6s-1.043,18.071-1.585,20.717-4.451,9.81-4.408,13.023c.049,3.939,4.365,7.127,11.889,7.969s12.627-.8,12.578-6.951c-.037-4.329-2.768-8.176-2.39-11.572s4.469-20.144,4.469-20.144a30.014,30.014,0,0,1-11.816.152,27.118,27.118,0,0,1-8.737-3.189Z" transform="translate(-19.169 -144.646)" fill="#a10013"/>
          <path id="Pfad_2380" data-name="Pfad 2380" d="M73.567,405.363c-.037-4.329-2.768-8.176-2.39-11.572s4.469-20.144,4.469-20.144a30.014,30.014,0,0,1-11.816.152,27.119,27.119,0,0,1-8.737-3.189s-.055.939-.146,2.421c2.274,4.042,9.475,2.969,10.688,6.8,1.945,5.1.36,13.139,3.463,18.961-2.9-.555-4.78.512-4.9,1.725.439,1.323,4.048.719,4.53,1.994,1.341,5.036-8.408,6.2-11.987,5.231a18.549,18.549,0,0,1-7.335-5.4,8.025,8.025,0,0,0-.3,2c.049,3.939,4.365,7.127,11.889,7.969s12.627-.8,12.578-6.951Z" transform="translate(-19.169 -144.65)" fill="#600213" opacity="0.3"/>
          <path id="Pfad_2381" data-name="Pfad 2381" d="M49.665,421.2a9.906,9.906,0,0,0-.555,2.884c.049,3.939,4.365,7.127,11.889,7.969,7.176.8,12.139-.652,12.548-6.121-2.884,1.872-5.6,3.987-10.505,3.591-4.676-.061-11.663-1.75-13.371-8.322Z" transform="translate(-19.172 -164.395)" fill="#400013"/>
          <path id="Pfad_2382" data-name="Pfad 2382" d="M63.276,294.46s-5.237,41.453-4.134,44.739c2.03,6.036,14.3,7.554,21.169,4.256l9.133-39.789s-20.986-3.286-26.168-9.206Z" transform="translate(-23.029 -114.928)" fill="#870f3b"/>
          <path id="Pfad_2383" data-name="Pfad 2383" d="M63.364,294.46s-.268,2.134-.671,5.469a25.435,25.435,0,0,0,3.036,2.616c13.291,8.06,18.657,15.553,11.182,31.887-4.7,3.567-11.3.829-16.382-2.116-.085,1.975-1.469,6.384-1.3,6.883,2.03,6.036,14.3,7.554,21.169,4.256l9.133-39.789s-20.986-3.286-26.168-9.206Z" transform="translate(-23.117 -114.928)" fill="#9f3c4c" opacity="0.26"/>
          <path id="Pfad_2384" data-name="Pfad 2384" d="M58.166,355.45a3.792,3.792,0,0,0-2,2.561,18.7,18.7,0,0,0,.274,7.1c.469,1.555,3.6,4.262,10.322,5.445s11.218-.671,12.7-2.433,2.573-7.639,1.75-7.95-3.085,2.652-13.029,1.543c-7.621-.854-10.011-6.268-10.011-6.268Z" transform="translate(-21.839 -138.733)" fill="#9d9d89"/>
          <path id="Pfad_2385" data-name="Pfad 2385" d="M81.727,363.186c-.823-.3-3.085,2.652-13.029,1.543a14.689,14.689,0,0,1-4.006-1.006c3.573,3.719,13.218,1.189,14.255,2.9a3.852,3.852,0,0,1-.543,4.1c-4.237,3.469-10.907,2.634-16.791.213-.628-.323-3.744-1.8-4.353-2.183,1,1.573,4.134,3.78,10.017,4.817,6.725,1.183,11.218-.671,12.7-2.433s2.573-7.639,1.75-7.95Z" transform="translate(-22.354 -141.744)" fill="#9d9d89" opacity="0.5"/>
          <path id="Pfad_2386" data-name="Pfad 2386" d="M185.3,348.983a30.568,30.568,0,0,0,4.292.14,8.623,8.623,0,0,0,4.573-1.244c1.366-.878,4.311-5.134,3.469-11.907-.689-5.542-3.987-8.207-6.091-9.145s-6.719-.628-7.133,1.451c-.067.878,6.182,1.1,5.957,11.1A11.8,11.8,0,0,1,185.3,348.983Z" transform="translate(-71.981 -127.364)" fill="#9d9d89"/>
          <path id="Pfad_2387" data-name="Pfad 2387" d="M19.586,88.1c-.53.171-7.426-5.743-9.926-6.121s-8.8-.616-9.011-4.14,8.743-.262,8.639-2.03S.149,75.389.009,71.6s11.426,1.61,11.462-.7S3.466,67.317,2.68,65.951s-.067-4.067,3.17-3.2,9.066,5.024,9.426,3.676-7.231-5.4-6.042-7.688,3.542-1.366,6.493.579c2.884,1.9,8.7,10.706,9.261,9.7s-.335-8.475,3.384-8.347,3.2,3.17,2.6,6.475S30.9,79.3,27.872,83.084c0,0-5.1,5-8.28,5.018Z" transform="translate(-0.008 -22.4)" fill="#4e7e36"/>
          <path id="Pfad_2388" data-name="Pfad 2388" d="M133.129,176.411c-8.194,3.329-14.163,4.932-24.162,3.122-12.023-3.152-14.352-6.749-17.315-14.773-.61.189-12.846,17.791-12.261,17.291-8.962,14.535-19,34.186-27.3,48.337-5.207,5.859,8.066,22.906,33.984,31.454,2.6.555,4.829.86,5.756,1.11,28.186,6.042,39.624-4.085,43.179-7.011,3.89-9.834,1.488-18.23.482-46.154.64-10.987-1.158-25.723-2.372-33.375Z" transform="translate(-19.902 -64.306)" fill="#bed644"/>
          <path id="Pfad_2389" data-name="Pfad 2389" d="M123.112,186.855a24.4,24.4,0,0,0,12.785,2.9c-4.481,8.133-5.2,19.5-4.554,25.284,6.4,5.536,21.48,3.768,23.9-2.122-.329-4.932-1.957-17.352.427-24.876-.476-4.573.628-8.609.152-11.633-8.194,3.329-14.163,4.932-24.162,3.122-12.023-3.152-14.352-6.749-17.315-14.773a80.438,80.438,0,0,0-5.225,6.987,20.511,20.511,0,0,0,13.992,15.108Z" transform="translate(-42.595 -64.306)" fill="#abb65d" opacity="0.31"/>
          <path id="Pfad_2390" data-name="Pfad 2390" d="M172.675,230.208a73.4,73.4,0,0,0-.549-13.108c-.658.189-2.012,24.741-2.018,31.338-.012,11.974-2.055,20.278-5.347,26.119-3.987,7.072-10.475,8.353-18.541,10.706,15.919-.2,23.254-6.658,25.973-8.9,3.89-9.834,1.488-18.23.482-46.154Z" transform="translate(-57.075 -84.734)" fill="#abb65d" opacity="0.31"/>
          <path id="Pfad_2391" data-name="Pfad 2391" d="M187.666,194.965s12.224-4.823,31.137-11.231a107.283,107.283,0,0,0,30.265-16.5s-1.049-6.012-6.505-12.6c-11.2,6.219-35.527,16.5-57.9,17.858a101.858,101.858,0,0,0,3,22.467Z" transform="translate(-72.079 -60.356)" fill="#bed644"/>
          <path id="Pfad_2392" data-name="Pfad 2392" d="M243.3,154.636c-1.061.591-2.244,1.219-3.53,1.872-.969,2.146-1.482,4.737,2,10.749,1.018,3-11.621,9.737-22.437,13.261-7.682,2.884-17.895,8.633-26.1,7.92-3.286-.317-6.213-5.292-6.688-10.328.427,3.89.6,12.066,1.853,16.846,0,0,12.224-4.823,31.137-11.231a107.284,107.284,0,0,0,30.265-16.5s-1.049-6.012-6.505-12.6Z" transform="translate(-72.812 -60.352)" fill="#abb65d" opacity="0.31"/>
          <path id="Pfad_2393" data-name="Pfad 2393" d="M71.011,156.116S60.445,144.757,47.6,129.472s-17-26.253-17-26.253,5.926-6.3,12.316-7.969c4.213,1.128,14.023,28.613,38.789,43.886a22.281,22.281,0,0,1-10.694,16.98Z" transform="translate(-11.948 -37.175)" fill="#bed644"/>
          <path id="Pfad_2394" data-name="Pfad 2394" d="M69.956,148.275c-4.835-1.732-7.908-7.085-10.974-10.371-8.816-10.017-21.156-21.711-19.285-29.046-.159-2.579,5.451-5.908,6.951-10.011-1.628-2.055-2.859-3.366-3.731-3.6-6.39,1.664-12.316,7.969-12.316,7.969s4.152,10.968,17,26.253,23.412,26.644,23.412,26.644c3.323-3.536,8.505-10.7,9.194-14.121-2.5,4.292-5.3,8.048-10.243,6.28Z" transform="translate(-11.948 -37.175)" fill="#abb65d" opacity="0.31"/>
          <path id="Pfad_2395" data-name="Pfad 2395" d="M26.783,98.7s10.834-3.92,13.913-9.371c0,0,1.75-1.25,3,1.591,1.8,2,2.146,3.109.762,5.268s-9.822,9.676-13.712,9.359c-2.238-.183-4.725-4.341-3.957-6.847Z" transform="translate(-10.405 -34.756)" fill="#5ca536"/>
          <path id="Pfad_2396" data-name="Pfad 2396" d="M41.909,89.08a1.692,1.692,0,0,0-1.225.244C37.611,94.775,26.77,98.7,26.77,98.7a3.556,3.556,0,0,0-.14,1.067c2.42-.6,13.468-5.231,15.273-10.682Z" transform="translate(-10.399 -34.755)" fill="#527b4f" opacity="0.6"/>
          <path id="Pfad_2397" data-name="Pfad 2397" d="M289.091,153.837c.4.4,9.231-1.725,11.627-.927s8.109,3.457,9.908.421-7.664-4.219-6.762-5.743,8.328,3.792,10.182.476-10.9-3.774-9.883-5.841,8.755.457,10.084-.4,1.914-3.585-1.36-4.292-10.359.341-10.066-1.024,8.9-1.512,8.877-4.091-2.536-2.829-6.042-2.445c-3.433.378-12.627,5.566-12.663,4.414s4.164-7.39.786-8.975-4.292,1.36-5.268,4.579-5.475,10.853-4.5,15.6c0,0,2.256,6.774,5.085,8.237Z" transform="translate(-110.803 -48.773)" fill="#4e7e36"/>
          <path id="Pfad_2398" data-name="Pfad 2398" d="M289.052,162.218s-7.859-8.432-8.115-14.681c0,0-.988-1.908-3.4.049-2.518.957-3.329,1.793-3.079,4.341s4.335,13.084,7.944,14.578c2.079.86,6.182-1.707,6.646-4.292Z" transform="translate(-107.112 -57.258)" fill="#5ca536"/>
          <path id="Pfad_2399" data-name="Pfad 2399" d="M283.466,146.8a1.7,1.7,0,0,1,.982.774c.256,6.249,8.115,14.681,8.115,14.681a3.435,3.435,0,0,1-.366,1.012c-1.878-1.64-9.6-10.8-8.731-16.468Z" transform="translate(-110.617 -57.296)" fill="#527b4f" opacity="0.6"/>
          <path id="Pfad_2400" data-name="Pfad 2400" d="M113.2,161.68a8.167,8.167,0,0,0-4.268,5.658c.768,3.847,2.469,12.932,19.736,17.651,23.644,5.969,31.119-2.427,29.692-10.542-.585-2.622-4.591.39-9.273-.085-3.445-.354-11.413-1.719-15.163-2.14-8.871-1-16.8-8.359-20.723-10.536Z" transform="translate(-42.521 -63.103)" fill="#5ca536"/>
          <path id="Pfad_2401" data-name="Pfad 2401" d="M155.539,181.355c.75-1.183,1.116-4.926-1.274-6.213-1.713.323-2.579-.049-5.195-.317-1.573-.159-7.426.037-10.054-.36-3.116-.311-.6,8.121-4.317,9.639-2.036.829-11.218-2.439-15.834-5.347-4.945-3.676-10.286-10.036-6.871-15.858a7.748,7.748,0,0,0-3.085,4.9c.768,3.847,2.469,12.932,19.736,17.651,21.577,5.445,29.686-1.073,29.851-8.42-.811,1.4-.982,3.689-2.969,4.317Z" transform="translate(-42.513 -63.58)" fill="#527b4f" opacity="0.3"/>
          <path id="Pfad_2402" data-name="Pfad 2402" d="M219.04,153.734c1.908.64,7.347.293,10.2-3.664,3.89-4.969.915-11.06-4.951-9.273a38.706,38.706,0,0,1-5.243,12.938Z" transform="translate(-85.497 -54.828)" fill="url(#radial-gradient)"/>
          <path id="Pfad_2403" data-name="Pfad 2403" d="M228.706,145.38c-1.408-.652-2.866-1.061-4.152-.451a39.418,39.418,0,0,1-3.274,8.2,12.111,12.111,0,0,0,4.109-.591c2.994-1.1,5.457-4.518,3.317-7.152Z" transform="translate(-86.372 -56.448)" fill="#ffeda6" opacity="0.6"/>
          <path id="Pfad_2404" data-name="Pfad 2404" d="M180.037,98.879c-2.488,9.511-3.615,13.169-5.03,16.041-10.536,18.882-27.869,19.522-46.392,14.425-23.242-7.828-28.418-20.425-28.8-34.533.86-5.829,1.75-8.194,3.853-15.578,5.92-20.778,28.845-33.984,49.666-27.467s31.613,28.284,26.692,47.111Z" transform="translate(-38.965 -19.551)" fill="url(#radial-gradient-2)"/>
          <path id="Pfad_2405" data-name="Pfad 2405" d="M132.188,85.9a11.326,11.326,0,0,1,3.408-.128,9.565,9.565,0,0,1,2.92,1.085,2.088,2.088,0,0,0-.646-2.481,3.817,3.817,0,0,0-3.829-.707c-1.695.445-2.14,1.927-1.853,2.238Z" transform="translate(-51.567 -32.567)" fill="#c34e5b" opacity="0.21"/>
          <path id="Pfad_2406" data-name="Pfad 2406" d="M132.066,85.837a7.8,7.8,0,0,1,2.945-.64,7.678,7.678,0,0,1,2.92,1.085,1.564,1.564,0,0,0-.354-1.482,3.5,3.5,0,0,0-3.89-1.134c-1.695.439-2.116,1.683-1.622,2.164Z" transform="translate(-51.476 -32.585)" fill="#3c2415"/>
          <path id="Pfad_2407" data-name="Pfad 2407" d="M211.2,109.126a21.271,21.271,0,0,1,2.835,1.475,11.426,11.426,0,0,1,2.164,2.1,2.044,2.044,0,0,0,.719-1.908,3.409,3.409,0,0,0-2.609-2.8c-1.988-.738-3.28.469-3.1,1.134Z" transform="translate(-82.435 -42.059)" fill="#c34e5b" opacity="0.21"/>
          <path id="Pfad_2408" data-name="Pfad 2408" d="M212.138,108.733a7.8,7.8,0,0,1,2.884.872,7.548,7.548,0,0,1,2.024,2.372,1.567,1.567,0,0,0,.415-1.463,3.491,3.491,0,0,0-2.847-2.878c-1.695-.433-2.664.439-2.469,1.1Z" transform="translate(-82.796 -41.965)" fill="#3c2415"/>
          <path id="Pfad_2409" data-name="Pfad 2409" d="M187.586,62.441c-3.561-20.461-15.639-35.631-35.277-35.32a.03.03,0,0,1-.006.018c-11.2-10.4-40.325-7.054-53.738,20.278C90.59,59.2,93.651,68.19,93.651,68.19a17.937,17.937,0,0,0,5.036,8.578c3.707-17.821,11.633-19.657,11.633-19.657,5.481-.579,14.066-2.451,17.577-5.164-1.341,3.439-5.829,4.652-7.335,5.816,3.872,1.4,10.133.476,17.821-3.9-1.421,3-5.615,5.451-9.645,7.109,8.53,2.53,17.328-1.725,21.492-2.677-.86,3.786,8.3,14.724,23.357,17.389,2.049,3.774,2.744,10.078,2.311,13.639-.506,4.17-.732,5.262-.732,5.262s3.951-1.146,5.768,1.921c7.853-8.158,9.042-20.285,6.646-34.058Z" transform="translate(-36.332 -8.469)" fill="#04141e"/>
          <path id="Pfad_2410" data-name="Pfad 2410" d="M103.907,112.39c-.744,2.652,1.8,5.676,5.695,6.768s7.639-.177,8.377-2.829-1.8-5.676-5.695-6.768S104.645,109.738,103.907,112.39Z" transform="translate(-40.51 -42.609)" opacity="0.58" fill="url(#radial-gradient-3)"/>
          <path id="Pfad_2411" data-name="Pfad 2411" d="M111.518,113.339a.92.92,0,0,1-1.225.366c-.537-.2-.854-.671-.713-1.061a.926.926,0,0,1,1.225-.366C111.341,112.473,111.658,112.949,111.518,113.339Z" transform="translate(-42.761 -43.79)" opacity="0.6" fill="url(#radial-gradient-4)"/>
          <path id="Pfad_2412" data-name="Pfad 2412" d="M96.437,110.446c-3.311-.561-7.079-2.524-7.127-8.341s6.262-9.328,10.334-3.841a118.638,118.638,0,0,0-3.2,12.182Z" transform="translate(-34.863 -37.281)" fill="url(#radial-gradient-5)"/>
          <path id="Pfad_2413" data-name="Pfad 2413" d="M96.015,99.881c-3.695,2.945-.872,7.627,2.951,9.316.774-3.341,1.786-6.725,2.292-8.377C99.35,99.412,97.264,99.028,96.015,99.881Z" transform="translate(-36.806 -38.807)" fill="#fff3a6" opacity="0.6"/>
          <path id="Pfad_2414" data-name="Pfad 2414" d="M194.583,59.274c2.463-9.091-1.695-49.056-31.924-57.525C139.99-4.6,120.816,7.5,108.628,19.26A61.081,61.081,0,0,0,94.6,40.209c-2.9,7.511-5.073,17.584-1.683,18.821,0,0,14.474-22.3,51.05-8.548s37.179,36.887,37.179,36.887,10.267-9.731,13.438-28.1Z" transform="translate(-35.597 0.002)" fill="#da1c5c"/>
          <path id="Pfad_2415" data-name="Pfad 2415" d="M167.156,61.09c-20.553-11-50.739-20.6-70.779-6.341-.658,1.347-1.256,2.7-1.768,4.036-2.9,7.511-5.073,17.584-1.683,18.821,0,0,14.474-22.3,51.05-8.548s37.179,36.887,37.179,36.887,7.127-6.762,11.34-19.644c-2.372-3.116-5.073-7.408-8.737-11.5-5.658-6.329-9.158-9.865-16.6-13.7Z" transform="translate(-35.601 -18.569)" fill="#870f3b"/>
          <path id="Pfad_2416" data-name="Pfad 2416" d="M211.862,151.381c-.823,2.628-4.609,3.774-8.463,2.567s-6.3-4.317-5.481-6.938,4.609-3.774,8.463-2.567S212.685,148.759,211.862,151.381Z" transform="translate(-77.191 -56.188)" opacity="0.58" fill="url(#radial-gradient-6)"/>
          <path id="Pfad_2417" data-name="Pfad 2417" d="M215.155,150.787a1.079,1.079,0,1,0,1.256-.25A.929.929,0,0,0,215.155,150.787Z" transform="translate(-83.96 -58.704)" opacity="0.6" fill="url(#radial-gradient-7)"/>
          <path id="Pfad_2418" data-name="Pfad 2418" d="M149.718,219.471s-1.408-9.6,3.134-24.284c1.829-9.158,3.3-13.236,1.14-13.511,0,0,3.195-2.622,14.895.012,4.762,3.1.219,12.218-.756,18.157s-.866,12.956.744,17.632c-1.311,3.9-12.511,7.53-19.163,2Z" transform="translate(-58.36 -70.455)" fill="#5ca536"/>
          <path id="Pfad_2419" data-name="Pfad 2419" d="M168.657,215.235c-4.207,1.738-11.627.9-16.529-1.165-.177.768-.341,1.524-.488,2.25,3.213,1.872,11.243,2.786,16.8,1.494Q168.51,216.515,168.657,215.235Z" transform="translate(-59.191 -83.552)" fill="#5c7236"/>
          <path id="Pfad_2420" data-name="Pfad 2420" d="M167.769,227.392c-.024-.53-.037-1.494-.037-2.036a33.954,33.954,0,0,1-17.449-.256c-.085.634-.152,1.232-.213,1.817a28.73,28.73,0,0,0,17.706.476Z" transform="translate(-58.578 -87.857)" fill="#5c7236"/>
          <path id="Pfad_2421" data-name="Pfad 2421" d="M168.242,236.1c-.122-.567-.232-1.146-.317-1.744a28.037,28.037,0,0,1-18.352.067c-.024.64-.037,1.232-.043,1.78,6.042,2.457,12.718,1.738,18.718-.1Z" transform="translate(-58.367 -91.471)" fill="#5c7236"/>
          <path id="Pfad_2422" data-name="Pfad 2422" d="M149.63,241.113c.061,1,.134,1.543.134,1.543,6.652,5.53,17.852,1.9,19.163-2-.085-.244-.159-.5-.232-.756C163.171,244,156.483,244.7,149.63,241.113Z" transform="translate(-58.406 -93.633)" fill="#5c7236"/>
          <path id="Pfad_2423" data-name="Pfad 2423" d="M166.962,122.249l-.091-.543a2.88,2.88,0,0,0,2.481-2.091c.006-.146-.091-.2-.872-.335a7.484,7.484,0,0,1-2.14-.628c-2.177-1.079-1.067-4.4-1.018-4.542l.6.2s-1.012,3.036.689,3.878a6.892,6.892,0,0,0,1.939.561c.719.128,1.463.256,1.427.945a3.368,3.368,0,0,1-3.006,2.555Z" transform="translate(-64.404 -44.537)" fill="url(#radial-gradient-8)"/>
          <path id="Pfad_2424" data-name="Pfad 2424" d="M140.905,139.45c.146.476,4.207,2.951,9.182,4.689,5.993,2.1,10.145,3,10.725,2.866-2.5,5.53-4.048,7.585-6.225,9.109-2.36,1.652-5.377,1.914-8.853.634a10.326,10.326,0,0,1-5.621-5.164,15.272,15.272,0,0,1,.793-12.133Z" transform="translate(-54.333 -54.427)" fill="#900021"/>
          <path id="Pfad_2425" data-name="Pfad 2425" d="M160.614,146.812h0m0,0c-2.5,5.53-4.048,7.585-6.225,9.109-2.36,1.652-5.378,1.914-8.853.634l-.146-.055a10.324,10.324,0,0,1-5.475-5.1,15.272,15.272,0,0,1,.793-12.133c.128.421,3.341,2.421,7.536,4.079.537.213,1.085.415,1.646.616,5.993,2.1,10.145,3,10.725,2.866m.116-.293h0a.317.317,0,0,0-.183-.012c-.421.091-4.164-.622-10.548-2.853-.537-.189-1.091-.4-1.634-.61-4.054-1.6-7.085-3.487-7.359-3.9a.315.315,0,0,0-.177-.177.2.2,0,0,0-.085-.018.314.314,0,0,0-.3.159c-1.158,2.11-2.823,7.42-.8,12.4a10.668,10.668,0,0,0,5.646,5.28c.049.018.1.043.152.061,3.512,1.293,6.67,1.067,9.139-.671,2.042-1.433,3.658-3.323,6.323-9.219,0-.012.012-.024.018-.037a.308.308,0,0,0-.177-.4h0Z" transform="translate(-54.136 -54.235)" fill="#863421"/>
          <path id="Pfad_2426" data-name="Pfad 2426" d="M139.56,154.889a12.058,12.058,0,0,0,.7,2.414,10.349,10.349,0,0,0,5.621,5.164c3.481,1.286,6.493,1.024,8.853-.634a11.118,11.118,0,0,0,2.091-1.884c-4.3-4.231-12.048-7.371-17.26-5.06Z" transform="translate(-54.476 -60.147)" fill="#d86585"/>
          <path id="Pfad_2427" data-name="Pfad 2427" d="M157.253,148.35a7.094,7.094,0,0,0,4.4-.616l.3-.652c-.579.14-4.731-.768-10.725-2.866-4.64-1.622-8.481-3.884-9.1-4.567a3.062,3.062,0,0,0,1.219,2.738c3.67,3.195,10.231,5.518,13.907,5.963Z" transform="translate(-55.47 -54.505)" fill="url(#radial-gradient-9)"/>
          <g id="Gruppe_591" data-name="Gruppe 591" transform="translate(87.04 94.492)" opacity="0.5">
            <path id="Pfad_2428" data-name="Pfad 2428" d="M150.891,160.992c2.244.427,5.536-.2,4.731-1.616-2.006-2.628-10.45-5.6-12.627-3.89-1.36,1.573,3.676,5.036,7.9,5.512Z" transform="translate(-142.769 -154.98)" fill="#d86585"/>
          </g>
          <path id="Pfad_2429" data-name="Pfad 2429" d="M128.274,101.829a6.869,6.869,0,0,0-6.487-1.317c-.3-.354-1.317-2.134-1.5-1.988-.165.128.469,1.683.854,2.207a3.072,3.072,0,0,0-.4.165c-.719-.433-1.9-1.28-2.152-1.14s.927,1.146,1.579,1.567a2.3,2.3,0,0,0-.335.445c-.652-.061-1.9-.293-2.036-.11-.14.2,1.256.543,1.829.616a1.022,1.022,0,0,0,.274,1.152c.244-.4,1.982-1.463,5.5-.561,2.274.585,3.707,1.914,5.573,4.536C131.75,106.414,129.9,103.189,128.274,101.829Z" transform="translate(-45.977 -38.45)" fill="#ffc7a6" opacity="0.6"/>
          <path id="Pfad_2430" data-name="Pfad 2430" d="M128.474,100.249a6.869,6.869,0,0,0-6.487-1.317c-.3-.354-1.317-2.134-1.5-1.988-.165.128.469,1.683.854,2.207a3.073,3.073,0,0,0-.4.165c-.719-.433-1.9-1.28-2.152-1.14s.927,1.146,1.579,1.567a2.3,2.3,0,0,0-.335.445c-.652-.061-1.9-.293-2.036-.11-.14.2,1.256.543,1.829.616a1.022,1.022,0,0,0,.274,1.152c.244-.4,1.982-1.463,5.5-.561,2.274.585,3.707,1.914,5.573,4.536C131.95,104.834,130.1,101.609,128.474,100.249Z" transform="translate(-46.055 -37.834)" fill="#422723"/>
          <path id="Pfad_2431" data-name="Pfad 2431" d="M199.888,129.816a6.87,6.87,0,0,1,5.652,3.439c.463-.055,2.414-.671,2.451-.439.037.207-1.488.915-2.128,1.043a3.244,3.244,0,0,1,.183.4c.823.171,2.268.354,2.353.628s-1.457.207-2.225.079a2.266,2.266,0,0,1-.055.549c.524.4,1.6,1.079,1.567,1.3-.03.244-1.293-.457-1.756-.793-.25.463-.652.738-.982.658.1-.463-.463-2.421-3.658-4.146-2.067-1.116-4.024-1.116-7.17-.457.1-1.256,3.646-2.366,5.762-2.262Z" transform="translate(-75.771 -50.664)" fill="#ffc7a6" opacity="0.6"/>
          <path id="Pfad_2432" data-name="Pfad 2432" d="M200.808,128.526a6.87,6.87,0,0,1,5.652,3.439c.463-.055,2.414-.671,2.451-.439.037.207-1.488.915-2.128,1.043a3.241,3.241,0,0,1,.183.4c.823.171,2.268.354,2.353.628s-1.457.207-2.225.079a2.265,2.265,0,0,1-.055.549c.524.4,1.6,1.079,1.567,1.3-.03.244-1.293-.457-1.756-.793-.25.463-.652.738-.982.658.1-.463-.463-2.42-3.658-4.146-2.067-1.116-4.024-1.116-7.17-.457.1-1.256,3.646-2.366,5.762-2.262Z" transform="translate(-76.13 -50.161)" fill="#422723"/>
          <path id="Pfad_2433" data-name="Pfad 2433" d="M194.594,57.887l-.043-.817c-.427-8.816-.427-12.749-.268-14.547-2.213,1.067-7.463,3.628-11.2,5.451l-.823.4-.9-15.553-13.3,7.932-2.549-13.986L153.5,35.688l-4.847-12.694L137.466,32.9,132.96,22.634C129.284,25.9,120.2,33.956,119.578,34.292l-.756.4-.982-6.268,1.085-.994.8,5.195c2.189-1.841,8.621-7.524,13.047-11.462l.628-.555,4.506,10.273,11.255-9.969,4.9,12.834,12.291-9.133L168.945,38.8l13.517-8.06.908,15.736,5.31-2.591c1.536-.744,3.067-1.494,4.219-2.049l1.4-.671c.159-.079.311-.146.445-.2a.153.153,0,0,0,.043-.024h0c.378-.14.652-.134.854.25l.274.537-.372.2c-.256,1.232-.1,7.993.2,14.279l9.109-3.183.4,1.152L194.594,57.9Z" transform="translate(-45.998 -8.043)" fill="#870f3b"/>
          <path id="Pfad_2434" data-name="Pfad 2434" d="M179.012,21.432c-18.218-7.018-27.918-6.158-41.849-6.822a41.028,41.028,0,0,0-6.353,4.481c28.229-3.951,62.762,6.316,79.3,32.155a71.465,71.465,0,0,0-1.341-7.237c-5.012-7.53-12.639-15.992-29.747-22.583Z" transform="translate(-51.061 -5.701)" fill="#fff"/>
          <path id="Pfad_2435" data-name="Pfad 2435" d="M105.1,42.444a62.122,62.122,0,0,0-5.42,8.981c20.041-14.255,49.873-4.268,70.426,6.737,7.438,3.835,14.316,9.755,17.6,14.279,2.853,3.939,5.719,7.42,8.091,10.536a58.845,58.845,0,0,0,1.927-7.572C188.836,63.973,178,53.675,161.405,46.981c-15.864-6.4-33.844-11.554-56.311-4.542Z" transform="translate(-38.911 -15.251)" fill="#fff"/>
        </g>
      </g>
    </g>
    <g id="Gruppe_772" data-name="Gruppe 772" transform="translate(16754.705 -9827.441)">
      <g id="Komponente_7_15" data-name="Komponente 7 – 15" transform="translate(-16448 9913.441)">
        <g id="Gruppe_677" data-name="Gruppe 677">
          <rect id="Rechteck_239-5" data-name="Rechteck 239" width="32.59" height="32.59" rx="16.295" fill="#ec008c"/>
        </g>
        <path id="Pfad_2257-4" data-name="Pfad 2257" d="M-15364.67,7325.453s-11.769,1.9-11.523,9.582,2.774,8.225,2.994,8.426c.2.2,5.06-2.472,3.44-5.551S-15364.67,7325.453-15364.67,7325.453Z" transform="translate(15380.046 -7322.878)" fill="#ff5cbd"/>
      </g>
    </g>
  </g>
</svg>
