<svg xmlns="http://www.w3.org/2000/svg" width="452.437" height="642.386" viewBox="0 0 452.437 642.386">
  <g id="baum2" transform="translate(0.001)">
    <g id="Gruppe_439" data-name="Gruppe 439" transform="translate(0 0)">
      <g id="Gruppe_438" data-name="Gruppe 438" transform="translate(8.316 498.978)">
        <g id="background" transform="translate(83.878 94.007)">
          <path id="Pfad_1531" data-name="Pfad 1531" d="M56.443,17.6C29.2,17.81,22.579,15.668,0,33.14c6.777,7.628,21.5-4.958,36.687-1.936,19.6,3.9,34.482,12.044,39.511,11.662,15.419-1.188,10.464-10.768,40.918-7.775,19.084,1.878,36.687,13.6,60.524,4.489-.266,9.8,15.291,12.572,20.5,6.924l.437-11.648c24.22,5.765,55.58,8.729,77.967-6.616-5.9-18.132-33.959,0-63.07-21.682-9.27-12.308-33.682-3.286-52.628-4.5-8.578-.543-18.978,9.433-28.216,9.711S105.906,7.1,95.943,9.829C79.928,14.216,70.881,17.487,56.432,17.6Z" transform="translate(0 0.001)" fill="#a1b9c6" opacity="0.6"/>
        </g>
        <path id="Pfad_2252" data-name="Pfad 2252" d="M-14998.5,7699.253c3.357,59.642,0,79.1,0,79.1s37.23,14.2,57.577,0,0-91.02,0-91.02S-15001.854,7639.61-14998.5,7699.253Z" transform="translate(15187.403 -7669.257)" fill="#6e3500" stroke="#707070" stroke-width="1"/>
        <path id="Pfad_2253" data-name="Pfad 2253" d="M-14952.93,7796.007s11.978-42.35-6.755-91.864c.264-11.739,25.709,0,25.709,0s13.731,86.279-6.145,88.1C-14941,7793.188-14952.93,7796.007-14952.93,7796.007Z" transform="translate(15189.176 -7680.603)" fill="#552500"/>
      </g>
      <path id="Pfad_2219" data-name="Pfad 2219" d="M1372,329c-29.92-54.653-61-85.493-97.2-139.818,15.231-2.07,44.29-3.1,34.1-18.574C1266.028,108.6,1237.154,64.442,1188.065,5.77c-9.541-37.066-105.17,100.2-131.364,128.891-31.529,40.024-11.071,33.652,33.453,44.248C1054,220.352,988.262,311.546,980.052,335.926c-3.015,15.825,90.444,3.655,93.2,3.955C1028.724,391.1,994.5,440.925,945.821,503.768c-8.045,10.385,39.191,10.762,118.956,15.983,90.439,5.919,194.625,9,213.234,8.662,16.985-.3,101.9.372,119.36-8.662-15.751-52.986-53.9-117.454-72.48-163.528,23.056-.095,53.9-2.494,55.369-16.342m-26.4,6.134c.031.035.066.067.1.1-.038,0-.078.007-.119.008.008-.037.017-.073.023-.11M1322.489,178.2c.02-.126.053-.25.065-.376.107.119.211.238.316.357l-.38.02" transform="translate(-944.934 0.534)" fill="#00a651"/>
    </g>
    <path id="Pfad_2254" data-name="Pfad 2254" d="M-15146.982,7182.547s30.646,7.388,80.852,7.388,106.063,6.522,110.246,6.522-26.459,14.1-104.6,12.341S-15146.982,7182.547-15146.982,7182.547Z" transform="translate(15281.537 -7009.09)" fill="#009151"/>
    <path id="Pfad_2255" data-name="Pfad 2255" d="M0,0S42.505,13.364,112.207,13.124s147.211,11.422,153.021,11.4S228.41,50.441,119.942,47.591,0,0,0,0Z" transform="matrix(0.999, -0.035, 0.035, 0.999, 122.613, 340.09)" fill="#009151"/>
  </g>
</svg>
