<svg xmlns="http://www.w3.org/2000/svg" xmlns:xlink="http://www.w3.org/1999/xlink" width="285.648" height="265.782" viewBox="0 0 285.648 265.782">
  <defs>
    <radialGradient id="radial-gradient" cx="0.5" cy="0.5" r="0.504" gradientTransform="translate(0.008) scale(0.984 1)" gradientUnits="objectBoundingBox">
      <stop offset="0" stop-color="#ffd9ed"/>
      <stop offset="0.32" stop-color="#ffddef"/>
      <stop offset="0.66" stop-color="#ffeaf5"/>
      <stop offset="1" stop-color="#fff"/>
    </radialGradient>
    <radialGradient id="radial-gradient-2" cx="0.5" cy="0.5" r="0.504" gradientTransform="translate(0.008) scale(0.985 1)" gradientUnits="objectBoundingBox">
      <stop offset="0" stop-color="#ffd9ed"/>
      <stop offset="0.37" stop-color="#ffdbee"/>
      <stop offset="0.65" stop-color="#ffe5f2"/>
      <stop offset="0.89" stop-color="#fff5fa"/>
      <stop offset="1" stop-color="#fff"/>
    </radialGradient>
    <linearGradient id="linear-gradient" x1="0.898" y1="-2.908" x2="0.052" y2="-3.657" gradientUnits="objectBoundingBox">
      <stop offset="0" stop-color="#fff"/>
      <stop offset="1" stop-color="#a1b9c6"/>
    </linearGradient>
    <radialGradient id="radial-gradient-3" cx="0.5" cy="0.5" r="0.5" gradientTransform="matrix(0.995, -0.099, 0.099, 0.995, 0.986, -0.038)" gradientUnits="objectBoundingBox">
      <stop offset="0.62" stop-color="#7fa0ce"/>
      <stop offset="0.67" stop-color="#89a7d1"/>
      <stop offset="0.75" stop-color="#a5bcdc"/>
      <stop offset="0.85" stop-color="#d2dded"/>
      <stop offset="0.94" stop-color="#fff"/>
    </radialGradient>
    <radialGradient id="radial-gradient-4" cx="0.5" cy="0.5" r="0.5" gradientTransform="matrix(0.456, 0.89, -0.89, 0.456, -8.986, -5.663)" xlink:href="#radial-gradient-3"/>
  </defs>
  <g id="baumFull" transform="translate(-54.353 -46.856)">
    <g id="baumFull-2" data-name="baumFull" transform="translate(15267.234 -9955.191)">
      <g id="Gruppe_448" data-name="Gruppe 448" transform="translate(-15212.882 10007.987)">
        <g id="Gruppe_439" data-name="Gruppe 439" transform="translate(0 0)">
          <g id="Gruppe_438" data-name="Gruppe 438" transform="translate(3.368 201.767)">
            <g id="background" transform="translate(0 38.07)">
              <path id="Pfad_1531" data-name="Pfad 1531" d="M36.723,7.128C19,7.212,14.691,6.344,0,13.42c4.409,3.089,13.99-2.008,23.87-.784,12.749,1.58,22.435,4.877,25.707,4.723C59.608,16.877,56.385,13,76.2,14.21c12.417.76,23.87,5.507,39.378,1.818-.173,3.968,9.949,5.091,13.339,2.8l.284-4.717c15.758,2.335,36.162,3.535,50.727-2.679-3.841-7.343-22.095,0-41.035-8.78C132.86-2.329,116.977,1.324,104.651.831,99.07.611,92.3,4.651,86.293,4.764S68.905,2.875,62.423,3.98C52,5.756,46.117,7.081,36.716,7.128Z" transform="translate(0 0.001)" fill="#a1b9c6" opacity="0.6"/>
            </g>
            <path id="Pfad_2252" data-name="Pfad 2252" d="M-14998.576,7681.4c1.359,24.154,0,32.032,0,32.032s15.078,5.751,23.316,0,0-36.859,0-36.859S-14999.936,7657.251-14998.576,7681.4Z" transform="translate(15075.077 -7669.257)" fill="#6e3500"/>
            <path id="Pfad_2253" data-name="Pfad 2253" d="M-14956.949,7738.24a64.711,64.711,0,0,0-2.736-37.2c.107-4.754,10.412,0,10.412,0s5.561,34.94-2.49,35.678C-14952.117,7737.1-14956.949,7738.24-14956.949,7738.24Z" transform="translate(15052.621 -7691.505)" fill="#552500"/>
          </g>
          <path id="Pfad_2219" data-name="Pfad 2219" d="M1127.636,138.625c-12.117-22.133-34.457-40.094-49.117-62.094,6.168-.838,32.359,2.26,23.7-5.457-20.529-23.118-38.943-45.06-58.822-68.82-3.864-15.011-51.583,49.924-54.272,51.291-19.877,19.634-3.409,14.533,14.622,18.824-14.64,16.783-40.851,61.536-41.055,63.192,0,2.5,33.094,1.874,34.212,2-18.034,20.743-31.892,40.919-51.607,66.369-3.258,4.205,15.871,4.358,48.173,6.473,36.625,2.4,78.816,3.646,86.353,3.508,6.878-.12,41.17-1.5,43.489-3.493-6.378-21.457-16.98-47.579-24.5-66.238,9.337-.038,28.238.057,28.832-5.551m-17.1,1.417c.013.014.027.027.039.041l-.048,0c0-.015.007-.029.009-.045m-12.7-67.96c.008-.051.021-.1.026-.152l.128.144-.154.008" transform="translate(-944.934 -0.003)" fill="#00a651"/>
        </g>
        <path id="Pfad_2254" data-name="Pfad 2254" d="M-15146.982,7182.546s12.412,2.992,32.742,2.992,42.951,2.642,44.646,2.642-10.717,5.711-42.357,5S-15146.982,7182.546-15146.982,7182.546Z" transform="translate(15201.473 -7112.604)" fill="#009151"/>
        <path id="Pfad_2255" data-name="Pfad 2255" d="M0,0S16.327,5.171,43.1,5.079,99.646,9.5,101.877,9.491,87.735,19.519,46.071,18.416,0,0,0,0Z" transform="matrix(0.999, -0.035, 0.035, 0.999, 55.223, 138.09)" fill="#009151"/>
      </g>
      <ellipse id="Ellipse_266" data-name="Ellipse 266" cx="8.275" cy="7.708" rx="8.275" ry="7.708" transform="translate(-15152.209 10080.874)" fill="#009151"/>
      <ellipse id="Ellipse_267" data-name="Ellipse 267" cx="8.135" cy="7.862" rx="8.135" ry="7.862" transform="translate(-15131.552 10113.864)" fill="#009151"/>
      <ellipse id="Ellipse_276" data-name="Ellipse 276" cx="8.221" cy="7.766" rx="8.221" ry="7.766" transform="translate(-15115.65 10150.067)" fill="#009151"/>
      <ellipse id="Ellipse_277" data-name="Ellipse 277" cx="8.221" cy="7.766" rx="8.221" ry="7.766" transform="translate(-15167.456 10193.401)" fill="#009151"/>
      <ellipse id="Ellipse_278" data-name="Ellipse 278" cx="8.221" cy="7.766" rx="8.221" ry="7.766" transform="translate(-15152.644 10042.886)" fill="#009151"/>
      <ellipse id="Ellipse_279" data-name="Ellipse 279" cx="8.221" cy="7.766" rx="8.221" ry="7.766" transform="translate(-15103.601 10083.045)" fill="#009151"/>
      <ellipse id="Ellipse_280" data-name="Ellipse 280" cx="8.135" cy="7.862" rx="8.135" ry="7.862" transform="translate(-15169.092 10113.864)" fill="#009151"/>
      <ellipse id="Ellipse_282" data-name="Ellipse 282" cx="8.221" cy="7.766" rx="8.221" ry="7.766" transform="translate(-15137.984 10192.837)" fill="#009151"/>
      <ellipse id="Ellipse_283" data-name="Ellipse 283" cx="8.221" cy="7.766" rx="8.221" ry="7.766" transform="translate(-15103.601 10042.886)" fill="#009151"/>
      <ellipse id="Ellipse_268" data-name="Ellipse 268" cx="8.221" cy="7.766" rx="8.221" ry="7.766" transform="translate(-15151.536 10150.633)" fill="#009151"/>
      <ellipse id="Ellipse_284" data-name="Ellipse 284" cx="8.221" cy="7.766" rx="8.221" ry="7.766" transform="translate(-15101.161 10172.533)" fill="#009151"/>
      <ellipse id="Ellipse_285" data-name="Ellipse 285" cx="8.221" cy="7.766" rx="8.221" ry="7.766" transform="translate(-15128.306 10042.321)" fill="#009151"/>
      <ellipse id="Ellipse_286" data-name="Ellipse 286" cx="8.221" cy="7.766" rx="8.221" ry="7.766" transform="translate(-15108.229 10113.922)" fill="#009151"/>
      <ellipse id="Ellipse_269" data-name="Ellipse 269" cx="8.221" cy="7.766" rx="8.221" ry="7.766" transform="translate(-15081.438 10191.238)" fill="#009151"/>
      <ellipse id="Ellipse_270" data-name="Ellipse 270" cx="8.221" cy="7.766" rx="8.221" ry="7.766" transform="translate(-15089.391 10136.559)" fill="#009151"/>
      <ellipse id="Ellipse_271" data-name="Ellipse 271" cx="8.221" cy="7.766" rx="8.221" ry="7.766" transform="translate(-15125.907 10006.375)" fill="#009151"/>
      <ellipse id="Ellipse_272" data-name="Ellipse 272" cx="8.221" cy="7.766" rx="8.221" ry="7.766" transform="translate(-15091.789 10065.35)" fill="#009151"/>
      <ellipse id="Ellipse_273" data-name="Ellipse 273" cx="8.221" cy="7.766" rx="8.221" ry="7.766" transform="translate(-15116.227 10065.35)" fill="#009151"/>
      <g id="Gruppe_450" data-name="Gruppe 450" transform="translate(-15153.254 10076.554)">
        <rect id="Rechteck_239" data-name="Rechteck 239" width="17.039" height="18.729" rx="8.52" transform="translate(0)" fill="#870f3b"/>
        <path id="Pfad_2256" data-name="Pfad 2256" d="M-15369.77,7325.454s-6.568,1.395-6.434,7.034,1.555,6.041,1.672,6.188,2.824-1.816,1.92-4.077S-15369.77,7325.454-15369.77,7325.454Z" transform="translate(15378.29 -7324.104)" fill="#cf919d" opacity="0.39"/>
      </g>
      <g id="Gruppe_451" data-name="Gruppe 451" transform="translate(-15132.729 10109.595)">
        <rect id="Rechteck_239-2" data-name="Rechteck 239" width="17.039" height="18.729" rx="8.52" transform="translate(0)" fill="#335381"/>
        <path id="Pfad_2256-2" data-name="Pfad 2256" d="M-15369.77,7325.454s-6.568,1.395-6.434,7.034,1.555,6.041,1.672,6.188,2.824-1.816,1.92-4.077S-15369.77,7325.454-15369.77,7325.454Z" transform="translate(15378.29 -7324.104)" fill="#9faab9" opacity="0.39"/>
      </g>
      <g id="Gruppe_461" data-name="Gruppe 461" transform="translate(-15116.789 10145.74)">
        <rect id="Rechteck_239-3" data-name="Rechteck 239" width="17.039" height="18.729" rx="8.52" transform="translate(0 0)" fill="#335381"/>
        <path id="Pfad_2256-3" data-name="Pfad 2256" d="M-15369.77,7325.454s-6.568,1.395-6.434,7.034,1.555,6.041,1.672,6.188,2.824-1.816,1.92-4.077S-15369.77,7325.454-15369.77,7325.454Z" transform="translate(15378.29 -7324.104)" fill="#9faab9" opacity="0.39"/>
      </g>
      <g id="Gruppe_462" data-name="Gruppe 462" transform="translate(-15168.601 10189.075)">
        <rect id="Rechteck_239-4" data-name="Rechteck 239" width="17.039" height="18.729" rx="8.52" transform="translate(0 0)" fill="#335381"/>
        <path id="Pfad_2256-4" data-name="Pfad 2256" d="M-15369.77,7325.454s-6.568,1.395-6.434,7.034,1.555,6.041,1.672,6.188,2.824-1.816,1.92-4.077S-15369.77,7325.454-15369.77,7325.454Z" transform="translate(15378.29 -7324.104)" fill="#9faab9" opacity="0.39"/>
      </g>
      <g id="Gruppe_463" data-name="Gruppe 463" transform="translate(-15153.787 10038.559)">
        <rect id="Rechteck_239-5" data-name="Rechteck 239" width="17.039" height="18.729" rx="8.52" transform="translate(0)" fill="#335381"/>
        <path id="Pfad_2256-5" data-name="Pfad 2256" d="M-15369.77,7325.454s-6.568,1.395-6.434,7.034,1.555,6.041,1.672,6.188,2.824-1.816,1.92-4.077S-15369.77,7325.454-15369.77,7325.454Z" transform="translate(15378.29 -7324.104)" fill="#9faab9" opacity="0.39"/>
      </g>
      <g id="Gruppe_464" data-name="Gruppe 464" transform="translate(-15104.737 10078.718)">
        <rect id="Rechteck_239-6" data-name="Rechteck 239" width="17.039" height="18.729" rx="8.52" transform="translate(0)" fill="#fff200"/>
        <path id="Pfad_2256-6" data-name="Pfad 2256" d="M-15369.77,7325.454s-6.568,1.395-6.434,7.034,1.555,6.041,1.672,6.188,2.824-1.816,1.92-4.077S-15369.77,7325.454-15369.77,7325.454Z" transform="translate(15378.29 -7324.104)" fill="#fff" opacity="0.72"/>
      </g>
      <g id="Gruppe_465" data-name="Gruppe 465" transform="translate(-15170.314 10109.595)">
        <rect id="Rechteck_239-7" data-name="Rechteck 239" width="17.039" height="18.729" rx="8.52" transform="translate(0)" fill="#fff200"/>
        <path id="Pfad_2256-7" data-name="Pfad 2256" d="M-15369.77,7325.454s-6.568,1.395-6.434,7.034,1.555,6.041,1.672,6.188,2.824-1.816,1.92-4.077S-15369.77,7325.454-15369.77,7325.454Z" transform="translate(15378.29 -7324.104)" fill="#fff" opacity="0.72"/>
      </g>
      <g id="Gruppe_467" data-name="Gruppe 467" transform="translate(-15139.126 10188.511)">
        <rect id="Rechteck_239-8" data-name="Rechteck 239" width="17.039" height="18.729" rx="8.52" transform="translate(0 0)" fill="#fff200"/>
        <path id="Pfad_2256-8" data-name="Pfad 2256" d="M-15369.77,7325.454s-6.568,1.395-6.434,7.034,1.555,6.041,1.672,6.188,2.824-1.816,1.92-4.077S-15369.77,7325.454-15369.77,7325.454Z" transform="translate(15378.29 -7324.104)" fill="#fff" opacity="0.72"/>
      </g>
      <g id="Gruppe_468" data-name="Gruppe 468" transform="translate(-15104.737 10038.559)">
        <rect id="Rechteck_239-9" data-name="Rechteck 239" width="17.039" height="18.729" rx="8.52" transform="translate(0)" fill="#fff200"/>
        <path id="Pfad_2256-9" data-name="Pfad 2256" d="M-15369.77,7325.454s-6.568,1.395-6.434,7.034,1.555,6.041,1.672,6.188,2.824-1.816,1.92-4.077S-15369.77,7325.454-15369.77,7325.454Z" transform="translate(15378.29 -7324.104)" fill="#fff" opacity="0.72"/>
      </g>
      <g id="Gruppe_452" data-name="Gruppe 452" transform="translate(-15152.679 10146.307)">
        <rect id="Rechteck_239-10" data-name="Rechteck 239" width="17.039" height="18.729" rx="8.52" transform="translate(0 0)" fill="#f26522"/>
        <path id="Pfad_2256-10" data-name="Pfad 2256" d="M-15369.77,7325.454s-6.568,1.395-6.434,7.034,1.555,6.041,1.672,6.188,2.824-1.816,1.92-4.077S-15369.77,7325.454-15369.77,7325.454Z" transform="translate(15378.29 -7324.104)" fill="#fff" opacity="0.39"/>
      </g>
      <g id="Gruppe_469" data-name="Gruppe 469" transform="translate(-15102.296 10168.205)">
        <rect id="Rechteck_239-11" data-name="Rechteck 239" width="17.039" height="18.729" rx="8.52" transform="translate(0 0)" fill="#f26522"/>
        <path id="Pfad_2256-11" data-name="Pfad 2256" d="M-15369.77,7325.454s-6.568,1.395-6.434,7.034,1.555,6.041,1.672,6.188,2.824-1.816,1.92-4.077S-15369.77,7325.454-15369.77,7325.454Z" transform="translate(15378.29 -7324.104)" fill="#fff" opacity="0.39"/>
      </g>
      <g id="Gruppe_470" data-name="Gruppe 470" transform="translate(-15129.445 10037.995)">
        <rect id="Rechteck_239-12" data-name="Rechteck 239" width="17.039" height="18.729" rx="8.52" transform="translate(0)" fill="#f26522"/>
        <path id="Pfad_2256-12" data-name="Pfad 2256" d="M-15369.77,7325.454s-6.568,1.395-6.434,7.034,1.555,6.041,1.672,6.188,2.824-1.816,1.92-4.077S-15369.77,7325.454-15369.77,7325.454Z" transform="translate(15378.29 -7324.104)" fill="#fff" opacity="0.39"/>
      </g>
      <g id="Gruppe_471" data-name="Gruppe 471" transform="translate(-15109.367 10109.595)">
        <rect id="Rechteck_239-13" data-name="Rechteck 239" width="17.039" height="18.729" rx="8.52" transform="translate(0)" fill="#ed1c24"/>
        <path id="Pfad_2256-13" data-name="Pfad 2256" d="M-15369.77,7325.454s-6.568,1.395-6.434,7.034,1.555,6.041,1.672,6.188,2.824-1.816,1.92-4.077S-15369.77,7325.454-15369.77,7325.454Z" transform="translate(15378.29 -7324.104)" fill="#fff" opacity="0.39"/>
      </g>
      <g id="Gruppe_453" data-name="Gruppe 453" transform="translate(-15082.57 10186.911)">
        <rect id="Rechteck_239-14" data-name="Rechteck 239" width="17.039" height="18.729" rx="8.52" transform="translate(0 0)" fill="#870f3b"/>
        <path id="Pfad_2256-14" data-name="Pfad 2256" d="M-15369.77,7325.454s-6.568,1.395-6.434,7.034,1.555,6.041,1.672,6.188,2.824-1.816,1.92-4.077S-15369.77,7325.454-15369.77,7325.454Z" transform="translate(15378.29 -7324.104)" fill="#cf919d" opacity="0.39"/>
      </g>
      <g id="Gruppe_460" data-name="Gruppe 460" transform="translate(-15197.765 10132.23)">
        <rect id="Rechteck_239-15" data-name="Rechteck 239" width="17.039" height="18.729" rx="8.52" transform="translate(0)" fill="#870f3b"/>
        <path id="Pfad_2256-15" data-name="Pfad 2256" d="M-15369.77,7325.454s-6.568,1.395-6.434,7.034,1.555,6.041,1.672,6.188,2.824-1.816,1.92-4.077S-15369.77,7325.454-15369.77,7325.454Z" transform="translate(15378.29 -7324.104)" fill="#cf919d" opacity="0.39"/>
      </g>
      <g id="Gruppe_454" data-name="Gruppe 454" transform="translate(-15090.525 10132.23)">
        <rect id="Rechteck_239-16" data-name="Rechteck 239" width="17.039" height="18.729" rx="8.52" transform="translate(0)" fill="#870f3b"/>
        <path id="Pfad_2256-16" data-name="Pfad 2256" d="M-15369.77,7325.454s-6.568,1.395-6.434,7.034,1.555,6.041,1.672,6.188,2.824-1.816,1.92-4.077S-15369.77,7325.454-15369.77,7325.454Z" transform="translate(15378.29 -7324.104)" fill="#cf919d" opacity="0.39"/>
      </g>
      <g id="Gruppe_455" data-name="Gruppe 455" transform="translate(-15127.047 10002.048)">
        <rect id="Rechteck_239-17" data-name="Rechteck 239" width="17.039" height="18.729" rx="8.52" transform="translate(0)" fill="#870f3b"/>
        <path id="Pfad_2256-17" data-name="Pfad 2256" d="M-15369.77,7325.454s-6.568,1.395-6.434,7.034,1.555,6.041,1.672,6.188,2.824-1.816,1.92-4.077S-15369.77,7325.454-15369.77,7325.454Z" transform="translate(15378.29 -7324.104)" fill="#cf919d" opacity="0.39"/>
      </g>
      <g id="Gruppe_456" data-name="Gruppe 456" transform="translate(-15092.924 10061.023)">
        <rect id="Rechteck_239-18" data-name="Rechteck 239" width="17.039" height="18.729" rx="8.52" transform="translate(0)" fill="#870f3b"/>
        <path id="Pfad_2256-18" data-name="Pfad 2256" d="M-15369.77,7325.454s-6.568,1.395-6.434,7.034,1.555,6.041,1.672,6.188,2.824-1.816,1.92-4.077S-15369.77,7325.454-15369.77,7325.454Z" transform="translate(15378.29 -7324.104)" fill="#cf919d" opacity="0.39"/>
      </g>
      <g id="Gruppe_457" data-name="Gruppe 457" transform="translate(-15117.363 10061.023)">
        <rect id="Rechteck_239-19" data-name="Rechteck 239" width="17.039" height="18.729" rx="8.52" transform="translate(0)" fill="#870f3b"/>
        <path id="Pfad_2256-19" data-name="Pfad 2256" d="M-15369.77,7325.454s-6.568,1.395-6.434,7.034,1.555,6.041,1.672,6.188,2.824-1.816,1.92-4.077S-15369.77,7325.454-15369.77,7325.454Z" transform="translate(15378.29 -7324.104)" fill="#cf919d" opacity="0.39"/>
      </g>
      <g id="Gruppe_458" data-name="Gruppe 458" transform="translate(-15190.705 10207.631)">
        <rect id="Rechteck_239-20" data-name="Rechteck 239" width="17.039" height="18.729" rx="8.52" transform="translate(0 0)" fill="#870f3b"/>
        <path id="Pfad_2256-20" data-name="Pfad 2256" d="M-15369.77,7325.454s-6.568,1.395-6.434,7.034,1.555,6.041,1.672,6.188,2.824-1.816,1.92-4.077S-15369.77,7325.454-15369.77,7325.454Z" transform="translate(15378.29 -7324.104)" fill="#cf919d" opacity="0.39"/>
      </g>
      <g id="Gruppe_459" data-name="Gruppe 459" transform="translate(-15125.319 10207.631)">
        <rect id="Rechteck_239-21" data-name="Rechteck 239" width="17.039" height="18.729" rx="8.52" transform="translate(0 0)" fill="#870f3b"/>
        <path id="Pfad_2256-21" data-name="Pfad 2256" d="M-15369.77,7325.454s-6.568,1.395-6.434,7.034,1.555,6.041,1.672,6.188,2.824-1.816,1.92-4.077S-15369.77,7325.454-15369.77,7325.454Z" transform="translate(15378.29 -7324.104)" fill="#cf919d" opacity="0.39"/>
      </g>
    </g>
    <g id="Gruppe_770" data-name="Gruppe 770" transform="translate(42.311 65.164)">
      <g id="snowman" transform="translate(157.164 84.146)">
        <g id="Layer_2">
          <g id="kids">
            <path id="Pfad_2026" data-name="Pfad 2026" d="M43.731,321.389c.016.341.36,1.761-.43,2.415,0,0-6.349-1.126-7.727-1.333a69.337,69.337,0,0,1-8.418-2.874,44.938,44.938,0,0,0-5.184-1.992c-.69-.1-4.121-.346-4.4-.4s-6.609-.84-7.916-.982S2.037,314.266-.01,313l.152-.247a40.718,40.718,0,0,0,6.512,2.181,41.343,41.343,0,0,0,5.845.6l1.774-.087s-1.924-5.79-2.517-6.719a33.084,33.084,0,0,0-4.651-5.588l.108-.622s2.15,2.016,2.942,2.8a35.639,35.639,0,0,1,2.562,3.433s1.325-3.69.669-5.916l.409-.021a12.2,12.2,0,0,1,.163,3.344,29.379,29.379,0,0,1-.724,3.389l2.465,5.627s3.228.252,4.047.213,3.507.375,4.814.517,3.872,1.714,3.861,1.509a28.176,28.176,0,0,0-1.483-3.759c-.449-.8-3.916-4.53-3.916-4.53s-.1-.612.381-.635c0,0,3.887,3.984,4.478,4.845s2.748,4.449,2.748,4.449l5.336,1.381a53.618,53.618,0,0,0,6.953.892s.8.85.816,1.328Z" transform="translate(0.01 -223.116)" fill="#c49a6c"/>
            <path id="Pfad_2027" data-name="Pfad 2027" d="M43.731,321.389c.016.341.36,1.761-.43,2.415,0,0-6.349-1.126-7.727-1.333a69.337,69.337,0,0,1-8.418-2.874,44.938,44.938,0,0,0-5.184-1.992c-.69-.1-4.121-.346-4.4-.4s-6.609-.84-7.916-.982S2.037,314.266-.01,313l.152-.247a40.718,40.718,0,0,0,6.512,2.181,41.343,41.343,0,0,0,5.845.6l1.774-.087s-1.924-5.79-2.517-6.719a33.084,33.084,0,0,0-4.651-5.588l.108-.622s2.15,2.016,2.942,2.8a35.639,35.639,0,0,1,2.562,3.433s1.325-3.69.669-5.916l.409-.021a12.2,12.2,0,0,1,.163,3.344,29.379,29.379,0,0,1-.724,3.389l2.465,5.627s3.228.252,4.047.213,3.507.375,4.814.517,3.872,1.714,3.861,1.509a28.176,28.176,0,0,0-1.483-3.759c-.449-.8-3.916-4.53-3.916-4.53s-.1-.612.381-.635c0,0,3.887,3.984,4.478,4.845s2.748,4.449,2.748,4.449l5.336,1.381a53.618,53.618,0,0,0,6.953.892s.8.85.816,1.328Z" transform="translate(0.01 -223.116)" fill="#603913"/>
            <path id="Pfad_2028" data-name="Pfad 2028" d="M96.1,334.55s-2.16-3.588-2.748-4.449-4.478-4.845-4.478-4.845c-.189.01-.06-.047-.11.071,1.415,1.682,3.024,3.121,4.27,4.853.916,1.276,1.412,2.759,2.221,4.144.346.108.845.226.845.226Z" transform="translate(-65.46 -239.881)" fill="#c49a6c" opacity="0.5"/>
            <path id="Pfad_2029" data-name="Pfad 2029" d="M31.828,309.413c-.336-.528-1.648-2.165-2.7-3.457-.9-.853-2.034-1.877-2.034-1.877v.213a32.987,32.987,0,0,1,4.654,5.588c.423.661,1.911,4.948,2.509,6.693l.559-.026s-2.389-6.2-2.982-7.131Z" transform="translate(-19.977 -224.267)" fill="#c49a6c" opacity="0.5"/>
            <path id="Pfad_2030" data-name="Pfad 2030" d="M50.34,307.086a15.08,15.08,0,0,1-.74,2.945l.218.349c.165-.638.585-2.32.73-3.4a12.2,12.2,0,0,0-.163-3.344h-.066a12.622,12.622,0,0,1,.024,3.446Z" transform="translate(-36.579 -223.942)" fill="#c49a6c" opacity="0.5"/>
            <path id="Pfad_2031" data-name="Pfad 2031" d="M50.35,307.2a14,14,0,0,1-.79,2.977l.218.349c.165-.638.585-2.32.73-3.4a12.2,12.2,0,0,0-.163-3.344h-.066A12.06,12.06,0,0,1,50.35,307.2Z" transform="translate(-36.549 -224.053)" fill="#c49a6c" opacity="0.5"/>
            <path id="Pfad_2032" data-name="Pfad 2032" d="M43.746,350.824a1.081,1.081,0,0,0-.15-.433,1.95,1.95,0,0,1-.509,1.651s-6.349-1.126-7.727-1.333a69.331,69.331,0,0,1-8.418-2.874,33.052,33.052,0,0,0-4.853-1.633c-.69-.1-4.055-.339-4.331-.394-.15-.029-2.557.029-4.494-.213-.307.016-3.751-.478-6.168-.906A53.647,53.647,0,0,1,.01,342.43c2.045,1.268,8.36,3.081,9.667,3.223s7.638.927,7.916.982,3.709.3,4.4.4a45.431,45.431,0,0,1,5.184,1.992,69.326,69.326,0,0,0,8.418,2.874c1.378.207,7.727,1.333,7.727,1.333.79-.654.446-2.074.43-2.415Z" transform="translate(-0.005 -252.551)" fill="#c49a6c" opacity="0.5"/>
            <path id="Pfad_2033" data-name="Pfad 2033" d="M15.41,344.514a2.73,2.73,0,0,1,2.066.785c.391.656-.294.937-.682,1.139s-1.034.3-.995.845c.026.346.2.769-.058.995a.891.891,0,0,1-.961.092c-.3-.142-.8-.475-1.108-.583-.738-.252-.63.73-1.367,1.829-.189.281-.654.835-.95.677-.446-.236-.365-.6-.108-1.037a6.063,6.063,0,0,0,.659-1.268c.094-.294-.031-.73-.339-.7-.163.016-.278.163-.373.3-.3.428-.6.856-.9,1.286-.273.388-.659.827-1.123.732-.512-.1-.672-.79-.514-1.286s.512-.919.64-1.425c.031-.118.115-.325.047-.428s-.15-.126-.362.158c-.215.3-.549.675-.777.438s.2-.963.239-1.113c-.27-.42-.927.609-1.265,1.071s-.958.9-1.436.588c-.514-.339-.089-1.042.3-1.52a2.955,2.955,0,0,0,.819-1.924c-.026-.142-.3-.357-.472-.564-.349-.433.772-.215,1.2-.2a5.693,5.693,0,0,1,2.732.835,3.052,3.052,0,0,0,1.677.717,10.239,10.239,0,0,0,2.515-.2,2.2,2.2,0,0,1,.906-.236Z" transform="translate(-4.058 -253.214)" fill="#ebedeb"/>
            <path id="Pfad_2034" data-name="Pfad 2034" d="M10.334,344.889c.092.5-.425,1.042-.5,1.541a.361.361,0,0,0,.1.341.347.347,0,0,0,.391-.034,1.792,1.792,0,0,0,.428-.491,1.064,1.064,0,0,1,.48-.428.424.424,0,0,1,.543.22c.029.092.016.2.073.278a.3.3,0,0,0,.373.029.97.97,0,0,1,.37-.155.523.523,0,0,1,.207.05.726.726,0,0,1,.444.535,1.518,1.518,0,0,1-.168.664.594.594,0,0,0,.081.646.5.5,0,0,0,.583-.031,2.627,2.627,0,0,0,.42-.465.774.774,0,0,1,.52-.32.69.69,0,0,1,.467.192.871.871,0,0,1,.323.785c-.026.136-.089.3,0,.4s.276.058.383-.037a2.308,2.308,0,0,0,.333-.459.624.624,0,0,1,.449-.315.574.574,0,0,1,.283.076c.252.131.449.349.7.47a.551.551,0,0,0,.74-.171.669.669,0,0,0-.2-.651,1.047,1.047,0,0,1-.344-.614.249.249,0,0,1,.108-.223.291.291,0,0,1,.15-.024c.281.013.546.142.827.173a.6.6,0,0,0,.68-.365c.055-.265-.171-.5-.386-.661a1.274,1.274,0,0,0-.386-.226,1.951,1.951,0,0,0-1.129.181,6.035,6.035,0,0,1-3.144-.168,4.88,4.88,0,0,1-.8-.241,10.86,10.86,0,0,1-.976-.556,9.229,9.229,0,0,0-1.793-.577s-.861-.333-.974-.05c-.05.129.244.158.341.677Z" transform="translate(-7.244 -253.778)" fill="#fff"/>
            <path id="Pfad_2035" data-name="Pfad 2035" d="M39.515,317.98c.176.05.4-.071.53.06.084.087.06.231.115.339.1.186.36.173.562.226a.893.893,0,0,1,.562.509,1.6,1.6,0,0,1,.11.769,1.4,1.4,0,0,0,.016.554.363.363,0,0,0,.428.26.345.345,0,0,0,.2-.331,2.118,2.118,0,0,0-.11-.585,9.046,9.046,0,0,0,.486-1.829c.021-.155.008-.362-.142-.407s-.27.115-.312.26-.024.572-.142.664c-.16.123-.436-.239-.556-.4-.184-.244-.215-.585-.512-.735a2.277,2.277,0,0,0-.717-.189.727.727,0,0,0-.669.315c-.087.171-.06.457.155.517Z" transform="translate(-28.992 -233.902)" fill="#fff"/>
            <path id="Pfad_2036" data-name="Pfad 2036" d="M187.427,314.99s6.244,5.714,14.436,17.14c6,8.37,17.623,33.885,7.782,47.894-2.32,3.3-5.767,4.236-11.817,5.809-2.919.759-7.126-1.512-8.9-.176-4.315,3.26-7.5,4.407-13.489,3.438-2.528,1.192-4.11-.207-5.719.554s-3.158,2.921-4.774,3.438c-7.244,2.307-13.764,3.79-21.691,1.15-13.2-4.176-20.337-22.641-20.468-35.211-.168-16.35,7.567-31.431,8.916-32.841,0,0,14.192,6.8,29.8,2.4A71.914,71.914,0,0,0,187.427,314.99Z" transform="translate(-90.558 -232.313)" fill="#fff"/>
            <path id="Pfad_2037" data-name="Pfad 2037" d="M227.012,332.13c-8.194-11.428-14.436-17.14-14.436-17.14a71.943,71.943,0,0,1-25.919,13.6,41.665,41.665,0,0,1-28.379-2.291,5.243,5.243,0,0,0-1.255,1.286c-.556.887.538,2.58,4.78,4.5,3.9,1.656,11.365,1.906,14.268,1.814,4.494-.139,11.386-1.6,13.3-1.727,1.827.021,3.641,7.914,5.184,14.52,1.278,5.638,2.381,8.719,2.953,12.727,4.559-.462,11.78-1.654,14.268-4.935-.31-1.131-.866-3.494-1.5-6.444,3.672.42,7.412-2.717,7.722-3.5,10.208,22.192,1.517,39.933-10.617,39.34a25.1,25.1,0,0,0-16.793,5.32c-3.105,2.929-7,5.814-11.693,5.793a85.2,85.2,0,0,1-12.2-1.677,11.6,11.6,0,0,0,1.714.913c7.924,2.641,14.447,1.158,21.691-1.15,1.617-.514,3.165-2.677,4.774-3.438s3.194.638,5.719-.554c2.53.409,4.7-2,6.507-1.042,4.1,2.173,4.722-2.64,6.982-2.394,2.037-.877,5.929,1.016,7.252-.992,3.436-5.223,11.142-1.339,13.462-4.643,9.84-14.006-1.78-39.523-7.782-47.894Z" transform="translate(-115.707 -232.313)" fill="#b5b9c6" opacity="0.5"/>
            <path id="Pfad_2038" data-name="Pfad 2038" d="M378.8,332.13c-8.194-11.428-14.436-17.14-14.436-17.14s-.58.517-1.669,1.362a80.888,80.888,0,0,1,11.748,15.717c6.187,10.924,12.273,30.794,10.591,38.3-1.134,5.063-1.9,11.071-7.439,14.712,4.344-1.2,7.055-2.307,8.987-5.058C396.418,366.018,384.8,340.5,378.8,332.13Z" transform="translate(-267.49 -232.313)" fill="#a1b9c6" opacity="0.58"/>
            <path id="Pfad_2039" data-name="Pfad 2039" d="M327.923,364.217s-4.066-13.7-7.423-20.024a13.8,13.8,0,0,0,6.061-3.593s8.887,10.032,10.15,18.717a9.52,9.52,0,0,1,.711,2.591.165.165,0,0,1-.1.171.226.226,0,0,1-.045.01.162.162,0,0,1-.181-.147,9.508,9.508,0,0,0-.6-2.307c-.063.068-.142.152-.234.244a14.459,14.459,0,0,1,.829,2.52.166.166,0,0,1-.1.194l-.021.008a.164.164,0,0,1-.2-.121,15.661,15.661,0,0,0-.756-2.362c-.121.113-.255.236-.407.367a16.488,16.488,0,0,1,.969,2.564.166.166,0,0,1-.1.173.2.2,0,0,1-.042.01.166.166,0,0,1-.184-.144,15.658,15.658,0,0,0-.9-2.381c-.087.071-.178.144-.273.218a24.258,24.258,0,0,1,.9,2.522.165.165,0,0,1-.1.2c-.005,0-.008,0-.013.005a.169.169,0,0,1-.207-.11c-.005-.018-.517-1.7-.853-2.415-.136.1-.278.2-.428.307.178.43.785,1.916.911,2.4a.165.165,0,0,1-.1.194c-.005,0-.013.005-.021.005a.166.166,0,0,1-.2-.118c-.113-.441-.669-1.806-.871-2.3-.126.084-.255.168-.391.252l.919,2.318a.165.165,0,1,1-.307.123l-.9-2.265c-.137.081-.281.163-.425.247.194.472.769,1.869.887,2.247a.165.165,0,0,1-.1.2.044.044,0,0,0-.013.005.167.167,0,0,1-.207-.11c-.108-.352-.656-1.688-.864-2.184-.092.05-.189.1-.283.147.286.78.764,2.289.785,2.36a.162.162,0,0,1-.1.2.02.02,0,0,0-.01.005.167.167,0,0,1-.207-.108c-.005-.016-.483-1.525-.766-2.31-.147.071-.3.142-.451.213,0,.005.005.008.008.013.008.021.7,2.039.845,2.4a.165.165,0,1,1-.307.123c-.139-.352-.782-2.213-.845-2.4l-.3.126c.168.591.816,2.386.824,2.4a.164.164,0,0,1-.095.21h-.005a.165.165,0,0,1-.213-.1c-.026-.073-.638-1.764-.822-2.394-.1.039-.207.081-.312.121.26.874.661,2.192.743,2.333a.166.166,0,0,1-.06.226.078.078,0,0,1-.021.01.168.168,0,0,1-.2-.071c-.116-.2-.6-1.811-.766-2.383-.1.037-.213.073-.32.108.252.727.6,2.354.617,2.428a.164.164,0,0,1-.1.189l-.026.008a.167.167,0,0,1-.2-.126c0-.018-.365-1.693-.609-2.394-.5.158-1.021.3-1.575.425Z" transform="translate(-236.374 -251.201)" fill="#870f3b"/>
            <path id="Pfad_2040" data-name="Pfad 2040" d="M162.675,144.571c1.748-1.307,15.977-9.381,12.315-30.969-2.2-12.971-19.129-32.828-38.282-29.7-12.326,2.008-18.953,5.126-23.67,11.153-3.924,5.016-9.158,11.588-10.67,21.066-1.6,10.006.864,24.869,7.958,29.565,0,0,7.927,8.173,28.715,5.475C155.885,148.97,162.675,144.571,162.675,144.571Z" transform="translate(-75.153 -61.634)" fill="#fff"/>
            <g id="Gruppe_415" data-name="Gruppe 415" transform="translate(72.208 35.074)">
              <path id="Pfad_2041" data-name="Pfad 2041" d="M288.7,138.818c-.352-2.076-4.449-5.643-7.515-5.142-1.974.323-3.034.822-3.79,1.787a10.978,10.978,0,0,0-2.184,3.919c-.661,3.168,1.677,7.407,5.62,7.683,8.055.562,8.176-6.438,7.869-8.244Z" transform="translate(-275.096 -133.628)" fill="url(#radial-gradient)"/>
            </g>
            <g id="Gruppe_416" data-name="Gruppe 416" transform="translate(38.122 31.78)">
              <path id="Pfad_2042" data-name="Pfad 2042" d="M157.3,125.787c-.441-2.53-2.638-4.948-6.654-4.69a6.25,6.25,0,0,0-4.123,2.053,7.2,7.2,0,0,0-1.194,3.026c-.591,2.819,1.493,6.593,5,6.837C157.5,133.515,157.58,127.394,157.3,125.787Z" transform="translate(-145.231 -121.078)" fill="url(#radial-gradient-2)"/>
            </g>
            <path id="Pfad_2043" data-name="Pfad 2043" d="M199.157,115.6A37.085,37.085,0,0,0,187.2,94.671c-6.864-6.05-19.906-9.567-29.347-8.026-12.326,2.008-16.693,4.956-21.465,10.94a24.959,24.959,0,0,0-1.717,2.449,37.69,37.69,0,0,1,28.807-10.769c8.6.535,14.741,2.963,18.972,7.99,6.113,7.257,8.8,17.838,5.8,29.282-1.491,5.685-4.213,13.591-12.265,18.5-9.961,6.079-22.066,6.439-28.416,5.756-6.874-.74-7.055-.165-7.964.021,3.053,2.242,7.551,4.428,23.612,2.341,16.843-2.186,23.633-6.585,23.633-6.585,1.748-1.307,15.977-9.381,12.315-30.969Z" transform="translate(-99.32 -63.636)" fill="#b5b9c6" opacity="0.5"/>
            <path id="Pfad_2044" data-name="Pfad 2044" d="M294.483,190.062c-.155-.913-.362-1.858-.622-2.822-.042.724-.105,1.457-.2,2.192-.181,9.223-.927,15.436-7.008,22.859-10.964,13.384-19.168,12.851-22.733,14.5,12.922-2.307,18.247-5.759,18.247-5.759C283.915,219.724,298.144,211.65,294.483,190.062Z" transform="translate(-194.645 -138.094)" fill="#a1b9c6" opacity="0.58"/>
            <path id="Pfad_2045" data-name="Pfad 2045" d="M199.15,113.629A37.085,37.085,0,0,0,187.192,92.7c-6.864-6.05-16.882-10.313-26.324-8.775-12.326,2.008-19.72,5.7-24.492,11.685a24.96,24.96,0,0,0-1.717,2.449A27.442,27.442,0,0,1,140,93.844c8.063-8.578,27.967-10.223,40.277-3.816a34.664,34.664,0,0,1,12.5,11.67,52.766,52.766,0,0,1,6.874,16.158c-.092-1.349-.257-2.756-.507-4.228Z" transform="translate(-99.313 -61.662)" fill="#a1b9c6" opacity="0.77"/>
            <path id="Pfad_2046" data-name="Pfad 2046" d="M346.855,380.04c.257.486.509.982.748,1.48-2.039,2.808-5.564,3.78-8.7,4.974q-.276-.819-.572-1.682c3.066-1.113,6.391-2.173,8.528-4.772Z" transform="translate(-249.524 -280.289)" fill="#ed826d"/>
            <path id="Pfad_2047" data-name="Pfad 2047" d="M339.487,367.05c.257.486.627.955.866,1.457-2.039,2.808-5.565,3.78-8.7,4.974q-.276-.819-.572-1.682c3.066-1.113,6.273-2.15,8.41-4.746Z" transform="translate(-244.177 -270.708)" fill="#ed826d"/>
            <path id="Pfad_2048" data-name="Pfad 2048" d="M352.284,394.91c.194.507.373,1.016.53,1.525a17.034,17.034,0,0,1-9.087,4.669c-.144-.449-.3-.937-.467-1.454,2.706-.908,6.6-2.32,9.024-4.738Z" transform="translate(-253.16 -291.256)" fill="#ed826d"/>
            <path id="Pfad_2049" data-name="Pfad 2049" d="M359.073,236.745c.144.365.459,2.013,1.6,2.323,0,0,6.108-4.192,7.452-5.063a79.571,79.571,0,0,0,7.444-7c1.171-1.307,8.26-7.494,8.932-7.929s4.147-2.318,4.41-2.507,6.515-4.016,7.814-4.785,7.045-5.662,8.583-7.961l-.276-.186a46.754,46.754,0,0,1-5.777,5.373,47.7,47.7,0,0,1-5.827,3.407l-1.9.751s-.735-6.971-.556-8.223,1.244-6.234,2.213-8.053l-.407-.6s-1.294,3.129-1.748,4.323a40.647,40.647,0,0,0-1.05,4.806s-3.139-3.231-3.509-5.872l-.438.173a13.939,13.939,0,0,0,1.417,3.575,33.873,33.873,0,0,0,2.365,3.2l.094,7.055s-3.257,1.8-4.131,2.144-3.491,2.058-4.79,2.827-7.69,7.016-7.777,6.8a32.491,32.491,0,0,1-.234-4.635c.089-1.047,1.945-6.6,1.945-6.6s-.186-.685-.7-.483c0,0-2.176,6.013-2.386,7.194s-.764,5.961-.764,5.961-2.879,2.323-4.927,3.979a61.225,61.225,0,0,1-6.851,4.234,3.932,3.932,0,0,0-.226,1.777Z" transform="translate(-264.779 -144.769)" fill="#c49a6c"/>
            <path id="Pfad_2050" data-name="Pfad 2050" d="M359.073,236.745c.144.365.459,2.013,1.6,2.323,0,0,6.108-4.192,7.452-5.063a79.571,79.571,0,0,0,7.444-7c1.171-1.307,8.26-7.494,8.932-7.929s4.147-2.318,4.41-2.507,6.515-4.016,7.814-4.785,7.045-5.662,8.583-7.961l-.276-.186a46.754,46.754,0,0,1-5.777,5.373,47.7,47.7,0,0,1-5.827,3.407l-1.9.751s-.735-6.971-.556-8.223,1.244-6.234,2.213-8.053l-.407-.6s-1.294,3.129-1.748,4.323a40.647,40.647,0,0,0-1.05,4.806s-3.139-3.231-3.509-5.872l-.438.173a13.939,13.939,0,0,0,1.417,3.575,33.873,33.873,0,0,0,2.365,3.2l.094,7.055s-3.257,1.8-4.131,2.144-3.491,2.058-4.79,2.827-7.69,7.016-7.777,6.8a32.491,32.491,0,0,1-.234-4.635c.089-1.047,1.945-6.6,1.945-6.6s-.186-.685-.7-.483c0,0-2.176,6.013-2.386,7.194s-.764,5.961-.764,5.961-2.879,2.323-4.927,3.979a61.225,61.225,0,0,1-6.851,4.234,3.932,3.932,0,0,0-.226,1.777Z" transform="translate(-264.779 -144.769)" fill="#603913"/>
            <path id="Pfad_2051" data-name="Pfad 2051" d="M404.96,275.233s.554-4.78.764-5.961,2.386-7.194,2.386-7.194c.2-.081.039-.079.15.021-.682,2.431-1.682,4.7-2.165,7.105-.354,1.769-.168,3.557-.357,5.389-.312.278-.777.635-.777.635Z" transform="translate(-298.666 -193.246)" fill="#c49a6c" opacity="0.5"/>
            <path id="Pfad_2052" data-name="Pfad 2052" d="M479.478,205.54c.1-.711.7-3.047,1.189-4.9.533-1.32,1.239-2.929,1.239-2.929l.1.223c-.969,1.819-2.034,6.8-2.213,8.053-.129.892.349,6.084.554,8.194l-.6.236s-.444-7.625-.265-8.877Z" transform="translate(-353.596 -145.816)" fill="#c49a6c" opacity="0.5"/>
            <path id="Pfad_2053" data-name="Pfad 2053" d="M463.63,212.862a17.341,17.341,0,0,0,2.173,2.73l-.06.47c-.475-.588-1.714-2.147-2.375-3.207a13.979,13.979,0,0,1-1.417-3.575l.071-.029A14.456,14.456,0,0,0,463.63,212.862Z" transform="translate(-340.697 -154.327)" fill="#c49a6c" opacity="0.5"/>
            <path id="Pfad_2054" data-name="Pfad 2054" d="M463.674,213.009a16.167,16.167,0,0,0,2.239,2.74l-.06.47c-.475-.588-1.714-2.147-2.375-3.207a13.978,13.978,0,0,1-1.417-3.575l.071-.026a13.845,13.845,0,0,0,1.543,3.6Z" transform="translate(-340.778 -154.445)" fill="#c49a6c" opacity="0.5"/>
            <path id="Pfad_2055" data-name="Pfad 2055" d="M359.088,257.9a1.241,1.241,0,0,1-.047-.522,2.236,2.236,0,0,0,1.318,1.486s6.108-4.192,7.452-5.063a79.561,79.561,0,0,0,7.444-7c1.171-1.307,8.087-6.961,8.759-7.4s4.081-2.278,4.344-2.467c.142-.1,2.688-1.184,4.6-2.354.328-.131,3.7-2.281,6.021-3.877a61.47,61.47,0,0,0,6.341-5.727c-1.538,2.3-7.284,7.192-8.583,7.961s-7.551,4.6-7.814,4.785-3.738,2.074-4.41,2.507-7.761,6.622-8.932,7.929a79.914,79.914,0,0,1-7.444,7c-1.344.871-7.452,5.063-7.452,5.063-1.137-.31-1.452-1.958-1.6-2.323Z" transform="translate(-264.794 -165.928)" fill="#c49a6c" opacity="0.5"/>
            <circle id="Ellipse_256" data-name="Ellipse 256" cx="4.181" cy="4.181" r="4.181" transform="matrix(0.773, -0.634, 0.634, 0.773, 55.933, 106.926)" fill="#a1b9c6" opacity="0.6"/>
            <circle id="Ellipse_257" data-name="Ellipse 257" cx="4.181" cy="4.181" r="4.181" transform="matrix(0.776, -0.631, 0.631, 0.776, 55.398, 106.668)" fill="#414042"/>
            <path id="Pfad_2056" data-name="Pfad 2056" d="M218.582,402.46a3.949,3.949,0,0,0,7.242,3.131,3.949,3.949,0,1,1-7.242-3.129Z" transform="translate(-160.908 -296.824)" fill="#414042" opacity="0.5"/>
            <circle id="Ellipse_258" data-name="Ellipse 258" cx="3.386" cy="3.386" r="3.386" transform="translate(57.351 109.987) rotate(-79.6)" fill="#231f20"/>
            <circle id="Ellipse_259" data-name="Ellipse 259" cx="3.063" cy="3.063" r="3.063" transform="translate(57.258 105.673) rotate(-23.52)" fill="#414042"/>
            <path id="Pfad_2057" data-name="Pfad 2057" d="M234.454,404.513a.469.469,0,1,0,.262-.609A.466.466,0,0,0,234.454,404.513Z" transform="translate(-172.888 -297.865)"/>
            <path id="Pfad_2058" data-name="Pfad 2058" d="M228.324,405.113a.469.469,0,1,0,.262-.609A.466.466,0,0,0,228.324,405.113Z" transform="translate(-168.367 -298.307)"/>
            <path id="Pfad_2059" data-name="Pfad 2059" d="M234.824,410.173a.469.469,0,1,0,.262-.609A.466.466,0,0,0,234.824,410.173Z" transform="translate(-173.161 -302.039)"/>
            <path id="Pfad_2060" data-name="Pfad 2060" d="M228.694,410.783a.469.469,0,1,0,.262-.609A.466.466,0,0,0,228.694,410.783Z" transform="translate(-168.64 -302.489)"/>
            <path id="Pfad_2061" data-name="Pfad 2061" d="M231.288,407.643l.9-1.092s.115-.365-.213-.268l-.877,1.079s-.1.158,0,.257A.136.136,0,0,0,231.288,407.643Z" transform="translate(-170.407 -299.632)" fill="#fff"/>
            <path id="Pfad_2062" data-name="Pfad 2062" d="M230.607,406.92l1.084.908s.362.118.27-.213l-1.071-.887s-.158-.1-.257,0a.138.138,0,0,0-.026.189Z" transform="translate(-170.056 -299.941)" fill="#fff"/>
            <path id="Pfad_2063" data-name="Pfad 2063" d="M228.991,466.579a4.181,4.181,0,1,0,2.347-5.428A4.182,4.182,0,0,0,228.991,466.579Z" transform="translate(-168.666 -339.893)" fill="#a1b9c6" opacity="0.6"/>
            <circle id="Ellipse_260" data-name="Ellipse 260" cx="4.181" cy="4.181" r="4.181" transform="translate(58.548 128.111) rotate(-76.9)" fill="#414042"/>
            <path id="Pfad_2064" data-name="Pfad 2064" d="M227.292,469.94a3.949,3.949,0,0,0,7.242,3.131,3.948,3.948,0,1,1-7.239-3.129Z" transform="translate(-167.335 -346.593)" fill="#414042" opacity="0.5"/>
            <path id="Pfad_2065" data-name="Pfad 2065" d="M229.526,467.872a3.387,3.387,0,1,0,1.9-4.4A3.385,3.385,0,0,0,229.526,467.872Z" transform="translate(-169.102 -341.648)" fill="#231f20"/>
            <circle id="Ellipse_261" data-name="Ellipse 261" cx="3.063" cy="3.063" r="3.063" transform="translate(59.658 123.111) rotate(-19.45)" fill="#414042"/>
            <path id="Pfad_2066" data-name="Pfad 2066" d="M243.154,471.993a.469.469,0,1,0,.262-.609A.466.466,0,0,0,243.154,471.993Z" transform="translate(-179.305 -347.633)"/>
            <path id="Pfad_2067" data-name="Pfad 2067" d="M237.024,472.593a.469.469,0,1,0,.262-.609A.466.466,0,0,0,237.024,472.593Z" transform="translate(-174.784 -348.075)"/>
            <path id="Pfad_2068" data-name="Pfad 2068" d="M243.524,477.653a.469.469,0,1,0,.262-.609A.466.466,0,0,0,243.524,477.653Z" transform="translate(-179.578 -351.807)"/>
            <path id="Pfad_2069" data-name="Pfad 2069" d="M237.394,478.253a.469.469,0,1,0,.262-.609A.466.466,0,0,0,237.394,478.253Z" transform="translate(-175.057 -352.25)"/>
            <path id="Pfad_2070" data-name="Pfad 2070" d="M239.988,475.123l.9-1.092s.116-.365-.213-.268l-.877,1.079s-.1.157,0,.257A.136.136,0,0,0,239.988,475.123Z" transform="translate(-176.823 -349.401)" fill="#fff"/>
            <path id="Pfad_2071" data-name="Pfad 2071" d="M239.307,474.4l1.084.908s.362.118.27-.213l-1.071-.887s-.157-.1-.257,0a.137.137,0,0,0-.026.189Z" transform="translate(-176.473 -349.709)" fill="#fff"/>
            <path id="Pfad_2072" data-name="Pfad 2072" d="M449.3,248.728a2.992,2.992,0,0,1,2.021-1.336c.835.073.646.861.577,1.333s-.391,1.113.115,1.425c.325.2.816.307.848.688a.981.981,0,0,1-.533.916c-.315.173-.934.4-1.228.614-.7.5.247,1.026.753,2.388.129.346.328,1.116-.005,1.281-.493.247-.772-.06-.992-.567a6.471,6.471,0,0,0-.709-1.4c-.2-.273-.672-.438-.843-.147a.641.641,0,0,0,.026.522c.189.541.378,1.084.57,1.625.173.491.315,1.116-.066,1.47-.42.391-1.134.095-1.475-.365s-.491-1.045-.861-1.483c-.087-.1-.218-.31-.352-.315s-.207.052-.092.423.249.921-.105.974-.73-.8-.84-.924c-.546-.026-.05,1.215.147,1.811s.192,1.431-.4,1.654c-.63.241-.984-.585-1.163-1.236a3.236,3.236,0,0,0-1.189-1.958c-.142-.068-.512.045-.8.06-.606.034.3-.824.591-1.194a6.229,6.229,0,0,1,2.491-1.9,3.369,3.369,0,0,0,1.711-1.034,11.03,11.03,0,0,0,1.425-2.37,2.387,2.387,0,0,1,.367-.955Z" transform="translate(-326.353 -182.456)" fill="#ebedeb"/>
            <path id="Pfad_2073" data-name="Pfad 2073" d="M445.268,259.39c.5.236.656,1.045,1.052,1.431a.4.4,0,0,0,.368.131.383.383,0,0,0,.22-.37,1.964,1.964,0,0,0-.163-.7,1.163,1.163,0,0,1-.073-.7.467.467,0,0,1,.543-.344c.1.034.189.116.294.113.15,0,.239-.168.265-.312a1.027,1.027,0,0,1,.1-.43.517.517,0,0,1,.176-.152.789.789,0,0,1,.761-.053,1.676,1.676,0,0,1,.486.575.646.646,0,0,0,.627.339.539.539,0,0,0,.344-.541,2.752,2.752,0,0,0-.147-.672.848.848,0,0,1,.047-.667.752.752,0,0,1,.47-.294.959.959,0,0,1,.908.213c.1.11.207.27.36.257s.228-.207.213-.365a2.562,2.562,0,0,0-.2-.591.68.68,0,0,1,.008-.6.605.605,0,0,1,.249-.2c.276-.139.6-.176.869-.328s.48-.5.32-.769a.73.73,0,0,0-.709-.234,1.134,1.134,0,0,1-.766-.087.273.273,0,0,1-.131-.239.334.334,0,0,1,.074-.15c.192-.241.475-.4.682-.625a.655.655,0,0,0,.11-.837c-.2-.218-.554-.165-.837-.079a1.441,1.441,0,0,0-.449.2,2.14,2.14,0,0,0-.562,1.121,6.6,6.6,0,0,1-2.16,2.693,5.221,5.221,0,0,1-.722.554,11.4,11.4,0,0,1-1.121.514,10.133,10.133,0,0,0-1.662,1.228s-.848.554-.667.835c.081.126.3-.118.822.131Z" transform="translate(-327.771 -185.881)" fill="#fff"/>
            <path id="Pfad_2074" data-name="Pfad 2074" d="M519.358,227.982s.724-.318.446.129-.808.26-.738.6-.4.459-.276.84a2.851,2.851,0,0,1,.239.756c.123.619.68,1.189.294,1.281-.194.047-.095.068-.436-.255-.268-.252-.1-.493-.281-.709s-.3-.7-.808-.349c-.354.567-.74.354-.906.633s-.047.5-.412.648a.346.346,0,0,1-.483-.3c-.073-.336-.551.066-.1-.567s-.22-.094.449-.633.992-.029,1.4-.982,1.05-1.268,1.6-1.092Z" transform="translate(-380.344 -168.062)" fill="#fff"/>
            <g id="Gruppe_417" data-name="Gruppe 417" transform="translate(50.647 36.854)">
              <path id="Pfad_2075" data-name="Pfad 2075" d="M193.237,145.355c-.995,3.242.651,5.893,4.26,7s21.649,7.94,33.072,11.176c-4.827-4.567-25.938-20.633-31.534-22.767-3.528-1.346-4.8,1.352-5.8,4.593Z" transform="translate(-192.951 -140.41)" opacity="0.6" fill="url(#linear-gradient)"/>
            </g>
            <path id="Pfad_2076" data-name="Pfad 2076" d="M91.587,150.991s8.171.948,8.171-6.473c0-5.885-6.874-6.423-11.011-6.234-1.845.084-36.773,2.711-37.067,3.557,5.641,1.449,21.575,7.016,39.909,9.15Z" transform="translate(-38.113 -101.966)" fill="#f06500"/>
            <path id="Pfad_2077" data-name="Pfad 2077" d="M74.082,146.554c9.381,1.433,17.751,3.814,21.457-.26,1.845-3.021,1.32-5.809-2.265-7.355,3.449.459,6.837,1.953,6.837,6.084,0,7.42-8.171,6.473-8.171,6.473-18.334-2.134-37.324-8.457-39.781-9.189.047-.223,12.657,2.832,21.919,4.247Z" transform="translate(-38.467 -102.472)" fill="#de3500" opacity="0.7"/>
            <path id="Pfad_2078" data-name="Pfad 2078" d="M90.234,143.467s15.079,1.919,25.313,2.189c4.971.131,4.814-2.231,3.291-3.785s-7.643-.454-12.609-.2C100.5,141.971,89.47,143.083,90.234,143.467Z" transform="translate(-66.519 -104.032)" fill="#ffa840" opacity="0.38"/>
            <path id="Pfad_2079" data-name="Pfad 2079" d="M105.706,146.007c-.039-.622-.9-.709-1.47-.459-1.2.491-2.467.152-2.087-1.011.152-.2-1.4-.079-1.719-.667,2.585-.252,5.606-.514,8.465-.751.346.459,1,.541,1.866,1.144.622.462.732,1.375-.32,1.5-1.625.239-2.979-1.32-3.018,1.451-.171.764-.638.85-.843.879-.9-.2-.827-1.339-.877-2.087Z" transform="translate(-74.067 -105.555)" fill="#c85b23" opacity="0.46"/>
            <path id="Pfad_2080" data-name="Pfad 2080" d="M109.3,142.089s2.247.622,1.874,1.454-1.766.472-2.638.318-1.045.824-1.05,1.5-.735,1.333-1.108.782c-.533-.787.1-1.409-.388-1.835s-.612-.976-1.486-.488c-1.215.68-2.381.139-1.99-.8.21-.472-1.063.016-1.774-.664-.756-1.084,2.95-.585,3.478-.717.987-.5,3.879-.995,5.082.451Z" transform="translate(-74.225 -104.087)" fill="#ebedeb"/>
            <path id="Pfad_2081" data-name="Pfad 2081" d="M102,142.97c-.047.039.247.281.769.354s1.26-.074,1.278.265.15.6.711.562,1.284-.325,1.627-.029.853.882,1.383.562.638-.7,1.221-.635,1.6.441,1.866.173.462-.491-.152-.819a6.974,6.974,0,0,1-1.2-.688,4.317,4.317,0,0,0-2.5-.4,5.378,5.378,0,0,1-1.929.509c-.848-.013-2.425-.37-3.071.147Z" transform="translate(-75.218 -104.914)" fill="#fff"/>
            <path id="Pfad_2082" data-name="Pfad 2082" d="M194.32,165.6s1.8-3.95.412-7.194c0,0,.467,5.226-1.152,7.063Z" transform="translate(-142.768 -116.831)" fill="#b44100"/>
            <path id="Pfad_2083" data-name="Pfad 2083" d="M179.351,166.772s1.375-3.284.693-5.932c0,0-.21,3.955-1.294,5.819l.6.113Z" transform="translate(-131.83 -118.623)" fill="#b44100"/>
            <g id="Gruppe_419" data-name="Gruppe 419" transform="translate(69.522 28.406)" opacity="0.59">
              <g id="Gruppe_418" data-name="Gruppe 418">
                <path id="Pfad_2084" data-name="Pfad 2084" d="M265,113.56a4.272,4.272,0,1,0,3.071-5.2A4.272,4.272,0,0,0,265,113.56Z" transform="translate(-264.863 -108.222)" fill="url(#radial-gradient-3)"/>
              </g>
            </g>
            <path id="Pfad_2085" data-name="Pfad 2085" d="M271.955,118.013a2.519,2.519,0,1,0,1.811-3.068A2.52,2.52,0,0,0,271.955,118.013Z" transform="translate(-200.512 -84.715)"/>
            <path id="Pfad_2086" data-name="Pfad 2086" d="M274.488,122.818a.535.535,0,1,1,.48-.585.536.536,0,0,1-.48.585" transform="translate(-202.006 -89.794)" fill="#fff"/>
            <g id="Gruppe_421" data-name="Gruppe 421" transform="translate(49.863 26.005)" opacity="0.59">
              <g id="Gruppe_420" data-name="Gruppe 420" transform="translate(0 0)">
                <circle id="Ellipse_262" data-name="Ellipse 262" cx="4.27" cy="4.27" r="4.27" transform="translate(0 7.95) rotate(-68.57)" fill="url(#radial-gradient-4)"/>
              </g>
            </g>
            <path id="Pfad_2087" data-name="Pfad 2087" d="M200.465,113.354a2.519,2.519,0,1,0,1.811-3.068,2.52,2.52,0,0,0-1.811,3.068Z" transform="translate(-147.786 -81.279)"/>
            <path id="Pfad_2088" data-name="Pfad 2088" d="M203,118.158a.535.535,0,1,1,.48-.585.536.536,0,0,1-.48.585" transform="translate(-149.28 -86.357)" fill="#fff"/>
            <circle id="Ellipse_263" data-name="Ellipse 263" cx="9.386" cy="9.386" r="9.386" transform="matrix(0.607, -0.795, 0.795, 0.607, 101.058, 54.235)" fill="#fff"/>
            <path id="Pfad_2089" data-name="Pfad 2089" d="M407.727,164.191a9.342,9.342,0,0,1,6.042,1.4,9.921,9.921,0,0,0-8.347,13.552,15.776,15.776,0,0,0,2.108,3.688,9.387,9.387,0,0,1,.194-18.638Z" transform="translate(-294.537 -121.053)" fill="#cfdbe2" opacity="0.49"/>
            <path id="Pfad_2090" data-name="Pfad 2090" d="M155.28,34.915A32.112,32.112,0,0,1,169.5,18.322c7.147-4.024,13.531-6.289,28-6.362,9.6-.05,18.777,7.67,24.129,14.835,5.893,7.893,8.549,20.058,7.4,27.717a2.289,2.289,0,0,1-2.515.257c.349-3.538-2.976-8.016-4.761-7.158,0,0-1.8,11.339-7,13.769,0,0-4.879-24.177-24.935-29.61-21.785-5.9-34.534,3.144-34.534,3.144Z" transform="translate(-114.52 -8.82)" fill="#870f3b"/>
            <path id="Pfad_2091" data-name="Pfad 2091" d="M167.128,41.85c-.126,1.108-2.179,3.95-2,5.089.184,1.929,2.706,1.5,4.853,1.108,6.507-.95,15.683-.919,22.279.785a34.139,34.139,0,0,1,20.3,14.04c3.042,4.3,4.89,8.341,5.121,12.625.89-.281,1.609-4.381,1.42-5.882.367-8.289-4.764-14-6.4-17.407,3.753-.84,7.609,6.271,9.691,10.428l.063.108a2.717,2.717,0,0,0,5.055-1.6l-.008-.092a38.116,38.116,0,0,1,1.533,15.51,2.289,2.289,0,0,1-2.515.257c.349-3.538-2.976-8.016-4.761-7.158,0,0-1.8,11.339-7,13.769,0,0-4.879-24.177-24.935-29.61-21.785-5.9-34.534,3.144-34.534,3.144A32.043,32.043,0,0,1,167.13,41.85Z" transform="translate(-114.528 -30.865)" fill="#690c2e"/>
            <path id="Pfad_2092" data-name="Pfad 2092" d="M194.117,77.993c7,6.8,9.431,13.265,9.733,19.665.213,4.512-1.575,6.507-2.331,6.9a44.4,44.4,0,0,0-6.436-15.231c-4.4-7.113-13.008-13.192-22.922-15.021a49.207,49.207,0,0,0-22.788,2.268c-7.236,2.8-11.076,9.208-11.557,9.88-1.5-4.9,2.777-10.113,4.971-12.239,1.436-1.391,9.57-5.116,18.14-5.932,16.413-1.564,28.1,4.764,33.187,9.714Z" transform="translate(-101.411 -50.178)" fill="#fff"/>
            <path id="Pfad_2093" data-name="Pfad 2093" d="M392.589,109.131s1.927.709,1.84.029a29.035,29.035,0,0,0-1.843-6.131c-1.215-2.924-4.444-7.236-4.554-6.368s3.147,3.244,4.557,12.47Z" transform="translate(-286.179 -71.206)" fill="#690c2e"/>
            <circle id="Ellipse_264" data-name="Ellipse 264" cx="0.598" cy="0.598" r="0.598" transform="translate(62.062 5.097)" fill="#fff"/>
            <path id="Pfad_2094" data-name="Pfad 2094" d="M247.05,27.18a.6.6,0,1,0,.609-.591A.6.6,0,0,0,247.05,27.18Z" transform="translate(-182.203 -19.61)" fill="#fff"/>
            <path id="Pfad_2095" data-name="Pfad 2095" d="M227.333,23.074a1.49,1.49,0,1,0,1.512-1.465,1.492,1.492,0,0,0-1.512,1.465Z" transform="translate(-167.659 -15.937)" fill="#fff"/>
            <path id="Pfad_2096" data-name="Pfad 2096" d="M145.389,94.134a1.491,1.491,0,1,0,1.514-1.465,1.492,1.492,0,0,0-1.514,1.465Z" transform="translate(-107.226 -68.346)" fill="#fff"/>
            <path id="Pfad_2097" data-name="Pfad 2097" d="M116.95,140.211a.57.57,0,1,0,.577-.562A.569.569,0,0,0,116.95,140.211Z" transform="translate(-86.251 -102.995)" fill="#fff"/>
            <path id="Pfad_2098" data-name="Pfad 2098" d="M129.62,143.352a.316.316,0,1,0,.32-.312A.315.315,0,0,0,129.62,143.352Z" transform="translate(-95.595 -105.495)" fill="#fff"/>
            <path id="Pfad_2099" data-name="Pfad 2099" d="M105.4,142.912a.316.316,0,1,0,.32-.312A.315.315,0,0,0,105.4,142.912Z" transform="translate(-77.732 -105.171)" fill="#fff"/>
            <path id="Pfad_2100" data-name="Pfad 2100" d="M107.77,142.522a.316.316,0,1,0,.32-.312A.315.315,0,0,0,107.77,142.522Z" transform="translate(-79.48 -104.883)" fill="#fff"/>
            <path id="Pfad_2101" data-name="Pfad 2101" d="M120.55,138.41a.812.812,0,1,0,.824-.8A.811.811,0,0,0,120.55,138.41Z" transform="translate(-88.906 -101.49)" fill="#fff"/>
            <path id="Pfad_2102" data-name="Pfad 2102" d="M64.3,145.29a.812.812,0,1,0,.824-.8A.811.811,0,0,0,64.3,145.29Z" transform="translate(-47.42 -106.565)" fill="#fff"/>
            <path id="Pfad_2103" data-name="Pfad 2103" d="M73.34,145.99a.812.812,0,1,0,.824-.8A.811.811,0,0,0,73.34,145.99Z" transform="translate(-54.087 -107.081)" fill="#fff"/>
            <path id="Pfad_2104" data-name="Pfad 2104" d="M60.59,146.157a.587.587,0,1,0,.6-.577.587.587,0,0,0-.6.577Z" transform="translate(-44.684 -107.369)" fill="#fff"/>
            <path id="Pfad_2105" data-name="Pfad 2105" d="M62.43,148.537a.587.587,0,1,0,.6-.577A.587.587,0,0,0,62.43,148.537Z" transform="translate(-46.041 -109.124)" fill="#fff"/>
            <path id="Pfad_2106" data-name="Pfad 2106" d="M58.35,147.995a.37.37,0,1,0,.375-.365A.37.37,0,0,0,58.35,147.995Z" transform="translate(-43.032 -108.881)" fill="#fff"/>
            <path id="Pfad_2107" data-name="Pfad 2107" d="M56.11,149.175a.37.37,0,1,0,.375-.365A.37.37,0,0,0,56.11,149.175Z" transform="translate(-41.38 -109.751)" fill="#fff"/>
            <path id="Pfad_2108" data-name="Pfad 2108" d="M71.26,146.995a.37.37,0,1,0,.375-.365A.37.37,0,0,0,71.26,146.995Z" transform="translate(-52.553 -108.143)" fill="#fff"/>
            <path id="Pfad_2109" data-name="Pfad 2109" d="M206.07,32.46a.6.6,0,1,0,.609-.591A.6.6,0,0,0,206.07,32.46Z" transform="translate(-151.979 -23.505)" fill="#fff"/>
            <path id="Pfad_2110" data-name="Pfad 2110" d="M367.48,37.7a.6.6,0,1,0,.609-.591A.6.6,0,0,0,367.48,37.7Z" transform="translate(-271.023 -27.369)" fill="#fff"/>
            <path id="Pfad_2111" data-name="Pfad 2111" d="M335.21,13.54a.6.6,0,1,0,.609-.591A.6.6,0,0,0,335.21,13.54Z" transform="translate(-247.223 -9.551)" fill="#fff"/>
            <path id="Pfad_2112" data-name="Pfad 2112" d="M423.11,187.87a.6.6,0,1,0,.609-.591A.6.6,0,0,0,423.11,187.87Z" transform="translate(-312.051 -138.123)" fill="#fff"/>
            <path id="Pfad_2113" data-name="Pfad 2113" d="M405.24,74.32a.6.6,0,1,0,.609-.591A.6.6,0,0,0,405.24,74.32Z" transform="translate(-298.872 -54.377)" fill="#fff"/>
            <path id="Pfad_2114" data-name="Pfad 2114" d="M436.84,172.86a.6.6,0,1,0,.609-.591A.6.6,0,0,0,436.84,172.86Z" transform="translate(-322.178 -127.053)" fill="#fff"/>
            <path id="Pfad_2115" data-name="Pfad 2115" d="M415.77,176.1a.6.6,0,1,0,.609-.591A.6.6,0,0,0,415.77,176.1Z" transform="translate(-306.638 -129.443)" fill="#fff"/>
            <path id="Pfad_2116" data-name="Pfad 2116" d="M411.99,168.11a.6.6,0,1,0,.609-.591A.6.6,0,0,0,411.99,168.11Z" transform="translate(-303.85 -123.55)" fill="#fff"/>
            <path id="Pfad_2117" data-name="Pfad 2117" d="M407.89,222.72a.6.6,0,1,0,.609-.591A.6.6,0,0,0,407.89,222.72Z" transform="translate(-300.826 -163.826)" fill="#fff"/>
            <path id="Pfad_2118" data-name="Pfad 2118" d="M203.26,36.475a1.184,1.184,0,1,0,1.2-1.165A1.184,1.184,0,0,0,203.26,36.475Z" transform="translate(-149.906 -26.041)" fill="#fff"/>
            <path id="Pfad_2119" data-name="Pfad 2119" d="M240.44,20.388a.648.648,0,1,0,.659-.638A.65.65,0,0,0,240.44,20.388Z" transform="translate(-177.328 -14.566)" fill="#fff"/>
            <circle id="Ellipse_265" data-name="Ellipse 265" cx="1.184" cy="1.184" r="1.184" transform="translate(93.391 28.911) rotate(-8.99)" fill="#fff"/>
            <path id="Pfad_2120" data-name="Pfad 2120" d="M326.7,11.155a1.184,1.184,0,1,0,1.2-1.165A1.184,1.184,0,0,0,326.7,11.155Z" transform="translate(-240.946 -7.367)" fill="#fff"/>
            <path id="Pfad_2121" data-name="Pfad 2121" d="M247.61,1.068A1.084,1.084,0,1,0,248.71,0,1.084,1.084,0,0,0,247.61,1.068Z" transform="translate(-182.616 0)" fill="#fff" opacity="0.48"/>
            <path id="Pfad_2122" data-name="Pfad 2122" d="M417.31,204.093a1.192,1.192,0,1,0,1.21-1.173A1.191,1.191,0,0,0,417.31,204.093Z" transform="translate(-307.774 -149.658)" fill="#fff"/>
            <path id="Pfad_2123" data-name="Pfad 2123" d="M409.63,226a1.192,1.192,0,1,0,1.21-1.173A1.191,1.191,0,0,0,409.63,226Z" transform="translate(-302.109 -165.817)" fill="#fff"/>
            <path id="Pfad_2124" data-name="Pfad 2124" d="M158.49,87.523a.6.6,0,1,0,.612-.593A.6.6,0,0,0,158.49,87.523Z" transform="translate(-116.888 -64.113)" fill="#fff"/>
            <path id="Pfad_2125" data-name="Pfad 2125" d="M153.56,88.683a.866.866,0,1,0,.879-.853A.867.867,0,0,0,153.56,88.683Z" transform="translate(-113.251 -64.776)" fill="#fff"/>
            <path id="Pfad_2126" data-name="Pfad 2126" d="M245.09,66.792a.906.906,0,1,0,.919-.892A.9.9,0,0,0,245.09,66.792Z" transform="translate(-180.757 -48.603)" fill="#fff"/>
            <path id="Pfad_2127" data-name="Pfad 2127" d="M208.92,33.363a.815.815,0,1,0,.827-.8A.812.812,0,0,0,208.92,33.363Z" transform="translate(-154.081 -24.013)" fill="#fff"/>
            <path id="Pfad_2128" data-name="Pfad 2128" d="M407.54,69.823a1.192,1.192,0,1,0,1.21-1.173A1.191,1.191,0,0,0,407.54,69.823Z" transform="translate(-300.568 -50.631)" fill="#fff"/>
            <path id="Pfad_2129" data-name="Pfad 2129" d="M327.923,364.217s-4.066-13.7-7.423-20.024a13.8,13.8,0,0,0,6.061-3.593s.559.63,1.415,1.711c-.982,1.063-1.864,2.307-2.711,3.415-.832,1.039.22,2.577,2.367,7.323,2.415,4.551,3.564,7.649,3.882,9.985a19.783,19.783,0,0,1-3.591,1.186Z" transform="translate(-236.374 -251.201)" fill="#690c2e" opacity="0.5"/>
            <path id="Pfad_2130" data-name="Pfad 2130" d="M353.235,421.544a.354.354,0,1,1,.409.289A.351.351,0,0,1,353.235,421.544Z" transform="translate(-260.513 -310.593)" fill="#ed826d"/>
            <path id="Pfad_2131" data-name="Pfad 2131" d="M359.845,418.756a.354.354,0,1,1,.409.289A.351.351,0,0,1,359.845,418.756Z" transform="translate(-265.388 -308.538)" fill="#ed826d"/>
            <path id="Pfad_2132" data-name="Pfad 2132" d="M366.535,415.334a.354.354,0,1,1,.409.289A.351.351,0,0,1,366.535,415.334Z" transform="translate(-270.322 -306.013)" fill="#ed826d"/>
            <path id="Pfad_2133" data-name="Pfad 2133" d="M372.645,411.574a.354.354,0,1,1,.409.289A.351.351,0,0,1,372.645,411.574Z" transform="translate(-274.828 -303.24)" fill="#ed826d"/>
            <path id="Pfad_2134" data-name="Pfad 2134" d="M378.125,406.884a.354.354,0,1,1,.409.289A.351.351,0,0,1,378.125,406.884Z" transform="translate(-278.87 -299.781)" fill="#ed826d"/>
            <path id="Pfad_2135" data-name="Pfad 2135" d="M347.665,405.614a.354.354,0,1,1,.409.289A.351.351,0,0,1,347.665,405.614Z" transform="translate(-256.405 -298.844)" fill="#ed826d"/>
            <path id="Pfad_2136" data-name="Pfad 2136" d="M354.285,402.824a.354.354,0,1,1,.409.289A.351.351,0,0,1,354.285,402.824Z" transform="translate(-261.287 -296.787)" fill="#ed826d"/>
            <path id="Pfad_2137" data-name="Pfad 2137" d="M360.975,399.4a.354.354,0,1,1,.409.289A.351.351,0,0,1,360.975,399.4Z" transform="translate(-266.221 -294.264)" fill="#ed826d"/>
            <path id="Pfad_2138" data-name="Pfad 2138" d="M367.085,395.644a.354.354,0,1,1,.409.289A.351.351,0,0,1,367.085,395.644Z" transform="translate(-270.728 -291.491)" fill="#ed826d"/>
            <path id="Pfad_2139" data-name="Pfad 2139" d="M372.565,390.954a.354.354,0,1,1,.409.289A.351.351,0,0,1,372.565,390.954Z" transform="translate(-274.769 -288.032)" fill="#ed826d"/>
            <path id="Pfad_2140" data-name="Pfad 2140" d="M340.965,392.224a.354.354,0,1,1,.409.289A.351.351,0,0,1,340.965,392.224Z" transform="translate(-251.463 -288.969)" fill="#ed826d"/>
            <path id="Pfad_2141" data-name="Pfad 2141" d="M347.585,389.434a.354.354,0,1,1,.409.289A.351.351,0,0,1,347.585,389.434Z" transform="translate(-256.346 -286.911)" fill="#ed826d"/>
            <path id="Pfad_2142" data-name="Pfad 2142" d="M354.275,386.014a.354.354,0,1,1,.409.289A.351.351,0,0,1,354.275,386.014Z" transform="translate(-261.28 -284.389)" fill="#ed826d"/>
            <path id="Pfad_2143" data-name="Pfad 2143" d="M360.385,382.254a.354.354,0,1,1,.409.289A.351.351,0,0,1,360.385,382.254Z" transform="translate(-265.786 -281.616)" fill="#ed826d"/>
            <path id="Pfad_2144" data-name="Pfad 2144" d="M365.865,377.564a.354.354,0,1,1,.409.289A.351.351,0,0,1,365.865,377.564Z" transform="translate(-269.828 -278.157)" fill="#ed826d"/>
            <path id="Pfad_2145" data-name="Pfad 2145" d="M205.19,293.663s1.158-.722,1.263,1.892c.612,1.543,2.614.583,2.249,4.809s-14.4,11.318-19.777,13.195-14.685,3.546-20.628,3.323c-6.475-.242-10.73-1.108-13.777-3.218-2.11-1.459-4.087-3.228-2.934-5.473s-.908-4.942,2.284-4.578,12.121,4.229,25.612.924,25.709-10.877,25.709-10.877Z" transform="translate(-111.544 -216.517)" fill="#870f3b"/>
            <path id="Pfad_2146" data-name="Pfad 2146" d="M247.454,238.418a5.793,5.793,0,0,1-2.223-.189,4.827,4.827,0,0,1-2.221-1.333.5.5,0,0,1,.769-.648h0c.1.115,2.47,2.777,7.181-.2,4.068-2.567,5.221-6.4,4.971-8.908a.5.5,0,0,1,1-.1c.278,2.79-.979,7.045-5.436,9.859a9.327,9.327,0,0,1-4.042,1.517Z" transform="translate(-179.138 -167.117)" fill="#422918"/>
            <path id="Pfad_2147" data-name="Pfad 2147" d="M151.6,318.149c.021-.039.039-.081.058-.121.178,1.89-.2,3.226,3.913,5.441,2.819,1.514,4.074,1.554,6.572,2.055a38.914,38.914,0,0,0,11.83.3c5.979-.352,11.318-1.517,10.859-3.961-.265-2.381-4.446-6.234-3.389-7.557.32-.184,9.987-3.52,10.3-3.706.318.186.47-.365.672-.184,3.79,2.215,4.118,6.777,5.885,6.389,4.856-.252,10.292-5.512,9.78-9.733.617.556.766,1.861.646,3.257-.367,4.228-14.4,11.318-19.777,13.195s-14.685,3.546-20.628,3.323c-6.475-.241-10.73-1.108-13.777-3.218-2.11-1.459-4.087-3.228-2.934-5.473Z" transform="translate(-111.559 -226.472)" fill="#690c2e"/>
            <path id="Pfad_2148" data-name="Pfad 2148" d="M166.53,354.4a12.164,12.164,0,0,0,.5,1.43l-.682,1.407L165.8,355.7l.73-1.3Z" transform="translate(-122.279 -261.379)" fill="#ed826d"/>
            <path id="Pfad_2149" data-name="Pfad 2149" d="M167.49,339.72a12.167,12.167,0,0,0,.5,1.43l-.682,1.407-.546-1.541Z" transform="translate(-122.987 -250.552)" fill="#ed826d"/>
            <path id="Pfad_2150" data-name="Pfad 2150" d="M158.687,350.38a12.164,12.164,0,0,0-1.43.5l-1.407-.682,1.541-.546Z" transform="translate(-114.941 -257.876)" fill="#ed826d"/>
            <path id="Pfad_2151" data-name="Pfad 2151" d="M173.367,351.33a12.157,12.157,0,0,0-1.43.5l-1.407-.682,1.541-.546Z" transform="translate(-125.768 -258.576)" fill="#ed826d"/>
            <path id="Pfad_2152" data-name="Pfad 2152" d="M161.17,353.793a12.286,12.286,0,0,0-.669,1.357l-1.48.5.714-1.47,1.436-.391Z" transform="translate(-117.279 -260.929)" fill="#ed826d"/>
            <path id="Pfad_2153" data-name="Pfad 2153" d="M172.29,344.173a12.285,12.285,0,0,0-.669,1.357l-1.48.5.714-1.47,1.436-.391Z" transform="translate(-125.48 -253.834)" fill="#ed826d"/>
            <path id="Pfad_2154" data-name="Pfad 2154" d="M162.038,345.01a12.287,12.287,0,0,0-1.357-.669l-.5-1.48,1.47.714.391,1.436Z" transform="translate(-118.134 -252.868)" fill="#ed826d"/>
            <path id="Pfad_2155" data-name="Pfad 2155" d="M171.658,356.14a12.282,12.282,0,0,0-1.357-.669l-.5-1.48,1.47.714.391,1.436Z" transform="translate(-125.229 -261.077)" fill="#ed826d"/>
            <path id="Pfad_2156" data-name="Pfad 2156" d="M202.69,362.31a12.164,12.164,0,0,0,.5,1.43l-.682,1.407-.546-1.541Z" transform="translate(-148.948 -267.213)" fill="#ed826d"/>
            <path id="Pfad_2157" data-name="Pfad 2157" d="M203.64,347.63a12.164,12.164,0,0,0,.5,1.43l-.682,1.407-.546-1.541Z" transform="translate(-149.649 -256.386)" fill="#ed826d"/>
            <path id="Pfad_2158" data-name="Pfad 2158" d="M194.847,358.3a12.163,12.163,0,0,0-1.43.5l-1.407-.682,1.541-.546Z" transform="translate(-141.61 -263.717)" fill="#ed826d"/>
            <path id="Pfad_2159" data-name="Pfad 2159" d="M209.527,359.25a12.169,12.169,0,0,0-1.43.5l-1.407-.682,1.541-.546Z" transform="translate(-152.436 -264.418)" fill="#ed826d"/>
            <path id="Pfad_2160" data-name="Pfad 2160" d="M197.32,361.713a12.287,12.287,0,0,0-.669,1.357l-1.48.5.714-1.47,1.436-.391Z" transform="translate(-143.94 -266.77)" fill="#ed826d"/>
            <path id="Pfad_2161" data-name="Pfad 2161" d="M208.45,352.093a12.285,12.285,0,0,0-.669,1.357l-1.48.5.714-1.47,1.436-.391Z" transform="translate(-152.149 -259.675)" fill="#ed826d"/>
            <path id="Pfad_2162" data-name="Pfad 2162" d="M198.188,352.93a12.284,12.284,0,0,0-1.357-.669l-.5-1.48,1.47.714.391,1.436Z" transform="translate(-144.796 -258.709)" fill="#ed826d"/>
            <path id="Pfad_2163" data-name="Pfad 2163" d="M207.808,364.06a12.292,12.292,0,0,0-1.357-.669l-.5-1.48,1.47.714.391,1.436Z" transform="translate(-151.891 -266.918)" fill="#ed826d"/>
            <path id="Pfad_2164" data-name="Pfad 2164" d="M238.3,362.53a12.165,12.165,0,0,0,.5,1.43l-.682,1.407-.546-1.541Z" transform="translate(-175.211 -267.375)" fill="#ed826d"/>
            <path id="Pfad_2165" data-name="Pfad 2165" d="M239.26,347.85a12.162,12.162,0,0,0,.5,1.43l-.682,1.407-.546-1.541Z" transform="translate(-175.919 -256.548)" fill="#ed826d"/>
            <path id="Pfad_2166" data-name="Pfad 2166" d="M230.467,358.51a12.162,12.162,0,0,0-1.43.5l-1.407-.682,1.541-.546Z" transform="translate(-167.88 -263.872)" fill="#ed826d"/>
            <path id="Pfad_2167" data-name="Pfad 2167" d="M245.137,359.46a12.158,12.158,0,0,0-1.43.5l-1.407-.682,1.541-.546Z" transform="translate(-178.7 -264.572)" fill="#ed826d"/>
            <path id="Pfad_2168" data-name="Pfad 2168" d="M232.94,361.923a12.287,12.287,0,0,0-.669,1.357l-1.48.5.714-1.47,1.436-.391Z" transform="translate(-170.211 -266.925)" fill="#ed826d"/>
            <path id="Pfad_2169" data-name="Pfad 2169" d="M244.07,352.3a12.284,12.284,0,0,0-.669,1.357l-1.48.5.714-1.47,1.436-.391Z" transform="translate(-178.419 -259.83)" fill="#ed826d"/>
            <path id="Pfad_2170" data-name="Pfad 2170" d="M233.808,353.14a12.289,12.289,0,0,0-1.357-.669l-.5-1.48,1.47.714.391,1.436Z" transform="translate(-171.066 -258.864)" fill="#ed826d"/>
            <path id="Pfad_2171" data-name="Pfad 2171" d="M243.428,364.27a12.282,12.282,0,0,0-1.357-.669l-.5-1.48,1.47.714.391,1.436Z" transform="translate(-178.161 -267.073)" fill="#ed826d"/>
            <path id="Pfad_2172" data-name="Pfad 2172" d="M274.41,356.86a12.161,12.161,0,0,0,.5,1.431l-.682,1.407-.546-1.541Z" transform="translate(-201.843 -263.193)" fill="#ed826d"/>
            <path id="Pfad_2173" data-name="Pfad 2173" d="M275.36,342.18a12.164,12.164,0,0,0,.5,1.43l-.682,1.407-.546-1.541Z" transform="translate(-202.544 -252.366)" fill="#ed826d"/>
            <path id="Pfad_2174" data-name="Pfad 2174" d="M266.567,352.84a12.164,12.164,0,0,0-1.43.5l-1.407-.682,1.541-.546Z" transform="translate(-194.505 -259.69)" fill="#ed826d"/>
            <path id="Pfad_2175" data-name="Pfad 2175" d="M281.247,353.79a12.158,12.158,0,0,0-1.43.5l-1.407-.682,1.541-.546Z" transform="translate(-205.332 -260.391)" fill="#ed826d"/>
            <path id="Pfad_2176" data-name="Pfad 2176" d="M269.04,356.253a12.282,12.282,0,0,0-.669,1.357l-1.48.5.714-1.47,1.436-.391Z" transform="translate(-196.835 -262.743)" fill="#ed826d"/>
            <path id="Pfad_2177" data-name="Pfad 2177" d="M280.17,346.633a12.286,12.286,0,0,0-.669,1.357l-1.48.5.714-1.47,1.436-.391Z" transform="translate(-205.044 -255.648)" fill="#ed826d"/>
            <path id="Pfad_2178" data-name="Pfad 2178" d="M269.918,347.47a12.285,12.285,0,0,0-1.357-.669l-.5-1.48,1.47.714.391,1.436Z" transform="translate(-197.698 -254.682)" fill="#ed826d"/>
            <path id="Pfad_2179" data-name="Pfad 2179" d="M279.538,358.6a12.282,12.282,0,0,0-1.357-.669l-.5-1.48,1.47.714.391,1.436Z" transform="translate(-204.793 -262.891)" fill="#ed826d"/>
            <path id="Pfad_2180" data-name="Pfad 2180" d="M310.29,341.97a12.163,12.163,0,0,0,.5,1.43l-.682,1.407-.546-1.541Z" transform="translate(-228.306 -252.211)" fill="#ed826d"/>
            <path id="Pfad_2181" data-name="Pfad 2181" d="M311.25,327.29a12.164,12.164,0,0,0,.5,1.43l-.682,1.407-.546-1.541Z" transform="translate(-229.014 -241.385)" fill="#ed826d"/>
            <path id="Pfad_2182" data-name="Pfad 2182" d="M302.447,337.95a12.159,12.159,0,0,0-1.43.5l-1.407-.682,1.541-.546Z" transform="translate(-220.967 -248.708)" fill="#ed826d"/>
            <path id="Pfad_2183" data-name="Pfad 2183" d="M317.127,338.9a12.164,12.164,0,0,0-1.43.5l-1.407-.682,1.541-.546Z" transform="translate(-231.794 -249.409)" fill="#ed826d"/>
            <path id="Pfad_2184" data-name="Pfad 2184" d="M304.93,341.363a12.293,12.293,0,0,0-.669,1.357l-1.48.5.714-1.47,1.436-.391Z" transform="translate(-223.305 -251.762)" fill="#ed826d"/>
            <path id="Pfad_2185" data-name="Pfad 2185" d="M316.06,331.743a12.29,12.29,0,0,0-.669,1.357l-1.48.5.714-1.47,1.436-.391Z" transform="translate(-231.514 -244.667)" fill="#ed826d"/>
            <path id="Pfad_2186" data-name="Pfad 2186" d="M305.8,332.58a12.287,12.287,0,0,0-1.357-.669l-.5-1.48,1.47.714.391,1.436Z" transform="translate(-224.161 -243.7)" fill="#ed826d"/>
            <path id="Pfad_2187" data-name="Pfad 2187" d="M315.418,343.71a12.287,12.287,0,0,0-1.357-.669l-.5-1.48,1.47.714.391,1.436Z" transform="translate(-231.256 -251.909)" fill="#ed826d"/>
            <path id="Pfad_2188" data-name="Pfad 2188" d="M341.62,324.53a12.155,12.155,0,0,0,.5,1.431l-.682,1.407-.546-1.541Z" transform="translate(-251.412 -239.349)" fill="#ed826d"/>
            <path id="Pfad_2189" data-name="Pfad 2189" d="M342.57,309.85a12.163,12.163,0,0,0,.5,1.431l-.682,1.407-.546-1.541Z" transform="translate(-252.113 -228.522)" fill="#ed826d"/>
            <path id="Pfad_2190" data-name="Pfad 2190" d="M333.777,320.51a12.164,12.164,0,0,0-1.43.5l-1.407-.682,1.541-.546Z" transform="translate(-244.074 -235.846)" fill="#ed826d"/>
            <path id="Pfad_2191" data-name="Pfad 2191" d="M348.457,321.46a12.168,12.168,0,0,0-1.431.5l-1.407-.682,1.541-.546Z" transform="translate(-254.901 -236.546)" fill="#ed826d"/>
            <path id="Pfad_2192" data-name="Pfad 2192" d="M336.25,323.923a12.287,12.287,0,0,0-.669,1.357l-1.48.5.714-1.47,1.436-.391Z" transform="translate(-246.405 -238.899)" fill="#ed826d"/>
            <path id="Pfad_2193" data-name="Pfad 2193" d="M347.38,314.3a12.284,12.284,0,0,0-.669,1.357l-1.48.5.714-1.47,1.436-.391Z" transform="translate(-254.613 -231.804)" fill="#ed826d"/>
            <path id="Pfad_2194" data-name="Pfad 2194" d="M337.128,315.14a12.287,12.287,0,0,0-1.357-.669l-.5-1.48,1.47.714.391,1.436Z" transform="translate(-247.267 -230.838)" fill="#ed826d"/>
            <path id="Pfad_2195" data-name="Pfad 2195" d="M346.748,326.27a12.289,12.289,0,0,0-1.357-.669l-.5-1.48,1.47.714.391,1.436Z" transform="translate(-254.362 -239.047)" fill="#ed826d"/>
            <path id="Pfad_2196" data-name="Pfad 2196" d="M280.573,355.811a5.9,5.9,0,0,0-.194-.6,9.376,9.376,0,0,1-.6-2.333c-.724-.782-1.451-7.79-4.454-17.008-3.139-9.643-7.226-17.381-7.929-18.294s5.74-3.977,7.8-4.79,2.173.331,2.173.331c4.693,5.507,15.027,32.324,13.336,36.256.158.559.756,2.717.8,3.179a.168.168,0,0,1-.1.168.154.154,0,0,1-.047.01.165.165,0,0,1-.178-.15c-.031-.349-.446-1.9-.727-2.9a4.227,4.227,0,0,1-.436.262c.588,1.848.869,2.908.871,2.919a.162.162,0,0,1-.1.194c-.005,0-.013.005-.018.005a.164.164,0,0,1-.2-.118c0-.01-.276-1.045-.85-2.85-.16.076-.333.157-.52.236.163.53.774,2.5.9,2.908a.162.162,0,0,1-.1.2.02.02,0,0,0-.01.005.167.167,0,0,1-.207-.108c-.126-.4-.714-2.3-.892-2.879-.215.089-.444.178-.682.268a24.991,24.991,0,0,1,1.008,2.942.168.168,0,0,1-.1.2c-.005,0-.01.005-.018.005a.165.165,0,0,1-.2-.116,24.678,24.678,0,0,0-1-2.913l-.417.15c.186.507.929,2.556.971,2.932a.165.165,0,0,1-.1.171.246.246,0,0,1-.042.01.166.166,0,0,1-.184-.147c-.029-.268-.575-1.824-.955-2.861l-.467.158a21.19,21.19,0,0,1,1.06,3.066.169.169,0,0,1-.1.118.165.165,0,0,1-.226-.16,29.5,29.5,0,0,0-1.045-2.924l-.415.134c.252.766.879,2.693.963,2.955a.165.165,0,0,1-.1.2.016.016,0,0,0-.01,0,.163.163,0,0,1-.207-.105c-.32-.984-.769-2.365-.966-2.958l-.381.118c.273.772.95,2.7,1,3.071a.168.168,0,0,1-.1.176.217.217,0,0,1-.039.01.167.167,0,0,1-.186-.142c-.045-.325-.719-2.268-.987-3.018l-.257.076c.249.822.785,3.039.811,3.144a.164.164,0,0,1-.1.192l-.021.008a.166.166,0,0,1-.2-.121c-.005-.026-.564-2.333-.806-3.131l-.47.134c.194.709.8,2.911.869,3.165a.165.165,0,0,1-.1.2c-.005,0-.01.005-.018.005a.165.165,0,0,1-.2-.115c-.071-.255-.675-2.457-.869-3.165l-.32.087c.257.9.73,2.977.751,3.074a.164.164,0,0,1-.1.189l-.024.008a.164.164,0,0,1-.2-.126c-.005-.024-.493-2.173-.748-3.06l-.528.136c.155.583.727,2.751.8,3.011a.165.165,0,0,1-.1.2c-.005,0-.01.005-.018.005a.165.165,0,0,1-.2-.116c-.071-.262-.651-2.446-.8-3.021-.144.034-.283.068-.417.1.16.78.835,3.045.843,3.068a.163.163,0,0,1-.1.2c-.005,0-.008,0-.013.005a.165.165,0,0,1-.2-.11c-.029-.1-.68-2.281-.848-3.092l-.457.094a13.155,13.155,0,0,0,.808,2.932.166.166,0,0,1-.073.223c-.005,0-.011.005-.013.005a.161.161,0,0,1-.207-.079,13.236,13.236,0,0,1-.837-3.024c-.189.032-.349.05-.47.058a10.058,10.058,0,0,0,.58,2.147c.21.6.241.7.2.8a.17.17,0,0,1-.092.089.174.174,0,0,1-.126,0,.163.163,0,0,1-.1-.176Z" transform="translate(-197.166 -230.471)" fill="#870f3b"/>
            <path id="Pfad_2197" data-name="Pfad 2197" d="M318.955,421.67q.221.776.409,1.509a52.689,52.689,0,0,1-11.746,3.961c-.121-.543-.249-1.118-.388-1.717,4.055-.979,8.029-1.874,11.725-3.751Z" transform="translate(-226.587 -310.992)" fill="#ed826d"/>
            <path id="Pfad_2198" data-name="Pfad 2198" d="M277.8,344.885c-.6-2.583-1.394-5.659-2.493-9.034-3.139-9.643-7.226-17.381-7.929-18.294s5.74-3.977,7.8-4.79,2.173.331,2.173.331c3.32,3.9,9.462,18.457,12.174,28.035-3.7,1.879-7.667,2.774-11.725,3.751Z" transform="translate(-197.159 -230.456)" fill="#870f3b"/>
            <path id="Pfad_2199" data-name="Pfad 2199" d="M322.353,436.94c.1.5.179.969.239,1.4a40.279,40.279,0,0,1-11.793,3.614q-.138-.634-.3-1.391a47.174,47.174,0,0,0,11.853-3.622Z" transform="translate(-228.999 -322.254)" fill="#ed826d"/>
            <path id="Pfad_2200" data-name="Pfad 2200" d="M315.448,408.73c.21.6.354,1.034.48,1.52-3.677,1.921-7.6,2.824-11.641,3.837-.121-.543-.289-1.134-.428-1.732C307.915,411.376,311.753,410.609,315.448,408.73Z" transform="translate(-224.102 -301.449)" fill="#ed826d"/>
            <path id="Pfad_2201" data-name="Pfad 2201" d="M308.969,430.723a.355.355,0,1,1-.436-.249A.355.355,0,0,1,308.969,430.723Z" transform="translate(-227.355 -317.476)" fill="#ed826d"/>
            <path id="Pfad_2202" data-name="Pfad 2202" d="M316.349,428.953a.355.355,0,1,1-.436-.249A.355.355,0,0,1,316.349,428.953Z" transform="translate(-232.798 -316.17)" fill="#ed826d"/>
            <path id="Pfad_2203" data-name="Pfad 2203" d="M323.275,427.144a.354.354,0,1,1,.409.289A.351.351,0,0,1,323.275,427.144Z" transform="translate(-238.417 -314.723)" fill="#ed826d"/>
            <path id="Pfad_2204" data-name="Pfad 2204" d="M311.055,444.986a.354.354,0,1,1,.409.289A.351.351,0,0,1,311.055,444.986Z" transform="translate(-229.404 -327.883)" fill="#ed826d"/>
            <path id="Pfad_2205" data-name="Pfad 2205" d="M318.165,443.534a.354.354,0,1,1,.409.289A.351.351,0,0,1,318.165,443.534Z" transform="translate(-234.648 -326.811)" fill="#ed826d"/>
            <path id="Pfad_2206" data-name="Pfad 2206" d="M325.685,441.364a.354.354,0,1,1,.409.289A.351.351,0,0,1,325.685,441.364Z" transform="translate(-240.194 -325.211)" fill="#ed826d"/>
            <path id="Pfad_2207" data-name="Pfad 2207" d="M333.175,439.074a.354.354,0,1,1,.409.289A.351.351,0,0,1,333.175,439.074Z" transform="translate(-245.718 -323.522)" fill="#ed826d"/>
            <path id="Pfad_2208" data-name="Pfad 2208" d="M340.835,436.494a.354.354,0,1,1,.409.289A.351.351,0,0,1,340.835,436.494Z" transform="translate(-251.367 -321.619)" fill="#ed826d"/>
            <path id="Pfad_2209" data-name="Pfad 2209" d="M348.055,433.664a.354.354,0,1,1,.409.289A.351.351,0,0,1,348.055,433.664Z" transform="translate(-256.692 -319.532)" fill="#ed826d"/>
            <path id="Pfad_2210" data-name="Pfad 2210" d="M314.765,459.464a.354.354,0,1,1,.41.289A.351.351,0,0,1,314.765,459.464Z" transform="translate(-232.14 -338.56)" fill="#ed826d"/>
            <path id="Pfad_2211" data-name="Pfad 2211" d="M321.475,458.374a.354.354,0,1,1,.409.289A.351.351,0,0,1,321.475,458.374Z" transform="translate(-237.089 -337.756)" fill="#ed826d"/>
            <path id="Pfad_2212" data-name="Pfad 2212" d="M329.085,456.544a.354.354,0,1,1,.409.289A.351.351,0,0,1,329.085,456.544Z" transform="translate(-242.702 -336.407)" fill="#ed826d"/>
            <path id="Pfad_2213" data-name="Pfad 2213" d="M336.355,454.314a.354.354,0,1,1,.409.289A.351.351,0,0,1,336.355,454.314Z" transform="translate(-248.063 -334.762)" fill="#ed826d"/>
            <path id="Pfad_2214" data-name="Pfad 2214" d="M343.075,452.354a.354.354,0,1,1,.409.289A.351.351,0,0,1,343.075,452.354Z" transform="translate(-253.02 -333.316)" fill="#ed826d"/>
            <path id="Pfad_2215" data-name="Pfad 2215" d="M350.115,449.324a.354.354,0,1,1,.409.289A.351.351,0,0,1,350.115,449.324Z" transform="translate(-258.212 -331.082)" fill="#ed826d"/>
            <path id="Pfad_2216" data-name="Pfad 2216" d="M331.259,424.643a.355.355,0,1,1-.436-.249A.355.355,0,0,1,331.259,424.643Z" transform="translate(-243.794 -312.992)" fill="#ed826d"/>
            <path id="Pfad_2217" data-name="Pfad 2217" d="M339,422.143a.355.355,0,1,1-.436-.249A.355.355,0,0,1,339,422.143Z" transform="translate(-249.503 -311.148)" fill="#ed826d"/>
            <path id="Pfad_2218" data-name="Pfad 2218" d="M346.4,419.3a.355.355,0,1,1-.436-.249A.355.355,0,0,1,346.4,419.3Z" transform="translate(-254.961 -309.053)" fill="#ed826d"/>
          </g>
        </g>
      </g>
    </g>
  </g>
</svg>
