<svg xmlns="http://www.w3.org/2000/svg" width="588.431" height="835.142" viewBox="0 0 588.431 835.142">
  <g id="baum" transform="translate(-849.218 -121.002)">
    <g id="Gruppe_672" data-name="Gruppe 672" transform="translate(849.218 121.002)">
      <g id="Gruppe_439" data-name="Gruppe 439" transform="translate(0 0)">
        <g id="Gruppe_438" data-name="Gruppe 438" transform="translate(10.811 648.703)">
          <g id="background" transform="translate(0 122.215)">
            <path id="Pfad_1531" data-name="Pfad 1531" d="M117.892,22.887C60.982,23.154,47.161,20.37,0,43.084,14.155,53,44.913,36.638,76.629,40.567c40.929,5.073,72.022,15.658,82.527,15.162,32.2-1.545,21.856-14,85.465-10.108,39.861,2.441,76.629,17.679,126.416,5.836-.556,12.74,31.938,16.344,42.821,9l.912-15.143c50.589,7.5,116.089,11.348,162.85-8.6-12.33-23.573-70.931,0-131.735-28.188-19.363-16-70.352-4.272-109.924-5.855-17.916-.706-39.639,12.263-58.935,12.625S221.206,9.232,200.4,12.779c-33.451,5.7-52.347,9.955-82.527,10.108Z" transform="translate(0 0.001)" fill="#a1b9c6" opacity="0.6"/>
          </g>
          <path id="Pfad_2252" data-name="Pfad 2252" d="M-14998.457,7708.254c4.365,77.538,0,102.832,0,102.832s48.4,18.461,74.855,0,0-118.331,0-118.331S-15002.82,7630.714-14998.457,7708.254Z" transform="translate(15244.047 -7669.257)" fill="#6e3500" stroke="#707070" stroke-width="1"/>
          <path id="Pfad_2253" data-name="Pfad 2253" d="M-14950.9,7825.138s15.57-55.058-8.783-119.43c.344-15.262,33.424,0,33.424,0s17.852,112.169-7.988,114.539C-14935.39,7821.473-14950.9,7825.138-14950.9,7825.138Z" transform="translate(15258.038 -7675.104)" fill="#552500"/>
        </g>
        <path id="Pfad_2219" data-name="Pfad 2219" d="M1500.15,427.885c-38.9-71.052-79.307-111.147-126.37-181.772,19.8-2.691,57.58-4.024,44.335-24.147-55.738-80.618-93.277-138.028-157.1-214.3-12.4-48.188-136.728,130.267-170.781,167.566-40.99,52.034-14.392,43.75,43.49,57.525-47,53.879-132.465,172.437-143.139,204.132-3.92,20.574,117.582,4.752,121.17,5.142-57.893,66.591-102.383,131.363-165.673,213.063-10.458,13.5,50.951,13.992,154.65,20.779,117.577,7.7,253.024,11.7,277.217,11.261,22.082-.384,132.482.484,155.176-11.261-20.477-68.885-70.076-152.7-94.229-212.6,29.974-.123,70.077-3.242,71.984-21.246M1476.557,450c.041.046.085.087.125.133-.049,0-.1.009-.154.011.01-.048.022-.095.03-.144M1435.779,231.83c.026-.164.069-.325.084-.489.139.154.274.309.41.464l-.494.026" transform="translate(-944.934 0.534)" fill="#00a651"/>
      </g>
      <path id="Pfad_2254" data-name="Pfad 2254" d="M-15146.981,7182.547s39.842,9.6,105.111,9.6,137.889,8.48,143.328,8.48-34.4,18.335-135.982,16.044S-15146.981,7182.547-15146.981,7182.547Z" transform="translate(15321.911 -6957.042)" fill="#009151"/>
      <path id="Pfad_2255" data-name="Pfad 2255" d="M0,0S55.259,17.373,145.877,17.062s191.384,14.85,198.938,14.824S296.947,65.577,155.932,61.871,0,0,0,0Z" transform="matrix(0.999, -0.035, 0.035, 0.999, 159.404, 442.139)" fill="#009151"/>
    </g>
  </g>
</svg>
