<svg xmlns="http://www.w3.org/2000/svg" xmlns:xlink="http://www.w3.org/1999/xlink" width="683" height="922.068" viewBox="0 0 683 922.068">
  <defs>
    <clipPath id="clip-path">
      <rect id="Rechteck_295" data-name="Rechteck 295" width="683" height="878.326" fill="none"/>
    </clipPath>
    <clipPath id="clip-path-2">
      <rect id="Rechteck_177" data-name="Rechteck 177" width="91.816" height="112.419" fill="#b8756a"/>
    </clipPath>
    <clipPath id="clip-path-3">
      <rect id="Rechteck_177-2" data-name="Rechteck 177" width="78.791" height="96.472" fill="#b8756a"/>
    </clipPath>
  </defs>
  <g id="baum4" transform="translate(602 1097.163)">
    <path id="Pfad_3735" data-name="Pfad 3735" d="M3089.949,848.4c-69.991-15.067,207.473-48.933,659.914,13.333C3748.238,867.067,3471.524,982.667,3089.949,848.4Z" transform="translate(-3668.863 -1088.164)" fill="#83b1c9" opacity="0.14"/>
    <g id="baum3" transform="translate(-602 -1097.163)">
      <g id="Gruppe_1523" data-name="Gruppe 1523" clip-path="url(#clip-path)">
        <path id="Pfad_2387" data-name="Pfad 2387" d="M110.013,221.99Q96.462,346.713,85.489,471.628c23.911,1.189,47.9,1.336,71.826.433l-9.644-245.918c-.08-2.118-.235-4.4-1.8-6.048-1.877-1.978-5.169-2.4-8.146-2.56A117.82,117.82,0,0,0,112.95,218.8" transform="translate(201.081 405.683)" fill="#1b2845"/>
        <path id="Pfad_2388" data-name="Pfad 2388" d="M671.665,720.643c-3.047-.04-2.935-3.351-6.7-5.223-1.395-1.359-7.956-6.078-9.159-6.964,6.383-.817,1.279-3.493,6.19-4.256-38.187-18.073-78.1-75.588-101.725-107.331-5.092-6.842-9.644-13.1-13.811-18.9-2.28-17.8,9.865-13.822,21.108-16.341-7.549-2.583-12.53-7.642-17.776-13.079,10.271-.737,22.386-3.173,30.474-4.959-27.29-17.927-60.761-67.011-79.989-93.39-3.262-4.474-6.275-8.852-9.084-13.122-.469-2.766.2-6.848-.453-9.4,9.074,2.852,25.55,14.911,22.215-5.162,6.067.992,16.519,10.239,13.838-5.274,6.071.995,12.095,3.809,17.448,2.97-3.134-3.334-8.129-9.651-12.926-14.974a121.437,121.437,0,0,0,18.9-2.755,229.634,229.634,0,0,1-58.364-62.324c-12.772-19.841-25.4-39.912-35.275-55.987a16.51,16.51,0,0,1-.955-6.5c6.842.547,12.862,3.815,20.106,3.46-1.079-2.746-2.916-5.5-4-8.25,6.929-3.09,10.552,4.7,16.7,2.5-1.066-3.2-3.288-5.962-4.344-9.617,4.981-1.3,10.948,4.248,16.265,4.773a52.247,52.247,0,0,0-5.95-7.172c.04-.014.094-.009.134-.026-16.7-16.932-36.545-39.562-49.826-61.72-12.017-20.383-23.968-43.4-35.328-63.772-7.321-13.025-14.126-26.907-23.133-50.469-3.717-9.726-11.867-26.483-14.9-37.071-3.7-10.6-5.575-16.081-9.55-27.472C359.328,15.771,355.118,3.8,354.528,0l-.094.226c-14.263,44.449-34.973,83.433-54.965,122.72-11.055,22.7-28.332,53.212-42.3,71.222-13.871,17.884-28.791,35.274-45.509,47.353a54.279,54.279,0,0,1-10.623,4.251,24.957,24.957,0,0,0,7.029,6.464c-3.386,2.078-6.8,3.574-9.792,3.723,5.93,6.908,17.025,4.784,25.014,5.346-1.633,4.532-6.624,6.283-10.083,7.6,7.167,2.829,13.308,1.089,20.18.275-2.752,3.6-5.544,9.026-9.037,11.709-1.948,1.8-5,2.21-6.959,4.457a14.944,14.944,0,0,0,11.6,1.387c-5.216,8.221-10.358,16.124-15.215,23.255-15.936,23.376-40.256,61.869-58.88,78.333-4.013,3.54-10.14,3.44-14.736,4.271a33.411,33.411,0,0,0,14.927,8.353c5.34,7.071,14.86,5.151,21.946,5.171.077.072.161.138.245.206-2.4,4.414-6.2,7.954-9.285,11.491a81.132,81.132,0,0,0,21.125,1.373c-19.087,31.029-57.425,87.629-77.159,103.085-4.663,3.652-12.607,7.7-17.957,8.548a52.991,52.991,0,0,0,14.485,8.622c-4.626,3.414-10.17,4.9-14.763,7.542,10.087,8.333,25,5.8,37.564,5.977a51.231,51.231,0,0,1-11.81,16.224,40.34,40.34,0,0,0,13.03.889C102.77,606.14,77.927,668.5,52.786,682.613c-6.466,3.626-16.217,9.735-23.665,10.558,6.755,4.113,1.762,5.708,9.8,7.9-7.76,2.514-3.133,3.246-9.8,7.385C46.861,714.92,48.283,712,61.189,714c-1.586,2.712-15.882,12.126-18.232,14.826,18.842,8.447,46.323,6.091,65.447,2.709-.828,2.72-1.76,9.992-3.349,12.7,10.64,1.055,26.784-5.1,36.642-3.142,6.051,1.9,5.9,8.275,14.273,8.39,10.68-.768,7.137-11.741,16.057-2.514,5.2,5.532,1.984,12.77,8.793,14.685,3.795.96,14.6-5.263,17.689-7.043,19.231-7.934,19.188-6.111,34.859,7.756,1.609-3.62,5.481-6.3,7.857-9.906,12.577,15.648,16.318,18.428,32.526,9.545,12.356-7.114,26.7-1.459,34.772,11.4,7.026-7.186,9.416-11.706,18.534-10.672,6.835,1,13.492,9.287,20.391,7.559s9.393-10.795,17.773-10.68c6.848.092,15.014,9.3,22.627,9.408-1.029-20.951,26.066-6.928,36.662-4.05.087-3.64,1.74-9.081,1.063-12.733,16.734,1.141,32.489,11.365,50.024,10.695-.7-2.74.174-7.281-1.287-10.032,18.386-4.3,46.96,11.563,66.758,11.832-5.243-3.712-8.159-9.213-10.318-14.7,11.639-8.943,38.771,3.259,52.481,3.445-3.788-.963-6.728-5.552-10.425-10.156,11.531-4.394,26.609,2.181,38.794,2.348-2.239-1.852-2.94-4.592-4.418-6.432,10.006-4.414,24.236,5.79,34.966,3.208-2.2-3.675-2.853-8.235-4.291-11.9,9.2-2.606,19.037.258,28.178.384-2.222-2.76-3.64-7.332-5.119-9.172,1.706.023,3.993-.984,5.119-1.108,2.511-.263.314-.073,5.631,0" fill="#56b085" stroke="#fff" stroke-width="8"/>
        <path id="Pfad_2389" data-name="Pfad 2389" d="M392.024,451.029c-49.7,11.683-100.745,18.46-150.776,28.971-1.934.407-3.842.826-5.745,1.218q2.132-68.661,4.26-137.324c17.357-.588,34.366-4.523,51.241-7.983l70.261-14.4c13.988-2.866,9.654-16.516-4.284-13.661q-31.492,6.458-62.99,12.913c-17.471,3.583-35.613,8.628-53.778,8.654q2.052-66.76,4.143-133.523a17.741,17.741,0,0,0,1.75-.525q3.872-1.7,7.878-3.144c1.338-.482,2.685-.937,4.039-1.379q.87-.288,1.746-.559-1.428.447.613-.172c5.353-1.528,10.737-2.95,16.137-4.348l34.658-8.986c4.039-1.046,10.7-4.093,9.285-8.614-1.368-4.366-9.141-4.512-13.077-3.491l-35.921,9.313c-8.974,2.328-18.008,4.684-26.673,7.791Q246.7,120.4,248.653,59.025c.208-6.472-14.9-4.5-15.078,1.052q-1.936,60.736-3.768,121.476c-7.934-3.4-15.43-7.834-23.056-11.377-6.664-3.093-13.006-6.507-20.089-8.886-7.629-2.563-15.574-4.406-23.478-6.229-5.011-1.155-12.034.7-15.812,3.623-3.65,2.821-2.383,5.658,2.1,6.69a183.933,183.933,0,0,1,22.144,6.08c6.8,2.5,13.12,5.911,19.593,8.969,12.43,5.865,24.112,12.907,38.154,15.653q-2.052,66.025-4.1,132.053c-18.43-2.62-36.77-8.3-54.392-13.186q-29.918-8.285-59.235-18.015c-9.9-3.265-26.106,8.892-12.788,13.283q31.6,10.422,63.841,19.279c19.935,5.435,41.084,12.108,62.1,13.988q-2.142,69.611-4.321,139.224a34.831,34.831,0,0,1-3.634-.221c-7.127-1.043-14.2-3-21.165-4.578q-22.154-5-44.262-10.133-45.445-10.551-90.712-21.659c-7.029-1.723-26.21,7.229-13.727,10.288q48.944,12,98.083,23.367c23.954,5.535,49.829,14.647,75.088,13.507-.03.949-.06,1.9-.087,2.849q-1.941,62.34-3.922,124.674c-.208,6.472,14.9,4.495,15.078-1.055q2.046-64.18,3.982-128.361c53.239-9.889,107.272-18.58,159.789-30.926,13.325-3.13,10.519-12.595-2.953-9.428" transform="translate(100.77 102.601)" fill="#489470" opacity="0.81"/>
      </g>
    </g>
    <g id="Gruppe_1905" data-name="Gruppe 1905" transform="translate(-427.841 -303.343)">
      <g id="Gruppe_334" data-name="Gruppe 334" transform="translate(0)">
        <g id="Gruppe_332" data-name="Gruppe 332" transform="translate(0 0)" clip-path="url(#clip-path-2)">
          <path id="Pfad_1199" data-name="Pfad 1199" d="M55.958,40.865c0,5.437,0,6.211-2.329,7.5C51.3,49.671,39.916,49.671,30.863,50.7c-2.75.309-5.343.587-8.23.788l-3.4-18.309,36.2-.742c.281,3.524.53,6.552.53,8.431" transform="translate(35.858 60.481)" fill="#b8756a"/>
          <path id="Pfad_1200" data-name="Pfad 1200" d="M58.3,45.112,21.3,44.831,17.484,24.225,58.3,22.778a33.9,33.9,0,0,1-.109,6.586A92.318,92.318,0,0,0,58.3,45.112" transform="translate(32.604 42.475)" fill="#b8756a"/>
          <path id="Pfad_1201" data-name="Pfad 1201" d="M60.373,31.877l-41.187.931L16.021,15.725c.914.032,1.813.032,2.7.032,11.648,0,30.547-.53,36.5-.53S59.1,17.559,59.1,22.991a55.5,55.5,0,0,0,1.275,8.887" transform="translate(29.876 28.394)" fill="#b8756a"/>
          <path id="Pfad_1202" data-name="Pfad 1202" d="M58.963,26.021,18.152,27.468l-1.026-5.5,41.187-.931a46.908,46.908,0,0,1,.65,4.982" transform="translate(31.936 39.232)" fill="#cbbe90"/>
          <path id="Pfad_1203" data-name="Pfad 1203" d="M56.2,36.083,20,36.828l-1.18-6.351,36.993.281c.123,1.831.264,3.63.387,5.326" transform="translate(35.089 56.832)" fill="#cbbe90"/>
          <path id="Pfad_1204" data-name="Pfad 1204" d="M38.149,16.008l-2.206,17.6L1.25,34.4A53.91,53.91,0,0,0,.783,27.9c-.249-1.55-1.026-6.735-.513-9.316s8.806-3.63,15.53-3.63c4.83,0,13.513.665,22.348,1.051" transform="translate(0.185 27.891)" fill="#b8756a"/>
          <path id="Pfad_1205" data-name="Pfad 1205" d="M34.548,23.467l-2.5,19.907L.463,43.128c.092-5.432.218-12.393.2-18.463Z" transform="translate(0.863 43.76)" fill="#b8756a"/>
          <path id="Pfad_1206" data-name="Pfad 1206" d="M32.026,32.856,29.76,51q-.911-.026-1.865-.046C5.378,50.437,3.295,47.844.966,47.332c-2.277-.513.175-6.755.264-13.837Z" transform="translate(0 61.268)" fill="#b8756a"/>
          <path id="Pfad_1207" data-name="Pfad 1207" d="M32.111,30.576l-.885,6.987L.429,38.2v-.4c0-1.69.049-4.332.095-7.468Z" transform="translate(0.8 56.558)" fill="#cbbe90"/>
          <path id="Pfad_1208" data-name="Pfad 1208" d="M35.193,21.467,34.48,27.2.6,28.394C.578,26.2.561,24.108.5,22.258Z" transform="translate(0.934 40.03)" fill="#cbbe90"/>
          <path id="Pfad_1209" data-name="Pfad 1209" d="M35.844,87.308,32.028,66.7,31,61.2,27.834,44.122c-.819-.011-1.659-.037-2.492-.054a5.314,5.314,0,0,0,2.475-.57c2.129-1.163,6.79-13.774,3.885-27.562S18.888-1.923,14.416.8s-6.583,12.622-2.7,25.233S22.586,43.7,22.586,43.7a10.233,10.233,0,0,0,2.26.358Q22.565,44,20.271,43.9L18.065,61.5l-.716,5.73-2.5,19.91-.885,6.987L11.7,112.264c14.49.3,22.36.158,28.731-.3l-3.4-18.306ZM18.888,20.591c5.048-4.655,9.319,19.8,6.4,21.153,0,0-11.448-16.492-6.4-21.153" transform="translate(18.062 0.001)" fill="#d11149"/>
          <path id="Pfad_1210" data-name="Pfad 1210" d="M24.471,26.251C18.776,18.229,12.562,2.957,11.01,3.215s.776,12.425-.258,13.459-6.99-3.621-8.285-3.621S1.433,15.9,7.388,25.477,34.045,37.641,34.045,37.641s-3.882-3.366-9.574-11.39" transform="translate(3.423 5.989)" fill="#d11149"/>
          <path id="Pfad_1211" data-name="Pfad 1211" d="M53.979,11.516c-.776-.776-8.8,3.624-8.8,3.624s4.14-9.058,2.068-9.838S30.943,30.927,16.963,33.256c0,0,13.98,1.556,23.3-5.434s14.5-15.533,13.719-16.306" transform="translate(31.632 9.855)" fill="#d11149"/>
          <path id="Pfad_1212" data-name="Pfad 1212" d="M16.969,38.777c.4-.324,6.9-5.715,10.468-8.912C31.118,26.558,39.661,15.887,38.108,8.7,36.553,1.523,32.3.357,28.213,5.4c-3.73,4.612-10.047,28.685-11.1,32.8-.092.338-.14.544-.14.573M29.193,21.525C31.522,25,21.026,33.17,21.026,33.17c.2-4.469,5.838-15.158,8.167-11.645" transform="translate(31.643 4.317)" fill="#d11149"/>
        </g>
      </g>
    </g>
    <g id="Gruppe_1904" data-name="Gruppe 1904" transform="translate(-177.59 -306.209)">
      <g id="Gruppe_334-2" data-name="Gruppe 334" transform="translate(0 0)">
        <g id="Gruppe_332-2" data-name="Gruppe 332" transform="translate(0 0)" clip-path="url(#clip-path-3)">
          <path id="Pfad_1199-2" data-name="Pfad 1199" d="M50.748,39.669c0,4.666,0,5.33-2,6.436s-11.768,1.121-19.537,2c-2.36.266-4.585.5-7.063.676L19.229,33.071l31.064-.637c.241,3.024.455,5.622.455,7.235" transform="translate(28.043 47.301)" fill="#f4b942"/>
          <path id="Pfad_1200-2" data-name="Pfad 1200" d="M52.506,41.944,20.761,41.7,17.484,24.019l35.022-1.241a29.094,29.094,0,0,1-.093,5.652,79.222,79.222,0,0,0,.093,13.514" transform="translate(25.498 33.219)" fill="#f4b942"/>
          <path id="Pfad_1201-2" data-name="Pfad 1201" d="M54.082,29.515l-35.344.8L16.021,15.655c.784.027,1.556.027,2.316.027,10,0,26.214-.455,31.32-.455s3.331,2,3.331,6.662a47.628,47.628,0,0,0,1.094,7.626" transform="translate(23.365 22.206)" fill="#f4b942"/>
          <path id="Pfad_1202-2" data-name="Pfad 1202" d="M53.028,25.314,18.006,26.556l-.88-4.718,35.344-.8a40.253,40.253,0,0,1,.558,4.275" transform="translate(24.976 30.682)" fill="#56b085"/>
          <path id="Pfad_1203-2" data-name="Pfad 1203" d="M50.894,35.288l-31.064.639-1.013-5.45,31.745.241c.106,1.571.226,3.115.332,4.57" transform="translate(27.442 44.447)" fill="#56b085"/>
          <path id="Pfad_1204-2" data-name="Pfad 1204" d="M32.751,15.859l-1.893,15.1L1.087,31.64a46.262,46.262,0,0,0-.4-5.573c-.214-1.33-.88-5.78-.44-7.995S7.8,14.957,13.573,14.957c4.145,0,11.6.57,19.178.9" transform="translate(0.145 21.813)" fill="#f4b942"/>
          <path id="Pfad_1205-2" data-name="Pfad 1205" d="M29.713,23.467,27.567,40.55l-27.1-.211C.542,35.678.65,29.7.635,24.495Z" transform="translate(0.675 34.223)" fill="#f4b942"/>
          <path id="Pfad_1206-2" data-name="Pfad 1206" d="M27.483,32.856,25.538,48.422q-.782-.022-1.6-.039c-19.323-.44-21.11-2.665-23.109-3.1-1.954-.44.15-5.8.226-11.874Z" transform="translate(0 47.916)" fill="#f4b942"/>
          <path id="Pfad_1207-2" data-name="Pfad 1207" d="M27.616,30.541l-.76,6L.429,37.086v-.347c0-1.45.042-3.717.081-6.409Z" transform="translate(0.626 44.232)" fill="#56b085"/>
          <path id="Pfad_1208-2" data-name="Pfad 1208" d="M30.272,21.467l-.612,4.917L.582,27.411C.567,25.531.553,23.734.5,22.146Z" transform="translate(0.731 31.307)" fill="#56b085"/>
          <path id="Pfad_1209-2" data-name="Pfad 1209" d="M32.133,74.923,28.859,57.24l-.88-4.718L25.26,37.863c-.7-.01-1.423-.032-2.139-.047a4.561,4.561,0,0,0,2.124-.489c1.827-1,5.826-11.82,3.334-23.652S17.582-1.65,13.745.683,8.1,11.514,11.427,22.336,20.756,37.5,20.756,37.5a8.782,8.782,0,0,0,1.94.307q-1.958-.048-3.926-.133l-1.893,15.1-.615,4.917L14.118,74.776l-.76,6L11.414,96.338c12.434.256,19.188.135,24.655-.256L33.149,80.373ZM17.582,17.67c4.332-3.995,8,16.992,5.492,18.153,0,0-9.824-14.153-5.492-18.153" transform="translate(14.126 0)" fill="#a52422"/>
          <path id="Pfad_1210-2" data-name="Pfad 1210" d="M21.26,22.982C16.373,16.1,11.041,2.993,9.708,3.215s.666,10.662-.221,11.549-6-3.107-7.11-3.107S1.49,14.1,6.6,22.319,29.476,32.757,29.476,32.757a59.624,59.624,0,0,1-8.216-9.775" transform="translate(2.677 4.684)" fill="#a52422"/>
          <path id="Pfad_1211-2" data-name="Pfad 1211" d="M48.728,10.632c-.666-.666-7.55,3.11-7.55,3.11S44.73,5.968,42.953,5.3,28.96,27.29,16.963,29.288c0,0,12,1.335,19.992-4.664S49.394,11.3,48.728,10.632" transform="translate(24.739 7.707)" fill="#a52422"/>
          <path id="Pfad_1212-2" data-name="Pfad 1212" d="M16.969,33.6c.347-.278,5.92-4.9,8.983-7.648,3.159-2.837,10.49-11.994,9.157-18.165S30.126.635,26.618,4.967C23.417,8.925,18,29.583,17.089,33.113c-.079.29-.12.467-.12.492m10.49-14.8c2,2.984-7.009,9.993-7.009,9.993.172-3.835,5.01-13.007,7.009-9.993" transform="translate(24.747 3.377)" fill="#a52422"/>
        </g>
      </g>
    </g>
    <g id="Layer_3" transform="translate(-266.021 -247.133)">
      <path id="Pfad_1042" data-name="Pfad 1042" d="M62.235,50.907,61.9,47.023l-.5-5.767-.357-3.979,40.82,3.789c-.214-3.789-.429-8.007-.62-12.01-.072-1.382-.119-2.74-.191-4.051l-6.243.048-11.7.1-13.178.1L60,25.315l-.667-7.578-.405-4.647v-.119L57.85.89c-1.692.048-3.527.1-5.457.119l-.167,9.77-.048,2.6-.071,4.647-.119,7.363-6.72.048L33.9,25.505l-14.226.1-12.344.1L.04,25.744c0,1.954.048,3.956.071,5.91L51.8,36.443,51.726,40.9l-.1,6.291-.048,3.717-.143,9.126-.1,5.647h3.67c1.644,0,3.265.048,4.814.071,1.239,0,2.454.048,3.646.071l-.31-3.5-1-11.414Z" transform="translate(0.049 1.223)" fill="#ef709d"/>
      <path id="Pfad_1043" data-name="Pfad 1043" d="M42.558,15.983l-13.178.1.334-7.959c4.48-.214,8.7-.429,12.51-.62l.357,8.507Z" transform="translate(40.625 10.364)" fill="#b8756a"/>
      <path id="Pfad_1044" data-name="Pfad 1044" d="M43.211,1.058l-.167,9.77L33.107,1.32l-14.3,12.8H17.046L6.68.82c3.36.024,6.887.1,10.1.191C24.028,1.225,34.465,1.225,43.211,1.058Z" transform="translate(9.232 1.126)" fill="#16262e"/>
      <path id="Pfad_1045" data-name="Pfad 1045" d="M56.443,3.212,47.65,11.1c-1.43.191-2.86.357-4.265.524L31.66,1.139C41.668.52,53.559-.171,54.918.043c.739.119,1.239,1.311,1.549,3.169Z" transform="translate(43.778 -0.003)" fill="#16262e"/>
      <path id="Pfad_1046" data-name="Pfad 1046" d="M66.569,21.831,25.987,20.139,25.63,16.16l40.82,3.789c.048.643.071,1.263.1,1.882Z" transform="translate(35.439 22.34)" fill="#f4b942"/>
      <path id="Pfad_1047" data-name="Pfad 1047" d="M66.415,24.524,40.56,24.476H26.334L26,20.568l40.224-.548c.1,1.787.167,3.312.214,4.48Z" transform="translate(35.951 27.678)" fill="#16262e"/>
      <path id="Pfad_1048" data-name="Pfad 1048" d="M46.808,16.271l-11.7.1L34.75,7.86c4.456-.238,8.364-.453,11.39-.62l.643,9.031Z" transform="translate(48.052 10.004)" fill="#4b3f72"/>
      <path id="Pfad_1049" data-name="Pfad 1049" d="M35.858,7.774l-.334,7.959-9.937.071L24.92,8.227c3.765-.167,7.435-.31,10.938-.477Z" transform="translate(34.457 10.71)" fill="#4b3f72"/>
      <path id="Pfad_1050" data-name="Pfad 1050" d="M46.427,16.445l-6.243.048L39.54,7.461c3.312-.191,5.624-.334,6.577-.381,0,2.335.143,5.671.31,9.365Z" transform="translate(54.676 9.783)" fill="#b8756a"/>
      <path id="Pfad_1051" data-name="Pfad 1051" d="M52.844,10.989C43.1,12.156,33.685,12.966,24.82,13.514L40.4.528c.238,0,.477-.048.715-.048Z" transform="translate(34.319 0.656)" fill="#4b3f72"/>
      <path id="Pfad_1052" data-name="Pfad 1052" d="M47.664,7.961q-4.683.715-9.294,1.287L47.163,1.36a51.688,51.688,0,0,1,.5,6.624Z" transform="translate(53.058 1.873)" fill="#4b3f72"/>
      <path id="Pfad_1053" data-name="Pfad 1053" d="M66.571,11.16c-.953.048-3.265.191-6.577.381-3.026.167-6.934.381-11.39.62-3.789.191-8.031.405-12.51.62-3.527.143-7.173.31-10.938.477l-.214-2.478L24.75,8.586V8.467h.167c8.841-.548,18.277-1.358,28.023-2.526,1.43-.167,2.836-.357,4.265-.524Q61.817,4.845,66.5,4.13c.048,1.93.071,4.051.071,6.2v.834Z" transform="translate(34.222 5.704)" fill="#f4b942"/>
      <path id="Pfad_1054" data-name="Pfad 1054" d="M25.869,8.084l-.119,7.363-6.72.048.667-7.22c2.073-.071,4.123-.119,6.172-.214Z" transform="translate(26.312 11.138)" fill="#4b3f72"/>
      <path id="Pfad_1055" data-name="Pfad 1055" d="M22.612,8.28l-.1,6.982-14.226.1.572-6.91c4.313,0,8.96-.071,13.75-.167Z" transform="translate(11.459 11.443)" fill="#4b3f72"/>
      <path id="Pfad_1056" data-name="Pfad 1056" d="M8.469,8.626,7.4,15.8l-7.292.048C.081,13.153.034,10.508.01,8.03c2.264.262,5.123.429,8.436.572Z" transform="translate(0.008 11.097)" fill="#4b3f72"/>
      <path id="Pfad_1057" data-name="Pfad 1057" d="M16.026,8.447l-.572,6.91-12.344.1L4.182,8.28c3.5.119,7.506.191,11.843.191Z" transform="translate(4.295 11.443)" fill="#b8756a"/>
      <path id="Pfad_1058" data-name="Pfad 1058" d="M26.294,8.15l-.667,7.22-11.367.071.1-6.982c3.908-.071,7.911-.191,11.939-.31Z" transform="translate(19.715 11.263)" fill="#b8756a"/>
      <path id="Pfad_1059" data-name="Pfad 1059" d="M25.786,14.14c-11.3.048-20.136-.262-25.426-.524l.286-.334L14.872.82h.548Z" transform="translate(0.492 1.126)" fill="#4b3f72"/>
      <path id="Pfad_1060" data-name="Pfad 1060" d="M36.015,10.548l-.048,2.6c-8.817.453-16.99.643-24.187.691l14.3-12.8,9.937,9.508Z" transform="translate(16.285 1.43)" fill="#4b3f72"/>
      <path id="Pfad_1061" data-name="Pfad 1061" d="M52.23,6.148V8.411l-.071,2.383-6.172.214c-4.027.119-8.031.238-11.939.31-4.79.1-9.436.167-13.75.167s-8.34-.071-11.843-.191c-3.312-.119-6.172-.31-8.436-.572V6.267c.262,0,.548.024.858.048h.1c.572.024,1.191.048,1.883.1H2.9c.691.024,1.43.048,2.192.1.572,0,1.191.048,1.835.071.643,0,1.334.048,2.049.071.453,0,.929.024,1.43.048h.143c.739,0,1.5.048,2.311.048.6,0,1.215,0,1.859.048h3.646c2.5.024,5.147.048,7.935.024h2.574c1.239,0,2.5,0,3.789-.048h.1c.739,0,1.5-.024,2.264-.048.906,0,1.835-.048,2.788-.071h.5l2.6-.071c1.239-.048,2.478-.071,3.717-.119h.119c1.191-.048,2.407-.1,3.646-.167,1.287-.048,2.574-.119,3.884-.191Z" transform="translate(0.022 8.428)" fill="#f4b942"/>
      <path id="Pfad_1062" data-name="Pfad 1062" d="M51.526,20.31l-.048,3.717H44.068L16.4,23.98H.15V21l51.376-.691Z" transform="translate(0.201 28.079)" fill="#16262e"/>
      <path id="Pfad_1063" data-name="Pfad 1063" d="M51.776,18.58,51.7,23.036.161,20.915C.138,18.7.114,16.268.09,13.79Z" transform="translate(0.119 19.062)" fill="#f4b942"/>
      <path id="Pfad_1064" data-name="Pfad 1064" d="M58.026,24.354l-9.77,13.892c-1.406-.1-2.86-.191-4.385-.286L32.1,21.9l25.855.048c.024.739.048,1.358.048,1.787v.643Z" transform="translate(44.387 30.278)" fill="#b8756a"/>
      <path id="Pfad_1065" data-name="Pfad 1065" d="M38.245,21.9,27.117,33.294,26.14,21.88Z" transform="translate(36.144 30.25)" fill="#b8756a"/>
      <path id="Pfad_1066" data-name="Pfad 1066" d="M51.571,37.937c-1.1-.071-2.192-.119-3.312-.191-6.005-.334-13.225-.739-21.4-.953l-.31-3.5,11.1-11.39H39.8L51.571,37.961Z" transform="translate(36.711 30.278)" fill="#4b3f72"/>
      <path id="Pfad_1067" data-name="Pfad 1067" d="M48.946,36c-.548,1.239-4.694,1.144-10.056.81L48.66,22.92c.1,4.551,1.072,11.366.286,13.082Z" transform="translate(53.777 31.688)" fill="#4b3f72"/>
      <path id="Pfad_1068" data-name="Pfad 1068" d="M25.134,21.87l-.143,9.15L19.2,21.87Z" transform="translate(26.547 30.236)" fill="#b8756a"/>
      <path id="Pfad_1069" data-name="Pfad 1069" d="M34.636,21.884,22.149,38.064c-1.263.119-2.5.238-3.646.357L6.97,21.86l27.666.048Z" transform="translate(9.633 30.222)" fill="#b8756a"/>
      <path id="Pfad_1070" data-name="Pfad 1070" d="M15.163,21.864,3.2,37.3H2.986L.2,27.011v-.048C.2,25.271.174,23.508.15,21.84H15.163Z" transform="translate(0.201 30.195)" fill="#b8756a"/>
      <path id="Pfad_1071" data-name="Pfad 1071" d="M.17,24.01,2.982,34.28c-1.6-.119-2.407-.262-2.526-1.072-.1-.739-.214-4.742-.262-9.2Z" transform="translate(0.229 33.195)" fill="#4b3f72"/>
      <path id="Pfad_1072" data-name="Pfad 1072" d="M26.151,38.411a57.722,57.722,0,0,1-8.888.357c-6.791-.5-10.342-.977-13.559-1.287-.882-.1-1.62-.143-2.264-.191L13.4,21.85h1.239L26.175,38.411Z" transform="translate(1.985 30.208)" fill="#4b3f72"/>
      <path id="Pfad_1073" data-name="Pfad 1073" d="M33.095,31.02,33,36.668c-6.934.024-13.773.786-19.659,1.382L25.827,21.87H27.3Z" transform="translate(18.443 30.236)" fill="#4b3f72"/>
      <path id="Pfad_1074" data-name="Pfad 1074" d="M51.663,18.9l-.1,6.291L.191,25.906c0-2.025-.024-5.29-.071-9.126l51.543,2.145Z" transform="translate(0.16 23.197)" fill="#4b3f72"/>
      <path id="Pfad_1075" data-name="Pfad 1075" d="M66.515,23.059l-40.224.548-.5-5.767,40.582,1.692c.048,1.263.119,2.431.167,3.551Z" transform="translate(35.66 24.663)" fill="#4b3f72"/>
      <path id="Pfad_1076" data-name="Pfad 1076" d="M41.124.514,25.539,13.477h-.191L24.3,1.4c2.478-.071,4.671-.167,6.41-.262C33.165.99,36.93.752,41.124.49Z" transform="translate(33.6 0.67)" fill="#16262e"/>
      <path id="Pfad_1077" data-name="Pfad 1077" d="M15.367.824,1.164,13.287l-.286.334C.592,13.6.306,13.573.02,13.573,0,9.808,0,6.9.02,5.709a24.882,24.882,0,0,0,.5-4.218C.425.944,7.384.777,15.367.824Z" transform="translate(-0.003 1.122)" fill="#16262e"/>
    </g>
  </g>
</svg>
