<svg xmlns="http://www.w3.org/2000/svg" xmlns:xlink="http://www.w3.org/1999/xlink" width="683" height="922.068" viewBox="0 0 683 922.068">
  <defs>
    <clipPath id="clip-path">
      <rect id="Rechteck_295" data-name="Rechteck 295" width="683" height="878.326" fill="none"/>
    </clipPath>
  </defs>
  <g id="baum3" transform="translate(602 1097.163)">
    <g id="baum3-2" data-name="baum3" transform="translate(-602 -1097.163)">
      <g id="Gruppe_1523" data-name="Gruppe 1523" clip-path="url(#clip-path)">
        <path id="Pfad_2387" data-name="Pfad 2387" d="M110.013,221.99Q96.462,346.713,85.489,471.628c23.911,1.189,47.9,1.336,71.826.433l-9.644-245.918c-.08-2.118-.235-4.4-1.8-6.048-1.877-1.978-5.169-2.4-8.146-2.56A117.82,117.82,0,0,0,112.95,218.8" transform="translate(201.081 405.683)" fill="#1b2845"/>
        <path id="Pfad_2388" data-name="Pfad 2388" d="M671.665,720.643c-3.047-.04-2.935-3.351-6.7-5.223-1.395-1.359-7.956-6.078-9.159-6.964,6.383-.817,1.279-3.493,6.19-4.256-38.187-18.073-78.1-75.588-101.725-107.331-5.092-6.842-9.644-13.1-13.811-18.9-2.28-17.8,9.865-13.822,21.108-16.341-7.549-2.583-12.53-7.642-17.776-13.079,10.271-.737,22.386-3.173,30.474-4.959-27.29-17.927-60.761-67.011-79.989-93.39-3.262-4.474-6.275-8.852-9.084-13.122-.469-2.766.2-6.848-.453-9.4,9.074,2.852,25.55,14.911,22.215-5.162,6.067.992,16.519,10.239,13.838-5.274,6.071.995,12.095,3.809,17.448,2.97-3.134-3.334-8.129-9.651-12.926-14.974a121.437,121.437,0,0,0,18.9-2.755,229.634,229.634,0,0,1-58.364-62.324c-12.772-19.841-25.4-39.912-35.275-55.987a16.51,16.51,0,0,1-.955-6.5c6.842.547,12.862,3.815,20.106,3.46-1.079-2.746-2.916-5.5-4-8.25,6.929-3.09,10.552,4.7,16.7,2.5-1.066-3.2-3.288-5.962-4.344-9.617,4.981-1.3,10.948,4.248,16.265,4.773a52.247,52.247,0,0,0-5.95-7.172c.04-.014.094-.009.134-.026-16.7-16.932-36.545-39.562-49.826-61.72-12.017-20.383-23.968-43.4-35.328-63.772-7.321-13.025-14.126-26.907-23.133-50.469-3.717-9.726-11.867-26.483-14.9-37.071-3.7-10.6-5.575-16.081-9.55-27.472C359.328,15.771,355.118,3.8,354.528,0l-.094.226c-14.263,44.449-34.973,83.433-54.965,122.72-11.055,22.7-28.332,53.212-42.3,71.222-13.871,17.884-28.791,35.274-45.509,47.353a54.279,54.279,0,0,1-10.623,4.251,24.957,24.957,0,0,0,7.029,6.464c-3.386,2.078-6.8,3.574-9.792,3.723,5.93,6.908,17.025,4.784,25.014,5.346-1.633,4.532-6.624,6.283-10.083,7.6,7.167,2.829,13.308,1.089,20.18.275-2.752,3.6-5.544,9.026-9.037,11.709-1.948,1.8-5,2.21-6.959,4.457a14.944,14.944,0,0,0,11.6,1.387c-5.216,8.221-10.358,16.124-15.215,23.255-15.936,23.376-40.256,61.869-58.88,78.333-4.013,3.54-10.14,3.44-14.736,4.271a33.411,33.411,0,0,0,14.927,8.353c5.34,7.071,14.86,5.151,21.946,5.171.077.072.161.138.245.206-2.4,4.414-6.2,7.954-9.285,11.491a81.132,81.132,0,0,0,21.125,1.373c-19.087,31.029-57.425,87.629-77.159,103.085-4.663,3.652-12.607,7.7-17.957,8.548a52.991,52.991,0,0,0,14.485,8.622c-4.626,3.414-10.17,4.9-14.763,7.542,10.087,8.333,25,5.8,37.564,5.977a51.231,51.231,0,0,1-11.81,16.224,40.34,40.34,0,0,0,13.03.889C102.77,606.14,77.927,668.5,52.786,682.613c-6.466,3.626-16.217,9.735-23.665,10.558,6.755,4.113,1.762,5.708,9.8,7.9-7.76,2.514-3.133,3.246-9.8,7.385C46.861,714.92,48.283,712,61.189,714c-1.586,2.712-15.882,12.126-18.232,14.826,18.842,8.447,46.323,6.091,65.447,2.709-.828,2.72-1.76,9.992-3.349,12.7,10.64,1.055,26.784-5.1,36.642-3.142,6.051,1.9,5.9,8.275,14.273,8.39,10.68-.768,7.137-11.741,16.057-2.514,5.2,5.532,1.984,12.77,8.793,14.685,3.795.96,14.6-5.263,17.689-7.043,19.231-7.934,19.188-6.111,34.859,7.756,1.609-3.62,5.481-6.3,7.857-9.906,12.577,15.648,16.318,18.428,32.526,9.545,12.356-7.114,26.7-1.459,34.772,11.4,7.026-7.186,9.416-11.706,18.534-10.672,6.835,1,13.492,9.287,20.391,7.559s9.393-10.795,17.773-10.68c6.848.092,15.014,9.3,22.627,9.408-1.029-20.951,26.066-6.928,36.662-4.05.087-3.64,1.74-9.081,1.063-12.733,16.734,1.141,32.489,11.365,50.024,10.695-.7-2.74.174-7.281-1.287-10.032,18.386-4.3,46.96,11.563,66.758,11.832-5.243-3.712-8.159-9.213-10.318-14.7,11.639-8.943,38.771,3.259,52.481,3.445-3.788-.963-6.728-5.552-10.425-10.156,11.531-4.394,26.609,2.181,38.794,2.348-2.239-1.852-2.94-4.592-4.418-6.432,10.006-4.414,24.236,5.79,34.966,3.208-2.2-3.675-2.853-8.235-4.291-11.9,9.2-2.606,19.037.258,28.178.384-2.222-2.76-3.64-7.332-5.119-9.172,1.706.023,3.993-.984,5.119-1.108,2.511-.263.314-.073,5.631,0" fill="#56b085" stroke="#fff" stroke-width="8"/>
        <path id="Pfad_2389" data-name="Pfad 2389" d="M392.024,451.029c-49.7,11.683-100.745,18.46-150.776,28.971-1.934.407-3.842.826-5.745,1.218q2.132-68.661,4.26-137.324c17.357-.588,34.366-4.523,51.241-7.983l70.261-14.4c13.988-2.866,9.654-16.516-4.284-13.661q-31.492,6.458-62.99,12.913c-17.471,3.583-35.613,8.628-53.778,8.654q2.052-66.76,4.143-133.523a17.741,17.741,0,0,0,1.75-.525q3.872-1.7,7.878-3.144c1.338-.482,2.685-.937,4.039-1.379q.87-.288,1.746-.559-1.428.447.613-.172c5.353-1.528,10.737-2.95,16.137-4.348l34.658-8.986c4.039-1.046,10.7-4.093,9.285-8.614-1.368-4.366-9.141-4.512-13.077-3.491l-35.921,9.313c-8.974,2.328-18.008,4.684-26.673,7.791Q246.7,120.4,248.653,59.025c.208-6.472-14.9-4.5-15.078,1.052q-1.936,60.736-3.768,121.476c-7.934-3.4-15.43-7.834-23.056-11.377-6.664-3.093-13.006-6.507-20.089-8.886-7.629-2.563-15.574-4.406-23.478-6.229-5.011-1.155-12.034.7-15.812,3.623-3.65,2.821-2.383,5.658,2.1,6.69a183.933,183.933,0,0,1,22.144,6.08c6.8,2.5,13.12,5.911,19.593,8.969,12.43,5.865,24.112,12.907,38.154,15.653q-2.052,66.025-4.1,132.053c-18.43-2.62-36.77-8.3-54.392-13.186q-29.918-8.285-59.235-18.015c-9.9-3.265-26.106,8.892-12.788,13.283q31.6,10.422,63.841,19.279c19.935,5.435,41.084,12.108,62.1,13.988q-2.142,69.611-4.321,139.224a34.831,34.831,0,0,1-3.634-.221c-7.127-1.043-14.2-3-21.165-4.578q-22.154-5-44.262-10.133-45.445-10.551-90.712-21.659c-7.029-1.723-26.21,7.229-13.727,10.288q48.944,12,98.083,23.367c23.954,5.535,49.829,14.647,75.088,13.507-.03.949-.06,1.9-.087,2.849q-1.941,62.34-3.922,124.674c-.208,6.472,14.9,4.495,15.078-1.055q2.046-64.18,3.982-128.361c53.239-9.889,107.272-18.58,159.789-30.926,13.325-3.13,10.519-12.595-2.953-9.428" transform="translate(100.77 102.601)" fill="#489470" opacity="0.81"/>
      </g>
    </g>
    <path id="Pfad_3735" data-name="Pfad 3735" d="M3089.949,848.4c-69.991-15.067,207.473-48.933,659.914,13.333C3748.238,867.067,3471.524,982.667,3089.949,848.4Z" transform="translate(-3668.863 -1088.164)" fill="#83b1c9" opacity="0.14"/>
  </g>
</svg>
