<svg xmlns="http://www.w3.org/2000/svg" xmlns:xlink="http://www.w3.org/1999/xlink" width="1920" height="1024" viewBox="0 0 1920 1024">
  <defs>
    <linearGradient id="linear-gradient" x1="0.5" x2="0.5" y2="1" gradientUnits="objectBoundingBox">
      <stop offset="0" stop-color="#fff"/>
      <stop offset="1" stop-color="gray"/>
    </linearGradient>
    <clipPath id="clip-path">
      <rect id="Rechteck_295" data-name="Rechteck 295" width="188.999" height="274.364" fill="#557896"/>
    </clipPath>
    <clipPath id="clip-path-2">
      <rect id="Rechteck_295-2" data-name="Rechteck 295" width="120.494" height="174.917" fill="#577b98"/>
    </clipPath>
    <clipPath id="clip-path-4">
      <rect id="Rechteck_295-4" data-name="Rechteck 295" width="106.341" height="154.371" fill="#6087a5"/>
    </clipPath>
    <clipPath id="clip-path-7">
      <rect id="Rechteck_295-7" data-name="Rechteck 295" width="75.822" height="110.068" fill="#6087a5"/>
    </clipPath>
    <clipPath id="clip-path-9">
      <rect id="Rechteck_176" data-name="Rechteck 176" width="83.492" height="317.796" fill="none"/>
    </clipPath>
    <clipPath id="clip-path-10">
      <rect id="Rechteck_176-2" data-name="Rechteck 176" width="54.394" height="207.04" fill="none"/>
    </clipPath>
    <clipPath id="clip-bg">
      <rect width="1920" height="1024"/>
    </clipPath>
  </defs>
  <g id="bg" clip-path="url(#clip-bg)">
    <rect width="1920" height="1024" fill="#fff"/>
    <rect id="Rechteck_294" data-name="Rechteck 294" width="1920" height="1024" fill="#648eb1"/>
    <rect id="Rechteck_303" data-name="Rechteck 303" width="1920" height="1024" opacity="0.37" fill="url(#linear-gradient)" style="mix-blend-mode: overlay;isolation: isolate"/>
    <path id="Pfad_3733" data-name="Pfad 3733" d="M-718.732,907.385-549,717.252l136,162.667,111.067-183.067L-181,854.185l125.333-13.467,188.4-213.2,136,189.333,123.6-176.933L539,809.652l311.067-9.733L993.135,592.852l132.533,247.867L-55.665,870.052-528.6,947.518l-178.667,22.133Z" transform="translate(771 -30.585)" fill="#486680" stroke="#707070" stroke-width="1" opacity="0"/>
    <path id="Pfad_3732" data-name="Pfad 3732" d="M1990,1058.705S3427.222,419.886,3977.856,918.5v237.362L2049.647,1354.451H1990Z" transform="translate(-1989.188 -330.451)" fill="#82b0c8"/>
    <g id="Gruppe_1536" data-name="Gruppe 1536" transform="translate(912.613 559.199)" opacity="0.59">
      <g id="Gruppe_1523" data-name="Gruppe 1523" clip-path="url(#clip-path)">
        <path id="Pfad_2387" data-name="Pfad 2387" d="M92.275,218.806q-3.75,38.96-6.786,77.98c6.617.372,13.254.417,19.876.135L102.7,220.1a3.011,3.011,0,0,0-.5-1.889,3.115,3.115,0,0,0-2.254-.8,28.934,28.934,0,0,0-6.857.394" transform="translate(-6.189 -22.739)" fill="#557896"/>
        <path id="Pfad_2388" data-name="Pfad 2388" d="M189,225.549c-.843-.013-4.16-2.623-5.2-3.208a10.673,10.673,0,0,0-1.074-1.039c1.766-.255,3.437-.53,4.8-.768-10.567-5.645-25.942-24.173-32.481-34.088-1.409-2.137-2.669-4.091-3.822-5.905-.631-5.559,2.73-4.318,5.841-5.1-2.089-.807-3.467-2.387-4.919-4.086a56.752,56.752,0,0,0,8.433-1.549c-7.552-5.6-16.814-20.932-22.134-29.173-.9-1.4-1.736-2.765-2.514-4.1-.13-.864.055-2.139-.125-2.938,2.511.891,7.07,4.658,6.147-1.613,1.679.31,4.571,3.2,3.829-1.648,1.68.311,3.347,1.19,4.828.928-.867-1.041-2.249-3.015-3.577-4.677a30.043,30.043,0,0,0,5.23-.86,69.028,69.028,0,0,1-16.15-19.468c-3.534-6.2-7.027-12.467-9.761-17.489a5.771,5.771,0,0,1-.264-2.029c1.893.171,3.559,1.192,5.564,1.081-.3-.858-.807-1.719-1.106-2.577,1.917-.965,2.92,1.467,4.621.782-.295-1-.91-1.862-1.2-3,1.378-.406,3.03,1.327,4.5,1.491a16.057,16.057,0,0,0-1.646-2.24c.011,0,.026,0,.037-.008A109.239,109.239,0,0,1,123.059,62.98c-3.325-6.367-6.632-13.556-9.776-19.921a117.473,117.473,0,0,1-6.4-15.765c-1.029-3.038-3.284-8.272-4.124-11.58-1.023-3.311-1.543-5.023-2.643-8.581C99.433,4.926,98.268,1.188,98.1,0l-.026.071C94.132,13.955,88.4,26.133,82.869,38.4,79.81,45.5,75.029,55.027,71.163,60.653,67.324,66.239,63.2,71.671,58.57,75.444a14.072,14.072,0,0,1-2.94,1.328,7.3,7.3,0,0,0,1.945,2.019,5.728,5.728,0,0,1-2.71,1.163c1.641,2.158,4.711,1.494,6.922,1.67C61.336,83.04,59.954,83.587,59,84c1.983.884,3.683.34,5.584.086-.762,1.126-1.534,2.82-2.5,3.658-.539.561-1.384.69-1.926,1.392a3.721,3.721,0,0,0,3.209.433c-1.443,2.568-2.866,5.037-4.21,7.264-4.41,7.3-11.14,19.326-16.293,24.469-1.11,1.106-2.806,1.074-4.078,1.334a9.014,9.014,0,0,0,4.131,2.609c1.478,2.209,4.112,1.609,6.073,1.615.021.022.045.043.068.064a20.88,20.88,0,0,1-2.569,3.59,19.947,19.947,0,0,0,5.846.429c-5.282,9.693-15.891,27.373-21.351,32.2a12.474,12.474,0,0,1-4.969,2.67,14.42,14.42,0,0,0,4.008,2.693c-1.28,1.066-2.814,1.53-4.085,2.356,2.791,2.6,6.918,1.813,10.395,1.867a16.071,16.071,0,0,1-3.268,5.068,9.927,9.927,0,0,0,3.606.278c-8.226,11.266-22.8,30.611-29.756,35.019a20.06,20.06,0,0,1-6.9,2.64A22.6,22.6,0,0,0,6.2,218.645,26.57,26.57,0,0,0,0,221.51c2.428,4.872,9.435,2.419,13.006,3.043-.439.847-.468,2.268-1.119,3.111,5.214,2.639,12.818,1.9,18.11.846a26.878,26.878,0,0,1-.927,3.967c2.944.329,7.412-1.592,10.14-.981,1.674.595,1.633,2.585,3.95,2.621,2.955-.24,1.975-3.668,4.443-.785,1.44,1.728.549,3.989,2.433,4.587,1.05.3,4.041-1.644,4.895-2.2,5.322-2.478,5.31-1.909,9.646,2.423.445-1.131,1.517-1.967,2.174-3.094,3.48,4.888,4.516,5.756,9,2.982,3.419-2.222,7.387-.456,9.622,3.56,1.944-2.245,2.606-3.657,5.129-3.334,1.891.313,3.734,2.9,5.643,2.361s2.6-3.372,4.918-3.336c1.9.029,4.155,2.906,6.261,2.939-.285-6.544,7.213-2.164,10.145-1.265.024-1.137.481-2.837.294-3.977,4.631.356,8.99,3.55,13.843,3.341-.193-.856.048-2.274-.356-3.134,5.088-1.343,12.995,3.612,18.473,3.7a9.765,9.765,0,0,1-2.855-4.593c3.221-2.794,10.729,1.018,14.523,1.076-1.048-.3-1.862-1.734-2.885-3.172,3.191-1.373,7.363.681,10.735.733a10.379,10.379,0,0,1-1.223-2.009c2.769-1.379,6.707,1.809,9.676,1a25.492,25.492,0,0,1-1.187-3.716c2.546-.814,5.268.081,7.8.12-.615-.862-1.007-2.29-1.416-2.865l6.111.094" fill="#557896"/>
        <path id="Pfad_2389" data-name="Pfad 2389" d="M139.467,178.689c-13.754,3.65-27.878,5.766-41.722,9.05-.535.127-1.063.258-1.59.381q.59-21.448,1.179-42.9c4.8-.184,9.51-1.413,14.179-2.494l19.442-4.5c3.871-.9,2.672-5.159-1.185-4.267L112.34,138c-4.835,1.119-9.855,2.7-14.881,2.7q.568-20.854,1.147-41.709a4.5,4.5,0,0,0,.484-.164q1.071-.531,2.18-.982c.37-.15.743-.293,1.118-.431q.241-.09.483-.175-.4.14.17-.054c1.481-.477,2.971-.921,4.465-1.358l9.59-2.807c1.118-.327,2.961-1.279,2.569-2.691-.378-1.364-2.53-1.409-3.619-1.091l-9.94,2.909c-2.483.727-4.983,1.463-7.381,2.434q.529-19.171,1.069-38.344c.058-2.022-4.123-1.4-4.172.329q-.536,18.972-1.043,37.946c-2.2-1.061-4.27-2.447-6.38-3.554a51.265,51.265,0,0,0-5.559-2.776,63.109,63.109,0,0,0-6.5-1.946,5.412,5.412,0,0,0-4.375,1.132c-1.01.881-.66,1.767.58,2.09a46.407,46.407,0,0,1,6.128,1.9c1.883.781,3.631,1.846,5.422,2.8,3.44,1.832,6.672,4.032,10.558,4.89q-.568,20.624-1.134,41.25c-5.1-.818-10.175-2.594-15.051-4.119q-8.279-2.588-16.392-5.628c-2.738-1.02-7.224,2.777-3.539,4.149q8.744,3.256,17.666,6.022c5.516,1.7,11.369,3.782,17.185,4.369q-.593,21.744-1.2,43.49a8.553,8.553,0,0,1-1.006-.069c-1.972-.326-3.928-.938-5.857-1.43Q79,185.522,72.883,183.919q-12.575-3.3-25.1-6.766c-1.945-.538-7.253,2.258-3.8,3.214q13.544,3.747,27.142,7.3c6.629,1.729,13.789,4.575,20.778,4.219-.008.3-.017.594-.024.89q-.537,19.473-1.085,38.945c-.058,2.022,4.123,1.4,4.172-.329q.566-20.048,1.1-40.1c14.732-3.089,29.684-5.8,44.217-9.66,3.687-.978,2.911-3.934-.817-2.945" transform="translate(-3.102 -5.751)" fill="#557896"/>
      </g>
    </g>
    <g id="Gruppe_1538" data-name="Gruppe 1538" transform="translate(807.902 667.666)" opacity="0.59">
      <g id="Gruppe_1523-2" data-name="Gruppe 1523" clip-path="url(#clip-path-2)">
        <path id="Pfad_2387-2" data-name="Pfad 2387" d="M89.816,218.282Q87.425,243.12,85.489,268c4.218.237,8.45.266,12.671.086l-1.7-48.974a1.92,1.92,0,0,0-.317-1.2,1.986,1.986,0,0,0-1.437-.51,18.446,18.446,0,0,0-4.371.251" transform="translate(-34.933 -93.282)" fill="#577b98"/>
        <path id="Pfad_2388-2" data-name="Pfad 2388" d="M120.494,143.8c-.538-.008-2.652-1.673-3.317-2.045a6.805,6.805,0,0,0-.685-.662c1.126-.163,2.191-.338,3.057-.49-6.737-3.6-16.539-15.411-20.708-21.732-.9-1.363-1.7-2.608-2.436-3.765-.4-3.544,1.74-2.753,3.724-3.254a8.079,8.079,0,0,1-3.136-2.6,36.181,36.181,0,0,0,5.376-.988c-4.814-3.57-10.719-13.345-14.111-18.6-.575-.891-1.107-1.763-1.6-2.613-.083-.551.035-1.364-.08-1.873,1.6.568,4.507,2.97,3.919-1.028,1.07.2,2.914,2.039,2.441-1.05,1.071.2,2.134.759,3.078.591-.553-.664-1.434-1.922-2.28-2.982a19.154,19.154,0,0,0,3.334-.549,44.008,44.008,0,0,1-10.3-12.412c-2.253-3.951-4.48-7.948-6.223-11.15a3.679,3.679,0,0,1-.169-1.294c1.207.109,2.269.76,3.547.689-.19-.547-.515-1.1-.7-1.643,1.222-.615,1.862.935,2.946.5-.188-.638-.58-1.187-.766-1.915.879-.259,1.931.846,2.869.95a10.237,10.237,0,0,0-1.05-1.428c.007,0,.017,0,.024-.005a69.644,69.644,0,0,1-8.79-12.291c-2.12-4.059-4.228-8.643-6.233-12.7A74.893,74.893,0,0,1,68.141,17.4c-.656-1.937-2.093-5.274-2.629-7.383-.652-2.111-.983-3.2-1.685-5.471C63.392,3.141,62.649.758,62.545,0l-.017.045c-2.516,8.852-6.17,16.615-9.7,24.439a96.282,96.282,0,0,1-7.463,14.184A45.343,45.343,0,0,1,37.34,48.1a8.972,8.972,0,0,1-1.874.847,4.651,4.651,0,0,0,1.24,1.287,3.652,3.652,0,0,1-1.727.742c1.046,1.376,3,.953,4.413,1.065a2.736,2.736,0,0,1-1.779,1.514c1.264.563,2.348.217,3.56.055a12.622,12.622,0,0,1-1.594,2.332c-.344.358-.882.44-1.228.888A2.373,2.373,0,0,0,40.4,57.1c-.92,1.637-1.827,3.211-2.684,4.631-2.811,4.655-7.1,12.321-10.388,15.6a4.679,4.679,0,0,1-2.6.851,5.747,5.747,0,0,0,2.633,1.663c.942,1.408,2.622,1.026,3.872,1.03.014.014.028.027.043.041a13.312,13.312,0,0,1-1.638,2.288,12.717,12.717,0,0,0,3.727.273C29.995,89.66,23.231,100.932,19.75,104.01a7.952,7.952,0,0,1-3.168,1.7,9.194,9.194,0,0,0,2.555,1.717,23.181,23.181,0,0,1-2.6,1.5c1.779,1.659,4.41,1.156,6.627,1.19a10.246,10.246,0,0,1-2.083,3.231,6.329,6.329,0,0,0,2.3.177C18.13,120.712,8.839,133.045,4.4,135.855A12.789,12.789,0,0,1,0,137.538a14.408,14.408,0,0,0,3.947,1.856A16.94,16.94,0,0,0,0,141.22c1.548,3.106,6.015,1.542,8.292,1.94-.28.54-.3,1.446-.713,1.984,3.324,1.682,8.172,1.213,11.546.539a17.136,17.136,0,0,1-.591,2.529c1.877.21,4.725-1.015,6.464-.626,1.067.379,1.041,1.648,2.518,1.671,1.884-.153,1.259-2.338,2.833-.5.918,1.1.35,2.543,1.551,2.924.669.191,2.576-1.048,3.121-1.4,3.393-1.58,3.385-1.217,6.15,1.545a17.3,17.3,0,0,1,1.386-1.973c2.219,3.116,2.879,3.67,5.738,1.9,2.18-1.417,4.71-.291,6.134,2.27,1.24-1.431,1.661-2.331,3.27-2.125,1.206.2,2.38,1.85,3.6,1.505s1.657-2.15,3.135-2.127c1.208.018,2.649,1.853,3.992,1.873-.182-4.172,4.6-1.38,6.468-.807a16.03,16.03,0,0,0,.187-2.536c2.952.227,5.732,2.263,8.825,2.13a10.1,10.1,0,0,0-.227-2c3.244-.856,8.285,2.3,11.777,2.356a6.226,6.226,0,0,1-1.82-2.928c2.053-1.781,6.84.649,9.259.686-.668-.192-1.187-1.106-1.839-2.022,2.034-.875,4.694.434,6.844.468a6.617,6.617,0,0,1-.779-1.281c1.765-.879,4.276,1.153,6.169.639a16.251,16.251,0,0,1-.757-2.369c1.623-.519,3.358.051,4.971.076-.392-.55-.642-1.46-.9-1.827l3.9.06" fill="#577b98"/>
        <path id="Pfad_2389-2" data-name="Pfad 2389" d="M104.444,133.846c-8.768,2.327-17.773,3.676-26.6,5.769-.341.081-.678.164-1.014.243q.376-13.674.752-27.348a48.686,48.686,0,0,0,9.04-1.59l12.4-2.868c2.468-.571,1.7-3.289-.756-2.721L87.149,107.9c-3.082.714-6.283,1.718-9.487,1.723q.362-13.3.731-26.591a2.869,2.869,0,0,0,.309-.1q.683-.338,1.39-.626c.236-.1.474-.187.713-.275q.153-.057.308-.111-.252.089.108-.034c.944-.3,1.894-.587,2.847-.866l6.114-1.79c.713-.208,1.888-.815,1.638-1.715-.241-.869-1.613-.9-2.307-.7l-6.337,1.855c-1.583.464-3.177.933-4.706,1.552q.337-12.222.681-24.446c.037-1.289-2.629-.9-2.66.209q-.342,12.1-.665,24.192c-1.4-.676-2.722-1.56-4.067-2.266a32.683,32.683,0,0,0-3.544-1.77,40.233,40.233,0,0,0-4.142-1.24,3.451,3.451,0,0,0-2.79.722c-.644.562-.42,1.127.37,1.332a29.585,29.585,0,0,1,3.907,1.211c1.2.5,2.315,1.177,3.457,1.786,2.193,1.168,4.254,2.57,6.731,3.117q-.362,13.149-.723,26.3a69.98,69.98,0,0,1-9.6-2.626q-5.278-1.65-10.45-3.588c-1.746-.65-4.606,1.771-2.256,2.645q5.574,2.076,11.263,3.839c3.517,1.082,7.248,2.411,10.956,2.786q-.378,13.863-.762,27.726a5.454,5.454,0,0,1-.641-.044c-1.257-.208-2.5-.6-3.734-.912q-3.908-1-7.809-2.018-8.017-2.1-16-4.313c-1.24-.343-4.624,1.44-2.422,2.049q8.635,2.389,17.3,4.653c4.226,1.1,8.791,2.917,13.247,2.69-.005.189-.011.378-.015.567q-.342,12.415-.692,24.829c-.037,1.289,2.629.9,2.66-.21q.361-12.781.7-25.563c9.392-1.969,18.925-3.7,28.19-6.159,2.351-.623,1.856-2.508-.521-1.877" transform="translate(-17.506 -23.592)" fill="#577b98"/>
      </g>
    </g>
    <g id="Gruppe_1789" data-name="Gruppe 1789" transform="translate(1799.506 639.666)" opacity="0.59">
      <g id="Gruppe_1523-3" data-name="Gruppe 1523" clip-path="url(#clip-path-2)">
        <path id="Pfad_2387-3" data-name="Pfad 2387" d="M89.816,218.282Q87.425,243.12,85.489,268c4.218.237,8.45.266,12.671.086l-1.7-48.974a1.92,1.92,0,0,0-.317-1.2,1.986,1.986,0,0,0-1.437-.51,18.446,18.446,0,0,0-4.371.251" transform="translate(-34.933 -93.282)" fill="#577b98"/>
        <path id="Pfad_2388-3" data-name="Pfad 2388" d="M120.494,143.8c-.538-.008-2.652-1.673-3.317-2.045a6.805,6.805,0,0,0-.685-.662c1.126-.163,2.191-.338,3.057-.49-6.737-3.6-16.539-15.411-20.708-21.732-.9-1.363-1.7-2.608-2.436-3.765-.4-3.544,1.74-2.753,3.724-3.254a8.079,8.079,0,0,1-3.136-2.6,36.181,36.181,0,0,0,5.376-.988c-4.814-3.57-10.719-13.345-14.111-18.6-.575-.891-1.107-1.763-1.6-2.613-.083-.551.035-1.364-.08-1.873,1.6.568,4.507,2.97,3.919-1.028,1.07.2,2.914,2.039,2.441-1.05,1.071.2,2.134.759,3.078.591-.553-.664-1.434-1.922-2.28-2.982a19.154,19.154,0,0,0,3.334-.549,44.008,44.008,0,0,1-10.3-12.412c-2.253-3.951-4.48-7.948-6.223-11.15a3.679,3.679,0,0,1-.169-1.294c1.207.109,2.269.76,3.547.689-.19-.547-.515-1.1-.7-1.643,1.222-.615,1.862.935,2.946.5-.188-.638-.58-1.187-.766-1.915.879-.259,1.931.846,2.869.95a10.237,10.237,0,0,0-1.05-1.428c.007,0,.017,0,.024-.005a69.644,69.644,0,0,1-8.79-12.291c-2.12-4.059-4.228-8.643-6.233-12.7A74.893,74.893,0,0,1,68.141,17.4c-.656-1.937-2.093-5.274-2.629-7.383-.652-2.111-.983-3.2-1.685-5.471C63.392,3.141,62.649.758,62.545,0l-.017.045c-2.516,8.852-6.17,16.615-9.7,24.439a96.282,96.282,0,0,1-7.463,14.184A45.343,45.343,0,0,1,37.34,48.1a8.972,8.972,0,0,1-1.874.847,4.651,4.651,0,0,0,1.24,1.287,3.652,3.652,0,0,1-1.727.742c1.046,1.376,3,.953,4.413,1.065a2.736,2.736,0,0,1-1.779,1.514c1.264.563,2.348.217,3.56.055a12.622,12.622,0,0,1-1.594,2.332c-.344.358-.882.44-1.228.888A2.373,2.373,0,0,0,40.4,57.1c-.92,1.637-1.827,3.211-2.684,4.631-2.811,4.655-7.1,12.321-10.388,15.6a4.679,4.679,0,0,1-2.6.851,5.747,5.747,0,0,0,2.633,1.663c.942,1.408,2.622,1.026,3.872,1.03.014.014.028.027.043.041a13.312,13.312,0,0,1-1.638,2.288,12.717,12.717,0,0,0,3.727.273C29.995,89.66,23.231,100.932,19.75,104.01a7.952,7.952,0,0,1-3.168,1.7,9.194,9.194,0,0,0,2.555,1.717,23.181,23.181,0,0,1-2.6,1.5c1.779,1.659,4.41,1.156,6.627,1.19a10.246,10.246,0,0,1-2.083,3.231,6.329,6.329,0,0,0,2.3.177C18.13,120.712,8.839,133.045,4.4,135.855A12.789,12.789,0,0,1,0,137.538a14.408,14.408,0,0,0,3.947,1.856A16.94,16.94,0,0,0,0,141.22c1.548,3.106,6.015,1.542,8.292,1.94-.28.54-.3,1.446-.713,1.984,3.324,1.682,8.172,1.213,11.546.539a17.136,17.136,0,0,1-.591,2.529c1.877.21,4.725-1.015,6.464-.626,1.067.379,1.041,1.648,2.518,1.671,1.884-.153,1.259-2.338,2.833-.5.918,1.1.35,2.543,1.551,2.924.669.191,2.576-1.048,3.121-1.4,3.393-1.58,3.385-1.217,6.15,1.545a17.3,17.3,0,0,1,1.386-1.973c2.219,3.116,2.879,3.67,5.738,1.9,2.18-1.417,4.71-.291,6.134,2.27,1.24-1.431,1.661-2.331,3.27-2.125,1.206.2,2.38,1.85,3.6,1.505s1.657-2.15,3.135-2.127c1.208.018,2.649,1.853,3.992,1.873-.182-4.172,4.6-1.38,6.468-.807a16.03,16.03,0,0,0,.187-2.536c2.952.227,5.732,2.263,8.825,2.13a10.1,10.1,0,0,0-.227-2c3.244-.856,8.285,2.3,11.777,2.356a6.226,6.226,0,0,1-1.82-2.928c2.053-1.781,6.84.649,9.259.686-.668-.192-1.187-1.106-1.839-2.022,2.034-.875,4.694.434,6.844.468a6.617,6.617,0,0,1-.779-1.281c1.765-.879,4.276,1.153,6.169.639a16.251,16.251,0,0,1-.757-2.369c1.623-.519,3.358.051,4.971.076-.392-.55-.642-1.46-.9-1.827l3.9.06" fill="#577b98"/>
        <path id="Pfad_2389-3" data-name="Pfad 2389" d="M104.444,133.846c-8.768,2.327-17.773,3.676-26.6,5.769-.341.081-.678.164-1.014.243q.376-13.674.752-27.348a48.686,48.686,0,0,0,9.04-1.59l12.4-2.868c2.468-.571,1.7-3.289-.756-2.721L87.149,107.9c-3.082.714-6.283,1.718-9.487,1.723q.362-13.3.731-26.591a2.869,2.869,0,0,0,.309-.1q.683-.338,1.39-.626c.236-.1.474-.187.713-.275q.153-.057.308-.111-.252.089.108-.034c.944-.3,1.894-.587,2.847-.866l6.114-1.79c.713-.208,1.888-.815,1.638-1.715-.241-.869-1.613-.9-2.307-.7l-6.337,1.855c-1.583.464-3.177.933-4.706,1.552q.337-12.222.681-24.446c.037-1.289-2.629-.9-2.66.209q-.342,12.1-.665,24.192c-1.4-.676-2.722-1.56-4.067-2.266a32.683,32.683,0,0,0-3.544-1.77,40.233,40.233,0,0,0-4.142-1.24,3.451,3.451,0,0,0-2.79.722c-.644.562-.42,1.127.37,1.332a29.585,29.585,0,0,1,3.907,1.211c1.2.5,2.315,1.177,3.457,1.786,2.193,1.168,4.254,2.57,6.731,3.117q-.362,13.149-.723,26.3a69.98,69.98,0,0,1-9.6-2.626q-5.278-1.65-10.45-3.588c-1.746-.65-4.606,1.771-2.256,2.645q5.574,2.076,11.263,3.839c3.517,1.082,7.248,2.411,10.956,2.786q-.378,13.863-.762,27.726a5.454,5.454,0,0,1-.641-.044c-1.257-.208-2.5-.6-3.734-.912q-3.908-1-7.809-2.018-8.017-2.1-16-4.313c-1.24-.343-4.624,1.44-2.422,2.049q8.635,2.389,17.3,4.653c4.226,1.1,8.791,2.917,13.247,2.69-.005.189-.011.378-.015.567q-.342,12.415-.692,24.829c-.037,1.289,2.629.9,2.66-.21q.361-12.781.7-25.563c9.392-1.969,18.925-3.7,28.19-6.159,2.351-.623,1.856-2.508-.521-1.877" transform="translate(-17.506 -23.592)" fill="#577b98"/>
      </g>
    </g>
    <g id="Gruppe_1790" data-name="Gruppe 1790" transform="translate(1655.506 653.29)" opacity="0.59">
      <g id="Gruppe_1523-4" data-name="Gruppe 1523" clip-path="url(#clip-path-4)">
        <path id="Pfad_2387-4" data-name="Pfad 2387" d="M89.307,218.173q-2.11,21.921-3.818,43.876c3.723.209,7.457.235,11.183.076l-1.5-43.222a1.694,1.694,0,0,0-.28-1.063,1.753,1.753,0,0,0-1.268-.45,16.28,16.28,0,0,0-3.858.222" transform="translate(-40.871 -107.856)" fill="#6087a5"/>
        <path id="Pfad_2388-4" data-name="Pfad 2388" d="M106.341,126.905c-.474-.007-2.341-1.476-2.927-1.805a6,6,0,0,0-.6-.584c.994-.144,1.934-.3,2.7-.432-5.946-3.176-14.6-13.6-18.275-19.18-.793-1.2-1.5-2.3-2.15-3.322-.355-3.128,1.536-2.429,3.286-2.872a7.13,7.13,0,0,1-2.768-2.3,31.931,31.931,0,0,0,4.745-.872c-4.249-3.151-9.46-11.778-12.454-16.414-.508-.786-.977-1.556-1.414-2.306-.073-.486.031-1.2-.07-1.653,1.413.5,3.978,2.621,3.459-.907.945.174,2.572,1.8,2.154-.927a8.667,8.667,0,0,0,2.717.522c-.488-.586-1.266-1.7-2.013-2.632a16.9,16.9,0,0,0,2.943-.484,38.839,38.839,0,0,1-9.087-10.954c-1.988-3.487-3.954-7.015-5.492-9.84a3.247,3.247,0,0,1-.149-1.142c1.065.1,2,.671,3.13.608-.168-.483-.454-.967-.622-1.45,1.079-.543,1.643.825,2.6.44-.166-.563-.512-1.048-.676-1.69.776-.228,1.7.747,2.532.839a9.034,9.034,0,0,0-.926-1.26c.006,0,.015,0,.021,0a61.463,61.463,0,0,1-7.758-10.848c-1.871-3.582-3.732-7.627-5.5-11.208a66.1,66.1,0,0,1-3.6-8.87c-.579-1.709-1.848-4.655-2.32-6.516-.576-1.863-.868-2.826-1.487-4.828C55.946,2.772,55.291.669,55.2,0l-.015.04C52.963,7.852,49.739,14.7,46.626,21.609A84.973,84.973,0,0,1,40.04,34.126a40.017,40.017,0,0,1-7.086,8.323A7.918,7.918,0,0,1,31.3,43.2a4.1,4.1,0,0,0,1.094,1.136,3.223,3.223,0,0,1-1.525.654c.923,1.214,2.651.841,3.895.94a2.415,2.415,0,0,1-1.57,1.336,5.265,5.265,0,0,0,3.142.048,11.14,11.14,0,0,1-1.407,2.058c-.3.316-.779.388-1.083.783a2.094,2.094,0,0,0,1.805.244c-.812,1.445-1.613,2.834-2.369,4.087C30.8,58.591,27.015,65.357,24.115,68.25A4.13,4.13,0,0,1,21.821,69a5.072,5.072,0,0,0,2.324,1.468c.831,1.243,2.314.905,3.417.909.012.013.025.024.038.036a11.749,11.749,0,0,1-1.446,2.02,11.223,11.223,0,0,0,3.289.241c-2.972,5.454-8.941,15.4-12.013,18.118a7.018,7.018,0,0,1-2.8,1.5,8.114,8.114,0,0,0,2.255,1.515,20.459,20.459,0,0,1-2.3,1.325c1.57,1.465,3.892,1.02,5.849,1.05a9.042,9.042,0,0,1-1.839,2.851,5.586,5.586,0,0,0,2.029.156C16,106.533,7.8,117.417,3.887,119.9A11.287,11.287,0,0,1,0,121.383a12.716,12.716,0,0,0,3.484,1.638A14.95,14.95,0,0,0,0,124.633c1.366,2.741,5.308,1.361,7.318,1.712-.247.477-.264,1.276-.629,1.751,2.934,1.485,7.212,1.071,10.19.476a15.123,15.123,0,0,1-.521,2.232c1.657.185,4.17-.9,5.705-.552.942.335.919,1.454,2.222,1.475,1.663-.135,1.111-2.064,2.5-.442.81.972.309,2.244,1.369,2.581.591.169,2.273-.925,2.754-1.238,2.994-1.395,2.987-1.074,5.427,1.363a15.264,15.264,0,0,1,1.223-1.741c1.958,2.75,2.541,3.239,5.064,1.678,1.924-1.25,4.157-.256,5.414,2,1.094-1.263,1.466-2.057,2.886-1.876,1.064.176,2.1,1.632,3.175,1.328s1.462-1.9,2.767-1.877c1.066.016,2.338,1.635,3.523,1.653-.16-3.682,4.058-1.218,5.708-.712a14.148,14.148,0,0,0,.165-2.238c2.605.2,5.058,2,7.789,1.88a8.915,8.915,0,0,0-.2-1.763c2.863-.756,7.312,2.032,10.394,2.08a5.5,5.5,0,0,1-1.606-2.584c1.812-1.572,6.036.573,8.171.606-.59-.169-1.047-.976-1.623-1.785,1.8-.772,4.143.383,6.04.413a5.84,5.84,0,0,1-.688-1.131c1.558-.776,3.773,1.018,5.444.564a14.342,14.342,0,0,1-.668-2.091c1.433-.458,2.964.045,4.387.068-.346-.485-.567-1.289-.8-1.612l3.438.053" fill="#6087a5"/>
        <path id="Pfad_2389-4" data-name="Pfad 2389" d="M97.208,124.582c-7.738,2.053-15.686,3.244-23.475,5.092-.3.072-.6.145-.895.214q.332-12.068.663-24.136a42.966,42.966,0,0,0,7.978-1.4l10.939-2.532c2.178-.5,1.5-2.9-.667-2.4l-9.807,2.27c-2.72.63-5.545,1.516-8.373,1.521q.319-11.734.645-23.468a2.532,2.532,0,0,0,.272-.092q.6-.3,1.226-.553c.208-.085.418-.165.629-.242q.135-.051.272-.1-.222.079.1-.03c.833-.269,1.672-.518,2.512-.764l5.4-1.579c.629-.184,1.666-.719,1.446-1.514-.213-.767-1.423-.793-2.036-.614l-5.593,1.637c-1.4.409-2.8.823-4.153,1.369q.3-10.787.6-21.574c.032-1.138-2.32-.79-2.348.185q-.3,10.675-.587,21.35c-1.235-.6-2.4-1.377-3.59-2a28.845,28.845,0,0,0-3.128-1.562,35.508,35.508,0,0,0-3.655-1.095,3.045,3.045,0,0,0-2.462.637c-.568.5-.371.994.326,1.176a26.109,26.109,0,0,1,3.448,1.069c1.059.439,2.043,1.039,3.051,1.576,1.935,1.031,3.754,2.269,5.94,2.751q-.319,11.6-.638,23.209a61.761,61.761,0,0,1-8.469-2.317q-4.658-1.456-9.223-3.166c-1.541-.574-4.065,1.563-1.991,2.335q4.92,1.832,9.94,3.388a51.4,51.4,0,0,0,9.669,2.458q-.334,12.235-.673,24.47a4.81,4.81,0,0,1-.566-.039c-1.11-.183-2.21-.528-3.3-.8q-3.449-.879-6.891-1.781-7.076-1.854-14.124-3.807c-1.094-.3-4.081,1.271-2.137,1.808q7.62,2.108,15.271,4.107c3.73.973,7.758,2.574,11.691,2.374,0,.167-.009.334-.014.5q-.3,10.957-.611,21.912c-.032,1.138,2.32.79,2.348-.185q.319-11.28.62-22.56c8.289-1.738,16.7-3.266,24.879-5.435,2.075-.55,1.638-2.214-.46-1.657" transform="translate(-20.482 -27.278)" fill="#6087a5"/>
      </g>
    </g>
    <g id="Gruppe_1542" data-name="Gruppe 1542" transform="translate(208.902 744.749)" opacity="0.59">
      <g id="Gruppe_1523-5" data-name="Gruppe 1523" clip-path="url(#clip-path-2)">
        <path id="Pfad_2387-5" data-name="Pfad 2387" d="M89.816,218.282Q87.425,243.12,85.489,268c4.218.237,8.45.266,12.671.086l-1.7-48.974a1.92,1.92,0,0,0-.317-1.2,1.986,1.986,0,0,0-1.437-.51,18.446,18.446,0,0,0-4.371.251" transform="translate(-34.933 -93.282)" fill="#577b98"/>
        <path id="Pfad_2388-5" data-name="Pfad 2388" d="M120.494,143.8c-.538-.008-2.652-1.673-3.317-2.045a6.805,6.805,0,0,0-.685-.662c1.126-.163,2.191-.338,3.057-.49-6.737-3.6-16.539-15.411-20.708-21.732-.9-1.363-1.7-2.608-2.436-3.765-.4-3.544,1.74-2.753,3.724-3.254a8.079,8.079,0,0,1-3.136-2.6,36.181,36.181,0,0,0,5.376-.988c-4.814-3.57-10.719-13.345-14.111-18.6-.575-.891-1.107-1.763-1.6-2.613-.083-.551.035-1.364-.08-1.873,1.6.568,4.507,2.97,3.919-1.028,1.07.2,2.914,2.039,2.441-1.05,1.071.2,2.134.759,3.078.591-.553-.664-1.434-1.922-2.28-2.982a19.154,19.154,0,0,0,3.334-.549,44.008,44.008,0,0,1-10.3-12.412c-2.253-3.951-4.48-7.948-6.223-11.15a3.679,3.679,0,0,1-.169-1.294c1.207.109,2.269.76,3.547.689-.19-.547-.515-1.1-.7-1.643,1.222-.615,1.862.935,2.946.5-.188-.638-.58-1.187-.766-1.915.879-.259,1.931.846,2.869.95a10.237,10.237,0,0,0-1.05-1.428c.007,0,.017,0,.024-.005a69.644,69.644,0,0,1-8.79-12.291c-2.12-4.059-4.228-8.643-6.233-12.7A74.893,74.893,0,0,1,68.141,17.4c-.656-1.937-2.093-5.274-2.629-7.383-.652-2.111-.983-3.2-1.685-5.471C63.392,3.141,62.649.758,62.545,0l-.017.045c-2.516,8.852-6.17,16.615-9.7,24.439a96.282,96.282,0,0,1-7.463,14.184A45.343,45.343,0,0,1,37.34,48.1a8.972,8.972,0,0,1-1.874.847,4.651,4.651,0,0,0,1.24,1.287,3.652,3.652,0,0,1-1.727.742c1.046,1.376,3,.953,4.413,1.065a2.736,2.736,0,0,1-1.779,1.514c1.264.563,2.348.217,3.56.055a12.622,12.622,0,0,1-1.594,2.332c-.344.358-.882.44-1.228.888A2.373,2.373,0,0,0,40.4,57.1c-.92,1.637-1.827,3.211-2.684,4.631-2.811,4.655-7.1,12.321-10.388,15.6a4.679,4.679,0,0,1-2.6.851,5.747,5.747,0,0,0,2.633,1.663c.942,1.408,2.622,1.026,3.872,1.03.014.014.028.027.043.041a13.312,13.312,0,0,1-1.638,2.288,12.717,12.717,0,0,0,3.727.273C29.995,89.66,23.231,100.932,19.75,104.01a7.952,7.952,0,0,1-3.168,1.7,9.194,9.194,0,0,0,2.555,1.717,23.181,23.181,0,0,1-2.6,1.5c1.779,1.659,4.41,1.156,6.627,1.19a10.246,10.246,0,0,1-2.083,3.231,6.329,6.329,0,0,0,2.3.177C18.13,120.712,8.839,133.045,4.4,135.855A12.789,12.789,0,0,1,0,137.538a14.408,14.408,0,0,0,3.947,1.856A16.94,16.94,0,0,0,0,141.22c1.548,3.106,6.015,1.542,8.292,1.94-.28.54-.3,1.446-.713,1.984,3.324,1.682,8.172,1.213,11.546.539a17.136,17.136,0,0,1-.591,2.529c1.877.21,4.725-1.015,6.464-.626,1.067.379,1.041,1.648,2.518,1.671,1.884-.153,1.259-2.338,2.833-.5.918,1.1.35,2.543,1.551,2.924.669.191,2.576-1.048,3.121-1.4,3.393-1.58,3.385-1.217,6.15,1.545a17.3,17.3,0,0,1,1.386-1.973c2.219,3.116,2.879,3.67,5.738,1.9,2.18-1.417,4.71-.291,6.134,2.27,1.24-1.431,1.661-2.331,3.27-2.125,1.206.2,2.38,1.85,3.6,1.505s1.657-2.15,3.135-2.127c1.208.018,2.649,1.853,3.992,1.873-.182-4.172,4.6-1.38,6.468-.807a16.03,16.03,0,0,0,.187-2.536c2.952.227,5.732,2.263,8.825,2.13a10.1,10.1,0,0,0-.227-2c3.244-.856,8.285,2.3,11.777,2.356a6.226,6.226,0,0,1-1.82-2.928c2.053-1.781,6.84.649,9.259.686-.668-.192-1.187-1.106-1.839-2.022,2.034-.875,4.694.434,6.844.468a6.617,6.617,0,0,1-.779-1.281c1.765-.879,4.276,1.153,6.169.639a16.251,16.251,0,0,1-.757-2.369c1.623-.519,3.358.051,4.971.076-.392-.55-.642-1.46-.9-1.827l3.9.06" fill="#577b98"/>
        <path id="Pfad_2389-5" data-name="Pfad 2389" d="M104.444,133.846c-8.768,2.327-17.773,3.676-26.6,5.769-.341.081-.678.164-1.014.243q.376-13.674.752-27.348a48.686,48.686,0,0,0,9.04-1.59l12.4-2.868c2.468-.571,1.7-3.289-.756-2.721L87.149,107.9c-3.082.714-6.283,1.718-9.487,1.723q.362-13.3.731-26.591a2.869,2.869,0,0,0,.309-.1q.683-.338,1.39-.626c.236-.1.474-.187.713-.275q.153-.057.308-.111-.252.089.108-.034c.944-.3,1.894-.587,2.847-.866l6.114-1.79c.713-.208,1.888-.815,1.638-1.715-.241-.869-1.613-.9-2.307-.7l-6.337,1.855c-1.583.464-3.177.933-4.706,1.552q.337-12.222.681-24.446c.037-1.289-2.629-.9-2.66.209q-.342,12.1-.665,24.192c-1.4-.676-2.722-1.56-4.067-2.266a32.683,32.683,0,0,0-3.544-1.77,40.233,40.233,0,0,0-4.142-1.24,3.451,3.451,0,0,0-2.79.722c-.644.562-.42,1.127.37,1.332a29.585,29.585,0,0,1,3.907,1.211c1.2.5,2.315,1.177,3.457,1.786,2.193,1.168,4.254,2.57,6.731,3.117q-.362,13.149-.723,26.3a69.98,69.98,0,0,1-9.6-2.626q-5.278-1.65-10.45-3.588c-1.746-.65-4.606,1.771-2.256,2.645q5.574,2.076,11.263,3.839c3.517,1.082,7.248,2.411,10.956,2.786q-.378,13.863-.762,27.726a5.454,5.454,0,0,1-.641-.044c-1.257-.208-2.5-.6-3.734-.912q-3.908-1-7.809-2.018-8.017-2.1-16-4.313c-1.24-.343-4.624,1.44-2.422,2.049q8.635,2.389,17.3,4.653c4.226,1.1,8.791,2.917,13.247,2.69-.005.189-.011.378-.015.567q-.342,12.415-.692,24.829c-.037,1.289,2.629.9,2.66-.21q.361-12.781.7-25.563c9.392-1.969,18.925-3.7,28.19-6.159,2.351-.623,1.856-2.508-.521-1.877" transform="translate(-17.506 -23.592)" fill="#577b98"/>
      </g>
    </g>
    <g id="Gruppe_1540" data-name="Gruppe 1540" transform="translate(1101.612 653.29)" opacity="0.59">
      <g id="Gruppe_1523-6" data-name="Gruppe 1523" clip-path="url(#clip-path-2)">
        <path id="Pfad_2387-6" data-name="Pfad 2387" d="M89.816,218.282Q87.425,243.12,85.489,268c4.218.237,8.45.266,12.671.086l-1.7-48.974a1.92,1.92,0,0,0-.317-1.2,1.986,1.986,0,0,0-1.437-.51,18.446,18.446,0,0,0-4.371.251" transform="translate(-34.933 -93.282)" fill="#577b98"/>
        <path id="Pfad_2388-6" data-name="Pfad 2388" d="M120.494,143.8c-.538-.008-2.652-1.673-3.317-2.045a6.805,6.805,0,0,0-.685-.662c1.126-.163,2.191-.338,3.057-.49-6.737-3.6-16.539-15.411-20.708-21.732-.9-1.363-1.7-2.608-2.436-3.765-.4-3.544,1.74-2.753,3.724-3.254a8.079,8.079,0,0,1-3.136-2.6,36.181,36.181,0,0,0,5.376-.988c-4.814-3.57-10.719-13.345-14.111-18.6-.575-.891-1.107-1.763-1.6-2.613-.083-.551.035-1.364-.08-1.873,1.6.568,4.507,2.97,3.919-1.028,1.07.2,2.914,2.039,2.441-1.05,1.071.2,2.134.759,3.078.591-.553-.664-1.434-1.922-2.28-2.982a19.154,19.154,0,0,0,3.334-.549,44.008,44.008,0,0,1-10.3-12.412c-2.253-3.951-4.48-7.948-6.223-11.15a3.679,3.679,0,0,1-.169-1.294c1.207.109,2.269.76,3.547.689-.19-.547-.515-1.1-.7-1.643,1.222-.615,1.862.935,2.946.5-.188-.638-.58-1.187-.766-1.915.879-.259,1.931.846,2.869.95a10.237,10.237,0,0,0-1.05-1.428c.007,0,.017,0,.024-.005a69.644,69.644,0,0,1-8.79-12.291c-2.12-4.059-4.228-8.643-6.233-12.7A74.893,74.893,0,0,1,68.141,17.4c-.656-1.937-2.093-5.274-2.629-7.383-.652-2.111-.983-3.2-1.685-5.471C63.392,3.141,62.649.758,62.545,0l-.017.045c-2.516,8.852-6.17,16.615-9.7,24.439a96.282,96.282,0,0,1-7.463,14.184A45.343,45.343,0,0,1,37.34,48.1a8.972,8.972,0,0,1-1.874.847,4.651,4.651,0,0,0,1.24,1.287,3.652,3.652,0,0,1-1.727.742c1.046,1.376,3,.953,4.413,1.065a2.736,2.736,0,0,1-1.779,1.514c1.264.563,2.348.217,3.56.055a12.622,12.622,0,0,1-1.594,2.332c-.344.358-.882.44-1.228.888A2.373,2.373,0,0,0,40.4,57.1c-.92,1.637-1.827,3.211-2.684,4.631-2.811,4.655-7.1,12.321-10.388,15.6a4.679,4.679,0,0,1-2.6.851,5.747,5.747,0,0,0,2.633,1.663c.942,1.408,2.622,1.026,3.872,1.03.014.014.028.027.043.041a13.312,13.312,0,0,1-1.638,2.288,12.717,12.717,0,0,0,3.727.273C29.995,89.66,23.231,100.932,19.75,104.01a7.952,7.952,0,0,1-3.168,1.7,9.194,9.194,0,0,0,2.555,1.717,23.181,23.181,0,0,1-2.6,1.5c1.779,1.659,4.41,1.156,6.627,1.19a10.246,10.246,0,0,1-2.083,3.231,6.329,6.329,0,0,0,2.3.177C18.13,120.712,8.839,133.045,4.4,135.855A12.789,12.789,0,0,1,0,137.538a14.408,14.408,0,0,0,3.947,1.856A16.94,16.94,0,0,0,0,141.22c1.548,3.106,6.015,1.542,8.292,1.94-.28.54-.3,1.446-.713,1.984,3.324,1.682,8.172,1.213,11.546.539a17.136,17.136,0,0,1-.591,2.529c1.877.21,4.725-1.015,6.464-.626,1.067.379,1.041,1.648,2.518,1.671,1.884-.153,1.259-2.338,2.833-.5.918,1.1.35,2.543,1.551,2.924.669.191,2.576-1.048,3.121-1.4,3.393-1.58,3.385-1.217,6.15,1.545a17.3,17.3,0,0,1,1.386-1.973c2.219,3.116,2.879,3.67,5.738,1.9,2.18-1.417,4.71-.291,6.134,2.27,1.24-1.431,1.661-2.331,3.27-2.125,1.206.2,2.38,1.85,3.6,1.505s1.657-2.15,3.135-2.127c1.208.018,2.649,1.853,3.992,1.873-.182-4.172,4.6-1.38,6.468-.807a16.03,16.03,0,0,0,.187-2.536c2.952.227,5.732,2.263,8.825,2.13a10.1,10.1,0,0,0-.227-2c3.244-.856,8.285,2.3,11.777,2.356a6.226,6.226,0,0,1-1.82-2.928c2.053-1.781,6.84.649,9.259.686-.668-.192-1.187-1.106-1.839-2.022,2.034-.875,4.694.434,6.844.468a6.617,6.617,0,0,1-.779-1.281c1.765-.879,4.276,1.153,6.169.639a16.251,16.251,0,0,1-.757-2.369c1.623-.519,3.358.051,4.971.076-.392-.55-.642-1.46-.9-1.827l3.9.06" fill="#577b98"/>
        <path id="Pfad_2389-6" data-name="Pfad 2389" d="M104.444,133.846c-8.768,2.327-17.773,3.676-26.6,5.769-.341.081-.678.164-1.014.243q.376-13.674.752-27.348a48.686,48.686,0,0,0,9.04-1.59l12.4-2.868c2.468-.571,1.7-3.289-.756-2.721L87.149,107.9c-3.082.714-6.283,1.718-9.487,1.723q.362-13.3.731-26.591a2.869,2.869,0,0,0,.309-.1q.683-.338,1.39-.626c.236-.1.474-.187.713-.275q.153-.057.308-.111-.252.089.108-.034c.944-.3,1.894-.587,2.847-.866l6.114-1.79c.713-.208,1.888-.815,1.638-1.715-.241-.869-1.613-.9-2.307-.7l-6.337,1.855c-1.583.464-3.177.933-4.706,1.552q.337-12.222.681-24.446c.037-1.289-2.629-.9-2.66.209q-.342,12.1-.665,24.192c-1.4-.676-2.722-1.56-4.067-2.266a32.683,32.683,0,0,0-3.544-1.77,40.233,40.233,0,0,0-4.142-1.24,3.451,3.451,0,0,0-2.79.722c-.644.562-.42,1.127.37,1.332a29.585,29.585,0,0,1,3.907,1.211c1.2.5,2.315,1.177,3.457,1.786,2.193,1.168,4.254,2.57,6.731,3.117q-.362,13.149-.723,26.3a69.98,69.98,0,0,1-9.6-2.626q-5.278-1.65-10.45-3.588c-1.746-.65-4.606,1.771-2.256,2.645q5.574,2.076,11.263,3.839c3.517,1.082,7.248,2.411,10.956,2.786q-.378,13.863-.762,27.726a5.454,5.454,0,0,1-.641-.044c-1.257-.208-2.5-.6-3.734-.912q-3.908-1-7.809-2.018-8.017-2.1-16-4.313c-1.24-.343-4.624,1.44-2.422,2.049q8.635,2.389,17.3,4.653c4.226,1.1,8.791,2.917,13.247,2.69-.005.189-.011.378-.015.567q-.342,12.415-.692,24.829c-.037,1.289,2.629.9,2.66-.21q.361-12.781.7-25.563c9.392-1.969,18.925-3.7,28.19-6.159,2.351-.623,1.856-2.508-.521-1.877" transform="translate(-17.506 -23.592)" fill="#577b98"/>
      </g>
    </g>
    <g id="Gruppe_1539" data-name="Gruppe 1539" transform="translate(732.081 740.749)">
      <g id="Gruppe_1523-7" data-name="Gruppe 1523" clip-path="url(#clip-path-7)">
        <path id="Pfad_2387-7" data-name="Pfad 2387" d="M88.211,217.94q-1.5,15.63-2.722,31.284c2.654.149,5.317.167,7.974.054L92.392,218.46a1.208,1.208,0,0,0-.2-.758,1.25,1.25,0,0,0-.9-.321,11.608,11.608,0,0,0-2.751.158" transform="translate(-53.676 -139.283)" fill="#6087a5"/>
        <path id="Pfad_2388-7" data-name="Pfad 2388" d="M75.822,90.484A13.052,13.052,0,0,1,73.734,89.2a4.283,4.283,0,0,0-.431-.417c.709-.1,1.379-.213,1.924-.308C70.988,86.208,64.82,78.775,62.2,74.8c-.565-.857-1.071-1.641-1.533-2.369-.253-2.23,1.1-1.732,2.343-2.048a5.084,5.084,0,0,1-1.973-1.639,22.767,22.767,0,0,0,3.383-.621c-3.029-2.246-6.745-8.4-8.88-11.7-.362-.561-.7-1.109-1.008-1.644-.052-.347.022-.858-.05-1.179,1.007.357,2.836,1.869,2.466-.647.674.124,1.834,1.283,1.536-.661a6.18,6.18,0,0,0,1.937.372c-.348-.418-.9-1.209-1.435-1.876a12.053,12.053,0,0,0,2.1-.345,27.692,27.692,0,0,1-6.479-7.81c-1.418-2.486-2.819-5-3.916-7.016a2.315,2.315,0,0,1-.106-.814,14.432,14.432,0,0,0,2.232.434c-.12-.344-.324-.69-.444-1.034.769-.387,1.171.588,1.854.314-.118-.4-.365-.747-.482-1.205.553-.163,1.215.532,1.806.6a6.442,6.442,0,0,0-.661-.9s.01,0,.015,0a43.824,43.824,0,0,1-5.531-7.734c-1.334-2.554-2.661-5.438-3.922-7.992a47.127,47.127,0,0,1-2.568-6.325c-.413-1.219-1.317-3.319-1.654-4.646-.41-1.328-.619-2.015-1.06-3.443C39.89,1.976,39.423.477,39.357,0l-.01.028a110.1,110.1,0,0,1-6.1,15.379,60.586,60.586,0,0,1-4.7,8.925A28.533,28.533,0,0,1,23.5,30.266a5.645,5.645,0,0,1-1.179.533,2.927,2.927,0,0,0,.78.81,2.3,2.3,0,0,1-1.087.467c.658.866,1.89.6,2.777.67a1.722,1.722,0,0,1-1.119.953,3.754,3.754,0,0,0,2.24.034,7.943,7.943,0,0,1-1,1.467c-.216.225-.555.277-.773.559a1.493,1.493,0,0,0,1.287.174c-.579,1.03-1.15,2.021-1.689,2.914-1.769,2.929-4.469,7.753-6.536,9.816a2.944,2.944,0,0,1-1.636.535,3.616,3.616,0,0,0,1.657,1.047c.593.886,1.65.645,2.436.648l.027.026a8.377,8.377,0,0,1-1.031,1.44,8,8,0,0,0,2.345.172c-2.119,3.888-6.375,10.981-8.566,12.918a5,5,0,0,1-1.993,1.071,5.785,5.785,0,0,0,1.608,1.08,14.588,14.588,0,0,1-1.639.945c1.12,1.044,2.775.727,4.17.749a6.447,6.447,0,0,1-1.311,2.033,3.983,3.983,0,0,0,1.446.111c-3.3,4.52-9.147,12.28-11.938,14.049A8.048,8.048,0,0,1,0,86.547a9.067,9.067,0,0,0,2.484,1.168A10.66,10.66,0,0,0,0,88.864c.974,1.954,3.785.971,5.218,1.221-.176.34-.188.91-.449,1.248,2.092,1.059,5.142.763,7.265.339a10.783,10.783,0,0,1-.372,1.591c1.181.132,2.973-.639,4.068-.394.672.239.655,1.037,1.585,1.051,1.186-.1.792-1.471,1.782-.315.578.693.22,1.6.976,1.84.421.12,1.621-.659,1.964-.883,2.135-.994,2.13-.766,3.87.972a10.884,10.884,0,0,1,.872-1.241c1.4,1.961,1.812,2.309,3.611,1.2,1.372-.892,2.964-.183,3.86,1.428.78-.9,1.045-1.467,2.057-1.337.759.126,1.5,1.164,2.264.947s1.043-1.353,1.973-1.338c.76.011,1.667,1.166,2.512,1.179-.114-2.625,2.894-.868,4.07-.508a10.087,10.087,0,0,0,.118-1.6c1.858.143,3.607,1.424,5.553,1.34a6.357,6.357,0,0,0-.143-1.257c2.041-.539,5.213,1.449,7.411,1.483a3.918,3.918,0,0,1-1.145-1.843c1.292-1.121,4.3.408,5.826.432-.421-.121-.747-.7-1.157-1.273,1.28-.551,2.954.273,4.307.294a4.163,4.163,0,0,1-.49-.806c1.111-.553,2.69.726,3.882.4a10.226,10.226,0,0,1-.476-1.491,9.593,9.593,0,0,1,3.128.048c-.247-.346-.4-.919-.568-1.149l2.452.038" fill="#6087a5"/>
        <path id="Pfad_2389-7" data-name="Pfad 2389" d="M81.605,104.6c-5.518,1.464-11.184,2.313-16.738,3.63-.215.051-.426.1-.638.153q.237-8.6.473-17.209a30.636,30.636,0,0,0,5.688-1l7.8-1.805c1.553-.359,1.072-2.07-.476-1.712l-6.993,1.618a27.215,27.215,0,0,1-5.97,1.084q.228-8.366.46-16.733a1.8,1.8,0,0,0,.194-.066q.43-.213.874-.394c.148-.06.3-.117.448-.173l.194-.07q-.159.056.068-.022c.594-.191,1.192-.37,1.791-.545l3.847-1.126c.448-.131,1.188-.513,1.031-1.079-.152-.547-1.015-.565-1.452-.438l-3.988,1.167c-1,.292-2,.587-2.961.976q.212-7.691.429-15.383c.023-.811-1.654-.564-1.674.132Q63.8,63.223,63.6,70.835c-.881-.426-1.713-.982-2.56-1.426a20.566,20.566,0,0,0-2.23-1.114,25.319,25.319,0,0,0-2.606-.781,2.171,2.171,0,0,0-1.755.454c-.405.353-.265.709.233.838a18.616,18.616,0,0,1,2.458.762c.755.313,1.457.741,2.175,1.124a16.976,16.976,0,0,0,4.236,1.962q-.228,8.274-.455,16.548a44.035,44.035,0,0,1-6.038-1.652q-3.321-1.038-6.576-2.258c-1.1-.409-2.9,1.114-1.42,1.665q3.508,1.306,7.087,2.416a36.651,36.651,0,0,0,6.894,1.753q-.238,8.723-.48,17.447a3.432,3.432,0,0,1-.4-.028c-.791-.131-1.576-.376-2.35-.574q-2.459-.627-4.914-1.27-5.045-1.322-10.07-2.714c-.78-.216-2.91.906-1.524,1.289q5.433,1.5,10.888,2.928c2.659.694,5.532,1.836,8.336,1.693,0,.119-.007.238-.01.357q-.215,7.812-.435,15.624c-.023.811,1.654.563,1.674-.132q.227-8.043.442-16.086c5.91-1.239,11.908-2.328,17.739-3.875,1.479-.392,1.168-1.578-.328-1.181" transform="translate(-26.899 -35.226)" fill="#6087a5"/>
      </g>
    </g>
    <g id="Gruppe_1541" data-name="Gruppe 1541" transform="translate(133.081 830.564)" opacity="0.59">
      <g id="Gruppe_1523-8" data-name="Gruppe 1523" clip-path="url(#clip-path-7)">
        <path id="Pfad_2387-8" data-name="Pfad 2387" d="M88.211,217.94q-1.5,15.63-2.722,31.284c2.654.149,5.317.167,7.974.054L92.392,218.46a1.208,1.208,0,0,0-.2-.758,1.25,1.25,0,0,0-.9-.321,11.608,11.608,0,0,0-2.751.158" transform="translate(-53.676 -139.283)" fill="#6087a5"/>
        <path id="Pfad_2388-8" data-name="Pfad 2388" d="M75.822,90.484A13.052,13.052,0,0,1,73.734,89.2a4.283,4.283,0,0,0-.431-.417c.709-.1,1.379-.213,1.924-.308C70.988,86.208,64.82,78.775,62.2,74.8c-.565-.857-1.071-1.641-1.533-2.369-.253-2.23,1.1-1.732,2.343-2.048a5.084,5.084,0,0,1-1.973-1.639,22.767,22.767,0,0,0,3.383-.621c-3.029-2.246-6.745-8.4-8.88-11.7-.362-.561-.7-1.109-1.008-1.644-.052-.347.022-.858-.05-1.179,1.007.357,2.836,1.869,2.466-.647.674.124,1.834,1.283,1.536-.661a6.18,6.18,0,0,0,1.937.372c-.348-.418-.9-1.209-1.435-1.876a12.053,12.053,0,0,0,2.1-.345,27.692,27.692,0,0,1-6.479-7.81c-1.418-2.486-2.819-5-3.916-7.016a2.315,2.315,0,0,1-.106-.814,14.432,14.432,0,0,0,2.232.434c-.12-.344-.324-.69-.444-1.034.769-.387,1.171.588,1.854.314-.118-.4-.365-.747-.482-1.205.553-.163,1.215.532,1.806.6a6.442,6.442,0,0,0-.661-.9s.01,0,.015,0a43.824,43.824,0,0,1-5.531-7.734c-1.334-2.554-2.661-5.438-3.922-7.992a47.127,47.127,0,0,1-2.568-6.325c-.413-1.219-1.317-3.319-1.654-4.646-.41-1.328-.619-2.015-1.06-3.443C39.89,1.976,39.423.477,39.357,0l-.01.028a110.1,110.1,0,0,1-6.1,15.379,60.586,60.586,0,0,1-4.7,8.925A28.533,28.533,0,0,1,23.5,30.266a5.645,5.645,0,0,1-1.179.533,2.927,2.927,0,0,0,.78.81,2.3,2.3,0,0,1-1.087.467c.658.866,1.89.6,2.777.67a1.722,1.722,0,0,1-1.119.953,3.754,3.754,0,0,0,2.24.034,7.943,7.943,0,0,1-1,1.467c-.216.225-.555.277-.773.559a1.493,1.493,0,0,0,1.287.174c-.579,1.03-1.15,2.021-1.689,2.914-1.769,2.929-4.469,7.753-6.536,9.816a2.944,2.944,0,0,1-1.636.535,3.616,3.616,0,0,0,1.657,1.047c.593.886,1.65.645,2.436.648l.027.026a8.377,8.377,0,0,1-1.031,1.44,8,8,0,0,0,2.345.172c-2.119,3.888-6.375,10.981-8.566,12.918a5,5,0,0,1-1.993,1.071,5.785,5.785,0,0,0,1.608,1.08,14.588,14.588,0,0,1-1.639.945c1.12,1.044,2.775.727,4.17.749a6.447,6.447,0,0,1-1.311,2.033,3.983,3.983,0,0,0,1.446.111c-3.3,4.52-9.147,12.28-11.938,14.049A8.048,8.048,0,0,1,0,86.547a9.067,9.067,0,0,0,2.484,1.168A10.66,10.66,0,0,0,0,88.864c.974,1.954,3.785.971,5.218,1.221-.176.34-.188.91-.449,1.248,2.092,1.059,5.142.763,7.265.339a10.783,10.783,0,0,1-.372,1.591c1.181.132,2.973-.639,4.068-.394.672.239.655,1.037,1.585,1.051,1.186-.1.792-1.471,1.782-.315.578.693.22,1.6.976,1.84.421.12,1.621-.659,1.964-.883,2.135-.994,2.13-.766,3.87.972a10.884,10.884,0,0,1,.872-1.241c1.4,1.961,1.812,2.309,3.611,1.2,1.372-.892,2.964-.183,3.86,1.428.78-.9,1.045-1.467,2.057-1.337.759.126,1.5,1.164,2.264.947s1.043-1.353,1.973-1.338c.76.011,1.667,1.166,2.512,1.179-.114-2.625,2.894-.868,4.07-.508a10.087,10.087,0,0,0,.118-1.6c1.858.143,3.607,1.424,5.553,1.34a6.357,6.357,0,0,0-.143-1.257c2.041-.539,5.213,1.449,7.411,1.483a3.918,3.918,0,0,1-1.145-1.843c1.292-1.121,4.3.408,5.826.432-.421-.121-.747-.7-1.157-1.273,1.28-.551,2.954.273,4.307.294a4.163,4.163,0,0,1-.49-.806c1.111-.553,2.69.726,3.882.4a10.226,10.226,0,0,1-.476-1.491,9.593,9.593,0,0,1,3.128.048c-.247-.346-.4-.919-.568-1.149l2.452.038" fill="#6087a5"/>
        <path id="Pfad_2389-8" data-name="Pfad 2389" d="M81.605,104.6c-5.518,1.464-11.184,2.313-16.738,3.63-.215.051-.426.1-.638.153q.237-8.6.473-17.209a30.636,30.636,0,0,0,5.688-1l7.8-1.805c1.553-.359,1.072-2.07-.476-1.712l-6.993,1.618a27.215,27.215,0,0,1-5.97,1.084q.228-8.366.46-16.733a1.8,1.8,0,0,0,.194-.066q.43-.213.874-.394c.148-.06.3-.117.448-.173l.194-.07q-.159.056.068-.022c.594-.191,1.192-.37,1.791-.545l3.847-1.126c.448-.131,1.188-.513,1.031-1.079-.152-.547-1.015-.565-1.452-.438l-3.988,1.167c-1,.292-2,.587-2.961.976q.212-7.691.429-15.383c.023-.811-1.654-.564-1.674.132Q63.8,63.223,63.6,70.835c-.881-.426-1.713-.982-2.56-1.426a20.566,20.566,0,0,0-2.23-1.114,25.319,25.319,0,0,0-2.606-.781,2.171,2.171,0,0,0-1.755.454c-.405.353-.265.709.233.838a18.616,18.616,0,0,1,2.458.762c.755.313,1.457.741,2.175,1.124a16.976,16.976,0,0,0,4.236,1.962q-.228,8.274-.455,16.548a44.035,44.035,0,0,1-6.038-1.652q-3.321-1.038-6.576-2.258c-1.1-.409-2.9,1.114-1.42,1.665q3.508,1.306,7.087,2.416a36.651,36.651,0,0,0,6.894,1.753q-.238,8.723-.48,17.447a3.432,3.432,0,0,1-.4-.028c-.791-.131-1.576-.376-2.35-.574q-2.459-.627-4.914-1.27-5.045-1.322-10.07-2.714c-.78-.216-2.91.906-1.524,1.289q5.433,1.5,10.888,2.928c2.659.694,5.532,1.836,8.336,1.693,0,.119-.007.238-.01.357q-.215,7.812-.435,15.624c-.023.811,1.654.563,1.674-.132q.227-8.043.442-16.086c5.91-1.239,11.908-2.328,17.739-3.875,1.479-.392,1.168-1.578-.328-1.181" transform="translate(-26.899 -35.226)" fill="#6087a5"/>
      </g>
    </g>
    <ellipse id="Ellipse_287" data-name="Ellipse 287" cx="2504.5" cy="746.5" rx="2504.5" ry="746.5" transform="translate(-934 808)" fill="#fff"/>
    <line id="Linie_27" data-name="Linie 27" x2="414" transform="translate(249.5 123.5)" fill="none"/>
    <g id="background" transform="translate(745.698 874.457)">
      <path id="Pfad_1531" data-name="Pfad 1531" d="M74.577,16.9c-36,.2-44.743-1.858-74.577,14.91,8.954,7.321,28.412-4.759,48.474-1.858,25.891,3.745,45.56,11.559,52.205,11.193,20.372-1.14,13.826-10.334,54.064-7.462,25.216,1.8,48.474,13.051,79.969,4.308-.352,9.4,20.2,12.066,27.088,6.645l.577-11.179c32,5.533,73.437,8.377,103.017-6.35-7.8-17.4-44.87,0-83.334-20.809-12.249-11.812-44.5-3.154-69.537-4.322-11.334-.521-25.075,9.053-37.281,9.32s-35.31-4.477-48.474-1.858c-21.161,4.21-33.114,7.349-52.205,7.462Z" transform="translate(0 0.001)" fill="#fff" opacity="0.6"/>
    </g>
    <g id="background-2" data-name="background" transform="translate(1750.698 832.292)">
      <path id="Pfad_1531-2" data-name="Pfad 1531" d="M74.577,16.9c-36,.2-44.743-1.858-74.577,14.91,8.954,7.321,28.412-4.759,48.474-1.858,25.891,3.745,45.56,11.559,52.205,11.193,20.372-1.14,13.826-10.334,54.064-7.462,25.216,1.8,48.474,13.051,79.969,4.308-.352,9.4,20.2,12.066,27.088,6.645l.577-11.179c32,5.533,73.437,8.377,103.017-6.35-7.8-17.4-44.87,0-83.334-20.809-12.249-11.812-44.5-3.154-69.537-4.322-11.334-.521-25.075,9.053-37.281,9.32s-35.31-4.477-48.474-1.858c-21.161,4.21-33.114,7.349-52.205,7.462Z" transform="translate(0 0.001)" fill="#fff" opacity="0.6"/>
    </g>
    <g id="Gruppe_445" data-name="Gruppe 445" transform="translate(347.216 58.452)">
      <g id="Gruppe_327" data-name="Gruppe 327" clip-path="url(#clip-path-9)">
        <path id="Pfad_1190" data-name="Pfad 1190" d="M15.789,41.377a3.922,3.922,0,1,1-3.922-3.922,3.922,3.922,0,0,1,3.922,3.922" transform="translate(6.678 31.484)" fill="#f4f4f3"/>
        <path id="Pfad_1191" data-name="Pfad 1191" d="M21.69,6.6a6.6,6.6,0,1,1-6.6-6.6,6.6,6.6,0,0,1,6.6,6.6" transform="translate(7.136)" fill="#f4f4f3"/>
        <path id="Pfad_1192" data-name="Pfad 1192" d="M32.067,30.091a5.486,5.486,0,1,1-5.485-5.485,5.484,5.484,0,0,1,5.485,5.485" transform="translate(17.732 20.683)" fill="#f4f4f3"/>
        <path id="Pfad_1193" data-name="Pfad 1193" d="M49.207,11.508A4.209,4.209,0,1,1,45,7.3a4.21,4.21,0,0,1,4.209,4.209" transform="translate(34.285 6.135)" fill="#f4f4f3"/>
        <path id="Pfad_1194" data-name="Pfad 1194" d="M31.1,77.415a6.2,6.2,0,1,1-6.2-6.2,6.2,6.2,0,0,1,6.2,6.2" transform="translate(15.726 59.866)" fill="#f4f4f3"/>
        <path id="Pfad_1195" data-name="Pfad 1195" d="M7.354,115.241a3.624,3.624,0,1,1-3.624-3.624,3.625,3.625,0,0,1,3.624,3.624" transform="translate(0.089 93.823)" fill="#f4f4f3"/>
        <path id="Pfad_1196" data-name="Pfad 1196" d="M18.939,155.424a4.025,4.025,0,1,1-4.025-4.025,4.026,4.026,0,0,1,4.025,4.025" transform="translate(9.152 127.263)" fill="#f4f4f3"/>
        <path id="Pfad_1197" data-name="Pfad 1197" d="M7.638,172.33a3.819,3.819,0,1,1-3.819-3.819,3.819,3.819,0,0,1,3.819,3.819" transform="translate(0 141.646)" fill="#f4f4f3"/>
        <path id="Pfad_1198" data-name="Pfad 1198" d="M22.5,136.6a4.408,4.408,0,1,1-4.408-4.408A4.409,4.409,0,0,1,22.5,136.6" transform="translate(11.499 111.117)" fill="#f4f4f3"/>
      </g>
    </g>
    <g id="Gruppe_446" data-name="Gruppe 446" transform="translate(474.914 235.663) rotate(19)">
      <g id="Gruppe_327-2" data-name="Gruppe 327" clip-path="url(#clip-path-10)">
        <path id="Pfad_1190-2" data-name="Pfad 1190" d="M5.111,2.555A2.555,2.555,0,1,1,2.555,0,2.555,2.555,0,0,1,5.111,2.555" transform="translate(9.526 44.913)" fill="#f4f4f3"/>
        <path id="Pfad_1191-2" data-name="Pfad 1191" d="M8.6,4.3A4.3,4.3,0,1,1,4.3,0,4.3,4.3,0,0,1,8.6,4.3" transform="translate(10.179 0)" fill="#f4f4f3"/>
        <path id="Pfad_1192-2" data-name="Pfad 1192" d="M7.148,3.573A3.574,3.574,0,1,1,3.575,0,3.573,3.573,0,0,1,7.148,3.573" transform="translate(25.295 29.505)" fill="#f4f4f3"/>
        <path id="Pfad_1193-2" data-name="Pfad 1193" d="M5.485,2.742A2.742,2.742,0,1,1,2.742,0,2.742,2.742,0,0,1,5.485,2.742" transform="translate(48.909 8.752)" fill="#f4f4f3"/>
        <path id="Pfad_1194-2" data-name="Pfad 1194" d="M8.072,4.036A4.036,4.036,0,1,1,4.036,0,4.036,4.036,0,0,1,8.072,4.036" transform="translate(22.434 85.401)" fill="#f4f4f3"/>
        <path id="Pfad_1195-2" data-name="Pfad 1195" d="M4.722,2.361A2.361,2.361,0,1,1,2.361,0,2.362,2.362,0,0,1,4.722,2.361" transform="translate(0.127 133.841)" fill="#f4f4f3"/>
        <path id="Pfad_1196-2" data-name="Pfad 1196" d="M5.245,2.622A2.622,2.622,0,1,1,2.622,0,2.623,2.623,0,0,1,5.245,2.622" transform="translate(13.056 181.545)" fill="#f4f4f3"/>
        <path id="Pfad_1197-2" data-name="Pfad 1197" d="M4.976,2.488A2.488,2.488,0,1,1,2.488,0,2.488,2.488,0,0,1,4.976,2.488" transform="translate(0 202.064)" fill="#f4f4f3"/>
        <path id="Pfad_1198-2" data-name="Pfad 1198" d="M5.744,2.872A2.872,2.872,0,1,1,2.872,0,2.872,2.872,0,0,1,5.744,2.872" transform="translate(16.404 158.512)" fill="#f4f4f3"/>
      </g>
    </g>
    <g id="Gruppe_436" data-name="Gruppe 436" transform="translate(88.185 96.388) rotate(19)">
      <g id="Gruppe_327-3" data-name="Gruppe 327" clip-path="url(#clip-path-10)">
        <path id="Pfad_1190-3" data-name="Pfad 1190" d="M5.111,2.555A2.555,2.555,0,1,1,2.555,0,2.555,2.555,0,0,1,5.111,2.555" transform="translate(9.526 44.913)" fill="#f4f4f3"/>
        <path id="Pfad_1191-3" data-name="Pfad 1191" d="M8.6,4.3A4.3,4.3,0,1,1,4.3,0,4.3,4.3,0,0,1,8.6,4.3" transform="translate(10.179 0)" fill="#f4f4f3"/>
        <path id="Pfad_1192-3" data-name="Pfad 1192" d="M7.148,3.573A3.574,3.574,0,1,1,3.575,0,3.573,3.573,0,0,1,7.148,3.573" transform="translate(25.295 29.505)" fill="#f4f4f3"/>
        <path id="Pfad_1193-3" data-name="Pfad 1193" d="M5.485,2.742A2.742,2.742,0,1,1,2.742,0,2.742,2.742,0,0,1,5.485,2.742" transform="translate(48.909 8.752)" fill="#f4f4f3"/>
        <path id="Pfad_1194-3" data-name="Pfad 1194" d="M8.072,4.036A4.036,4.036,0,1,1,4.036,0,4.036,4.036,0,0,1,8.072,4.036" transform="translate(22.434 85.401)" fill="#f4f4f3"/>
        <path id="Pfad_1195-3" data-name="Pfad 1195" d="M4.722,2.361A2.361,2.361,0,1,1,2.361,0,2.362,2.362,0,0,1,4.722,2.361" transform="translate(0.127 133.841)" fill="#f4f4f3"/>
        <path id="Pfad_1196-3" data-name="Pfad 1196" d="M5.245,2.622A2.622,2.622,0,1,1,2.622,0,2.623,2.623,0,0,1,5.245,2.622" transform="translate(13.056 181.545)" fill="#f4f4f3"/>
        <path id="Pfad_1197-3" data-name="Pfad 1197" d="M4.976,2.488A2.488,2.488,0,1,1,2.488,0,2.488,2.488,0,0,1,4.976,2.488" transform="translate(0 202.064)" fill="#f4f4f3"/>
        <path id="Pfad_1198-3" data-name="Pfad 1198" d="M5.744,2.872A2.872,2.872,0,1,1,2.872,0,2.872,2.872,0,0,1,5.744,2.872" transform="translate(16.404 158.512)" fill="#f4f4f3"/>
      </g>
    </g>
    <g id="top" transform="translate(2061.396 177.129) rotate(180)">
      <path id="Pfad_1374" data-name="Pfad 1374" d="M0,22.577S20.826,54.829,78.908,49.992C91.331,48.96,125.547,56.371,136.99,64.5s13.778,13.769,54.655,14.511c88.826,1.612,84.818,16.209,131.138,19.38,21.6,1.478,32.747-7.895,56.761-6.482,23.764,1.4,45.557,13.21,71.746,14.511,27.1,1.349,41.936,2.865,100.064,4.214,36.175-1.817,39.83,2.225,95.646-4.171,37.279-4.273,50.989,5.976,71.006,7.976,16.693,1.666,42.073-1.489,58.264.322s28.2,7.008,54.985,6.019c23.1-.855,32.338-14.425,86.378.908,15.474,4.391,43.656,1.9,61.419,1.811,19.323-.091,29.013,2.977,47.983,2.719,25.335-.344,34.854-7.535,59.506-8.153,17.387-.435,36.721,2.37,53.744,1.811,14.859-.489,46.855,1.478,61.419.908,20.12-.79,34.216-5.4,53.744-6.342,20.86-1,29.753-.661,49.907-1.811,16.191-.924,41.879-3.526,57.581-4.531,14.9-.957,33.533,1.924,47.983.908,11.147-.785,29.445-6.428,40.308-7.25,23.581-1.779,41.128,1.9,63.343,0,31.483-2.693,61.68-8.04,90.214-10.872,40.194-3.988,69.879-18.7,103.651-22.648,73.386-8.594,58.082-34.369,140.076-39.206C1903.165,25.812,1933.4.01,1933.4.01V176.129H0Z" transform="translate(128 1)" fill="#fff"/>
    </g>
  </g>
</svg>
