<svg xmlns="http://www.w3.org/2000/svg" xmlns:xlink="http://www.w3.org/1999/xlink" width="1366" height="769" viewBox="0 0 1366 769">
  <defs>
    <clipPath id="clip-path">
      <rect id="Rechteck_629" data-name="Rechteck 629" width="1366" height="769" transform="translate(-15214 14397)" fill="#fff" stroke="#707070" stroke-width="1"/>
    </clipPath>
    <linearGradient id="linear-gradient" x1="0.5" y1="0.005" x2="0.5" y2="0.845" gradientUnits="objectBoundingBox">
      <stop offset="0" stop-color="#fff"/>
      <stop offset="0.26" stop-color="#d5e7ed"/>
      <stop offset="0.85" stop-color="#6eabbf"/>
      <stop offset="0.86" stop-color="#6daabf"/>
    </linearGradient>
    <clipPath id="clip-path-2">
      <rect id="Rechteck_362" data-name="Rechteck 362" width="1366" height="1138" transform="translate(-0.125 -0.104)" fill="none" opacity="0.35"/>
    </clipPath>
    <clipPath id="clip-path-3">
      <rect id="Rechteck_355" data-name="Rechteck 355" width="99.654" height="127.271" fill="none"/>
    </clipPath>
    <clipPath id="clip-path-4">
      <rect id="Rechteck_356" data-name="Rechteck 356" width="73.217" height="108.689" fill="none"/>
    </clipPath>
    <clipPath id="clip-path-5">
      <rect id="Rechteck_357" data-name="Rechteck 357" width="77.88" height="105.953" fill="none"/>
    </clipPath>
    <clipPath id="clip-path-6">
      <rect id="Rechteck_358" data-name="Rechteck 358" width="73.972" height="118.314" fill="none"/>
    </clipPath>
    <clipPath id="clip-path-7">
      <rect id="Rechteck_359" data-name="Rechteck 359" width="59.649" height="95.409" fill="none"/>
    </clipPath>
    <clipPath id="clip-path-8">
      <rect id="Rechteck_360" data-name="Rechteck 360" width="47.081" height="74.102" fill="none"/>
    </clipPath>
    <clipPath id="clip-path-9">
      <rect id="Rechteck_361" data-name="Rechteck 361" width="1365.75" height="882.388" fill="#76becd"/>
    </clipPath>
    <clipPath id="clip-path-10">
      <path id="Pfad_2992" data-name="Pfad 2992" d="M1347.073,471.673a203.624,203.624,0,0,0-50.547,12.687c-11.728,4.661-24.86,3.511-38.883,2.657-12.068-.734-24.238,6.535-37.3,10.132-14.7,4.048-36.387,1.308-51.157,6.673-19.149,6.954-32.135,14.86-53.382,26.134-27.247,14.458-59.782,48.337-107.985,46.73-43.626-1.454-66.534,24.856-69.092,25.709-21.454,7.151-20.888,33.742-38.563,30.529-29.64-5.389-46.6,6.427-69.092,20.888-4.266,2.743-30.583,12.931-49.186,12.931-5.717.664-23.35,4.224-31.465,2.861-13.509.291-11.807,9.118-27.175,8.581-.657-.067-2.353.91-4.8,1.887-5.089,2.033-13.422,4.067-22.377-3.317-1.1-.906-20.34.161-37.453,1.23-12.687.791-24.2,1.583-26.294,1.569-6.95-3.09-5.37-2.225-15.661-2.146-17.629.288-41.285-18.347-42.62-18.819-28.75-10.147-51.5-8.5-62.575-6.765-56.5,1.657-67.59-17.618-114.046-17.781-15.282.087-31.528-.734-46.661-1.555-23.731-1.287-44.721-2.576-54.951-.362-34.236,2.984-32.124,6.858-62.31,3.834-15.446-1.367-32.493-2.124-50.806-7.669-1.594-1.208-5.4-.763-10.3-.318-6.146.558-14.005,1.116-21.337-1.6-16.126-7.1-26.368-3.508-35.4.087-8.172,3.253-15.349,6.506-25,1.83-28.019-13.943-45.2-9.039-62.3-4.135-8.963,2.57-17.9,5.141-28.37,5V1349.3H1379.156V470.458s-3.058-.26-8.408-.26a199.686,199.686,0,0,0-23.674,1.475" transform="translate(0 -470.198)" fill="none"/>
    </clipPath>
    <linearGradient id="linear-gradient-2" y1="1" x2="0" y2="1" gradientUnits="objectBoundingBox">
      <stop offset="0" stop-color="#dbffff"/>
      <stop offset="0.19" stop-color="#d1f6f8"/>
      <stop offset="0.512" stop-color="#c8eff1"/>
      <stop offset="1" stop-color="#c6edf0"/>
    </linearGradient>
    <clipPath id="clip-path-11">
      <rect id="Rechteck_176" data-name="Rechteck 176" width="54.394" height="207.04" fill="none"/>
    </clipPath>
    <clipPath id="clip-path-12">
      <rect id="Rechteck_176-2" data-name="Rechteck 176" width="83.492" height="317.796" fill="none"/>
    </clipPath>
    <clipPath id="clip-path-35">
      <rect id="Rechteck_626" data-name="Rechteck 626" width="792" height="660" transform="translate(-0.181 -0.15)" fill="none"/>
    </clipPath>
    <clipPath id="clip-path-36">
      <rect id="Rechteck_625" data-name="Rechteck 625" width="416.469" height="37.609" fill="none"/>
    </clipPath>
    <clipPath id="clip-path-37">
      <path id="Pfad_4657" data-name="Pfad 4657" d="M216.4,885.664c-26.915,1.5-56.635.549-80.55,2.939-24.7,2.469-52.639,10.692-62.005,15.78-5.629,3.058-13.673,7.318-12.862,11.673,1.243,6.669,20.491,9,20.166,18.481-.259,7.562,23.6,9.25,36.314,11.822,15.384,3.111,13.993,8.476,32.808,7.62,18.134-.825,21.986-5.2,43.278-2.053,6.065.9,9.751,2.953,24.07,4.157a109.838,109.838,0,0,0,11.44-.015c4.011-.132,8-.263,10.976-.043,14.8,1.1,22.835,5.86,37.7,6.647,9.406.5,27.493-.158,36.835-.974,10.981-.959,19.169-5.532,29.847-7.265,26.235-4.256,43.805-16.448,63.934-6.1,14.67-1.872,38.417-6.249,47.952-10.41,14.724-6.425,15.457-11.449,19.575-18.517,2.193-3.765,2.175-6.838-1.464-10.226-5.244-4.88-20.019-10.316-35.119-10.851-16.251-.576-30.5-8.175-37.849-10.378-10.462-3.137-51.237-1.847-64.853-1.034-14.2.848-23.41-.236-34.024-.964-11.794-.809-19-.69-28.545-2.439a88.735,88.735,0,0,0-15.982-1.335c-14.71,0-29.247,2.79-41.64,3.483" transform="translate(-60.924 -882.181)" fill="none"/>
    </clipPath>
    <clipPath id="clip-path-38">
      <path id="Pfad_4659" data-name="Pfad 4659" d="M411.8,956.956q8.123-.2,16.243-.454c4.478-.135,9.056-.107,13.47-.639,5.485-.66,12.709-2.606,12.347-6.853,8.717.166,17.439.222,26.146.121q1.917-.022,3.835-.061c3.619,2.162,5.907,5.469,3.747,8.5-.962,1.8-9.339,3.387-13.2,3.75-16.458,1.551-25.122,1.878-41.664,3.035-15.857,1.109-37.977.558-53.935.914a331.714,331.714,0,0,1-48.112-2,333.559,333.559,0,0,1-44.918-9.258q-6.877-1.834-13.711-3.738,2.225-.228,4.449-.462,3.155.493,6.309.985a552.177,552.177,0,0,0,63.683,6.074c10.415.4,20.845.557,31.272.557,11.352,0,22.7-.19,34.036-.474m-148.557-9.143c3.235.459,6.462.947,9.685,1.446q-1.661.171-3.324.338-3.183-.888-6.361-1.783M214.614,953c-5.389-.061-10.777-.314-16.115-.833q-3.891-.378-7.732-.95a23.653,23.653,0,0,1-3.77-.726c-1.246-.408-2.8-1.384-1.241-2.19a11.309,11.309,0,0,1,3.173-.726q1.908-.3,3.828-.56,4.227-.582,8.5-1.006c5.391-.535,10.83-.887,16.284-1.053a243.073,243.073,0,0,1,33.417,1.3q3.125.337,6.231.736,5.045,1.42,10.093,2.833-10.377,1.024-20.8,1.852c-9.672.753-19.405,1.333-29.165,1.333q-1.353,0-2.706-.015m99.755.915c-11.579-1.091-22.962-2.72-34.333-4.475,22.575-2.426,45.044-5.243,67.715-7.3,28.742,3.218,57.763,5.34,86.864,6.351q8.921.31,17.862.5c.166,2.182-2.52,3.987-5.741,4.9-4.388,1.249-9.182,1.37-13.91,1.515-13.1.4-26.208.774-39.324.965q-8.486.124-16.989.13c-20.769,0-41.552-.644-62.143-2.585m139.3-5.826c-1.565-4.689-11.465-6.2-17.49-7.382q-1.374-.269-2.752-.529a311.89,311.89,0,0,1,31.564,3.771c5.775,1.005,12.1,1.971,17.086,4.206l.1.044q-4.345.068-8.683.064h-.1q-9.86,0-19.721-.174m-70.809-3.474q-15.335-1.231-30.579-2.88c24.637-2.121,49.631-3.255,74.5-1.963q6.283,1.13,12.508,2.393c4.449.9,10.256,2.169,12.465,5.089a4.027,4.027,0,0,1,.482.808q-34.775-.66-69.378-3.447m-90.983-11.17c-.3-2.07,9.313-2.843,15-2.916,26.046-.336,49.9.309,75.651,2.984q19.012,1.975,37.689,5.117-5.724-.2-11.451-.247c-20.4-.17-40.729,1.046-60.883,2.869-22.687-.978-55.714-5.737-56.009-7.807M310.66,915.5c-21.986.79-43.892,2.392-65.572,4.79q-7.9.874-15.75,1.9-4.2.545-8.393,1.132a45.872,45.872,0,0,0-6.573,1.186c-3.366,1-5.267,3-4.613,5.406.7,2.588,3.725,4.409,7.151,5.647,4.513,1.63,9.507,2.793,14.243,4.122l15.451,4.336,5,1.405c-4.8-.526-9.624-.942-14.488-1.19a239.118,239.118,0,0,0-39.487,1.251q-4.6.531-9.147,1.236c-1.759.274-4.1.594-4.691,1.879-1.414,3.089,8.01,3.709,10.7,4.037a222.4,222.4,0,0,0,37.592.9c12.616-.615,25.167-1.763,37.654-3.027q3.608,1.007,7.222,2.007c19.5,5.388,39.42,10.316,60.474,12.335a495.558,495.558,0,0,0,65.35,1.756c22.425-.733,35.518-1.395,62.843-3.135,5.6-.357,10.981-1.957,16.534-2.514.918-.092,5.991-1.484,7.169-3.77a4.6,4.6,0,0,0,.216-3.6,8.9,8.9,0,0,0-3.816-4.565c11.326,1.862,32.64,1.119,38.67-3.982.161-.137.5-.248.456-.435-1.326-6.148-12.4-8.205-20.261-9.647-22.129-4.06-44.63-7.231-67.346-9.5-22.658-2.26-45.5-3.568-68.388-3.981-.435-.008-.388.422.04.432q18.849.465,37.622,1.739c21.993,1.457,43.856,3.759,65.459,6.854q16.124,2.31,32.026,5.23c7.079,1.3,17.849,3.109,19.417,8.589-8.232,5.389-28,5.176-39.173,3.828-3.956-2.081-9.372-3.246-14.149-4.168a315.75,315.75,0,0,0-43.6-5.094q-10.6-1.891-21.354-3.409a618.147,618.147,0,0,0-62.96-5.577q-16.141-.607-32.318-.327c-2.113.034-22.711.548-19.732,4.139,3.3,3.977,38.554,6.92,53.394,7.931-21.442,2.029-42.727,4.643-64.1,6.923q-1.467.157-2.935.31l-.693-.109c-6.219-.973-12.452-1.919-18.725-2.71q-7.875-2.228-15.752-4.451c-7.366-2.069-14.905-3.98-22.13-6.249-3.11-.977-6.286-2.285-7.622-4.444-1.514-2.446-.038-4.724,3.693-5.729a85.375,85.375,0,0,1,10.637-1.656q6.048-.8,12.123-1.519,12.007-1.417,24.1-2.519,24.186-2.194,48.619-3.07a902.03,902.03,0,0,1,97.528,1.691c.742.054.988-.679.242-.733-10.479-.761-20.94-1.431-31.465-1.829q-16.985-.642-34-.641-16.209,0-32.39.581" transform="translate(-183.643 -914.92)" fill="none"/>
    </clipPath>
    <radialGradient id="radial-gradient" cx="0.5" cy="0.5" r="1.661" gradientTransform="matrix(-0.212, 0.033, -0.004, -0.646, -0.165, 8.138)" gradientUnits="objectBoundingBox">
      <stop offset="0" stop-color="#c8e1e5"/>
      <stop offset="0.091" stop-color="#d1e6e9"/>
      <stop offset="0.243" stop-color="#ebf4f5"/>
      <stop offset="0.337" stop-color="#fff"/>
      <stop offset="0.58" stop-color="#e9f3f4"/>
      <stop offset="0.693" stop-color="#deedef"/>
      <stop offset="0.967" stop-color="#fbfcfd"/>
      <stop offset="1" stop-color="#fff"/>
    </radialGradient>
    <clipPath id="clip-path-39">
      <path id="Pfad_2993" data-name="Pfad 2993" d="M1349.852,471.676a204.061,204.061,0,0,0-50.651,12.712c-11.752,4.671-24.912,3.519-38.963,2.663-12.093-.736-24.288,6.548-37.374,10.153-14.731,4.057-36.462,1.312-51.263,6.687-19.188,6.968-32.2,14.891-53.492,26.188-27.3,14.487-59.906,48.436-108.208,46.826-43.716-1.457-66.671,24.907-69.234,25.762-21.5,7.166-20.932,33.812-38.642,30.592-29.7-5.4-46.693,6.441-69.234,20.931-4.275,2.748-30.646,12.958-49.287,12.958-5.728.665-23.4,4.232-31.53,2.867-13.537.291-11.832,9.137-27.231,8.6-.658-.067-2.358.911-4.808,1.89-5.1,2.037-13.45,4.075-22.423-3.324-1.1-.908-20.382.162-37.531,1.232-12.713.793-24.255,1.586-26.348,1.573-6.965-3.1-5.381-2.23-15.693-2.151-17.665.289-41.37-18.385-42.708-18.857-28.81-10.168-51.607-8.517-62.7-6.779-56.615,1.661-67.729-17.654-114.282-17.818-15.313.087-31.593-.735-46.758-1.558-23.78-1.29-44.814-2.581-55.065-.363-34.307,2.99-32.19,6.872-62.438,3.842-15.478-1.37-32.561-2.128-50.911-7.685-1.6-1.21-5.414-.764-10.318-.319-6.159.559-14.034,1.118-21.381-1.6-16.16-7.117-26.422-3.515-35.47.087-8.188,3.26-15.381,6.52-25.047,1.834-28.077-13.972-45.3-9.057-62.429-4.143C19.446,627.049,10.488,629.625,0,629.48v13.268c11.412.158,18.836-4.035,25.9-8.229,11.812-7.011,22.622-14.023,49.4-.7,9.66,4.683,18.826,1.531,29.085-1.622,11.349-3.487,24.034-6.973,40.2.147,13.2,4.886,45.047,6.115,48.649,8.845,11.329,3.43,25.246,2.665,37.88,1.9,7.83-.475,15.166-.949,21.089-.425,30.247,3.029,27.609-2.907,61.917-5.9,9.253-2,21.914,1.575,38,5.151,13.1,2.913,28.471,5.825,46.121,5.726,46.553.163,42.066,14.372,98.681,12.71,11.1-1.738,43.426-7.22,72.236,2.948,1.338.472,23.613,20.927,41.278,20.639,10.312-.079,22.519,1.326,29.484,4.422,4.918.031,55.669.5,57.586,2.079,8.973,7.4,17.323,5.361,22.423,3.324,2.45-.979,4.15-1.958,4.808-1.89,15.4.538,12.212-9.118,25.748-9.41,8.131,1.367,25.23-8.179,30.958-8.845,18.64,0,47.066-3.42,51.341-6.169,22.542-14.491,32.472-36.086,62.173-30.686,17.711,3.22,31.1-3.507,45.7-20.837,14.74-17.493,27.348-30.469,60.44-29.287,82.555,2.948,80.314-29.739,107.617-44.226,21.292-11.3,35.358-21.042,54.546-28.01,7.878-2.861,20.08-2.643,31.992-2.425,10.467.191,20.712.383,27.6-1.515,13.086-3.6,22.663-18.909,34.756-18.174,14.051.856,50.164,1.723,61.916-2.948,12.108-4.812,15.23-4.483,19.918-4.156a49.007,49.007,0,0,0,10.4-.25c19.221-2.316,32.148-1.218,32.148-1.218V470.458s-3.064-.26-8.425-.26a200.1,200.1,0,0,0-23.723,1.478" transform="translate(0 -470.198)" fill="none"/>
    </clipPath>
    <linearGradient id="linear-gradient-3" y1="3.87" x2="0" y2="3.87" gradientUnits="objectBoundingBox">
      <stop offset="0" stop-color="#dbffff"/>
      <stop offset="0.102" stop-color="#e4ffff"/>
      <stop offset="0.329" stop-color="#f3ffff"/>
      <stop offset="0.596" stop-color="#fcffff"/>
      <stop offset="1" stop-color="#fff"/>
    </linearGradient>
  </defs>
  <g id="Gruppe_maskieren_594" data-name="Gruppe maskieren 594" transform="translate(15214 -14397)" clip-path="url(#clip-path)">
    <g id="Gruppe_1520" data-name="Gruppe 1520">
      <g id="bg" transform="translate(-15214 14397.575)">
        <g id="Layer_2">
          <g id="background">
            <rect id="Rechteck_228" data-name="Rechteck 228" width="1366" height="1024" fill="#8edee2"/>
            <g id="Gruppe_413" data-name="Gruppe 413">
              <rect id="Rechteck_229" data-name="Rechteck 229" width="1366" height="1024" opacity="0.53" fill="url(#linear-gradient)"/>
            </g>
          </g>
        </g>
      </g>
      <g id="Gruppe_1499" data-name="Gruppe 1499" transform="translate(-15213.875 14471.68)">
        <g id="Gruppe_806" data-name="Gruppe 806" transform="translate(0 0)" clip-path="url(#clip-path-2)">
          <path id="Pfad_2981" data-name="Pfad 2981" d="M1462.98,553.419c-1.8-3.926-8.9-15.21-10.78-19.9,1.643-.235,4.068-.286,3.989-.7-.7-3.754-11.263-22.527-14.549-23.7-2.254-.8-11.714,17.777-13.845,24.17-.093.279,3.989.235,4.928.469-2.346,4.224-4.458,10.56-7.744,17.834-.4.882,2.816,1.877,5.557,1.861-4.215,5.626-8.364,11.752-13.4,17.565-1.467,1.954,3.216,1.5,5.96,1.462,1.421-.017,7.425.177,11.374.094.237-.2,6.9.217,13.383.323,4.77.078,17.634,1.262,16.538-1.776-1.459-4.851-6.407-10.572-8.351-16.143,1.445-.261,5.545-.336,6.938-1.552m-4.116.4.009.012h-.012l0-.013m-3.057-19c0-.014,0-.028.006-.043l.031.04-.037,0" transform="translate(-649.012 -174.07)" fill="#609597" opacity="0.28"/>
          <g id="Gruppe_787" data-name="Gruppe 787" transform="translate(-620.75 360.069)" opacity="0.7">
            <g id="Gruppe_786" data-name="Gruppe 786">
              <g id="Gruppe_785" data-name="Gruppe 785" clip-path="url(#clip-path-3)">
                <path id="Pfad_2982" data-name="Pfad 2982" d="M493.723,561.853c-6.242-13.289-17.826-24.094-25.517-37.485,2.971-.636,17.158,1.663,12.1-3.568-10.755-14.2-20.348-27.159-30.738-41.931-2.794-6.074-22.814,25.814-24.874,27.469-10.08,14.475-12.206,12.283,4.665,15.517-7.562,10.074-14.025,20.179-20.747,31.209-.795,1.305-3.074,4.831-3.25,5.8,0,.615,4.015,1.11,9.926,2.02,3.854.594,8.165,1,8.394,1.028-9.326,12.461-18.381,25.8-28.924,37.921-3.914,4.819,9.959,3.411,12.866,3.155a.958.958,0,0,0,1.658-.078c6.926.569,15.564.459,22.9.282,2.738-.206,25.434,5.419,20.6-.629,15.29-1.048,31.626,3.342,32.825-.089,2.733-.518,7.337,1.552,5.042-4.113-3.306-11-7.892-21.6-11.9-33.157,4.294-.319,13.4.732,14.979-3.351m-15.484-40.17c0-.031.011-.061.014-.092l.067.088-.08,0" transform="translate(-394.069 -478.101)" fill="#61969e"/>
              </g>
            </g>
          </g>
          <g id="Gruppe_790" data-name="Gruppe 790" transform="translate(694.633 304.408)" opacity="0.48">
            <g id="Gruppe_789" data-name="Gruppe 789" transform="translate(0 0)">
              <g id="Gruppe_788" data-name="Gruppe 788" clip-path="url(#clip-path-4)">
                <path id="Pfad_2983" data-name="Pfad 2983" d="M1320.1,531.3c-4.586-11.349-13.1-20.576-18.748-32.012,2.183-.544,12.607,1.42,8.89-3.047-7.9-12.13-14.95-23.194-22.583-35.809-2.052-5.187-16.762,22.045-18.276,23.459-7.406,12.362-8.968,10.49,3.428,13.252-5.556,8.6-10.3,17.233-15.243,26.653a35.383,35.383,0,0,0-2.388,4.951c0,.525,2.95.948,7.292,1.725,2.832.507,6,.853,6.168.878-6.852,10.642-13.505,22.036-21.25,32.384-2.876,4.115,7.317,2.913,9.453,2.7a.659.659,0,0,0,1.218-.067,147.271,147.271,0,0,0,16.822.241c2.012-.176,18.688,4.628,15.137-.537,11.234-.895,23.236,2.854,24.117-.076,2.008-.442,5.391,1.325,3.7-3.512-2.429-9.395-5.8-18.449-8.746-28.317,3.154-.272,9.846.625,11.005-2.862m-6.528.731.015.021-.018,0c0-.008,0-.015,0-.023M1308.724,497c0-.026.008-.052.01-.079l.049.075-.059,0" transform="translate(-1246.881 -459.78)" fill="#61969e"/>
              </g>
            </g>
          </g>
          <path id="Pfad_2984" data-name="Pfad 2984" d="M280.566,434.79c-5.9-12.527-16.784-22.694-23.925-35.146,3-.474,15.762,1.279,11.543-3.089-10-13.085-18.969-25.5-28.652-38.953-1.882-8.5-25.126,28.257-26.436,29.031-9.682,11.113-1.661,8.226,7.122,10.655-7.131,9.5-19.9,34.83-20,35.767,0,1.412,16.121,1.061,16.664,1.13-8.784,11.741-15.535,23.16-25.138,37.565-1.587,2.38,7.731,2.467,23.465,3.664,17.84,1.357,38.392,2.063,42.063,1.985,3.351-.068,20.054-.847,21.184-1.977-3.107-12.145-8.271-26.931-11.936-37.492,4.548-.022,13.755.033,14.044-3.142m-8.33.8.019.023-.023,0c0-.009,0-.017,0-.025m-6.188-38.466c0-.029.011-.057.013-.086l.062.082-.075,0" transform="translate(-170.555 -118.653)" fill="#61969e" opacity="0.37"/>
          <path id="Pfad_2985" data-name="Pfad 2985" d="M1119.343,502.315c-6.144-13.041-17.473-23.625-24.907-36.588,3.128-.494,16.408,1.332,12.017-3.216-10.41-13.621-19.748-26.551-29.828-40.551-1.959-8.845-26.157,29.417-27.52,30.222-10.079,11.569-1.729,8.564,7.415,11.092-7.424,9.889-20.716,36.259-20.818,37.235,0,1.47,16.781,1.1,17.348,1.176-9.144,12.222-16.172,24.111-26.169,39.106-1.652,2.478,8.048,2.568,24.428,3.814,18.572,1.412,39.967,2.148,43.788,2.067,3.488-.071,20.876-.882,22.052-2.058-3.234-12.644-8.61-28.035-12.425-39.03,4.734-.022,14.319.034,14.62-3.271m-8.672.835.02.024-.024,0,0-.026m-6.442-40.044c0-.03.011-.06.013-.09l.065.085-.078,0" transform="translate(-450.967 -147.568)" fill="#61969e" opacity="0.56"/>
          <g id="Gruppe_793" data-name="Gruppe 793" transform="translate(1572.435 184.698)" opacity="0.6">
            <g id="Gruppe_792" data-name="Gruppe 792">
              <g id="Gruppe_791" data-name="Gruppe 791" clip-path="url(#clip-path-5)">
                <path id="Pfad_2986" data-name="Pfad 2986" d="M2262.941,282.383c-5.165-10.962-14.688-19.859-20.937-30.756,2.629-.415,13.793,1.12,10.1-2.7-8.75-11.45-16.6-22.318-25.073-34.087-1.647-7.435-21.988,24.728-23.134,25.405-8.472,9.725-1.453,7.2,6.233,9.324-6.24,8.313-17.413,30.479-17.5,31.3,0,1.236,14.106.929,14.583.989-7.687,10.274-13.594,20.268-22,32.873-1.388,2.083,6.765,2.159,20.535,3.206,15.611,1.188,33.6,1.806,36.808,1.738,2.932-.059,17.549-.742,18.537-1.73-2.719-10.628-7.238-23.566-10.445-32.808,3.98-.019,12.037.029,12.29-2.749m-7.29.7.017.02-.02,0c0-.007,0-.015,0-.022m-5.414-33.661c0-.025.009-.05.011-.075l.055.072-.066,0" transform="translate(-2185.061 -213.721)" fill="#61969e"/>
              </g>
            </g>
          </g>
          <g id="Gruppe_796" data-name="Gruppe 796" transform="translate(971.788 213.91)" opacity="0.7">
            <g id="Gruppe_795" data-name="Gruppe 795">
              <g id="Gruppe_794" data-name="Gruppe 794" clip-path="url(#clip-path-6)">
                <path id="Pfad_2987" data-name="Pfad 2987" d="M1781.674,452.567c-4.906-12.241-13.951-22.176-19.886-34.344,2.5-.463,13.1,1.25,9.594-3.018-8.312-12.786-15.767-24.922-23.815-38.063-1.564-8.3-20.884,27.613-21.973,28.369-8.047,10.859-1.38,8.038,5.92,10.412-5.927,9.283-16.539,34.035-16.622,34.951,0,1.38,13.4,1.037,13.851,1.1-7.3,11.473-12.911,22.632-20.894,36.708-1.319,2.326,6.426,2.411,19.5,3.58,14.828,1.326,31.91,2.016,34.961,1.94,2.785-.066,16.668-.828,17.607-1.932-2.582-11.868-6.874-26.316-9.92-36.636,3.78-.021,11.432.031,11.673-3.07m-6.924.784.016.023-.019,0c0-.009,0-.016,0-.025m-5.143-37.588c0-.028.009-.056.011-.084l.052.08-.063,0" transform="translate(-1707.702 -375.898)" fill="#61969e"/>
              </g>
            </g>
          </g>
          <g id="Gruppe_799" data-name="Gruppe 799" transform="translate(916.099 257.182)" opacity="0.7">
            <g id="Gruppe_798" data-name="Gruppe 798">
              <g id="Gruppe_797" data-name="Gruppe 797" clip-path="url(#clip-path-7)">
                <path id="Pfad_2988" data-name="Pfad 2988" d="M1669.49,513.772c-3.956-9.871-11.25-17.882-16.036-27.695,2.015-.374,10.564,1.008,7.738-2.434-6.7-10.311-12.714-20.1-19.2-30.695-1.261-6.7-16.841,22.267-17.718,22.876-6.49,8.757-1.114,6.482,4.774,8.4-4.78,7.485-13.338,27.446-13.4,28.184,0,1.113,10.8.836,11.17.891-5.888,9.252-10.412,18.25-16.849,29.6-1.063,1.875,5.181,1.943,15.727,2.887,11.958,1.069,25.732,1.626,28.193,1.564,2.246-.053,13.441-.668,14.2-1.558-2.083-9.57-5.544-21.221-8-29.543,3.048-.017,9.219.026,9.413-2.476m-5.583.632c0,.006.009.012.012.018l-.015,0,0-.02m-4.147-30.311c0-.023.007-.045.008-.068l.043.065-.051,0" transform="translate(-1609.84 -451.942)" fill="#61969e"/>
              </g>
            </g>
          </g>
          <g id="Gruppe_802" data-name="Gruppe 802" transform="translate(484.469 315.54)" opacity="0.35">
            <g id="Gruppe_801" data-name="Gruppe 801" transform="translate(0 0)">
              <g id="Gruppe_800" data-name="Gruppe 800" clip-path="url(#clip-path-8)">
                <path id="Pfad_2989" data-name="Pfad 2989" d="M977.47,558.13c-3.122-7.667-8.879-13.889-12.658-21.51,1.59-.29,8.339.783,6.107-1.891-5.291-8.008-10.036-15.609-15.159-23.84-1-5.2-13.293,17.294-13.986,17.768-5.123,6.8-.879,5.035,3.768,6.521-3.773,5.814-10.528,21.316-10.58,21.89,0,.864,8.528.649,8.816.691-4.647,7.186-8.219,14.175-13.3,22.991-.84,1.457,4.09,1.51,12.414,2.242,9.439.831,20.311,1.263,22.253,1.215,1.773-.042,10.609-.519,11.207-1.21-1.643-7.433-4.376-16.482-6.315-22.946,2.406-.013,7.277.02,7.43-1.923m-4.407.491.01.014h-.013l0-.016m-3.274-23.542c0-.017.005-.035.007-.053l.033.05-.04,0" transform="translate(-930.386 -510.11)" fill="#61969e"/>
              </g>
            </g>
          </g>
          <path id="Pfad_2990" data-name="Pfad 2990" d="M1339.571,432.182c-26.041,3.462-81.576.207-107.646,6.725-38.188,9.547-54.384,25.623-107.4,38.188-27.273,7.707-69.216,9.547-119.338,23.868-26.04,7.44-47.929,15.736-71.6,28.641C915,539.731,882.963,551.165,861.98,548.7c-40.575-4.773-78.762,11.934-109.79,21.481-19.49,6-73.989,14.32-105.016,2.387-34.336-13.206-75.336-16.178-112.177-9.547-27.139,4.885-71.806,6.759-95.469,9.547-29.781,3.508-58.92,8.666-83.536,9.547-41.836,1.5-64.442-4.774-93.085-9.372-12.7-2.038-21.017-5.538-33.412-12.109-24.988-13.845-53.294-16.332-76.986-32.279-44.011-13.2-59.162-27.58-89.627-40.047C43.965,482.9,20.589,481.139,0,480.828v843.311H1365.749V431.78c-8.707.024-17.62-.5-26.178.4" transform="translate(0 -186.015)" fill="#8fd3de"/>
          <g id="Gruppe_805" data-name="Gruppe 805" transform="translate(0 255.736)" opacity="0.48" style="mix-blend-mode: multiply;isolation: isolate">
            <g id="Gruppe_804" data-name="Gruppe 804">
              <g id="Gruppe_803" data-name="Gruppe 803" clip-path="url(#clip-path-9)">
                <path id="Pfad_2991" data-name="Pfad 2991" d="M1336.726,451.732c-124,22.7-123.7,5.722-133.161,18.779-.569,0-2.276-.569-2.845,0v2.276c-11.607,1.467-25.691,3.589-35.851,7.4v2.276c-16.861-1.632-24.23,5.144-35.851,4.552-2.66,4.535-9.384.546-13.813,4.237-7.915,4.76-10.487,7.372-22.691,9.841-4.644,1.255-8.9,3.294-13.573,9.823-4.006.757-4.2,4.025-8.275,7.572-4.669,4.371-7.183,5.942-14.9,6.474-8.779.089-9.488.177-12.677,3.026-12.035,9.625-35.917,2.9-42.68,21.055-14.277,2.461-18.677,3.181-26.583,10.1-5.495,4.048-15.833,4.14-22.4,4.282a32.4,32.4,0,0,0-10.116.017C932,566.057,918.163,571,907.293,586.807c-8.748,21.28-33.82,3.507-50.817,8.6-2.115,1.068-1.717,2.965-6.3,3.714-45.124,7.374-40.034,29.692-62.187,33.6-31.512,5.565-75.231,14.163-107.35,3.633-20.852-7.5-30.008,4.132-41.3,3.747-12.934.4-23.685,1.822-35.039-3.015-26.863,2.621-29.112-11.564-45.5-17.029-37.35-10.116-76.091,4.464-114.363-2.164-2.6-.492-4.619-5.586-9.674-5.119-2.634-2.666-6.408-1.45-9.674-1.707v-2.276c-16.6-2.125-33.786,1.852-50.844,2.051-27.657-3.707-32.952-1-45.724-2.45-6.4-4.139-14.742-.946-22.335-1.687-23.758-3.874-30.514-1.119-45.557-2.466l-2.276-2.276c-9.1-.569-19.348,2.845-26.177-1.138-10.243-6.26-19.917-5.691-31.3-6.26-2.8-4.34-9.507-1.372-14.306-2.4-16.465-1.15-39.681.456-43.169,4.678a237.31,237.31,0,0,1-28.453,0c-3.78-4.545-12.518-.751-17.766-3.433-48.128-18.834-42.456-12.069-82.389-3.4v2.276C2.16,591.638,10,594.455,0,595V1331.79H1365.749V449.4c-9.015,1.53-19.5,1.553-29.023,2.328" transform="translate(0 -449.402)" fill="#76becd"/>
              </g>
            </g>
          </g>
        </g>
      </g>
      <g id="Gruppe_1500" data-name="Gruppe 1500" transform="translate(-15227.155 14263.446)">
        <g id="Gruppe_808" data-name="Gruppe 808" transform="translate(0 470.198)" clip-path="url(#clip-path-10)">
          <rect id="Rechteck_363" data-name="Rechteck 363" width="1379.155" height="879.098" fill="url(#linear-gradient-2)"/>
        </g>
      </g>
      <g id="Gruppe_1504" data-name="Gruppe 1504" transform="translate(-15214 14398.575)">
        <g id="Gruppe_437" data-name="Gruppe 437" transform="translate(610.521 322.728) rotate(19)">
          <g id="Gruppe_327" data-name="Gruppe 327" clip-path="url(#clip-path-11)">
            <path id="Pfad_1190" data-name="Pfad 1190" d="M5.111,2.555A2.555,2.555,0,1,1,2.555,0,2.555,2.555,0,0,1,5.111,2.555" transform="translate(9.526 44.913)" fill="#f4f4f3"/>
            <path id="Pfad_1191" data-name="Pfad 1191" d="M8.6,4.3A4.3,4.3,0,1,1,4.3,0,4.3,4.3,0,0,1,8.6,4.3" transform="translate(10.179 0)" fill="#f4f4f3"/>
            <path id="Pfad_1192" data-name="Pfad 1192" d="M7.148,3.573A3.574,3.574,0,1,1,3.575,0,3.573,3.573,0,0,1,7.148,3.573" transform="translate(25.295 29.505)" fill="#f4f4f3"/>
            <path id="Pfad_1193" data-name="Pfad 1193" d="M5.485,2.742A2.742,2.742,0,1,1,2.742,0,2.742,2.742,0,0,1,5.485,2.742" transform="translate(48.909 8.752)" fill="#f4f4f3"/>
            <path id="Pfad_1194" data-name="Pfad 1194" d="M8.072,4.036A4.036,4.036,0,1,1,4.036,0,4.036,4.036,0,0,1,8.072,4.036" transform="translate(22.434 85.401)" fill="#f4f4f3"/>
            <path id="Pfad_1195" data-name="Pfad 1195" d="M4.722,2.361A2.361,2.361,0,1,1,2.361,0,2.362,2.362,0,0,1,4.722,2.361" transform="translate(0.127 133.841)" fill="#f4f4f3"/>
            <path id="Pfad_1196" data-name="Pfad 1196" d="M5.245,2.622A2.622,2.622,0,1,1,2.622,0,2.623,2.623,0,0,1,5.245,2.622" transform="translate(13.056 181.545)" fill="#f4f4f3"/>
            <path id="Pfad_1197" data-name="Pfad 1197" d="M4.976,2.488A2.488,2.488,0,1,1,2.488,0,2.488,2.488,0,0,1,4.976,2.488" transform="translate(0 202.064)" fill="#f4f4f3"/>
            <path id="Pfad_1198" data-name="Pfad 1198" d="M5.744,2.872A2.872,2.872,0,1,1,2.872,0,2.872,2.872,0,0,1,5.744,2.872" transform="translate(16.404 158.512)" fill="#f4f4f3"/>
          </g>
        </g>
        <g id="Gruppe_327-2" data-name="Gruppe 327" transform="translate(359.194 38.164)" clip-path="url(#clip-path-12)">
          <path id="Pfad_1190-2" data-name="Pfad 1190" d="M15.789,41.377a3.922,3.922,0,1,1-3.922-3.922,3.922,3.922,0,0,1,3.922,3.922" transform="translate(6.678 31.484)" fill="#f4f4f3"/>
          <path id="Pfad_1191-2" data-name="Pfad 1191" d="M21.69,6.6a6.6,6.6,0,1,1-6.6-6.6,6.6,6.6,0,0,1,6.6,6.6" transform="translate(7.136)" fill="#f4f4f3"/>
          <path id="Pfad_1192-2" data-name="Pfad 1192" d="M32.067,30.091a5.486,5.486,0,1,1-5.485-5.485,5.484,5.484,0,0,1,5.485,5.485" transform="translate(17.732 20.683)" fill="#f4f4f3"/>
          <path id="Pfad_1193-2" data-name="Pfad 1193" d="M49.207,11.508A4.209,4.209,0,1,1,45,7.3a4.21,4.21,0,0,1,4.209,4.209" transform="translate(34.285 6.135)" fill="#f4f4f3"/>
          <path id="Pfad_1194-2" data-name="Pfad 1194" d="M31.1,77.415a6.2,6.2,0,1,1-6.2-6.2,6.2,6.2,0,0,1,6.2,6.2" transform="translate(15.726 59.866)" fill="#f4f4f3"/>
          <path id="Pfad_1195-2" data-name="Pfad 1195" d="M7.354,115.241a3.624,3.624,0,1,1-3.624-3.624,3.625,3.625,0,0,1,3.624,3.624" transform="translate(0.089 93.823)" fill="#f4f4f3"/>
          <path id="Pfad_1196-2" data-name="Pfad 1196" d="M22.412,157.161" transform="translate(5.679 125.526)" fill="#f4f4f3"/>
          <path id="Pfad_1197-2" data-name="Pfad 1197" d="M7.638,172.33a3.819,3.819,0,1,1-3.819-3.819,3.819,3.819,0,0,1,3.819,3.819" transform="translate(0 141.646)" fill="#f4f4f3"/>
          <path id="Pfad_1198-2" data-name="Pfad 1198" d="M22.5,136.6a4.408,4.408,0,1,1-4.408-4.408A4.409,4.409,0,0,1,22.5,136.6" transform="translate(11.499 111.117)" fill="#f4f4f3"/>
        </g>
        <g id="Gruppe_343" data-name="Gruppe 343" transform="translate(249.706 137.595)">
          <g id="Gruppe_327-3" data-name="Gruppe 327" clip-path="url(#clip-path-12)">
            <path id="Pfad_1190-3" data-name="Pfad 1190" d="M15.789,41.377a3.922,3.922,0,1,1-3.922-3.922,3.922,3.922,0,0,1,3.922,3.922" transform="translate(6.678 31.484)" fill="#f4f4f3"/>
            <path id="Pfad_1191-3" data-name="Pfad 1191" d="M21.69,6.6a6.6,6.6,0,1,1-6.6-6.6,6.6,6.6,0,0,1,6.6,6.6" transform="translate(7.136)" fill="#f4f4f3"/>
            <path id="Pfad_1192-3" data-name="Pfad 1192" d="M32.067,30.091a5.486,5.486,0,1,1-5.485-5.485,5.484,5.484,0,0,1,5.485,5.485" transform="translate(17.732 20.683)" fill="#f4f4f3"/>
            <path id="Pfad_1193-3" data-name="Pfad 1193" d="M49.207,11.508A4.209,4.209,0,1,1,45,7.3a4.21,4.21,0,0,1,4.209,4.209" transform="translate(34.285 6.135)" fill="#f4f4f3"/>
            <path id="Pfad_1194-3" data-name="Pfad 1194" d="M31.1,77.415a6.2,6.2,0,1,1-6.2-6.2,6.2,6.2,0,0,1,6.2,6.2" transform="translate(15.726 59.866)" fill="#f4f4f3"/>
            <path id="Pfad_1195-3" data-name="Pfad 1195" d="M7.354,115.241a3.624,3.624,0,1,1-3.624-3.624,3.625,3.625,0,0,1,3.624,3.624" transform="translate(0.089 93.823)" fill="#f4f4f3"/>
            <path id="Pfad_1196-3" data-name="Pfad 1196" d="M18.939,155.424a4.025,4.025,0,1,1-4.025-4.025,4.026,4.026,0,0,1,4.025,4.025" transform="translate(9.152 127.263)" fill="#f4f4f3"/>
            <path id="Pfad_1197-3" data-name="Pfad 1197" d="M7.638,172.33a3.819,3.819,0,1,1-3.819-3.819,3.819,3.819,0,0,1,3.819,3.819" transform="translate(0 141.646)" fill="#f4f4f3"/>
            <path id="Pfad_1198-3" data-name="Pfad 1198" d="M22.5,136.6a4.408,4.408,0,1,1-4.408-4.408A4.409,4.409,0,0,1,22.5,136.6" transform="translate(11.499 111.117)" fill="#f4f4f3"/>
          </g>
        </g>
        <g id="Gruppe_355" data-name="Gruppe 355" transform="translate(459.623 -26.575)">
          <g id="Gruppe_327-4" data-name="Gruppe 327" clip-path="url(#clip-path-12)">
            <path id="Pfad_1190-4" data-name="Pfad 1190" d="M15.789,41.377a3.922,3.922,0,1,1-3.922-3.922,3.922,3.922,0,0,1,3.922,3.922" transform="translate(6.678 31.484)" fill="#f4f4f3"/>
            <path id="Pfad_1191-4" data-name="Pfad 1191" d="M21.69,6.6a6.6,6.6,0,1,1-6.6-6.6,6.6,6.6,0,0,1,6.6,6.6" transform="translate(7.136)" fill="#f4f4f3"/>
            <path id="Pfad_1192-4" data-name="Pfad 1192" d="M32.067,30.091a5.486,5.486,0,1,1-5.485-5.485,5.484,5.484,0,0,1,5.485,5.485" transform="translate(17.732 20.683)" fill="#f4f4f3"/>
            <path id="Pfad_1193-4" data-name="Pfad 1193" d="M49.207,11.508A4.209,4.209,0,1,1,45,7.3a4.21,4.21,0,0,1,4.209,4.209" transform="translate(34.285 6.135)" fill="#f4f4f3"/>
            <path id="Pfad_1194-4" data-name="Pfad 1194" d="M31.1,77.415a6.2,6.2,0,1,1-6.2-6.2,6.2,6.2,0,0,1,6.2,6.2" transform="translate(15.726 59.866)" fill="#f4f4f3"/>
            <path id="Pfad_1195-4" data-name="Pfad 1195" d="M7.354,115.241a3.624,3.624,0,1,1-3.624-3.624,3.625,3.625,0,0,1,3.624,3.624" transform="translate(0.089 93.823)" fill="#f4f4f3"/>
            <path id="Pfad_1196-4" data-name="Pfad 1196" d="M18.939,155.424a4.025,4.025,0,1,1-4.025-4.025,4.026,4.026,0,0,1,4.025,4.025" transform="translate(9.152 127.263)" fill="#f4f4f3"/>
            <path id="Pfad_1197-4" data-name="Pfad 1197" d="M7.638,172.33a3.819,3.819,0,1,1-3.819-3.819,3.819,3.819,0,0,1,3.819,3.819" transform="translate(0 141.646)" fill="#f4f4f3"/>
            <path id="Pfad_1198-4" data-name="Pfad 1198" d="M22.5,136.6a4.408,4.408,0,1,1-4.408-4.408A4.409,4.409,0,0,1,22.5,136.6" transform="translate(11.499 111.117)" fill="#f4f4f3"/>
          </g>
        </g>
        <g id="Gruppe_435" data-name="Gruppe 435" transform="translate(724.538 38.164)">
          <g id="Gruppe_327-5" data-name="Gruppe 327" clip-path="url(#clip-path-12)">
            <path id="Pfad_1190-5" data-name="Pfad 1190" d="M15.789,41.377a3.922,3.922,0,1,1-3.922-3.922,3.922,3.922,0,0,1,3.922,3.922" transform="translate(6.678 31.484)" fill="#f4f4f3"/>
            <path id="Pfad_1191-5" data-name="Pfad 1191" d="M21.69,6.6a6.6,6.6,0,1,1-6.6-6.6,6.6,6.6,0,0,1,6.6,6.6" transform="translate(7.136)" fill="#f4f4f3"/>
            <path id="Pfad_1192-5" data-name="Pfad 1192" d="M32.067,30.091a5.486,5.486,0,1,1-5.485-5.485,5.484,5.484,0,0,1,5.485,5.485" transform="translate(17.732 20.683)" fill="#f4f4f3"/>
            <path id="Pfad_1193-5" data-name="Pfad 1193" d="M49.207,11.508A4.209,4.209,0,1,1,45,7.3a4.21,4.21,0,0,1,4.209,4.209" transform="translate(34.285 6.135)" fill="#f4f4f3"/>
            <path id="Pfad_1194-5" data-name="Pfad 1194" d="M31.1,77.415a6.2,6.2,0,1,1-6.2-6.2,6.2,6.2,0,0,1,6.2,6.2" transform="translate(15.726 59.866)" fill="#f4f4f3"/>
            <path id="Pfad_1195-5" data-name="Pfad 1195" d="M7.354,115.241a3.624,3.624,0,1,1-3.624-3.624,3.625,3.625,0,0,1,3.624,3.624" transform="translate(0.089 93.823)" fill="#f4f4f3"/>
            <path id="Pfad_1196-5" data-name="Pfad 1196" d="M18.939,155.424a4.025,4.025,0,1,1-4.025-4.025,4.026,4.026,0,0,1,4.025,4.025" transform="translate(9.152 127.263)" fill="#f4f4f3"/>
            <path id="Pfad_1197-5" data-name="Pfad 1197" d="M7.638,172.33a3.819,3.819,0,1,1-3.819-3.819,3.819,3.819,0,0,1,3.819,3.819" transform="translate(0 141.646)" fill="#f4f4f3"/>
            <path id="Pfad_1198-5" data-name="Pfad 1198" d="M22.5,136.6a4.408,4.408,0,1,1-4.408-4.408A4.409,4.409,0,0,1,22.5,136.6" transform="translate(11.499 111.117)" fill="#f4f4f3"/>
          </g>
        </g>
        <g id="Gruppe_445" data-name="Gruppe 445" transform="translate(1160.463 31.876)">
          <g id="Gruppe_327-6" data-name="Gruppe 327" clip-path="url(#clip-path-12)">
            <path id="Pfad_1190-6" data-name="Pfad 1190" d="M15.789,41.377a3.922,3.922,0,1,1-3.922-3.922,3.922,3.922,0,0,1,3.922,3.922" transform="translate(6.678 31.484)" fill="#f4f4f3"/>
            <path id="Pfad_1191-6" data-name="Pfad 1191" d="M21.69,6.6a6.6,6.6,0,1,1-6.6-6.6,6.6,6.6,0,0,1,6.6,6.6" transform="translate(7.136)" fill="#f4f4f3"/>
            <path id="Pfad_1192-6" data-name="Pfad 1192" d="M32.067,30.091a5.486,5.486,0,1,1-5.485-5.485,5.484,5.484,0,0,1,5.485,5.485" transform="translate(17.732 20.683)" fill="#f4f4f3"/>
            <path id="Pfad_1193-6" data-name="Pfad 1193" d="M49.207,11.508A4.209,4.209,0,1,1,45,7.3a4.21,4.21,0,0,1,4.209,4.209" transform="translate(34.285 6.135)" fill="#f4f4f3"/>
            <path id="Pfad_1194-6" data-name="Pfad 1194" d="M31.1,77.415a6.2,6.2,0,1,1-6.2-6.2,6.2,6.2,0,0,1,6.2,6.2" transform="translate(15.726 59.866)" fill="#f4f4f3"/>
            <path id="Pfad_1195-6" data-name="Pfad 1195" d="M7.354,115.241a3.624,3.624,0,1,1-3.624-3.624,3.625,3.625,0,0,1,3.624,3.624" transform="translate(0.089 93.823)" fill="#f4f4f3"/>
            <path id="Pfad_1196-6" data-name="Pfad 1196" d="M18.939,155.424a4.025,4.025,0,1,1-4.025-4.025,4.026,4.026,0,0,1,4.025,4.025" transform="translate(9.152 127.263)" fill="#f4f4f3"/>
            <path id="Pfad_1197-6" data-name="Pfad 1197" d="M7.638,172.33a3.819,3.819,0,1,1-3.819-3.819,3.819,3.819,0,0,1,3.819,3.819" transform="translate(0 141.646)" fill="#f4f4f3"/>
            <path id="Pfad_1198-6" data-name="Pfad 1198" d="M22.5,136.6a4.408,4.408,0,1,1-4.408-4.408A4.409,4.409,0,0,1,22.5,136.6" transform="translate(11.499 111.117)" fill="#f4f4f3"/>
          </g>
        </g>
        <g id="Gruppe_432" data-name="Gruppe 432" transform="translate(146.39 -11.283)">
          <g id="Gruppe_327-7" data-name="Gruppe 327" clip-path="url(#clip-path-12)">
            <path id="Pfad_1190-7" data-name="Pfad 1190" d="M15.789,41.377a3.922,3.922,0,1,1-3.922-3.922,3.922,3.922,0,0,1,3.922,3.922" transform="translate(6.678 31.484)" fill="#f4f4f3"/>
            <path id="Pfad_1191-7" data-name="Pfad 1191" d="M21.69,6.6a6.6,6.6,0,1,1-6.6-6.6,6.6,6.6,0,0,1,6.6,6.6" transform="translate(7.136)" fill="#f4f4f3"/>
            <path id="Pfad_1192-7" data-name="Pfad 1192" d="M32.067,30.091a5.486,5.486,0,1,1-5.485-5.485,5.484,5.484,0,0,1,5.485,5.485" transform="translate(17.732 20.683)" fill="#f4f4f3"/>
            <path id="Pfad_1193-7" data-name="Pfad 1193" d="M49.207,11.508A4.209,4.209,0,1,1,45,7.3a4.21,4.21,0,0,1,4.209,4.209" transform="translate(34.285 6.135)" fill="#f4f4f3"/>
            <path id="Pfad_1194-7" data-name="Pfad 1194" d="M31.1,77.415a6.2,6.2,0,1,1-6.2-6.2,6.2,6.2,0,0,1,6.2,6.2" transform="translate(15.726 59.866)" fill="#f4f4f3"/>
            <path id="Pfad_1195-7" data-name="Pfad 1195" d="M7.354,115.241a3.624,3.624,0,1,1-3.624-3.624,3.625,3.625,0,0,1,3.624,3.624" transform="translate(0.089 93.823)" fill="#f4f4f3"/>
            <path id="Pfad_1196-7" data-name="Pfad 1196" d="M18.939,155.424a4.025,4.025,0,1,1-4.025-4.025,4.026,4.026,0,0,1,4.025,4.025" transform="translate(9.152 127.263)" fill="#f4f4f3"/>
            <path id="Pfad_1197-7" data-name="Pfad 1197" d="M7.638,172.33a3.819,3.819,0,1,1-3.819-3.819,3.819,3.819,0,0,1,3.819,3.819" transform="translate(0 141.646)" fill="#f4f4f3"/>
            <path id="Pfad_1198-7" data-name="Pfad 1198" d="M22.5,136.6a4.408,4.408,0,1,1-4.408-4.408A4.409,4.409,0,0,1,22.5,136.6" transform="translate(11.499 111.117)" fill="#f4f4f3"/>
          </g>
        </g>
        <g id="Gruppe_433" data-name="Gruppe 433" transform="translate(36.902 31.876)">
          <g id="Gruppe_327-8" data-name="Gruppe 327" clip-path="url(#clip-path-12)">
            <path id="Pfad_1190-8" data-name="Pfad 1190" d="M15.789,41.377a3.922,3.922,0,1,1-3.922-3.922,3.922,3.922,0,0,1,3.922,3.922" transform="translate(6.678 31.484)" fill="#f4f4f3"/>
            <path id="Pfad_1191-8" data-name="Pfad 1191" d="M21.69,6.6a6.6,6.6,0,1,1-6.6-6.6,6.6,6.6,0,0,1,6.6,6.6" transform="translate(7.136)" fill="#f4f4f3"/>
            <path id="Pfad_1192-8" data-name="Pfad 1192" d="M32.067,30.091a5.486,5.486,0,1,1-5.485-5.485,5.484,5.484,0,0,1,5.485,5.485" transform="translate(17.732 20.683)" fill="#f4f4f3"/>
            <path id="Pfad_1193-8" data-name="Pfad 1193" d="M49.207,11.508A4.209,4.209,0,1,1,45,7.3a4.21,4.21,0,0,1,4.209,4.209" transform="translate(34.285 6.135)" fill="#f4f4f3"/>
            <path id="Pfad_1194-8" data-name="Pfad 1194" d="M31.1,77.415a6.2,6.2,0,1,1-6.2-6.2,6.2,6.2,0,0,1,6.2,6.2" transform="translate(15.726 59.866)" fill="#f4f4f3"/>
            <path id="Pfad_1195-8" data-name="Pfad 1195" d="M7.354,115.241a3.624,3.624,0,1,1-3.624-3.624,3.625,3.625,0,0,1,3.624,3.624" transform="translate(0.089 93.823)" fill="#f4f4f3"/>
            <path id="Pfad_1196-8" data-name="Pfad 1196" d="M18.939,155.424a4.025,4.025,0,1,1-4.025-4.025,4.026,4.026,0,0,1,4.025,4.025" transform="translate(9.152 127.263)" fill="#f4f4f3"/>
            <path id="Pfad_1197-8" data-name="Pfad 1197" d="M7.638,172.33a3.819,3.819,0,1,1-3.819-3.819,3.819,3.819,0,0,1,3.819,3.819" transform="translate(0 141.646)" fill="#f4f4f3"/>
            <path id="Pfad_1198-8" data-name="Pfad 1198" d="M22.5,136.6a4.408,4.408,0,1,1-4.408-4.408A4.409,4.409,0,0,1,22.5,136.6" transform="translate(11.499 111.117)" fill="#f4f4f3"/>
          </g>
        </g>
        <g id="Gruppe_354" data-name="Gruppe 354" transform="translate(190.662 104.761)">
          <g id="Gruppe_327-9" data-name="Gruppe 327" clip-path="url(#clip-path-12)">
            <path id="Pfad_1190-9" data-name="Pfad 1190" d="M15.789,41.377a3.922,3.922,0,1,1-3.922-3.922,3.922,3.922,0,0,1,3.922,3.922" transform="translate(6.678 31.484)" fill="#f4f4f3"/>
            <path id="Pfad_1191-9" data-name="Pfad 1191" d="M21.69,6.6a6.6,6.6,0,1,1-6.6-6.6,6.6,6.6,0,0,1,6.6,6.6" transform="translate(7.136)" fill="#f4f4f3"/>
            <path id="Pfad_1192-9" data-name="Pfad 1192" d="M32.067,30.091a5.486,5.486,0,1,1-5.485-5.485,5.484,5.484,0,0,1,5.485,5.485" transform="translate(17.732 20.683)" fill="#f4f4f3"/>
            <path id="Pfad_1193-9" data-name="Pfad 1193" d="M49.207,11.508A4.209,4.209,0,1,1,45,7.3a4.21,4.21,0,0,1,4.209,4.209" transform="translate(34.285 6.135)" fill="#f4f4f3"/>
            <path id="Pfad_1194-9" data-name="Pfad 1194" d="M31.1,77.415a6.2,6.2,0,1,1-6.2-6.2,6.2,6.2,0,0,1,6.2,6.2" transform="translate(15.726 59.866)" fill="#f4f4f3"/>
            <path id="Pfad_1195-9" data-name="Pfad 1195" d="M7.354,115.241a3.624,3.624,0,1,1-3.624-3.624,3.625,3.625,0,0,1,3.624,3.624" transform="translate(0.089 93.823)" fill="#f4f4f3"/>
            <path id="Pfad_1196-9" data-name="Pfad 1196" d="M18.939,155.424a4.025,4.025,0,1,1-4.025-4.025,4.026,4.026,0,0,1,4.025,4.025" transform="translate(9.152 127.263)" fill="#f4f4f3"/>
            <path id="Pfad_1197-9" data-name="Pfad 1197" d="M7.638,172.33a3.819,3.819,0,1,1-3.819-3.819,3.819,3.819,0,0,1,3.819,3.819" transform="translate(0 141.646)" fill="#f4f4f3"/>
            <path id="Pfad_1198-9" data-name="Pfad 1198" d="M22.5,136.6a4.408,4.408,0,1,1-4.408-4.408A4.409,4.409,0,0,1,22.5,136.6" transform="translate(11.499 111.117)" fill="#f4f4f3"/>
          </g>
        </g>
        <g id="Gruppe_344" data-name="Gruppe 344" transform="translate(630.345 116.619) rotate(19)">
          <g id="Gruppe_327-10" data-name="Gruppe 327" clip-path="url(#clip-path-11)">
            <path id="Pfad_1190-10" data-name="Pfad 1190" d="M5.111,2.555A2.555,2.555,0,1,1,2.555,0,2.555,2.555,0,0,1,5.111,2.555" transform="translate(9.526 44.913)" fill="#f4f4f3"/>
            <path id="Pfad_1191-10" data-name="Pfad 1191" d="M8.6,4.3A4.3,4.3,0,1,1,4.3,0,4.3,4.3,0,0,1,8.6,4.3" transform="translate(10.179 0)" fill="#f4f4f3"/>
            <path id="Pfad_1192-10" data-name="Pfad 1192" d="M7.148,3.573A3.574,3.574,0,1,1,3.575,0,3.573,3.573,0,0,1,7.148,3.573" transform="translate(25.295 29.505)" fill="#f4f4f3"/>
            <path id="Pfad_1193-10" data-name="Pfad 1193" d="M5.485,2.742A2.742,2.742,0,1,1,2.742,0,2.742,2.742,0,0,1,5.485,2.742" transform="translate(48.909 8.752)" fill="#f4f4f3"/>
            <path id="Pfad_1194-10" data-name="Pfad 1194" d="M8.072,4.036A4.036,4.036,0,1,1,4.036,0,4.036,4.036,0,0,1,8.072,4.036" transform="translate(22.434 85.401)" fill="#f4f4f3"/>
            <path id="Pfad_1195-10" data-name="Pfad 1195" d="M4.722,2.361A2.361,2.361,0,1,1,2.361,0,2.362,2.362,0,0,1,4.722,2.361" transform="translate(0.127 133.841)" fill="#f4f4f3"/>
            <path id="Pfad_1196-10" data-name="Pfad 1196" d="M5.245,2.622A2.622,2.622,0,1,1,2.622,0,2.623,2.623,0,0,1,5.245,2.622" transform="translate(13.056 181.545)" fill="#f4f4f3"/>
            <path id="Pfad_1197-10" data-name="Pfad 1197" d="M4.976,2.488A2.488,2.488,0,1,1,2.488,0,2.488,2.488,0,0,1,4.976,2.488" transform="translate(0 202.064)" fill="#f4f4f3"/>
            <path id="Pfad_1198-10" data-name="Pfad 1198" d="M5.744,2.872A2.872,2.872,0,1,1,2.872,0,2.872,2.872,0,0,1,5.744,2.872" transform="translate(16.404 158.512)" fill="#f4f4f3"/>
          </g>
        </g>
        <g id="Gruppe_446" data-name="Gruppe 446" transform="translate(1288.16 209.088) rotate(19)">
          <g id="Gruppe_327-11" data-name="Gruppe 327" clip-path="url(#clip-path-11)">
            <path id="Pfad_1190-11" data-name="Pfad 1190" d="M5.111,2.555A2.555,2.555,0,1,1,2.555,0,2.555,2.555,0,0,1,5.111,2.555" transform="translate(9.526 44.913)" fill="#f4f4f3"/>
            <path id="Pfad_1191-11" data-name="Pfad 1191" d="M8.6,4.3A4.3,4.3,0,1,1,4.3,0,4.3,4.3,0,0,1,8.6,4.3" transform="translate(10.179 0)" fill="#f4f4f3"/>
            <path id="Pfad_1192-11" data-name="Pfad 1192" d="M7.148,3.573A3.574,3.574,0,1,1,3.575,0,3.573,3.573,0,0,1,7.148,3.573" transform="translate(25.295 29.505)" fill="#f4f4f3"/>
            <path id="Pfad_1193-11" data-name="Pfad 1193" d="M5.485,2.742A2.742,2.742,0,1,1,2.742,0,2.742,2.742,0,0,1,5.485,2.742" transform="translate(48.909 8.752)" fill="#f4f4f3"/>
            <path id="Pfad_1194-11" data-name="Pfad 1194" d="M8.072,4.036A4.036,4.036,0,1,1,4.036,0,4.036,4.036,0,0,1,8.072,4.036" transform="translate(22.434 85.401)" fill="#f4f4f3"/>
            <path id="Pfad_1195-11" data-name="Pfad 1195" d="M4.722,2.361A2.361,2.361,0,1,1,2.361,0,2.362,2.362,0,0,1,4.722,2.361" transform="translate(0.127 133.841)" fill="#f4f4f3"/>
            <path id="Pfad_1196-11" data-name="Pfad 1196" d="M5.245,2.622A2.622,2.622,0,1,1,2.622,0,2.623,2.623,0,0,1,5.245,2.622" transform="translate(13.056 181.545)" fill="#f4f4f3"/>
            <path id="Pfad_1197-11" data-name="Pfad 1197" d="M4.976,2.488A2.488,2.488,0,1,1,2.488,0,2.488,2.488,0,0,1,4.976,2.488" transform="translate(0 202.064)" fill="#f4f4f3"/>
            <path id="Pfad_1198-11" data-name="Pfad 1198" d="M5.744,2.872A2.872,2.872,0,1,1,2.872,0,2.872,2.872,0,0,1,5.744,2.872" transform="translate(16.404 158.512)" fill="#f4f4f3"/>
          </g>
        </g>
        <g id="Gruppe_436" data-name="Gruppe 436" transform="translate(901.431 69.813) rotate(19)">
          <g id="Gruppe_327-12" data-name="Gruppe 327" clip-path="url(#clip-path-11)">
            <path id="Pfad_1190-12" data-name="Pfad 1190" d="M5.111,2.555A2.555,2.555,0,1,1,2.555,0,2.555,2.555,0,0,1,5.111,2.555" transform="translate(9.526 44.913)" fill="#f4f4f3"/>
            <path id="Pfad_1191-12" data-name="Pfad 1191" d="M8.6,4.3A4.3,4.3,0,1,1,4.3,0,4.3,4.3,0,0,1,8.6,4.3" transform="translate(10.179 0)" fill="#f4f4f3"/>
            <path id="Pfad_1192-12" data-name="Pfad 1192" d="M7.148,3.573A3.574,3.574,0,1,1,3.575,0,3.573,3.573,0,0,1,7.148,3.573" transform="translate(25.295 29.505)" fill="#f4f4f3"/>
            <path id="Pfad_1193-12" data-name="Pfad 1193" d="M5.485,2.742A2.742,2.742,0,1,1,2.742,0,2.742,2.742,0,0,1,5.485,2.742" transform="translate(48.909 8.752)" fill="#f4f4f3"/>
            <path id="Pfad_1194-12" data-name="Pfad 1194" d="M8.072,4.036A4.036,4.036,0,1,1,4.036,0,4.036,4.036,0,0,1,8.072,4.036" transform="translate(22.434 85.401)" fill="#f4f4f3"/>
            <path id="Pfad_1195-12" data-name="Pfad 1195" d="M4.722,2.361A2.361,2.361,0,1,1,2.361,0,2.362,2.362,0,0,1,4.722,2.361" transform="translate(0.127 133.841)" fill="#f4f4f3"/>
            <path id="Pfad_1196-12" data-name="Pfad 1196" d="M5.245,2.622A2.622,2.622,0,1,1,2.622,0,2.623,2.623,0,0,1,5.245,2.622" transform="translate(13.056 181.545)" fill="#f4f4f3"/>
            <path id="Pfad_1197-12" data-name="Pfad 1197" d="M4.976,2.488A2.488,2.488,0,1,1,2.488,0,2.488,2.488,0,0,1,4.976,2.488" transform="translate(0 202.064)" fill="#f4f4f3"/>
            <path id="Pfad_1198-12" data-name="Pfad 1198" d="M5.744,2.872A2.872,2.872,0,1,1,2.872,0,2.872,2.872,0,0,1,5.744,2.872" transform="translate(16.404 158.512)" fill="#f4f4f3"/>
          </g>
        </g>
      </g>
      <g id="Gruppe_1505" data-name="Gruppe 1505" transform="translate(-15542.185 14816.693)">
        <g id="Gruppe_437-2" data-name="Gruppe 437" transform="translate(610.521 322.728) rotate(19)">
          <g id="Gruppe_327-13" data-name="Gruppe 327" clip-path="url(#clip-path-11)">
            <path id="Pfad_1190-13" data-name="Pfad 1190" d="M5.111,2.555A2.555,2.555,0,1,1,2.555,0,2.555,2.555,0,0,1,5.111,2.555" transform="translate(9.526 44.913)" fill="#f4f4f3"/>
            <path id="Pfad_1191-13" data-name="Pfad 1191" d="M8.6,4.3A4.3,4.3,0,1,1,4.3,0,4.3,4.3,0,0,1,8.6,4.3" transform="translate(10.179 0)" fill="#f4f4f3"/>
            <path id="Pfad_1192-13" data-name="Pfad 1192" d="M7.148,3.573A3.574,3.574,0,1,1,3.575,0,3.573,3.573,0,0,1,7.148,3.573" transform="translate(25.295 29.505)" fill="#f4f4f3"/>
            <path id="Pfad_1193-13" data-name="Pfad 1193" d="M5.485,2.742A2.742,2.742,0,1,1,2.742,0,2.742,2.742,0,0,1,5.485,2.742" transform="translate(48.909 8.752)" fill="#f4f4f3"/>
            <path id="Pfad_1194-13" data-name="Pfad 1194" d="M8.072,4.036A4.036,4.036,0,1,1,4.036,0,4.036,4.036,0,0,1,8.072,4.036" transform="translate(22.434 85.401)" fill="#f4f4f3"/>
            <path id="Pfad_1195-13" data-name="Pfad 1195" d="M4.722,2.361A2.361,2.361,0,1,1,2.361,0,2.362,2.362,0,0,1,4.722,2.361" transform="translate(0.127 133.841)" fill="#f4f4f3"/>
            <path id="Pfad_1196-13" data-name="Pfad 1196" d="M5.245,2.622A2.622,2.622,0,1,1,2.622,0,2.623,2.623,0,0,1,5.245,2.622" transform="translate(13.056 181.545)" fill="#f4f4f3"/>
            <path id="Pfad_1197-13" data-name="Pfad 1197" d="M4.976,2.488A2.488,2.488,0,1,1,2.488,0,2.488,2.488,0,0,1,4.976,2.488" transform="translate(0 202.064)" fill="#f4f4f3"/>
            <path id="Pfad_1198-13" data-name="Pfad 1198" d="M5.744,2.872A2.872,2.872,0,1,1,2.872,0,2.872,2.872,0,0,1,5.744,2.872" transform="translate(16.404 158.512)" fill="#f4f4f3"/>
          </g>
        </g>
        <g id="Gruppe_327-14" data-name="Gruppe 327" transform="translate(359.194 38.164)" clip-path="url(#clip-path-12)">
          <path id="Pfad_1190-14" data-name="Pfad 1190" d="M15.789,41.377a3.922,3.922,0,1,1-3.922-3.922,3.922,3.922,0,0,1,3.922,3.922" transform="translate(6.678 31.484)" fill="#f4f4f3"/>
          <path id="Pfad_1191-14" data-name="Pfad 1191" d="M21.69,6.6a6.6,6.6,0,1,1-6.6-6.6,6.6,6.6,0,0,1,6.6,6.6" transform="translate(7.136)" fill="#f4f4f3"/>
          <path id="Pfad_1192-14" data-name="Pfad 1192" d="M32.067,30.091a5.486,5.486,0,1,1-5.485-5.485,5.484,5.484,0,0,1,5.485,5.485" transform="translate(17.732 20.683)" fill="#f4f4f3"/>
          <path id="Pfad_1193-14" data-name="Pfad 1193" d="M49.207,11.508A4.209,4.209,0,1,1,45,7.3a4.21,4.21,0,0,1,4.209,4.209" transform="translate(34.285 6.135)" fill="#f4f4f3"/>
          <path id="Pfad_1194-14" data-name="Pfad 1194" d="M31.1,77.415a6.2,6.2,0,1,1-6.2-6.2,6.2,6.2,0,0,1,6.2,6.2" transform="translate(15.726 59.866)" fill="#f4f4f3"/>
          <path id="Pfad_1195-14" data-name="Pfad 1195" d="M7.354,115.241a3.624,3.624,0,1,1-3.624-3.624,3.625,3.625,0,0,1,3.624,3.624" transform="translate(0.089 93.823)" fill="#f4f4f3"/>
          <path id="Pfad_1196-14" data-name="Pfad 1196" d="M22.412,157.161" transform="translate(5.679 125.526)" fill="#f4f4f3"/>
          <path id="Pfad_1197-14" data-name="Pfad 1197" d="M7.638,172.33a3.819,3.819,0,1,1-3.819-3.819,3.819,3.819,0,0,1,3.819,3.819" transform="translate(0 141.646)" fill="#f4f4f3"/>
          <path id="Pfad_1198-14" data-name="Pfad 1198" d="M22.5,136.6a4.408,4.408,0,1,1-4.408-4.408A4.409,4.409,0,0,1,22.5,136.6" transform="translate(11.499 111.117)" fill="#f4f4f3"/>
        </g>
        <g id="Gruppe_343-2" data-name="Gruppe 343" transform="translate(249.706 137.595)">
          <g id="Gruppe_327-15" data-name="Gruppe 327" clip-path="url(#clip-path-12)">
            <path id="Pfad_1190-15" data-name="Pfad 1190" d="M15.789,41.377a3.922,3.922,0,1,1-3.922-3.922,3.922,3.922,0,0,1,3.922,3.922" transform="translate(6.678 31.484)" fill="#f4f4f3"/>
            <path id="Pfad_1191-15" data-name="Pfad 1191" d="M21.69,6.6a6.6,6.6,0,1,1-6.6-6.6,6.6,6.6,0,0,1,6.6,6.6" transform="translate(7.136)" fill="#f4f4f3"/>
            <path id="Pfad_1192-15" data-name="Pfad 1192" d="M32.067,30.091a5.486,5.486,0,1,1-5.485-5.485,5.484,5.484,0,0,1,5.485,5.485" transform="translate(17.732 20.683)" fill="#f4f4f3"/>
            <path id="Pfad_1193-15" data-name="Pfad 1193" d="M49.207,11.508A4.209,4.209,0,1,1,45,7.3a4.21,4.21,0,0,1,4.209,4.209" transform="translate(34.285 6.135)" fill="#f4f4f3"/>
            <path id="Pfad_1194-15" data-name="Pfad 1194" d="M31.1,77.415a6.2,6.2,0,1,1-6.2-6.2,6.2,6.2,0,0,1,6.2,6.2" transform="translate(15.726 59.866)" fill="#f4f4f3"/>
            <path id="Pfad_1195-15" data-name="Pfad 1195" d="M7.354,115.241a3.624,3.624,0,1,1-3.624-3.624,3.625,3.625,0,0,1,3.624,3.624" transform="translate(0.089 93.823)" fill="#f4f4f3"/>
            <path id="Pfad_1196-15" data-name="Pfad 1196" d="M18.939,155.424a4.025,4.025,0,1,1-4.025-4.025,4.026,4.026,0,0,1,4.025,4.025" transform="translate(9.152 127.263)" fill="#f4f4f3"/>
            <path id="Pfad_1197-15" data-name="Pfad 1197" d="M7.638,172.33a3.819,3.819,0,1,1-3.819-3.819,3.819,3.819,0,0,1,3.819,3.819" transform="translate(0 141.646)" fill="#f4f4f3"/>
            <path id="Pfad_1198-15" data-name="Pfad 1198" d="M22.5,136.6a4.408,4.408,0,1,1-4.408-4.408A4.409,4.409,0,0,1,22.5,136.6" transform="translate(11.499 111.117)" fill="#f4f4f3"/>
          </g>
        </g>
        <g id="Gruppe_355-2" data-name="Gruppe 355" transform="translate(459.623 -26.575)">
          <g id="Gruppe_327-16" data-name="Gruppe 327" clip-path="url(#clip-path-12)">
            <path id="Pfad_1190-16" data-name="Pfad 1190" d="M15.789,41.377a3.922,3.922,0,1,1-3.922-3.922,3.922,3.922,0,0,1,3.922,3.922" transform="translate(6.678 31.484)" fill="#f4f4f3"/>
            <path id="Pfad_1191-16" data-name="Pfad 1191" d="M21.69,6.6a6.6,6.6,0,1,1-6.6-6.6,6.6,6.6,0,0,1,6.6,6.6" transform="translate(7.136)" fill="#f4f4f3"/>
            <path id="Pfad_1192-16" data-name="Pfad 1192" d="M32.067,30.091a5.486,5.486,0,1,1-5.485-5.485,5.484,5.484,0,0,1,5.485,5.485" transform="translate(17.732 20.683)" fill="#f4f4f3"/>
            <path id="Pfad_1193-16" data-name="Pfad 1193" d="M49.207,11.508A4.209,4.209,0,1,1,45,7.3a4.21,4.21,0,0,1,4.209,4.209" transform="translate(34.285 6.135)" fill="#f4f4f3"/>
            <path id="Pfad_1194-16" data-name="Pfad 1194" d="M31.1,77.415a6.2,6.2,0,1,1-6.2-6.2,6.2,6.2,0,0,1,6.2,6.2" transform="translate(15.726 59.866)" fill="#f4f4f3"/>
            <path id="Pfad_1195-16" data-name="Pfad 1195" d="M7.354,115.241a3.624,3.624,0,1,1-3.624-3.624,3.625,3.625,0,0,1,3.624,3.624" transform="translate(0.089 93.823)" fill="#f4f4f3"/>
            <path id="Pfad_1196-16" data-name="Pfad 1196" d="M18.939,155.424a4.025,4.025,0,1,1-4.025-4.025,4.026,4.026,0,0,1,4.025,4.025" transform="translate(9.152 127.263)" fill="#f4f4f3"/>
            <path id="Pfad_1197-16" data-name="Pfad 1197" d="M7.638,172.33a3.819,3.819,0,1,1-3.819-3.819,3.819,3.819,0,0,1,3.819,3.819" transform="translate(0 141.646)" fill="#f4f4f3"/>
            <path id="Pfad_1198-16" data-name="Pfad 1198" d="M22.5,136.6a4.408,4.408,0,1,1-4.408-4.408A4.409,4.409,0,0,1,22.5,136.6" transform="translate(11.499 111.117)" fill="#f4f4f3"/>
          </g>
        </g>
        <g id="Gruppe_435-2" data-name="Gruppe 435" transform="translate(724.538 38.164)">
          <g id="Gruppe_327-17" data-name="Gruppe 327" clip-path="url(#clip-path-12)">
            <path id="Pfad_1190-17" data-name="Pfad 1190" d="M15.789,41.377a3.922,3.922,0,1,1-3.922-3.922,3.922,3.922,0,0,1,3.922,3.922" transform="translate(6.678 31.484)" fill="#f4f4f3"/>
            <path id="Pfad_1191-17" data-name="Pfad 1191" d="M21.69,6.6a6.6,6.6,0,1,1-6.6-6.6,6.6,6.6,0,0,1,6.6,6.6" transform="translate(7.136)" fill="#f4f4f3"/>
            <path id="Pfad_1192-17" data-name="Pfad 1192" d="M32.067,30.091a5.486,5.486,0,1,1-5.485-5.485,5.484,5.484,0,0,1,5.485,5.485" transform="translate(17.732 20.683)" fill="#f4f4f3"/>
            <path id="Pfad_1193-17" data-name="Pfad 1193" d="M49.207,11.508A4.209,4.209,0,1,1,45,7.3a4.21,4.21,0,0,1,4.209,4.209" transform="translate(34.285 6.135)" fill="#f4f4f3"/>
            <path id="Pfad_1194-17" data-name="Pfad 1194" d="M31.1,77.415a6.2,6.2,0,1,1-6.2-6.2,6.2,6.2,0,0,1,6.2,6.2" transform="translate(15.726 59.866)" fill="#f4f4f3"/>
            <path id="Pfad_1195-17" data-name="Pfad 1195" d="M7.354,115.241a3.624,3.624,0,1,1-3.624-3.624,3.625,3.625,0,0,1,3.624,3.624" transform="translate(0.089 93.823)" fill="#f4f4f3"/>
            <path id="Pfad_1196-17" data-name="Pfad 1196" d="M18.939,155.424a4.025,4.025,0,1,1-4.025-4.025,4.026,4.026,0,0,1,4.025,4.025" transform="translate(9.152 127.263)" fill="#f4f4f3"/>
            <path id="Pfad_1197-17" data-name="Pfad 1197" d="M7.638,172.33a3.819,3.819,0,1,1-3.819-3.819,3.819,3.819,0,0,1,3.819,3.819" transform="translate(0 141.646)" fill="#f4f4f3"/>
            <path id="Pfad_1198-17" data-name="Pfad 1198" d="M22.5,136.6a4.408,4.408,0,1,1-4.408-4.408A4.409,4.409,0,0,1,22.5,136.6" transform="translate(11.499 111.117)" fill="#f4f4f3"/>
          </g>
        </g>
        <g id="Gruppe_445-2" data-name="Gruppe 445" transform="translate(1160.463 31.876)">
          <g id="Gruppe_327-18" data-name="Gruppe 327" clip-path="url(#clip-path-12)">
            <path id="Pfad_1190-18" data-name="Pfad 1190" d="M15.789,41.377a3.922,3.922,0,1,1-3.922-3.922,3.922,3.922,0,0,1,3.922,3.922" transform="translate(6.678 31.484)" fill="#f4f4f3"/>
            <path id="Pfad_1191-18" data-name="Pfad 1191" d="M21.69,6.6a6.6,6.6,0,1,1-6.6-6.6,6.6,6.6,0,0,1,6.6,6.6" transform="translate(7.136)" fill="#f4f4f3"/>
            <path id="Pfad_1192-18" data-name="Pfad 1192" d="M32.067,30.091a5.486,5.486,0,1,1-5.485-5.485,5.484,5.484,0,0,1,5.485,5.485" transform="translate(17.732 20.683)" fill="#f4f4f3"/>
            <path id="Pfad_1193-18" data-name="Pfad 1193" d="M49.207,11.508A4.209,4.209,0,1,1,45,7.3a4.21,4.21,0,0,1,4.209,4.209" transform="translate(34.285 6.135)" fill="#f4f4f3"/>
            <path id="Pfad_1194-18" data-name="Pfad 1194" d="M31.1,77.415a6.2,6.2,0,1,1-6.2-6.2,6.2,6.2,0,0,1,6.2,6.2" transform="translate(15.726 59.866)" fill="#f4f4f3"/>
            <path id="Pfad_1195-18" data-name="Pfad 1195" d="M7.354,115.241a3.624,3.624,0,1,1-3.624-3.624,3.625,3.625,0,0,1,3.624,3.624" transform="translate(0.089 93.823)" fill="#f4f4f3"/>
            <path id="Pfad_1196-18" data-name="Pfad 1196" d="M18.939,155.424a4.025,4.025,0,1,1-4.025-4.025,4.026,4.026,0,0,1,4.025,4.025" transform="translate(9.152 127.263)" fill="#f4f4f3"/>
            <path id="Pfad_1197-18" data-name="Pfad 1197" d="M7.638,172.33a3.819,3.819,0,1,1-3.819-3.819,3.819,3.819,0,0,1,3.819,3.819" transform="translate(0 141.646)" fill="#f4f4f3"/>
            <path id="Pfad_1198-18" data-name="Pfad 1198" d="M22.5,136.6a4.408,4.408,0,1,1-4.408-4.408A4.409,4.409,0,0,1,22.5,136.6" transform="translate(11.499 111.117)" fill="#f4f4f3"/>
          </g>
        </g>
        <g id="Gruppe_432-2" data-name="Gruppe 432" transform="translate(146.39 -11.283)">
          <g id="Gruppe_327-19" data-name="Gruppe 327" clip-path="url(#clip-path-12)">
            <path id="Pfad_1190-19" data-name="Pfad 1190" d="M15.789,41.377a3.922,3.922,0,1,1-3.922-3.922,3.922,3.922,0,0,1,3.922,3.922" transform="translate(6.678 31.484)" fill="#f4f4f3"/>
            <path id="Pfad_1191-19" data-name="Pfad 1191" d="M21.69,6.6a6.6,6.6,0,1,1-6.6-6.6,6.6,6.6,0,0,1,6.6,6.6" transform="translate(7.136)" fill="#f4f4f3"/>
            <path id="Pfad_1192-19" data-name="Pfad 1192" d="M32.067,30.091a5.486,5.486,0,1,1-5.485-5.485,5.484,5.484,0,0,1,5.485,5.485" transform="translate(17.732 20.683)" fill="#f4f4f3"/>
            <path id="Pfad_1193-19" data-name="Pfad 1193" d="M49.207,11.508A4.209,4.209,0,1,1,45,7.3a4.21,4.21,0,0,1,4.209,4.209" transform="translate(34.285 6.135)" fill="#f4f4f3"/>
            <path id="Pfad_1194-19" data-name="Pfad 1194" d="M31.1,77.415a6.2,6.2,0,1,1-6.2-6.2,6.2,6.2,0,0,1,6.2,6.2" transform="translate(15.726 59.866)" fill="#f4f4f3"/>
            <path id="Pfad_1195-19" data-name="Pfad 1195" d="M7.354,115.241a3.624,3.624,0,1,1-3.624-3.624,3.625,3.625,0,0,1,3.624,3.624" transform="translate(0.089 93.823)" fill="#f4f4f3"/>
            <path id="Pfad_1196-19" data-name="Pfad 1196" d="M18.939,155.424a4.025,4.025,0,1,1-4.025-4.025,4.026,4.026,0,0,1,4.025,4.025" transform="translate(9.152 127.263)" fill="#f4f4f3"/>
            <path id="Pfad_1197-19" data-name="Pfad 1197" d="M7.638,172.33a3.819,3.819,0,1,1-3.819-3.819,3.819,3.819,0,0,1,3.819,3.819" transform="translate(0 141.646)" fill="#f4f4f3"/>
            <path id="Pfad_1198-19" data-name="Pfad 1198" d="M22.5,136.6a4.408,4.408,0,1,1-4.408-4.408A4.409,4.409,0,0,1,22.5,136.6" transform="translate(11.499 111.117)" fill="#f4f4f3"/>
          </g>
        </g>
        <g id="Gruppe_433-2" data-name="Gruppe 433" transform="translate(36.902 31.876)">
          <g id="Gruppe_327-20" data-name="Gruppe 327" clip-path="url(#clip-path-12)">
            <path id="Pfad_1190-20" data-name="Pfad 1190" d="M15.789,41.377a3.922,3.922,0,1,1-3.922-3.922,3.922,3.922,0,0,1,3.922,3.922" transform="translate(6.678 31.484)" fill="#f4f4f3"/>
            <path id="Pfad_1191-20" data-name="Pfad 1191" d="M21.69,6.6a6.6,6.6,0,1,1-6.6-6.6,6.6,6.6,0,0,1,6.6,6.6" transform="translate(7.136)" fill="#f4f4f3"/>
            <path id="Pfad_1192-20" data-name="Pfad 1192" d="M32.067,30.091a5.486,5.486,0,1,1-5.485-5.485,5.484,5.484,0,0,1,5.485,5.485" transform="translate(17.732 20.683)" fill="#f4f4f3"/>
            <path id="Pfad_1193-20" data-name="Pfad 1193" d="M49.207,11.508A4.209,4.209,0,1,1,45,7.3a4.21,4.21,0,0,1,4.209,4.209" transform="translate(34.285 6.135)" fill="#f4f4f3"/>
            <path id="Pfad_1194-20" data-name="Pfad 1194" d="M31.1,77.415a6.2,6.2,0,1,1-6.2-6.2,6.2,6.2,0,0,1,6.2,6.2" transform="translate(15.726 59.866)" fill="#f4f4f3"/>
            <path id="Pfad_1195-20" data-name="Pfad 1195" d="M7.354,115.241a3.624,3.624,0,1,1-3.624-3.624,3.625,3.625,0,0,1,3.624,3.624" transform="translate(0.089 93.823)" fill="#f4f4f3"/>
            <path id="Pfad_1196-20" data-name="Pfad 1196" d="M18.939,155.424a4.025,4.025,0,1,1-4.025-4.025,4.026,4.026,0,0,1,4.025,4.025" transform="translate(9.152 127.263)" fill="#f4f4f3"/>
            <path id="Pfad_1197-20" data-name="Pfad 1197" d="M7.638,172.33a3.819,3.819,0,1,1-3.819-3.819,3.819,3.819,0,0,1,3.819,3.819" transform="translate(0 141.646)" fill="#f4f4f3"/>
            <path id="Pfad_1198-20" data-name="Pfad 1198" d="M22.5,136.6a4.408,4.408,0,1,1-4.408-4.408A4.409,4.409,0,0,1,22.5,136.6" transform="translate(11.499 111.117)" fill="#f4f4f3"/>
          </g>
        </g>
        <g id="Gruppe_354-2" data-name="Gruppe 354" transform="translate(190.662 104.761)">
          <g id="Gruppe_327-21" data-name="Gruppe 327" clip-path="url(#clip-path-12)">
            <path id="Pfad_1190-21" data-name="Pfad 1190" d="M15.789,41.377a3.922,3.922,0,1,1-3.922-3.922,3.922,3.922,0,0,1,3.922,3.922" transform="translate(6.678 31.484)" fill="#f4f4f3"/>
            <path id="Pfad_1191-21" data-name="Pfad 1191" d="M21.69,6.6a6.6,6.6,0,1,1-6.6-6.6,6.6,6.6,0,0,1,6.6,6.6" transform="translate(7.136)" fill="#f4f4f3"/>
            <path id="Pfad_1192-21" data-name="Pfad 1192" d="M32.067,30.091a5.486,5.486,0,1,1-5.485-5.485,5.484,5.484,0,0,1,5.485,5.485" transform="translate(17.732 20.683)" fill="#f4f4f3"/>
            <path id="Pfad_1193-21" data-name="Pfad 1193" d="M49.207,11.508A4.209,4.209,0,1,1,45,7.3a4.21,4.21,0,0,1,4.209,4.209" transform="translate(34.285 6.135)" fill="#f4f4f3"/>
            <path id="Pfad_1194-21" data-name="Pfad 1194" d="M31.1,77.415a6.2,6.2,0,1,1-6.2-6.2,6.2,6.2,0,0,1,6.2,6.2" transform="translate(15.726 59.866)" fill="#f4f4f3"/>
            <path id="Pfad_1195-21" data-name="Pfad 1195" d="M7.354,115.241a3.624,3.624,0,1,1-3.624-3.624,3.625,3.625,0,0,1,3.624,3.624" transform="translate(0.089 93.823)" fill="#f4f4f3"/>
            <path id="Pfad_1196-21" data-name="Pfad 1196" d="M18.939,155.424a4.025,4.025,0,1,1-4.025-4.025,4.026,4.026,0,0,1,4.025,4.025" transform="translate(9.152 127.263)" fill="#f4f4f3"/>
            <path id="Pfad_1197-21" data-name="Pfad 1197" d="M7.638,172.33a3.819,3.819,0,1,1-3.819-3.819,3.819,3.819,0,0,1,3.819,3.819" transform="translate(0 141.646)" fill="#f4f4f3"/>
            <path id="Pfad_1198-21" data-name="Pfad 1198" d="M22.5,136.6a4.408,4.408,0,1,1-4.408-4.408A4.409,4.409,0,0,1,22.5,136.6" transform="translate(11.499 111.117)" fill="#f4f4f3"/>
          </g>
        </g>
        <g id="Gruppe_344-2" data-name="Gruppe 344" transform="translate(630.345 116.619) rotate(19)">
          <g id="Gruppe_327-22" data-name="Gruppe 327" clip-path="url(#clip-path-11)">
            <path id="Pfad_1190-22" data-name="Pfad 1190" d="M5.111,2.555A2.555,2.555,0,1,1,2.555,0,2.555,2.555,0,0,1,5.111,2.555" transform="translate(9.526 44.913)" fill="#f4f4f3"/>
            <path id="Pfad_1191-22" data-name="Pfad 1191" d="M8.6,4.3A4.3,4.3,0,1,1,4.3,0,4.3,4.3,0,0,1,8.6,4.3" transform="translate(10.179 0)" fill="#f4f4f3"/>
            <path id="Pfad_1192-22" data-name="Pfad 1192" d="M7.148,3.573A3.574,3.574,0,1,1,3.575,0,3.573,3.573,0,0,1,7.148,3.573" transform="translate(25.295 29.505)" fill="#f4f4f3"/>
            <path id="Pfad_1193-22" data-name="Pfad 1193" d="M5.485,2.742A2.742,2.742,0,1,1,2.742,0,2.742,2.742,0,0,1,5.485,2.742" transform="translate(48.909 8.752)" fill="#f4f4f3"/>
            <path id="Pfad_1194-22" data-name="Pfad 1194" d="M8.072,4.036A4.036,4.036,0,1,1,4.036,0,4.036,4.036,0,0,1,8.072,4.036" transform="translate(22.434 85.401)" fill="#f4f4f3"/>
            <path id="Pfad_1195-22" data-name="Pfad 1195" d="M4.722,2.361A2.361,2.361,0,1,1,2.361,0,2.362,2.362,0,0,1,4.722,2.361" transform="translate(0.127 133.841)" fill="#f4f4f3"/>
            <path id="Pfad_1196-22" data-name="Pfad 1196" d="M5.245,2.622A2.622,2.622,0,1,1,2.622,0,2.623,2.623,0,0,1,5.245,2.622" transform="translate(13.056 181.545)" fill="#f4f4f3"/>
            <path id="Pfad_1197-22" data-name="Pfad 1197" d="M4.976,2.488A2.488,2.488,0,1,1,2.488,0,2.488,2.488,0,0,1,4.976,2.488" transform="translate(0 202.064)" fill="#f4f4f3"/>
            <path id="Pfad_1198-22" data-name="Pfad 1198" d="M5.744,2.872A2.872,2.872,0,1,1,2.872,0,2.872,2.872,0,0,1,5.744,2.872" transform="translate(16.404 158.512)" fill="#f4f4f3"/>
          </g>
        </g>
        <g id="Gruppe_446-2" data-name="Gruppe 446" transform="translate(1288.16 209.088) rotate(19)">
          <g id="Gruppe_327-23" data-name="Gruppe 327" clip-path="url(#clip-path-11)">
            <path id="Pfad_1190-23" data-name="Pfad 1190" d="M5.111,2.555A2.555,2.555,0,1,1,2.555,0,2.555,2.555,0,0,1,5.111,2.555" transform="translate(9.526 44.913)" fill="#f4f4f3"/>
            <path id="Pfad_1191-23" data-name="Pfad 1191" d="M8.6,4.3A4.3,4.3,0,1,1,4.3,0,4.3,4.3,0,0,1,8.6,4.3" transform="translate(10.179 0)" fill="#f4f4f3"/>
            <path id="Pfad_1192-23" data-name="Pfad 1192" d="M7.148,3.573A3.574,3.574,0,1,1,3.575,0,3.573,3.573,0,0,1,7.148,3.573" transform="translate(25.295 29.505)" fill="#f4f4f3"/>
            <path id="Pfad_1193-23" data-name="Pfad 1193" d="M5.485,2.742A2.742,2.742,0,1,1,2.742,0,2.742,2.742,0,0,1,5.485,2.742" transform="translate(48.909 8.752)" fill="#f4f4f3"/>
            <path id="Pfad_1194-23" data-name="Pfad 1194" d="M8.072,4.036A4.036,4.036,0,1,1,4.036,0,4.036,4.036,0,0,1,8.072,4.036" transform="translate(22.434 85.401)" fill="#f4f4f3"/>
            <path id="Pfad_1195-23" data-name="Pfad 1195" d="M4.722,2.361A2.361,2.361,0,1,1,2.361,0,2.362,2.362,0,0,1,4.722,2.361" transform="translate(0.127 133.841)" fill="#f4f4f3"/>
            <path id="Pfad_1196-23" data-name="Pfad 1196" d="M5.245,2.622A2.622,2.622,0,1,1,2.622,0,2.623,2.623,0,0,1,5.245,2.622" transform="translate(13.056 181.545)" fill="#f4f4f3"/>
            <path id="Pfad_1197-23" data-name="Pfad 1197" d="M4.976,2.488A2.488,2.488,0,1,1,2.488,0,2.488,2.488,0,0,1,4.976,2.488" transform="translate(0 202.064)" fill="#f4f4f3"/>
            <path id="Pfad_1198-23" data-name="Pfad 1198" d="M5.744,2.872A2.872,2.872,0,1,1,2.872,0,2.872,2.872,0,0,1,5.744,2.872" transform="translate(16.404 158.512)" fill="#f4f4f3"/>
          </g>
        </g>
        <g id="Gruppe_436-2" data-name="Gruppe 436" transform="translate(901.431 69.813) rotate(19)">
          <g id="Gruppe_327-24" data-name="Gruppe 327" clip-path="url(#clip-path-11)">
            <path id="Pfad_1190-24" data-name="Pfad 1190" d="M5.111,2.555A2.555,2.555,0,1,1,2.555,0,2.555,2.555,0,0,1,5.111,2.555" transform="translate(9.526 44.913)" fill="#f4f4f3"/>
            <path id="Pfad_1191-24" data-name="Pfad 1191" d="M8.6,4.3A4.3,4.3,0,1,1,4.3,0,4.3,4.3,0,0,1,8.6,4.3" transform="translate(10.179 0)" fill="#f4f4f3"/>
            <path id="Pfad_1192-24" data-name="Pfad 1192" d="M7.148,3.573A3.574,3.574,0,1,1,3.575,0,3.573,3.573,0,0,1,7.148,3.573" transform="translate(25.295 29.505)" fill="#f4f4f3"/>
            <path id="Pfad_1193-24" data-name="Pfad 1193" d="M5.485,2.742A2.742,2.742,0,1,1,2.742,0,2.742,2.742,0,0,1,5.485,2.742" transform="translate(48.909 8.752)" fill="#f4f4f3"/>
            <path id="Pfad_1194-24" data-name="Pfad 1194" d="M8.072,4.036A4.036,4.036,0,1,1,4.036,0,4.036,4.036,0,0,1,8.072,4.036" transform="translate(22.434 85.401)" fill="#f4f4f3"/>
            <path id="Pfad_1195-24" data-name="Pfad 1195" d="M4.722,2.361A2.361,2.361,0,1,1,2.361,0,2.362,2.362,0,0,1,4.722,2.361" transform="translate(0.127 133.841)" fill="#f4f4f3"/>
            <path id="Pfad_1196-24" data-name="Pfad 1196" d="M5.245,2.622A2.622,2.622,0,1,1,2.622,0,2.623,2.623,0,0,1,5.245,2.622" transform="translate(13.056 181.545)" fill="#f4f4f3"/>
            <path id="Pfad_1197-24" data-name="Pfad 1197" d="M4.976,2.488A2.488,2.488,0,1,1,2.488,0,2.488,2.488,0,0,1,4.976,2.488" transform="translate(0 202.064)" fill="#f4f4f3"/>
            <path id="Pfad_1198-24" data-name="Pfad 1198" d="M5.744,2.872A2.872,2.872,0,1,1,2.872,0,2.872,2.872,0,0,1,5.744,2.872" transform="translate(16.404 158.512)" fill="#f4f4f3"/>
          </g>
        </g>
      </g>
      <g id="Gruppe_1512" data-name="Gruppe 1512" transform="translate(-15159.819 14641.726)" clip-path="url(#clip-path-35)">
        <g id="Gruppe_1511" data-name="Gruppe 1511" transform="translate(19.662 286.022)" opacity="0.4" style="mix-blend-mode: multiply;isolation: isolate">
          <g id="Gruppe_1510" data-name="Gruppe 1510">
            <g id="Gruppe_1509" data-name="Gruppe 1509" clip-path="url(#clip-path-36)">
              <path id="Pfad_4596" data-name="Pfad 4596" d="M77.11,887.661c7.755-3.622,18.636-6.724,26.678-8.354,9.044-1.833,15.419-2.645,23.979-3.948,8.851-1.348,17.15-3.165,25.609-3.857,15.093-1.234,29.814-1.655,45.064-2.088,19.942-.288,34.986-2.32,55.429-2.25,15.01-.314,27.623,2.052,39.21,3.667a230.283,230.283,0,0,0,33.765,1.441c15.237-.7,23.923-1.946,39.889-1.943,20.415.2,29.706,2.036,34.561,3.239,7.307,1.81,10.58,3.586,23.7,7.042,5.852,1.68,17.138,3.837,23.21,4.057,12.845.467,27.336,7.782,27.87,18.558-1.909-1.83-5.185-2.077-4.848-2.923-25.544-11.792-84.92-17.494-98.663-18.724-37.72-2.4-49.795.488-75.429-1.685-32.036-3.571-64.223-4.3-96.217-.386-24.058,1.161-47.389,2.944-71.507,4.344-15.254,1.332-27.964,6.365-41.177,10.44-9.849,2.836-21.87,4.594-27.937,10.45-4.147-3.416,11.552-14.179,16.813-17.082" transform="translate(-59.608 -867.134)" fill="#cedbf6"/>
            </g>
          </g>
        </g>
      </g>
      <g id="Gruppe_1513" data-name="Gruppe 1513" transform="translate(-15139.724 14932.713)" clip-path="url(#clip-path-37)">
        <rect id="Rechteck_627" data-name="Rechteck 627" width="417.899" height="83.29" transform="translate(-0.754 -2.3)" fill="#90bbcd"/>
        <path id="Pfad_4597" data-name="Pfad 4597" d="M342.594,954.241H485.3v1.025q.295-.745.588-1.494.585-1.5,1.16-3.006a403.486,403.486,0,0,0,15.6-51.252q3.172-13.5,5.573-27.616.3-1.763.586-3.534v1.927H169v-.049q1.18,7.106,2.558,14.063,2.756,13.911,6.281,27.179t7.758,25.794q2.117,6.263,4.405,12.331,1.143,3.034,2.329,6.016v-1.384Z" transform="translate(-133.352 -872.922)" fill="#90bbcd"/>
        <path id="Pfad_4598" data-name="Pfad 4598" d="M348.278,955.1H487.436v1.179q.3-.726.588-1.456,1.171-2.919,2.3-5.887a396.725,396.725,0,0,0,15.336-50.4q3.119-13.277,5.48-27.156.147-.866.291-1.735v1.5H177.578v-1.4q1.159,6.988,2.515,13.829,2.71,13.679,6.176,26.726t7.629,25.363q2.082,6.158,4.332,12.126,1.125,2.983,2.29,5.916.583,1.466,1.176,2.92V955.1Z" transform="translate(-139.1 -873.783)" fill="#91bcce"/>
        <path id="Pfad_4599" data-name="Pfad 4599" d="M354.546,955.835H490.174v1.211q.3-.708.588-1.419.585-1.423,1.161-2.857,1.151-2.869,2.262-5.787a390.042,390.042,0,0,0,15.076-49.544q3.066-13.052,5.387-26.7v1.143H187.027v-1.028q.145.856.294,1.711.3,1.708.606,3.408.618,3.4,1.284,6.761,2.664,13.447,6.071,26.273A374.077,374.077,0,0,0,211.624,957.4v-1.561Z" transform="translate(-145.432 -874.516)" fill="#93bdce"/>
        <path id="Pfad_4600" data-name="Pfad 4600" d="M360.808,956.44h132.12v1.119q.295-.69.587-1.382,2.34-5.542,4.525-11.279a383.262,383.262,0,0,0,14.816-48.69q1.507-6.413,2.832-12.975.662-3.28,1.278-6.6.308-1.657.6-3.324.148-.833.293-1.668v.845h-321.4v-.723q.292,1.679.6,3.349.608,3.34,1.262,6.644,2.618,13.216,5.967,25.82a367.607,367.607,0,0,0,16.059,47.552q.582,1.392,1.175,2.772V956.44Z" transform="translate(-151.757 -875.121)" fill="#94becf"/>
        <path id="Pfad_4601" data-name="Pfad 4601" d="M366.47,953.831H494.513v2.246q1.187-2.674,2.337-5.4,2.3-5.446,4.446-11.081a376.611,376.611,0,0,0,14.557-47.835q1.48-6.3,2.782-12.748.651-3.222,1.256-6.48.3-1.629.593-3.266v.61H205.012v-2.129q.286,1.65.585,3.29.6,3.282,1.24,6.528,2.572,12.984,5.862,25.367a361.15,361.15,0,0,0,15.778,46.718q1.144,2.735,2.326,5.421v-1.245Z" transform="translate(-157.485 -872.511)" fill="#95bfcf"/>
        <path id="Pfad_4602" data-name="Pfad 4602" d="M373.3,954.006H497.883v1.877q.592-1.3,1.175-2.614,1.166-2.626,2.3-5.3,2.258-5.348,4.366-10.883a369.879,369.879,0,0,0,14.3-46.982q1.454-6.188,2.732-12.52.639-3.165,1.233-6.364.3-1.6.583-3.207v2.043H215.3v-.3q.586,3.223,1.218,6.411,2.526,12.752,5.757,24.914a354.732,354.732,0,0,0,15.5,45.883q1.124,2.687,2.285,5.325.581,1.319,1.17,2.626v-.905Z" transform="translate(-164.38 -872.687)" fill="#97bfd0"/>
        <path id="Pfad_4603" data-name="Pfad 4603" d="M378.944,954.564H500.088v1.388q4.721-10.12,8.865-21a363.158,363.158,0,0,0,14.037-46.127q1.427-6.076,2.683-12.292.628-3.108,1.211-6.248v.327H223.816v-1.768q.575,3.165,1.2,6.294,2.48,12.52,5.653,24.461a348.248,348.248,0,0,0,15.214,45.049q2.207,5.275,4.559,10.359v-.446Z" transform="translate(-170.086 -873.245)" fill="#98c0d0"/>
        <path id="Pfad_4604" data-name="Pfad 4604" d="M385.756,954.462H503.49v.781q.588-1.23,1.167-2.471,4.634-9.933,8.7-20.609a356.41,356.41,0,0,0,13.777-45.273q1.4-5.963,2.633-12.065.616-3.05,1.188-6.133v1.818H234.077v-.136q.293,1.544.6,3.081,2.434,12.289,5.548,24.008a341.817,341.817,0,0,0,14.932,44.215q2.167,5.178,4.474,10.167.577,1.247,1.162,2.482.292.618.587,1.232v-1.1Z" transform="translate(-176.962 -873.143)" fill="#99c1d1"/>
        <path id="Pfad_4605" data-name="Pfad 4605" d="M391.375,954.786H505.726v.058q1.17-2.389,2.307-4.825,4.546-9.745,8.537-20.22a349.652,349.652,0,0,0,13.517-44.419q1.374-5.851,2.583-11.837.3-1.5.594-3v.294H242.558v-1.659q.288,1.516.586,3.022,2.388,12.057,5.443,23.555a335.358,335.358,0,0,0,14.651,43.381q2.126,5.08,4.39,9.975,1.132,2.447,2.3,4.846.583,1.2,1.174,2.387v-1.559Z" transform="translate(-182.646 -873.467)" fill="#9bc2d1"/>
        <path id="Pfad_4606" data-name="Pfad 4606" d="M398.164,954.412H507.989v1.525q2.36-4.59,4.59-9.37,4.459-9.558,8.372-19.831a342.921,342.921,0,0,0,13.257-43.565q1.348-5.738,2.534-11.609.3-1.467.582-2.943v1.843H252.784v-.218q2.342,11.825,5.339,23.1a328.858,328.858,0,0,0,14.369,42.546q4.169,9.965,8.876,19.2v-.676Z" transform="translate(-189.499 -873.093)" fill="#9cc3d2"/>
        <path id="Pfad_4607" data-name="Pfad 4607" d="M403.761,954.5H510.267v.5q.586-1.113,1.165-2.238,2.314-4.5,4.5-9.187,4.371-9.371,8.208-19.442a336.2,336.2,0,0,0,13-42.71q1.322-5.626,2.484-11.382v.507H261.231v-1.8q2.3,11.593,5.234,22.649a322.456,322.456,0,0,0,14.087,41.712q4.087,9.769,8.7,18.819,1.152,2.26,2.336,4.472v-1.9Z" transform="translate(-195.16 -873.182)" fill="#9dc4d2"/>
        <path id="Pfad_4608" data-name="Pfad 4608" d="M410.52,953.861H512.568v1.513q.59-1.067,1.172-2.147,1.164-2.159,2.3-4.364,2.268-4.41,4.41-9,4.284-9.183,8.044-19.053a329.513,329.513,0,0,0,12.737-41.856q1.3-5.513,2.435-11.154v2.114H271.414v-.548q.291,1.412.592,2.816.6,2.808,1.244,5.584,1.283,5.55,2.72,10.964A316.026,316.026,0,0,0,289.776,929.6q4.006,9.574,8.528,18.442,1.129,2.215,2.289,4.382.58,1.084,1.167,2.156v-.724Z" transform="translate(-201.984 -872.542)" fill="#9ec5d3"/>
        <path id="Pfad_4609" data-name="Pfad 4609" d="M416.094,953.713h98.8v.2c12.48-22.055,22.473-48.138,29.239-76.942q.634-2.7,1.231-5.432.3-1.366.587-2.739v.967H279.827v-2.187q.286,1.383.58,2.759.59,2.751,1.219,5.47,1.257,5.437,2.665,10.74a309.613,309.613,0,0,0,13.523,40.044q3.924,9.378,8.354,18.066,2.212,4.339,4.544,8.493.582,1.038,1.172,2.065v-1.5Z" transform="translate(-207.622 -872.393)" fill="#a0c5d3"/>
        <path id="Pfad_4610" data-name="Pfad 4610" d="M422.821,955.539h94.424v.763q1.174-1.978,2.32-4c12.22-21.6,22-47.136,28.63-75.34q.621-2.644,1.2-5.319.146-.669.29-1.339v1.288H289.961v-1.125q.578,2.693,1.193,5.356,1.231,5.324,2.609,10.517a303.09,303.09,0,0,0,13.242,39.209q3.842,9.183,8.18,17.689,2.166,4.249,4.449,8.316,1.141,2.033,2.31,4.019v-.031Z" transform="translate(-214.413 -874.22)" fill="#a1c6d4"/>
        <path id="Pfad_4611" data-name="Pfad 4611" d="M429.539,954.762h90.09v1.065q2.352-3.779,4.6-7.743c11.959-21.137,21.536-46.133,28.021-73.737q.608-2.588,1.18-5.206v1.671H300.08v-.193q.292,1.31.593,2.613,1.2,5.21,2.553,10.293c7.191,27.1,17.4,51.367,29.9,71.6v-.365Z" transform="translate(-221.194 -873.443)" fill="#a2c7d4"/>
        <path id="Pfad_4612" data-name="Pfad 4612" d="M435.061,954.2h85.8v1.109q1.177-1.8,2.327-3.65,2.3-3.7,4.5-7.574c11.7-20.677,21.068-45.13,27.412-72.134q.3-1.266.586-2.539v.838H308.417V868.3q.286,1.282.58,2.556,1.179,5.1,2.5,10.069c7.035,26.51,17.025,50.25,29.247,70.046q1.146,1.856,2.318,3.665V954.2Z" transform="translate(-226.781 -872.882)" fill="#a3c8d5"/>
        <path id="Pfad_4613" data-name="Pfad 4613" d="M441.738,955.717H523.31v.9q4.7-6.861,9-14.452c11.44-20.218,20.6-44.127,26.8-70.531v.134H318.475v-1.2q1.152,4.984,2.443,9.845c6.878,25.921,16.647,49.133,28.6,68.489q2.241,3.629,4.582,7.076v-.259Z" transform="translate(-233.522 -874.397)" fill="#a4c9d5"/>
        <path id="Pfad_4614" data-name="Pfad 4614" d="M448.4,954.156h77.4v.439q1.173-1.63,2.321-3.307,4.594-6.705,8.792-14.124c11.18-19.758,20.131-43.124,26.193-68.928v1.969H328.506v-.584q.29,1.211.588,2.413.6,2.406,1.227,4.781c6.722,25.332,16.268,48.017,27.947,66.932q2.19,3.547,4.478,6.915,1.143,1.683,2.311,3.321.584.818,1.174,1.625v-1.453Z" transform="translate(-240.244 -872.836)" fill="#a6c9d6"/>
        <path id="Pfad_4615" data-name="Pfad 4615" d="M455.034,955.215h72.11v1.27q.59-.762,1.174-1.535,2.336-3.093,4.581-6.369,4.488-6.549,8.588-13.8a230.385,230.385,0,0,0,14.667-31.448q3.218-8.451,5.958-17.438,1.367-4.489,2.608-9.1.62-2.306,1.208-4.64.294-1.167.58-2.342v1.448h-228v-.094q.583,2.35,1.2,4.669c6.566,24.743,15.89,46.9,27.3,65.376q4.278,6.928,8.936,13.149,1.163,1.553,2.349,3.06v-2.211Z" transform="translate(-246.946 -873.895)" fill="#a7cad6"/>
        <path id="Pfad_4616" data-name="Pfad 4616" d="M460.476,954.059h66.89v1.672a171.823,171.823,0,0,0,17.5-25.539,224.937,224.937,0,0,0,14.318-30.7q3.142-8.25,5.816-17.023,1.334-4.382,2.546-8.884.606-2.25,1.18-4.529v1.053H346.723v-2.017q.569,2.293,1.17,4.558c6.41,24.154,15.512,45.783,26.648,63.819q4.176,6.764,8.723,12.836,2.271,3.033,4.628,5.882v-1.129Z" transform="translate(-252.452 -872.74)" fill="#a8cbd7"/>
        <path id="Pfad_4617" data-name="Pfad 4617" d="M467.062,954.684H529.99v.332q1.176-1.337,2.33-2.72A167.687,167.687,0,0,0,549.4,927.38a219.473,219.473,0,0,0,13.968-29.951q3.065-8.049,5.674-16.608,1.3-4.275,2.484-8.667.295-1.1.583-2.2v.783H356.647v-1.709q.286,1.112.579,2.216c6.253,23.565,15.134,44.667,26,62.263q4.074,6.6,8.51,12.523,2.216,2.958,4.515,5.738,1.149,1.389,2.319,2.733.585.672,1.175,1.332v-1.146Z" transform="translate(-259.103 -873.365)" fill="#a9ccd7"/>
        <path id="Pfad_4618" data-name="Pfad 4618" d="M473.622,955.054h56.694v1.233q1.185-1.211,2.35-2.469,2.33-2.515,4.583-5.213a163.449,163.449,0,0,0,16.65-24.293,213.982,213.982,0,0,0,13.619-29.2q2.988-7.848,5.532-16.193,1.27-4.168,2.422-8.451v.638H366.531v-1.527c6.1,22.976,14.755,43.55,25.348,60.706a152.766,152.766,0,0,0,17.261,23.043q1.16,1.264,2.338,2.482v-.754Z" transform="translate(-265.727 -873.734)" fill="#aacdd8"/>
        <path id="Pfad_4619" data-name="Pfad 4619" d="M480.152,955.17H530.7v1.511q1.189-1.087,2.362-2.221a125.98,125.98,0,0,0,9.081-9.8,159.239,159.239,0,0,0,16.223-23.67,208.455,208.455,0,0,0,13.27-28.453q2.912-7.647,5.39-15.778.619-2.031,1.209-4.089.295-1.03.583-2.065v.616H376.371v-1.47q.286,1.042.579,2.078.586,2.071,1.2,4.114,1.229,4.085,2.57,8.052,2.682,7.933,5.792,15.365A197.017,197.017,0,0,0,400.5,926.809a148.819,148.819,0,0,0,16.818,22.452q2.26,2.464,4.592,4.746,1.166,1.14,2.35,2.235V955.17Z" transform="translate(-272.321 -873.851)" fill="#accdd8"/>
        <path id="Pfad_4620" data-name="Pfad 4620" d="M486.651,955.036h44.52v1.182q1.192-.965,2.367-1.977,2.351-2.025,4.634-4.234a122.688,122.688,0,0,0,8.843-9.541,155.082,155.082,0,0,0,15.8-23.047,203.014,203.014,0,0,0,12.921-27.7q2.835-7.445,5.248-15.362.6-1.978,1.177-3.982v.716H386.165v-1.536q.57,2.017,1.169,4.005,1.2,3.977,2.5,7.841,2.611,7.724,5.64,14.961A191.833,191.833,0,0,0,409.1,923.084a144.907,144.907,0,0,0,16.376,21.862,114.157,114.157,0,0,0,9.08,8.881q1.169,1.019,2.354,1.991v-.781Z" transform="translate(-278.884 -873.717)" fill="#adced9"/>
        <path id="Pfad_4621" data-name="Pfad 4621" d="M493.115,954.653h36.221v1.908q2.41-1.594,4.761-3.38c12.535-9.52,23.76-23.041,33.12-39.583a197.512,197.512,0,0,0,12.572-26.956q2.758-7.244,5.106-14.947.293-.962.579-1.931v.939H395.907v-1.724q.285.974.576,1.942,1.164,3.87,2.435,7.628,2.54,7.516,5.488,14.557a186.624,186.624,0,0,0,13.255,26c9.778,15.836,21.341,28.518,34.11,37.105v-1.562Z" transform="translate(-285.413 -873.334)" fill="#aecfd9"/>
        <path id="Pfad_4622" data-name="Pfad 4622" d="M499.544,954.022h30.473v.188a84.054,84.054,0,0,0,9.371-6.2c12.187-9.256,23.1-22.4,32.2-38.483a192.039,192.039,0,0,0,12.222-26.207q2.682-7.043,4.965-14.532v1.282H405.6v-2.035q1.132,3.763,2.367,7.417,2.469,7.307,5.335,14.153a181.45,181.45,0,0,0,12.887,25.281c9.506,15.4,20.748,27.726,33.162,36.074q2.328,1.565,4.709,2.943,1.19.688,2.394,1.328v-1.211Z" transform="translate(-291.906 -872.702)" fill="#afd0d9"/>
        <path id="Pfad_4623" data-name="Pfad 4623" d="M507.088,954.611h15.185v1.657q2.471-.732,4.9-1.667a75.98,75.98,0,0,0,18.621-10.537c11.839-8.991,22.44-21.761,31.28-37.383a186.565,186.565,0,0,0,11.873-25.458q1.3-3.421,2.509-6.952.6-1.765,1.182-3.556.289-.9.572-1.8v1.745H416.949V870q.575,1.8,1.175,3.576,2.4,7.1,5.183,13.748a176.279,176.279,0,0,0,12.519,24.559c9.234,14.956,20.155,26.933,32.215,35.044a71.667,71.667,0,0,0,18.875,9.155v-1.474Z" transform="translate(-299.514 -873.291)" fill="#b0d0da"/>
        <path id="Pfad_4624" data-name="Pfad 4624" d="M513.426,954.761c26.769-.987,50.767-20.237,67.927-50.564a181.1,181.1,0,0,0,11.524-24.709q1.264-3.32,2.435-6.747.293-.856.58-1.719v.6H426.5v-1.276q.285.867.576,1.729,2.328,6.889,5.03,13.344a171.123,171.123,0,0,0,12.151,23.837c17.926,29.033,42.4,46.5,69.167,45.511" transform="translate(-305.916 -874.247)" fill="#b1d1da"/>
        <path id="Pfad_4625" data-name="Pfad 4625" d="M519.718,948.3c25.958-.957,49.229-19.624,65.868-49.031a175.537,175.537,0,0,0,11.174-23.96q1.226-3.219,2.362-6.543v1.36H435.987v-2.011q2.258,6.68,4.878,12.939a165.9,165.9,0,0,0,11.783,23.114c17.382,28.154,41.113,45.088,67.071,44.132" transform="translate(-312.273 -872.752)" fill="#b2d2db"/>
        <path id="Pfad_4626" data-name="Pfad 4626" d="M527.108,944.844c25.147-.927,47.69-19.01,63.81-47.5a170.01,170.01,0,0,0,10.825-23.212q.594-1.56,1.166-3.144v.65h-155.8v-1.264q.569,1.593,1.16,3.16,1.181,3.134,2.449,6.164a160.746,160.746,0,0,0,11.414,22.392c16.839,27.274,39.828,43.68,64.975,42.753" transform="translate(-319.726 -874.269)" fill="#b3d3db"/>
        <path id="Pfad_4627" data-name="Pfad 4627" d="M534.437,940.87c24.336-.9,46.152-18.4,61.751-45.967a164.584,164.584,0,0,0,10.476-22.463v.2H458.141v-.773q1.144,3.033,2.37,5.965a155.528,155.528,0,0,0,11.046,21.67c16.3,26.394,38.544,42.271,62.879,41.374" transform="translate(-327.119 -875.266)" fill="#b5d3dc"/>
        <path id="Pfad_4628" data-name="Pfad 4628" d="M541.7,934.564c23.524-.867,44.613-17.784,59.693-44.435q2.827-5,5.366-10.438,1.268-2.717,2.459-5.538.6-1.41,1.171-2.845.288-.717.571-1.441V871.3H469.069v-.535q.573,1.442,1.166,2.858a150.323,150.323,0,0,0,10.678,20.947c15.753,25.514,37.258,40.861,60.783,39.995" transform="translate(-334.443 -873.929)" fill="#b6d4dc"/>
        <path id="Pfad_4629" data-name="Pfad 4629" d="M548.876,931.393c22.713-.837,43.075-17.171,57.635-42.9q2.73-4.825,5.181-10.078,1.224-2.623,2.374-5.347v.033H479.879v-.546a145.182,145.182,0,0,0,10.31,20.225c15.21,24.634,35.974,39.453,58.687,38.615" transform="translate(-341.687 -875.728)" fill="#b7d5dc"/>
        <path id="Pfad_4630" data-name="Pfad 4630" d="M555.967,925.906c21.9-.807,41.537-16.558,55.576-41.37q2.632-4.652,5-9.718.59-1.265,1.163-2.554v.318H490.556v-.8q.57,1.295,1.157,2.566,1.175,2.541,2.42,4.983,2.489,4.881,5.242,9.34c14.667,23.755,34.689,38.043,56.591,37.236" transform="translate(-348.842 -875.211)" fill="#b8d5dd"/>
        <path id="Pfad_4631" data-name="Pfad 4631" d="M562.959,919.931c21.091-.777,40-15.945,53.518-39.838q2.535-4.48,4.811-9.358v.841h-120.2v-1.3q1.132,2.447,2.33,4.8,2.4,4.7,5.048,8.995c14.123,22.875,33.4,36.635,54.5,35.857" transform="translate(-355.899 -874.206)" fill="#b9d6dd"/>
        <path id="Pfad_4632" data-name="Pfad 4632" d="M569.843,913.476c20.28-.747,38.46-15.331,51.459-38.306q1.219-2.154,2.376-4.4.578-1.125,1.141-2.274v1.6H511.453v-2.026q.561,1.154,1.137,2.284,2.3,4.52,4.854,8.649c13.58,21.995,32.119,35.225,52.4,34.478" transform="translate(-362.846 -872.722)" fill="#bad7de"/>
        <path id="Pfad_4633" data-name="Pfad 4633" d="M578.888,910.914c19.468-.717,36.922-14.718,49.4-36.774q.585-1.034,1.155-2.091v.45h-104.4v-.84q.568,1.062,1.151,2.1,1.165,2.076,2.388,4.057c13.037,21.115,30.835,33.816,50.3,33.1" transform="translate(-371.956 -875.13)" fill="#bbd7de"/>
        <path id="Pfad_4634" data-name="Pfad 4634" d="M585.492,903.258c18.657-.688,35.383-14.1,47.343-35.241v1.8H535v-2.162q1.117,1.99,2.289,3.888c12.494,20.235,29.55,32.407,48.207,31.72" transform="translate(-378.623 -872.444)" fill="#bcd8de"/>
        <path id="Pfad_4635" data-name="Pfad 4635" d="M594.205,898.892c8.923-.329,17.384-3.7,25.044-9.519A67.146,67.146,0,0,0,630.1,878.886q2.541-3.042,4.894-6.478,1.175-1.715,2.3-3.523v1.531h-89.2v-1.866c11.95,19.356,28.265,31,46.111,30.341" transform="translate(-387.401 -873.047)" fill="#bdd9df"/>
        <path id="Pfad_4636" data-name="Pfad 4636" d="M602.712,893.486c8.517-.314,16.594-3.533,23.906-9.087a64.088,64.088,0,0,0,10.355-10.009q2.425-2.9,4.671-6.183v1.775h-80.76V867.9q1.117,1.645,2.281,3.2,2.326,3.107,4.827,5.833a59.69,59.69,0,0,0,10.6,9.237c7.448,5.009,15.6,7.63,24.118,7.316" transform="translate(-395.972 -872.611)" fill="#bed9df"/>
        <path id="Pfad_4637" data-name="Pfad 4637" d="M613.249,890.042c8.112-.3,15.8-3.365,22.768-8.654a61.036,61.036,0,0,0,9.862-9.532q.577-.691,1.144-1.405v1.057H576.7v-1.329q.565.717,1.139,1.412,1.149,1.389,2.339,2.687a56.87,56.87,0,0,0,10.1,8.8,38.272,38.272,0,0,0,22.97,6.968" transform="translate(-406.573 -874.137)" fill="#bfdae0"/>
        <path id="Pfad_4638" data-name="Pfad 4638" d="M623.481,884.9c7.706-.284,15.014-3.2,21.63-8.221a53.415,53.415,0,0,0,4.827-4.156q1.172-1.134,2.308-2.36v1.173H592.067v-1.412a54.01,54.01,0,0,0,9.593,8.357,36.356,36.356,0,0,0,21.821,6.62" transform="translate(-416.87 -873.968)" fill="#bfdbe0"/>
        <path id="Pfad_4639" data-name="Pfad 4639" d="M635.62,880.214c7.3-.269,14.223-3.029,20.491-7.789q1.176-.893,2.319-1.878v1.072H610.277v-1.273a47.189,47.189,0,0,0,4.671,3.6,34.442,34.442,0,0,0,20.673,6.272" transform="translate(-429.073 -874.25)" fill="#c0dbe0"/>
        <path id="Pfad_4640" data-name="Pfad 4640" d="M647.249,873.163a31.035,31.035,0,0,0,10.042-2.087,35.546,35.546,0,0,0,4.759-2.259v.721H627.725v-2.3a32.53,32.53,0,0,0,19.524,5.923" transform="translate(-440.766 -872.168)" fill="#c1dce1"/>
        <path id="Pfad_4641" data-name="Pfad 4641" d="M686.721,874.207h0Z" transform="translate(-480.302 -876.837)" fill="#c2dce1"/>
        <path id="Pfad_4642" data-name="Pfad 4642" d="M686.527,874.207h0Z" transform="translate(-480.172 -876.837)" fill="#c3dde1"/>
        <path id="Pfad_4643" data-name="Pfad 4643" d="M686.332,874.207h0Z" transform="translate(-480.041 -876.837)" fill="#c4dee2"/>
        <path id="Pfad_4644" data-name="Pfad 4644" d="M686.138,874.207h0Z" transform="translate(-479.911 -876.837)" fill="#c5dee2"/>
        <path id="Pfad_4645" data-name="Pfad 4645" d="M685.943,874.207h0Z" transform="translate(-479.781 -876.837)" fill="#c5dfe2"/>
        <path id="Pfad_4646" data-name="Pfad 4646" d="M685.749,874.207h0Z" transform="translate(-479.651 -876.837)" fill="#c6dfe3"/>
        <path id="Pfad_4647" data-name="Pfad 4647" d="M685.554,874.207h0Z" transform="translate(-479.52 -876.837)" fill="#c7e0e3"/>
        <path id="Pfad_4648" data-name="Pfad 4648" d="M685.359,874.207h0Z" transform="translate(-479.389 -876.837)" fill="#c8e0e3"/>
        <path id="Pfad_4649" data-name="Pfad 4649" d="M685.165,874.207h0Z" transform="translate(-479.259 -876.837)" fill="#c8e1e4"/>
        <path id="Pfad_4650" data-name="Pfad 4650" d="M684.97,874.207h0Z" transform="translate(-479.129 -876.837)" fill="#c9e1e4"/>
        <path id="Pfad_4651" data-name="Pfad 4651" d="M684.776,874.207h0Z" transform="translate(-478.999 -876.837)" fill="#cae1e4"/>
        <path id="Pfad_4652" data-name="Pfad 4652" d="M684.581,874.207h0Z" transform="translate(-478.868 -876.837)" fill="#cae2e4"/>
        <path id="Pfad_4653" data-name="Pfad 4653" d="M684.387,874.207h0Z" transform="translate(-478.738 -876.837)" fill="#cbe2e5"/>
        <path id="Pfad_4654" data-name="Pfad 4654" d="M684.192,874.207h0Z" transform="translate(-478.607 -876.837)" fill="#cbe3e5"/>
        <path id="Pfad_4655" data-name="Pfad 4655" d="M684,874.207h0Z" transform="translate(-478.477 -876.837)" fill="#cce3e5"/>
        <path id="Pfad_4656" data-name="Pfad 4656" d="M683.8,874.207h0Z" transform="translate(-478.347 -876.837)" fill="#cce3e5"/>
      </g>
      <g id="Gruppe_1514" data-name="Gruppe 1514" transform="translate(-15102.108 14942.504)" clip-path="url(#clip-path-38)">
        <path id="Pfad_4658" data-name="Pfad 4658" d="M511.4,881.231,165.055,892.5l5.894,63.42L517.3,944.651Z" transform="translate(-171.186 -892.343)" fill="url(#radial-gradient)"/>
      </g>
      <path id="Pfad_4660" data-name="Pfad 4660" d="M1024.064,1049.192a35.78,35.78,0,0,1-3.745.881c-1.256.314-3.663-.2-3.524.22-.616-1.883-3.456-.311-4.124,1.3a1.773,1.773,0,0,0-1.614-.411,1.735,1.735,0,0,0-2.954-.474l-.779,1.057q-.208-.133-.42-.249a6.425,6.425,0,0,0-1.554-3.05c-2.483-2.608-6.118-1.183-7.671,1.873l-1.538.191c0-.016-.006-.032-.01-.049a2.97,2.97,0,0,0-2.685-2.491,5.4,5.4,0,0,0-8.147-2.067,4.523,4.523,0,0,0-2.671-.889,5.838,5.838,0,0,0-1.11-.9,4.368,4.368,0,0,0-1.886-1.677,3.994,3.994,0,0,0-2.516-.227c-2-1.921-4.741-2.674-6.969-1.206a4.813,4.813,0,0,0-5.772.886c-.14.142-.268.289-.393.438a4.952,4.952,0,0,0-2.458,1.077,4.211,4.211,0,0,0-.987.125,5.192,5.192,0,0,0-3.448,3.139,3.747,3.747,0,0,0-4.55,1.124,4.383,4.383,0,0,0-6.156,1.226,3.165,3.165,0,0,0-.74.332,4.7,4.7,0,0,0-1.889,2.788,2.2,2.2,0,0,0-1.079,1.426c-.018.074-.034.151-.05.227a2.68,2.68,0,0,0-.622.95,21.509,21.509,0,0,0-2.751,1.923,1.98,1.98,0,0,0-.738-.1,1.859,1.859,0,0,0-.923.332,1.661,1.661,0,0,0-1.571.615,2.6,2.6,0,0,0-.007,3.144,4.155,4.155,0,0,0,3.334,1.708,2.011,2.011,0,0,0,1.8-1.628,3.191,3.191,0,0,0,.081-.349c.023-.021.048-.037.072-.059a9.7,9.7,0,0,1,1.891-1.279,3.135,3.135,0,0,0,1.484,1.138,2.862,2.862,0,0,0,3.713-2.436,3.945,3.945,0,0,0,.6.237,3.6,3.6,0,0,0,1.474.971,4.151,4.151,0,0,0,4.846-2.035,3.8,3.8,0,0,0,1.834.039,1.846,1.846,0,0,0,1.166-1.147,4.954,4.954,0,0,0,2.033,2.124,3.84,3.84,0,0,0,4.017-.273l2.268-.772a6.965,6.965,0,0,0,3.022-.9,8.585,8.585,0,0,0,2.541-2.242c1.384,1.711,3.528,2.461,5.545,1.112a4.8,4.8,0,0,0,.849-.723,4.117,4.117,0,0,0,5.483.628l2.3,3.436a1.384,1.384,0,0,0,1.757.58,2.908,2.908,0,0,0,3.573.062,4.662,4.662,0,0,0,1.612-2.839c.021-.1.052-.365.08-.716,2.7,2.029,4.679.707,6.882-.615.441,1.762,1.983,3.745,3.988,3.914,1.064.09,1.651-1.294,2.123-2.25a1.655,1.655,0,0,0,2.55-.071l.546-.74a2.8,2.8,0,0,0,1.292.29,2.989,2.989,0,0,0,3.857-.016c1.315.676,3.258-2.2,4.369-3.33,4.186,1.322,6.395-1.659,7.71-2.2,2.252-.93-.369-2.041-2.643-1.1" transform="translate(-15797.836 13948.647)" fill="#fff"/>
      <g id="Gruppe_1515" data-name="Gruppe 1515" transform="translate(-15230 14263.446)">
        <g id="Gruppe_810" data-name="Gruppe 810" transform="translate(0 470.198)" clip-path="url(#clip-path-39)">
          <rect id="Rechteck_364" data-name="Rechteck 364" width="1382" height="227.649" transform="translate(0)" fill="url(#linear-gradient-3)"/>
        </g>
      </g>
    </g>
  </g>
</svg>
