<svg xmlns="http://www.w3.org/2000/svg" xmlns:xlink="http://www.w3.org/1999/xlink" width="390" height="844" viewBox="0 0 390 844">
  <defs>
    <linearGradient id="linear-gradient" x1="0.5" x2="0.5" y2="1" gradientUnits="objectBoundingBox">
      <stop offset="0" stop-color="#fff"/>
      <stop offset="1" stop-color="gray"/>
    </linearGradient>
    <clipPath id="clip-path">
      <rect id="Rechteck_295" data-name="Rechteck 295" width="89.866" height="130.456" fill="#486680"/>
    </clipPath>
    <clipPath id="clip-path-3">
      <rect id="Rechteck_295-3" data-name="Rechteck 295" width="75.822" height="110.068" fill="#486680"/>
    </clipPath>
    <clipPath id="clip-bgMobile">
      <rect width="390" height="844"/>
    </clipPath>
  </defs>
  <g id="bgMobile" clip-path="url(#clip-bgMobile)">
    <rect width="390" height="844" fill="#fff"/>
    <rect id="Rechteck_294" data-name="Rechteck 294" width="399" height="522" transform="translate(-9)" fill="#648eb1"/>
    <path id="Pfad_3736" data-name="Pfad 3736" d="M1990,1058.705s826.435-638.819,1143.063-140.2v237.362L2024.3,1354.451H1990Z" transform="translate(-2570.531 -510.451)" fill="#82b0c8"/>
    <rect id="Rechteck_303" data-name="Rechteck 303" width="399" height="522" transform="translate(-9)" opacity="0.37" fill="url(#linear-gradient)" style="mix-blend-mode: overlay;isolation: isolate"/>
    <g id="Gruppe_1566" data-name="Gruppe 1566" transform="translate(272.682 321.525)" opacity="0.44">
      <g id="Gruppe_1523" data-name="Gruppe 1523" clip-path="url(#clip-path)">
        <path id="Pfad_2387" data-name="Pfad 2387" d="M88.716,218.047q-1.783,18.525-3.227,37.078c3.146.177,6.3.2,9.451.064l-1.269-36.526a1.432,1.432,0,0,0-.236-.9,1.481,1.481,0,0,0-1.072-.38,13.758,13.758,0,0,0-3.26.187" transform="translate(-47.783 -124.821)" fill="#486680"/>
        <path id="Pfad_2388" data-name="Pfad 2388" d="M89.866,107.245a15.471,15.471,0,0,1-2.474-1.525,5.076,5.076,0,0,0-.511-.494c.84-.121,1.634-.252,2.28-.365-5.025-2.684-12.335-11.494-15.444-16.208-.67-1.016-1.269-1.945-1.817-2.808-.3-2.643,1.3-2.053,2.777-2.427a6.025,6.025,0,0,1-2.339-1.943,26.984,26.984,0,0,0,4.01-.737c-3.591-2.663-7.995-9.953-10.525-13.871-.429-.665-.826-1.315-1.2-1.949-.062-.411.026-1.017-.06-1.4,1.194.424,3.362,2.215,2.923-.767.8.147,2.174,1.521,1.821-.783a7.324,7.324,0,0,0,2.3.441c-.412-.5-1.07-1.433-1.7-2.224a14.285,14.285,0,0,0,2.487-.409,32.822,32.822,0,0,1-7.679-9.257c-1.68-2.947-3.341-5.928-4.641-8.316a2.744,2.744,0,0,1-.126-.965,17.105,17.105,0,0,0,2.645.514c-.142-.408-.384-.817-.526-1.225.912-.459,1.388.7,2.2.372-.14-.476-.433-.886-.572-1.428.655-.193,1.44.631,2.14.709a7.635,7.635,0,0,0-.783-1.065c.005,0,.012,0,.018,0a51.941,51.941,0,0,1-6.556-9.167c-1.581-3.027-3.154-6.446-4.648-9.472a55.856,55.856,0,0,1-3.044-7.5c-.489-1.445-1.561-3.933-1.961-5.506-.486-1.574-.733-2.388-1.257-4.08C47.279,2.342,46.725.565,46.647,0l-.012.034c-1.877,6.6-4.6,12.392-7.232,18.227a71.809,71.809,0,0,1-5.566,10.578,33.818,33.818,0,0,1-5.988,7.033,6.691,6.691,0,0,1-1.4.631,3.469,3.469,0,0,0,.925.96,2.723,2.723,0,0,1-1.288.553c.78,1.026,2.24.711,3.291.794a2.04,2.04,0,0,1-1.327,1.129,4.45,4.45,0,0,0,2.655.041,9.414,9.414,0,0,1-1.189,1.739c-.256.267-.658.328-.916.662a1.769,1.769,0,0,0,1.526.206c-.686,1.221-1.363,2.395-2,3.454-2.1,3.472-5.3,9.189-7.747,11.635a3.49,3.49,0,0,1-1.939.634A4.286,4.286,0,0,0,20.4,59.552c.7,1.05,1.955.765,2.888.768l.032.031A9.928,9.928,0,0,1,22.1,62.057a9.484,9.484,0,0,0,2.78.2C22.37,66.87,17.326,75.277,14.73,77.572a5.931,5.931,0,0,1-2.363,1.27,6.857,6.857,0,0,0,1.906,1.281,17.288,17.288,0,0,1-1.942,1.12c1.327,1.238,3.289.862,4.942.888a7.641,7.641,0,0,1-1.554,2.41,4.72,4.72,0,0,0,1.714.132C13.522,90.029,6.592,99.227,3.285,101.323A9.538,9.538,0,0,1,0,102.578a10.746,10.746,0,0,0,2.944,1.385A12.634,12.634,0,0,0,0,105.324c1.154,2.316,4.486,1.15,6.184,1.447-.209.4-.223,1.078-.532,1.479,2.479,1.255,6.095.9,8.611.4a12.78,12.78,0,0,1-.441,1.886c1.4.157,3.524-.757,4.821-.467.8.283.776,1.229,1.878,1.246,1.405-.114.939-1.744,2.113-.373.685.822.261,1.9,1.157,2.181.5.143,1.921-.782,2.327-1.046,2.53-1.178,2.525-.908,4.587,1.152a12.9,12.9,0,0,1,1.034-1.471c1.655,2.324,2.147,2.737,4.28,1.418,1.626-1.057,3.513-.217,4.575,1.693.924-1.067,1.239-1.739,2.439-1.585.9.149,1.775,1.379,2.683,1.123s1.236-1.6,2.338-1.586c.9.014,1.975,1.382,2.977,1.4-.135-3.112,3.43-1.029,4.824-.6a11.957,11.957,0,0,0,.14-1.891c2.2.169,4.275,1.688,6.582,1.588a7.535,7.535,0,0,0-.169-1.49c2.419-.639,6.179,1.717,8.784,1.757a4.643,4.643,0,0,1-1.358-2.184c1.531-1.328,5.1.484,6.905.512-.5-.143-.885-.825-1.372-1.508,1.517-.653,3.5.324,5.1.349a4.935,4.935,0,0,1-.581-.955c1.317-.656,3.189.86,4.6.476a12.121,12.121,0,0,1-.565-1.767c1.211-.387,2.5.038,3.708.057-.292-.41-.479-1.089-.674-1.362l2.906.045" fill="#486680"/>
        <path id="Pfad_2389" data-name="Pfad 2389" d="M88.786,113.8c-6.54,1.735-13.256,2.742-19.838,4.3-.254.06-.505.123-.756.181q.281-10.2.561-20.4A36.31,36.31,0,0,0,75.494,96.7l9.245-2.139c1.841-.426,1.27-2.453-.564-2.029l-8.288,1.918a32.255,32.255,0,0,1-7.076,1.285q.27-9.916.545-19.832a2.139,2.139,0,0,0,.23-.078q.509-.252,1.036-.467c.176-.072.353-.139.531-.2l.23-.083q-.188.066.081-.026c.7-.227,1.413-.438,2.123-.646l4.56-1.335c.531-.155,1.408-.608,1.222-1.279-.18-.648-1.2-.67-1.721-.519l-4.726,1.383c-1.181.346-2.369.7-3.509,1.157q.251-9.116.508-18.232c.027-.961-1.961-.668-1.984.156q-.255,9.021-.5,18.042c-1.044-.5-2.03-1.164-3.034-1.69a24.376,24.376,0,0,0-2.643-1.32,30.007,30.007,0,0,0-3.089-.925,2.574,2.574,0,0,0-2.08.538c-.48.419-.314.84.276.994a22.065,22.065,0,0,1,2.914.9c.9.371,1.726.878,2.578,1.332a20.121,20.121,0,0,0,5.02,2.325q-.27,9.807-.539,19.613a52.191,52.191,0,0,1-7.157-1.958q-3.936-1.231-7.794-2.676c-1.3-.485-3.435,1.321-1.683,1.973q4.157,1.548,8.4,2.864a43.439,43.439,0,0,0,8.171,2.078q-.282,10.339-.569,20.679a4.066,4.066,0,0,1-.478-.033c-.938-.155-1.868-.446-2.785-.68q-2.915-.743-5.824-1.5-5.979-1.567-11.935-3.217c-.925-.256-3.449,1.074-1.806,1.528q6.44,1.782,12.905,3.471c3.152.822,6.556,2.176,9.88,2.006,0,.141-.008.282-.011.423q-.255,9.259-.516,18.518c-.027.961,1.961.668,1.984-.157q.269-9.533.524-19.065c7-1.469,14.114-2.76,21.024-4.593,1.753-.465,1.384-1.871-.389-1.4" transform="translate(-23.946 -31.568)" fill="#486680"/>
      </g>
    </g>
    <g id="Gruppe_1567" data-name="Gruppe 1567" transform="translate(37.682 321.525)" opacity="0.44">
      <g id="Gruppe_1523-2" data-name="Gruppe 1523" clip-path="url(#clip-path)">
        <path id="Pfad_2387-2" data-name="Pfad 2387" d="M88.716,218.047q-1.783,18.525-3.227,37.078c3.146.177,6.3.2,9.451.064l-1.269-36.526a1.432,1.432,0,0,0-.236-.9,1.481,1.481,0,0,0-1.072-.38,13.758,13.758,0,0,0-3.26.187" transform="translate(-47.783 -124.821)" fill="#486680"/>
        <path id="Pfad_2388-2" data-name="Pfad 2388" d="M89.866,107.245a15.471,15.471,0,0,1-2.474-1.525,5.076,5.076,0,0,0-.511-.494c.84-.121,1.634-.252,2.28-.365-5.025-2.684-12.335-11.494-15.444-16.208-.67-1.016-1.269-1.945-1.817-2.808-.3-2.643,1.3-2.053,2.777-2.427a6.025,6.025,0,0,1-2.339-1.943,26.984,26.984,0,0,0,4.01-.737c-3.591-2.663-7.995-9.953-10.525-13.871-.429-.665-.826-1.315-1.2-1.949-.062-.411.026-1.017-.06-1.4,1.194.424,3.362,2.215,2.923-.767.8.147,2.174,1.521,1.821-.783a7.324,7.324,0,0,0,2.3.441c-.412-.5-1.07-1.433-1.7-2.224a14.285,14.285,0,0,0,2.487-.409,32.822,32.822,0,0,1-7.679-9.257c-1.68-2.947-3.341-5.928-4.641-8.316a2.744,2.744,0,0,1-.126-.965,17.105,17.105,0,0,0,2.645.514c-.142-.408-.384-.817-.526-1.225.912-.459,1.388.7,2.2.372-.14-.476-.433-.886-.572-1.428.655-.193,1.44.631,2.14.709a7.635,7.635,0,0,0-.783-1.065c.005,0,.012,0,.018,0a51.941,51.941,0,0,1-6.556-9.167c-1.581-3.027-3.154-6.446-4.648-9.472a55.856,55.856,0,0,1-3.044-7.5c-.489-1.445-1.561-3.933-1.961-5.506-.486-1.574-.733-2.388-1.257-4.08C47.279,2.342,46.725.565,46.647,0l-.012.034c-1.877,6.6-4.6,12.392-7.232,18.227a71.809,71.809,0,0,1-5.566,10.578,33.818,33.818,0,0,1-5.988,7.033,6.691,6.691,0,0,1-1.4.631,3.469,3.469,0,0,0,.925.96,2.723,2.723,0,0,1-1.288.553c.78,1.026,2.24.711,3.291.794a2.04,2.04,0,0,1-1.327,1.129,4.45,4.45,0,0,0,2.655.041,9.414,9.414,0,0,1-1.189,1.739c-.256.267-.658.328-.916.662a1.769,1.769,0,0,0,1.526.206c-.686,1.221-1.363,2.395-2,3.454-2.1,3.472-5.3,9.189-7.747,11.635a3.49,3.49,0,0,1-1.939.634A4.286,4.286,0,0,0,20.4,59.552c.7,1.05,1.955.765,2.888.768l.032.031A9.928,9.928,0,0,1,22.1,62.057a9.484,9.484,0,0,0,2.78.2C22.37,66.87,17.326,75.277,14.73,77.572a5.931,5.931,0,0,1-2.363,1.27,6.857,6.857,0,0,0,1.906,1.281,17.288,17.288,0,0,1-1.942,1.12c1.327,1.238,3.289.862,4.942.888a7.641,7.641,0,0,1-1.554,2.41,4.72,4.72,0,0,0,1.714.132C13.522,90.029,6.592,99.227,3.285,101.323A9.538,9.538,0,0,1,0,102.578a10.746,10.746,0,0,0,2.944,1.385A12.634,12.634,0,0,0,0,105.324c1.154,2.316,4.486,1.15,6.184,1.447-.209.4-.223,1.078-.532,1.479,2.479,1.255,6.095.9,8.611.4a12.78,12.78,0,0,1-.441,1.886c1.4.157,3.524-.757,4.821-.467.8.283.776,1.229,1.878,1.246,1.405-.114.939-1.744,2.113-.373.685.822.261,1.9,1.157,2.181.5.143,1.921-.782,2.327-1.046,2.53-1.178,2.525-.908,4.587,1.152a12.9,12.9,0,0,1,1.034-1.471c1.655,2.324,2.147,2.737,4.28,1.418,1.626-1.057,3.513-.217,4.575,1.693.924-1.067,1.239-1.739,2.439-1.585.9.149,1.775,1.379,2.683,1.123s1.236-1.6,2.338-1.586c.9.014,1.975,1.382,2.977,1.4-.135-3.112,3.43-1.029,4.824-.6a11.957,11.957,0,0,0,.14-1.891c2.2.169,4.275,1.688,6.582,1.588a7.535,7.535,0,0,0-.169-1.49c2.419-.639,6.179,1.717,8.784,1.757a4.643,4.643,0,0,1-1.358-2.184c1.531-1.328,5.1.484,6.905.512-.5-.143-.885-.825-1.372-1.508,1.517-.653,3.5.324,5.1.349a4.935,4.935,0,0,1-.581-.955c1.317-.656,3.189.86,4.6.476a12.121,12.121,0,0,1-.565-1.767c1.211-.387,2.5.038,3.708.057-.292-.41-.479-1.089-.674-1.362l2.906.045" fill="#486680"/>
        <path id="Pfad_2389-2" data-name="Pfad 2389" d="M88.786,113.8c-6.54,1.735-13.256,2.742-19.838,4.3-.254.06-.505.123-.756.181q.281-10.2.561-20.4A36.31,36.31,0,0,0,75.494,96.7l9.245-2.139c1.841-.426,1.27-2.453-.564-2.029l-8.288,1.918a32.255,32.255,0,0,1-7.076,1.285q.27-9.916.545-19.832a2.139,2.139,0,0,0,.23-.078q.509-.252,1.036-.467c.176-.072.353-.139.531-.2l.23-.083q-.188.066.081-.026c.7-.227,1.413-.438,2.123-.646l4.56-1.335c.531-.155,1.408-.608,1.222-1.279-.18-.648-1.2-.67-1.721-.519l-4.726,1.383c-1.181.346-2.369.7-3.509,1.157q.251-9.116.508-18.232c.027-.961-1.961-.668-1.984.156q-.255,9.021-.5,18.042c-1.044-.5-2.03-1.164-3.034-1.69a24.376,24.376,0,0,0-2.643-1.32,30.007,30.007,0,0,0-3.089-.925,2.574,2.574,0,0,0-2.08.538c-.48.419-.314.84.276.994a22.065,22.065,0,0,1,2.914.9c.9.371,1.726.878,2.578,1.332a20.121,20.121,0,0,0,5.02,2.325q-.27,9.807-.539,19.613a52.191,52.191,0,0,1-7.157-1.958q-3.936-1.231-7.794-2.676c-1.3-.485-3.435,1.321-1.683,1.973q4.157,1.548,8.4,2.864a43.439,43.439,0,0,0,8.171,2.078q-.282,10.339-.569,20.679a4.066,4.066,0,0,1-.478-.033c-.938-.155-1.868-.446-2.785-.68q-2.915-.743-5.824-1.5-5.979-1.567-11.935-3.217c-.925-.256-3.449,1.074-1.806,1.528q6.44,1.782,12.905,3.471c3.152.822,6.556,2.176,9.88,2.006,0,.141-.008.282-.011.423q-.255,9.259-.516,18.518c-.027.961,1.961.668,1.984-.157q.269-9.533.524-19.065c7-1.469,14.114-2.76,21.024-4.593,1.753-.465,1.384-1.871-.389-1.4" transform="translate(-23.946 -31.568)" fill="#486680"/>
      </g>
    </g>
    <g id="background" transform="translate(397.892 153.397) rotate(180)">
      <path id="Pfad_1374" data-name="Pfad 1374" d="M0,20.052S4.383,48.695,16.606,44.4c2.614-.916,9.815,5.666,12.223,12.887s2.9,12.228,11.5,12.887c18.693,1.432,17.849,14.4,27.6,17.211,4.546,1.313,6.892-7.012,11.945-5.756,5,1.241,9.587,11.732,15.1,12.887,5.7,1.2,8.825,2.544,21.058,3.742,7.613-1.613,8.382,1.976,20.128-3.7,7.845-3.795,10.73,5.308,14.943,7.083,3.513,1.48,8.854-1.322,12.261.286s5.935,6.224,11.571,5.346c4.862-.759,6.805-12.811,18.178.807,3.256,3.9,9.187,1.685,12.925,1.609,4.066-.081,6.106,2.644,10.1,2.415,5.332-.305,7.335-6.692,12.523-7.241,3.659-.387,7.728,2.1,11.31,1.608,3.127-.434,9.86,1.313,12.925.807,4.234-.7,7.2-4.8,11.31-5.632,4.39-.888,6.261-.587,10.5-1.608,3.407-.821,8.813-3.131,12.118-4.024,3.137-.85,7.057,1.709,10.1.807,2.346-.7,6.2-5.709,8.483-6.439,4.963-1.58,8.655,1.69,13.33,0,6.626-2.391,12.98-7.14,18.985-9.656,8.459-3.542,14.706-16.605,21.813-20.113,15.444-7.632,12.223-30.523,29.478-34.819C400.51,22.925,406.872.01,406.872.01V156.421H0Z" transform="translate(0 0)" fill="#fff"/>
    </g>
    <ellipse id="Ellipse_288" data-name="Ellipse 288" cx="441.5" cy="211" rx="441.5" ry="211" transform="translate(-246 445)" fill="#fff"/>
    <g id="Gruppe_1787" data-name="Gruppe 1787" transform="translate(360 360.396)" opacity="0.31">
      <g id="Gruppe_1523-3" data-name="Gruppe 1523" clip-path="url(#clip-path-3)">
        <path id="Pfad_2387-3" data-name="Pfad 2387" d="M88.211,217.94q-1.5,15.63-2.722,31.284c2.654.149,5.317.167,7.974.054L92.392,218.46a1.208,1.208,0,0,0-.2-.758,1.25,1.25,0,0,0-.9-.321,11.608,11.608,0,0,0-2.751.158" transform="translate(-53.676 -139.283)" fill="#486680"/>
        <path id="Pfad_2388-3" data-name="Pfad 2388" d="M75.822,90.484A13.052,13.052,0,0,1,73.734,89.2a4.283,4.283,0,0,0-.431-.417c.709-.1,1.379-.213,1.924-.308C70.988,86.208,64.82,78.775,62.2,74.8c-.565-.857-1.071-1.641-1.533-2.369-.253-2.23,1.1-1.732,2.343-2.048a5.084,5.084,0,0,1-1.973-1.639,22.767,22.767,0,0,0,3.383-.621c-3.029-2.246-6.745-8.4-8.88-11.7-.362-.561-.7-1.109-1.008-1.644-.052-.347.022-.858-.05-1.179,1.007.357,2.836,1.869,2.466-.647.674.124,1.834,1.283,1.536-.661a6.18,6.18,0,0,0,1.937.372c-.348-.418-.9-1.209-1.435-1.876a12.053,12.053,0,0,0,2.1-.345,27.692,27.692,0,0,1-6.479-7.81c-1.418-2.486-2.819-5-3.916-7.016a2.315,2.315,0,0,1-.106-.814,14.432,14.432,0,0,0,2.232.434c-.12-.344-.324-.69-.444-1.034.769-.387,1.171.588,1.854.314-.118-.4-.365-.747-.482-1.205.553-.163,1.215.532,1.806.6a6.442,6.442,0,0,0-.661-.9s.01,0,.015,0a43.824,43.824,0,0,1-5.531-7.734c-1.334-2.554-2.661-5.438-3.922-7.992a47.127,47.127,0,0,1-2.568-6.325c-.413-1.219-1.317-3.319-1.654-4.646-.41-1.328-.619-2.015-1.06-3.443C39.89,1.976,39.423.477,39.357,0l-.01.028a110.1,110.1,0,0,1-6.1,15.379,60.586,60.586,0,0,1-4.7,8.925A28.533,28.533,0,0,1,23.5,30.266a5.645,5.645,0,0,1-1.179.533,2.927,2.927,0,0,0,.78.81,2.3,2.3,0,0,1-1.087.467c.658.866,1.89.6,2.777.67a1.722,1.722,0,0,1-1.119.953,3.754,3.754,0,0,0,2.24.034,7.943,7.943,0,0,1-1,1.467c-.216.225-.555.277-.773.559a1.493,1.493,0,0,0,1.287.174c-.579,1.03-1.15,2.021-1.689,2.914-1.769,2.929-4.469,7.753-6.536,9.816a2.944,2.944,0,0,1-1.636.535,3.616,3.616,0,0,0,1.657,1.047c.593.886,1.65.645,2.436.648l.027.026a8.377,8.377,0,0,1-1.031,1.44,8,8,0,0,0,2.345.172c-2.119,3.888-6.375,10.981-8.566,12.918a5,5,0,0,1-1.993,1.071,5.785,5.785,0,0,0,1.608,1.08,14.588,14.588,0,0,1-1.639.945c1.12,1.044,2.775.727,4.17.749a6.447,6.447,0,0,1-1.311,2.033,3.983,3.983,0,0,0,1.446.111c-3.3,4.52-9.147,12.28-11.938,14.049A8.048,8.048,0,0,1,0,86.547a9.067,9.067,0,0,0,2.484,1.168A10.66,10.66,0,0,0,0,88.864c.974,1.954,3.785.971,5.218,1.221-.176.34-.188.91-.449,1.248,2.092,1.059,5.142.763,7.265.339a10.783,10.783,0,0,1-.372,1.591c1.181.132,2.973-.639,4.068-.394.672.239.655,1.037,1.585,1.051,1.186-.1.792-1.471,1.782-.315.578.693.22,1.6.976,1.84.421.12,1.621-.659,1.964-.883,2.135-.994,2.13-.766,3.87.972a10.884,10.884,0,0,1,.872-1.241c1.4,1.961,1.812,2.309,3.611,1.2,1.372-.892,2.964-.183,3.86,1.428.78-.9,1.045-1.467,2.057-1.337.759.126,1.5,1.164,2.264.947s1.043-1.353,1.973-1.338c.76.011,1.667,1.166,2.512,1.179-.114-2.625,2.894-.868,4.07-.508a10.087,10.087,0,0,0,.118-1.6c1.858.143,3.607,1.424,5.553,1.34a6.357,6.357,0,0,0-.143-1.257c2.041-.539,5.213,1.449,7.411,1.483a3.918,3.918,0,0,1-1.145-1.843c1.292-1.121,4.3.408,5.826.432-.421-.121-.747-.7-1.157-1.273,1.28-.551,2.954.273,4.307.294a4.163,4.163,0,0,1-.49-.806c1.111-.553,2.69.726,3.882.4a10.226,10.226,0,0,1-.476-1.491,9.593,9.593,0,0,1,3.128.048c-.247-.346-.4-.919-.568-1.149l2.452.038" fill="#486680"/>
        <path id="Pfad_2389-3" data-name="Pfad 2389" d="M81.605,104.6c-5.518,1.464-11.184,2.313-16.738,3.63-.215.051-.426.1-.638.153q.237-8.6.473-17.209a30.636,30.636,0,0,0,5.688-1l7.8-1.805c1.553-.359,1.072-2.07-.476-1.712l-6.993,1.618a27.215,27.215,0,0,1-5.97,1.084q.228-8.366.46-16.733a1.8,1.8,0,0,0,.194-.066q.43-.213.874-.394c.148-.06.3-.117.448-.173l.194-.07q-.159.056.068-.022c.594-.191,1.192-.37,1.791-.545l3.847-1.126c.448-.131,1.188-.513,1.031-1.079-.152-.547-1.015-.565-1.452-.438l-3.988,1.167c-1,.292-2,.587-2.961.976q.212-7.691.429-15.383c.023-.811-1.654-.564-1.674.132Q63.8,63.223,63.6,70.835c-.881-.426-1.713-.982-2.56-1.426a20.566,20.566,0,0,0-2.23-1.114,25.319,25.319,0,0,0-2.606-.781,2.171,2.171,0,0,0-1.755.454c-.405.353-.265.709.233.838a18.616,18.616,0,0,1,2.458.762c.755.313,1.457.741,2.175,1.124a16.976,16.976,0,0,0,4.236,1.962q-.228,8.274-.455,16.548a44.035,44.035,0,0,1-6.038-1.652q-3.321-1.038-6.576-2.258c-1.1-.409-2.9,1.114-1.42,1.665q3.508,1.306,7.087,2.416a36.651,36.651,0,0,0,6.894,1.753q-.238,8.723-.48,17.447a3.432,3.432,0,0,1-.4-.028c-.791-.131-1.576-.376-2.35-.574q-2.459-.627-4.914-1.27-5.045-1.322-10.07-2.714c-.78-.216-2.91.906-1.524,1.289q5.433,1.5,10.888,2.928c2.659.694,5.532,1.836,8.336,1.693,0,.119-.007.238-.01.357q-.215,7.812-.435,15.624c-.023.811,1.654.563,1.674-.132q.227-8.043.442-16.086c5.91-1.239,11.908-2.328,17.739-3.875,1.479-.392,1.168-1.578-.328-1.181" transform="translate(-26.899 -35.226)" fill="#486680"/>
      </g>
    </g>
    <g id="Gruppe_1788" data-name="Gruppe 1788" transform="translate(-43.572 352.338)" opacity="0.31">
      <g id="Gruppe_1523-4" data-name="Gruppe 1523" clip-path="url(#clip-path-3)">
        <path id="Pfad_2387-4" data-name="Pfad 2387" d="M88.211,217.94q-1.5,15.63-2.722,31.284c2.654.149,5.317.167,7.974.054L92.392,218.46a1.208,1.208,0,0,0-.2-.758,1.25,1.25,0,0,0-.9-.321,11.608,11.608,0,0,0-2.751.158" transform="translate(-53.676 -139.283)" fill="#486680"/>
        <path id="Pfad_2388-4" data-name="Pfad 2388" d="M75.822,90.484A13.052,13.052,0,0,1,73.734,89.2a4.283,4.283,0,0,0-.431-.417c.709-.1,1.379-.213,1.924-.308C70.988,86.208,64.82,78.775,62.2,74.8c-.565-.857-1.071-1.641-1.533-2.369-.253-2.23,1.1-1.732,2.343-2.048a5.084,5.084,0,0,1-1.973-1.639,22.767,22.767,0,0,0,3.383-.621c-3.029-2.246-6.745-8.4-8.88-11.7-.362-.561-.7-1.109-1.008-1.644-.052-.347.022-.858-.05-1.179,1.007.357,2.836,1.869,2.466-.647.674.124,1.834,1.283,1.536-.661a6.18,6.18,0,0,0,1.937.372c-.348-.418-.9-1.209-1.435-1.876a12.053,12.053,0,0,0,2.1-.345,27.692,27.692,0,0,1-6.479-7.81c-1.418-2.486-2.819-5-3.916-7.016a2.315,2.315,0,0,1-.106-.814,14.432,14.432,0,0,0,2.232.434c-.12-.344-.324-.69-.444-1.034.769-.387,1.171.588,1.854.314-.118-.4-.365-.747-.482-1.205.553-.163,1.215.532,1.806.6a6.442,6.442,0,0,0-.661-.9s.01,0,.015,0a43.824,43.824,0,0,1-5.531-7.734c-1.334-2.554-2.661-5.438-3.922-7.992a47.127,47.127,0,0,1-2.568-6.325c-.413-1.219-1.317-3.319-1.654-4.646-.41-1.328-.619-2.015-1.06-3.443C39.89,1.976,39.423.477,39.357,0l-.01.028a110.1,110.1,0,0,1-6.1,15.379,60.586,60.586,0,0,1-4.7,8.925A28.533,28.533,0,0,1,23.5,30.266a5.645,5.645,0,0,1-1.179.533,2.927,2.927,0,0,0,.78.81,2.3,2.3,0,0,1-1.087.467c.658.866,1.89.6,2.777.67a1.722,1.722,0,0,1-1.119.953,3.754,3.754,0,0,0,2.24.034,7.943,7.943,0,0,1-1,1.467c-.216.225-.555.277-.773.559a1.493,1.493,0,0,0,1.287.174c-.579,1.03-1.15,2.021-1.689,2.914-1.769,2.929-4.469,7.753-6.536,9.816a2.944,2.944,0,0,1-1.636.535,3.616,3.616,0,0,0,1.657,1.047c.593.886,1.65.645,2.436.648l.027.026a8.377,8.377,0,0,1-1.031,1.44,8,8,0,0,0,2.345.172c-2.119,3.888-6.375,10.981-8.566,12.918a5,5,0,0,1-1.993,1.071,5.785,5.785,0,0,0,1.608,1.08,14.588,14.588,0,0,1-1.639.945c1.12,1.044,2.775.727,4.17.749a6.447,6.447,0,0,1-1.311,2.033,3.983,3.983,0,0,0,1.446.111c-3.3,4.52-9.147,12.28-11.938,14.049A8.048,8.048,0,0,1,0,86.547a9.067,9.067,0,0,0,2.484,1.168A10.66,10.66,0,0,0,0,88.864c.974,1.954,3.785.971,5.218,1.221-.176.34-.188.91-.449,1.248,2.092,1.059,5.142.763,7.265.339a10.783,10.783,0,0,1-.372,1.591c1.181.132,2.973-.639,4.068-.394.672.239.655,1.037,1.585,1.051,1.186-.1.792-1.471,1.782-.315.578.693.22,1.6.976,1.84.421.12,1.621-.659,1.964-.883,2.135-.994,2.13-.766,3.87.972a10.884,10.884,0,0,1,.872-1.241c1.4,1.961,1.812,2.309,3.611,1.2,1.372-.892,2.964-.183,3.86,1.428.78-.9,1.045-1.467,2.057-1.337.759.126,1.5,1.164,2.264.947s1.043-1.353,1.973-1.338c.76.011,1.667,1.166,2.512,1.179-.114-2.625,2.894-.868,4.07-.508a10.087,10.087,0,0,0,.118-1.6c1.858.143,3.607,1.424,5.553,1.34a6.357,6.357,0,0,0-.143-1.257c2.041-.539,5.213,1.449,7.411,1.483a3.918,3.918,0,0,1-1.145-1.843c1.292-1.121,4.3.408,5.826.432-.421-.121-.747-.7-1.157-1.273,1.28-.551,2.954.273,4.307.294a4.163,4.163,0,0,1-.49-.806c1.111-.553,2.69.726,3.882.4a10.226,10.226,0,0,1-.476-1.491,9.593,9.593,0,0,1,3.128.048c-.247-.346-.4-.919-.568-1.149l2.452.038" fill="#486680"/>
        <path id="Pfad_2389-4" data-name="Pfad 2389" d="M81.605,104.6c-5.518,1.464-11.184,2.313-16.738,3.63-.215.051-.426.1-.638.153q.237-8.6.473-17.209a30.636,30.636,0,0,0,5.688-1l7.8-1.805c1.553-.359,1.072-2.07-.476-1.712l-6.993,1.618a27.215,27.215,0,0,1-5.97,1.084q.228-8.366.46-16.733a1.8,1.8,0,0,0,.194-.066q.43-.213.874-.394c.148-.06.3-.117.448-.173l.194-.07q-.159.056.068-.022c.594-.191,1.192-.37,1.791-.545l3.847-1.126c.448-.131,1.188-.513,1.031-1.079-.152-.547-1.015-.565-1.452-.438l-3.988,1.167c-1,.292-2,.587-2.961.976q.212-7.691.429-15.383c.023-.811-1.654-.564-1.674.132Q63.8,63.223,63.6,70.835c-.881-.426-1.713-.982-2.56-1.426a20.566,20.566,0,0,0-2.23-1.114,25.319,25.319,0,0,0-2.606-.781,2.171,2.171,0,0,0-1.755.454c-.405.353-.265.709.233.838a18.616,18.616,0,0,1,2.458.762c.755.313,1.457.741,2.175,1.124a16.976,16.976,0,0,0,4.236,1.962q-.228,8.274-.455,16.548a44.035,44.035,0,0,1-6.038-1.652q-3.321-1.038-6.576-2.258c-1.1-.409-2.9,1.114-1.42,1.665q3.508,1.306,7.087,2.416a36.651,36.651,0,0,0,6.894,1.753q-.238,8.723-.48,17.447a3.432,3.432,0,0,1-.4-.028c-.791-.131-1.576-.376-2.35-.574q-2.459-.627-4.914-1.27-5.045-1.322-10.07-2.714c-.78-.216-2.91.906-1.524,1.289q5.433,1.5,10.888,2.928c2.659.694,5.532,1.836,8.336,1.693,0,.119-.007.238-.01.357q-.215,7.812-.435,15.624c-.023.811,1.654.563,1.674-.132q.227-8.043.442-16.086c5.91-1.239,11.908-2.328,17.739-3.875,1.479-.392,1.168-1.578-.328-1.181" transform="translate(-26.899 -35.226)" fill="#486680"/>
      </g>
    </g>
  </g>
</svg>
