<svg xmlns="http://www.w3.org/2000/svg" xmlns:xlink="http://www.w3.org/1999/xlink" width="122.605" height="267.686" viewBox="0 0 122.605 267.686">
  <defs>
    <clipPath id="clip-path">
      <rect id="Rechteck_748" data-name="Rechteck 748" width="122.605" height="251.979" fill="none"/>
    </clipPath>
    <clipPath id="clip-path-2">
      <rect id="Rechteck_747" data-name="Rechteck 747" width="122.605" height="251.978" fill="none"/>
    </clipPath>
    <clipPath id="clip-path-3">
      <rect id="Rechteck_736" data-name="Rechteck 736" width="75.229" height="109.386" fill="none"/>
    </clipPath>
    <clipPath id="clip-path-4">
      <rect id="Rechteck_737" data-name="Rechteck 737" width="12.101" height="27.805" fill="none"/>
    </clipPath>
    <clipPath id="clip-path-5">
      <rect id="Rechteck_738" data-name="Rechteck 738" width="20.237" height="44.685" fill="none"/>
    </clipPath>
    <clipPath id="clip-path-6">
      <rect id="Rechteck_739" data-name="Rechteck 739" width="69.444" height="22.32" fill="none"/>
    </clipPath>
    <clipPath id="clip-path-7">
      <rect id="Rechteck_740" data-name="Rechteck 740" width="13.376" height="20.325" fill="none"/>
    </clipPath>
    <clipPath id="clip-path-8">
      <rect id="Rechteck_741" data-name="Rechteck 741" width="19.048" height="20.327" fill="none"/>
    </clipPath>
    <clipPath id="clip-path-9">
      <rect id="Rechteck_742" data-name="Rechteck 742" width="79.679" height="49.975" fill="none"/>
    </clipPath>
    <clipPath id="clip-path-10">
      <rect id="Rechteck_743" data-name="Rechteck 743" width="100.055" height="50.311" fill="none"/>
    </clipPath>
    <clipPath id="clip-path-11">
      <rect id="Rechteck_744" data-name="Rechteck 744" width="86.721" height="24.748" fill="none"/>
    </clipPath>
    <clipPath id="clip-path-12">
      <rect id="Rechteck_745" data-name="Rechteck 745" width="37.922" height="10.592" fill="none"/>
    </clipPath>
    <clipPath id="clip-path-13">
      <rect id="Rechteck_746" data-name="Rechteck 746" width="89.047" height="11.63" fill="none"/>
    </clipPath>
  </defs>
  <g id="boyBrown" transform="translate(-710.95 -692.61)">
    <path id="Pfad_3341" data-name="Pfad 3341" d="M3080.8,831.695c-10.436-4.035,30.936-13.1,98.4,3.57C3178.951,836.694,3137.691,867.65,3080.8,831.695Z" transform="translate(-2360.939 111.284)" fill="#83b1c9" opacity="0.14"/>
    <g id="Gruppe_1783" data-name="Gruppe 1783" transform="translate(710.95 692.61)">
      <g id="Gruppe_1780" data-name="Gruppe 1780" clip-path="url(#clip-path)">
        <g id="Gruppe_1779" data-name="Gruppe 1779" transform="translate(0 0.001)">
          <g id="Gruppe_1778" data-name="Gruppe 1778" clip-path="url(#clip-path-2)">
            <path id="Pfad_3272" data-name="Pfad 3272" d="M17.993,594.23c-6.829,4.444-6.544,9.985-6.785,15.533-1.094,25.226.444,50.847-5.874,75.295-1.083,4.19-2.592,8.375-5.334,11.724,1.061,1.537,4.167,1.388,5.926.763a19.8,19.8,0,0,0,4.7-3.006,7.668,7.668,0,0,1,5.155-1.833c2.4.276,4.112,2.354,5.861,4.023a22.954,22.954,0,0,0,28.125,2.109c2.145-1.505,4.587-3.507,7.058-2.634,1.77.625,2.708,2.492,3.908,3.934a10.519,10.519,0,0,0,6.9,3.688,20.873,20.873,0,0,0,7.456-1.034l8.94-2.369a422.214,422.214,0,0,0-1.452-99.163c-20.678-3.336-43.652-6.438-64.588-7.029" transform="translate(0 -460.268)" fill="#4b3f72"/>
            <g id="Gruppe_1747" data-name="Gruppe 1747" transform="translate(11.037 133.962)" opacity="0.4" style="mix-blend-mode: overlay;isolation: isolate">
              <g id="Gruppe_1746" data-name="Gruppe 1746">
                <g id="Gruppe_1745" data-name="Gruppe 1745" clip-path="url(#clip-path-3)">
                  <path id="Pfad_3273" data-name="Pfad 3273" d="M49.128,609.764c.241-5.548-.044-11.089,6.785-15.533,20.937.59,43.911,3.693,64.588,7.029a422.211,422.211,0,0,1,1.452,99.163l-8.94,2.369c-1.159.307-2.334.614-3.516.825q.529-2.039,1-4.125c2.957-12.761-4.286-24.245-13.088-32.621-10.48-9.972-22.319-17.045-32.6-27.226-7.5-7.138-13.3-15.354-15.847-25.317q.073-2.283.171-4.563" transform="translate(-48.957 -594.231)" fill="#470621"/>
                </g>
              </g>
            </g>
            <g id="Gruppe_1750" data-name="Gruppe 1750" transform="translate(53.144 215.201)" opacity="0.4" style="mix-blend-mode: overlay;isolation: isolate">
              <g id="Gruppe_1749" data-name="Gruppe 1749">
                <g id="Gruppe_1748" data-name="Gruppe 1748" clip-path="url(#clip-path-4)">
                  <path id="Pfad_3274" data-name="Pfad 3274" d="M247.835,982.391a10.514,10.514,0,0,1-4.51-3.137c-1.2-1.443-2.138-3.309-3.908-3.934a4.649,4.649,0,0,0-3.683.441c2.915-6.96,3.722-14.194,6.143-21.174a93.348,93.348,0,0,1,5.957,27.8" transform="translate(-235.734 -954.586)" fill="#470621"/>
                </g>
              </g>
            </g>
            <g id="Gruppe_1753" data-name="Gruppe 1753" transform="translate(4.527 192.934)" opacity="0.4" style="mix-blend-mode: overlay;isolation: isolate">
              <g id="Gruppe_1752" data-name="Gruppe 1752">
                <g id="Gruppe_1751" data-name="Gruppe 1751" clip-path="url(#clip-path-5)">
                  <path id="Pfad_3275" data-name="Pfad 3275" d="M40.319,855.816c-.392,14.481-.618,28.786-3.2,43.453-1.724-1.656-3.419-3.678-5.786-3.95a7.668,7.668,0,0,0-5.155,1.833,19.79,19.79,0,0,1-4.7,3.006,7.782,7.782,0,0,1-1.4.342q.43-.609.853-1.229c9.476-13.946,13.61-28.783,19.384-43.455" transform="translate(-20.082 -855.816)" fill="#470621"/>
                </g>
              </g>
            </g>
            <path id="Pfad_3276" data-name="Pfad 3276" d="M32.583,77.767a9.614,9.614,0,0,0,6.853,8.478c-.994,1.189-.05,2.41,1.208,3.316a2.947,2.947,0,0,0,4.062-.815,7.224,7.224,0,0,0,9.339,8.789,2.536,2.536,0,0,0,.538,3.377,3.811,3.811,0,0,0,3.6.475,8,8,0,0,0,3.067-2.164c3.159-3.3,4.713-7.746,7.373-11.465C85.913,63.575,108.876,45.2,132.237,26.811a19.5,19.5,0,0,0,1.252-8c-.005-.041-.008-.08-.013-.121a9.1,9.1,0,0,0-2.7-5.638,6.5,6.5,0,0,0-1.543-1.067c-2.474-1.222-5.941-.44-7.169,2.03a16.921,16.921,0,0,0-32.212-3.8,9.917,9.917,0,0,0-19.763,1.514,4.3,4.3,0,0,0-5.516-3.338,4.3,4.3,0,0,0-1.953,6.145,4.3,4.3,0,0,0-5.709-.057,4.3,4.3,0,0,0-.344,5.7,8.414,8.414,0,0,0-9.7-1.8A10.335,10.335,0,0,0,41.3,26.821a13.474,13.474,0,0,0,3.416,9.736,9.329,9.329,0,0,0-11.291,4.987A9.329,9.329,0,0,0,37.733,53.1s.006,0,.008,0a.026.026,0,0,1-.012,0,4.178,4.178,0,0,0-4.187,3.114,3.54,3.54,0,0,0-.1,1.065,4.133,4.133,0,0,0,4.766,3.637,6.2,6.2,0,0,0-3.336,2.451,4.045,4.045,0,0,0-.654,2c-.093,2.02,2.084,3.963,3.923,3.3a9.629,9.629,0,0,0-5.555,9.1" transform="translate(-25.227 -0.004)" fill="#1b2845"/>
            <path id="Pfad_3277" data-name="Pfad 3277" d="M226.137,43.456c.565-3.392,4.324-4.993,7.41-4.08,3.383,1,5.346,3.977,6.439,7.147a27.736,27.736,0,0,1,4.96-6.212,17.33,17.33,0,0,1,7.654-4.528,8.747,8.747,0,0,1,7.337,1.342,6.21,6.21,0,0,1,2.281,6.264.275.275,0,0,1-.534-.133,5.7,5.7,0,0,0-3.052-6.19,8.907,8.907,0,0,0-7.478,0c-4.744,1.97-8.533,6.464-10.87,10.912a.492.492,0,0,1-.892-.094c-.859-2.926-2.374-5.928-5.331-7.191-2.69-1.149-6.115-.016-6.759,3.054-.16.763-1.292.465-1.166-.291" transform="translate(-175.149 -27.511)" fill="#230211"/>
            <path id="Pfad_3278" data-name="Pfad 3278" d="M107.785,84.528a6.38,6.38,0,0,1,7.159-.765,3.86,3.86,0,0,1,1.425-3.606,3.968,3.968,0,0,1,4.549-.03c-.126-1.973.362-4,2.351-4.9,2.381-1.081,3.984,1.113,4.891,3,.157.327-.3.63-.49.3-.827-1.442-2.085-3.324-4-2.412-2.07.985-1.925,3.548-1.474,5.427a.538.538,0,0,1-.967.436,2.952,2.952,0,0,0-4.153-.947,2.907,2.907,0,0,0-.268,4.217c.457.561-.277,1.4-.8.839a5.467,5.467,0,0,0-6.752-1.164c-2.125,1.374-2.284,4.615.369,5.467a.557.557,0,0,1-.269,1.08,3.607,3.607,0,0,1-2.9-2.751,4.4,4.4,0,0,1,1.326-4.186" transform="translate(-82.367 -58.044)" fill="#230211"/>
            <path id="Pfad_3279" data-name="Pfad 3279" d="M57.854,197.707c-2.674-2.089-5.6-4.986-4.361-8.671,1.074-3.2,6.316-4.511,8.963-2.6.31.224.052.746-.3.537-2.564-1.533-7.549-.163-7.988,3.085-.457,3.38,2.557,5.71,4.964,7.477.292.214.113.68-.184.773-1.2.379-3.037,1-3.279,2.44-.278,1.664,1.8,2.578,3.039,3.065a.524.524,0,0,1,.025,1,2.446,2.446,0,0,0-1.551,2.382,2.584,2.584,0,0,0,1.87,2.146.512.512,0,0,1-.247.993,3.343,3.343,0,0,1-1.341-5.945c-1.492-.726-3.017-1.887-2.776-3.686.216-1.612,1.721-2.47,3.161-3" transform="translate(-41.208 -143.719)" fill="#230211"/>
            <path id="Pfad_3280" data-name="Pfad 3280" d="M358.053,566.8s7.148,2.88,11.237,4.786a18.7,18.7,0,0,1,2.616,1.371,87.44,87.44,0,0,1,6.167-6.638A54.138,54.138,0,0,1,382.6,562.4c-1.9-4.2-5.365-8.073-9.093-11.33a80.764,80.764,0,0,0-14.913-10.1l-.058-.031-.031-.016v0l-.089,5.063-.3,17.094Z" transform="translate(-277.334 -418.977)" fill="#f4b942"/>
            <path id="Pfad_3281" data-name="Pfad 3281" d="M253.536,491.644l.371-7.052,14.291-.275,1.473,8.966a44.1,44.1,0,0,1-16.135-1.639" transform="translate(-196.379 -375.133)" fill="#aa6227"/>
            <path id="Pfad_3282" data-name="Pfad 3282" d="M268.628,518.456l.646,3.934-17.085.208.3-5.781a44.11,44.11,0,0,0,16.135,1.639" transform="translate(-195.336 -400.307)" fill="#c67d3c"/>
            <path id="Pfad_3283" data-name="Pfad 3283" d="M354.926,1084.8l8.065,4.98a1.038,1.038,0,0,1-.418,1.184c-4.321,1.64-9.135-.237-13.755-.375a10.338,10.338,0,0,1,1.1-5.473c1.841.132,3.165-.3,5.011-.316" transform="translate(-270.158 -840.244)" fill="#f4a72c"/>
            <path id="Pfad_3284" data-name="Pfad 3284" d="M128.015,1088.318c-2.75,1.557-5.145,3.04-7.895,4.6a1.038,1.038,0,0,0,.372,1.2c4.256,1.8,9.137.111,13.759.149a10.338,10.338,0,0,0-.887-5.511c-1.845.062-3.506-.347-5.35-.434" transform="translate(-92.993 -842.969)" fill="#f4a72c"/>
            <path id="Pfad_3285" data-name="Pfad 3285" d="M78.073,355.456c-.86-4.894-1.69-8.942-4.316-13.16-2.017-3.238-6.761-4.24-10.093-2.383a9.183,9.183,0,0,0-4.164,9.83,11.207,11.207,0,0,0,7.541,7.916,14.455,14.455,0,0,0,11.07-1.245Z" transform="translate(-45.921 -262.566)" fill="#c67d3c"/>
            <path id="Pfad_3286" data-name="Pfad 3286" d="M74.867,374.183a3.636,3.636,0,0,0-2.674,2.251c-.308,1.279.624,2.6,1.7,3.537a12.158,12.158,0,0,0,7.879,2.94c1.608,0,3-.557,3.413-2.073A6.443,6.443,0,0,0,85,377.417c-.635-1.98-2.7-2.765-4.669-3.281a10.015,10.015,0,0,0-5.46.048" transform="translate(-55.871 -289.516)" fill="#aa6227"/>
            <path id="Pfad_3287" data-name="Pfad 3287" d="M439.713,316.085c-.038-4.969.047-9.1,1.869-13.723,1.4-3.549,5.884-5.391,9.5-4.166a9.183,9.183,0,0,1,5.871,8.916,11.207,11.207,0,0,1-5.987,9.148,14.455,14.455,0,0,1-11.113.774Z" transform="translate(-340.579 -230.678)" fill="#c67d3c"/>
            <path id="Pfad_3288" data-name="Pfad 3288" d="M458.123,332.223a3.636,3.636,0,0,1,3.037,1.731c.533,1.2-.144,2.67-1.029,3.786a12.159,12.159,0,0,1-7.219,4.314c-1.582.288-3.051-.006-3.732-1.422a6.444,6.444,0,0,1-.436-3.4c.267-2.062,2.157-3.208,4-4.071a10.016,10.016,0,0,1,5.379-.939" transform="translate(-347.535 -257.28)" fill="#aa6227"/>
            <path id="Pfad_3289" data-name="Pfad 3289" d="M96.521,160.476c1.55,9.439,3.269,18.969,7.188,27.693s10.308,16.692,19.011,20.658c6.715,3.059,14.324,3.556,21.69,3.137,5.762-.326,11.6-1.216,16.759-3.808,8.006-4.026,13.5-11.861,16.127-20.51a41.417,41.417,0,0,0,1.354-6.05,54.673,54.673,0,0,0,.2-13.455,95.979,95.979,0,0,0-4.213-19.068,34.621,34.621,0,0,0-20.452-21.763c-9.661-3.626-20.6-2.859-30.309.644A45.337,45.337,0,0,0,105.242,140.1c-4.977,5.6-9.934,12.989-8.721,20.38" transform="translate(-74.618 -96.769)" fill="#c67d3c"/>
            <path id="Pfad_3290" data-name="Pfad 3290" d="M369.462,247.454a2.539,2.539,0,0,1,1.168,1.807,1.81,1.81,0,0,1-.986,1.5,4.226,4.226,0,0,1-1.819.434,13.052,13.052,0,0,1-6.483-1.206c-1.409-.686-4.959-2.816-3.232-4.693a2.183,2.183,0,0,1,1.046-.566c2.466-.686,5.559.068,7.8,1.148a13.247,13.247,0,0,1,2.507,1.572" transform="translate(-277.019 -189.358)" fill="#230211"/>
            <path id="Pfad_3291" data-name="Pfad 3291" d="M176.4,260.459a2.54,2.54,0,0,0-.284,2.132,1.811,1.811,0,0,0,1.534.938,4.227,4.227,0,0,0,1.83-.384,13.054,13.054,0,0,0,5.347-3.858c.981-1.222,3.282-4.664.919-5.624a2.184,2.184,0,0,0-1.187-.065c-2.523.433-5,2.436-6.562,4.368a13.255,13.255,0,0,0-1.6,2.492" transform="translate(-136.307 -196.389)" fill="#230211"/>
            <g id="Gruppe_1756" data-name="Gruppe 1756" transform="translate(29.845 93.003)" opacity="0.2" style="mix-blend-mode: overlay;isolation: isolate">
              <g id="Gruppe_1755" data-name="Gruppe 1755">
                <g id="Gruppe_1754" data-name="Gruppe 1754" clip-path="url(#clip-path-6)">
                  <path id="Pfad_3292" data-name="Pfad 3292" d="M184.673,429.548c6.986-2.178,11.891-6.751,17.157-11.188a30.722,30.722,0,0,1-12.738,12.567c-5.154,2.592-11,3.483-16.758,3.809-7.366.418-14.976-.079-21.689-3.138-8.168-3.723-14.3-10.966-18.259-19.054,10.514,13.81,32.325,23.049,52.287,17" transform="translate(-132.386 -412.544)" fill="#230211"/>
                </g>
              </g>
            </g>
            <g id="Gruppe_1759" data-name="Gruppe 1759" transform="translate(91.177 70.84)" opacity="0.3">
              <g id="Gruppe_1758" data-name="Gruppe 1758">
                <g id="Gruppe_1757" data-name="Gruppe 1757" clip-path="url(#clip-path-7)">
                  <path id="Pfad_3293" data-name="Pfad 3293" d="M411.263,334.088a7.508,7.508,0,0,0,4.678.183,41.412,41.412,0,0,0,1.354-6.05,54.658,54.658,0,0,0,.2-13.454,10.253,10.253,0,0,0-10.574,2.377c-4.875,5.059-2.125,14.648,4.34,16.945" transform="translate(-404.439 -314.235)" fill="#af1731"/>
                </g>
              </g>
            </g>
            <g id="Gruppe_1762" data-name="Gruppe 1762" transform="translate(29.937 77.358)" opacity="0.3">
              <g id="Gruppe_1761" data-name="Gruppe 1761">
                <g id="Gruppe_1760" data-name="Gruppe 1760" clip-path="url(#clip-path-8)">
                  <path id="Pfad_3294" data-name="Pfad 3294" d="M149.494,359.137c-2.211,3.255-5.788,5.314-9.876,3.862-6.466-2.3-9.214-11.885-4.341-16.944,3.251-3.375,8.179-3.614,12.25-1.744,5.522,2.536,5.247,10,1.967,14.825" transform="translate(-132.794 -343.146)" fill="#af1731"/>
                </g>
              </g>
            </g>
            <path id="Pfad_3295" data-name="Pfad 3295" d="M307.647,363.487a5.3,5.3,0,0,0,3.1-5.378c.022.131-.363.554-.444.664q-.246.338-.519.654A10.61,10.61,0,0,1,308.6,360.6a11.12,11.12,0,0,1-2.808,1.727,10.86,10.86,0,0,1-3.227.826c-.148.014-.422-.033-.466.152-.033.138.151.319.241.4a2.865,2.865,0,0,0,1.479.369,7.233,7.233,0,0,0,3.832-.582" transform="translate(-233.988 -277.378)" fill="#aa6227"/>
            <path id="Pfad_3296" data-name="Pfad 3296" d="M238.322,405.421a11.084,11.084,0,0,1,2.842-1.714c.278-.09.594.2.387.473a5.049,5.049,0,0,1-.536.6c.011.011.022.021.032.033,2.421,2.759,5.028,5.544,8.381,7.167a12.958,12.958,0,0,0,9.9.857c.662-.235,1.127.729.46,1.008-7.647,3.192-15.618-1.878-20.036-7.974-.014-.019-.025-.037-.037-.056-.231.162-.461.32-.684.477-.585.41-1.3-.444-.708-.867" transform="translate(-184.424 -312.683)" fill="#874515"/>
            <path id="Pfad_3297" data-name="Pfad 3297" d="M381.263,314.054c-.129.672-.458,1.343-1.2,1.335a2.251,2.251,0,0,1-1.672-1.336,4.936,4.936,0,0,1-.427-3.292c.121-.539.422-1.133.968-1.225a1.366,1.366,0,0,1,1.1.455,4.492,4.492,0,0,1,1.306,3.366,4.256,4.256,0,0,1-.072.7" transform="translate(-292.667 -239.747)" fill="#470621"/>
            <path id="Pfad_3298" data-name="Pfad 3298" d="M217.253,333.349c-.129.672-.458,1.343-1.2,1.335a2.251,2.251,0,0,1-1.672-1.336,4.935,4.935,0,0,1-.427-3.292c.121-.54.422-1.133.968-1.225a1.365,1.365,0,0,1,1.1.455,4.492,4.492,0,0,1,1.306,3.366,4.23,4.23,0,0,1-.072.7" transform="translate(-165.632 -254.691)" fill="#470621"/>
            <path id="Pfad_3299" data-name="Pfad 3299" d="M308.536,827.083c9.088-5.282,17.016-12.32,24.359-19.88a214.5,214.5,0,0,1-1.631,37.03,94.17,94.17,0,0,1-15.074,5.393c-1.694-6.812-5.277-15.831-7.655-22.543" transform="translate(-238.98 -625.228)" fill="#f4b942"/>
            <path id="Pfad_3300" data-name="Pfad 3300" d="M359.275,1029.233a100.278,100.278,0,0,1-4.044,12.426c-1.315.172-5.886.007-5.886.007-.241-4.573-.619-8.813-1.157-13.2a50.434,50.434,0,0,0,11.087.771" transform="translate(-269.692 -796.606)" fill="#f4b942"/>
            <path id="Pfad_3301" data-name="Pfad 3301" d="M343.776,984.31c-.171-1.4-.369-2.8-.6-4.238h0c-.163-1-.4-2.078-.68-3.22a94.2,94.2,0,0,0,15.074-5.393c-.25,1.737-.528,3.412-.835,5h0c-.6,3.118-1.193,5.917-1.868,8.624a50.419,50.419,0,0,1-11.087-.771" transform="translate(-265.281 -752.455)" fill="#fce3ac"/>
            <path id="Pfad_3302" data-name="Pfad 3302" d="M152.788,807.027c9.289,5.342,17.907,11.715,24.816,19.826-.128-.014-.257-.028-.385-.044-2.47,4.565-6.1,11.533-9.973,20.114-5.413-2.068-10.809-4.155-16.148-6.3.153-10.945.635-23.083,1.689-33.594" transform="translate(-117.035 -625.092)" fill="#f4b942"/>
            <path id="Pfad_3303" data-name="Pfad 3303" d="M150.9,956.043c5.339,2.147,10.735,4.233,16.148,6.3-1.169,2.587-2.361,5.322-3.55,8.181-4.225-.276-8.44-.519-12.63-1.045-.038-4.094-.035-8.651.032-13.437" transform="translate(-116.84 -740.514)" fill="#fce3ac"/>
            <path id="Pfad_3304" data-name="Pfad 3304" d="M163.586,1016.693c-2.087,5.014-4.349,10.453-6.29,16.119a42.233,42.233,0,0,1-5.631-.565c-.235-2.891-.638-9-.709-16.6,4.19.526,8.405.769,12.63,1.045" transform="translate(-116.924 -786.681)" fill="#f4b942"/>
            <path id="Pfad_3305" data-name="Pfad 3305" d="M158.591,711.65c.064-.633.128-1.261.2-1.881q-.055-.627-.071-1.263c-.328-13.193,12.311-24.209,28.23-24.6,15.377-.382,28.188,9.287,29.337,21.837.2,1.667.358,3.683.471,5.951-7.343,7.561-15.271,14.6-24.359,19.88l-.087-.246a34.938,34.938,0,0,1-8.9.152c-6.91-8.11-15.527-14.483-24.816-19.826" transform="translate(-122.838 -529.715)" fill="#fce3ac"/>
            <path id="Pfad_3306" data-name="Pfad 3306" d="M260.85,534.971c-5.08,1-9.922-1.019-13.816-4.224a88.053,88.053,0,0,1,18.906.569,7.967,7.967,0,0,1-5.09,3.655" transform="translate(-191.343 -410.882)" fill="#c67d3c"/>
            <path id="Pfad_3307" data-name="Pfad 3307" d="M166.022,561.921c.3-1.763.537-3.525.737-5.259.051-.417.1-.831.141-1.243,1.127-10.479.981-19.676,3.248-21.408,1.6-1.224,4.787-1.957,8.617-2.318,3.894,3.205,8.736,5.225,13.816,4.224a7.968,7.968,0,0,0,5.089-3.655,29.743,29.743,0,0,1,6.591,1.519c1.557.655,7.942,12.924,10.406,28.272a152.61,152.61,0,0,1,1.973,27.383l-57.747-2.726a135.626,135.626,0,0,0,7.128-24.789" transform="translate(-123.073 -411.829)" fill="#f4b942"/>
            <path id="Pfad_3308" data-name="Pfad 3308" d="M143.291,714.3c-.737,1.3-.221,2.918.323,4.306a36.513,36.513,0,0,0,3.778,7.644c.3.434.849.9,1.288.61a.853.853,0,0,0,.3-.866,26.952,26.952,0,0,0-.876-2.841c.124-.162.142-.223.334-.155a17.068,17.068,0,0,0,3.244,3.665,1.24,1.24,0,0,0,1.348.277c.482-.3.064-1.021-.112-1.5-.466-1.275-1.268-2.685-1.677-3.833a2.525,2.525,0,0,1,.347-.378,19.583,19.583,0,0,0,4.845,2.394,2.515,2.515,0,0,0,1.011.177.917.917,0,0,0,.809-.552c.43-1.322-3.906-3.408-4.588-4.875.211-.321.089-.258.3-.579a31.534,31.534,0,0,0,3.575.922,2.4,2.4,0,0,0,.819.061.765.765,0,0,0,.559-1.248,2.384,2.384,0,0,0-.611-.584,29.051,29.051,0,0,0-5.208-3.13,7.358,7.358,0,0,0,3.045-1.6,1.278,1.278,0,0,0,.559-1.009.957.957,0,0,0-.844-.751,3.3,3.3,0,0,0-1.2.133,12.4,12.4,0,0,1-4.185.2,13.656,13.656,0,0,0-2.058-.208,2.654,2.654,0,0,0-1.881.729c.038-.048.025.069.062.021a8.711,8.711,0,0,0-3.307,2.973" transform="translate(-110.704 -550.28)" fill="#c67d3c"/>
            <path id="Pfad_3309" data-name="Pfad 3309" d="M59.736,607.912c.877,3.668,4.038,7.934,7.534,11.747,3.842-1.689,7.76-3.185,11.515-5.1l-3.1-4.118s2.126-.411,5.067-1a52.788,52.788,0,0,0-7.591-6.884h0a46.084,46.084,0,0,0-7.015-4.3c-.1.076-.2.152-.3.229-4.163,3.2-6.8,6.508-6.1,9.422" transform="translate(-46.182 -463.391)" fill="#fce3ac"/>
            <path id="Pfad_3310" data-name="Pfad 3310" d="M105.053,670.561l6.4,8.5-6.51,7.163a106.907,106.907,0,0,1-11.411-10.563c3.843-1.689,7.761-3.185,11.516-5.1" transform="translate(-72.45 -519.391)" fill="#f4b942"/>
            <path id="Pfad_3311" data-name="Pfad 3311" d="M88.522,550.014a46.067,46.067,0,0,1,7.015,4.3h0a52.8,52.8,0,0,1,7.591,6.884c2.713-.538,6.121-1.22,9.2-1.861,1.816-.379,3.515-.742,4.887-1.052h0a16.791,16.791,0,0,0,3.246-.879c1.452-4.743,1.253-15.24-.334-19.541-.411-1.117-.917-1.815-1.51-1.888a.875.875,0,0,0-.254.006A41.969,41.969,0,0,0,112,537.9c-6.929,2.544-16.962,7.189-23.48,12.11" transform="translate(-68.566 -415.142)" fill="#f4b942"/>
            <path id="Pfad_3312" data-name="Pfad 3312" d="M419.6,646.817c.354.337.448,1.458.408,2.837,4-.672,7.942-1.339,11.9-1.966a26.255,26.255,0,0,0-.583-8.216l-.02-.081a17.515,17.515,0,0,0-1.107-3.208,54.061,54.061,0,0,0-4.532,3.917,87.312,87.312,0,0,0-6.167,6.638,1.038,1.038,0,0,1,.1.079" transform="translate(-324.931 -492.763)" fill="#fce3ac"/>
            <g id="Gruppe_1765" data-name="Gruppe 1765" transform="translate(21.718 28.164)" opacity="0.2" style="mix-blend-mode: overlay;isolation: isolate">
              <g id="Gruppe_1764" data-name="Gruppe 1764">
                <g id="Gruppe_1763" data-name="Gruppe 1763" clip-path="url(#clip-path-9)">
                  <path id="Pfad_3313" data-name="Pfad 3313" d="M105.242,140.1a45.34,45.34,0,0,1,18.636-12.141c9.706-3.5,20.648-4.269,30.309-.644a34.619,34.619,0,0,1,20.452,21.763q.725,2.3,1.376,4.629a5.65,5.65,0,0,1-3.83,2.2c-1.836.25-3.3-.941-4.949-1.514.193,7.771-7.676,12.264-14.635,12.232s-12.607-5.007-15.214-11.082a3.055,3.055,0,0,1-2.8,2.73c-1.836.25-2.9-1.565-3.757-2.976-1.391,1.672-1.734,4.34-3.968,5.01-4.055,1.533-6.411-2.706-9.718-4.056.561,6.125-.9,13.324-6.757,16.334a20.044,20.044,0,0,1-11.1,2.248c-1.143-4.73-1.976-9.554-2.764-14.355-1.213-7.392,3.743-14.78,8.721-20.38" transform="translate(-96.336 -124.933)" fill="#470621"/>
                </g>
              </g>
            </g>
            <path id="Pfad_3314" data-name="Pfad 3314" d="M461.34,313.713a.333.333,0,0,1-.045-.264c.008.041.014.081.025.121s.013.1.02.143" transform="translate(-357.296 -242.786)" fill="#fff"/>
            <path id="Pfad_3315" data-name="Pfad 3315" d="M461.3,313.449c.007.041.014.081.025.121s.014.1.02.143a.334.334,0,0,1-.044-.264" transform="translate(-357.297 -242.786)"/>
            <path id="Pfad_3316" data-name="Pfad 3316" d="M475.2,309.007l.076.014c.027.008.018.007-.076-.014" transform="translate(-368.072 -239.345)" fill="#fff"/>
            <path id="Pfad_3317" data-name="Pfad 3317" d="M475.2,309.007l.076.014.013,0s-.029-.005-.089-.019" transform="translate(-368.072 -239.345)"/>
            <path id="Pfad_3318" data-name="Pfad 3318" d="M90.741,126.988a30.318,30.318,0,0,1,7.632-15.728c9.661-10.913,24.893-15.528,39.468-15.592,7.125-.031,14.228.9,21.353.905s14.473.536,20.437-3.364c3.654-2.389,9.032-.749,11.432,2.9s2.107,8.621.065,12.479-5.587,6.726-9.388,8.872a7.255,7.255,0,1,1-2.381,13.649c1.442,1.094,3.525,1.827,3.988,3.577A5.117,5.117,0,0,1,177.361,141l-.142-.04a1.651,1.651,0,1,1-3.039,1.148c-.006-.05-.014-.1-.021-.15,0,.01,0,.02,0,.029a1.517,1.517,0,0,1-.025-.239,75.128,75.128,0,0,0-6.292-21.608,4.407,4.407,0,0,1-1.942,4.2,3.3,3.3,0,0,1-4.546-1.717c.679,4.464-2.176,9.06-6.271,10.962a14.213,14.213,0,0,1-12.981-1,20.6,20.6,0,0,1-8.062-9.541,7.268,7.268,0,0,1-4.743,5.13c-2.508.679-5.586-.9-5.955-3.475a4.328,4.328,0,0,1-2.81,4.581,5.619,5.619,0,0,1-5.448-1.136,8.1,8.1,0,0,1-2.591-5.085c.437,2.336-1.506,5.521-3.81,6.1a16.107,16.107,0,0,1-13.516,20.787,5.391,5.391,0,0,1-1.494-3.224c-.916-6.476-3.811-13.263-2.928-19.744" transform="translate(-70.156 -71.329)" fill="#1b2845"/>
            <path id="Pfad_3319" data-name="Pfad 3319" d="M444.79,130.662c1.352,1.786,3.925.667,4.461-1.2.587-2.05-.688-3.906-2.23-5.127a.576.576,0,0,1,.228-.961,17.187,17.187,0,0,0,9.194-7.139,6.278,6.278,0,0,0,.718-5.779,3.391,3.391,0,0,0-5.129-1.518c-.237.187-.57-.218-.336-.413a3.891,3.891,0,0,1,5.014.121,5.787,5.787,0,0,1,1.395,5.92c-1.242,4.386-5.474,7.793-9.6,9.539,1.813,1.761,2.784,4.474,1.32,6.795a3.594,3.594,0,0,1-5.968.346c-.413-.585.515-1.134.935-.578" transform="translate(-343.712 -83.392)" fill="#230211"/>
            <path id="Pfad_3320" data-name="Pfad 3320" d="M238.688,179.784a6.328,6.328,0,0,0,2.473,2.087,3.233,3.233,0,0,0,3.213-.8c1.839-1.623,1.986-4.292,2.118-6.57a.539.539,0,0,1,.987-.294c2.385,3.1,5.481,6,9.49,6.641,3.736.6,7.854-1.363,8.652-5.3.077-.382.645-.232.583.145-.664,4.089-4.717,6.447-8.644,6.161-4.177-.3-7.478-2.912-10.093-5.984-.214,2.5-.779,5.046-2.992,6.529-2.588,1.734-5.04.339-6.742-1.837-.43-.549.5-1.316.955-.776" transform="translate(-184.053 -134.749)" fill="#230211"/>
            <path id="Pfad_3321" data-name="Pfad 3321" d="M341.048,271.252a18.784,18.784,0,1,1,18.1,19.444,18.805,18.805,0,0,1-18.1-19.444m1.84.066a16.943,16.943,0,1,0,17.538-16.325,16.962,16.962,0,0,0-17.538,16.325" transform="translate(-264.153 -196.073)" fill="#648eb1"/>
            <path id="Pfad_3322" data-name="Pfad 3322" d="M121.7,272.206a18.784,18.784,0,1,1,18.1,19.444,18.805,18.805,0,0,1-18.1-19.444m1.84.066a16.943,16.943,0,1,0,17.538-16.325,16.962,16.962,0,0,0-17.538,16.325" transform="translate(-94.252 -196.812)" fill="#648eb1"/>
            <path id="Pfad_3323" data-name="Pfad 3323" d="M281.653,331.667a8.137,8.137,0,0,1,6.825-2.271c3.284.35,4.355,1.189,5.49,2.077.146.114.292.228.44.341l1.109-1.47c-.14-.106-.277-.213-.415-.321-1.229-.962-2.622-2.052-6.43-2.458a9.973,9.973,0,0,0-8.412,2.9Z" transform="translate(-217.079 -253.669)" fill="#648eb1"/>
            <g id="Gruppe_1768" data-name="Gruppe 1768" transform="translate(8.207 13.054)" opacity="0.5" style="mix-blend-mode: overlay;isolation: isolate">
              <g id="Gruppe_1767" data-name="Gruppe 1767">
                <g id="Gruppe_1766" data-name="Gruppe 1766" clip-path="url(#clip-path-10)">
                  <path id="Pfad_3324" data-name="Pfad 3324" d="M41.177,105.767a6.2,6.2,0,0,0-3.336,2.451,20.749,20.749,0,0,1,5.475-3.355c.389-.165.782-.314,1.18-.451a19.279,19.279,0,0,1,7-1.08,6.757,6.757,0,0,1,9.979-8.3A7.136,7.136,0,0,1,73,87.519,12.557,12.557,0,0,1,95.435,85.94c2.85-4.81,6.9-9.135,12.127-11.126s11.716-1.214,15.566,2.841a34.01,34.01,0,0,1,9.348-11.925,10.141,10.141,0,0,1,3.984-2.065c-.005-.041-.008-.08-.013-.121a9.1,9.1,0,0,0-2.7-5.638,13.589,13.589,0,0,0-4.7,3c-1.912,1.771-3.539,3.841-5.538,5.511a11.3,11.3,0,0,0-8.218-5.775c-.181-.032-.364-.063-.546-.089a13.6,13.6,0,0,0-6.669.655c-5.576,2.066-9.519,7.268-11.539,12.862a12.554,12.554,0,0,0-24.494,2.843,8.027,8.027,0,0,0-12.73,9.423,8.486,8.486,0,0,0-10.054-.008,7.274,7.274,0,0,0-.807.72,7.381,7.381,0,0,0-.515.586,8.529,8.529,0,0,0-1.254,8.413,16.016,16.016,0,0,0-3.016.652q-.463.143-.913.317a17.062,17.062,0,0,0-2.048.939.006.006,0,0,0,0,0,18.208,18.208,0,0,0-4.187,3.114,3.548,3.548,0,0,0-.1,1.065,4.133,4.133,0,0,0,4.766,3.637" transform="translate(-36.404 -57.906)" fill="#fff"/>
                </g>
              </g>
            </g>
            <path id="Pfad_3325" data-name="Pfad 3325" d="M394.336,625.962c-.053-.332.485-.4.576-.092.479,1.645.894,3.312,1.258,4.992q.209-1.744.47-3.481a.34.34,0,0,1,.668.073c-.114,1.88-.264,3.756-.476,5.627a.346.346,0,0,1-.162.262c.722,3.869,1.2,7.792,1.547,11.687a115.03,115.03,0,0,1,.224,19.709c-.064.77-1.25.834-1.227.031a183.958,183.958,0,0,0-.283-19.511c-.5-6.49-1.571-12.877-2.594-19.3" transform="translate(-305.434 -484.62)" fill="#f2b044"/>
            <path id="Pfad_3326" data-name="Pfad 3326" d="M193.78,632.85l.138-.038a.468.468,0,0,0,.464.246,47.522,47.522,0,0,0,5.091-.276c.316-.053.243-.5-.014-.579a9.287,9.287,0,0,0-2.355-.329c1.109-.347,2.211-.716,3.293-1.123a.359.359,0,0,0-.207-.686c-2.1.433-4.189.974-6.269,1.541-.045.412-.09.827-.141,1.243" transform="translate(-150.094 -488.017)" fill="#f2b044"/>
            <path id="Pfad_3327" data-name="Pfad 3327" d="M224.408,890.788c1.325-.156,2.653-.294,3.981-.422q-1.857-.143-3.7-.356c-.694-.081-.568-1.294.136-1.234a144.419,144.419,0,0,0,26.163-.345c.39-.038.5.609.11.688a80.63,80.63,0,0,1-17.59,1.5c-3.023.368-6.048.725-9.082.989-.529.046-.536-.757-.02-.818" transform="translate(-173.522 -688.142)" fill="#f2b044"/>
            <path id="Pfad_3328" data-name="Pfad 3328" d="M391.941,730.443c.8,1.258.366,2.9-.109,4.316a36.509,36.509,0,0,1-3.394,7.822c-.28.449-.8.946-1.256.673a.852.852,0,0,1-.342-.85,26.974,26.974,0,0,1,.734-2.881c-.132-.155-.152-.216-.341-.138a17.066,17.066,0,0,1-3.058,3.822,1.241,1.241,0,0,1-1.332.344c-.5-.28-.115-1.017.037-1.508.4-1.3,1.134-2.745,1.485-3.911a2.539,2.539,0,0,0-.365-.36,19.583,19.583,0,0,1-4.72,2.631,2.516,2.516,0,0,1-1,.227.918.918,0,0,1-.835-.511c-.5-1.3,3.732-3.6,4.34-5.1-.227-.31-.1-.253-.329-.563a31.557,31.557,0,0,1-3.525,1.1,2.4,2.4,0,0,1-.815.1.765.765,0,0,1-.62-1.218,2.376,2.376,0,0,1,.581-.614,29.015,29.015,0,0,1,5.046-3.385A7.359,7.359,0,0,1,379,729a1.278,1.278,0,0,1-.608-.98.957.957,0,0,1,.806-.792,3.3,3.3,0,0,1,1.206.073,12.406,12.406,0,0,0,4.19-.012,13.671,13.671,0,0,1,2.045-.31,2.656,2.656,0,0,1,1.915.635c-.04-.046-.021.071-.061.024a8.711,8.711,0,0,1,3.45,2.8" transform="translate(-291.51 -563.089)" fill="#c67d3c"/>
            <path id="Pfad_3329" data-name="Pfad 3329" d="M430.945,687.216a28.517,28.517,0,0,1-6.268,15.333l-6.423-6.163a65.2,65.2,0,0,0,.787-7.2c4-.674,7.941-1.341,11.9-1.967" transform="translate(-323.963 -532.291)" fill="#f4b942"/>
            <g id="Gruppe_1771" data-name="Gruppe 1771" transform="translate(19.657 122.676)" opacity="0.4" style="mix-blend-mode: overlay;isolation: isolate">
              <g id="Gruppe_1770" data-name="Gruppe 1770">
                <g id="Gruppe_1769" data-name="Gruppe 1769" clip-path="url(#clip-path-11)">
                  <path id="Pfad_3330" data-name="Pfad 3330" d="M87.195,556.59q1.6,1.09,3.29,2.047,1.962,1.108,4.025,2.026h0a46.864,46.864,0,0,0,16.894,4.015,44.875,44.875,0,0,0,4.779-.045h0q1.679-.106,3.347-.343c4.808-.686,9.554-2.143,14.394-2.13.3,0,.61.005.917.018.17.008.34.016.51.029q1.156.076,2.292.26c.844.132,1.682.306,2.513.509.731.178,1.46.379,2.186.6.377.113.755.231,1.13.352,1.619.518,3.23,1.1,4.842,1.67,1.772.627,3.546,1.238,5.343,1.736a43.144,43.144,0,0,0,4.862,1.046,45.12,45.12,0,0,0,15.389-.257,17.52,17.52,0,0,0-1.107-3.208q-.279-.616-.6-1.223a26.663,26.663,0,0,0-2.083-3.292,43.387,43.387,0,0,0-6.409-6.815q-5.5-2.254-11.2-3.976c-.9-.27-1.8-.532-2.7-.78-.392-.111-.783-.216-1.175-.321l-.014,0c-.851-.226-1.7-.447-2.558-.655q-2.665-.655-5.36-1.193-.527.8-1.1,1.566c-.041-.159-.084-.319-.128-.476-.2-.7-1.418-.755-1.516.038-.009.068-.013.137-.02.205,0-.006-.007-.014-.009-.021-.275-.623-1.292-.962-1.641-.174a2.716,2.716,0,0,0-.2,1.177,72.642,72.642,0,0,1-9.57-4.336q-3.7-.316-7.418-.419-1.984-.055-3.971-.045-.491,0-.982.006-1.587.015-3.174.077a112.592,112.592,0,0,0-19.624,9.471c-1.374.863-2.672,1.746-3.856,2.639l-.3.229" transform="translate(-87.195 -544.167)" fill="#470621"/>
                </g>
              </g>
            </g>
            <path id="Pfad_3331" data-name="Pfad 3331" d="M76.456,543.773a51.287,51.287,0,0,0,5.711,2.627,51.742,51.742,0,0,0,46.261-4.075q.95-.564,1.872-1.164,1.036.693,2.106,1.341a61.467,61.467,0,0,0,31.482,8.949q.807,0,1.614-.028c-.147-.252-.3-.5-.448-.752-.03-.046-.057-.093-.085-.139-.158-.256-.318-.51-.477-.764q-.262-.4-.53-.807t-.544-.8a47.643,47.643,0,0,0-21.252-16.926c-.277-.112-.554-.221-.833-.327q-.381-.147-.768-.288c-.023-.008-.048-.015-.07-.025-.281-.1-.564-.2-.847-.3s-.536-.179-.8-.266c-.016,0-.033-.01-.05-.015-.266-.086-.534-.169-.8-.248l-.132-.04c-.212-.064-.427-.124-.639-.185-.1-.029-.192-.055-.288-.081-.233-.064-.468-.128-.7-.187l-.06-.017c-.282-.073-.566-.141-.85-.21a36.48,36.48,0,0,1-2.932,5.363q-.527.8-1.1,1.566c-.394.532-.8,1.051-1.226,1.553-.768-.255-1.533-.523-2.292-.8a72.916,72.916,0,0,1-16.135-8.364c-.289.042-.579.086-.866.132-.377.059-.754.123-1.129.19-.267.048-.534.1-.8.147-.619.116-1.234.244-1.849.379-.509.112-1.017.232-1.523.357-.23.056-.46.116-.69.175-.178.046-.357.089-.535.136l0,0a78.721,78.721,0,0,0-23,10.512l-.02.013c-.2.13-.395.261-.59.393q-.462.306-.918.622-.4.277-.8.56-.184.127-.368.261-.32.223-.633.452l-.48.349q-.488.359-.975.724" transform="translate(-59.22 -409.254)" fill="#4b3f72"/>
            <path id="Pfad_3332" data-name="Pfad 3332" d="M334.419,559.387a40.43,40.43,0,0,0,8.916-3.589.282.282,0,0,1,.3.479,27.977,27.977,0,0,1-8.957,3.955c-.549.13-.806-.691-.256-.845" transform="translate(-258.79 -430.469)" fill="#b8756a"/>
            <path id="Pfad_3333" data-name="Pfad 3333" d="M338.485,576.986a25.8,25.8,0,0,0,10.667.078c.381-.081.564.486.178.588a22.682,22.682,0,0,1-11.067.228.461.461,0,0,1,.223-.893" transform="translate(-261.743 -446.902)" fill="#b8756a"/>
            <path id="Pfad_3334" data-name="Pfad 3334" d="M353.828,594a36.935,36.935,0,0,0,16.336,1c.348-.059.523.462.163.539A33.278,33.278,0,0,1,353.6,594.9c-.563-.172-.35-1.058.223-.893" transform="translate(-273.633 -460.077)" fill="#b8756a"/>
            <path id="Pfad_3335" data-name="Pfad 3335" d="M139.011,590.046a66.834,66.834,0,0,0,31.8-3.366c.626-.222.9.743.3.979a59.849,59.849,0,0,1-32.227,2.9c-.335-.062-.2-.555.127-.509" transform="translate(-107.423 -454.394)" fill="#b8756a"/>
            <path id="Pfad_3336" data-name="Pfad 3336" d="M166.9,573.067a64.858,64.858,0,0,0,25.9,1.761c.5-.058.636.777.141.876a51.106,51.106,0,0,1-26.177-2.1c-.33-.112-.211-.634.133-.534" transform="translate(-129.023 -443.866)" fill="#b8756a"/>
            <path id="Pfad_3337" data-name="Pfad 3337" d="M215.268,561.729a43.247,43.247,0,0,0,13.794,1.739.448.448,0,0,1,.022.895,36.2,36.2,0,0,1-13.949-2.1c-.327-.116-.211-.637.133-.534" transform="translate(-166.485 -435.083)" fill="#b8756a"/>
            <g id="Gruppe_1774" data-name="Gruppe 1774" transform="translate(45.025 119.114)" opacity="0.2" style="mix-blend-mode: overlay;isolation: isolate">
              <g id="Gruppe_1773" data-name="Gruppe 1773">
                <g id="Gruppe_1772" data-name="Gruppe 1772" clip-path="url(#clip-path-12)">
                  <path id="Pfad_3338" data-name="Pfad 3338" d="M199.719,529.883q1.257,1.068,2.568,2.048a37.2,37.2,0,0,0,10.455,5.626,28,28,0,0,0,3.937,1,25.618,25.618,0,0,0,6.908.289,26.381,26.381,0,0,0,3.829-.644q.494-.12.992-.26a16,16,0,0,0,4.814-2.336,20.6,20.6,0,0,0,4.418-4.37c-.277-.112-.554-.222-.833-.327q-.381-.147-.769-.288c-.023-.008-.047-.015-.07-.025-.281-.1-.564-.2-.846-.3s-.537-.179-.8-.267a.424.424,0,0,1-.049-.015c-.266-.085-.534-.169-.8-.248l-.132-.04c-.212-.064-.427-.124-.639-.185-.1-.028-.192-.055-.289-.081-.233-.064-.468-.128-.7-.187l-.06-.017c-.282-.073-.566-.141-.85-.21a36.49,36.49,0,0,1-2.932,5.363q-.527.8-1.1,1.566c-.394.532-.8,1.051-1.226,1.553-.768-.255-1.533-.523-2.291-.8a72.92,72.92,0,0,1-16.135-8.364c-.289.042-.579.086-.866.132-.377.058-.754.123-1.129.19-.267.048-.534.1-.8.147-.617.118-1.234.246-1.849.38q-1.38.3-2.748.668" transform="translate(-199.719 -528.367)" fill="#470621"/>
                </g>
              </g>
            </g>
            <g id="Gruppe_1777" data-name="Gruppe 1777" transform="translate(17.236 130.567)" opacity="0.2" style="mix-blend-mode: overlay;isolation: isolate">
              <g id="Gruppe_1776" data-name="Gruppe 1776">
                <g id="Gruppe_1775" data-name="Gruppe 1775" clip-path="url(#clip-path-13)">
                  <path id="Pfad_3339" data-name="Pfad 3339" d="M102.668,586.432c10.226-.254,19.772-3.151,28.878-7.266,6.2,2.3,12.393,4.6,18.778,6.287a41.21,41.21,0,0,0,13.092,2.056q1.1,1.581,2.084,3.26a61.281,61.281,0,0,1-35.2-10.262,53.905,53.905,0,0,1-26.665,8.827,53.127,53.127,0,0,1-27.181-6.215q2.34-1.76,4.789-3.375c6.345,4.015,13.294,6.784,21.426,6.688" transform="translate(-76.453 -579.167)" fill="#470621"/>
                </g>
              </g>
            </g>
            <path id="Pfad_3340" data-name="Pfad 3340" d="M293.887,581.183c-1.394,5.517-1.813,11.939,1.326,16.969a.506.506,0,0,0,.861-.531c-3-5.653-2.436-11.909-.743-17.879.133-.474.275-.946.421-1.42a10.311,10.311,0,0,0,1.114-2.2c-.253,2.243-.537,4.491-.706,6.754a31.74,31.74,0,0,0,.471,9.328c.783,3.5,2.434,6.715,2.376,10.373-.006.336.55.4.591.065.417-3.395-1.019-6.595-1.836-9.822a30.2,30.2,0,0,1-.52-10.149c.213-2.375.583-4.787.9-7.207a13.008,13.008,0,0,0,1.27,4.008c.454.793,1.538,2.012,2.485,1.162s.8-2.815.708-3.953c-.064-.778-.161-1.557-.289-2.332-.138-.86-.313-1.715-.514-2.56a31.183,31.183,0,0,0-1.631-4.946c-.211-.5-.406-1.038-.67-1.52l.023-.048c.013-.037.025-.074.036-.111a4.627,4.627,0,0,0-.088-2.4c-.041-.181-.083-.362-.12-.541-.091-.438-.17-.9-.257-1.361a8.835,8.835,0,0,0-.624-2.119c-.009-.035-.018-.069-.029-.1-.041-.158-.084-.319-.129-.476-.2-.7-1.418-.754-1.515.038-.009.068-.013.138-.02.205,0-.006-.006-.014-.009-.02-.276-.623-1.293-.962-1.641-.174a2.718,2.718,0,0,0-.2,1.178,15.866,15.866,0,0,0,.341,2.116c0,.025.007.047.012.071.124.777.214,1.517.265,2.269.024.374.037.752.039,1.137,0,.121,0,.241,0,.364a.794.794,0,0,0,.4.676,20.686,20.686,0,0,0-2.976,5.8c-.08.235-.16.489-.235.757-.587,2.047-.982,4.862.68,6.372a1.231,1.231,0,0,0,.957.377c-.185.617-.358,1.231-.513,1.846M299,573.4q-.03-.211-.054-.422a28.412,28.412,0,0,1,.048-6.889c.3.715.506,1.512.7,2.064.4,1.171.751,2.367,1.038,3.574q.267,1.126.457,2.27c.091.538.166,1.081.229,1.623.107.933.472,2.685-.025,3.539-.534.918-1.063-.362-1.261-.857a12.535,12.535,0,0,1-.481-1.58A28.379,28.379,0,0,1,299,573.4m-4.253,4.164c-.163.133-.325.268-.487.4-.058-.091-.115-.182-.171-.274-.7-.828-.493-2.48-.308-3.436a14.883,14.883,0,0,1,.414-1.625c.167-.53.359-1.05.571-1.561a22.481,22.481,0,0,1,2.611-4.561c.007.127.012.253.018.38-.373,1.722-.515,3.486-.781,5.234-.039.257-.079.514-.126.769-.005.039-.012.076-.02.115-.4,1.273-.833,2.538-1.254,3.8-.006.012-.012.025-.019.039a4.446,4.446,0,0,1-.447.717" transform="translate(-226.37 -431.918)" fill="#b8756a"/>
          </g>
        </g>
      </g>
    </g>
  </g>
</svg>
