<svg id="boyWhite" xmlns="http://www.w3.org/2000/svg" xmlns:xlink="http://www.w3.org/1999/xlink" width="165.718" height="260.277" viewBox="0 0 165.718 260.277">
  <defs>
    <radialGradient id="radial-gradient" cx="0.806" cy="0.567" r="0.58" gradientTransform="matrix(1.37, -0.102, 0.14, 0.995, 0.349, -0.114)" gradientUnits="objectBoundingBox">
      <stop offset="0" stop-color="#ffb9b6"/>
      <stop offset="0.21" stop-color="#ffc1be"/>
      <stop offset="0.33" stop-color="#ffc8c6"/>
      <stop offset="0.6" stop-color="#ffdbd9"/>
      <stop offset="1" stop-color="#fff"/>
    </radialGradient>
    <radialGradient id="radial-gradient-2" cx="-1.868" cy="0.106" r="0.651" gradientTransform="translate(-0.225) scale(1.45 1)" xlink:href="#radial-gradient"/>
    <radialGradient id="radial-gradient-3" cx="0.912" cy="0.841" r="0.967" gradientTransform="matrix(-0.292, -0.774, -0.307, 0.544, 60.292, -2.417)" gradientUnits="objectBoundingBox">
      <stop offset="0" stop-color="#68403d"/>
      <stop offset="0.21" stop-color="#6a423f"/>
      <stop offset="0.36" stop-color="#714b48"/>
      <stop offset="0.49" stop-color="#7d5a58"/>
      <stop offset="0.61" stop-color="#8e706e"/>
      <stop offset="0.71" stop-color="#a48c8a"/>
      <stop offset="0.82" stop-color="#bfaeac"/>
      <stop offset="0.92" stop-color="#ded5d5"/>
      <stop offset="1" stop-color="#fff"/>
    </radialGradient>
    <radialGradient id="radial-gradient-4" cx="0.499" cy="0.496" r="0.5" gradientTransform="matrix(0.615, 0.788, -0.788, 0.615, -16.596, -33.606)" gradientUnits="objectBoundingBox">
      <stop offset="0.29" stop-color="#d5959a"/>
      <stop offset="0.46" stop-color="#d6989c"/>
      <stop offset="0.59" stop-color="#daa1a6"/>
      <stop offset="0.71" stop-color="#e0b2b5"/>
      <stop offset="0.82" stop-color="#e9c9cb"/>
      <stop offset="0.93" stop-color="#f5e7e8"/>
      <stop offset="1" stop-color="#fff"/>
    </radialGradient>
    <radialGradient id="radial-gradient-5" cx="0.5" cy="0.495" r="0.5" gradientTransform="matrix(0.615, 0.788, -0.788, 0.615, -21.456, -43.103)" gradientUnits="objectBoundingBox">
      <stop offset="0" stop-color="#fff"/>
      <stop offset="0.52" stop-color="#fdfdfe"/>
      <stop offset="0.71" stop-color="#f6f7fc"/>
      <stop offset="0.84" stop-color="#eaedf9"/>
      <stop offset="0.95" stop-color="#d9dff4"/>
      <stop offset="1" stop-color="#ced6f1"/>
    </radialGradient>
    <radialGradient id="radial-gradient-6" cx="26.253" cy="-36.565" r="0.5" gradientTransform="translate(0)" xlink:href="#radial-gradient-4"/>
    <radialGradient id="radial-gradient-7" cx="33.581" cy="-47.087" r="0.5" gradientTransform="matrix(1, 0, 0, 1, 0, 0)" xlink:href="#radial-gradient-5"/>
  </defs>
  <g id="boy1" transform="translate(0 0)">
    <g id="Layer_2" transform="translate(0 0)">
      <g id="kids">
        <path id="Pfad_1375" data-name="Pfad 1375" d="M227.687,9.4s-3.089-1.187-3.1-1.657c-.012-.97,3.151-.286,3.151-.286s-3.007-1.011-2.455-2.07c.4-.761,3.4.115,3.4.115s-2.017-1.8-1.485-2.246c.88-.741,2.361,1.019,2.361,1.019s-.52-2.5.364-2.917,2.128,1.911,2.128,1.911S231.935.356,233.068.5s1.408,2.406,1.408,2.406.434-2.975,1.334-2.93c1.293.061,1.007,2.815,1.007,2.815S237.589.2,238.4.507s.438,2.5.438,2.5.937-2.357,2.079-1.886c.638.262-.368,2.754-.368,2.754s1.563-1.9,2.222-.941-.606,2.545-.606,2.545,2.43-1.334,2.766-.532-1.674,1.8-1.674,1.8,2.864-.937,3.073.041c.172.806-2.406,1.408-2.406,1.408s2.831.041,2.848,1.174-2.9.765-2.9.765,2.921.769,2.447,1.665-2.913-.041-2.913-.041,2.934,1.657,2.377,2.475-3.245-.847-3.245-.847,2.291,2.07,1.817,2.725-2.762-.773-2.762-.773L227.683,9.382Z" transform="translate(-132.695 0.021)" fill="#f15a29"/>
        <path id="Pfad_1376" data-name="Pfad 1376" d="M273.644,31.276c-.2-.61-1.318-1.391-1.964-1.8C272.359,30.049,273.018,30.646,273.644,31.276Z" transform="translate(-160.517 -17.409)" fill="#b74a29" opacity="0.4"/>
        <path id="Pfad_1377" data-name="Pfad 1377" d="M236,19.592a35.832,35.832,0,0,0-8.245-1.669s-3.163-.683-3.151.286c.008.471,3.1,1.657,3.1,1.657l13.912,5.958s2.283,1.424,2.762.773-1.817-2.725-1.817-2.725S238.524,20.557,236,19.6Z" transform="translate(-132.701 -10.442)" fill="#b74a29" opacity="0.4"/>
        <path id="Pfad_1378" data-name="Pfad 1378" d="M22.187,114.989s-.675-8.118-3.339-8.433-1.326,4.227-2,4.734-5.417-9.374-8.625-7.913S9.58,110.2,9.58,110.2s-4.325-6.506-6.244-3.826,3.163,6.7,3.163,6.7-4.828-4.509-5.806-2.484c-1.162,2.406,5.1,7.083,5.1,7.083s-5.041-4.2-5.761-1.2,11.011,8.269,13.47,8.02c0,0,4.071-7.431,8.687-9.505Z" transform="translate(-0.002 -60.982)" fill="#8b5e3c"/>
        <path id="Pfad_1379" data-name="Pfad 1379" d="M14.05,125.68c.438.409.749.655.749.655S14.5,126.061,14.05,125.68Z" transform="translate(-8.302 -74.247)" fill="#8b5e3c"/>
        <path id="Pfad_1380" data-name="Pfad 1380" d="M20.91,116.89a15.654,15.654,0,0,0,1.027,1.383S21.532,117.663,20.91,116.89Z" transform="translate(-12.355 -69.053)" fill="#8b5e3c"/>
        <path id="Pfad_1381" data-name="Pfad 1381" d="M22.85,136.109c-1.219.61-3,.36-4.28.295,2.52,1.142,4.931,1.9,5.9,1.8,0,0,4.071-7.431,8.687-9.505,0,0-.082-.978-.3-2.263-4.693,1.379-8.151,6.539-10.008,9.673Z" transform="translate(-10.973 -74.696)" fill="#8b5e3c" opacity="0.6"/>
        <path id="Pfad_1382" data-name="Pfad 1382" d="M324.47,163.982s3-7.41,5.585-6.927.012,4.345.5,5.021,8.265-7.737,10.847-5.434-3.069,6.1-3.069,6.1,5.291-4.419,6.309-1.346-4.914,5.352-4.914,5.352,5.876-3.237,6.162-.634-6.845,5.151-6.845,5.151,6.043-3.633,5.843-.614-12.819,5.712-15.049,4.763c0,0-1.653-8.147-5.368-11.432Z" transform="translate(-191.707 -92.303)" fill="#8b5e3c"/>
        <path id="Pfad_1383" data-name="Pfad 1383" d="M363.672,189a17.745,17.745,0,0,0-3.572,1.624A27.087,27.087,0,0,0,363.672,189Z" transform="translate(-212.758 -111.658)" fill="#8b5e3c"/>
        <path id="Pfad_1384" data-name="Pfad 1384" d="M359.3,170.38c-.573.405-.953.72-.953.72S358.759,170.826,359.3,170.38Z" transform="translate(-211.725 -100.657)" fill="#8b5e3c"/>
        <path id="Pfad_1385" data-name="Pfad 1385" d="M363.46,179.95c-.957.409-1.69.81-1.69.81A15.166,15.166,0,0,0,363.46,179.95Z" transform="translate(-213.745 -106.311)" fill="#8b5e3c"/>
        <path id="Pfad_1386" data-name="Pfad 1386" d="M337.451,170.3c1.874,1.874,3.621,2.226,5.868,3.13,2.349.2,6.232-1.277,6.33-2.778.086-1.313-1.007-1.367-2.271-1.011a27.089,27.089,0,0,1-3.572,1.624,17.869,17.869,0,0,1,3.572-1.624c1.731-.962,3.412-2.238,3.269-3.527-.188-1.686-2.713-.925-4.472-.176a15.166,15.166,0,0,1-1.69.81s.732-.4,1.69-.81c1.665-.925,3.879-2.574,3.224-4.542-.749-2.25-3.785-.483-5.356.626-.544.446-.953.72-.953.72s.38-.315.953-.72c1.485-1.215,4-3.7,2.115-5.385-2.578-2.308-10.356,6.1-10.847,5.434s2.087-4.538-.5-5.021a2.534,2.534,0,0,0-2.12,1.039c-.814,4.652,1.346,8.793,4.759,12.21Z" transform="translate(-196.463 -92.301)" fill="#8b5e3c" opacity="0.6"/>
        <path id="Pfad_1387" data-name="Pfad 1387" d="M63.927,471.8s-6.027,8.634-2.566,17.373c1.3,3.277,3.253,4.8,5.585,5.262a9.825,9.825,0,0,0,10-4.46,26.944,26.944,0,0,0,2.205-6.477c.6-2.848.867-5.327,1.342-7.566,0,0-11.841-2.107-16.567-4.137Z" transform="translate(-35.622 -278.745)"/>
        <path id="Pfad_1388" data-name="Pfad 1388" d="M71.262,491.522c-2.095.393-5.647-.475-6.882-2.156-4.5-4.984-3.433-12.034.164-17.746-.09-.037-.18-.074-.266-.111,0,0-5.958,8.609-2.566,17.373,1.326,3.425,3.67,5.041,6.269,5.295a9.775,9.775,0,0,0,8.985-4.419,23.407,23.407,0,0,0,2.475-8.044c-.471,1.322-2.332,8.859-8.183,9.812Z" transform="translate(-35.845 -278.573)" fill="#fff"/>
        <path id="Pfad_1389" data-name="Pfad 1389" d="M285.464,447.975a18.342,18.342,0,0,1,1.915,7.169c.123,3.826-.442,9.8,5.2,10.2,6.469.454,8.552-6.886,8.617-12.868s.331-14.955-7.3-15.872c0,0-3.752,8.768-8.437,11.375Z" transform="translate(-168.659 -257.947)"/>
        <path id="Pfad_1390" data-name="Pfad 1390" d="M298.479,452.953a17.062,17.062,0,0,0,.106-9.546c-.336-1.784-.606-3.572-.937-5.356a7.3,7.3,0,0,0-3.732-1.461s-3.752,8.769-8.437,11.375a18.342,18.342,0,0,1,1.915,7.169c.074,2.267-.094,5.295.933,7.463a2.746,2.746,0,0,0,.949.254c6.326,3.253,8.687-4.448,9.2-9.9Z" transform="translate(-168.671 -257.942)"/>
        <path id="Pfad_1391" data-name="Pfad 1391" d="M301.831,440.53a17.241,17.241,0,0,1,1.747,5.074,48.081,48.081,0,0,1-.368,11.575c-.638,4.182-.97,6.719-3.646,8.183-1.976,1.084-6.334,1.219-7.124-.438.7,1.489,1.976,2.406,4.276,2.57,6.469.45,8.282-7.275,8.347-13.257.037-3.388.07-7.484-1.1-10.573a8.048,8.048,0,0,0-2.132-3.13Z" transform="translate(-172.783 -260.269)" fill="#fff"/>
        <path id="Pfad_1392" data-name="Pfad 1392" d="M290.824,472.263a.418.418,0,0,1-.319-.151.423.423,0,0,1,.02-.552c.16-.164.851-.88,1.69-1.669a10.377,10.377,0,0,0-1.723-.385.41.41,0,0,1-.376-.3.058.058,0,0,0-.008-.025.424.424,0,0,1-.057-.434,9.748,9.748,0,0,1,1.71-2.169,5.172,5.172,0,0,0-2.083-.221.415.415,0,0,1-.372-.687c.065-.074,1.674-1.825,5.3-1.608a.417.417,0,0,1,.25.728c-.36.311-.945.843-1.563,1.436a18.33,18.33,0,0,1,2.525,1.252.417.417,0,0,1-.078.749.486.486,0,0,1-.115.049,6.749,6.749,0,0,0-1.759,1.236c1.182.368,2.25.737,2.475.814a.417.417,0,0,1-.135.81,10.439,10.439,0,0,0-5.164,1.06.415.415,0,0,1-.229.065Zm2.328-2.1c-.209.192-.417.385-.622.581a12.308,12.308,0,0,1,1.526-.3c-.3-.094-.606-.188-.908-.282Zm-1.363-1.248c.356.09.749.2,1.15.319.352-.311.708-.618,1.047-.884A9.434,9.434,0,0,0,291.79,468.916Zm.863-2.042c-.43.434-.843.872-1.174,1.268a10.193,10.193,0,0,1,2.623-.642C293.676,467.3,293.177,467.071,292.653,466.874Zm-1.751-1.322a8.979,8.979,0,0,1,1.526.364c.389-.381.765-.732,1.08-1.023A6.528,6.528,0,0,0,290.9,465.553Z" transform="translate(-170.868 -274.163)" fill="#fff"/>
        <path id="Pfad_1393" data-name="Pfad 1393" d="M75.936,316.18c-2.7,11.354-12.066,63.151-12.066,63.151s.213,3.016,7.59,6.522c6.281,2.983,13.744-1.264,13.744-1.264s10-43.343,19.91-43.646c7.811-.082,12.312,7.41,21.735,17.787,8.048,8.863,18.6,18.38,22.954,20.933,4.386.049,15.021-10.487,13.384-15.323-4.53-7.578-19.914-23.441-22.283-27.271-2.525-5.867-9.849-19.026-9.849-19.026s-25.25,16.641-55.128-1.862Z" transform="translate(-37.737 -186.8)" fill="#335381"/>
        <path id="Pfad_1394" data-name="Pfad 1394" d="M150.342,324.981c-1.8-3.764-3.253-6.94-3.253-6.94s-25.25,16.641-55.128-1.862c-.262,1.1-.589,2.594-.962,4.374,16.334,11.764,40.467,11.412,59.338,4.427Z" transform="translate(-53.766 -186.8)" fill="#a96582" opacity="0.47"/>
        <path id="Pfad_1395" data-name="Pfad 1395" d="M161.9,385.478c-.307,3.744.385,5.892-5.741,10.471-2.615,1.952-7.975.094-9.632-1.178-9.935-8.466-30.074-26.052-29.681-29.264,2.1-1.232,10.794,1.064,9.988-1.453-1.612-5.45-8.773-.1-12.913-3.486,1.69-1.653,6.281-1.183,5.9-4.112-9.632,1.984-19.264,3.965-27.979-1.146,5.393,3.4,3.67,7.979,1.522,13.388-3.445,9.153-6.543,21.22-9.943,30.389-3.392,9.145-13.351,6.236-18.994.417-.34,1.866-.532,2.942-.532,2.942s.213,3.016,7.59,6.522c6.281,2.983,13.744-1.264,13.744-1.264s10-43.343,19.91-43.646c7.811-.082,12.312,7.41,21.735,17.787,8.048,8.863,18.6,18.38,22.954,20.933,4.386.049,15.021-10.487,13.384-15.323-.36-.6-.8-1.264-1.309-1.976Z" transform="translate(-37.749 -209.919)" fill="#a96582" opacity="0.47"/>
        <path id="Pfad_1396" data-name="Pfad 1396" d="M129.429,200.567a32.318,32.318,0,0,1-11.322-3.044c-2.541-1.052-3.683-1.886-9.4-5.1-3.842,4.955-7.561,10.041-11.232,15.176-3.629,17.553-10.7,32.222-11.416,34.939-.753,2.868,16.968,11.416,32.218,11.829s29.767-5.569,29.767-5.569c-.929-4.227-2.332-9.505-2.778-13.012-.917-7.242-1.17-15.348.229-18.4-1-5.806-1.264-11.735-2.238-17.619-7.627,1.858-11.936.794-13.83.8Z" transform="translate(-50.832 -113.679)" fill="#870f3b"/>
        <path id="Pfad_1397" data-name="Pfad 1397" d="M151.188,300.169c-.135-.585-.266-1.17-.393-1.739a77.081,77.081,0,0,1-29.689,1.072,73.838,73.838,0,0,1-26.49-9.452q-.405,1.056-.786,2.025C117.23,305.774,139.739,302.526,151.188,300.169Z" transform="translate(-55.438 -171.361)" fill="#931c24"/>
        <path id="Pfad_1398" data-name="Pfad 1398" d="M133.039,252.876c-11.85-2.128-18.1-3.944-23.548-8.376-.225.876-.458,1.747-.692,2.6,3.588,2.529,10.086,5.311,17.279,6.935,12.864,2.905,23.671,1.858,31.891,1.068q.018-1.344.1-2.537c-5.074,1.236-17.136,1.727-25.029.307Z" transform="translate(-64.283 -144.449)" fill="#931c24"/>
        <path id="Pfad_1399" data-name="Pfad 1399" d="M152.689,266.567c-5.585,2.124-16.224,3.486-26.862,1.305-7.877-1.616-16.641-4.366-22.369-8.593a8.146,8.146,0,0,0-.925-.45c-.9,2.967-1.829,5.753-2.733,8.3,3.658,4.292,17.819,8.957,23.846,10.021,10.045,1.768,23.458.818,29.812-1.69-.02-.147-.041-.295-.061-.438C153.041,272.218,152.788,269.288,152.689,266.567Z" transform="translate(-58.966 -152.916)" fill="#931c24"/>
        <path id="Pfad_1400" data-name="Pfad 1400" d="M272.856,187.432c1.641-3.192-2.807-10.512-6.26-12.422-14.137,4.48-37.308,13.515-37.308,13.515-1.195.385-2.324.7-3.388.957.974,5.884,1.24,11.813,2.238,17.619a3.428,3.428,0,0,1,.409-.691c7.365-4.71,35.123-14.37,44.313-18.977Z" transform="translate(-133.469 -103.392)" fill="#870f3b"/>
        <path id="Pfad_1401" data-name="Pfad 1401" d="M70.325,152.007c-12.439-7.979-21.355-16.044-29.833-22.607-5.282,1.068-9.632,7.7-9.673,11.449L64.929,170c-.025.123-.053.241-.078.36,3.67-5.135,7.39-10.221,11.232-15.176-1.547-.867-3.421-1.911-5.757-3.179Z" transform="translate(-18.21 -76.445)" fill="#870f3b"/>
        <path id="Pfad_1402" data-name="Pfad 1402" d="M80.644,494.34a.4.4,0,0,1-.164-.037c-4.21-1.858-6.747-1.7-6.772-1.7a.406.406,0,0,1-.438-.34.419.419,0,0,1,.286-.475c.262-.082,1.42-.43,2.778-.773a16.747,16.747,0,0,0-2.009-1.371.676.676,0,0,1-.1-.917,10.976,10.976,0,0,1,3-1.256,8.515,8.515,0,0,0-2.549-1.416.411.411,0,0,1-.295-.389.416.416,0,0,1,.278-.4c.11-.037,2.75-.912,6.94,1.191a.409.409,0,0,1,.225.426.418.418,0,0,1-.323.356c-.569.123-1.51.34-2.516.61a26.452,26.452,0,0,1,2.521,2.61.415.415,0,0,1-.4.671.669.669,0,0,1-.127,0,9.237,9.237,0,0,0-2.75.3c1.367,1.076,2.586,2.091,2.684,2.173a.417.417,0,0,1-.27.737Zm-4.7-2.357a19.32,19.32,0,0,1,2.43.626c-.381-.3-.782-.622-1.187-.937-.421.1-.839.209-1.24.311Zm.008-2.275c.438.311.929.679,1.428,1.064.63-.143,1.264-.274,1.845-.364A14.414,14.414,0,0,0,75.951,489.708Zm-.168-.851a15.132,15.132,0,0,1,3.891.822c-.462-.475-1.027-1.031-1.653-1.563A23.514,23.514,0,0,0,75.783,488.857Zm.565-2.966a13.807,13.807,0,0,1,1.87,1.3c.7-.192,1.363-.36,1.9-.487A10.715,10.715,0,0,0,76.348,485.89Z" transform="translate(-43.288 -286.575)" fill="#fff"/>
        <path id="Pfad_1403" data-name="Pfad 1403" d="M127.788,311.261a65.18,65.18,0,0,1-18-1.092c-7.091-.912-20.184-5.454-21.932-11.788-.937,2.32-1.6,3.944-1.8,4.681-.753,2.868,16.968,11.416,32.218,11.829s29.767-5.569,29.767-5.569c-.929-4.227-2.332-9.505-2.778-13.012-.061-.475-.119-.957-.172-1.44-.912,3.294-2.848,4.112-1.759,9.566-.544,3.273-2.954,5.364-15.549,6.821Z" transform="translate(-50.832 -174.209)" fill="#905663" opacity="0.5"/>
        <path id="Pfad_1404" data-name="Pfad 1404" d="M65.113,170.854c-4.587-.888-8.654-4.992-12.2-7.791-12.181-9.6-12.377-9.382-18.294-15.184a6.685,6.685,0,0,1-1.2-6.039,12.186,12.186,0,0,0-2.6,6.363l34.055,29.108c.782-3.089,1.538-6.195,3.49-8.74C67.531,168.563,65.53,170.858,65.113,170.854Z" transform="translate(-18.21 -83.795)" fill="#905663" opacity="0.5"/>
        <path id="Pfad_1405" data-name="Pfad 1405" d="M270.324,177.78c1.776,3.261,3.482,6.931.135,9.435-10.115,7.827-25.872,10.413-38.041,15.295-2.218.712-2.668,4.6-2.8,9.051a10.527,10.527,0,0,1,.712-2.823,3.428,3.428,0,0,1,.409-.691c7.365-4.71,35.123-14.37,44.313-18.977C276.458,186.336,273.4,180.579,270.324,177.78Z" transform="translate(-135.667 -105.029)" fill="#905663" opacity="0.5"/>
        <path id="Pfad_1406" data-name="Pfad 1406" d="M123.985,78.412c3.466-5.413,11.674-16.1,27.582-14.734a36.714,36.714,0,0,1,22.517,11.129c6.972,7.651,8.94,16.453,5.868,29.452-2.43,10.278-9.464,16.821-19.452,20.041-5.855,1.886-12.979,1.87-23.671-2.447a27.745,27.745,0,0,1-16.224-16.584c-4.018-10.381-.315-21.093,3.376-26.858Z" transform="translate(-70.229 -37.543)" fill="#ffd3a6"/>
        <path id="Pfad_1407" data-name="Pfad 1407" d="M233.724,145.81c-7.451,4.73-6.931,16.289-.151,21.584A25.809,25.809,0,0,0,244.62,151.33a53.091,53.091,0,0,0,1.244-7.406,13.314,13.314,0,0,0-12.136,1.886Z" transform="translate(-134.893 -84.614)" fill="url(#radial-gradient)"/>
        <path id="Pfad_1408" data-name="Pfad 1408" d="M134.038,95.025c2.4-5.115,1.064-11.641-3.29-14.6a37.562,37.562,0,0,0-6.661,7.95,33.7,33.7,0,0,0-5.057,15.52A16.784,16.784,0,0,0,134.038,95.025Z" transform="translate(-70.327 -47.512)" fill="url(#radial-gradient-2)"/>
        <path id="Pfad_1409" data-name="Pfad 1409" d="M198.09,71.321c.07-.049.143-.1.217-.151A.853.853,0,0,0,198.09,71.321Z" transform="translate(-117.038 -42.041)" fill="#dd8053"/>
        <path id="Pfad_1410" data-name="Pfad 1410" d="M175.2,71.291a1.323,1.323,0,0,0-.057-.381A1.218,1.218,0,0,0,175.2,71.291Z" transform="translate(-103.479 -41.887)" fill="#dd8053"/>
        <path id="Pfad_1411" data-name="Pfad 1411" d="M190.211,74.813a36.725,36.725,0,0,0-22.517-11.129,27.623,27.623,0,0,0-21.535,7.279c1.383-.11,3.437-2.119,6.911-3.384,3.728.945,4.857-1.412,4.857-1.551a3.078,3.078,0,0,0,2.889,1.788c1.956.02,3.1-1.146,3.106-1.948.782,1.608,2.84,1.727,3.331.638.737,4.374,4.5,3.486,6.015,2,1.125,3.081,4.546,2.165,4.918,1.408.106.9.63,1.236,1.461,1.661.417,0,1.837.36,2.533-.237-1,.863.651,3.457,1.064,3.879,2.561,1.747,3.572,1.837,4.959,1.436.385,2.766,3.1,4.714,4.354,4.726-.851,1.244-.061,6.4,2.271,6.514-.421.413-1.461,4.431.716,6.935.233,3.732-.471,8.22-4.313,15.7a28.007,28.007,0,0,1-12.1,11.841,36.549,36.549,0,0,1-5.52,2.7,24.209,24.209,0,0,0,3.024-.769c9.992-3.22,17.026-9.763,19.452-20.041,3.073-13,1.1-21.8-5.868-29.452Z" transform="translate(-86.356 -37.55)" fill="#eca5aa" opacity="0.44"/>
        <path id="Pfad_1412" data-name="Pfad 1412" d="M194.085,106.136l.544-.123a2.92,2.92,0,0,1,.994-3.151c.135-.065.225.008.659.691a7.78,7.78,0,0,0,1.428,1.768c1.866,1.624,4.558-.72,4.673-.818l-.417-.483c-.025.02-2.459,2.14-3.92.867a6.933,6.933,0,0,1-1.285-1.6c-.4-.63-.814-1.281-1.448-.97a3.44,3.44,0,0,0-1.228,3.83Z" transform="translate(-114.572 -60.394)" fill="url(#radial-gradient-3)"/>
        <path id="Pfad_1413" data-name="Pfad 1413" d="M180.254,77.956a4.907,4.907,0,0,1,3.269.822,1.087,1.087,0,0,0-.217-1.448c-.753-.712-2.737-.876-3.057.626Z" transform="translate(-106.498 -45.369)" fill="#2b2314"/>
        <path id="Pfad_1414" data-name="Pfad 1414" d="M249.127,115.053a4.935,4.935,0,0,0-2.987-1.567,1.089,1.089,0,0,1,1.125-.937C248.3,112.516,249.892,113.723,249.127,115.053Z" transform="translate(-145.428 -66.488)" fill="#2b2314"/>
        <path id="Pfad_1415" data-name="Pfad 1415" d="M170.951,136.371c-5.581-.057-9.791-.61-15.4-3.8-5.049-2.868-10.368-7.013-12.639-10.7-2.578-4.186-8.069.982-7.516,7.754.442,5.4,4.943,12.357,12.476,16.751,11.166,6.51,20.086,4.5,25.639.663,5.843-4.039,3.965-10.6-2.557-10.667Z" transform="translate(-79.973 -71.108)" fill="#923732"/>
        <path id="Pfad_1416" data-name="Pfad 1416" d="M142.943,121.87c2.275,3.691,7.594,7.832,12.639,10.7,5.606,3.187,9.816,3.74,15.4,3.8,6.522.065,8.4,6.629,2.557,10.667a20.157,20.157,0,0,1-2.177,1.305c-3.163-4.382-8.007-8.228-17.492-13.846-3.564-2.111-15.553-6.273-17.8-6.469-.221,0-.442-.008-.659-.012.336-5.937,5.164-9.992,7.533-6.146Z" transform="translate(-80.005 -71.103)" fill="#842339" opacity="0.4"/>
        <path id="Pfad_1417" data-name="Pfad 1417" d="M176.5,143.379c-2.619.593-8.147-1.227-13.032-3.781-4.37-2.467-6.093-3.523-7.979-6.236-1.358-1.956-.626-4.624-.078-5.663,2.623,3.277,7.2,6.723,11.575,9.21a26.64,26.64,0,0,0,12.9,3.723,5.663,5.663,0,0,1-3.388,2.746Z" transform="translate(-91.413 -75.44)" fill="#fff"/>
        <path id="Pfad_1418" data-name="Pfad 1418" d="M155.51,127.69c2.623,3.277,7.2,6.723,11.575,9.21a26.64,26.64,0,0,0,12.9,3.723,5.393,5.393,0,0,1-1.084,1.424.717.717,0,0,0-.1-.09c-4.558-.757-9.067-2.373-15.483-6.129-5.061-3.024-7.242-7.017-8.175-5.9a.571.571,0,0,1-.262-.192,6.7,6.7,0,0,1,.626-2.05Z" transform="translate(-91.509 -75.434)" fill="#d5dbe6" opacity="0.5"/>
        <path id="Pfad_1419" data-name="Pfad 1419" d="M152.319,163.965c5.446,3.318,9.444,3.261,14.256,5.1a15.042,15.042,0,0,1,6.42,5.651c-5.246,1.534-12,1.182-19.869-3.408a28.865,28.865,0,0,1-8.875-7.967c2.234-1.3,5.573-.9,8.065.622Z" transform="translate(-85.228 -96.038)" fill="#f3807c"/>
        <path id="Pfad_1420" data-name="Pfad 1420" d="M172.654,91.195a4.787,4.787,0,1,1,.831-6.719A4.783,4.783,0,0,1,172.654,91.195Z" transform="translate(-97.441 -48.812)" fill="url(#radial-gradient-4)"/>
        <path id="Pfad_1421" data-name="Pfad 1421" d="M173.925,86.992a3.728,3.728,0,1,1-5.192-.917A3.728,3.728,0,0,1,173.925,86.992Z" transform="translate(-98.753 -50.449)" fill="url(#radial-gradient-5)"/>
        <path id="Pfad_1422" data-name="Pfad 1422" d="M175.114,91.854A2.723,2.723,0,1,1,172.9,88.7,2.723,2.723,0,0,1,175.114,91.854Z" transform="translate(-100.269 -52.373)" fill="#3c2415"/>
        <path id="Pfad_1423" data-name="Pfad 1423" d="M179.515,93.315a.649.649,0,1,1,.16-.9A.649.649,0,0,1,179.515,93.315Z" transform="translate(-105.46 -54.427)" fill="#fff"/>
        <path id="Pfad_1424" data-name="Pfad 1424" d="M237.654,126.425a4.787,4.787,0,1,1,.831-6.719A4.783,4.783,0,0,1,237.654,126.425Z" transform="translate(-135.845 -69.627)" fill="url(#radial-gradient-6)"/>
        <path id="Pfad_1425" data-name="Pfad 1425" d="M238.925,122.222a3.728,3.728,0,1,1-5.192-.917,3.728,3.728,0,0,1,5.192.917Z" transform="translate(-137.157 -71.264)" fill="url(#radial-gradient-7)"/>
        <path id="Pfad_1426" data-name="Pfad 1426" d="M240.114,127.084a2.723,2.723,0,1,1-2.21-3.155A2.723,2.723,0,0,1,240.114,127.084Z" transform="translate(-138.673 -73.188)" fill="#3c2415"/>
        <path id="Pfad_1427" data-name="Pfad 1427" d="M244.515,128.545a.649.649,0,1,1,.16-.9.649.649,0,0,1-.16.9Z" transform="translate(-143.864 -75.241)" fill="#fff"/>
        <path id="Pfad_1428" data-name="Pfad 1428" d="M192.671,70.088a4.157,4.157,0,0,0,.074-.683,3.887,3.887,0,0,0-.233-1.35,6.084,6.084,0,0,0-.082-6.023,3.8,3.8,0,0,0-2.042-5.082,3.809,3.809,0,0,0-1.968-5.041,3.8,3.8,0,0,0-3.752-3.494,4.32,4.32,0,0,0-.52.033,3.8,3.8,0,0,0-3.339-2.34,3.943,3.943,0,0,0,.1-.831,3.8,3.8,0,0,0-6.334-2.885,5.407,5.407,0,0,0-7.852-4.46,3.274,3.274,0,0,0-3.912-1.129,3.743,3.743,0,0,0-.385.192,4.753,4.753,0,0,0-7.733-.982,3.793,3.793,0,0,0-5.479.679,3.8,3.8,0,0,0-5.687,2.029,6.55,6.55,0,0,0-.569.434,3.737,3.737,0,0,0-1.743-.446c-1.829-.02-3.908,2.958-3.985,2.954-1.428-.016-2.582,6.543-2.435,6.956-1.129.291-4.918,1.428-4.931,2.651-.008.659-.839,2.84-.446,3.306-5.049,2.205-3.85,11.809-3.85,11.809s5.426-13.7,15.25-16.792a3.788,3.788,0,0,0,4.8-1.162,3.8,3.8,0,0,0,6.174-.585,3.79,3.79,0,0,0,2.709,1.178,4.175,4.175,0,0,0,.687-.057,3.8,3.8,0,0,0,5.908,1.862,3.8,3.8,0,0,0,5.021,1.408,3.813,3.813,0,0,0,2.979,1.5,4.037,4.037,0,0,0,1.027-.131c.025.012.045.029.07.041.417,2.1,2.533,4.926,5.467,5.254a3.426,3.426,0,0,0,.872-.02c.323,2.025,2.713,4.8,4.636,5.012a6.005,6.005,0,0,0-.127,1.158,6.094,6.094,0,0,0,2.819,5.209c.057.278.11.552.16.831a3.8,3.8,0,0,0,.479,5.565c0,5.115-3.76,17.86-3.76,17.86s5.389-3.351,6.76-9.235c0,0,.892-1.956,1.342-3.1,1.322-.131,2.766-6.665,2.406-7.124.671-.679,2.193-4.255,1.428-4.963Z" transform="translate(-74.118 -20.345)" fill="#2b2314"/>
        <path id="Pfad_1429" data-name="Pfad 1429" d="M194.616,55.12c.953-11.747-5.033-24.828-13.318-29.648-8.924-5.192-20.3-7.087-30.573-2.876a53.47,53.47,0,0,0-17.255,11.142c-3.11,3.11-7.8,8.805-8.809,14.223,4.145-1.436,10.356-7.23,19.7-9.984a33.676,33.676,0,0,1,18.167-1.248c8.5,1.768,17.3,6.281,21.052,13.609,3.809,7.439,2.312,19.28,4.321,28.666.8.426,5.356-7.083,6.719-23.883Z" transform="translate(-73.654 -11.977)" fill="#f15a29"/>
        <path id="Pfad_1430" data-name="Pfad 1430" d="M216.4,40.981c-2.291-3.6-5.966-9.17-14.685-12.512a51.38,51.38,0,0,0-27.263-2.631,58.016,58.016,0,0,0-7.868,4.124c4.194-1.191,12.889-3.883,28.437.209,17.852,4.7,23.024,19.607,24.464,24.444C219.6,49.921,217.669,43.673,216.4,40.981Z" transform="translate(-98.421 -14.777)" fill="#de0a24"/>
        <path id="Pfad_1431" data-name="Pfad 1431" d="M191.294,49.593c-12.132-11.96-32.566-11.62-48.147-5.655-.487.446-.974.9-1.453,1.383-.941.941-2.025,2.124-3.114,3.457,5.651-2.586,10.954-4.849,19.374-5.524,9-.818,18.621,1.019,26.4,5.929,10.405,6.62,16.85,20.1,16.015,32.431a74.6,74.6,0,0,0,1.96-10.021C201.65,67.462,200.721,58.89,191.294,49.593Z" transform="translate(-81.878 -23.561)" fill="#9f0a24"/>
        <path id="Pfad_1432" data-name="Pfad 1432" d="M162.5,136.555a15.607,15.607,0,0,1-7.316-4.37,15.994,15.994,0,0,1-3.662-5.737c3.826-5,5.962-12.795,2.627-19.976-1.154-2.692-2.754-7.291-2.95-10.131-2.091-10.982,0-17.312-4.079-24.82-3.932-7.234-12.177-12.782-20.671-14.554a42.264,42.264,0,0,0-20.393,1.211c-4.231,1.248-8.871,3.818-13.229,5.274C87.57,65.208,82,66.816,77.545,72.577a25.309,25.309,0,0,0-3.388,9.751c-1.428-.07-8.126.029-12.467,7.557.115.172.524.884.663,1.043,1.628-2.574,5.1-7.4,12.017-7.414,1.612.246,9.21,1.088,13.265-3.977,2.316-3.543,5.454-13.069,13.4-17.283C109,58.027,120.148,57.8,123.7,58.473,138.639,61.3,145.8,70.83,147.46,76.861c.855,3.114,2.876,20-7.832,33.777-6.285,8.085,9.882,16.06,11.1,16.649a20.945,20.945,0,0,0,3.773,5.724,15.78,15.78,0,0,0,7.422,4.5c.278.094,1.047-.831.565-.957Z" transform="translate(-36.449 -33.227)" fill="#fff"/>
        <path id="Pfad_1433" data-name="Pfad 1433" d="M264.322,152.275c-.483-2.152-2.668-6.232-3.7-11.784-1.1-5.925-1.743-11.457-1.972-13.961-.1,6.931-1.772,16.907-8.556,25.635-5.021,6.457,4.276,12.844,8.85,15.454,2.422-.25,6.837-8.834,5.381-15.34Z" transform="translate(-146.907 -74.749)" fill="#cd4f2d"/>
        <path id="Pfad_1434" data-name="Pfad 1434" d="M272.69,152.785c.012-.282.02-.569.02-.855C272.694,152.216,272.69,152.5,272.69,152.785Z" transform="translate(-161.114 -89.756)" fill="#cd4f2d" opacity="0.5"/>
        <path id="Pfad_1435" data-name="Pfad 1435" d="M264.324,152.275c-.483-2.152-2.668-6.232-3.7-11.784-1.1-5.925-1.743-11.457-1.972-13.961-.1,6.931-1.772,16.907-8.556,25.635-2.222,2.856-1.637,5.7.1,8.208a4.441,4.441,0,0,1,.54-3.4c2.451-3.936,4.362-6.007,5.863-8.728.655-1.182,3.159-2.934,3.547-1.637a38.957,38.957,0,0,0,4.092,8.318,4.3,4.3,0,0,1,.241,2.165A14.147,14.147,0,0,0,264.324,152.275Z" transform="translate(-146.909 -74.749)" fill="#cd4f2d" opacity="0.5"/>
        <path id="Pfad_1436" data-name="Pfad 1436" d="M95.2,92.575c2.68.241,8.756.241,12.23-4.1,2.279-3.49,5.368-12.791,13.057-17.1-6.53,2.86-14.591,4.112-19.436,8.695-3.265,3.089-5.139,7.345-5.855,12.5Z" transform="translate(-56.248 -42.165)" fill="#cd4f2d"/>
        <path id="Pfad_1437" data-name="Pfad 1437" d="M109.8,79.977c2.516-1.547,5.156-2.917,8.159-2.643,4.223.81-3.993,9.235-5.454,13.932a10.113,10.113,0,0,0,3.556-2.791c2.279-3.49,5.368-12.791,13.057-17.1-6.481,2.836-14.464,4.1-19.317,8.593Z" transform="translate(-64.874 -42.165)" fill="#cd4f2d" opacity="0.5"/>
        <path id="Pfad_1438" data-name="Pfad 1438" d="M105.994,273.494a11.1,11.1,0,0,0-.667,1.2l-1.367.389.716-1.305,1.322-.29Z" transform="translate(-61.424 -161.577)" fill="#fff"/>
        <path id="Pfad_1439" data-name="Pfad 1439" d="M112.754,268.194a11.1,11.1,0,0,0-.667,1.2l-1.367.389.716-1.305,1.322-.29Z" transform="translate(-65.418 -158.446)" fill="#fff"/>
        <path id="Pfad_1440" data-name="Pfad 1440" d="M106.742,268.964a11.1,11.1,0,0,0-1.2-.667l-.389-1.367,1.305.716.291,1.322Z" transform="translate(-62.127 -157.701)" fill="#fff"/>
        <path id="Pfad_1441" data-name="Pfad 1441" d="M112.042,275.714a11.093,11.093,0,0,0-1.2-.667l-.389-1.367,1.305.716.291,1.322Z" transform="translate(-65.258 -161.69)" fill="#fff"/>
        <path id="Pfad_1442" data-name="Pfad 1442" d="M104.961,271.6a10.824,10.824,0,0,0-1.326.368l-1.236-.7,1.428-.405Z" transform="translate(-60.502 -160.023)" fill="#fff"/>
        <path id="Pfad_1443" data-name="Pfad 1443" d="M113.471,272.707a10.824,10.824,0,0,0-1.326.368l-1.236-.7,1.428-.405Z" transform="translate(-65.53 -160.679)" fill="#fff"/>
        <path id="Pfad_1444" data-name="Pfad 1444" d="M109.338,267.921a10.827,10.827,0,0,0-.368-1.326l.7-1.236.405,1.428Z" transform="translate(-64.384 -156.774)" fill="#fff"/>
        <path id="Pfad_1445" data-name="Pfad 1445" d="M108.238,276.431a10.826,10.826,0,0,0-.368-1.326l.7-1.236.405,1.428-.737,1.133Z" transform="translate(-63.734 -161.802)" fill="#fff"/>
        <path id="Pfad_1446" data-name="Pfad 1446" d="M142.679,289.394a10.724,10.724,0,0,0-.532,1.268l-1.318.536.569-1.375,1.281-.434Z" transform="translate(-83.207 -170.971)" fill="#fff"/>
        <path id="Pfad_1447" data-name="Pfad 1447" d="M148.819,283.394a10.726,10.726,0,0,0-.532,1.268l-1.318.536.569-1.375,1.281-.434Z" transform="translate(-86.835 -167.427)" fill="#fff"/>
        <path id="Pfad_1448" data-name="Pfad 1448" d="M142.684,285.129a10.727,10.727,0,0,0-1.268-.532l-.536-1.318,1.375.569.434,1.281Z" transform="translate(-83.237 -167.362)" fill="#fff"/>
        <path id="Pfad_1449" data-name="Pfad 1449" d="M148.684,291.269a10.723,10.723,0,0,0-1.268-.532l-.536-1.318,1.375.569.434,1.281Z" transform="translate(-86.782 -170.989)" fill="#fff"/>
        <path id="Pfad_1450" data-name="Pfad 1450" d="M141.262,287.72a11.455,11.455,0,0,0-1.277.511l-1.305-.561,1.379-.561,1.207.61Z" transform="translate(-81.937 -169.624)" fill="#fff"/>
        <path id="Pfad_1451" data-name="Pfad 1451" d="M149.836,287.89a11.55,11.55,0,0,0-1.281.512l-1.305-.561,1.379-.561Z" transform="translate(-87.001 -169.725)" fill="#fff"/>
        <path id="Pfad_1452" data-name="Pfad 1452" d="M145.341,283.7a11.453,11.453,0,0,0-.511-1.277l.561-1.305.561,1.379-.61,1.207Z" transform="translate(-85.571 -166.085)" fill="#fff"/>
        <path id="Pfad_1453" data-name="Pfad 1453" d="M145.181,292.282a11.456,11.456,0,0,0-.511-1.277l.561-1.305.561,1.379-.61,1.207Z" transform="translate(-85.476 -171.155)" fill="#fff"/>
        <path id="Pfad_1454" data-name="Pfad 1454" d="M122.714,282.054a11.1,11.1,0,0,0-.667,1.2l-1.367.389.716-1.305,1.322-.29Z" transform="translate(-71.302 -166.635)" fill="#fff"/>
        <path id="Pfad_1455" data-name="Pfad 1455" d="M129.474,276.754a11.1,11.1,0,0,0-.667,1.2l-1.367.389.716-1.305,1.322-.29Z" transform="translate(-75.296 -163.503)" fill="#fff"/>
        <path id="Pfad_1456" data-name="Pfad 1456" d="M123.462,277.524a11.111,11.111,0,0,0-1.2-.667l-.389-1.367,1.305.716.291,1.322Z" transform="translate(-72.005 -162.759)" fill="#fff"/>
        <path id="Pfad_1457" data-name="Pfad 1457" d="M128.762,284.284a11.1,11.1,0,0,0-1.2-.667l-.389-1.367,1.305.716.291,1.322Z" transform="translate(-75.137 -166.753)" fill="#fff"/>
        <path id="Pfad_1458" data-name="Pfad 1458" d="M121.681,280.167a10.829,10.829,0,0,0-1.326.368l-1.236-.7,1.428-.405Z" transform="translate(-70.38 -165.087)" fill="#fff"/>
        <path id="Pfad_1459" data-name="Pfad 1459" d="M130.191,281.266a10.824,10.824,0,0,0-1.326.368l-1.236-.7,1.428-.405Z" transform="translate(-75.408 -165.737)" fill="#fff"/>
        <path id="Pfad_1460" data-name="Pfad 1460" d="M126.058,276.481a10.825,10.825,0,0,0-.368-1.326l.7-1.236.405,1.428Z" transform="translate(-74.262 -161.831)" fill="#fff"/>
        <path id="Pfad_1461" data-name="Pfad 1461" d="M124.958,285a10.826,10.826,0,0,0-.368-1.326l.7-1.236.405,1.428Z" transform="translate(-73.612 -166.865)" fill="#fff"/>
        <path id="Pfad_1462" data-name="Pfad 1462" d="M163.394,293.424a11.1,11.1,0,0,0-.667,1.2l-1.367.389.716-1.305,1.322-.29Z" transform="translate(-95.337 -173.353)" fill="#fff"/>
        <path id="Pfad_1463" data-name="Pfad 1463" d="M170.154,288.134a11.1,11.1,0,0,0-.667,1.2l-1.367.389.716-1.305,1.322-.291Z" transform="translate(-99.331 -170.227)" fill="#fff"/>
        <path id="Pfad_1464" data-name="Pfad 1464" d="M164.142,288.894a11.094,11.094,0,0,0-1.2-.667l-.389-1.367,1.305.716.291,1.322Z" transform="translate(-96.04 -169.477)" fill="#fff"/>
        <path id="Pfad_1465" data-name="Pfad 1465" d="M169.442,295.654a11.107,11.107,0,0,0-1.2-.667l-.389-1.367,1.305.716.291,1.322Z" transform="translate(-99.172 -173.471)" fill="#fff"/>
        <path id="Pfad_1466" data-name="Pfad 1466" d="M162.361,291.536a10.823,10.823,0,0,0-1.326.368l-1.236-.7,1.428-.405Z" transform="translate(-94.415 -171.805)" fill="#fff"/>
        <path id="Pfad_1467" data-name="Pfad 1467" d="M170.871,292.637a10.818,10.818,0,0,0-1.326.368l-1.236-.7,1.428-.405Z" transform="translate(-99.443 -172.454)" fill="#fff"/>
        <path id="Pfad_1468" data-name="Pfad 1468" d="M166.738,287.861a10.827,10.827,0,0,0-.368-1.326l.7-1.236.405,1.428-.737,1.133Z" transform="translate(-98.297 -168.555)" fill="#fff"/>
        <path id="Pfad_1469" data-name="Pfad 1469" d="M165.638,296.371a10.826,10.826,0,0,0-.368-1.326l.7-1.236.405,1.428-.737,1.133Z" transform="translate(-97.647 -173.583)" fill="#fff"/>
        <path id="Pfad_1470" data-name="Pfad 1470" d="M184.4,295.044a11.1,11.1,0,0,0-.667,1.2l-1.367.389.716-1.305,1.322-.291Z" transform="translate(-107.75 -174.31)" fill="#fff"/>
        <path id="Pfad_1471" data-name="Pfad 1471" d="M191.164,289.744a11.107,11.107,0,0,0-.667,1.2l-1.367.389.716-1.305,1.322-.29Z" transform="translate(-111.744 -171.178)" fill="#fff"/>
        <path id="Pfad_1472" data-name="Pfad 1472" d="M185.152,290.514a11.116,11.116,0,0,0-1.2-.667l-.389-1.367,1.305.716.291,1.322Z" transform="translate(-108.454 -170.434)" fill="#fff"/>
        <path id="Pfad_1473" data-name="Pfad 1473" d="M190.452,297.264a11.108,11.108,0,0,0-1.2-.667l-.389-1.367,1.305.716.291,1.322Z" transform="translate(-111.585 -174.422)" fill="#fff"/>
        <path id="Pfad_1474" data-name="Pfad 1474" d="M183.371,293.156a10.828,10.828,0,0,0-1.326.368l-1.236-.7,1.428-.405Z" transform="translate(-106.829 -172.762)" fill="#fff"/>
        <path id="Pfad_1475" data-name="Pfad 1475" d="M191.881,294.257a10.829,10.829,0,0,0-1.326.368l-1.236-.7,1.428-.405Z" transform="translate(-111.857 -173.412)" fill="#fff"/>
        <path id="Pfad_1476" data-name="Pfad 1476" d="M187.758,289.471a10.83,10.83,0,0,0-.368-1.326l.7-1.236.405,1.428-.736,1.133Z" transform="translate(-110.716 -169.506)" fill="#fff"/>
        <path id="Pfad_1477" data-name="Pfad 1477" d="M186.648,297.981a10.829,10.829,0,0,0-.368-1.326l.7-1.236.405,1.428Z" transform="translate(-110.061 -174.534)" fill="#fff"/>
        <path id="Pfad_1478" data-name="Pfad 1478" d="M207.244,293.444a11.1,11.1,0,0,0-.667,1.2l-1.367.389.716-1.305,1.322-.291Z" transform="translate(-121.245 -173.364)" fill="#fff"/>
        <path id="Pfad_1479" data-name="Pfad 1479" d="M214,288.154a11.1,11.1,0,0,0-.667,1.2l-1.367.389.716-1.305,1.322-.29Z" transform="translate(-125.239 -170.239)" fill="#fff"/>
        <path id="Pfad_1480" data-name="Pfad 1480" d="M207.992,288.914a11.1,11.1,0,0,0-1.2-.667l-.389-1.367,1.305.716.291,1.322Z" transform="translate(-121.948 -169.489)" fill="#fff"/>
        <path id="Pfad_1481" data-name="Pfad 1481" d="M213.282,295.674a11.1,11.1,0,0,0-1.2-.667l-.389-1.367,1.305.716.291,1.322Z" transform="translate(-125.074 -173.482)" fill="#fff"/>
        <path id="Pfad_1482" data-name="Pfad 1482" d="M206.2,291.556a10.828,10.828,0,0,0-1.326.368l-1.236-.7,1.428-.405Z" transform="translate(-120.317 -171.816)" fill="#fff"/>
        <path id="Pfad_1483" data-name="Pfad 1483" d="M214.721,292.656a10.83,10.83,0,0,0-1.326.368l-1.236-.7,1.428-.405Z" transform="translate(-125.351 -172.466)" fill="#fff"/>
        <path id="Pfad_1484" data-name="Pfad 1484" d="M210.588,287.871a10.826,10.826,0,0,0-.368-1.326l.7-1.236.405,1.428Z" transform="translate(-124.205 -168.561)" fill="#fff"/>
        <path id="Pfad_1485" data-name="Pfad 1485" d="M209.488,296.391a10.828,10.828,0,0,0-.368-1.326l.7-1.236.405,1.428Z" transform="translate(-123.555 -173.595)" fill="#fff"/>
        <path id="Pfad_1486" data-name="Pfad 1486" d="M225.309,290.6a11.251,11.251,0,0,0-.79,1.129l-1.4.246.843-1.223,1.346-.155Z" transform="translate(-131.827 -171.686)" fill="#fff"/>
        <path id="Pfad_1487" data-name="Pfad 1487" d="M226.765,285.869a11.248,11.248,0,0,0-1.129-.79l-.245-1.4,1.223.843.155,1.346Z" transform="translate(-133.168 -167.598)" fill="#fff"/>
        <path id="Pfad_1488" data-name="Pfad 1488" d="M224.646,288.525a11.23,11.23,0,0,0-1.358.229l-1.158-.827,1.465-.258,1.052.851Z" transform="translate(-131.242 -169.955)" fill="#fff"/>
        <path id="Pfad_1489" data-name="Pfad 1489" d="M227.3,293.566a11.224,11.224,0,0,0-.229-1.358l.827-1.158.258,1.465-.851,1.052Z" transform="translate(-134.161 -171.952)" fill="#fff"/>
        <path id="Pfad_1490" data-name="Pfad 1490" d="M141.96,216.9s-7.77,17.275,2.242,26.588c0,0,8.552,5.9,15.528-.638,0,0-11.882-8.425-8.732-19.2a20.209,20.209,0,0,1-9.034-6.747Z" transform="translate(-82.177 -128.142)" fill="#00a651"/>
        <path id="Pfad_1491" data-name="Pfad 1491" d="M153.183,223.647a20.21,20.21,0,0,1-9.035-6.747,33.232,33.232,0,0,0-1.358,3.813c1.281,3.089,3.261,3.662,6.154,4.714,3.273,1.228.7,2.786,2.786,8.122,1.228,3.683,4.955,7.913,8.638,9.959.151.086.3.168.454.254a12.208,12.208,0,0,0,1.1-.912s-11.882-8.425-8.732-19.2Z" transform="translate(-84.365 -128.142)" fill="#007051" opacity="0.4"/>
        <path id="Pfad_1492" data-name="Pfad 1492" d="M130.7,182.355s-1.894-.917-1.543,1.9,5.859,15.614,13.122,18.969,7.205-1.039,7.205-1.039,6.633,3.048,9.051-3.887c0,0-2.381-4.03-8.981-4.566C143.2,192.465,133.842,186.43,130.7,182.355Z" transform="translate(-76.285 -107.648)" fill="#00a651"/>
        <path id="Pfad_1493" data-name="Pfad 1493" d="M150.314,193.736c-6.35-1.268-15.712-7.3-18.855-11.379a1.339,1.339,0,0,0-1.06-.041c3.793,6.919,12.639,12.091,21.007,13.286.818,0,4.71,2.488,2.9,3.94-2.144,1.714-5.262.544-9.035-1.894,1.6,1.53,2.864,2.8,1.956,4.615-.72,1.616-5.491,1.592-9.039-2.786a15.934,15.934,0,0,0,4.853,3.752c7.263,3.355,7.206-1.039,7.206-1.039s6.633,3.048,9.051-3.887c0,0-2.381-4.03-8.977-4.566Z" transform="translate(-77.045 -107.65)" fill="#007051" opacity="0.4"/>
        <path id="Pfad_1494" data-name="Pfad 1494" d="M177.29,207.884s3.028-1.935,8.994-1.7,8.781-.434,11.678,4.865,4.382,22.537,16.019,24.264c0,0-4.006,6.964-16,1.788-9.255-3.994-12.521-12.521-13.13-21.166-.466-6.579-7.553-8.048-7.553-8.048Z" transform="translate(-104.749 -121.798)" fill="#00a651"/>
        <path id="Pfad_1495" data-name="Pfad 1495" d="M200.887,209.88c1.043-1.043-1.915-3.388.393-3.543-1.3-.09-2.791-.082-4.562-.151-.622-.025-1.207-.02-1.768,0,2.643,1.723,3.666,6.289,5.933,3.695Z" transform="translate(-115.183 -121.802)" fill="#007051" opacity="0.4"/>
        <path id="Pfad_1496" data-name="Pfad 1496" d="M208.909,214.331a11.979,11.979,0,0,0-1.845-2.611c.07.168.131.336.184.5,4.092,9.411,1.273,18.347,12.009,26.314-2.77,3.29-8.863,2.66-14.018-.908a22.287,22.287,0,0,1-7.128-9.161c-1.739-4.309-1.825-8.863-2.291-8.912.671,8.531,3.969,16.895,13.106,20.835,12,5.176,16-1.788,16-1.788-11.637-1.727-13.122-18.969-16.019-24.264Z" transform="translate(-115.697 -125.082)" fill="#007051" opacity="0.4"/>
        <path id="Pfad_1497" data-name="Pfad 1497" d="M364.17,142.8c.229,10.246-4.206,14.206-9.791,14.8-5.577,2.275-12.828-.172-16.162-5.405-4-6.285-2.484-14.264,2-17.263,2.291-1.53,7.668-5.454,13.13-2.946,6.829.8,10.741,7.471,10.814,10.814Z" transform="translate(-198.461 -77.492)" fill="#fff"/>
        <path id="Pfad_1498" data-name="Pfad 1498" d="M369.138,142.809c-.07-3.134-3.507-9.194-9.562-10.6a11.094,11.094,0,0,0-1.252-.217,8.914,8.914,0,0,0-3.654-.814c.835.892,3.216,2.692,4.415,5.364,3.318,7.4,1.084,11.731-3.993,15.786-3.122,2.5-7.177,2.545-10.782,1.367a13.892,13.892,0,0,0,4.513,3.38,13.232,13.232,0,0,0,10.524.532C364.932,157.015,369.368,153.054,369.138,142.809Z" transform="translate(-203.429 -77.496)" fill="#d5dbe6" opacity="0.5"/>
        <path id="Pfad_1499" data-name="Pfad 1499" d="M293.768,251.054c.532.507,1.669-.61,1.669-.61s-.737,1.305-.295,1.6c.536.36,1.228-1.215,1.228-1.215s-.327,1.256.18,1.489,1.109-1.015,1.109-1.015,0,1.375.7,1.547.413-1.8.413-1.8.6,1.493.978,1.358c.667-.241-.155-1.927-.155-1.927s.839,1.256,1.3,1.072-.446-1.821-.446-1.821,1.461,1.678,2,1.187c.376-.344-.835-1.862-.835-1.862s1.158.917,1.674.528-.884-1.661-.884-1.661,1.571.556,1.727.012-1.211-1.469-1.211-1.469,1.477.209,1.4-.483c-.07-.646-1.628-.421-1.628-.421s1.583-.331,1.453-.957c-.111-.536-1.195-.291-1.792-.307.507-.123,1.51-.941,1.293-1.354-.27-.511-1.919.151-1.919.151s1.469-.884,1.236-1.477-1.813.561-1.813.561,1.313-1.011.777-1.514-1.665.618-1.665.618.728-1.309.286-1.6c-.54-.356-1.322,1.187-1.322,1.187s.421-1.375-.082-1.6-1.109,1.17-1.109,1.17,0-1.379-.708-1.547-.405,1.809-.405,1.809-.769-1.53-1.142-1.391c-.667.246.065,1.69.065,1.69s-1.1-1.2-1.559-1.011.483,1.731.483,1.731-1.092-1.322-1.628-.831c-.376.344.945,1.825.945,1.825s-1.162-.912-1.674-.52.892,1.657.892,1.657-1.575-.548-1.727,0,1.534,1.26,1.534,1.26-1.931-.155-1.931.536c0,.417,1.845.577,1.845.577s-1.665.258-1.768.687c-.082.344,1.739.646,1.952.589-.5.155-1.575.716-1.477,1.052.2.7,1.907.037,1.907.037s-1.256.63-1.027,1.228,1.923-.237,1.923-.237-1.318,1-.786,1.51Z" transform="translate(-172.044 -141.126)" fill="#fff"/>
        <path id="Pfad_1500" data-name="Pfad 1500" d="M311.02,240.12Z" transform="translate(-183.761 -141.861)" fill="#fff"/>
        <path id="Pfad_1501" data-name="Pfad 1501" d="M306.367,247.068c-.07-.646-1.629-.421-1.629-.421s1.583-.331,1.453-.957c-.11-.536-1.195-.29-1.792-.307.507-.123,1.51-.941,1.293-1.354-.27-.511-1.919.151-1.919.151s1.469-.884,1.236-1.477-1.813.561-1.813.561,1.313-1.011.777-1.514-1.665.618-1.665.618.728-1.309.286-1.6c-.278-.184-.622.139-.892.5a6.439,6.439,0,0,1-.446,7.611c-1.031,2.017-3.6,2.815-6.616,1.866a.415.415,0,0,0,.025.139c.229.6,1.923-.237,1.923-.237s-1.318,1-.786,1.51,1.669-.61,1.669-.61-.737,1.305-.295,1.6c.536.36,1.228-1.215,1.228-1.215s-.327,1.256.18,1.489,1.109-1.015,1.109-1.015,0,1.375.7,1.547.413-1.8.413-1.8.6,1.493.978,1.358c.667-.241-.155-1.927-.155-1.927s.839,1.256,1.3,1.072-.446-1.821-.446-1.821,1.461,1.678,2,1.187c.376-.344-.835-1.862-.835-1.862s1.158.917,1.674.528-.884-1.661-.884-1.661,1.571.556,1.727.012-1.211-1.469-1.211-1.469,1.477.209,1.4-.483Z" transform="translate(-174.083 -142.21)" fill="#b5b9c6" opacity="0.5"/>
        <path id="Pfad_1502" data-name="Pfad 1502" d="M311.37,247.363s1.964-.217,2.038.364-1.89.655-1.89.655Z" transform="translate(-183.967 -146.117)" fill="#fff"/>
        <path id="Pfad_1503" data-name="Pfad 1503" d="M310.94,245.442s1.8-.814,2.05-.282-1.6,1.207-1.6,1.207l-.454-.925Z" transform="translate(-183.713 -144.732)" fill="#fff"/>
        <path id="Pfad_1504" data-name="Pfad 1504" d="M313.009,249.62s1.948.331,1.858.912-2,.106-2,.106l.143-1.019Z" transform="translate(-184.854 -147.474)" fill="#fff"/>
        <path id="Pfad_1505" data-name="Pfad 1505" d="M312.129,251.93s1.948.331,1.858.912-2,.106-2,.106l.143-1.019Z" transform="translate(-184.334 -148.839)" fill="#fff"/>
        <path id="Pfad_1506" data-name="Pfad 1506" d="M312.248,254.024s1.837.724,1.629,1.273-1.976-.307-1.976-.307l.348-.97Z" transform="translate(-184.281 -150.074)" fill="#fff"/>
        <path id="Pfad_1507" data-name="Pfad 1507" d="M311.358,256.514s1.837.724,1.628,1.272-1.976-.307-1.976-.307l.348-.97Z" transform="translate(-183.755 -151.545)" fill="#fff"/>
        <path id="Pfad_1508" data-name="Pfad 1508" d="M309.734,258s1.4,1.4.986,1.817-1.69-1.068-1.69-1.068Z" transform="translate(-182.585 -152.425)" fill="#fff"/>
        <path id="Pfad_1509" data-name="Pfad 1509" d="M306.354,261.73s1.4,1.4.986,1.817-1.69-1.068-1.69-1.068l.7-.749Z" transform="translate(-180.588 -154.629)" fill="#fff"/>
        <path id="Pfad_1510" data-name="Pfad 1510" d="M305.4,263.38s.528,1.9-.037,2.066-.945-1.764-.945-1.764Z" transform="translate(-179.861 -155.604)" fill="#fff"/>
        <path id="Pfad_1511" data-name="Pfad 1511" d="M302.922,262.84s.528,1.9-.037,2.066-.945-1.763-.945-1.763Z" transform="translate(-178.396 -155.285)" fill="#fff"/>
        <path id="Pfad_1512" data-name="Pfad 1512" d="M301.652,263.2s-.176,1.968-.761,1.923-.266-1.984-.266-1.984Z" transform="translate(-177.567 -155.462)" fill="#fff"/>
        <path id="Pfad_1513" data-name="Pfad 1513" d="M308.663,260.24s1.084,1.649.6,1.98-1.44-1.387-1.44-1.387l.843-.589Z" transform="translate(-181.87 -153.749)" fill="#fff"/>
        <path id="Pfad_1514" data-name="Pfad 1514" d="M51.608,125.188c-.7-.217-1.223,1.285-1.223,1.285s.078-1.5-.45-1.567c-.642-.082-.561,1.633-.561,1.633s-.266-1.273-.822-1.252-.544,1.4-.544,1.4-.61-1.236-1.318-1.072.434,1.8.434,1.8-1.2-1.072-1.477-.782c-.491.516,1,1.657,1,1.657s-1.309-.753-1.645-.381,1.211,1.436,1.211,1.436-2.058-.851-2.32-.172c-.184.475,1.579,1.3,1.579,1.3s-1.444-.3-1.735.274,1.53,1.092,1.53,1.092-1.657.2-1.555.757,1.739.777,1.739.777-1.416.471-1.043,1.056c.348.548,1.645-.348,1.645-.348s-1.273,1-.876,1.506c.34.434,1.2-.27,1.743-.52-.4.336-.937,1.514-.552,1.788.471.34,1.649-.99,1.649-.99s-.925,1.444-.45,1.874,1.375-1.309,1.375-1.309-.728,1.489-.025,1.7,1.215-1.293,1.215-1.293-.07,1.5.458,1.567c.642.082.655-1.649.655-1.649s.233,1.42.79,1.4.471-1.543.471-1.543.614,1.232,1.322,1.068-.442-1.8-.442-1.8,1.371,1.027,1.641.736c.487-.516-.814-1.481-.814-1.481s1.514.585,1.849.213-1.2-1.338-1.2-1.338,1.567.7,1.829.02c.184-.475-1.657-1.211-1.657-1.211s1.444.3,1.731-.278-1.538-1.088-1.538-1.088,1.653-.209,1.551-.761-1.935-.442-1.935-.442,1.8-.72,1.493-1.338c-.184-.372-1.907.3-1.907.3s1.379-.97,1.277-1.4c-.082-.344-1.845.2-2.009.344.372-.356,1.092-1.342.855-1.6-.491-.532-1.727.814-1.727.814s.843-1.125.372-1.555-1.616,1.072-1.616,1.072.732-1.485.033-1.7Z" transform="translate(-25.823 -73.788)" fill="#fff"/>
        <path id="Pfad_1515" data-name="Pfad 1515" d="M63.59,157.16Z" transform="translate(-37.572 -92.846)" fill="#fff"/>
        <path id="Pfad_1516" data-name="Pfad 1516" d="M44.407,134.417c.348.548,1.645-.348,1.645-.348s-1.273,1-.876,1.506c.34.434,1.2-.274,1.743-.52-.4.336-.937,1.514-.552,1.788.471.34,1.649-.99,1.649-.99s-.925,1.444-.45,1.874,1.375-1.309,1.375-1.309-.728,1.489-.025,1.7,1.215-1.293,1.215-1.293-.07,1.5.458,1.567c.331.041.5-.4.577-.843a6.435,6.435,0,0,1-2.987-7.013c.025-2.267,1.972-4.124,5.1-4.615a.383.383,0,0,0-.086-.115c-.471-.43-1.616,1.072-1.616,1.072s.732-1.485.033-1.7-1.223,1.285-1.223,1.285.078-1.5-.45-1.567c-.642-.082-.561,1.633-.561,1.633s-.266-1.273-.822-1.252-.544,1.4-.544,1.4-.61-1.236-1.318-1.072.434,1.8.434,1.8-1.2-1.072-1.477-.782c-.491.516,1,1.657,1,1.657s-1.309-.753-1.645-.381,1.211,1.436,1.211,1.436-2.058-.851-2.32-.172c-.184.475,1.579,1.3,1.579,1.3s-1.444-.3-1.735.274,1.53,1.092,1.53,1.092-1.657.2-1.555.757,1.739.777,1.739.777-1.416.471-1.043,1.056Z" transform="translate(-25.823 -73.782)" fill="#b5b9c6" opacity="0.5"/>
        <path id="Pfad_1517" data-name="Pfad 1517" d="M57.106,149.557s-1.661,1.068-1.984.581,1.4-1.428,1.4-1.428l.585.847Z" transform="translate(-32.545 -87.854)" fill="#fff"/>
        <path id="Pfad_1518" data-name="Pfad 1518" d="M58.393,150.846s-1.248,1.53-1.71,1.166.892-1.792.892-1.792l.814.626Z" transform="translate(-33.435 -88.746)" fill="#fff"/>
        <path id="Pfad_1519" data-name="Pfad 1519" d="M54.4,148.218s-1.89.569-2.066.008,1.743-.986,1.743-.986l.327.974Z" transform="translate(-30.914 -86.985)" fill="#fff"/>
        <path id="Pfad_1520" data-name="Pfad 1520" d="M54.17,145.748s-1.89.569-2.066.008,1.743-.986,1.743-.986l.327.974Z" transform="translate(-30.778 -85.526)" fill="#fff"/>
        <path id="Pfad_1521" data-name="Pfad 1521" d="M52.934,144s-1.968.168-2.025-.413,1.907-.606,1.907-.606L52.934,144Z" transform="translate(-30.078 -84.468)" fill="#fff"/>
        <path id="Pfad_1522" data-name="Pfad 1522" d="M52.614,141.369s-1.968.168-2.025-.413,1.907-.606,1.907-.606l.119,1.023Z" transform="translate(-29.889 -82.914)" fill="#fff"/>
        <path id="Pfad_1523" data-name="Pfad 1523" d="M53.417,139.013s-1.87-.63-1.694-1.187,1.989.2,1.989.2l-.3.986Z" transform="translate(-30.554 -81.303)" fill="#fff"/>
        <path id="Pfad_1524" data-name="Pfad 1524" d="M54.777,134.173s-1.87-.63-1.694-1.187,1.989.2,1.989.2l-.3.986Z" transform="translate(-31.357 -78.443)" fill="#fff"/>
        <path id="Pfad_1525" data-name="Pfad 1525" d="M55.594,131.666s-1.318-1.469-.888-1.87,1.633,1.158,1.633,1.158l-.745.708Z" transform="translate(-32.272 -76.641)" fill="#fff"/>
        <path id="Pfad_1526" data-name="Pfad 1526" d="M58.064,131.036s-1.318-1.469-.888-1.87,1.633,1.158,1.633,1.158l-.745.708Z" transform="translate(-33.731 -76.268)" fill="#fff"/>
        <path id="Pfad_1527" data-name="Pfad 1527" d="M59.685,129.956s-.716-1.841-.176-2.062,1.121,1.657,1.121,1.657Z" transform="translate(-35.041 -75.544)" fill="#fff"/>
        <path id="Pfad_1528" data-name="Pfad 1528" d="M53.568,136.262s-1.706-.994-1.416-1.506,1.907.6,1.907.6Z" transform="translate(-30.794 -79.53)" fill="#fff"/>
      </g>
    </g>
  </g>
  <g id="background" transform="translate(9.51 246.499)">
    <path id="Pfad_1531" data-name="Pfad 1531" d="M21.674,4.909C11.211,4.967,8.67,4.369,0,9.242,2.6,11.37,8.257,7.859,14.088,8.7c7.525,1.088,13.241,3.359,15.172,3.253,5.921-.331,4.018-3,15.712-2.169,7.328.524,14.088,3.793,23.241,1.252-.1,2.733,5.872,3.507,7.872,1.931l.168-3.249c9.3,1.608,21.342,2.435,29.939-1.845-2.267-5.057-13.04,0-24.219-6.048C78.414-1.6,69.039.912,61.764.572,58.471.421,54.477,3.2,50.93,3.281s-10.262-1.3-14.088-.54c-6.15,1.223-9.624,2.136-15.172,2.169Z" transform="translate(0 0.001)" fill="#a1b9c6" opacity="0.6"/>
  </g>
</svg>
