<svg xmlns="http://www.w3.org/2000/svg" xmlns:xlink="http://www.w3.org/1999/xlink" width="212.89" height="284.102" viewBox="0 0 212.89 284.102">
  <defs>
    <clipPath id="clip-path">
      <rect id="Rechteck_703" data-name="Rechteck 703" width="212.89" height="270.185" fill="none"/>
    </clipPath>
    <clipPath id="clip-path-3">
      <rect id="Rechteck_690" data-name="Rechteck 690" width="44.786" height="29.362" fill="none"/>
    </clipPath>
    <clipPath id="clip-path-4">
      <rect id="Rechteck_691" data-name="Rechteck 691" width="40.211" height="77.286" fill="none"/>
    </clipPath>
    <clipPath id="clip-path-5">
      <rect id="Rechteck_692" data-name="Rechteck 692" width="43.465" height="48.436" fill="none"/>
    </clipPath>
    <clipPath id="clip-path-6">
      <rect id="Rechteck_693" data-name="Rechteck 693" width="41.501" height="19.228" fill="none"/>
    </clipPath>
    <clipPath id="clip-path-7">
      <rect id="Rechteck_694" data-name="Rechteck 694" width="76.216" height="136.985" fill="none"/>
    </clipPath>
    <clipPath id="clip-path-8">
      <rect id="Rechteck_695" data-name="Rechteck 695" width="20.677" height="16.897" fill="none"/>
    </clipPath>
    <clipPath id="clip-path-9">
      <rect id="Rechteck_696" data-name="Rechteck 696" width="11.622" height="22.105" fill="none"/>
    </clipPath>
    <clipPath id="clip-path-10">
      <rect id="Rechteck_697" data-name="Rechteck 697" width="80.948" height="66.467" fill="none"/>
    </clipPath>
    <clipPath id="clip-path-11">
      <rect id="Rechteck_698" data-name="Rechteck 698" width="76.207" height="31.321" fill="none"/>
    </clipPath>
    <clipPath id="clip-path-12">
      <rect id="Rechteck_699" data-name="Rechteck 699" width="16.328" height="22.733" fill="none"/>
    </clipPath>
    <clipPath id="clip-path-13">
      <rect id="Rechteck_700" data-name="Rechteck 700" width="21.224" height="22.735" fill="none"/>
    </clipPath>
    <clipPath id="clip-path-14">
      <rect id="Rechteck_701" data-name="Rechteck 701" width="84.621" height="37.822" fill="none"/>
    </clipPath>
  </defs>
  <g id="boyWhite" transform="translate(-858.539 -672.907)">
    <path id="Pfad_3137" data-name="Pfad 3137" d="M3081.586,831.695c-15.581-4.035,46.186-13.1,146.9,3.57C3228.129,836.694,3166.529,867.65,3081.586,831.695Z" transform="translate(-2173.427 107.997)" fill="#83b1c9" opacity="0.14"/>
    <g id="Gruppe_1648" data-name="Gruppe 1648" transform="translate(858.539 672.907)">
      <g id="Gruppe_1645" data-name="Gruppe 1645" clip-path="url(#clip-path)">
        <g id="Gruppe_1644" data-name="Gruppe 1644" transform="translate(0 0)">
          <g id="Gruppe_1643" data-name="Gruppe 1643" clip-path="url(#clip-path)">
            <path id="Pfad_3062" data-name="Pfad 3062" d="M430.043,1025.935l-1.386,10.52a1.161,1.161,0,0,0,1.322.475c4.481-2.588,6.257-8.092,9.407-12.2a11.574,11.574,0,0,0-5.523-2.921c-1.188,1.69-2.5,2.533-3.82,4.123" transform="translate(-321.686 -766.82)" fill="#648eb1"/>
            <path id="Pfad_3063" data-name="Pfad 3063" d="M323.793,408.4a175.242,175.242,0,0,0,88.868,44.231,16.408,16.408,0,0,0-5.968,14.65c.486,5.44,3.338,11.528.065,15.9-2.667,3.565-8.29,3.982-10.71,7.719-3.079,4.754,1.026,11.3-.825,16.658-2.138,6.186-10.548,7.3-14.945,12.153-3.3,3.642-3.931,8.918-6.1,13.33a20.74,20.74,0,0,1-15.747,11.221c-6.512.815-13.625-1.442-19.412,1.653-3.914,2.094-6.277,6.2-9.6,9.147s-9.009,4.444-11.879,1.058c-30.89-36.44-37.572-89-35.842-136.741,13.445-3.515,28.645-7.466,42.09-10.981" transform="translate(-211.215 -306.484)" fill="#b8756a"/>
            <g id="Gruppe_1609" data-name="Gruppe 1609" transform="translate(148.857 165.195)" opacity="0.4" style="mix-blend-mode: overlay;isolation: isolate">
              <g id="Gruppe_1608" data-name="Gruppe 1608">
                <g id="Gruppe_1607" data-name="Gruppe 1607" clip-path="url(#clip-path-3)">
                  <path id="Pfad_3064" data-name="Pfad 3064" d="M600.443,662.857a6.484,6.484,0,0,0-3.939-.829c10.849,10.637,22.573,20.891,35.392,29.308-.484-3.595-1.316-7.208.582-10.139,1.938-2.992,5.928-3.858,8.812-5.914a317.681,317.681,0,0,1-40.847-12.425" transform="translate(-596.504 -661.974)" fill="#230211"/>
                </g>
              </g>
            </g>
            <g id="Gruppe_1612" data-name="Gruppe 1612" transform="translate(100.963 168.151)" opacity="0.4" style="mix-blend-mode: overlay;isolation: isolate">
              <g id="Gruppe_1611" data-name="Gruppe 1611">
                <g id="Gruppe_1610" data-name="Gruppe 1610" clip-path="url(#clip-path-4)">
                  <path id="Pfad_3065" data-name="Pfad 3065" d="M406.656,676.724c-.415-1.037-.622-2.488-2.073-2.9a224.524,224.524,0,0,0,19.9,76.506l.368.78c2-2.268,3.93-4.593,6.568-6,4.03-2.156,8.7-1.716,13.37-1.525-.816-1.187-1.636-2.395-2.476-3.617-13.891-21.148-24.258-41.26-35.661-63.237" transform="translate(-404.583 -673.821)" fill="#230211"/>
                </g>
              </g>
            </g>
            <g id="Gruppe_1615" data-name="Gruppe 1615" transform="translate(129.575 176.652)" opacity="0.4" style="mix-blend-mode: overlay;isolation: isolate">
              <g id="Gruppe_1614" data-name="Gruppe 1614">
                <g id="Gruppe_1613" data-name="Gruppe 1613" clip-path="url(#clip-path-5)">
                  <path id="Pfad_3066" data-name="Pfad 3066" d="M554.069,735.253c-2.073-1.451-4.147-2.281-6.22-3.939-2.9-2.281-5.6-4.146-8.5-6.635-7.049-5.6-13.477-10.989-20.112-16.794,6.842,14.513,15.135,28.4,26.124,40.637,2.547,2.756,5.2,5.34,7.922,7.8,1.678-4.072,2.5-8.615,5.441-11.86a17.719,17.719,0,0,1,3.977-3.128q-4.4-2.79-8.633-6.08" transform="translate(-519.237 -707.885)" fill="#230211"/>
                </g>
              </g>
            </g>
            <g id="Gruppe_1618" data-name="Gruppe 1618" transform="translate(155.492 144.93)" opacity="0.4" style="mix-blend-mode: overlay;isolation: isolate">
              <g id="Gruppe_1617" data-name="Gruppe 1617">
                <g id="Gruppe_1616" data-name="Gruppe 1616" clip-path="url(#clip-path-6)">
                  <path id="Pfad_3067" data-name="Pfad 3067" d="M664.592,587.591c-14.077-.938-28.115-1.885-41.5-6.823a64.105,64.105,0,0,0,9.123,4.976c9.745,4.561,19.075,9.122,28.819,13.269q1.272.529,2.559.982a33,33,0,0,1-.516-3.361,17.392,17.392,0,0,1,1.516-9.043" transform="translate(-623.091 -580.768)" fill="#230211"/>
                </g>
              </g>
            </g>
            <g id="Gruppe_1621" data-name="Gruppe 1621" transform="translate(70.236 101.916)" opacity="0.2" style="mix-blend-mode: overlay;isolation: isolate">
              <g id="Gruppe_1620" data-name="Gruppe 1620">
                <g id="Gruppe_1619" data-name="Gruppe 1619" clip-path="url(#clip-path-7)">
                  <path id="Pfad_3068" data-name="Pfad 3068" d="M342.45,534.555c3.525,0,7.049-1.244,9.123-4.561,3.317-5.391,4.976-11.4,2.281-17.209-3.317-7.257-7.257-13.891-9.745-21.356-4.147-11.611-2.7-23.843,1.037-35.454a69.059,69.059,0,0,1,12.522-22.922A173.771,173.771,0,0,1,323.793,408.4c-13.445,3.515-28.645,7.466-42.09,10.981-1.566,43.232,3.766,90.417,27.727,126,.217-.3.441-.59.676-.878,8.086-9.537,20.941-9.745,32.344-9.952" transform="translate(-281.451 -408.4)" fill="#230211"/>
                </g>
              </g>
            </g>
            <path id="Pfad_3069" data-name="Pfad 3069" d="M606.028,794.422l9.293,5.121c.438-.055.99-.622.924-1.058-.779-5.115-5.258-8.774-7.935-13.2a11.568,11.568,0,0,0-4.732,4.08c1.142,1.722,1.449,3.251,2.45,5.059" transform="translate(-452.955 -589.316)" fill="#648eb1"/>
            <path id="Pfad_3070" data-name="Pfad 3070" d="M556.391,356.324a9.287,9.287,0,0,1,6.737-5.481,14.019,14.019,0,0,1,8.807,1.233,29.291,29.291,0,0,1,7.341,5.235c1.583,1.463,3.53,3.131,5.613,2.579-3.45,5.011-9.3,8.169-15.346,7.511s-10.86-5.442-13.152-11.078" transform="translate(-417.544 -263.096)" fill="#88aed8"/>
            <path id="Pfad_3071" data-name="Pfad 3071" d="M576.756,377.12a61.69,61.69,0,0,1-8.288-3.386,56.306,56.306,0,0,1-6.066-3.639c3.2.868,6.458,1.506,9.638,2.481.438.134.6-.517.186-.676a48.236,48.236,0,0,0-9.937-2.955.58.58,0,0,0-.672.627l-.536-.359c-.532-.356-1.192.479-.692.9a38.2,38.2,0,0,0,16.184,7.671.343.343,0,0,0,.182-.661" transform="translate(-420.411 -276.87)" fill="#6494bf"/>
            <g id="Gruppe_1624" data-name="Gruppe 1624" transform="translate(138.847 87.495)" opacity="0.2" style="mix-blend-mode: overlay;isolation: isolate">
              <g id="Gruppe_1623" data-name="Gruppe 1623">
                <g id="Gruppe_1622" data-name="Gruppe 1622" clip-path="url(#clip-path-8)">
                  <path id="Pfad_3072" data-name="Pfad 3072" d="M565.962,355.475a17.025,17.025,0,0,1-.734-4.859,11.428,11.428,0,0,0-2.1.253,9.287,9.287,0,0,0-6.737,5.481c2.292,5.636,7.1,10.42,13.152,11.077a15.3,15.3,0,0,0,7.525-1.117,14.8,14.8,0,0,1-2.335-1.088c-3.9-2.193-7.31-5.36-8.771-9.746" transform="translate(-556.391 -350.615)" fill="#230211"/>
                </g>
              </g>
            </g>
            <path id="Pfad_3073" data-name="Pfad 3073" d="M546.561,381.832a9.287,9.287,0,0,1,8.675.414,14.018,14.018,0,0,1,5.737,6.8,29.291,29.291,0,0,1,1.974,8.8c.2,2.146.539,4.688,2.459,5.667-5.914,1.43-12.376-.121-16.441-4.647s-4.457-11.3-2.4-17.027" transform="translate(-409.255 -285.88)" fill="#88aed8"/>
            <path id="Pfad_3074" data-name="Pfad 3074" d="M561.053,401.933a61.676,61.676,0,0,1-3.913-8.052,56.25,56.25,0,0,1-2.09-6.759c1.806,2.783,3.8,5.432,5.522,8.28.237.393.791.015.589-.379a48.213,48.213,0,0,0-5.428-8.832.58.58,0,0,0-.919.018l-.16-.625c-.159-.62-1.207-.439-1.114.206a38.2,38.2,0,0,0,6.935,16.513.343.343,0,0,0,.577-.371" transform="translate(-415.401 -289.076)" fill="#6494bf"/>
            <g id="Gruppe_1627" data-name="Gruppe 1627" transform="translate(136.091 95.064)" opacity="0.2" style="mix-blend-mode: overlay;isolation: isolate">
              <g id="Gruppe_1626" data-name="Gruppe 1626">
                <g id="Gruppe_1625" data-name="Gruppe 1625" clip-path="url(#clip-path-9)">
                  <path id="Pfad_3075" data-name="Pfad 3075" d="M554.272,387.568a17.012,17.012,0,0,1,2.7-4.109,11.427,11.427,0,0,0-1.733-1.213,9.286,9.286,0,0,0-8.675-.414c-2.054,5.727-1.663,12.5,2.4,17.027a15.307,15.307,0,0,0,6.35,4.19,14.826,14.826,0,0,1-1.013-2.369c-1.44-4.235-1.867-8.87-.029-13.112" transform="translate(-545.346 -380.944)" fill="#230211"/>
                </g>
              </g>
            </g>
            <path id="Pfad_3076" data-name="Pfad 3076" d="M604.894,328.184c1.386.929,3.239.487,4.834-.006a40.88,40.88,0,0,0,8.845-3.587c.51-.3,1.08-.873.787-1.387a.954.954,0,0,0-.942-.406,30.194,30.194,0,0,0-3.244.743c-.171-.152-.238-.176-.146-.386a19.108,19.108,0,0,0,4.359-3.319,1.388,1.388,0,0,0,.421-1.482,1.664,1.664,0,0,0-1.787-.539,13.949,13.949,0,0,0-4.318,2.1c-.148-.27-.245-.149-.394-.419a21.917,21.917,0,0,0,3.071-5.211,2.817,2.817,0,0,0,.282-1.114,1.045,1.045,0,0,0-.549-.949,2.452,2.452,0,0,0-2.1.5,27.169,27.169,0,0,0-3.723,4.224c-.341-.262-.281-.121-.621-.383a35.274,35.274,0,0,0,1.324-3.915,2.693,2.693,0,0,0,.136-.909.856.856,0,0,0-1.347-.727,2.669,2.669,0,0,0-.7.634,32.482,32.482,0,0,0-3.924,5.555,8.239,8.239,0,0,0-1.531-3.531,1.431,1.431,0,0,0-1.08-.707,1.072,1.072,0,0,0-.908.88,3.689,3.689,0,0,0,.049,1.351,13.885,13.885,0,0,1-.126,4.689,15.283,15.283,0,0,0-.4,2.28,2.971,2.971,0,0,0,.659,2.16c-.051-.046.08-.022.029-.068.895,1.611,1.515,2.91,3.046,3.936" transform="translate(-451.137 -233.289)" fill="#ffc294"/>
            <path id="Pfad_3077" data-name="Pfad 3077" d="M380.269,975.61c1.089-1.105,4.8-4.27,4.8-4.27a158.481,158.481,0,0,1-7.648-17.108,47,47,0,0,0-15.112,4.145,129.6,129.6,0,0,0,17.96,17.234" transform="translate(-271.895 -716.103)" fill="#88aed8"/>
            <path id="Pfad_3078" data-name="Pfad 3078" d="M291.567,494.611A295.3,295.3,0,0,1,276.311,446.9q-2.977-.413-5.926-.866a146.336,146.336,0,0,1-22.4,17.642c-.415.415-1.451,1.866-2.073.83-4.5-8.152-7.28-16.686-9.639-25.342l-.638-.16-2.43-1.833a137.717,137.717,0,0,0-1.153,82.43l.037.127q.842,2.787,1.809,5.535l58.742-28.115q-.543-1.263-1.073-2.532" transform="translate(-169.828 -328.073)" fill="#648eb1"/>
            <path id="Pfad_3079" data-name="Pfad 3079" d="M277.969,469.667a146.334,146.334,0,0,0,22.4-17.642c-11.513-1.765-22.752-4-34.113-6.871,2.359,8.656,5.141,17.189,9.639,25.342.622,1.037,1.658-.414,2.073-.829" transform="translate(-199.812 -334.066)" fill="#f4a178"/>
            <path id="Pfad_3080" data-name="Pfad 3080" d="M329.844,708.91c-.371,1.2-.693,2.426-.987,3.659-.518,2.154-.956,4.344-1.424,6.516-.61,2.938-1.128,5.859-1.485,8.77a7.981,7.981,0,0,1-4.209-1.153,139.36,139.36,0,0,1-20.673-14.812h0a38.062,38.062,0,0,0-10.267,7.4c.021.108.039.216.06.323A168.6,168.6,0,0,0,298.2,746.56a46.943,46.943,0,0,0-15.113,4.145,138.11,138.11,0,0,1-25.4-42.472c-.325-.869-.636-1.742-.943-2.617L315.486,677.5q.616,1.437,1.248,2.863c3.929,8.862,7.377,18.42,11.523,26.52.041.081.083.16.125.234a6.606,6.606,0,0,0,.719,1.076.065.065,0,0,0,.01.012,4.233,4.233,0,0,0,.732.7" transform="translate(-192.674 -508.431)" fill="#648eb1"/>
            <path id="Pfad_3081" data-name="Pfad 3081" d="M555.081,804.754A126.555,126.555,0,0,1,538.231,817.2a7.849,7.849,0,0,1-4.172,1.246c.357-2.911.875-5.832,1.484-8.77.469-2.173.906-4.362,1.424-6.516.295-1.234.616-2.457.987-3.659a3.582,3.582,0,0,0,.493.309c1.2.628,2.679.555,4.646.247,3.649-.57,6.324-1.417,8.97-1.84.939,1.928,2.078,4.609,3.017,6.538" transform="translate(-400.785 -599.022)" fill="#88aed8"/>
            <path id="Pfad_3082" data-name="Pfad 3082" d="M414.767,484.8c.125-.035.25-.074.375-.109-.069-.325-.139-.652-.208-.976-.022.321-.3.952-.167,1.086" transform="translate(-311.235 -363.001)" fill="#88aed8"/>
            <path id="Pfad_3083" data-name="Pfad 3083" d="M415.407,483.054c.012.054.023.109.035.164a.213.213,0,0,0-.035-.164" transform="translate(-311.742 -362.508)" fill="#88aed8"/>
            <path id="Pfad_3084" data-name="Pfad 3084" d="M553.051,385.339a110.146,110.146,0,0,0,12.492-21.923c-2.715-2-5.411-4.05-8.126-6.053A91.579,91.579,0,0,1,542.87,372.9a53.191,53.191,0,0,0,10.181,12.441" transform="translate(-407.397 -268.184)" fill="#648eb1"/>
            <path id="Pfad_3085" data-name="Pfad 3085" d="M480.845,419.615A86.853,86.853,0,0,1,460.219,432.6a100.777,100.777,0,0,0,11.135,20.19,112.753,112.753,0,0,0,19.671-20.737,53.187,53.187,0,0,1-10.181-12.441" transform="translate(-345.371 -314.901)" fill="#88aed8"/>
            <path id="Pfad_3086" data-name="Pfad 3086" d="M438.455,491.851a110.041,110.041,0,0,1-10.7,7.717q-.6.382-1.207.752-1.819,1.123-3.684,2.171c-2.432-8.768-4.6-17.92-6.488-26.846a82.779,82.779,0,0,0,10.941-3.983,100.686,100.686,0,0,0,11.134,20.188" transform="translate(-312.472 -353.96)" fill="#648eb1"/>
            <path id="Pfad_3087" data-name="Pfad 3087" d="M56.2,258.607c-1.568.571-3.262-.3-4.692-1.16a40.867,40.867,0,0,1-7.732-5.6c-.423-.415-.84-1.105-.432-1.535a.954.954,0,0,1,1.012-.169,30.228,30.228,0,0,1,2.973,1.5c.2-.107.273-.115.234-.34a19.11,19.11,0,0,1-3.44-4.265,1.389,1.389,0,0,1-.055-1.539,1.665,1.665,0,0,1,1.864-.1,13.951,13.951,0,0,1,3.692,3.067c.209-.227.273-.086.482-.312a21.927,21.927,0,0,1-1.738-5.794,2.812,2.812,0,0,1-.007-1.149,1.045,1.045,0,0,1,.76-.79,2.451,2.451,0,0,1,1.918.982,27.154,27.154,0,0,1,2.607,4.991c.394-.173.3-.05.695-.224a35.287,35.287,0,0,1-.35-4.118,2.684,2.684,0,0,1,.085-.916.856.856,0,0,1,1.481-.384,2.667,2.667,0,0,1,.53.783,32.492,32.492,0,0,1,2.483,6.332,8.239,8.239,0,0,1,2.33-3.063,1.43,1.43,0,0,1,1.218-.429,1.071,1.071,0,0,1,.672,1.072,3.685,3.685,0,0,1-.37,1.3,13.884,13.884,0,0,0-1,4.583,15.3,15.3,0,0,1-.155,2.31,2.972,2.972,0,0,1-1.156,1.94c.06-.033-.072-.04-.012-.073-1.254,1.351-2.166,2.464-3.9,3.095" transform="translate(-32.401 -180.418)" fill="#ffc294"/>
            <path id="Pfad_3088" data-name="Pfad 3088" d="M264.03,462.776c-.113-.064-.225-.131-.338-.2.144-.3.291-.6.435-.9-.056.317.065,1-.1,1.094" transform="translate(-197.888 -346.47)" fill="#88aed8"/>
            <path id="Pfad_3089" data-name="Pfad 3089" d="M265.506,461.078l-.073.15a.213.213,0,0,1,.073-.15" transform="translate(-199.194 -346.017)" fill="#88aed8"/>
            <path id="Pfad_3090" data-name="Pfad 3090" d="M84.852,322.862a110.136,110.136,0,0,1-6.893-24.272c3.115-1.3,6.222-2.641,9.337-3.936a91.572,91.572,0,0,0,10.415,18.56,53.194,53.194,0,0,1-12.858,9.648" transform="translate(-58.504 -221.123)" fill="#648eb1"/>
            <path id="Pfad_3091" data-name="Pfad 3091" d="M118.44,369.028a86.846,86.846,0,0,0,16.926,17.539,100.76,100.76,0,0,1-15.636,16.945,112.766,112.766,0,0,1-14.148-24.836,53.183,53.183,0,0,0,12.858-9.648" transform="translate(-79.234 -276.938)" fill="#88aed8"/>
            <path id="Pfad_3092" data-name="Pfad 3092" d="M187.586,445.791c-3.964,8.217-3.158,22.425-7.613,30.36-.462-.433-.975-.933-1.522-1.483-.415-.413-.85-.856-1.3-1.325-4.893-5.063-11.752-12.946-14.87-17.088a100.848,100.848,0,0,0,15.635-16.945,82.66,82.66,0,0,0,9.672,6.481" transform="translate(-121.782 -329.681)" fill="#648eb1"/>
            <path id="Pfad_3093" data-name="Pfad 3093" d="M287.439,566.593a2.633,2.633,0,0,0-2.018-.791,50.4,50.4,0,0,0-6.959.443,92.12,92.12,0,0,0-13.726,2.484,94.748,94.748,0,0,0-14.786,5.183.947.947,0,0,0-.555,1.106.277.277,0,0,0,.035.271,56.472,56.472,0,0,0,5.713,6.431c2.067,2.1,4.2,4.15,6.4,6.109A118.844,118.844,0,0,0,275.5,598.6a.879.879,0,0,0,1.333-.334q5.7-14.4,10.593-29.1c.282-.844.646-1.784.011-2.567m-2.032,2.788q-2.2,6.632-4.556,13.21-2.525,7.042-5.233,14.016a119.928,119.928,0,0,1-12.924-9.93q-3.25-2.85-6.387-5.824c-1.815-1.726-3.593-3.533-5.5-5.166a93.1,93.1,0,0,1,24.617-7.138q3.091-.448,6.208-.685,1.557-.119,3.117-.184c.148-.006,1.1-.134,1.227.086a11.342,11.342,0,0,1-.568,1.616" transform="translate(-187.139 -424.596)" fill="#88aed8"/>
            <path id="Pfad_3094" data-name="Pfad 3094" d="M321.472,602.026c-2.528-2.556-6.507-1.468-9.623-2.435-1.642-.51-3.524-2.282-2.348-4.115,1.029-1.6,3.277-1.692,4.977-1.722.374-.007.371-.616,0-.655-2.448-.261-5.726-.087-6.563,2.778-.8,2.734,1.942,4.751,4.256,5.295,1.614.379,3.292.34,4.923.612,1.306.218,3.443.73,3.755,2.3.587,2.967-5.84,5.087-6.579,1.723-.238-1.082-1.965-.872-1.723.222,1.586,7.152,13.661.788,8.92-4.005" transform="translate(-230.972 -445.027)" fill="#88aed8"/>
            <path id="Pfad_3095" data-name="Pfad 3095" d="M233.033,428.359a67.862,67.862,0,0,0,16.05,29.284c13.329-.789,26.827-6.723,36.006-16.419-4.028-.809-7.519-1.96-11.627-1.939-6.889,5.9-14.653,10.289-22.751,14.377a88.481,88.481,0,0,1-7.266-22.149,100.666,100.666,0,0,0-10.411-3.153" transform="translate(-174.88 -321.463)" fill="#f25c68"/>
            <path id="Pfad_3096" data-name="Pfad 3096" d="M305.324,526.356a6.977,6.977,0,0,1-5.258,3.935c-2.719.554-5.449-.287-7.952-1.312-4.792-1.961-10.083-5.047-15.283-2.8a3.85,3.85,0,0,0,.047-.642.689.689,0,0,0-.093-.342,10.9,10.9,0,0,1,5.906-1.766c2.938.013,5.659,1.325,8.342,2.366,4.083,1.583,10.119,2.737,12.844-1.806.433-.722-.634-1.3-1.107-.647-3.569,4.951-10.2,1.63-14.628.083a14.287,14.287,0,0,0-7.419-.875,10.824,10.824,0,0,0-4.123,1.735c.09-.625.19-1.249.308-1.871.106-.556-.5-1.2-1.055-.811a5,5,0,0,0-1.523,2.695c-.1.285-.212.57-.319.855a16.678,16.678,0,0,1,.945-2.924c.119-.293-.332-.542-.531-.309a7.222,7.222,0,0,0-1.559,3.522,6.26,6.26,0,0,0-4.65,1.856,12.434,12.434,0,0,0-2.021,2.526c-.489.779-1.158,1.747-.909,2.723a1.463,1.463,0,0,0,1.628,1.145,5.672,5.672,0,0,0,2.366-1.577,19.379,19.379,0,0,0,3.468-4.078c.014.21.031.419.054.626a.74.74,0,0,0,.8.622,14.127,14.127,0,0,0,1.22,1.911c.829,1.077,2.208,2.565,3.671,2.669a1.283,1.283,0,0,0,1.339-.69c.311-.708-.207-1.459-.544-2.059a15.217,15.217,0,0,0-2.834-3.689q.11-.25.2-.506a.351.351,0,0,0,.055-.018c6.275-2.722,12.36,2.667,18.129,4.327,4.212,1.212,10.393.422,11.767-4.525.234-.843-.96-1.115-1.274-.351m-35.514,3.431a18.955,18.955,0,0,1-1.432,1.43q-.376.338-.772.654a7.1,7.1,0,0,1-.7.51q-.646-.106-.341-.581a5.54,5.54,0,0,1,1.158-2.074,9.784,9.784,0,0,1,1.467-1.688,6.5,6.5,0,0,1,2.928-1.517,18.009,18.009,0,0,1-2.312,3.264m7.477,1.05c.338.489.636,1,.95,1.5l-.132-.06c-.239-.176-.52-.3-.761-.477a10.317,10.317,0,0,1-2.939-3.859q.08-.2.157-.395a.667.667,0,0,0,.094.151l.071.081a.683.683,0,0,0,.547.623,25.536,25.536,0,0,1,2.013,2.438" transform="translate(-199.042 -391.351)" fill="#b8756a"/>
            <path id="Pfad_3097" data-name="Pfad 3097" d="M253.262,703.584q.855,2.606,1.812,5.177a105.71,105.71,0,0,1,33.169,11.379c-.021-.108-.039-.216-.06-.323a38.066,38.066,0,0,1,10.267-7.4c.021.019.039.035.06.052a120.852,120.852,0,0,1,15.61-31.579q-.595-1.341-1.174-2.687A434.662,434.662,0,0,0,256.192,702.2c-.969.485-1.948.94-2.93,1.385" transform="translate(-190.061 -508.961)" fill="#88aed8"/>
            <path id="Pfad_3098" data-name="Pfad 3098" d="M249.342,692.344l.037.126c.3.995.617,1.985.941,2.973.982-.444,1.961-.9,2.93-1.385a434.642,434.642,0,0,1,56.755-23.993q-.581-1.35-1.148-2.708a202.444,202.444,0,0,0-59.515,24.986" transform="translate(-187.119 -500.819)" fill="#1d4d82"/>
            <path id="Pfad_3099" data-name="Pfad 3099" d="M493.945,400.709c2.533-4.952,4.755-9.009,8.955-12.656,3.224-2.8,8.63-2.308,11.582.777a10.28,10.28,0,0,1,1.215,11.889,12.544,12.544,0,0,1-10.676,5.983,16.18,16.18,0,0,1-11.432-4.98Z" transform="translate(-370.415 -289.832)" fill="#ffc294"/>
            <path id="Pfad_3100" data-name="Pfad 3100" d="M522.49,420.805c1.165.8,2.2,1.968,2.119,3.289-.093,1.47-1.524,2.576-2.98,3.226a13.609,13.609,0,0,1-9.4.548c-1.72-.533-3.025-1.584-2.968-3.342a7.212,7.212,0,0,1,1.325-3.6c1.332-1.909,3.8-2.068,6.076-1.972a11.211,11.211,0,0,1,5.826,1.851" transform="translate(-382.175 -314.389)" fill="#f4a178"/>
            <path id="Pfad_3101" data-name="Pfad 3101" d="M170.1,254.944c1.678-5.3,2.949-9.751,2.523-15.3-.327-4.258-4.518-7.706-8.786-7.587a10.28,10.28,0,0,0-9.219,7.6,12.545,12.545,0,0,0,3.39,11.759,16.181,16.181,0,0,0,11.633,4.491Z" transform="translate(-115.764 -174.148)" fill="#ffc294"/>
            <path id="Pfad_3102" data-name="Pfad 3102" d="M169.017,263.437c-1.388-.252-2.95-.148-3.819.851-.967,1.111-.726,2.9-.147,4.389a13.61,13.61,0,0,0,6.3,6.994c1.6.83,3.266,1,4.461-.292a7.21,7.21,0,0,0,1.587-3.492c.394-2.294-1.251-4.142-2.937-5.673a11.212,11.212,0,0,0-5.445-2.777" transform="translate(-123.482 -197.609)" fill="#f4a178"/>
            <path id="Pfad_3103" data-name="Pfad 3103" d="M290.7,168.676c-4.769,9.587-9.749,19.216-16.817,27.256s-16.528,14.459-27.146,15.834c-8.192,1.059-16.5-.917-24.238-3.792-6.056-2.248-12.013-5.125-16.674-9.6-7.238-6.945-10.528-17.136-10.493-27.256a46.324,46.324,0,0,1,.545-6.919,61.193,61.193,0,0,1,4.219-14.46,107.434,107.434,0,0,1,10.792-19.01,38.754,38.754,0,0,1,29.052-16.541c11.53-.694,22.983,3.732,32.211,10.678A50.754,50.754,0,0,1,288.084,144c3.479,7.632,6.346,17.169,2.612,24.677" transform="translate(-146.585 -85.642)" fill="#ffc294"/>
            <path id="Pfad_3104" data-name="Pfad 3104" d="M245.553,406.23a25.6,25.6,0,0,0,7.632,9.76,28.631,28.631,0,0,0,17.25,5.939,24.752,24.752,0,0,0,14.3-4.406c-10.418-8.705-25.371-11.369-39.178-11.292" transform="translate(-184.275 -304.855)" fill="#f25c68"/>
            <path id="Pfad_3105" data-name="Pfad 3105" d="M285.774,358.033a5.944,5.944,0,0,0-2.261-3.958,11.606,11.606,0,0,0-3.884-1.961,25.479,25.479,0,0,1-18.956,4.073c-8.247-1.347-12.805-8.295-15.671-15.41a12.424,12.424,0,0,0-1.887-.147c-5.961,0-5.563,8.457-4.582,12.507a22.4,22.4,0,0,0,.743,2.443c.176.479.371.953.579,1.422,13.807-.077,28.76,2.587,39.178,11.292a19.128,19.128,0,0,0,5.5-5.946,7.519,7.519,0,0,0,1.245-4.315" transform="translate(-178.577 -255.626)" fill="#b8756a"/>
            <path id="Pfad_3106" data-name="Pfad 3106" d="M293.853,356.118c4.019,2.621,8.626,1.266,12.83-.094-4.254-.486-8.508-.912-12.343-2.734-3.036-1.442-5.625-3.682-8.575-5.292a26.818,26.818,0,0,0,8.088,8.12" transform="translate(-214.452 -261.156)" fill="#dbd5d1"/>
            <path id="Pfad_3107" data-name="Pfad 3107" d="M300.518,352.463a47.812,47.812,0,0,0-8.531-1.526c-4.2,1.36-8.812,2.714-12.83.093a26.817,26.817,0,0,1-8.088-8.12l-.122-.068a14.865,14.865,0,0,0-4.765-1.624c2.866,7.115,7.424,14.064,15.671,15.41a25.478,25.478,0,0,0,18.956-4.073c-.1-.031-.193-.063-.29-.092" transform="translate(-199.756 -256.068)" fill="#fff"/>
            <g id="Gruppe_1630" data-name="Gruppe 1630" transform="translate(64.919 28.479)" opacity="0.2" style="mix-blend-mode: overlay;isolation: isolate">
              <g id="Gruppe_1629" data-name="Gruppe 1629">
                <g id="Gruppe_1628" data-name="Gruppe 1628" clip-path="url(#clip-path-10)">
                  <path id="Pfad_3108" data-name="Pfad 3108" d="M336.725,144A50.785,50.785,0,0,0,320.79,124.87c-9.23-6.944-20.682-11.371-32.212-10.676a38.748,38.748,0,0,0-28.434,15.672c18.5,9.766,39.334,15.561,60.3,13.213-.207,10.159,1.451,20.526,6.22,29.441a27.15,27.15,0,0,0,6.449,8.069c2.2-3.9,4.23-7.908,6.221-11.911,3.735-7.509.868-17.047-2.612-24.677" transform="translate(-260.144 -114.123)" fill="#230211"/>
                </g>
              </g>
            </g>
            <path id="Pfad_3109" data-name="Pfad 3109" d="M293.63,97.48a75.812,75.812,0,0,1-6.774-46.2c-3.689,1.514-16.7,1.675-20.591.8-15.008-3.362-25.727-6.829-35.234-14.194a51.443,51.443,0,0,0-21.086,24.222,48.774,48.774,0,0,1-.872-28.4,48.263,48.263,0,0,1,15.484-23.642c-.177-.042.553-.542.376-.584l.563,5.066A27.475,27.475,0,0,1,236.619,0a21.821,21.821,0,0,0,4.572,14.818,21.742,21.742,0,0,1,1.972-9.793c3.392,5.035,8.656,8.542,14.191,11.036s11.423,4.093,17.14,6.136,11.378,4.6,15.872,8.684,7.716,9.9,7.5,15.968a23.146,23.146,0,0,1,10.9,15.728,32.543,32.543,0,0,1-2.824,19.566c-2.824,6.073-7.374,10.816-12.317,15.335" transform="translate(-155.615 -0.002)" fill="#f27b5f"/>
            <path id="Pfad_3110" data-name="Pfad 3110" d="M395.02,68.529c-12.194-.014-22.279-8.015-28.882-17.676-1.879-2.749-3.45-5.672-5.228-8.481-.213-.336-.828-.125-.675.285a49.872,49.872,0,0,0,9.8,15.531A37.335,37.335,0,0,0,384.9,68.4,27.272,27.272,0,0,0,395.02,70.02a.746.746,0,0,0,0-1.49" transform="translate(-270.32 -31.673)" fill="#dd624a"/>
            <path id="Pfad_3111" data-name="Pfad 3111" d="M333.96,60.166a41.657,41.657,0,0,1-20.715-20.331,52.451,52.451,0,0,1-3.13-9.426c-.084-.33-.648-.273-.611.083a35.632,35.632,0,0,0,5.473,14.694,41.576,41.576,0,0,0,10.734,11.577,38.327,38.327,0,0,0,7.835,4.386c.557.233.97-.735.414-.983" transform="translate(-232.266 -22.657)" fill="#dd624a"/>
            <path id="Pfad_3112" data-name="Pfad 3112" d="M244.449,67.242a52.908,52.908,0,0,0-6.414,29.194c.054.709,1.161.719,1.114,0a54.821,54.821,0,0,1,5.9-28.841c.207-.4-.388-.75-.6-.353" transform="translate(-178.526 -50.331)" fill="#dd624a"/>
            <path id="Pfad_3113" data-name="Pfad 3113" d="M298.952,77.431a21.664,21.664,0,0,1-5.619-19.2c.087-.421-.544-.6-.65-.179a21.507,21.507,0,0,0,5.49,20.155c.5.506,1.273-.27.779-.779" transform="translate(-219.175 -43.387)" fill="#dd624a"/>
            <path id="Pfad_3114" data-name="Pfad 3114" d="M277.536,184.979a2.843,2.843,0,0,0-1.845,1.548,2.026,2.026,0,0,0,.56,1.933,4.731,4.731,0,0,0,1.8,1.064,14.612,14.612,0,0,0,7.332.847c1.733-.27,6.233-1.378,5-3.955a2.442,2.442,0,0,0-.932-.95c-2.412-1.547-5.969-1.759-8.721-1.342a14.842,14.842,0,0,0-3.2.856" transform="translate(-206.84 -138.036)" fill="#dd624a"/>
            <path id="Pfad_3115" data-name="Pfad 3115" d="M484.712,246.853a2.844,2.844,0,0,1-.4,2.375,2.026,2.026,0,0,1-1.95.5,4.729,4.729,0,0,1-1.831-1.014,14.615,14.615,0,0,1-4.448-5.89c-.646-1.631-1.973-6.071.871-6.319a2.447,2.447,0,0,1,1.291.322c2.557,1.294,4.543,4.252,5.58,6.836a14.84,14.84,0,0,1,.886,3.192" transform="translate(-356.618 -177.48)" fill="#dd624a"/>
            <g id="Gruppe_1633" data-name="Gruppe 1633" transform="translate(49.753 95.094)" opacity="0.2" style="mix-blend-mode: overlay;isolation: isolate">
              <g id="Gruppe_1632" data-name="Gruppe 1632">
                <g id="Gruppe_1631" data-name="Gruppe 1631" clip-path="url(#clip-path-11)">
                  <path id="Pfad_3116" data-name="Pfad 3116" d="M215.751,397.933a59.218,59.218,0,0,1-16.378-16.87,34.388,34.388,0,0,0,9.485,17.642c4.66,4.472,10.618,7.351,16.672,9.6,7.743,2.874,16.046,4.851,24.237,3.791,9.964-1.29,18.907-7.02,25.813-14.366-18.374,10.653-40.466,13.252-59.829.206" transform="translate(-199.373 -381.063)" fill="#230211"/>
                </g>
              </g>
            </g>
            <g id="Gruppe_1636" data-name="Gruppe 1636" transform="translate(48.744 64.101)" opacity="0.2">
              <g id="Gruppe_1635" data-name="Gruppe 1635">
                <g id="Gruppe_1634" data-name="Gruppe 1634" clip-path="url(#clip-path-12)">
                  <path id="Pfad_3117" data-name="Pfad 3117" d="M200.394,279.592a8.4,8.4,0,0,1-5.065-1.346,46.325,46.325,0,0,1,.545-6.919,61.19,61.19,0,0,1,4.219-14.459c4.31.021,8.48,1.974,10.529,6.027,3.547,7.018-2.554,16.371-10.228,16.7" transform="translate(-195.329 -256.868)" fill="#f25c68"/>
                </g>
              </g>
            </g>
            <g id="Gruppe_1639" data-name="Gruppe 1639" transform="translate(107.213 91.255)" opacity="0.2">
              <g id="Gruppe_1638" data-name="Gruppe 1638">
                <g id="Gruppe_1637" data-name="Gruppe 1637" clip-path="url(#clip-path-13)">
                  <path id="Pfad_3118" data-name="Pfad 3118" d="M430.3,381.018c1.293,4.211,4.441,7.593,9.292,7.387,7.674-.326,13.774-9.678,10.228-16.7-2.366-4.682-7.559-6.561-12.53-5.9-6.743.894-8.908,8.966-6.99,15.212" transform="translate(-429.627 -365.679)" fill="#f25c68"/>
                </g>
              </g>
            </g>
            <path id="Pfad_3119" data-name="Pfad 3119" d="M277.238,254.442c-2.211-.322-4.012,2.213-4.566,4.045-.1.336.379.652.617.359.853-1.046,1.549-2.365,2.85-2.926a1.139,1.139,0,0,1,1.747.945,6.966,6.966,0,0,1-.477,2.352.69.69,0,0,0,1.255.529c1-1.672,1.063-4.941-1.427-5.3" transform="translate(-204.617 -190.926)" fill="#470621"/>
            <path id="Pfad_3120" data-name="Pfad 3120" d="M423.606,312.565c-2.211-.322-4.012,2.213-4.566,4.045-.1.336.379.652.617.359.853-1.046,1.549-2.365,2.85-2.926a1.139,1.139,0,0,1,1.748.945,6.958,6.958,0,0,1-.477,2.352.69.69,0,0,0,1.255.529c1-1.672,1.063-4.941-1.427-5.3" transform="translate(-314.458 -234.544)" fill="#470621"/>
            <g id="Gruppe_1642" data-name="Gruppe 1642" transform="translate(52.585 63.979)" opacity="0.3" style="mix-blend-mode: overlay;isolation: isolate">
              <g id="Gruppe_1641" data-name="Gruppe 1641">
                <g id="Gruppe_1640" data-name="Gruppe 1640" clip-path="url(#clip-path-14)">
                  <path id="Pfad_3121" data-name="Pfad 3121" d="M223.23,270.985c7.464,2.9,14.928-.622,22.392-1.037a4.191,4.191,0,0,1,2.9,1.866c5.805,8.915,12.233,17.209,22.185,20.526a35.763,35.763,0,0,0,22.234.18q1.238-1.96,2.4-3.974l-.581-.145c-11.4-2.281-23.429-.622-32.759-8.086a30,30,0,0,1-8.915-12.025c-1.451-3.11-4.769-4.147-7.879-4.147-7.879,0-15.965,1.866-23.221-1.037a35.148,35.148,0,0,1-10.289-6.725q-.509,1.2-.976,2.415c2.783,5.392,6.793,9.972,12.51,12.189" transform="translate(-210.72 -256.381)" fill="#230211"/>
                </g>
              </g>
            </g>
            <path id="Pfad_3122" data-name="Pfad 3122" d="M326.794,305.8a5.927,5.927,0,0,0-5.644,4.053c.038-.144.626-.4.759-.472q.407-.23.831-.427a11.835,11.835,0,0,1,1.752-.648,12.437,12.437,0,0,1,3.661-.464,12.163,12.163,0,0,1,3.672.647c.158.054.415.229.545.06.1-.126-.007-.395-.063-.514-.227-.482-.9-.8-1.338-1.059a8.1,8.1,0,0,0-4.176-1.175" transform="translate(-241.007 -229.485)" fill="#ef8860"/>
            <path id="Pfad_3123" data-name="Pfad 3123" d="M216.524,219.49a72.371,72.371,0,0,0-4.13,8.034,27.122,27.122,0,0,0,24.741,13.5c4.163-.272,8.521-1.51,12.372.133,3.97,1.694,6.187,5.93,8.988,9.274,4.52,5.4,11.007,8.758,17.715,10.595s13.692,2.266,20.626,2.658c1.281-1.843,3.47-3.258,4.528-5.373-20.85-24.175-53.355-39.349-84.838-38.821m23.647,13.216a9.386,9.386,0,0,1-4,3.3c-3.522,1.507-7.655.962-11.159-.587a10.79,10.79,0,0,1-3.817-2.594,5.505,5.505,0,0,1-1.462-4.267c1.054-7.8,13.894-5.678,18.515-3.421a6.891,6.891,0,0,1,2.716,2.045c1.223,1.733.271,3.964-.8,5.519m38.137,23.808a5.983,5.983,0,0,1-3.6.483c-6.342-.919-14.928-6.274-15.461-13.282a8.463,8.463,0,0,1,1.068-4.651,6.837,6.837,0,0,1,5.731-3.958,10.8,10.8,0,0,1,3.63.639,17.447,17.447,0,0,1,11.211,12.811c.562,2.805.294,6.465-2.575,7.957" transform="translate(-159.391 -164.707)" fill="#648eb1"/>
            <path id="Pfad_3124" data-name="Pfad 3124" d="M74.966,283.169a6.575,6.575,0,0,1-2.987.56c-1.011-.047-1.833-.539-2.794-.669-.235-.032-.546.214-.359.466a4.461,4.461,0,0,0,2.993,1.311,6.62,6.62,0,0,0,3.723-.684c.666-.325.084-1.279-.575-.985" transform="translate(-51.607 -212.421)" fill="#ef8860"/>
            <path id="Pfad_3125" data-name="Pfad 3125" d="M624.3,355.593a7.051,7.051,0,0,1-2.941.252,19.8,19.8,0,0,1-2.651-.828.36.36,0,0,0-.347.6c1.368,1.679,4.378,1.748,6.256,1.13.723-.238.425-1.368-.317-1.15" transform="translate(-463.98 -266.412)" fill="#ef8860"/>
            <path id="Pfad_3126" data-name="Pfad 3126" d="M394.472,786.833a143.829,143.829,0,0,0-13.9,9.2c-2.148,1.59-4.28,3.212-6.346,4.906q-1.627,1.334-3.219,2.711a16.455,16.455,0,0,0-2.827,2.686c-.194.274.172.552.426.425a12.79,12.79,0,0,0,2.423-1.775,10.514,10.514,0,0,0-1.064,2.526.326.326,0,0,0,.592.25,45.207,45.207,0,0,1,4.078-5.558.617.617,0,0,0,.091-.13l.235-.181c2.183-1.663,4.375-3.311,6.615-4.9,4.432-3.139,9-6.064,13.6-8.952a.7.7,0,0,0-.706-1.208" transform="translate(-276.26 -590.404)" fill="#2f5f93"/>
            <path id="Pfad_3127" data-name="Pfad 3127" d="M536.962,797.262c-.209.386-.417.773-.614,1.167a44,44,0,0,1-2.3,4.812c-.089.135-.336.1-.325-.089a15.1,15.1,0,0,1,1.559-4.918c.3-.688.618-1.375.958-2.049a6.61,6.61,0,0,0,.719,1.076" transform="translate(-400.535 -597.499)" fill="#2f5f93"/>
            <path id="Pfad_3128" data-name="Pfad 3128" d="M547.121,801.56c-.27,1.769-.458,3.545-.628,5.337a.391.391,0,0,1-.035.127.134.134,0,0,1-.031.1l-.062.068a.14.14,0,0,1-.135.037c-.018,0-.039-.006-.058-.009a.322.322,0,0,1-.309-.236,17.815,17.815,0,0,1-.222-2.071,20.52,20.52,0,0,1,.255-4.362,4.219,4.219,0,0,0,.732.7,3.539,3.539,0,0,0,.494.309" transform="translate(-409.457 -600.772)" fill="#2f5f93"/>
            <path id="Pfad_3129" data-name="Pfad 3129" d="M442.336,546.428q-.6.383-1.207.753c-.193-.491-.39-.981-.585-1.472-1.47-3.689-2.592-7.727-4.7-11.117-.186-.3.274-.668.5-.384a27.356,27.356,0,0,1,3.577,6.411c-.11-1.232-.15-2.469-.145-3.705a.344.344,0,0,1,.688,0,67.187,67.187,0,0,0,.987,6.684.547.547,0,0,1-.116.456c.087.211.176.423.265.634.245.58.487,1.159.732,1.74" transform="translate(-327.05 -400.82)" fill="#2f5f93"/>
            <path id="Pfad_3130" data-name="Pfad 3130" d="M222.708,516.164c-.466,3.143-.912,6.29-1.269,9.448a.664.664,0,0,1-.016.162c-.209,1.868-.388,3.74-.521,5.617-.016.23-.031.458-.045.688-.415-.413-.85-.856-1.3-1.325.184-1.8.4-3.6.661-5.389-.553-2.107-.939-4.269-1.422-6.392-.081-.361.479-.6.624-.239.471,1.167.916,2.37,1.285,3.6.369-2.109.8-4.207,1.323-6.282.1-.382.74-.274.682.116" transform="translate(-164.187 -387.091)" fill="#2f5f93"/>
            <path id="Pfad_3131" data-name="Pfad 3131" d="M26.3,69.847q-6.575-9.42-13.029-18.925c-2.119-3.112-4.2-6.248-6.295-9.376S2.928,35.077.618,32.087c-.27-.349-.755.1-.58.448,1.656,3.345,3.841,6.5,5.811,9.667,2.022,3.249,4.107,6.461,6.2,9.666q6.223,9.537,12.906,18.763c.578.8,1.92.042,1.343-.785" transform="translate(0 -23.985)" fill="#ffc661"/>
            <path id="Pfad_3132" data-name="Pfad 3132" d="M81.956,52.73Q78.778,44.742,75.723,36.7q-1.511-3.973-3-7.955c-.976-2.613-1.835-5.3-2.994-7.842-.157-.344-.676-.094-.592.25.664,2.738,1.7,5.408,2.617,8.068s1.867,5.342,2.836,8q2.909,7.981,6.078,15.86c.315.786,1.605.445,1.287-.355" transform="translate(-51.877 -15.567)" fill="#ffc661"/>
            <path id="Pfad_3133" data-name="Pfad 3133" d="M140.523,1.989c-.036-.51-.82-.522-.8,0,.346,11.143,1.051,22.263,2.188,33.353.09.877,1.47.892,1.387,0-1.046-11.106-1.994-22.225-2.771-33.353" transform="translate(-104.852 -1.203)" fill="#ffc661"/>
            <path id="Pfad_3134" data-name="Pfad 3134" d="M712.358,128.024c-4.545,6.073-9.089,12.146-13.577,18.261-.415.566.528,1.107.94.55,4.5-6.095,8.951-12.229,13.4-18.366.335-.462-.426-.892-.761-.445" transform="translate(-524.323 -95.935)" fill="#ffc661"/>
            <path id="Pfad_3135" data-name="Pfad 3135" d="M762.224,193.728a122.857,122.857,0,0,0-12.114,10.754.519.519,0,0,0,.733.733,140.761,140.761,0,0,1,12.041-10.827c.471-.376-.193-1.023-.66-.66" transform="translate(-562.808 -145.303)" fill="#ffc661"/>
            <path id="Pfad_3136" data-name="Pfad 3136" d="M783.644,252.232a154.225,154.225,0,0,0-22.089,10.717.571.571,0,0,0,.576.984,205.94,205.94,0,0,1,21.848-10.908c.447-.191.125-.973-.334-.794" transform="translate(-571.303 -189.268)" fill="#ffc661"/>
          </g>
        </g>
      </g>
    </g>
  </g>
</svg>
