<svg xmlns="http://www.w3.org/2000/svg" xmlns:xlink="http://www.w3.org/1999/xlink" width="168.431" height="250.235" viewBox="0 0 168.431 250.235">
  <defs>
    <radialGradient id="radial-gradient" cx="0.501" cy="0.5" r="0.5" gradientTransform="matrix(-0.994, 0.112, 0.112, 0.994, -14.119, 0.792)" gradientUnits="objectBoundingBox">
      <stop offset="0" stop-color="#6e3627"/>
      <stop offset="0.11" stop-color="#713b2c"/>
      <stop offset="0.25" stop-color="#7c493c"/>
      <stop offset="0.4" stop-color="#8e6256"/>
      <stop offset="0.56" stop-color="#a6847b"/>
      <stop offset="0.74" stop-color="#c6b0aa"/>
      <stop offset="0.92" stop-color="#ece4e3"/>
      <stop offset="1" stop-color="#fff"/>
    </radialGradient>
    <radialGradient id="radial-gradient-2" cx="0.181" cy="0.827" r="0.923" gradientTransform="translate(-13.111 6.151) rotate(37.01)" gradientUnits="objectBoundingBox">
      <stop offset="0" stop-color="#fff"/>
      <stop offset="0.46" stop-color="#fdfdfd"/>
      <stop offset="0.63" stop-color="#f6f8f9"/>
      <stop offset="0.74" stop-color="#eaeef2"/>
      <stop offset="0.84" stop-color="#d9e1e7"/>
      <stop offset="0.92" stop-color="#c3cfda"/>
      <stop offset="0.99" stop-color="#a9baca"/>
      <stop offset="1" stop-color="#a6b8c8"/>
    </radialGradient>
    <radialGradient id="radial-gradient-3" cx="0.502" cy="0.5" r="0.5" gradientTransform="matrix(-0.994, 0.112, 0.112, 0.994, -28.939, 1.623)" gradientUnits="objectBoundingBox">
      <stop offset="0" stop-color="#210510"/>
      <stop offset="0.29" stop-color="#230610"/>
      <stop offset="0.49" stop-color="#2c0b13"/>
      <stop offset="0.65" stop-color="#3b1418"/>
      <stop offset="0.8" stop-color="#50211f"/>
      <stop offset="0.94" stop-color="#6b3128"/>
      <stop offset="1" stop-color="#7b3b2d"/>
    </radialGradient>
    <radialGradient id="radial-gradient-4" cx="0.5" cy="0.5" r="0.5" gradientTransform="matrix(-0.384, -0.923, -0.923, 0.384, -30.926, -20.633)" xlink:href="#radial-gradient"/>
    <radialGradient id="radial-gradient-5" cx="0.558" cy="0.952" r="0.924" gradientTransform="translate(3.389 -4.403) rotate(-14.41)" xlink:href="#radial-gradient-2"/>
    <radialGradient id="radial-gradient-6" cx="-26.38" cy="-27.691" r="0.5" gradientTransform="matrix(1, 0, 0, 1, 0, 0)" xlink:href="#radial-gradient-3"/>
    <radialGradient id="radial-gradient-7" cx="0.577" cy="0.657" r="0.574" gradientTransform="matrix(0.924, -0.203, 0.163, 0.832, 18.651, -15.278)" gradientUnits="objectBoundingBox">
      <stop offset="0" stop-color="#af606a"/>
      <stop offset="0.23" stop-color="#b0626c"/>
      <stop offset="0.39" stop-color="#b46b75"/>
      <stop offset="0.53" stop-color="#bc7b83"/>
      <stop offset="0.65" stop-color="#c79198"/>
      <stop offset="0.77" stop-color="#d5adb2"/>
      <stop offset="0.88" stop-color="#e7cfd2"/>
      <stop offset="0.98" stop-color="#fbf8f8"/>
      <stop offset="1" stop-color="#fff"/>
    </radialGradient>
    <radialGradient id="radial-gradient-8" cx="74.167" cy="-12.866" r="0.493" gradientUnits="objectBoundingBox">
      <stop offset="0" stop-color="#ffa993"/>
      <stop offset="0.18" stop-color="#ffac97"/>
      <stop offset="0.38" stop-color="#ffb7a5"/>
      <stop offset="0.58" stop-color="#ffc9bb"/>
      <stop offset="0.8" stop-color="#ffe1da"/>
      <stop offset="1" stop-color="#fff"/>
    </radialGradient>
  </defs>
  <g id="girlBlack" transform="translate(0.001)">
    <g id="background" transform="translate(20.519 220.062)">
      <path id="Pfad_1530" data-name="Pfad 1530" d="M21.243,1.729C17.353.555,13.222-.628,9.287.382,4.437,1.629-4.24-3.016,2.426,6.3A8.134,8.134,0,0,0,9.268,9.423c3.126-.428,3.995,5,6.766,4.791-.018,2.539,2.161,4.673,4.582,5.446s5.032.5,7.557.214L26.485,25.1c3.412-2.084,6.62-3.185,11.493-2.034,8.863-.591,7.025-3.826,10.637-3.544,3.485.273,5.61,3.458,9.1,3.59,2.794.1,7.616.86,10.4.546,6.188-.7,8.954,2.37,14.7,4.786,5.664,2.384,12.08,1.806,18.195,1.187,9.946-1.006,15.465-3.613,23.836-1.838,6.5-1.774-1.124-4.563-4.136-5.319s-3.121-1.966-6.224-2.047c-7.23-.182-14.773-3.408-21.548-5.046C88.5,14.3,83.466,15.588,82.3,13.017,78.161,8.29,67.983,10.246,63.98,7.7c-6.5-4.131-24.1-6.57-37.6-6.843l-5.137.878Z" transform="translate(-0.001 0)" fill="#a1b9c6" opacity="0.6"/>
    </g>
    <g id="gitl1" transform="translate(-0.001 0)">
      <g id="Layer_2" transform="translate(0 0)">
        <g id="kids">
          <path id="Pfad_1532" data-name="Pfad 1532" d="M285.89,259.444s-4.987-14.109-21.548-22.121L260.47,219.46a46.935,46.935,0,0,1,21.152,9.272c10.091,7.948,17.549,23.727,17.116,26.371s-8.995,6.433-12.853,4.341Z" transform="translate(-141.962 -119.611)" fill="#f26522"/>
          <path id="Pfad_1533" data-name="Pfad 1533" d="M287.753,259.618c-4.095-2.73-4.431-11.443-10.346-13.718-8.854-3.849-11.97-10.41-15.237-18.54l3.089,14.268c16.561,8.012,21.548,22.121,21.548,22.121,3.854,2.093,12.416-1.7,12.853-4.34.009-.059.009-.137.014-.209-3.613,1.788-8.372,2.2-11.925.423Z" transform="translate(-142.889 -123.917)" fill="#bb5122" opacity="0.4"/>
          <path id="Pfad_1534" data-name="Pfad 1534" d="M318.022,312.641s-5.191,6.042-2.721,8.94,3.558-2.621,5.742-2c2.38,2.1,3.162,8.535,6.119,7.339s-.055-7.321-.055-7.321,3.913,6.834,5.778,5.392-.632-6.1-.632-6.1,2.885,4.864,4.409,3.713-1.115-5.674-1.115-5.674,2.32,4.2,4.077,2.111-4.882-8.872-8.99-9.823C330.634,309.22,318.386,312.036,318.022,312.641Z" transform="translate(-171.483 -168.532)" fill="#58595b"/>
          <path id="Pfad_1535" data-name="Pfad 1535" d="M225.091,449.706s5.291,10.255,5.028,14.568-9.973,11.079-4.846,15.715,13.49,1.451,16.68-2.125c6.038-6.775,10.433-18.622,9.614-21.161s-2.466-3.936-5.064-5.715-5.637-9.559-5.637-9.559-8.262,6.456-15.774,8.281Z" transform="translate(-121.966 -240.589)" fill="#603913"/>
          <path id="Pfad_1536" data-name="Pfad 1536" d="M232.8,457.936c-.928-2.48-2.889-5.164-1.961-6.192,5.164.2,10.469-3.835,12.307-8.626-.446-1.01-.714-1.7-.714-1.7s-8.262,6.456-15.774,8.281c0,0,5.291,10.255,5.028,14.568a6.961,6.961,0,0,1-1.2,3.012C232.975,464.164,233.171,461.976,232.8,457.936Z" transform="translate(-123.535 -240.584)" fill="#603913" opacity="0.4"/>
          <path id="Pfad_1537" data-name="Pfad 1537" d="M251.562,474.014a8.17,8.17,0,0,0-.309-.814c-1.028,4.118-3.5,13.718-11.661,20.947-3.64,2.73-7.434,4.441-11.356,2.789a6.127,6.127,0,0,1-3.781-5.455c-.951,2.079-1.1,4.1.814,5.824,5.128,4.636,13.49,1.451,16.68-2.125,6.038-6.775,10.433-18.622,9.614-21.161Z" transform="translate(-121.962 -257.905)" fill="#603913" opacity="0.4"/>
          <path id="Pfad_1538" data-name="Pfad 1538" d="M77.72,249.341s10.492,4.7,21.366,4.736,15.82-5.1,17.6-7.325c3.949-5.478,6.206-12.407,2.3-16.043,0,0-12.253,8.34-19,8.449-7.753.123-13.294-2.93-17.417-3.08C82.561,236.079,82.306,244.173,77.72,249.341Z" transform="translate(-42.36 -125.742)" fill="#f26522"/>
          <path id="Pfad_1539" data-name="Pfad 1539" d="M118.982,230.71s-.682.464-1.811,1.174c-2.575,6.511-5.669,13.385-8.845,17.353-7.4,4.641-22.335,2.693-23.491-2.9-.469-2.266,3.835-8-.132-9.969a12.968,12.968,0,0,0-2.143-.282s-.255,8.094-4.841,13.263c0,0,10.492,4.7,21.366,4.736s15.82-5.1,17.6-7.325c3.949-5.478,6.206-12.407,2.3-16.043Z" transform="translate(-42.36 -125.742)" fill="#bb5122" opacity="0.4"/>
          <path id="Pfad_1540" data-name="Pfad 1540" d="M52.916,241.613c-.287.3-6.966-1.092-8.745-.437s-6.01,2.775-7.43.532,5.46-2.521,4.75-3.644-6.415,1.333-7.5-1.3c-1.638-3.977,7.948-1.77,7.139-3.3-1.947.036-5.906-.355-6.92-.969s-1.815-2.507.628-3.108,7.644.541,7.393-.473-6.015-.987-6.056-2.921.833-2.552,3.4-1.9c4.1,1.046,7.748,2.216,9.982,3.017,0-.864-3.267-5.414-.792-6.715,2.548-1.338,3.28.883,4.058,3.321.764,2.407,4.35,8.026,3.722,11.611,0,0-1.542,5.132-3.635,6.292Z" transform="translate(-18.111 -119.902)" fill="#58595b"/>
          <path id="Pfad_1541" data-name="Pfad 1541" d="M67.255,250.27s5.9-7.1,6.015-12.18c0,0,.733-1.583,2.593-.073,1.938.692,3.917.373,3.826,2.452-.187,4.272-3.226,11.948-5.969,13.281-1.579.764-6.088-1.406-6.47-3.481Z" transform="translate(-36.653 -129.369)" fill="#ed8948"/>
          <path id="Pfad_1542" data-name="Pfad 1542" d="M314.974,301.428s9.213-.614,12.971-4.027c0,0,1.652-.56,1.843,1.829.833,1.884,2.43,3.1.855,4.463-3.226,2.807-10.883,5.892-13.74,4.818-1.642-.614-3.171-5.378-1.934-7.089Z" transform="translate(-171.42 -162.06)" fill="#ed8948"/>
          <path id="Pfad_1543" data-name="Pfad 1543" d="M87.815,419.35s-1.274,12.334-3.048,16.375c-2.712,6.174-13.513-.032-16.811,6.893-1.2,2.807-.91,6.493,6.834,9.586,8.221,3.29,22.194,2.789,25.5.1,2.066-3.508.255-5.073.828-8.567.428-2.616,3.135-17.785,3.135-17.785a21.439,21.439,0,0,1-9.6-1.793,27.81,27.81,0,0,1-6.834-4.814Z" transform="translate(-36.749 -228.555)" fill="#603913"/>
          <path id="Pfad_1544" data-name="Pfad 1544" d="M101.227,443.731c.428-2.616,3.135-17.785,3.135-17.785a21.438,21.438,0,0,1-9.6-1.793,27.81,27.81,0,0,1-6.834-4.814s-.177,1.706-.487,4.054c1.087,3.3,6.051,3.517,8.108,5.573,5,5.46,3.194,15.824-2.352,21.238-3.945,3.849-14.578,1.683-20.774-.487-2.166-1.238-4.1-2.684-4.786-3.785.423,2.075,2.325,4.286,7.266,6.26,8.221,3.29,22.194,2.789,25.5.1,2.066-3.508.255-5.073.828-8.567Z" transform="translate(-36.866 -228.55)" fill="#603913" opacity="0.4"/>
          <path id="Pfad_1545" data-name="Pfad 1545" d="M178.255,348.082c-6.233,5.232-9.973,9.4-30.939,5.1-10.665-2.188-25.006-13.927-26.1-17.2a59.08,59.08,0,0,0-5.664,9.777c-4.686,13.244-7.12,26.366-5.451,30.866,4.368,3.845,10.06,6.133,15.874,4.645,0,0,3.071.678,3.8-8.831a41.64,41.64,0,0,1,9.541-17.317,53.834,53.834,0,0,0,6.4,2.057,34,34,0,0,0,5.865.81s-1.52,10.465-.769,13.436c4.882,19.277,8.881,19.823,8.881,19.823,4.277,4.108,17.894-1.319,19.773-7.73.337-1.151-1.97-5.7-4.049-13.763,1.338-6.529,2.848-21.675,2.848-21.675Z" transform="translate(-59.721 -183.117)" fill="#726658"/>
          <path id="Pfad_1546" data-name="Pfad 1546" d="M164.333,388.479c-2.357-3.217,2.366-3.608,2.8-4.9-1.438-.009-6.133-2.166-6.27-3.171-1.984-5.478-6.615-16.124.905-14.869a19.781,19.781,0,0,0,18.731-6.406c.86-6.506,1.561-11.056,1.561-11.056-6.233,5.232-9.973,9.4-30.939,5.1-10.665-2.188-25.006-13.927-26.1-17.2a59.079,59.079,0,0,0-5.664,9.777c3.872,7.671,11.029,4.35,12.876,8.822,4.149,2.457-4.559,19.732-7.189,22.335a11.709,11.709,0,0,1-8.485,1.733,16.486,16.486,0,0,0,13.222,2.621s3.071.678,3.8-8.831a41.641,41.641,0,0,1,9.541-17.316,53.835,53.835,0,0,0,6.4,2.057,34.006,34.006,0,0,0,5.865.81s-1.52,10.465-.769,13.435c4.882,19.277,8.881,19.823,8.881,19.823,1.574,1.511,4.409,1.729,7.462,1.087-2.471-.892-5.614-1.165-6.62-3.849Z" transform="translate(-63.528 -183.111)" fill="#726658" opacity="0.25"/>
          <path id="Pfad_1547" data-name="Pfad 1547" d="M192.128,287.8c.737-2.739,3.112-16.188,1.383-34.132-1.383-14.391-5.064-28.241-7.152-30.688-.887,3.308-15.4,3.021-23,2.284-9.191-1.62-11.393-1.5-15.274-3.035a59.335,59.335,0,0,0-4.55,5.573c-3.039,5.974-7.284,17.576-11.356,27.231-3.717,8.822-7.12,12.789-7.489,17.421-.546,5.614,12.821,15.874,26.612,18.868,27.9,6.056,37.663.692,40.821-3.522Z" transform="translate(-67.951 -121.121)" fill="#f26522"/>
          <path id="Pfad_1548" data-name="Pfad 1548" d="M240.475,227.983c2.148-1.347,3.012-4.236,3.321-7.143a50.149,50.149,0,0,1-9.837,3.644c.837,3.03,4.031,4.987,6.511,3.5Z" transform="translate(-127.514 -120.363)" fill="#f7941e"/>
          <path id="Pfad_1549" data-name="Pfad 1549" d="M2.767,223.157s-3.881-5-2.448-13.454,11.5-15.315,19.55-12.685,11.5,7.744,11.538,14.992c.045,8.7-6.424,15.647-12.726,15.815S7.64,227.2,2.767,223.161Z" transform="translate(-0.002 -107.069)" fill="#fff"/>
          <path id="Pfad_1550" data-name="Pfad 1550" d="M15.839,223.751c-5.46-1.82-10.869-9.341-9.5-15.71.569-4.268,4.413-9.009,8.231-11.361-6.638.828-13.117,6.5-14.245,13.149-1.433,8.449,2.448,13.454,2.448,13.454,4.868,4.04,9.609,4.832,15.915,4.664,3.8-.1,7.657-2.666,10.114-6.593-3.726,2.7-8.135,3.94-12.953,2.4Z" transform="translate(-0.002 -107.195)" fill="#d5dbe6" opacity="0.5"/>
          <path id="Pfad_1551" data-name="Pfad 1551" d="M184.5,292.967s-7.1-1.943-5.619-6.229c1.724-5.009,9.85-3.8,8.954,3.358,0,0-.146-8.09,4.7-7.958s5.387,7.18,1.183,9.022c0,0,6.092-1.884,6.925,2.612s-3.663,8.276-7.935,3.039c0,0,3.936,6.06-1.952,7.139s-4.213-5.646-4.213-5.646A13.776,13.776,0,0,1,184,300.738c-1.62,1.142-5.382,0-5.906-2.839-.751-4.127,2.2-5.146,6.406-4.923Z" transform="translate(-97 -153.771)" fill="#ffc06a"/>
          <ellipse id="Ellipse_250" data-name="Ellipse 250" cx="3.754" cy="3.936" rx="3.754" ry="3.936" transform="translate(87.79 136.099) rotate(-4.43)" fill="#f87cd2"/>
          <path id="Pfad_1552" data-name="Pfad 1552" d="M170.108,258.082c4.518,1.925,10.119,2.621,16.6,1.993-1.893-8.372-.255-15.528,3.3-22.958a8.66,8.66,0,0,1,5.774-1.356c-.15,6.675.455,12.717,2.693,17.353,5.965,1.738,12.28-.664,13.122-.737-.046-1.934-1.183-3.239-1.092-5.319.3-10.551.983-19.268-.4-24.919-.887,3.308-8.695,2.944-16.288,2.207-9.191-1.62-14.5-5.428-18.386-6.966-.441.177-8.335,9.141-7.926,8.731l-.505.983a21.564,21.564,0,0,0,9.668,6.806c-5.856,7.111-5.592,15.842-6.574,24.178Z" transform="translate(-91.025 -118.477)" fill="#bb5122" opacity="0.4"/>
          <path id="Pfad_1553" data-name="Pfad 1553" d="M185.077,251.12s-8.513,13.217-6.738,23.923a29.606,29.606,0,0,0,12.166,2.029,58.2,58.2,0,0,1,.637-11.611c1.542-9.2,3.558-12.981,3.558-12.981s-2.457-.364-9.627-1.36Z" transform="translate(-97.066 -136.866)" fill="#d5dc00"/>
          <path id="Pfad_1554" data-name="Pfad 1554" d="M167.672,219.081s-2.216,2.284-1.365,5.073c.828,4.063,6.37,10.273,21.389,9.682,12.571-.027,22.754-5.337,23.463-7.976,1.524-5.669.619-10.378-.983-10.187-2.229,2.725-13.413,7.38-22.672,7.575-9.068.487-17.362-3.831-19.833-4.177Z" transform="translate(-90.536 -117.544)" fill="#d5dc00"/>
          <path id="Pfad_1555" data-name="Pfad 1555" d="M209.121,224.666a5.085,5.085,0,0,0-2.32-3.635c-2.807-.246-10.378,2.4-11.083,4.136,1.561.651,1.051,5.5.414,7.325-1.028,1.57-2.339,2.43-5.378,2.593-6.493.364-13.954-.842-17.758-2.775-4.177-2.12-5.719-5.473-4.386-10.091a6.892,6.892,0,0,0-.937-.223s-2.216,2.284-1.365,5.073c.828,4.063,6.37,10.273,21.389,9.682,12.571-.027,22.753-5.337,23.463-7.976a23.04,23.04,0,0,0,.71-3.99c-.992,2.07-2.134,3.831-2.753-.123Z" transform="translate(-90.536 -120.458)" fill="#bc6f1e" opacity="0.3"/>
          <path id="Pfad_1556" data-name="Pfad 1556" d="M234.961,252.736s-2.721-6.643-2.07-18c-.314-6.907.337-10.164-1.265-9.978-1.092-.191-.059-2.148,5.505-3.39,2.047-.455,4.063-1.137,5.046-.7,2.607.965,2.161,10.251,2.521,14.687s1.683,9.464,3.672,12.53c-.25,3.03-7.648,7.635-13.408,4.845Z" transform="translate(-126.031 -120.192)" fill="#d5dc00"/>
          <path id="Pfad_1557" data-name="Pfad 1557" d="M108.265,17.053c.692.8,2.484-.66,2.484-.66s-1.247,1.784-.651,2.266c.719.582,1.938-1.588,1.938-1.588s-.651,1.765.041,2.157,1.743-1.315,1.743-1.315-.2,1.975.787,2.311.851-2.539.851-2.539.651,2.22,1.206,2.075c.992-.264.055-2.789.055-2.789s1.024,1.906,1.715,1.7S118.056,16,118.056,16s1.861,2.593,2.7,1.961c.591-.441-.933-2.78-.933-2.78s1.533,1.46,2.329.969-1.033-2.493-1.033-2.493,2.179,1,2.48.241-1.529-2.261-1.529-2.261,2.093.487,2.084-.514c-.009-.933-2.279-.814-2.279-.814s2.325-.273,2.225-1.192c-.082-.787-1.674-.569-2.53-.669.746-.109,2.307-1.156,2.052-1.784-.314-.769-2.775-.023-2.775-.023s2.238-1.083,1.988-1.966-2.684.573-2.684.573,2.029-1.283,1.338-2.075-2.48.673-2.48.673,1.238-1.788.642-2.266c-.723-.582-2.07,1.533-2.07,1.533s.805-1.925.114-2.316-1.761,1.538-1.761,1.538.2-1.975-.8-2.307-.842,2.543-.842,2.543S113.416.278,112.86.428c-.992.268-.146,2.434-.146,2.434s-1.4-1.861-2.093-1.652.446,2.548.446,2.548-1.374-2.038-2.22-1.4c-.587.446,1.1,2.739,1.1,2.739s-1.538-1.456-2.329-.96,1.042,2.493,1.042,2.493-2.184-.992-2.48-.227,2.025,2,2.025,2-2.753-.469-2.853.523c-.059.6,2.566,1.06,2.566,1.06s-2.43.155-2.634.76c-.168.487,2.407,1.147,2.721,1.092-.733.159-2.366.828-2.27,1.324.191,1.024,2.734.3,2.734.3s-1.9.746-1.652,1.629,2.8-.1,2.8-.1-2.038,1.274-1.347,2.07Z" transform="translate(-57.377 -0.001)" fill="#cf3a23"/>
          <path id="Pfad_1558" data-name="Pfad 1558" d="M127.617,20.377s2.32-.309,2.207-1.224a.544.544,0,0,0-.378-.441,13.169,13.169,0,0,0-9.55,2.921,12.268,12.268,0,0,0-3.317,5s-1.219,1.8-.619,2.275c.728.573,1.915-1.615,1.915-1.615s-.623,1.774.073,2.157,1.72-1.338,1.72-1.338-.177,1.979.819,2.3.814-2.548.814-2.548.682,2.211,1.238,2.057c.987-.278.014-2.789.014-2.789S123.6,29.017,124.3,28.8s-.419-2.666-.419-2.666,1.9,2.566,2.734,1.92c.582-.45-.974-2.766-.974-2.766s1.556,1.438,2.343.933-1.069-2.48-1.069-2.48,2.193.965,2.484.2-1.565-2.238-1.565-2.238,2.1.455,2.079-.546c-.023-.933-2.289-.778-2.289-.778Z" transform="translate(-63.111 -10.172)" fill="#bf3a23" opacity="0.5"/>
          <path id="Pfad_1559" data-name="Pfad 1559" d="M276.4,127.569c1.433,1.065,4.677.118,4.959-1.647a2.212,2.212,0,0,0,2.725,2.084,3.608,3.608,0,0,0,2.766-1.665c-.146,2.07,1.506,2.753,2.948,2.73a2.72,2.72,0,0,0,2.7-1.988,5.884,5.884,0,0,0,5.765,1.943c2.011-.5,3.567-1.356,3.508-2.284-.1-1.679-2-2.3-3.512-2.507-2.707-.373-4.436,1.374-5.574,1.975-1.265-2.835-3.817-2.916-5.464-1.374a3.44,3.44,0,0,0-3.021-2.812,2.763,2.763,0,0,0-2.848,2.289,5.089,5.089,0,0,0-4.077-2.912c-3.367.45-3.917,3.908-.874,6.17Z" transform="translate(-149.555 -66.165)"/>
          <path id="Pfad_1560" data-name="Pfad 1560" d="M314.663,132.517s-1.615.614-1.583-.45a19.4,19.4,0,0,1,.155-2.389c.123-.61,1.456-.591,1.511.209s.159,2.48-.086,2.634Z" transform="translate(-170.635 -70.445)" fill="#48ce00"/>
          <path id="Pfad_1561" data-name="Pfad 1561" d="M275.411,135.283c.878,1.556,4.227,2.006,5.2.51a2.214,2.214,0,0,0,1.647,3.012,3.6,3.6,0,0,0,3.208-.4c-.974,1.834.259,3.126,1.583,3.69a2.722,2.722,0,0,0,3.276-.723,5.882,5.882,0,0,0,4.482,4.118c2.038.364,3.808.2,4.131-.66.587-1.579-.9-2.916-2.193-3.717-2.32-1.442-4.613-.546-5.9-.455,0-3.1-2.3-4.218-4.436-3.476a3.437,3.437,0,0,0-1.62-3.8,2.772,2.772,0,0,0-3.535.933A5.088,5.088,0,0,0,278.714,130C275.452,129.045,273.546,131.98,275.411,135.283Z" transform="translate(-149.706 -70.754)"/>
          <path id="Pfad_1562" data-name="Pfad 1562" d="M308.6,154.461s-1.729-.1-1.265-1.056a18.408,18.408,0,0,1,1.115-2.12c.359-.51,1.57.05,1.3.805S308.887,154.42,308.6,154.461Z" transform="translate(-167.462 -82.347)" fill="#ff58c8"/>
          <path id="Pfad_1563" data-name="Pfad 1563" d="M277.059,146.131c.369,1.747,3.431,3.18,4.809,2.047a2.214,2.214,0,0,0,.664,3.367,3.612,3.612,0,0,0,3.18.582c-1.479,1.456-.692,3.057.4,3.995a2.718,2.718,0,0,0,3.34.3,5.887,5.887,0,0,0,3.039,5.273c1.834.96,3.572,1.342,4.14.61,1.033-1.329.023-3.048-.974-4.2-1.784-2.07-4.236-1.906-5.487-2.207.928-2.962-.928-4.714-3.189-4.645a3.433,3.433,0,0,0-.4-4.108,2.762,2.762,0,0,0-3.649-.168,5.091,5.091,0,0,0-1.133-4.882c-2.825-1.893-5.523.337-4.736,4.045Z" transform="translate(-150.931 -77.065)"/>
          <path id="Pfad_1564" data-name="Pfad 1564" d="M303.279,174.1s-1.62-.61-.887-1.383a19.562,19.562,0,0,1,1.7-1.688c.5-.378,1.483.519,1,1.156S303.566,174.154,303.279,174.1Z" transform="translate(-164.707 -93.168)" fill="#48ce00"/>
          <path id="Pfad_1565" data-name="Pfad 1565" d="M112.72,192.235c-1.67.632-2.621,3.872-1.292,5.064a2.215,2.215,0,0,0-3.226,1.174,3.612,3.612,0,0,0-.091,3.23c-1.665-1.242-3.13-.218-3.89,1.01a2.721,2.721,0,0,0,.218,3.344,5.872,5.872,0,0,0-4.745,3.808c-.669,1.961-.778,3.735.032,4.186,1.47.819,3.017-.446,4.008-1.6,1.774-2.079,1.238-4.477,1.342-5.76,3.071.464,4.513-1.638,4.1-3.858a3.437,3.437,0,0,0,4-1.028,2.77,2.77,0,0,0-.391-3.635,5.1,5.1,0,0,0,4.65-1.861c1.438-3.08-1.174-5.405-4.723-4.063Z" transform="translate(-54.043 -104.566)"/>
          <path id="Pfad_1566" data-name="Pfad 1566" d="M107.36,222.241s.355-1.693,1.233-1.087a18.991,18.991,0,0,1,1.929,1.42c.45.432-.287,1.547-.992,1.16S107.355,222.527,107.36,222.241Z" transform="translate(-58.514 -120.463)" fill="#ff58c8"/>
          <path id="Pfad_1567" data-name="Pfad 1567" d="M100.344,186.69c-1.77-.241-4.149,2.157-3.549,3.835a2.212,2.212,0,0,0-3.394-.505,3.6,3.6,0,0,0-1.62,2.8c-.874-1.884-2.648-1.683-3.9-.965a2.718,2.718,0,0,0-1.4,3.044,5.88,5.88,0,0,0-5.988,1.087c-1.524,1.406-2.466,2.912-1.965,3.694.905,1.42,2.862,1.046,4.286.5,2.548-.983,3.221-3.344,3.926-4.422,2.48,1.87,4.75.71,5.451-1.438a3.436,3.436,0,0,0,4,1,2.766,2.766,0,0,0,1.388-3.381,5.093,5.093,0,0,0,4.977.578c2.73-2.02,1.542-5.314-2.216-5.824Z" transform="translate(-42.727 -101.741)"/>
          <path id="Pfad_1568" data-name="Pfad 1568" d="M92.842,202.816s1.119-1.319,1.6-.369a19.168,19.168,0,0,1,1.019,2.17c.187.6-.987,1.224-1.424.546S92.7,203.071,92.842,202.816Z" transform="translate(-50.594 -110.151)" fill="#48ce00"/>
          <path id="Pfad_1569" data-name="Pfad 1569" d="M94.447,175.785c-1.738-.4-4.431,1.5-4.09,3.253a2.215,2.215,0,0,0-3.28-1.019,3.59,3.59,0,0,0-2.025,2.521c-.573-2-2.361-2.066-3.708-1.547a2.718,2.718,0,0,0-1.847,2.8,5.869,5.869,0,0,0-6.083.164c-1.72,1.156-2.88,2.5-2.507,3.349.678,1.542,2.671,1.47,4.163,1.147,2.671-.582,3.69-2.816,4.55-3.776,2.166,2.225,4.586,1.424,5.605-.591a3.114,3.114,0,0,0,3,1.206,3.688,3.688,0,0,0,2.921-1.793c1.037.846,2.98.783,4.245.282C98.4,180.194,97.559,176.5,94.447,175.785Z" transform="translate(-38.608 -95.778)"/>
          <path id="Pfad_1570" data-name="Pfad 1570" d="M86.735,186.831s1.306-1.133,1.642-.123a18.1,18.1,0,0,1,.673,2.3c.1.614-1.165,1.056-1.488.323s-1.006-2.275-.828-2.5Z" transform="translate(-47.258 -101.532)" fill="#ff58c8"/>
          <path id="Pfad_1571" data-name="Pfad 1571" d="M205.462,112.322c1.829,7.175,2.662,12.635,2.511,15.219-1.906,17.412-13.249,24.5-30.848,26.712-22.471,1.383-29.182-9.359-32.335-16.525-1.46-4.322-.965-5.455-1.743-12.371-1.952-17.394,11.1-34.1,28.7-35.8S201.568,97.053,205.462,112.322Z" transform="translate(-77.86 -48.703)" fill="#dd8053"/>
          <path id="Pfad_1572" data-name="Pfad 1572" d="M245.98,104.841c.068-.045.132-.091.2-.141A.658.658,0,0,0,245.98,104.841Z" transform="translate(-134.065 -57.064)" fill="#dd8053"/>
          <path id="Pfad_1573" data-name="Pfad 1573" d="M257.13,110.617c.1-.041.2-.086.287-.127A1.046,1.046,0,0,0,257.13,110.617Z" transform="translate(-140.142 -60.22)" fill="#dd8053"/>
          <path id="Pfad_1574" data-name="Pfad 1574" d="M148.524,127.409a3.282,3.282,0,0,0,.387-2.457c-.287-.628-.569-1.561-1.492-1.592,3.094-.209,5.978-3.512,4.218-6.347-.605-.328-.9-.955-1.5-1.283,4.613.46,6.333-5.041,4.286-8.5.287.628.905.646,1.2.965a3,3,0,0,0,2.784-.218c1.583-1.183,2.575-3.312,1.092-5.21,2.439,1.006,5.542.487,6.852-1.938a5.357,5.357,0,0,0-.209-3.094c.278.933,1.215.655,1.829.678,2.138.687,4.368-1.4,4.136-3.881,1.8,1.6,4.536,2.926,6.743,1.451.009-.309.655-1.215.369-1.838,1.142,2.816,4.577,1.693,5.56-.127-.009.309-.032.924-.041,1.233,1.429,1.834,3.185,2.521,5.009,1.238a.658.658,0,0,1,.2-.141c-.068.05-.132.1-.2.141-.359.378-.15,1.119-.159,1.388.8,2.666,3.367,2.043,5.232,1.233a1.111,1.111,0,0,1,.287-.127c-.1.041-.191.086-.287.127-.582.373-.373,1.16-.391,1.7.569,1.561,2.329,4.4,4.554,2.307-.032.924-.378,2.147.528,2.794.619.018,1.52.664,2.17-.237a5.117,5.117,0,0,0,3.481,6.9h.332c-.023-.082-.041-.159-.059-.241-3.895-15.274-16.124-24.464-33.718-22.763s-30.647,18.408-28.7,35.8c.146,1.31.246,2.411.328,3.367a3.783,3.783,0,0,0,5.169-1.315Z" transform="translate(-77.843 -48.707)" fill="#bd8bb0" opacity="0.45"/>
          <path id="Pfad_1575" data-name="Pfad 1575" d="M173.315,139.438a19.477,19.477,0,0,1,1.843-1.2,5.255,5.255,0,0,1,2.666-.264,1.838,1.838,0,0,0-1.219-1.724c-1.283-.45-2.152-.041-3.117,1s-.719,2.066-.173,2.184Z" transform="translate(-94.199 -74.162)" fill="#3c2415"/>
          <path id="Pfad_1576" data-name="Pfad 1576" d="M246.637,128.394a11.812,11.812,0,0,1,2.052-.9,4.63,4.63,0,0,1,2.425.191,1.722,1.722,0,0,0-.892-1.561,2.8,2.8,0,0,0-2.966.168c-1.16.814-1.128,1.875-.619,2.1Z" transform="translate(-134.24 -68.551)" fill="#3c2415"/>
          <ellipse id="Ellipse_251" data-name="Ellipse 251" cx="6.429" cy="6.429" rx="6.429" ry="6.429" transform="translate(76.336 68.738)" opacity="0.6" fill="url(#radial-gradient)"/>
          <circle id="Ellipse_252" data-name="Ellipse 252" cx="4.664" cy="4.664" r="4.664" transform="matrix(0.623, -0.782, 0.782, 0.623, 76.613, 76.618)" fill="url(#radial-gradient-2)"/>
          <path id="Pfad_1577" data-name="Pfad 1577" d="M175.905,164.183a3.271,3.271,0,1,0,2.885-3.617A3.269,3.269,0,0,0,175.905,164.183Z" transform="translate(-95.862 -87.501)" fill="url(#radial-gradient-3)"/>
          <path id="Pfad_1578" data-name="Pfad 1578" d="M177.384,166.687a.753.753,0,1,0,.664-.833A.752.752,0,0,0,177.384,166.687Z" transform="translate(-96.677 -90.392)" fill="#fff"/>
          <path id="Pfad_1579" data-name="Pfad 1579" d="M172.267,159.685s-1.811-.878-1.947-.519a10,10,0,0,0,1.6,1.124Z" transform="translate(-92.829 -86.703)" fill="#3c2415"/>
          <path id="Pfad_1580" data-name="Pfad 1580" d="M181.605,153.682s-.064-1.861-.669-2.052c-.209.191.182,2.061.182,2.061Z" transform="translate(-98.581 -82.642)" fill="#3c2415"/>
          <path id="Pfad_1581" data-name="Pfad 1581" d="M176.5,155.534s-.983-1.383-1.47-1.374c-.064.218.974,1.683.974,1.683Z" transform="translate(-95.392 -84.021)" fill="#3c2415"/>
          <path id="Pfad_1582" data-name="Pfad 1582" d="M175.995,156.674a4.468,4.468,0,0,1,5.214,2.193c-.059-2.093-2.461-3.321-5.028-3.044a5.433,5.433,0,0,0-3.835,2.835c-.387.778-.537,2.384-.082,2.766C172.373,161.006,172.646,157.389,175.995,156.674Z" transform="translate(-93.735 -84.906)" fill="#3c2415"/>
          <ellipse id="Ellipse_253" data-name="Ellipse 253" cx="6.429" cy="6.429" rx="6.429" ry="6.429" transform="matrix(0.278, -0.961, 0.961, 0.278, 108.233, 74.255)" opacity="0.6" fill="url(#radial-gradient-4)"/>
          <path id="Pfad_1583" data-name="Pfad 1583" d="M246.074,150.089a4.661,4.661,0,1,0,4.108-5.155A4.657,4.657,0,0,0,246.074,150.089Z" transform="translate(-134.1 -78.976)" fill="url(#radial-gradient-5)"/>
          <path id="Pfad_1584" data-name="Pfad 1584" d="M249.4,152.542a3.271,3.271,0,1,0,2.885-3.617A3.27,3.27,0,0,0,249.4,152.542Z" transform="translate(-135.915 -81.157)" fill="url(#radial-gradient-6)"/>
          <path id="Pfad_1585" data-name="Pfad 1585" d="M250.875,155.037a.753.753,0,1,0,.664-.833A.752.752,0,0,0,250.875,155.037Z" transform="translate(-136.73 -84.043)" fill="#fff"/>
          <path id="Pfad_1586" data-name="Pfad 1586" d="M245.767,148.045s-1.811-.878-1.947-.519a10,10,0,0,0,1.6,1.124Z" transform="translate(-132.888 -80.359)" fill="#3c2415"/>
          <path id="Pfad_1587" data-name="Pfad 1587" d="M255.1,142.042s-.064-1.861-.669-2.052c-.209.191.182,2.061.182,2.061Z" transform="translate(-138.635 -76.298)" fill="#3c2415"/>
          <path id="Pfad_1588" data-name="Pfad 1588" d="M249.986,143.894s-.983-1.383-1.47-1.374c-.064.218.974,1.683.974,1.683Z" transform="translate(-135.446 -77.677)" fill="#3c2415"/>
          <path id="Pfad_1589" data-name="Pfad 1589" d="M249.485,145.034a4.468,4.468,0,0,1,5.214,2.193c-.059-2.093-2.461-3.321-5.028-3.044a5.442,5.442,0,0,0-3.835,2.835c-.387.778-.537,2.384-.082,2.766C245.863,149.366,246.136,145.749,249.485,145.034Z" transform="translate(-133.789 -78.562)" fill="#3c2415"/>
          <path id="Pfad_1590" data-name="Pfad 1590" d="M221.855,165.429l-.282-.359a2.376,2.376,0,0,0,.983-2.5c-.05-.109-.146-.109-.769.1a6.388,6.388,0,0,1-1.8.387c-2.006.073-2.507-2.784-2.525-2.907l.51-.091c0,.027.455,2.607,2.029,2.552a5.578,5.578,0,0,0,1.629-.355c.573-.191,1.165-.391,1.406.127a2.8,2.8,0,0,1-1.183,3.044Z" transform="translate(-118.521 -87.237)" fill="url(#radial-gradient-7)"/>
          <path id="Pfad_1591" data-name="Pfad 1591" d="M199.873,195.515l14.086,3.021s-.887,9.141-8.836,7.958-5.25-10.983-5.25-10.983Z" transform="translate(-108.696 -106.558)" fill="#923732"/>
          <path id="Pfad_1592" data-name="Pfad 1592" d="M209.232,212.686a7.145,7.145,0,0,0-5.082,1.615,6.6,6.6,0,0,0,3.54,1.547,6.813,6.813,0,0,0,5.6-1.351C213.773,213.309,211.011,212.886,209.232,212.686Z" transform="translate(-111.267 -115.908)" fill="#fd827e"/>
          <path id="Pfad_1593" data-name="Pfad 1593" d="M213.261,198.571a2.083,2.083,0,0,0,.4-.209l-10.5-2.252C205.176,199.09,210.267,200.064,213.261,198.571Z" transform="translate(-110.727 -106.885)" fill="#fff"/>
          <path id="Pfad_1594" data-name="Pfad 1594" d="M156.526,73.523a4.037,4.037,0,0,0,3.763-2.325,3.84,3.84,0,0,0,5.928.778,4.47,4.47,0,0,0,6.028,2.73,4.39,4.39,0,0,0,5.023,2.8,4.141,4.141,0,0,0,4.791,3.731c-1.151,1.269.364,3.713,2.011,3.253a3.667,3.667,0,0,0,2.48,4.527,6.438,6.438,0,0,0,.778-4.968,2.7,2.7,0,0,0,.851-2.248,3.381,3.381,0,0,0-1.674-2.844c1.647-1.97-.587-5.4-2.138-4.645.71-2.994-2.161-4.377-3.235-3.644.751-3.9.414-10.5-5.824-10.929-.45-2.875-6.042-5.528-7.662-3.581-1.2-4.04-6.952-4.891-9.459-2.971-1.283-2.38-6.779-2.939-8.021.632-3.33-3.335-10.073-.7-10.169,2.343a7.826,7.826,0,0,0-7.8.127,7.7,7.7,0,0,0-3.549,4.436c-1.888-.391-4.664-.091-5.81,1.46s-2,4.2-1.62,5.505c-2.343.532-3.526.869-5.273,2.912-.792.924-1.074,3.767-.5,5.432a6.736,6.736,0,0,0-3.89,3.431c-.946,1.747-1.356,4.991.487,5.569-2.188.3-3.185,2.812-3.494,5s2.2,8.6,4.218,9.5a3.6,3.6,0,0,0-1.761,3.394,3.717,3.717,0,0,0,1.929,3.371c-2.484,1.611-.755,6.3,2.138,6.688-.946,1.024.168,5.824,3.958,4.554.7,5.232,7.439,6.279,10.119,4.327-1.965-1.8-3.717-6.429-3.6-7.962s.737-3.781.168-5.2c2.493-1.733,3.4-5.068.792-6.629,1.6-.1,4.24-1.888,4.277-3.49a9.692,9.692,0,0,0-1.4-5.278,5.593,5.593,0,0,0,4.8-2.985,5.31,5.31,0,0,0,.059-5.31,3.866,3.866,0,0,0,5.237-5.273c3.067,2.744,6.893-2.366,6.716-5.1a4.55,4.55,0,0,0,6.8-3.581,4.2,4.2,0,0,0,3.522,2.48Z" transform="translate(-59.148 -27.944)"/>
          <path id="Pfad_1595" data-name="Pfad 1595" d="M144.18,188.881a7.3,7.3,0,0,1-8.908-3.49c-2.389-4.55,1.6-10.938,5.978-8.476A60.927,60.927,0,0,0,144.18,188.881Z" transform="translate(-73.336 -96.125)" fill="#dd8053"/>
          <path id="Pfad_1596" data-name="Pfad 1596" d="M141.083,182.5c-2.1,2.753-1.183,5.742,1.633,6.9a5.051,5.051,0,0,0,3.594.036,62.713,62.713,0,0,1-1.779-7.384,3.139,3.139,0,0,0-3.444.446Z" transform="translate(-76.267 -99.061)" fill="#bd8bb0" opacity="0.45"/>
          <path id="Pfad_1598" data-name="Pfad 1598" d="M166.753,191.82a5.57,5.57,0,1,1,5.746-5.387A5.568,5.568,0,0,1,166.753,191.82Z" transform="translate(-87.947 -98.477)" fill="url(#radial-gradient-8)"/>
          <path id="Pfad_1599" data-name="Pfad 1599" d="M103.75,72.6s-4.172-6.151-1.078-24.96c.773-4.7,4.368-16.921,9.459-22.758a11.841,11.841,0,0,1,6.925-4.259c6.715-1.606,21.3.787,27.74,2.734,20.733,6.27,28.736,20.729,28.736,20.729s-13.982-5.351-29.078-3.33c-8.021,1.074-15.883,3.667-25.406,9.887-7.862,5.137-13.294,12.011-17.3,21.957Z" transform="translate(-55.337 -10.956)" fill="#cf3a23"/>
          <path id="Pfad_1600" data-name="Pfad 1600" d="M114.534,50.069c-2.953,2.835-6.938,6.338-7.844,3.922-1.511-2.716,3.158-9.181,5.432-13.276,2.73-3.185,5.733-7.243,2.111-7.544-2.111.605-4.222-6.033,3.4-11.051a12.219,12.219,0,0,0-5.5,3.867c-5.091,5.837-8.69,18.063-9.459,22.758-3.094,18.809,1.078,24.96,1.078,24.96,4.008-9.946,9.441-16.821,17.3-21.957,9.523-6.224,17.385-8.813,25.406-9.887,15.1-2.02,29.078,3.33,29.078,3.33a36.573,36.573,0,0,0-5.583-7.011C149.608,31.411,128.111,36.493,114.534,50.069Z" transform="translate(-55.342 -12.056)" fill="#bf3a23" opacity="0.5"/>
          <path id="Pfad_1601" data-name="Pfad 1601" d="M109.882,101.682s1.5-18.786,27.585-27.772c28.145-9.691,40.557-1.115,40.557-1.115s3.872-3.176.3-8.731a21.841,21.841,0,0,0-6.706-6.7c-8.581-3.321-30.315-3.717-44.87,5.328-12.321,7.657-21.1,14.6-23.918,26.548-1.092,4.118,5.009,13.749,7.052,12.439Z" transform="translate(-55.977 -30.087)" fill="#ff6631"/>
          <path id="Pfad_1602" data-name="Pfad 1602" d="M106.485,115.865a31.011,31.011,0,0,0-1.315,3.08c.946,4.613,3.681,8.363,6.966,11.848a28.906,28.906,0,0,1,1.1-2.835c-2.525-3.867-5.9-7.594-6.756-12.1Z" transform="translate(-57.321 -63.147)" fill="#f99250"/>
          <path id="Pfad_1603" data-name="Pfad 1603" d="M157.01,69.05c3.071,5.446,4.277,10.141,7.23,12.658.842-.337,1.706-.66,2.607-.974-2.7-4.227-4.627-8.827-7.125-13.153C158.8,68.04,157.893,68.526,157.01,69.05Z" transform="translate(-85.575 -36.833)" fill="#f99250"/>
          <path id="Pfad_1604" data-name="Pfad 1604" d="M184.167,58.86c-1.11.255-2.22.537-3.317.851,2.693,4.418,5.291,8.877,6.62,13.95,1.242-.323,2.443-.6,3.613-.846C188.94,68.578,187.406,63.141,184.167,58.86Z" transform="translate(-98.568 -32.081)" fill="#f99250"/>
          <path id="Pfad_1605" data-name="Pfad 1605" d="M210.423,55.385c-1.024.045-2.057.118-3.1.209,2.411,4.659,5.46,9.031,7.821,13.941,1.046-.073,2.043-.109,3-.127-2.07-5.123-5.282-9.282-7.716-14.027Z" transform="translate(-112.995 -30.184)" fill="#f99250"/>
          <path id="Pfad_1606" data-name="Pfad 1606" d="M233.387,55.8c-1.028-.123-2.1-.223-3.217-.291a33.84,33.84,0,0,1,5.806,14.182c1.279.123,2.439.3,3.5.5-.382-4.5-1.538-8.508-6.088-14.382Z" transform="translate(-125.448 -30.255)" fill="#f99250"/>
          <path id="Pfad_1607" data-name="Pfad 1607" d="M257.224,65.551a21.841,21.841,0,0,0-6.706-6.7,24.188,24.188,0,0,0-3.057-.924c3.344,1.929,4.268,4.4,6.074,6.479a12.381,12.381,0,0,1,1.642,8.963,12.184,12.184,0,0,1,1.743.905s3.872-3.176.3-8.731Z" transform="translate(-134.872 -31.574)" fill="#f99250"/>
          <path id="Pfad_1608" data-name="Pfad 1608" d="M133.63,84.206c2.284,3.872,3.986,8.026,6.138,11.966q1.556-1.181,3.376-2.311c-2.052-3.99-4.409-7.835-6.8-11.661C135.414,82.864,134.5,83.533,133.63,84.206Z" transform="translate(-72.832 -44.801)" fill="#f99250"/>
          <path id="Pfad_1609" data-name="Pfad 1609" d="M118.072,97.93c-.833.869-1.624,1.765-2.352,2.689a45.469,45.469,0,0,0,6.752,11.661c.555-.751,1.174-1.515,1.847-2.284C121.389,106.361,118.75,102.38,118.072,97.93Z" transform="translate(-63.071 -53.375)" fill="#f99250"/>
          <path id="Pfad_1610" data-name="Pfad 1610" d="M183.267,83.1c-11.279-3.33-25.037-1.442-36.4,2.047-15.7,4.818-27.9,14.159-32.508,30.188.746.632,1.415.9,1.879.6,0,0,1.5-18.786,27.585-27.772,28.145-9.691,40.557-1.115,40.557-1.115a5.6,5.6,0,0,0,1.606-2.657,10.871,10.871,0,0,0-2.716-1.292Z" transform="translate(-62.329 -44.345)" fill="#a43322" opacity="0.4"/>
          <path id="Pfad_1611" data-name="Pfad 1611" d="M173.754,70a48.249,48.249,0,0,1,7.443,2.234,10.773,10.773,0,0,0-1.024-2.011c-.15-.237-.323-.491-.51-.751-20.065-6.547-42.031-2.038-58.688,11.443a52.316,52.316,0,0,0-14.887,21c.332.687.7,1.356,1.087,1.988,9.7-24.123,39.733-38.682,66.577-33.905Z" transform="translate(-57.822 -36.247)" fill="#ffe6db" opacity="0.44"/>
          <path id="Pfad_1612" data-name="Pfad 1612" d="M174.748,59.773a21.377,21.377,0,0,0-3.126-2.407c-8.581-3.321-30.315-3.717-44.87,5.328-12.321,7.657-21.1,14.6-23.918,26.548a7.481,7.481,0,0,0,.378,3.931,28.808,28.808,0,0,1,5-12.048c15.028-21.193,42.459-28.677,66.532-21.352Z" transform="translate(-55.977 -30.087)" fill="#ffe6db" opacity="0.44"/>
        </g>
      </g>
    </g>
  </g>
</svg>
