<svg xmlns="http://www.w3.org/2000/svg" xmlns:xlink="http://www.w3.org/1999/xlink" width="220.035" height="267.98" viewBox="0 0 220.035 267.98">
  <defs>
    <clipPath id="clip-path">
      <rect id="Rechteck_718" data-name="Rechteck 718" width="220.035" height="251.979" fill="none"/>
    </clipPath>
    <clipPath id="clip-path-3">
      <rect id="Rechteck_704" data-name="Rechteck 704" width="73.675" height="24.693" fill="none"/>
    </clipPath>
    <clipPath id="clip-path-4">
      <rect id="Rechteck_705" data-name="Rechteck 705" width="14.316" height="21.613" fill="none"/>
    </clipPath>
    <clipPath id="clip-path-5">
      <rect id="Rechteck_706" data-name="Rechteck 706" width="86.861" height="54.095" fill="none"/>
    </clipPath>
    <clipPath id="clip-path-6">
      <rect id="Rechteck_707" data-name="Rechteck 707" width="20.281" height="21.614" fill="none"/>
    </clipPath>
    <clipPath id="clip-path-7">
      <rect id="Rechteck_708" data-name="Rechteck 708" width="23.005" height="21.476" fill="none"/>
    </clipPath>
    <clipPath id="clip-path-8">
      <rect id="Rechteck_709" data-name="Rechteck 709" width="67.756" height="41.786" fill="none"/>
    </clipPath>
    <clipPath id="clip-path-9">
      <rect id="Rechteck_710" data-name="Rechteck 710" width="7.8" height="6.102" fill="none"/>
    </clipPath>
    <clipPath id="clip-path-10">
      <rect id="Rechteck_711" data-name="Rechteck 711" width="6.758" height="11.208" fill="none"/>
    </clipPath>
    <clipPath id="clip-path-11">
      <rect id="Rechteck_712" data-name="Rechteck 712" width="9.168" height="16.061" fill="none"/>
    </clipPath>
    <clipPath id="clip-path-12">
      <rect id="Rechteck_713" data-name="Rechteck 713" width="10.031" height="18.691" fill="none"/>
    </clipPath>
    <clipPath id="clip-path-13">
      <rect id="Rechteck_714" data-name="Rechteck 714" width="23.248" height="12.161" fill="none"/>
    </clipPath>
    <clipPath id="clip-path-14">
      <rect id="Rechteck_715" data-name="Rechteck 715" width="19.081" height="5.567" fill="none"/>
    </clipPath>
    <clipPath id="clip-path-15">
      <rect id="Rechteck_716" data-name="Rechteck 716" width="60.067" height="54.163" fill="none"/>
    </clipPath>
  </defs>
  <g id="girlYellow" transform="translate(-489.965 -661.61)">
    <path id="Pfad_3212" data-name="Pfad 3212" d="M3081.459,831.695c-14.753-4.035,43.732-13.1,139.1,3.57C3220.216,836.694,3161.889,867.65,3081.459,831.695Z" transform="translate(-2549.893 80.578)" fill="#83b1c9" opacity="0.14"/>
    <g id="Gruppe_1695" data-name="Gruppe 1695" transform="translate(489.965 661.61)">
      <g id="Gruppe_1690" data-name="Gruppe 1690" clip-path="url(#clip-path)">
        <g id="Gruppe_1689" data-name="Gruppe 1689">
          <g id="Gruppe_1688" data-name="Gruppe 1688" clip-path="url(#clip-path)">
            <path id="Pfad_3138" data-name="Pfad 3138" d="M657.35,402.136a1.359,1.359,0,0,1,.925.806,7.824,7.824,0,0,1,.982,3.522,23.1,23.1,0,0,0,2.987-2.389l7.313,9.535c-1.673,1.349-5.405,3.453-7.422,3.785-1.565.257-3.366.433-4.55-.621a9.22,9.22,0,0,1-2.349-4.081s0-.01-.007-.019l.007.019c-.006.019-.077,0-.043.041a2.823,2.823,0,0,1-.34-2.118,14.521,14.521,0,0,1,.674-2.094,13.2,13.2,0,0,0,.727-4.4,3.5,3.5,0,0,1,.129-1.278,1.019,1.019,0,0,1,.969-.711" transform="translate(-492.163 -302.258)" fill="#ffc294"/>
            <path id="Pfad_3139" data-name="Pfad 3139" d="M676.8,438.919a6.7,6.7,0,0,1-2.8-.144,18.792,18.792,0,0,1-2.388-1.123.342.342,0,0,0-.4.516c1.07,1.758,3.894,2.213,5.741,1.874a.567.567,0,0,0-.149-1.123" transform="translate(-504.466 -328.933)" fill="#ef8860"/>
            <path id="Pfad_3140" data-name="Pfad 3140" d="M628.6,437.466c2.3,2.236,4.568,4.514,6.863,6.75-1.593,2.663-4.514,7.089-7.679,11.572a88.724,88.724,0,0,0-7.866-10.885c3.068-2.6,5.979-5.3,8.681-7.436" transform="translate(-465.957 -328.816)" fill="#56b085"/>
            <path id="Pfad_3141" data-name="Pfad 3141" d="M457.657,465.834c3.281,1.722,9.366,3.713,12.831,4.948h0a80.664,80.664,0,0,0,9.341,2.7q1.648-.942,3.256-1.955a64.61,64.61,0,0,0,7.023-5.3,88.732,88.732,0,0,1,7.866,10.885c-5.006,7.091-10.62,14.324-12.545,14.942-6.221,2-17.578.139-20.522-.089h0a104.518,104.518,0,0,1-12.414-1.707q-.663-.13-1.323-.273-1.987-.421-3.956-.923c4.076-7.623,5.887-15.851,10.442-23.225" transform="translate(-336.143 -350.138)" fill="#428766"/>
            <path id="Pfad_3142" data-name="Pfad 3142" d="M196.99,478.071c-7.124,5.842-10.41,15.14-12.212,24.175-2.83,14.189-2.795,28.774-4.223,43.172s-4.515,29.1-12.743,41c1.348,5.25,7.224,7,12.624,6.529s10.31-3.156,15.371-5.1,10.946-3.107,15.757-.608c7.243,3.762,9.681,14.56,17.653,16.306,9.884,2.165,18.15-11.807,27.94-9.253,2.259.589,4.186,2.017,6.2,3.192s4.352,2.138,6.637,1.66.169-5.96-.687-8.132C255.442,555.833,250.6,521.107,248.7,483.339c-16.448.192-35.269-4.728-51.709-5.268" transform="translate(-126.135 -359.336)" fill="#ffeabf"/>
            <path id="Pfad_3143" data-name="Pfad 3143" d="M63.429,8.72A8.451,8.451,0,0,0,46.9,5.969,14.228,14.228,0,0,0,31.933,2.793a14.228,14.228,0,0,0-8.8,12.516,13.27,13.27,0,0,0-14.7,3.561,13.269,13.269,0,0,0-1.241,15.07A8.832,8.832,0,0,0,4.819,50.491,8.94,8.94,0,0,0,8.844,63.932a7.366,7.366,0,0,0,3.53,11.8c-2.2.868-3.165,3.127-3.187,5.494a17.649,17.649,0,0,0,1.8,6.818,18.894,18.894,0,0,1,1.892,6.8c.041,2.367-1.037,4.917-3.19,5.9a15.413,15.413,0,0,0,17-9.348,16.165,16.165,0,0,0-6.2-18.936A6.192,6.192,0,0,0,22,66.778a5.293,5.293,0,0,0-4.034-3.607,6.278,6.278,0,0,0-.474-12.228A6.046,6.046,0,0,0,21.1,39.793a8.683,8.683,0,0,0,8.361-1.065,9.436,9.436,0,0,0,4.108-7.8c0,.35.185.254.188.6A11.841,11.841,0,0,0,46.337,24.9c2.36-.232,4.185-1.87,5.694-3.7,3.514-4.261,7.884-8.216,11.4-12.478" transform="translate(0 0.001)" fill="#f27b5f"/>
            <path id="Pfad_3144" data-name="Pfad 3144" d="M204.486,26.891l-4.251-7.222c-11.3,4.23-20.949,14.023-22.749,25.952,2.406,1.279,5.054,2.068,7.46,3.347Z" transform="translate(-133.405 -14.784)" fill="#56b085"/>
            <path id="Pfad_3145" data-name="Pfad 3145" d="M227.6,120.464c-9.083-.272-17.387-6-22.562-13.467s-7.6-16.505-8.981-25.488C194.746,72.97,194.349,64,197.4,55.918a36.062,36.062,0,0,1,16.211-18.27,49.135,49.135,0,0,1,23.946-5.887c14.674-.026,29.993,6.15,37.935,18.49,6.365,9.889,7.274,22.816,3.363,33.907s-12.317,20.321-22.469,26.258-21.954,8.723-33.708,9.132Z" transform="translate(-146.624 -23.873)" fill="#f27b5f"/>
            <path id="Pfad_3146" data-name="Pfad 3146" d="M391.909,416.283l.79,13.518-16.378-.334.873-13.616Z" transform="translate(-282.857 -312.569)" fill="#ffc294"/>
            <path id="Pfad_3147" data-name="Pfad 3147" d="M572.659,977.121l9.766,2.5a1.1,1.1,0,0,1-.049,1.334c-3.867,3.035-9.348,2.654-14.082,3.979a10.991,10.991,0,0,1-.622-5.9c1.911-.45,3.118-1.308,4.987-1.909" transform="translate(-426.567 -734.441)" fill="#f4b942"/>
            <path id="Pfad_3148" data-name="Pfad 3148" d="M422.489,710.711a185.937,185.937,0,0,1,13.867,14.7c1.562,1.847,3.068,3.7,4.462,5.511,1.925,2.5,3.64,4.923,5,7.121,2.876,5.733,10.375,18.336,12.607,24.353,0,0,4.878-1.473,6.159-2.062a117.44,117.44,0,0,0-.749-23.116h0a169.637,169.637,0,0,0-4.273-22c-.579-2.278-1.19-4.536-1.814-6.736a162.828,162.828,0,0,0-7.28-21.005l0,0c-.3,0-27.98,23.244-27.98,23.244" transform="translate(-317.559 -516.726)" fill="#428766"/>
            <path id="Pfad_3149" data-name="Pfad 3149" d="M560.724,254.044c.091-5.283.291-9.674,2.349-14.541,1.581-3.736,6.4-5.576,10.206-4.178a9.766,9.766,0,0,1,6.006,9.634,11.918,11.918,0,0,1-6.607,9.567,15.373,15.373,0,0,1-11.835.53Z" transform="translate(-421.461 -176.528)" fill="#ffc294"/>
            <path id="Pfad_3150" data-name="Pfad 3150" d="M580.027,268.244a3.866,3.866,0,0,1,3.183,1.92c.536,1.293-.223,2.835-1.194,4a12.93,12.93,0,0,1-7.789,4.4c-1.69.265-3.243-.087-3.93-1.611a6.852,6.852,0,0,1-.374-3.625c.338-2.185,2.378-3.353,4.36-4.222a10.65,10.65,0,0,1,5.744-.856" transform="translate(-428.31 -201.55)" fill="#f4a178"/>
            <path id="Pfad_3151" data-name="Pfad 3151" d="M232.011,100.126c1.4,10.076,2.975,20.253,6.911,29.631s10.518,18.018,19.666,22.464c7.058,3.429,15.134,4.159,22.977,3.908,6.134-.194,12.369-.986,17.918-3.606,8.618-4.069,14.661-12.253,17.687-21.379a44.08,44.08,0,0,0,1.6-6.4,58.138,58.138,0,0,0,.569-14.3,102.065,102.065,0,0,0-3.976-20.384,36.818,36.818,0,0,0-21.169-23.677c-10.175-4.11-21.828-3.583-32.239-.116A48.221,48.221,0,0,0,241.82,78.689c-5.44,5.823-10.9,13.547-9.809,21.437" transform="translate(-174.282 -47.719)" fill="#ffc294"/>
            <path id="Pfad_3152" data-name="Pfad 3152" d="M497.058,184.222a2.7,2.7,0,0,1,1.194,1.952,1.925,1.925,0,0,1-1.088,1.572,4.493,4.493,0,0,1-1.945.414,13.882,13.882,0,0,1-6.86-1.453c-1.479-.767-5.2-3.125-3.312-5.075a2.324,2.324,0,0,1,1.127-.574c2.64-.665,5.908.219,8.261,1.426a14.1,14.1,0,0,1,2.624,1.738" transform="translate(-364.187 -135.919)" fill="#dd624a"/>
            <path id="Pfad_3153" data-name="Pfad 3153" d="M308.794,192.953a2.7,2.7,0,0,0-.359,2.26,1.925,1.925,0,0,0,1.606,1.038,4.487,4.487,0,0,0,1.956-.36,13.88,13.88,0,0,0,5.786-3.961c1.075-1.273,3.612-4.872,1.125-5.954a2.322,2.322,0,0,0-1.26-.1c-2.694.393-5.377,2.457-7.092,4.471a14.093,14.093,0,0,0-1.762,2.608" transform="translate(-231.733 -139.68)" fill="#dd624a"/>
            <g id="Gruppe_1651" data-name="Gruppe 1651" transform="translate(65.399 83.762)" opacity="0.2" style="mix-blend-mode: overlay;isolation: isolate">
              <g id="Gruppe_1650" data-name="Gruppe 1650">
                <g id="Gruppe_1649" data-name="Gruppe 1649" clip-path="url(#clip-path-3)">
                  <path id="Pfad_3154" data-name="Pfad 3154" d="M317.145,355.522a56.269,56.269,0,0,0,19.849-10.246A32.675,32.675,0,0,1,323.121,358.3c-5.548,2.62-11.784,3.413-17.917,3.607-7.843.249-15.919-.479-22.976-3.909-8.585-4.173-14.908-12.036-18.909-20.74,13.331,15.147,32.443,24.163,53.826,18.264" transform="translate(-263.319 -337.258)" fill="#230211"/>
                </g>
              </g>
            </g>
            <g id="Gruppe_1654" data-name="Gruppe 1654" transform="translate(130.936 62.068)" opacity="0.2">
              <g id="Gruppe_1653" data-name="Gruppe 1653">
                <g id="Gruppe_1652" data-name="Gruppe 1652" clip-path="url(#clip-path-4)">
                  <path id="Pfad_3155" data-name="Pfad 3155" d="M534.18,270.946a7.983,7.983,0,0,0,4.969.318,44,44,0,0,0,1.6-6.4,58.138,58.138,0,0,0,.569-14.3c-3.889-1.284-8.234-.784-11.3,2.247-5.316,5.25-2.646,15.517,4.167,18.129" transform="translate(-527.197 -249.908)" fill="#f25c68"/>
                </g>
              </g>
            </g>
            <path id="Pfad_3156" data-name="Pfad 3156" d="M441.778,292.295a5.63,5.63,0,0,0,2.08-6.265c.051.132-.26.654-.32.786q-.184.4-.4.792a11.262,11.262,0,0,1-.986,1.476,11.825,11.825,0,0,1-2.557,2.4,11.55,11.55,0,0,1-3.185,1.55c-.152.046-.447.056-.453.258,0,.15.226.3.335.36a3.045,3.045,0,0,0,1.62.068,7.691,7.691,0,0,0,3.867-1.425" transform="translate(-327.681 -214.991)" fill="#ef8860"/>
            <path id="Pfad_3157" data-name="Pfad 3157" d="M505.989,248.728c-.155.711-.523,1.416-1.312,1.388-.771-.028-1.436-.825-1.742-1.465a5.249,5.249,0,0,1-.367-3.511c.143-.571.479-1.194,1.061-1.277a1.453,1.453,0,0,1,1.155.513,4.776,4.776,0,0,1,1.3,3.613,4.523,4.523,0,0,1-.1.738" transform="translate(-377.636 -183.29)" fill="#470621"/>
            <path id="Pfad_3158" data-name="Pfad 3158" d="M347.253,263.417c-.155.711-.523,1.416-1.312,1.388-.771-.028-1.436-.825-1.743-1.465a5.249,5.249,0,0,1-.367-3.511c.143-.571.479-1.194,1.061-1.276a1.452,1.452,0,0,1,1.156.513,4.777,4.777,0,0,1,1.3,3.613,4.52,4.52,0,0,1-.1.738" transform="translate(-258.324 -194.331)" fill="#470621"/>
            <path id="Pfad_3159" data-name="Pfad 3159" d="M292.3,512.653a37.057,37.057,0,0,1,1.565-5.23c.672-1.779,1.453-3.941,2.249-6.349a121.077,121.077,0,0,0,3.94-14.733c2.637-13.689,2.154-27.419,5.111-29.564,5.776-4.2,30.051-2.158,36.271.64,1.638.735,8.111,13.948,10.332,30.328.7,5.184,1.1,10.008,1.312,14.18.113,2.182.176,4.186.207,5.968.094,5.585-.13,9.016-.13,9.016l-.058,0c-.16,13.921-13.824,25.166-30.658,25.166-11.308,0-24.848-4.744-29.352-16.066a22.893,22.893,0,0,1-.788-13.35" transform="translate(-219.235 -341.53)" fill="#56b085"/>
            <path id="Pfad_3160" data-name="Pfad 3160" d="M380.487,348.506c-5.331-.992-11.045-3.332-14.162-7.763a3.448,3.448,0,0,1,1.741-.808,25.691,25.691,0,0,0,10.184,5.214,22.871,22.871,0,0,0,13.6-.787,3.141,3.141,0,0,1,1.562,4.131c-1.352,4.168-6.349,5.369-10.223,5.508a19.137,19.137,0,0,1-15.954-7.5,24.058,24.058,0,0,0,13.257,2.009" transform="translate(-275.344 -255.509)" fill="#fff"/>
            <path id="Pfad_3161" data-name="Pfad 3161" d="M378.148,350.952a24.058,24.058,0,0,1-13.257-2.009c-.191-.26-.377-.524-.554-.8a5.739,5.739,0,0,1-1.124-3.074,2.562,2.562,0,0,1,.542-1.64,2.352,2.352,0,0,1,.231-.244c3.116,4.431,8.831,6.771,14.162,7.763" transform="translate(-273.005 -257.954)" fill="#dbd5d1"/>
            <path id="Pfad_3162" data-name="Pfad 3162" d="M373.334,339.656a6.25,6.25,0,0,1,2.331.037c2.845.581,5.481,1.843,8.248,2.684,2.9.881,5.9.59,8.881.706a10.268,10.268,0,0,1,4.319,1,22.871,22.871,0,0,1-13.6.787,25.693,25.693,0,0,1-10.183-5.214" transform="translate(-280.612 -255.228)" fill="#dbd5d1"/>
            <path id="Pfad_3163" data-name="Pfad 3163" d="M28.652,289.264a.8.8,0,0,1,.571-1.044q3.855-.813,7.637-1.921c2.51-.741,4.978-1.645,7.5-2.331a.43.43,0,0,1,.33.783c-.169.091-.341.178-.513.266l.2-.069c1.093-.381,1.522,1.309.473,1.715q-1.514.586-3.066,1.072a92.821,92.821,0,0,1-12.533,3.576c-1.32.256-1.9-1.678-.6-2.047" transform="translate(-20.989 -213.429)" fill="#56b085"/>
            <path id="Pfad_3164" data-name="Pfad 3164" d="M540.332,857.743a121.185,121.185,0,0,0-19.569,12.045,244.408,244.408,0,0,1,12.076,23.147,24.16,24.16,0,0,0,6.888-3.749c.226-10.3.379-21.148.6-31.443" transform="translate(-391.425 -644.712)" fill="#f4b942"/>
            <path id="Pfad_3165" data-name="Pfad 3165" d="M298.715,581.346c12.155-6.875,25.417-14.309,36.659-21.919,8.774,6.668,15.492,13.741,23.207,21.225-.031-1.782-.094-3.786-.207-5.968q-11.572-11.751-23.144-23.5a259.3,259.3,0,0,0-33.822,22.65c-.979,2.961-1.934,5.55-2.693,7.512" transform="translate(-224.525 -414.29)" fill="#f4b942"/>
            <path id="Pfad_3166" data-name="Pfad 3166" d="M478.324,781.076c1.562,1.847,3.068,3.7,4.462,5.511,5.137-5.748,10.14-11.565,14.59-17.257,1.418.5,2.8,1.016,4.158,1.549-.579-2.278-1.19-4.536-1.815-6.736q-2.506-1.305-5.012-2.613a251.6,251.6,0,0,0-16.382,19.545" transform="translate(-359.526 -572.395)" fill="#f4b942"/>
            <g id="Gruppe_1657" data-name="Gruppe 1657" transform="translate(57.588 15.768)" opacity="0.3" style="mix-blend-mode: overlay;isolation: isolate">
              <g id="Gruppe_1656" data-name="Gruppe 1656">
                <g id="Gruppe_1655" data-name="Gruppe 1655" clip-path="url(#clip-path-5)">
                  <path id="Pfad_3167" data-name="Pfad 3167" d="M241.82,78.688a48.218,48.218,0,0,1,20.134-12.416c10.411-3.468,22.064-3.994,32.239.116a36.817,36.817,0,0,1,21.169,23.677,114.33,114.33,0,0,1,3.368,15c-22.728,1.222-45.816-3.827-61.99-21.011-2.828,13.053-7.832,27.63-21.1,33.286-.2.082-.392.161-.588.239-1.356-5.736-2.228-11.613-3.039-17.457-1.1-7.89,4.37-15.614,9.809-21.437" transform="translate(-231.87 -63.487)" fill="#230211"/>
                </g>
              </g>
            </g>
            <path id="Pfad_3168" data-name="Pfad 3168" d="M208.222,75.377a80.74,80.74,0,0,0,19.012-41.618c18.447,18.588,43.892,30.805,69.981,33.081,4.422-9.606,6.73-32.028-2.744-42.6s-30.631-14.144-44.826-14-29.254,6.531-39.728,16.115c-4.92,4.5-9.238,10.015-10.75,16.51-1.305,5.608-.41,11.549,1.541,16.966a90.458,90.458,0,0,0,7.514,15.544" transform="translate(-149.239 -7.695)" fill="#f27b5f"/>
            <path id="Pfad_3169" data-name="Pfad 3169" d="M330.572,77.256a128.6,128.6,0,0,0,19.741,16.3,121.228,121.228,0,0,0,22.766,11.752c5.052,1.965,10.3,3.8,15.755,4.1.373.021.378.6,0,.585a48.575,48.575,0,0,1-14.122-3.115,111.458,111.458,0,0,1-11.869-4.9A115.874,115.874,0,0,1,340.759,88.1a100.22,100.22,0,0,1-10.966-10.067c-.482-.518.273-1.281.779-.779" transform="translate(-247.769 -57.945)" fill="#dd624a"/>
            <path id="Pfad_3170" data-name="Pfad 3170" d="M384.892,67.789a71.95,71.95,0,0,0,36.492,24.447.3.3,0,0,1-.159.577,69.86,69.86,0,0,1-30.481-16.878,63.313,63.313,0,0,1-6.727-7.47c-.382-.5.479-1.169.876-.676" transform="translate(-288.57 -50.823)" fill="#dd624a"/>
            <path id="Pfad_3171" data-name="Pfad 3171" d="M426.68,60.5A49.144,49.144,0,0,0,445.7,73.4c.38.141.224.751-.17.616a46.808,46.808,0,0,1-19.6-12.776c-.451-.5.283-1.238.74-.74" transform="translate(-320.046 -45.352)" fill="#dd624a"/>
            <path id="Pfad_3172" data-name="Pfad 3172" d="M228.784,152.371a57.392,57.392,0,0,0,15.78-35.015c.031-.4.646-.405.626,0a54.664,54.664,0,0,1-15.685,35.736.51.51,0,0,1-.721-.721" transform="translate(-171.854 -87.983)" fill="#dd624a"/>
            <path id="Pfad_3173" data-name="Pfad 3173" d="M210.567,171.858a49.794,49.794,0,0,0,15.449-25.735c.1-.438.752-.25.669.184a45.86,45.86,0,0,1-15.32,26.348c-.55.458-1.345-.306-.8-.8" transform="translate(-158.131 -109.644)" fill="#dd624a"/>
            <path id="Pfad_3174" data-name="Pfad 3174" d="M213.364,283.164c-.785-5.226-1.56-9.552-4.242-14.105-2.058-3.5-7.076-4.686-10.667-2.8a9.766,9.766,0,0,0-4.687,10.341,11.917,11.917,0,0,0,7.808,8.615,15.372,15.372,0,0,0,11.8-1.031Z" transform="translate(-145.511 -199.46)" fill="#ffc294"/>
            <path id="Pfad_3175" data-name="Pfad 3175" d="M208.743,299.335a3.867,3.867,0,0,0-2.9,2.322c-.361,1.352.594,2.781,1.709,3.806a12.93,12.93,0,0,0,8.3,3.333c1.71.04,3.2-.513,3.684-2.113a6.85,6.85,0,0,0-.106-3.643c-.623-2.122-2.8-3.011-4.877-3.612a10.651,10.651,0,0,0-5.806-.093" transform="translate(-154.659 -224.721)" fill="#f4a178"/>
            <g id="Gruppe_1660" data-name="Gruppe 1660" transform="translate(65.657 67.38)" opacity="0.2">
              <g id="Gruppe_1659" data-name="Gruppe 1659">
                <g id="Gruppe_1658" data-name="Gruppe 1658" clip-path="url(#clip-path-6)">
                  <path id="Pfad_3176" data-name="Pfad 3176" d="M281.945,288.49c-2.437,3.4-6.294,5.5-10.6,3.845-6.813-2.612-9.482-12.879-4.167-18.128,3.545-3.5,8.791-3.626,13.069-1.531,5.8,2.843,5.314,10.767,1.7,15.814" transform="translate(-264.361 -271.297)" fill="#f25c68"/>
                </g>
              </g>
            </g>
            <path id="Pfad_3177" data-name="Pfad 3177" d="M278.284,629.991c-.818,1.359-.312,3.1.23,4.586a38.836,38.836,0,0,0,3.814,8.226c.31.47.878.984,1.353.682a.906.906,0,0,0,.341-.913,28.7,28.7,0,0,0-.856-3.044c.137-.169.156-.234.359-.156a18.16,18.16,0,0,0,3.352,3.983,1.319,1.319,0,0,0,1.426.331c.521-.31.1-1.084-.079-1.6-.461-1.368-1.278-2.888-1.682-4.119a2.7,2.7,0,0,1,.379-.393,20.828,20.828,0,0,0,5.088,2.672,2.672,2.672,0,0,0,1.07.215.974.974,0,0,0,.874-.565c.492-1.394-4.062-3.727-4.749-5.3.233-.336.1-.272.335-.607a33.546,33.546,0,0,0,3.777,1.074,2.549,2.549,0,0,0,.869.087.813.813,0,0,0,.627-1.312,2.539,2.539,0,0,0-.634-.637,30.878,30.878,0,0,0-5.454-3.465A7.831,7.831,0,0,0,292,628.115a1.359,1.359,0,0,0,.621-1.058,1.018,1.018,0,0,0-.877-.821,3.5,3.5,0,0,0-1.28.109,13.182,13.182,0,0,1-4.455.1,14.523,14.523,0,0,0-2.183-.275,2.823,2.823,0,0,0-2.018.725c.042-.05.024.075.066.024-1.488.924-2.691,1.573-3.594,3.073" transform="translate(-208.846 -470.651)" fill="#ffc294"/>
            <path id="Pfad_3178" data-name="Pfad 3178" d="M253.161,599.361l-7.11,7.443A115.413,115.413,0,0,1,235.2,596.4a63.807,63.807,0,0,1,13.6-5.045Z" transform="translate(-176.782 -444.482)" fill="#56b085"/>
            <path id="Pfad_3179" data-name="Pfad 3179" d="M238.261,459.441c3.333,0,3.02,27.951-3.636,27.25-9.5-1-14.664,1.333-14.664,1.333l2.275,4.178a63.806,63.806,0,0,0-13.6,5.045c-4-4.421-7.784-9.532-8.7-13.81-2.111-9.887,37.994-24,38.327-24" transform="translate(-150.217 -345.333)" fill="#428766"/>
            <path id="Pfad_3180" data-name="Pfad 3180" d="M253.979,460.7a63.023,63.023,0,0,0,71.542-2.626,90.665,90.665,0,0,0-17.9-5.261c-.651-.117-1.3-.224-1.954-.322-8.252-1.255-16.51-1.125-26.211-.018-.141.015-.285.031-.428.048-1.012.117-2.1.27-3.248.457-7.262,1.183-16.7,3.761-21.8,7.721" transform="translate(-190.9 -339.439)" fill="#ffeabf"/>
            <path id="Pfad_3181" data-name="Pfad 3181" d="M597.69,374.3a6.3,6.3,0,1,1-8.575-2.4,6.3,6.3,0,0,1,8.575,2.4" transform="translate(-440.389 -278.929)" fill="#ffeabf"/>
            <path id="Pfad_3182" data-name="Pfad 3182" d="M608.659,397.232s19.367,18.108,24.148,17.417,7.928-5.465,5.022-7.664-5.122-2.285-8.289-5.837a16.479,16.479,0,0,1-3.716-8.079Z" transform="translate(-457.491 -295.445)" fill="#648eb1"/>
            <g id="Gruppe_1663" data-name="Gruppe 1663" transform="translate(151.168 97.624)" opacity="0.3" style="mix-blend-mode: overlay;isolation: isolate">
              <g id="Gruppe_1662" data-name="Gruppe 1662">
                <g id="Gruppe_1661" data-name="Gruppe 1661" clip-path="url(#clip-path-7)">
                  <path id="Pfad_3183" data-name="Pfad 3183" d="M625.823,393.069a16.48,16.48,0,0,0,3.716,8.079c.165.186.328.36.488.527a31.948,31.948,0,0,0,1.636,12.87c-6.136-1.542-23.005-17.313-23.005-17.313Z" transform="translate(-608.658 -393.069)" fill="#230211"/>
                </g>
              </g>
            </g>
            <path id="Pfad_3184" data-name="Pfad 3184" d="M611.207,309.186l-5.148-6.773,3.977-2.017,10.407,3.478Z" transform="translate(-455.537 -225.789)" fill="#56b085"/>
            <path id="Pfad_3185" data-name="Pfad 3185" d="M638.27,301.628c3.675,6.526-1.811,16.582-12.252,22.462s-21.885,5.356-25.56-1.17,1.811-16.582,12.252-22.462,21.885-5.355,25.56,1.171" transform="translate(-450.468 -222.762)" fill="#648eb1"/>
            <path id="Pfad_3186" data-name="Pfad 3186" d="M706.913,268.542l39.8-16.185,1.236,2.194-34.941,23.232Z" transform="translate(-531.342 -189.681)" fill="#648eb1"/>
            <path id="Pfad_3187" data-name="Pfad 3187" d="M616.626,257.6c.84,1.492-3.741,5.664-10.232,9.319s-12.434,5.409-13.274,3.917,3.741-5.664,10.232-9.319,12.434-5.409,13.273-3.917" transform="translate(-445.737 -193.222)" fill="#56b085"/>
            <path id="Pfad_3188" data-name="Pfad 3188" d="M642.558,335.646c1.549,2.75-2.222,7.81-8.421,11.3s-12.481,4.091-14.029,1.341,2.222-7.81,8.421-11.3,12.481-4.091,14.029-1.341" transform="translate(-465.835 -250.986)" fill="#fce3ac"/>
            <g id="Gruppe_1666" data-name="Gruppe 1666" transform="translate(148.848 63.63)" opacity="0.3" style="mix-blend-mode: overlay;isolation: isolate">
              <g id="Gruppe_1665" data-name="Gruppe 1665">
                <g id="Gruppe_1664" data-name="Gruppe 1664" clip-path="url(#clip-path-8)">
                  <path id="Pfad_3189" data-name="Pfad 3189" d="M666.376,256.2l.7,1.24-27.662,18.393c.073,6.08-5.094,13.392-13.393,18.065-10.442,5.879-21.885,5.356-25.56-1.17a10.146,10.146,0,0,1-.674-7.809,99.334,99.334,0,0,0,12.272-2.138c19.923-5.075,38.869-13.564,54.319-26.581" transform="translate(-599.318 -256.199)" fill="#230211"/>
                </g>
              </g>
            </g>
            <path id="Pfad_3190" data-name="Pfad 3190" d="M860.884,242.443a3.981,3.981,0,1,1-5.552-1.765,4.124,4.124,0,0,1,5.552,1.765" transform="translate(-641.432 -180.541)" fill="#ffeabf"/>
            <path id="Pfad_3191" data-name="Pfad 3191" d="M826.587,255.389c1.912,3.4,2.926,6.449,2.266,6.82s-2.745-2.079-4.657-5.474-2.926-6.449-2.266-6.82,2.745,2.079,4.657,5.474" transform="translate(-617.642 -187.818)" fill="#56b085"/>
            <path id="Pfad_3192" data-name="Pfad 3192" d="M797.047,264.37c2.5,4.436,3.824,8.426,2.961,8.912s-3.587-2.717-6.085-7.153-3.824-8.426-2.961-8.912,3.587,2.717,6.085,7.153" transform="translate(-594.319 -193.297)" fill="#56b085"/>
            <path id="Pfad_3193" data-name="Pfad 3193" d="M763.77,275.3c2.97,5.275,4.547,10.02,3.521,10.6s-4.265-3.231-7.236-8.506-4.547-10.02-3.521-10.6,4.265,3.23,7.236,8.506" transform="translate(-568.404 -200.488)" fill="#56b085"/>
            <g id="Gruppe_1669" data-name="Gruppe 1669" transform="translate(211.949 61.944)" opacity="0.3" style="mix-blend-mode: overlay;isolation: isolate">
              <g id="Gruppe_1668" data-name="Gruppe 1668">
                <g id="Gruppe_1667" data-name="Gruppe 1667" clip-path="url(#clip-path-9)">
                  <path id="Pfad_3194" data-name="Pfad 3194" d="M855.457,252.44a4.486,4.486,0,0,0,5.731.643,3.779,3.779,0,0,1-1.667,1.947,4.124,4.124,0,0,1-5.552-1.765,4.353,4.353,0,0,1-.242-3.855,6.922,6.922,0,0,0,1.73,3.031" transform="translate(-853.387 -249.409)" fill="#230211"/>
                </g>
              </g>
            </g>
            <g id="Gruppe_1672" data-name="Gruppe 1672" transform="translate(204.143 63.195)" opacity="0.3" style="mix-blend-mode: overlay;isolation: isolate">
              <g id="Gruppe_1671" data-name="Gruppe 1671">
                <g id="Gruppe_1670" data-name="Gruppe 1670" clip-path="url(#clip-path-10)">
                  <path id="Pfad_3195" data-name="Pfad 3195" d="M828.712,265.655c-.867-.264-2.673-2.513-4.347-5.485a21.51,21.51,0,0,1-2.412-5.723,66.459,66.459,0,0,1,6.758,11.208" transform="translate(-821.954 -254.447)" fill="#230211"/>
                </g>
              </g>
            </g>
            <g id="Gruppe_1675" data-name="Gruppe 1675" transform="translate(196.381 63.969)" opacity="0.3" style="mix-blend-mode: overlay;isolation: isolate">
              <g id="Gruppe_1674" data-name="Gruppe 1674">
                <g id="Gruppe_1673" data-name="Gruppe 1673" clip-path="url(#clip-path-11)">
                  <path id="Pfad_3196" data-name="Pfad 3196" d="M790.9,257.562a89.388,89.388,0,0,1,8.971,16.058c-.988.126-3.568-2.975-5.944-7.2-2.429-4.314-3.749-8.2-3.027-8.863" transform="translate(-790.701 -257.562)" fill="#230211"/>
                </g>
              </g>
            </g>
            <g id="Gruppe_1678" data-name="Gruppe 1678" transform="translate(187.818 66.447)" opacity="0.3" style="mix-blend-mode: overlay;isolation: isolate">
              <g id="Gruppe_1677" data-name="Gruppe 1677">
                <g id="Gruppe_1676" data-name="Gruppe 1676" clip-path="url(#clip-path-12)">
                  <path id="Pfad_3197" data-name="Pfad 3197" d="M756.385,267.542c1.655,3.424,3.512,6.676,5.372,10.058,1.6,2.887,3.154,5.722,4.5,8.633-1.474-1-3.915-4.181-6.2-8.236-2.8-4.971-4.359-9.469-3.672-10.455" transform="translate(-756.224 -267.542)" fill="#230211"/>
                </g>
              </g>
            </g>
            <g id="Gruppe_1681" data-name="Gruppe 1681" transform="translate(147.285 65.985)" opacity="0.3" style="mix-blend-mode: overlay;isolation: isolate">
              <g id="Gruppe_1680" data-name="Gruppe 1680">
                <g id="Gruppe_1679" data-name="Gruppe 1679" clip-path="url(#clip-path-13)">
                  <path id="Pfad_3198" data-name="Pfad 3198" d="M606.4,273.392c-6.491,3.655-12.434,5.409-13.274,3.917-.2-.351-.092-.852.265-1.458a50.112,50.112,0,0,0,22.885-10.171c-1.261,1.975-5.037,4.987-9.876,7.712" transform="translate(-593.025 -265.68)" fill="#230211"/>
                </g>
              </g>
            </g>
            <path id="Pfad_3199" data-name="Pfad 3199" d="M660.439,257.492c1.291,2.292,1.8,4.451,1.141,4.823s-2.241-1.185-3.532-3.477-1.8-4.451-1.141-4.823,2.241,1.185,3.532,3.477" transform="translate(-493.539 -190.887)" fill="#ffeabf"/>
            <path id="Pfad_3200" data-name="Pfad 3200" d="M642.392,263.928c1.54,2.736,2.254,5.255,1.594,5.626s-2.444-1.545-3.984-4.28-2.254-5.255-1.594-5.626,2.444,1.545,3.984,4.28" transform="translate(-479.666 -195.126)" fill="#ffeabf"/>
            <g id="Gruppe_1684" data-name="Gruppe 1684" transform="translate(164.625 74.431)" opacity="0.2" style="mix-blend-mode: overlay;isolation: isolate">
              <g id="Gruppe_1683" data-name="Gruppe 1683">
                <g id="Gruppe_1682" data-name="Gruppe 1682" clip-path="url(#clip-path-14)">
                  <path id="Pfad_3201" data-name="Pfad 3201" d="M681.917,302.413c.182,1.832-3.718,1.374-8.984,1.9s-9.9,1.83-10.085,0,4.118-3.982,9.384-4.506,9.5.778,9.686,2.609" transform="translate(-662.841 -299.687)" fill="#fff"/>
                </g>
              </g>
            </g>
            <path id="Pfad_3202" data-name="Pfad 3202" d="M693.089,427.887l-1.074-1.336s-2.755,2.872-4.06,1.645,2.731-5.745,4.995-4.331c1.569.98,1.617,2.768.139,4.022" transform="translate(-516.902 -318.389)" fill="#ffc294"/>
            <path id="Pfad_3203" data-name="Pfad 3203" d="M687.18,419.219l-1.074-1.336s-2.754,2.872-4.06,1.645,2.731-5.745,4.995-4.331c1.569.98,1.617,2.768.139,4.022" transform="translate(-512.46 -311.874)" fill="#ffc294"/>
            <path id="Pfad_3204" data-name="Pfad 3204" d="M699.481,434.773l-1.851-.126s-2.471,2.512-3.776,1.285,2.1-4.521,4.711-3.971c.694.146,2.394,1.558.916,2.812" transform="translate(-521.31 -324.632)" fill="#ffc294"/>
            <path id="Pfad_3205" data-name="Pfad 3205" d="M679.486,410.973l-1.074-1.336s-2.754,2.872-4.06,1.645,2.731-5.745,4.995-4.331c1.569.98,1.617,2.768.139,4.022" transform="translate(-506.677 -305.676)" fill="#ffc294"/>
            <path id="Pfad_3206" data-name="Pfad 3206" d="M356.564,452.477c3.986,3.283,11.474,8.52,18.884,6.472a17.6,17.6,0,0,0,9.281-6.133c-.65-.118-1.3-.224-1.954-.322-8.252-1.255-16.51-1.125-26.211-.017" transform="translate(-268.007 -339.439)" fill="#ffc294"/>
            <g id="Gruppe_1687" data-name="Gruppe 1687" transform="translate(72.441 146.376)" opacity="0.2" style="mix-blend-mode: overlay;isolation: isolate">
              <g id="Gruppe_1686" data-name="Gruppe 1686">
                <g id="Gruppe_1685" data-name="Gruppe 1685" clip-path="url(#clip-path-15)">
                  <path id="Pfad_3207" data-name="Pfad 3207" d="M292.3,614.11a37.058,37.058,0,0,1,1.565-5.231c.672-1.779,1.453-3.941,2.249-6.349a125.451,125.451,0,0,0,3.622-13.167c6.8,20.542,23.711,38.02,46.118,37.032a34.824,34.824,0,0,0,5.885-.782c-3.86,10.374-15.516,17.914-29.3,17.914-11.308,0-24.848-4.744-29.352-16.066a22.9,22.9,0,0,1-.788-13.35" transform="translate(-291.677 -589.363)" fill="#230211"/>
                </g>
              </g>
            </g>
            <path id="Pfad_3208" data-name="Pfad 3208" d="M336.015,984.9l8.443,5.508a1.1,1.1,0,0,1-.475,1.247c-4.638,1.63-9.705-.493-14.613-.761a10.991,10.991,0,0,1,1.31-5.789c1.954.188,3.373-.236,5.336-.2" transform="translate(-247.555 -740.287)" fill="#f4b942"/>
            <path id="Pfad_3209" data-name="Pfad 3209" d="M295.888,722.8c.029.2,1.555,5.257,3.719,16.54.516,2.689,1.025,5.372,1.5,7.891.922,4.921,1.7,9.22,2.112,11.739a209.607,209.607,0,0,1,2.084,25.955l6.818.437s4.673-12.88,6.207-21.136c.677-3.651,1.747-10.613,2.728-17.244.292-1.958.574-3.888.836-5.693.859-5.911.971-3.4,1.105-6.047.933-18.422-28.44-21.923-27.107-12.443" transform="translate(-222.367 -539.45)" fill="#428766"/>
            <path id="Pfad_3210" data-name="Pfad 3210" d="M323.491,915.268q-1.767-11.047-3.533-22.093a50.674,50.674,0,0,1,18.162-3.8,160.039,160.039,0,0,1-6.4,26.579c-2.963.228-5.266-.4-8.224-.685" transform="translate(-240.492 -668.487)" fill="#f4b942"/>
            <path id="Pfad_3211" data-name="Pfad 3211" d="M311,781.609c.516,2.689,1.025,5.372,1.5,7.891,3.957-2.413,7.808-4.858,11.448-7.323,3.039,2.31,5.831,4.669,8.5,7.075.292-1.958.574-3.888.835-5.694q-4.742-4.814-9.479-9.625-6.52,3.642-12.8,7.675" transform="translate(-233.756 -581.718)" fill="#f4b942"/>
          </g>
        </g>
      </g>
    </g>
  </g>
</svg>
