<svg xmlns="http://www.w3.org/2000/svg" xmlns:xlink="http://www.w3.org/1999/xlink" width="178.803" height="286.438" viewBox="0 0 178.803 286.438">
  <defs>
    <clipPath id="clip-path">
      <rect id="Rechteck_734" data-name="Rechteck 734" width="178.803" height="267.676" fill="none"/>
    </clipPath>
    <clipPath id="clip-path-3">
      <rect id="Rechteck_719" data-name="Rechteck 719" width="160.375" height="98.622" fill="none"/>
    </clipPath>
    <clipPath id="clip-path-4">
      <rect id="Rechteck_720" data-name="Rechteck 720" width="69.563" height="26.951" fill="none"/>
    </clipPath>
    <clipPath id="clip-path-5">
      <rect id="Rechteck_721" data-name="Rechteck 721" width="17.17" height="18.197" fill="none"/>
    </clipPath>
    <clipPath id="clip-path-7">
      <rect id="Rechteck_723" data-name="Rechteck 723" width="102.354" height="27.327" fill="none"/>
    </clipPath>
    <clipPath id="clip-path-8">
      <rect id="Rechteck_724" data-name="Rechteck 724" width="60.017" height="55.918" fill="none"/>
    </clipPath>
    <clipPath id="clip-path-9">
      <rect id="Rechteck_725" data-name="Rechteck 725" width="25.923" height="10.797" fill="none"/>
    </clipPath>
    <clipPath id="clip-path-10">
      <rect id="Rechteck_726" data-name="Rechteck 726" width="26.167" height="10.875" fill="none"/>
    </clipPath>
    <clipPath id="clip-path-11">
      <rect id="Rechteck_727" data-name="Rechteck 727" width="36.412" height="17.499" fill="none"/>
    </clipPath>
    <clipPath id="clip-path-12">
      <rect id="Rechteck_728" data-name="Rechteck 728" width="82.345" height="44.611" fill="none"/>
    </clipPath>
    <clipPath id="clip-path-13">
      <rect id="Rechteck_729" data-name="Rechteck 729" width="93.968" height="24.883" fill="none"/>
    </clipPath>
    <clipPath id="clip-path-14">
      <rect id="Rechteck_730" data-name="Rechteck 730" width="13.144" height="21.61" fill="none"/>
    </clipPath>
    <clipPath id="clip-path-15">
      <rect id="Rechteck_731" data-name="Rechteck 731" width="7.495" height="14.397" fill="none"/>
    </clipPath>
    <clipPath id="clip-path-16">
      <rect id="Rechteck_732" data-name="Rechteck 732" width="59.775" height="24.788" fill="none"/>
    </clipPath>
  </defs>
  <g id="girlBlack" transform="translate(-278 -677.62)">
    <path id="Pfad_3271" data-name="Pfad 3271" d="M3081.575,831.695c-15.51-4.035,45.976-13.1,146.238,3.57C3227.453,836.694,3166.133,867.65,3081.575,831.695Z" transform="translate(-2778.133 115.046)" fill="#83b1c9" opacity="0.14"/>
    <g id="Gruppe_1743" data-name="Gruppe 1743" transform="translate(278 677.62)">
      <g id="Gruppe_1740" data-name="Gruppe 1740" clip-path="url(#clip-path)">
        <g id="Gruppe_1739" data-name="Gruppe 1739" transform="translate(0 -0.001)">
          <g id="Gruppe_1738" data-name="Gruppe 1738" clip-path="url(#clip-path)">
            <path id="Pfad_3213" data-name="Pfad 3213" d="M40.824,578.131A140.717,140.717,0,0,1,13.2,599.563c-1.577,10.306-5.817,18.88-9.289,28.711s-5.666,20.784-2.077,30.573c6.808-3.621,15.862-1.279,21.848,3.582s10.375,11.423,16.161,16.52,13.977,8.7,21.17,5.926c3.571-1.379,6.543-4.208,10.286-5.013,6.455-1.389,12.323,3.524,18.219,6.5,13.456,6.78,31.436,2.773,40.741-9.079,2.277-2.9,4.059-6.172,6.434-8.991s5.548-5.242,9.219-5.593c5.708-.545,11.693,3.919,16.834,1.379,2.984-1.474,4.505-4.932,4.837-8.243s-.279-6.638-.359-9.965.478-6.891,2.723-9.348,6.585-3.165,8.851-.728A177.181,177.181,0,0,0,164.459,598.6c-9.836-18.568-37.291-17.917-58.168-20.3s-44.747-3.657-65.467-.164" transform="translate(0 -430.75)" fill="#f4b942"/>
            <g id="Gruppe_1698" data-name="Gruppe 1698" transform="translate(11.079 145.227)" opacity="0.4" style="mix-blend-mode: overlay;isolation: isolate">
              <g id="Gruppe_1697" data-name="Gruppe 1697">
                <g id="Gruppe_1696" data-name="Gruppe 1696" clip-path="url(#clip-path-3)">
                  <path id="Pfad_3214" data-name="Pfad 3214" d="M139.151,578.3c-20.877-2.383-44.747-3.657-65.467-.164a140.736,140.736,0,0,1-27.621,21.432,65.129,65.129,0,0,1-2.125,9.149c12.24-2.946,25.171-3.789,34.328,5.959,4.161,10.4,6.241,21.221,9.778,31.831,5.2,16.227,20.6,27.878,37.656,28.086a32.179,32.179,0,0,0,22.261-7.906c4.993-4.161,7.7-9.986,9.154-16.643,1.872-9.57,0-19.14,3.953-27.878,3.537-7.7,9.986-13.315,18.308-14.771,9.247-1.712,17.366,1.51,24.938,6.3a165.593,165.593,0,0,0-6.995-15.094c-9.836-18.568-37.291-17.918-58.168-20.3" transform="translate(-43.939 -575.978)" fill="#230211"/>
                </g>
              </g>
            </g>
            <path id="Pfad_3215" data-name="Pfad 3215" d="M178.945,57.223c5.365-2.322,6.8-10.039,3.7-15s-9.33-7.235-15.174-7.125a6.789,6.789,0,0,0,.079-8.787,6.789,6.789,0,0,0-8.733-.974,3.641,3.641,0,0,0-6.668-2.856c.688-6.526-2.846-13.614-8.98-15.945S129,7.994,127.861,14.457a12.328,12.328,0,0,0-7.835-13.233A12.328,12.328,0,0,0,105.655,6.7C104.09,3.818,101.99.4,98.732.029c-2.655-.3-5.208,1.592-6.346,4.01a13.364,13.364,0,0,0-.661,7.864,13.725,13.725,0,0,0-2.662-5.991c-1.075-1.384-3-2.626-4.469-1.671-1.022.665-1.235,2.059-1.236,3.279A19.852,19.852,0,0,0,85.1,14.868,13.667,13.667,0,0,0,78.79,9.659c-3.916-1.5-8.841-.57-11.425,2.733-2.407,3.078-2.047,8.1.914,10.527a6.087,6.087,0,0,0-8.116,2.446A6.9,6.9,0,0,0,63.27,34.2a20.462,20.462,0,0,0-29.5,18.964A20.867,20.867,0,0,0,44.2,70.393a9.4,9.4,0,0,0-6.639,17.049,6.812,6.812,0,1,0,.5,13.6,6.9,6.9,0,0,0,9.609,9.912c-1.82,3.4-1.716,7.941.829,10.837s7.606,3.4,10.264.607a4.74,4.74,0,0,0,8.156,4.206c0,.017.009.035.013.051A20.878,20.878,0,0,0,69.515,133a8.991,8.991,0,0,0,5.411,3.963,5.8,5.8,0,0,0,6.037-2.3c.264,2.286,1.447,5.13,3.621,5.884a6.294,6.294,0,0,0,6.379-1.474c-.2-.08.123-.016.236-.009a6.818,6.818,0,0,0,2.821,2.987c1.3.552,3.166-.075,3.327-1.475a9.72,9.72,0,0,0,17.714,3.286c1.994,4.367,7.028,6.184,11.656,4.91a10.545,10.545,0,0,0,7.434-10.95,9.007,9.007,0,1,0,15.225-9.408c2.995,3.569,9.326,2.585,12.09-1.166s2.445-9.09.446-13.3a7.047,7.047,0,0,0,5.6-12.784,3.035,3.035,0,0,0,3.848-4.656,5.259,5.259,0,0,0,3.647-9.844A15.461,15.461,0,0,0,190.268,73.72a15.46,15.46,0,0,0-11.323-16.5" transform="translate(-22.961 0.003)" fill="#1b2845"/>
            <path id="Pfad_3216" data-name="Pfad 3216" d="M463.757,94.484a8.8,8.8,0,0,0-8.105-1.647,7.438,7.438,0,0,0-3.4-8.776,7.359,7.359,0,0,0-8.723,1.953c-.1-4.452-.565-9.565-3.875-12.577a5.254,5.254,0,0,0-5.648-1.091c-2.12.892-3.581,2.88-4.8,4.745-.227.346.318.654.55.322,1.2-1.717,2.68-3.666,4.75-4.361a4.7,4.7,0,0,1,5.308,2.035c2.734,3.755,2.4,9,2.389,13.4a.685.685,0,0,0,1.34.181,5.7,5.7,0,1,1,10,5.148c-.448.642.4,1.312,1,1a7.681,7.681,0,0,1,7.6.294c1,.646,1.988,1.747,1.494,3.022-.457,1.18-1.8,1.941-2.839,2.546-.763.445-.094,1.535.682,1.168a6.474,6.474,0,0,0,3.541-3.233,3.758,3.758,0,0,0-1.266-4.134" transform="translate(-320.946 -53.803)"/>
            <path id="Pfad_3217" data-name="Pfad 3217" d="M577.061,238.864a9.383,9.383,0,0,0-9.883-8.53.286.286,0,0,0,0,.572c4.275.1,8.435,3.566,8.708,7.958a8.6,8.6,0,0,1-7.566,8.765.618.618,0,0,0-.431,1.041c1.578,1.645,2.918,3.957,2.46,6.323-.4,2.067-2.466,3.886-4.628,3.347a.614.614,0,0,0-.471,1.117,2.641,2.641,0,0,1,.708,3.862c-.456.582.307,1.411.837.837a3.767,3.767,0,0,0,.315-4.548,5.5,5.5,0,0,0,4.269-3.727c.852-2.543-.266-5.213-1.881-7.225,4.356-1.008,7.908-5.193,7.566-9.791" transform="translate(-422.506 -172.23)"/>
            <path id="Pfad_3218" data-name="Pfad 3218" d="M469.366,418.527c-.287-.668-1.4-.192-1.176.5a3.646,3.646,0,0,1-1.415,4.323,3.526,3.526,0,0,1-4.454-.989c-.383-.479-1.234.038-1.031.6,1.135,3.143,2.53,7.035.861,10.245-.758,1.458-2.288,2.584-3.948,1.836a6.059,6.059,0,0,1-2.381-2.247,10.458,10.458,0,0,0-.731-1.169c-.41-.565-1.332-.065-.957.559.2.331.409.67.633,1.005,1.84,3.323,2.153,8.021-.454,10.982-1.584,1.8-4,1.76-5.936.529-1.956-1.244-3.116-3.36-4.211-5.331-.172-.31-.625-.037-.471.276,1.121,2.286,2.353,4.763,4.654,6.073a5.349,5.349,0,0,0,6.3-.372c2.678-2.367,3.155-6.345,2.251-9.8a4.949,4.949,0,0,0,1,.565,3.905,3.905,0,0,0,4.5-1.217c2.486-2.874,1.8-6.9.732-10.339a4.59,4.59,0,0,0,6.244-6.021" transform="translate(-331.798 -312.759)"/>
            <path id="Pfad_3219" data-name="Pfad 3219" d="M88.12,170.968c-1.856-1.858-4.377-4.117-7.232-3.427-2.565.619-3.827,3.345-4.366,5.691a20.2,20.2,0,0,0,2.893,15.3A19.718,19.718,0,0,0,84.3,193.7c-3.8.307-7.564,2.213-8.552,6.222-.795,3.227,1.4,6.756,4.566,7.138-1.572,1.566-2.847,3.69-1.358,5.715a3.173,3.173,0,0,0,5.213-.451c.321-.638-.612-1.2-.966-.565-.75,1.342-3.083,1.452-3.627-.147-.706-2.08,1.487-3.73,2.9-4.794.526-.4.253-1.359-.481-1.141A4.07,4.07,0,0,1,77.581,204a4.825,4.825,0,0,1-.289-4.735c1.531-3.489,5.508-4.532,9-4.369a.608.608,0,0,0,.3-1.125,19.25,19.25,0,0,1-9.557-14.63c-.313-2.911-.1-6.372,1.515-8.9a4.046,4.046,0,0,1,4.646-1.923,11.5,11.5,0,0,1,4.483,3.088.306.306,0,0,0,.432-.432" transform="translate(-56.526 -125.202)"/>
            <path id="Pfad_3220" data-name="Pfad 3220" d="M235.628,73.586a2.206,2.206,0,0,0-1.782,1.339,22.912,22.912,0,0,0-1.168,2.285,8.738,8.738,0,0,0-1.8-3.616,3.52,3.52,0,0,0-3.94-1.013c-1.335.653-1.84,2.188-2.047,3.557a16.552,16.552,0,0,0-.154,3.346,18.688,18.688,0,0,0-3.3-3.3c-1.807-1.476-4.461-2.575-6.651-1.2-1.863,1.173-2.254,3.644-2.018,5.666a13.531,13.531,0,0,0,3.241,7.206c.259.3.669-.13.432-.432a13.957,13.957,0,0,1-2.76-6.1c-.333-1.866-.28-4.471,1.536-5.6,2.146-1.339,4.633.192,6.225,1.663,1.56,1.442,3.32,3.075,3.729,5.248.133.6,1.024.34.91-.251a17.082,17.082,0,0,1-.384-4.752c.078-1.231.2-2.908,1.167-3.819,1.2-1.138,2.926-.176,3.7.975a17.2,17.2,0,0,1,1.531,4.055c.132.379.775.584.97.127a18.561,18.561,0,0,1,1.738-3.485c.171-.24.512-.726.822-.757.452-.044.8.409.978.745a4.238,4.238,0,0,1,.117,2.2c-.061.642,1.046.8,1.137.154.229-1.631.05-4.289-2.232-4.243" transform="translate(-159.078 -54.078)"/>
            <path id="Pfad_3221" data-name="Pfad 3221" d="M149.066,440.286c-.081-.775-1.278-.806-1.235,0,.041.775-.456,1.727-1.381,1.576-.879-.143-.993-.9-.987-1.638.007-.935.052-1.72-.778-2.308a.586.586,0,0,0-.784.206,3.612,3.612,0,0,1-1.87,1.6c-1.242.257-2.062-.96-2.351-1.981a13.782,13.782,0,0,1,.013-5.931.5.5,0,0,0-.6-.6c-1.448.3-2.779.983-4.225,1.276a4.845,4.845,0,0,1-4.661-1.674,6.155,6.155,0,0,1-1.88-4.6c.176-1.612,1.809-3.174,3.493-2.451.347.149.655-.353.3-.516a3.18,3.18,0,0,0-3.872,1.151c-1.17,1.576-.722,3.718.155,5.316a7.094,7.094,0,0,0,4.5,3.714c1.983.4,3.83-.578,5.71-1.1-.394,2.339-.647,5.419.823,7.277a2.963,2.963,0,0,0,2.6,1.207,3.684,3.684,0,0,0,2.309-1.429c.112.645-.113,1.676.04,2.141A2.44,2.44,0,0,0,146,443.025a2.48,2.48,0,0,0,3.07-2.739" transform="translate(-95.386 -316.321)"/>
            <path id="Pfad_3222" data-name="Pfad 3222" d="M617,623.7c.7-1.347,2.364-1.807,3.849-2.113a37.124,37.124,0,0,1,8.611-1.021c.538.017,1.242.221,1.234.759a.867.867,0,0,1-.572.736,27.458,27.458,0,0,1-2.908.83c-.069.2-.112.245.053.371a17.351,17.351,0,0,1,4.924.732c.425.128.977.486.984.995.009.58-.676,1.095-1.186,1.212a12.673,12.673,0,0,1-4.355.224c0,.28-.13.225-.13.505a19.916,19.916,0,0,1,4.728,2.8,2.555,2.555,0,0,1,.712.763.95.95,0,0,1-.022,1,2.228,2.228,0,0,1-1.886.524,24.681,24.681,0,0,1-4.814-1.73c-.156.358-.17.219-.326.577a32.073,32.073,0,0,1,2.769,2.536,2.433,2.433,0,0,1,.506.664.777.777,0,0,1-.753,1.168,2.425,2.425,0,0,1-.837-.2,29.519,29.519,0,0,1-5.557-2.7,7.487,7.487,0,0,1,.329,3.481,1.3,1.3,0,0,1-.55,1.036.973.973,0,0,1-1.108-.3,3.355,3.355,0,0,1-.553-1.1,12.609,12.609,0,0,0-2.155-3.676,13.918,13.918,0,0,1-1.319-1.639,2.7,2.7,0,0,1-.422-2.007c-.02.059.073-.018.053.041a8.857,8.857,0,0,1,.7-4.467" transform="translate(-460.829 -464.09)" fill="#c67d3c"/>
            <path id="Pfad_3223" data-name="Pfad 3223" d="M431.144,548.606c-.281-.131-.564-.26-.847-.389a102.429,102.429,0,0,0-23.894-7.494h0a99.884,99.884,0,0,0-10.094-1.327c-.6-.048-1.2-.092-1.8-.127q-.646-.043-1.292-.071-1.938-.1-3.882-.113c1.515,6.391,3.268,12.9,5.135,19.286q.721,2.475,1.465,4.92a74.814,74.814,0,0,1,8.163-1.4q1.142-.131,2.289-.227,3.214-.269,6.435-.268a79.657,79.657,0,0,1,15.67,1.569,83.176,83.176,0,0,1,18.385,5.99c1.283-2.784,2.532-5.594,3.815-8.378a100.222,100.222,0,0,0-19.548-11.975" transform="translate(-291.168 -403.161)" fill="#648eb1"/>
            <path id="Pfad_3224" data-name="Pfad 3224" d="M32.247,628.757c-.7-1.347-2.364-1.807-3.849-2.113a37.125,37.125,0,0,0-8.611-1.021c-.538.017-1.242.221-1.234.759a.867.867,0,0,0,.572.736,27.439,27.439,0,0,0,2.907.83c.069.2.112.245-.053.371a17.352,17.352,0,0,0-4.924.732c-.425.128-.977.486-.984.995-.008.58.677,1.095,1.186,1.212a12.673,12.673,0,0,0,4.355.224c0,.28.13.225.13.505a19.917,19.917,0,0,0-4.728,2.8,2.559,2.559,0,0,0-.712.763.949.949,0,0,0,.022,1,2.228,2.228,0,0,0,1.886.524,24.679,24.679,0,0,0,4.814-1.73c.156.358.17.219.327.577a32.1,32.1,0,0,0-2.769,2.536,2.444,2.444,0,0,0-.507.664.777.777,0,0,0,.753,1.168,2.428,2.428,0,0,0,.837-.2,29.521,29.521,0,0,0,5.557-2.7,7.483,7.483,0,0,0-.329,3.481,1.3,1.3,0,0,0,.55,1.036.973.973,0,0,0,1.108-.3,3.354,3.354,0,0,0,.553-1.1,12.609,12.609,0,0,1,2.155-3.676,13.906,13.906,0,0,0,1.319-1.639A2.7,2.7,0,0,0,33,633.183c.02.059-.073-.018-.053.041a8.857,8.857,0,0,0-.7-4.467" transform="translate(-12.019 -467.871)" fill="#c67d3c"/>
            <path id="Pfad_3225" data-name="Pfad 3225" d="M124.425,544.25q-.643.028-1.29.071l-.27.017a99.7,99.7,0,0,0-11.624,1.437v0a102.563,102.563,0,0,0-24.4,7.725c-.114.054-.231.106-.345.16a100.109,100.109,0,0,0-19.548,11.975c1.284,2.782,2.532,5.594,3.815,8.376a83.247,83.247,0,0,1,18.385-5.99,78.9,78.9,0,0,1,22.1-1.3v0q1.1.093,2.191.216a75.277,75.277,0,0,1,8.261,1.408q.9-2.974,1.779-5.994v0c1.75-6.039,3.391-12.179,4.82-18.212q-1.944.019-3.884.114" transform="translate(-50.072 -406.937)" fill="#648eb1"/>
            <path id="Pfad_3226" data-name="Pfad 3226" d="M319.616,494.272,318.86,507.2l15.662-.32-.835-13.02Z" transform="translate(-238.463 -369.337)" fill="#c67d3c"/>
            <path id="Pfad_3227" data-name="Pfad 3227" d="M483.23,360.423c.329-5.043.722-9.227,2.912-13.781,1.681-3.5,6.367-5.032,9.941-3.523a9.339,9.339,0,0,1,5.294,9.478,11.4,11.4,0,0,1-6.75,8.835A14.7,14.7,0,0,1,483.3,361.4Z" transform="translate(-361.389 -256.172)" fill="#c67d3c"/>
            <path id="Pfad_3228" data-name="Pfad 3228" d="M502.633,374.248a3.7,3.7,0,0,1,2.952,1.98c.452,1.259-.344,2.7-1.324,3.763a12.364,12.364,0,0,1-7.641,3.841c-1.626.175-3.094-.232-3.679-1.719a6.551,6.551,0,0,1-.191-3.479c.423-2.072,2.425-3.094,4.358-3.832a10.185,10.185,0,0,1,5.525-.554" transform="translate(-368.399 -279.762)" fill="#aa6227"/>
            <path id="Pfad_3229" data-name="Pfad 3229" d="M156.481,360.8c-.51-5.027-1.052-9.195-3.4-13.667-1.806-3.434-6.543-4.8-10.06-3.164a9.339,9.339,0,0,0-4.952,9.662,11.4,11.4,0,0,0,7.062,8.588,14.7,14.7,0,0,0,11.32-.443Z" transform="translate(-103.182 -256.727)" fill="#c67d3c"/>
            <path id="Pfad_3230" data-name="Pfad 3230" d="M152.031,375.139a3.7,3.7,0,0,0-2.879,2.085c-.406,1.275.44,2.683,1.458,3.714a12.364,12.364,0,0,0,7.774,3.565c1.631.117,3.083-.343,3.616-1.849a6.551,6.551,0,0,0,.066-3.484c-.5-2.055-2.535-3-4.493-3.674a10.186,10.186,0,0,0-5.542-.356" transform="translate(-111.467 -280.377)" fill="#aa6227"/>
            <path id="Pfad_3231" data-name="Pfad 3231" d="M267.175,199c-.525,9.714-1.212,19.538-4.212,28.789s-8.579,18.012-16.94,22.982c-6.451,3.834-14.089,5.176-21.581,5.565-5.861.306-11.865.051-17.363-2-8.538-3.187-14.952-10.5-18.567-18.955a42.111,42.111,0,0,1-2.037-5.967,55.6,55.6,0,0,1-1.688-13.58,97.589,97.589,0,0,1,2.156-19.742,35.207,35.207,0,0,1,18.275-24.258c9.367-4.731,20.514-5.163,30.712-2.693a46.109,46.109,0,0,1,20.18,10.218c5.65,5.113,11.476,12.035,11.065,19.642" transform="translate(-138.194 -125.385)" fill="#c67d3c"/>
            <path id="Pfad_3232" data-name="Pfad 3232" d="M229.674,295.421a2.582,2.582,0,0,0-.981,1.955,1.841,1.841,0,0,0,1.163,1.411,4.3,4.3,0,0,0,1.887.238,13.274,13.274,0,0,0,6.42-1.934c1.348-.849,4.7-3.394,2.75-5.1a2.221,2.221,0,0,0-1.12-.457c-2.569-.422-5.612.682-7.758,2.021a13.473,13.473,0,0,0-2.361,1.866" transform="translate(-171.025 -217.958)" fill="#470621"/>
            <path id="Pfad_3233" data-name="Pfad 3233" d="M410.444,295.456a2.583,2.583,0,0,1,.955,1.968,1.841,1.841,0,0,1-1.182,1.4,4.3,4.3,0,0,1-1.889.213,13.274,13.274,0,0,1-6.395-2.019c-1.337-.867-4.657-3.456-2.682-5.137a2.227,2.227,0,0,1,1.126-.441c2.574-.388,5.6.756,7.73,2.123a13.513,13.513,0,0,1,2.337,1.9" transform="translate(-298.127 -217.896)" fill="#470621"/>
            <g id="Gruppe_1701" data-name="Gruppe 1701" transform="translate(54.621 104.111)" opacity="0.2" style="mix-blend-mode: overlay;isolation: isolate">
              <g id="Gruppe_1700" data-name="Gruppe 1700">
                <g id="Gruppe_1699" data-name="Gruppe 1699" clip-path="url(#clip-path-4)">
                  <path id="Pfad_3234" data-name="Pfad 3234" d="M236.368,434.623a53.8,53.8,0,0,1-19.735-8.173,31.241,31.241,0,0,0,14.264,11.3c5.5,2.052,11.5,2.308,17.362,2,7.493-.391,15.131-1.732,21.581-5.566,7.846-4.664,13.242-12.663,16.357-21.277-11.49,15.5-28.98,25.625-49.828,21.716" transform="translate(-216.633 -412.907)" fill="#230211"/>
                </g>
              </g>
            </g>
            <g id="Gruppe_1704" data-name="Gruppe 1704" transform="translate(105.675 91.653)" opacity="0.3">
              <g id="Gruppe_1703" data-name="Gruppe 1703">
                <g id="Gruppe_1702" data-name="Gruppe 1702" clip-path="url(#clip-path-5)">
                  <path id="Pfad_3235" data-name="Pfad 3235" d="M421.989,378.5c2.286,2.685,5.673,4.171,9.173,2.481,5.536-2.675,7.053-11.484,2.219-15.516-3.224-2.69-7.638-2.424-11.082-.362-4.673,2.8-3.7,9.416-.311,13.4" transform="translate(-419.116 -363.497)" fill="#af1731"/>
                </g>
              </g>
            </g>
            <g id="Gruppe_1707" data-name="Gruppe 1707" transform="translate(49.778 93.659)" opacity="0.3">
              <g id="Gruppe_1706" data-name="Gruppe 1706">
                <g id="Gruppe_1705" data-name="Gruppe 1705" clip-path="url(#clip-path-5)">
                  <path id="Pfad_3236" data-name="Pfad 3236" d="M200.294,386.451c2.286,2.685,5.673,4.171,9.173,2.481,5.536-2.675,7.053-11.484,2.219-15.516-3.224-2.69-7.638-2.424-11.082-.362-4.673,2.8-3.7,9.416-.311,13.4" transform="translate(-197.421 -371.453)" fill="#af1731"/>
                </g>
              </g>
            </g>
            <path id="Pfad_3237" data-name="Pfad 3237" d="M315.165,389.234a5.385,5.385,0,0,1-2.484-5.8c-.038.13.3.6.368.724q.208.371.446.723a10.778,10.778,0,0,0,1.058,1.327,11.316,11.316,0,0,0,2.628,2.081,11.063,11.063,0,0,0,3.159,1.222c.148.032.43.017.452.209.016.143-.191.3-.291.37a2.91,2.91,0,0,1-1.538.195,7.358,7.358,0,0,1-3.8-1.048" transform="translate(-233.715 -286.752)" fill="#aa6227"/>
            <path id="Pfad_3238" data-name="Pfad 3238" d="M257.129,352.068c.2.665.612,1.307,1.361,1.217.733-.088,1.3-.9,1.543-1.535a5.02,5.02,0,0,0,.069-3.375c-.182-.532-.552-1.1-1.114-1.131a1.39,1.39,0,0,0-1.06.582,4.567,4.567,0,0,0-.949,3.547,4.306,4.306,0,0,0,.15.7" transform="translate(-192.152 -259.688)" fill="#470621"/>
            <path id="Pfad_3239" data-name="Pfad 3239" d="M407.283,353.327c.2.665.612,1.307,1.361,1.217.733-.088,1.3-.9,1.543-1.535a5.02,5.02,0,0,0,.069-3.375c-.182-.532-.552-1.1-1.114-1.131a1.388,1.388,0,0,0-1.06.581,4.566,4.566,0,0,0-.949,3.547,4.3,4.3,0,0,0,.15.7" transform="translate(-304.446 -260.63)" fill="#470621"/>
            <path id="Pfad_3240" data-name="Pfad 3240" d="M303.969,975.689l.048-.012A160.559,160.559,0,0,1,301.65,958.4a68.383,68.383,0,0,0-16.219-2.953,93.68,93.68,0,0,0,11.883,20.715l-6.691,4.211a1.055,1.055,0,0,0,.435,1.2c4.409,1.631,9.287-.321,13.984-.5a10.513,10.513,0,0,0-1.073-5.378" transform="translate(-213.463 -714.537)" fill="#1d4d82"/>
            <path id="Pfad_3241" data-name="Pfad 3241" d="M454.693,949.168l-7.68-1.384a113.646,113.646,0,0,0,2.275-20.688h0c.077-2.109.082-4.356.028-6.69a88.759,88.759,0,0,0-15.325,6.167c.894,2.336,1.65,4.489,2.238,6.281h0a156.208,156.208,0,0,1,4.332,17.009,10.513,10.513,0,0,0,1.02,5.348c4.424-1.59,9.678-1.605,13.156-4.767a1.055,1.055,0,0,0-.045-1.276" transform="translate(-324.565 -688.335)" fill="#1d4d82"/>
            <path id="Pfad_3242" data-name="Pfad 3242" d="M304.52,725.561c-1.041-12.331-3.17-24.908-5.055-31.392h0a.088.088,0,0,0-.023.015c-2.546-11.271-14.479-19.8-28.817-19.8-16.194,0-29.321,10.88-29.321,24.3q0,.627.038,1.246a.875.875,0,0,0-.148-.072h0a173.81,173.81,0,0,0,5.78,30.155,134.569,134.569,0,0,0,5.374,15.235,68.392,68.392,0,0,1,16.219,2.953c-.01-.133-.02-.266-.029-.4h0a95.466,95.466,0,0,1,.327-15.385,87.394,87.394,0,0,1,1.446-9.436,1.6,1.6,0,0,0,.316,0c2.213-.432,6.387-.782,8.569-1.212a61.458,61.458,0,0,1,5.336,8.814,126.446,126.446,0,0,1,5.274,11.994,88.771,88.771,0,0,1,15.325-6.167c-.081-3.482-.3-7.156-.608-10.853" transform="translate(-180.377 -504.343)" fill="#648eb1"/>
            <path id="Pfad_3243" data-name="Pfad 3243" d="M299.631,590.17l-58.642,4.2a155.175,155.175,0,0,1,1.33-27.886c.312-2.307.714-4.548,1.175-6.695.576-2.68,1.246-5.214,1.958-7.544,2.582-8.484,5.7-14.293,6.745-14.765.216-.1.454-.193.714-.289a24.211,24.211,0,0,1,2.638-.762,76.868,76.868,0,0,1,11.517-1.608,65.551,65.551,0,0,1,15.171.4c.589.108,1.144.229,1.66.368a13.072,13.072,0,0,1,1.359.433,6.956,6.956,0,0,1,1.629.843c.945.684,2.677,6.851,4.571,14.765.522,2.191,1.059,4.515,1.591,6.892,3.318,14.769,6.585,31.642,6.585,31.642" transform="translate(-180.117 -399.793)" fill="#648eb1"/>
            <path id="Pfad_3244" data-name="Pfad 3244" d="M297.279,430.993c6.939-1.291,14.378-4.337,18.434-10.1a4.491,4.491,0,0,0-2.266-1.052,33.437,33.437,0,0,1-13.255,6.787,29.768,29.768,0,0,1-17.7-1.024,4.088,4.088,0,0,0-2.034,5.377c1.759,5.425,8.264,6.988,13.306,7.17a24.91,24.91,0,0,0,20.766-9.768c-5.505,2.314-11.291,3.576-17.255,2.614" transform="translate(-209.515 -313.979)" fill="#fff"/>
            <path id="Pfad_3245" data-name="Pfad 3245" d="M348.077,434.112c5.964.962,11.75-.3,17.255-2.614.249-.339.491-.683.721-1.036a7.469,7.469,0,0,0,1.463-4,3.334,3.334,0,0,0-.705-2.135,3.114,3.114,0,0,0-.3-.317c-4.056,5.767-11.495,8.813-18.434,10.1" transform="translate(-260.313 -317.098)" fill="#dbd5d1"/>
            <path id="Pfad_3246" data-name="Pfad 3246" d="M320.395,419.481a8.139,8.139,0,0,0-3.034.048c-3.7.757-7.134,2.4-10.736,3.494-3.775,1.147-7.677.768-11.56.92a13.366,13.366,0,0,0-5.622,1.3,29.767,29.767,0,0,0,17.7,1.024,33.438,33.438,0,0,0,13.255-6.787" transform="translate(-216.463 -313.623)" fill="#dbd5d1"/>
            <path id="Pfad_3247" data-name="Pfad 3247" d="M234.121,743.47s.637,12.04.85,12.323,61.563-5.666,61.563-5.666l-1.505-8.853Z" transform="translate(-175.09 -554.369)" fill="#1d4d82"/>
            <path id="Pfad_3248" data-name="Pfad 3248" d="M540.807,570.352a28.272,28.272,0,0,0-4.143,7.614,47.336,47.336,0,0,0-2.55,10.907l21.176,4.037a11,11,0,0,0,3.577-4.781,13.713,13.713,0,0,0,1.169-5.206Z" transform="translate(-399.443 -426.543)" fill="#1d4d82"/>
            <path id="Pfad_3249" data-name="Pfad 3249" d="M89.879,596.308a28.27,28.27,0,0,0-2.229-8.377A47.34,47.34,0,0,0,82,578.26L63.851,589.894a11,11,0,0,0,.692,5.93,13.714,13.714,0,0,0,2.732,4.583Z" transform="translate(-47.648 -432.457)" fill="#1d4d82"/>
            <path id="Pfad_3250" data-name="Pfad 3250" d="M307.307,630.842a23.839,23.839,0,0,0,5.042,8.713,70.483,70.483,0,0,0,7.045,7.2c4.592-3.464,8.547-7.973,10.511-13.378.735-2.021,1.142-4.407-.013-6.22a4.884,4.884,0,0,0-4.436-2.079,6.9,6.9,0,0,0-4.462,2.307,11.915,11.915,0,0,0-2.447,4.478,24.294,24.294,0,0,0-2.953-4.682,6.7,6.7,0,0,0-4.33-2.306,4.085,4.085,0,0,0-4.074,2.339,5.65,5.65,0,0,0,.117,3.625m4.523,2.813a3.359,3.359,0,0,1-.071-2.161,2.437,2.437,0,0,1,2.428-1.395,3.992,3.992,0,0,1,2.581,1.375,14.553,14.553,0,0,1,1.761,2.79,7.1,7.1,0,0,1,1.457-2.671,4.112,4.112,0,0,1,2.66-1.373,2.911,2.911,0,0,1,2.644,1.237,4.284,4.284,0,0,1,.007,3.708,17.975,17.975,0,0,1-6.264,7.972,41.685,41.685,0,0,1-4.2-4.293,14.189,14.189,0,0,1-3-5.192" transform="translate(-229.546 -467.313)" fill="#1d4d82"/>
            <path id="Pfad_3251" data-name="Pfad 3251" d="M325.853,535.228l-15.148,13.9s-7.514-8.27-11.54-12.693c6.807-1.608,19.327-2.553,26.688-1.2" transform="translate(-223.734 -399.794)" fill="#c67d3c"/>
            <path id="Pfad_3252" data-name="Pfad 3252" d="M342.074,843.551a64.537,64.537,0,0,1-16.285,4.914,58.492,58.492,0,0,1-8.623.536c-2.814-.018-5.581-.518-8.38-.6a.288.288,0,0,0-.076.562,31.282,31.282,0,0,0,8.456,1.078,52.242,52.242,0,0,0,8.848-.476,59.967,59.967,0,0,0,7.148-1.392q3-.249,5.987-.606c.387-.046.388-.662,0-.611-1.036.136-2.073.258-3.11.374a39.86,39.86,0,0,0,6.606-2.8c.657-.356.079-1.254-.571-.977" transform="translate(-230.722 -630.819)" fill="#6c9ac4"/>
            <path id="Pfad_3253" data-name="Pfad 3253" d="M254.345,741.524l2.019,15.192,3.187-.106-.319-15.617Z" transform="translate(-190.215 -554.159)" fill="#88aed8"/>
            <path id="Pfad_3254" data-name="Pfad 3254" d="M305.749,739l2.018,15.192,3.187-.106-.318-15.617Z" transform="translate(-228.657 -552.269)" fill="#88aed8"/>
            <path id="Pfad_3255" data-name="Pfad 3255" d="M382.432,739.418l2.018,15.192,3.187-.106-.319-15.617Z" transform="translate(-286.006 -552.584)" fill="#88aed8"/>
            <path id="Pfad_3256" data-name="Pfad 3256" d="M433.835,733.519l2.019,15.192,3.187-.106-.319-15.617Z" transform="translate(-324.448 -548.172)" fill="#88aed8"/>
            <g id="Gruppe_1710" data-name="Gruppe 1710" transform="translate(36.774 135.499)" opacity="0.2" style="mix-blend-mode: overlay;isolation: isolate">
              <g id="Gruppe_1709" data-name="Gruppe 1709">
                <g id="Gruppe_1708" data-name="Gruppe 1708" clip-path="url(#clip-path-7)">
                  <path id="Pfad_3257" data-name="Pfad 3257" d="M248.2,546.953c-5.089,1.125-11,2.392-16.781,3.533a71.125,71.125,0,0,0-11.01,3.254c-2.779,1.042-5.5,2.2-8.037,3.368a157.557,157.557,0,0,0-14.524,7.615s-3.747-2.726-15.36-7.413v0q-2.035-.821-4.4-1.723c-1.1-.418-2.334-.83-3.682-1.234-7.535-2.266-18.564-4.313-28.561-5.894q2.222-1.024,4.49-1.939a102.449,102.449,0,0,1,19.906-5.786v0a99.74,99.74,0,0,1,11.624-1.437,24.172,24.172,0,0,1,2.638-.761c.763-.181,1.6-.352,2.488-.514a78.267,78.267,0,0,1,9.168,10.762c3.264-4.073,6.483-7.669,10.057-11.388l6.635.3a13.073,13.073,0,0,1,1.359.433,99.838,99.838,0,0,1,10.094,1.327h0a102.2,102.2,0,0,1,17.727,4.933q3.124,1.18,6.167,2.561" transform="translate(-145.85 -537.395)" fill="#230211"/>
                </g>
              </g>
            </g>
            <g id="Gruppe_1713" data-name="Gruppe 1713" transform="translate(63.999 171.214)" opacity="0.2" style="mix-blend-mode: overlay;isolation: isolate">
              <g id="Gruppe_1712" data-name="Gruppe 1712">
                <g id="Gruppe_1711" data-name="Gruppe 1711" clip-path="url(#clip-path-8)">
                  <path id="Pfad_3258" data-name="Pfad 3258" d="M310.375,703.674l.894-.087-1.505-8.853-1.1.04c-.691-3.491-1.855-9.293-3.207-15.73-8.591,22.026-27.8,39.971-51.634,44.212.14.638.287,1.287.439,1.94a72.622,72.622,0,0,1,24.147,9.765c.313-2.845.754-5.713,1.346-8.494a1.578,1.578,0,0,0,.316,0c2.213-.432,6.387-.782,8.569-1.211a61.453,61.453,0,0,1,5.336,8.814c.069.136.136.273.2.409a156.579,156.579,0,0,1,19.66-6.875,220.67,220.67,0,0,0-3.466-23.934" transform="translate(-253.824 -679.044)" fill="#230211"/>
                </g>
              </g>
            </g>
            <g id="Gruppe_1716" data-name="Gruppe 1716" transform="translate(134.671 155.569)" opacity="0.3" style="mix-blend-mode: overlay;isolation: isolate">
              <g id="Gruppe_1715" data-name="Gruppe 1715">
                <g id="Gruppe_1714" data-name="Gruppe 1714" clip-path="url(#clip-path-9)">
                  <path id="Pfad_3259" data-name="Pfad 3259" d="M534.852,619.163c-.547,2.637-.739,4.592-.739,4.592l21.176,4.037a11,11,0,0,0,3.577-4.781,13.714,13.714,0,0,0,1.169-5.206l-1.24-.811a21.847,21.847,0,0,1-4.1,1.723,37.689,37.689,0,0,1-19.845.445" transform="translate(-534.113 -616.995)" fill="#230211"/>
                </g>
              </g>
            </g>
            <g id="Gruppe_1719" data-name="Gruppe 1719" transform="translate(16.064 157.074)" opacity="0.3" style="mix-blend-mode: overlay;isolation: isolate">
              <g id="Gruppe_1718" data-name="Gruppe 1718">
                <g id="Gruppe_1717" data-name="Gruppe 1717" clip-path="url(#clip-path-10)">
                  <path id="Pfad_3260" data-name="Pfad 3260" d="M81.612,626.926c-6.371,1.011-12.1-.78-17.2-3.962l-.565.362a11,11,0,0,0,.691,5.93,13.713,13.713,0,0,0,2.732,4.583l22.6-4.1a23.268,23.268,0,0,0-1.033-5.012,25.051,25.051,0,0,1-7.235,2.2" transform="translate(-63.713 -622.964)" fill="#230211"/>
                </g>
              </g>
            </g>
            <path id="Pfad_3261" data-name="Pfad 3261" d="M250.864,541.8c-.214-.037-.429-.071-.643-.1-7.458-1.1-15.067.683-22.286,2.907-8.324,2.565-14.141,6.241-22,9.986-13.648-7.425-31.717-11.39-47.407-10.766q-.871.034-1.731.087c11.5-6.306,24.755-9.8,37.85-9.11l.537.526a78.286,78.286,0,0,1,9.169,10.762c3.264-4.074,6.482-7.669,10.057-11.388.287-.3.58-.6.874-.907a90.635,90.635,0,0,1,35.586,8.005" transform="translate(-117.259 -399.206)" fill="#ffc661"/>
            <g id="Gruppe_1722" data-name="Gruppe 1722" transform="translate(70.685 134.591)" opacity="0.4" style="mix-blend-mode: overlay;isolation: isolate">
              <g id="Gruppe_1721" data-name="Gruppe 1721">
                <g id="Gruppe_1720" data-name="Gruppe 1720" clip-path="url(#clip-path-11)">
                  <path id="Pfad_3262" data-name="Pfad 3262" d="M296.746,546.091a79,79,0,0,0-9.705-11.289,63.3,63.3,0,0,0-6.7.006,129.7,129.7,0,0,1,17.995,16.485,76.832,76.832,0,0,1,18.418-16.873,89.5,89.5,0,0,0-9.079-.627c-3.929,4.05-7.4,7.893-10.93,12.3" transform="translate(-280.342 -533.794)" fill="#230211"/>
                </g>
              </g>
            </g>
            <g id="Gruppe_1725" data-name="Gruppe 1725" transform="translate(46.657 42.274)" opacity="0.2" style="mix-blend-mode: overlay;isolation: isolate">
              <g id="Gruppe_1724" data-name="Gruppe 1724">
                <g id="Gruppe_1723" data-name="Gruppe 1723" clip-path="url(#clip-path-12)">
                  <path id="Pfad_3263" data-name="Pfad 3263" d="M256.3,179.36a46.11,46.11,0,0,0-20.18-10.218c-10.2-2.47-21.345-2.038-30.712,2.693a35.209,35.209,0,0,0-18.275,24.258,105.465,105.465,0,0,0-2.092,16.177,15.246,15.246,0,0,0,6.239-2.2,9.7,9.7,0,0,0,3.121-13.315c3.329,1.248,7.7-.208,8.114-4.161a102.381,102.381,0,0,0,50.139,2.5c0,3.329,1.872,6.449,5.617,6.241a7.479,7.479,0,0,0,1.04,7.49,7.112,7.112,0,0,0,6.449,2.912c.219-.018.436-.039.652-.064.466-4.206.725-8.448.953-12.668.411-7.607-5.415-14.529-11.065-19.642" transform="translate(-185.046 -167.659)" fill="#230211"/>
                </g>
              </g>
            </g>
            <path id="Pfad_3264" data-name="Pfad 3264" d="M253.164,236.869c4.265-9.954,4.321-25.249-5.689-29.382-11.591-4.786-24.308-6.355-36.848-6.179s-25.262,2.9-37.663,4.767a53.314,53.314,0,0,0-8.365,30.9.879.879,0,0,1,.585-.876c.36-.118.757-.275,1,.013a3.612,3.612,0,0,0,4.532.522,5.141,5.141,0,0,0,2.211-4.23,9.154,9.154,0,0,0-1.376-4.713,3.989,3.989,0,0,0,4.614-.666,5.544,5.544,0,0,0,1.538-4.577,9.268,9.268,0,0,0-1.949-4.54,3.792,3.792,0,0,0,3.963.405,6.064,6.064,0,0,0,2.838-2.919,18.038,18.038,0,0,0,1.266-3.946,331.307,331.307,0,0,1,51.611-.534c-.988,2.45.649,6.007,3.208,6.661.677.173,1.517.286,1.783.932a2.122,2.122,0,0,1-.023,1.176,6.687,6.687,0,0,0,6.8,7.87c-.161.009-.641-.009-.8,0a9.877,9.877,0,0,0,.4,4.537,3.386,3.386,0,0,0,3.6,2.209c-.156-.045.005.822-.151.777a1.682,1.682,0,0,0,.776,2.078c.531-.053,1.6-.23,2.136-.283" transform="translate(-123.057 -150.54)" fill="#1b2845"/>
            <path id="Pfad_3265" data-name="Pfad 3265" d="M164.186,166.687a35.461,35.461,0,0,1-.138-6.655c8.142-11.856,37.941-24.763,47.174-26.556,17.037,6.187,33.167,17.3,46.7,29.361-.279,2.705-.289,3.643-.569,6.348-30.622-4.132-62.474-6.066-93.167-2.5" transform="translate(-122.614 -99.821)" fill="#f4b942"/>
            <g id="Gruppe_1728" data-name="Gruppe 1728" transform="translate(41.34 44.482)" opacity="0.4" style="mix-blend-mode: overlay;isolation: isolate">
              <g id="Gruppe_1727" data-name="Gruppe 1727">
                <g id="Gruppe_1726" data-name="Gruppe 1726" clip-path="url(#clip-path-13)">
                  <path id="Pfad_3266" data-name="Pfad 3266" d="M212.545,186.243a146.154,146.154,0,0,1-48.538,6.627,35.458,35.458,0,0,0,.183,5.93c30.693-3.567,62.545-1.633,93.167,2.5.279-2.705.289-3.643.569-6.348a176.68,176.68,0,0,0-24.663-18.534,81.442,81.442,0,0,1-20.717,9.828" transform="translate(-163.957 -176.415)" fill="#230211"/>
                </g>
              </g>
            </g>
            <path id="Pfad_3267" data-name="Pfad 3267" d="M318.828,159.407s-9.915,4.958-9.136,11.828,7.437,11.757,7.437,11.757,7.791-3.9,8.569-11.544-6.87-12.04-6.87-12.04" transform="translate(-231.574 -119.214)" fill="#648eb1"/>
            <g id="Gruppe_1731" data-name="Gruppe 1731" transform="translate(81.036 42.167)" opacity="0.2" style="mix-blend-mode: overlay;isolation: isolate">
              <g id="Gruppe_1730" data-name="Gruppe 1730">
                <g id="Gruppe_1729" data-name="Gruppe 1729" clip-path="url(#clip-path-14)">
                  <path id="Pfad_3268" data-name="Pfad 3268" d="M330.188,167.236c1.72,4.54,1.524,9.406-2.488,13.537a11,11,0,0,1-6.307,3.37,23.109,23.109,0,0,0,4.519,4.7s7.791-3.9,8.57-11.544c.472-4.637-2.152-8.076-4.293-10.066" transform="translate(-321.393 -167.236)" fill="#230211"/>
                </g>
              </g>
            </g>
            <g id="Gruppe_1734" data-name="Gruppe 1734" transform="translate(79.783 41.155)" opacity="0.2" style="mix-blend-mode: overlay;isolation: isolate">
              <g id="Gruppe_1733" data-name="Gruppe 1733">
                <g id="Gruppe_1732" data-name="Gruppe 1732" clip-path="url(#clip-path-15)">
                  <path id="Pfad_3269" data-name="Pfad 3269" d="M323.92,163.222a25.491,25.491,0,0,0-6,6.162c-1.494,2.464-2.083,5.674-.764,8.235.884-.181,1.961-.259,2.846-.44-.911-4.665.886-10.3,3.917-13.957" transform="translate(-316.425 -163.222)" fill="#fff"/>
                </g>
              </g>
            </g>
            <g id="Gruppe_1737" data-name="Gruppe 1737" transform="translate(44.371 34.492)" opacity="0.4" style="mix-blend-mode: overlay;isolation: isolate">
              <g id="Gruppe_1736" data-name="Gruppe 1736">
                <g id="Gruppe_1735" data-name="Gruppe 1735" clip-path="url(#clip-path-16)">
                  <path id="Pfad_3270" data-name="Pfad 3270" d="M220.6,136.795s-18.2,5.524-30.525,13.74-14.094,11.048-14.094,11.048,2.691-2.9,20.256-11.9,24.93-10.411,24.93-10.411l14.59,5.383Z" transform="translate(-175.976 -136.795)" fill="#fff"/>
                </g>
              </g>
            </g>
          </g>
        </g>
      </g>
    </g>
  </g>
</svg>
