<svg id="logoFull" xmlns="http://www.w3.org/2000/svg" xmlns:xlink="http://www.w3.org/1999/xlink" width="295.081" height="71.948" viewBox="0 0 295.081 71.948">
  <defs>
    <clipPath id="clip-path">
      <rect id="Rechteck_636" data-name="Rechteck 636" width="295.081" height="71.948" fill="none"/>
    </clipPath>
  </defs>
  <g id="Gruppe_1548" data-name="Gruppe 1548" transform="translate(0 0)" clip-path="url(#clip-path)">
    <text id="Familienzentrum_Monikahaus" data-name="Familienzentrum Monikahaus" transform="translate(0.124 17.755)" fill="#b51c3e" font-size="14" font-family="Helvetica-Bold, Helvetica" font-weight="700"><tspan x="0" y="0">Familienzentrum Monikahaus</tspan></text>
    <text id="Sozialdienst_katholischer_Frauen_Frankfurt" data-name="Sozialdienst katholischer Frauen Frankfurt" transform="translate(0.124 37.839)" fill="#b51c3e" font-size="10" font-family="Helvetica-Bold, Helvetica" font-weight="700"><tspan x="0" y="0">Sozialdienst katholischer Frauen Frankfurt</tspan></text>
    <line id="Linie_62" data-name="Linie 62" x2="236.449" transform="translate(0 24.533)" fill="none" stroke="#b51c3e" stroke-miterlimit="10" stroke-width="1"/>
    <path id="Pfad_5609" data-name="Pfad 5609" d="M232.829,28.943c-.144.388-.2.8-.311,1.2A27.435,27.435,0,0,1,211.934,49.9a26.482,26.482,0,0,1-4.939.614,27.37,27.37,0,0,1-27-18.978c-.269-.833-.493-1.679-.682-2.534-.035-.154,0-.176.143-.176q2.631.006,5.263,0a.2.2,0,0,1,.229.179,21.392,21.392,0,0,0,6.24,10.179A22.234,22.234,0,0,0,201.667,44.6c.485.106.975.189,1.485.286v-.269q0-9.134.007-18.268c0-.238-.067-.276-.286-.276q-8.156.01-16.312.009a.391.391,0,0,1-.369-.189q-1.863-2.68-3.74-5.352c-.054-.078-.108-.156-.182-.265h.3q10.152,0,20.3.005c.221,0,.283-.044.283-.278q-.012-9.861-.012-19.72c0-.232.057-.283.283-.282q2.621.014,5.242,0c.221,0,.288.043.288.282q-.012,9.859-.012,19.72c0,.236.063.278.284.278q10.152-.01,20.3-.005h.251c.027.088-.044.128-.079.178q-1.914,2.74-3.827,5.483a.335.335,0,0,1-.323.143q-8.156,0-16.313-.007c-.228,0-.3.047-.3.29q.012,9.144,0,18.291c0,.214.059.244.252.214a22.408,22.408,0,0,0,6.885-2.223,21.619,21.619,0,0,0,9.37-9.275,21.061,21.061,0,0,0,1.7-4.308c.044-.162.116-.2.278-.2,1.739.007,3.48,0,5.219,0,.059,0,.12-.005.179-.007Z" transform="translate(62.252 0.001)" fill="#b51c3e"/>
    <path id="Pfad_5610" data-name="Pfad 5610" d="M191.306,57.542a8.75,8.75,0,0,1-2.746-.4,5.03,5.03,0,0,1-3.349-3.64,10.556,10.556,0,0,1-.222-1.063c-.026-.147,0-.213.172-.228.88-.078,1.759-.17,2.638-.263.158-.016.241,0,.273.187a4.045,4.045,0,0,0,.354,1.094,2.667,2.667,0,0,0,1.728,1.491,4.557,4.557,0,0,0,2.872-.1,2.195,2.195,0,0,0,1.126-.942,1.533,1.533,0,0,0-.63-2.265,7.439,7.439,0,0,0-1.5-.516c-1.118-.313-2.262-.535-3.349-.959a5.024,5.024,0,0,1-2.385-1.727,4.1,4.1,0,0,1,1.727-6.119,7.136,7.136,0,0,1,2.728-.586,8.458,8.458,0,0,1,3.412.462,4.35,4.35,0,0,1,2.89,3.712c.075.56.065.562-.505.583-.793.028-1.586.054-2.378.09-.158.007-.23-.032-.253-.2a2.77,2.77,0,0,0-.2-.672,1.931,1.931,0,0,0-1.361-1.223,4.3,4.3,0,0,0-3.047.238,1.177,1.177,0,0,0-.748,1.292,1.234,1.234,0,0,0,.686.931,8.75,8.75,0,0,0,2.193.768,25.145,25.145,0,0,1,3.124.916,4.462,4.462,0,0,1,2.448,2.018,4.692,4.692,0,0,1-2.775,6.736,10.048,10.048,0,0,1-2.932.385" transform="translate(64.224 14.407)" fill="#b61d3f"/>
    <path id="Pfad_5611" data-name="Pfad 5611" d="M199.214,49.9l2.615-2.979c.249-.283.5-.566.748-.851a.247.247,0,0,1,.209-.105q1.746,0,3.492,0c.015.081-.043.115-.081.155q-1.754,1.881-3.515,3.757a.276.276,0,0,0-.053.4q1.938,3.34,3.861,6.689c.034.057.063.116.1.174-.062.073-.133.042-.2.042-.931,0-1.86,0-2.79.007a.293.293,0,0,1-.3-.178q-1.287-2.316-2.584-4.626c-.043-.077-.089-.154-.141-.244-.446.477-.873.935-1.3,1.389-.075.078-.058.167-.058.255,0,1.059-.005,2.118,0,3.177,0,.175-.04.23-.222.228q-1.271-.016-2.541,0c-.175,0-.212-.051-.212-.217q.006-7.521,0-15.043c0-.178.046-.229.226-.228q1.259.016,2.517,0c.2,0,.232.065.232.244q-.008,3.823,0,7.647Z" transform="translate(68.134 14.479)" fill="#b61d3f"/>
    <path id="Pfad_5612" data-name="Pfad 5612" d="M205.509,49.431q0-3.732,0-7.465c0-.2.04-.267.257-.265q5.068.01,10.139,0c.214,0,.259.061.256.261-.012.711-.015,1.423,0,2.134,0,.212-.065.24-.252.238-2.336-.005-4.673,0-7.009-.009-.2,0-.247.054-.244.249.009,1.059.011,2.118,0,3.177,0,.22.071.253.267.253,1.988-.007,3.977,0,5.965-.008.191,0,.26.034.255.244-.015.71-.012,1.421,0,2.133,0,.2-.046.253-.249.252-1.988-.008-3.977,0-5.967-.011-.22,0-.272.054-.271.272.009,2.013,0,4.024.012,6.035,0,.229-.067.271-.278.267q-1.316-.018-2.631,0c-.2,0-.252-.043-.252-.247.008-2.5.005-5.008.005-7.511" transform="translate(71.35 14.479)" fill="#b61d3f"/>
    <path id="Pfad_5613" data-name="Pfad 5613" d="M187.846,3.648a8.348,8.348,0,0,0,3.031,3.528c1.45,1.063,2.918,2.1,4.323,3.228a8.742,8.742,0,0,1,3.28,5.612c.1.632.105.63-.535.63-.733,0-1.467,0-2.2,0-.09,0-.187.035-.207-.127a7.332,7.332,0,0,0-2.987-4.946c-.911-.714-1.894-1.322-2.857-1.96A14.146,14.146,0,0,1,187.229,7.7a6.253,6.253,0,0,1-1.217-1.681.58.58,0,0,1,.125-.775c.543-.515,1.064-1.052,1.629-1.543a.743.743,0,0,1,.079-.053" transform="translate(64.55 1.267)" fill="#b61d3f"/>
    <path id="Pfad_5614" data-name="Pfad 5614" d="M216.035,5.852a7.218,7.218,0,0,0-2.956,2.3q-1.627,2.152-3.224,4.326a10.285,10.285,0,0,1-3.046,2.9,8.836,8.836,0,0,1-3.563,1.171c-.163.018-.222-.007-.221-.191.011-.862.008-1.724,0-2.587,0-.147.031-.2.191-.226a7.414,7.414,0,0,0,4.978-3.1c.788-1.027,1.451-2.137,2.176-3.206a10.136,10.136,0,0,1,2.576-2.806,3.089,3.089,0,0,1,1.027-.513c.081-.019.156-.046.232.026a26.031,26.031,0,0,1,1.829,1.9" transform="translate(70.489 1.356)" fill="#b61d3f"/>
    <path id="Pfad_5615" data-name="Pfad 5615" d="M185.3,6.28a6.208,6.208,0,0,0,2.93,3.484c1.137.744,2.324,1.415,3.4,2.244a6.884,6.884,0,0,1,2.3,2.782,4.68,4.68,0,0,1,.249.8c.023.1.009.148-.115.148-.938-.005-1.875,0-2.813,0-.079,0-.127-.02-.148-.1a2.917,2.917,0,0,0-1.4-1.766c-.815-.5-1.656-.966-2.475-1.463a14.512,14.512,0,0,1-2.41-1.766,3.941,3.941,0,0,1-1.1-1.966.181.181,0,0,1,.02-.151A21.294,21.294,0,0,1,185.3,6.28" transform="translate(63.781 2.181)" fill="#b61d3f"/>
    <path id="Pfad_5616" data-name="Pfad 5616" d="M212.49,3.312a5.532,5.532,0,0,0-3.062,2.305c-.674.912-1.215,1.91-1.844,2.852a11.4,11.4,0,0,1-2.157,2.583,5.45,5.45,0,0,1-2.173,1.122c-.178.044-.23.005-.228-.185.009-.885,0-1.769,0-2.654,0-.1-.02-.193.119-.229a2.882,2.882,0,0,0,1.732-1.371c.513-.826.981-1.681,1.487-2.513a13.123,13.123,0,0,1,1.9-2.534,3.864,3.864,0,0,1,1.817-.965.18.18,0,0,1,.151.011,21.372,21.372,0,0,1,2.257,1.578" transform="translate(70.489 0.595)" fill="#b61d3f"/>
    <path id="Pfad_5617" data-name="Pfad 5617" d="M212.366,28.236a19.527,19.527,0,0,1-1.889,1.955c-.089.081-.148.031-.218-.005a14.692,14.692,0,0,1-2.3-1.483,15.469,15.469,0,0,1-3.617-3.783,7.7,7.7,0,0,1-1.252-3.293c-.069-.564-.079-.564.486-.564.734,0,1.467.007,2.2,0,.187,0,.265.036.31.242a8.436,8.436,0,0,0,2.275,4.056,12.743,12.743,0,0,0,3.507,2.653c.155.078.315.143.5.225" transform="translate(70.5 7.312)" fill="#b61d3f"/>
    <path id="Pfad_5618" data-name="Pfad 5618" d="M197.651,22.565c0,.439,0,.877,0,1.316,0,.105-.024.163-.137.186a9,9,0,0,0-4.814,2.969,12.17,12.17,0,0,0-2.033,2.9c-.065.133-.109.365-.194.38-.14.026-.248-.163-.365-.265-.532-.462-1.021-.966-1.5-1.477a.268.268,0,0,1-.053-.369,17.543,17.543,0,0,1,2.894-3.9,12.218,12.218,0,0,1,3.1-2.4,7.062,7.062,0,0,1,2.914-.839c.158-.009.193.038.189.185-.008.439,0,.877,0,1.316" transform="translate(65.447 7.314)" fill="#b61d3f"/>
    <path id="Pfad_5619" data-name="Pfad 5619" d="M207.121,15.6a6.808,6.808,0,0,0,2.793-2.358c.924-1.159,1.743-2.394,2.6-3.6a9.816,9.816,0,0,1,2.158-2.308,5.981,5.981,0,0,1,1.184-.656.168.168,0,0,1,.242.071q.669.928,1.256,1.912c.044.075.093.133-.04.185a6.587,6.587,0,0,0-2.843,2.451c-.618.829-1.114,1.743-1.73,2.576a7.5,7.5,0,0,1-1.631,1.626.437.437,0,0,1-.265.108c-1.241,0-2.48,0-3.72,0" transform="translate(71.911 2.311)" fill="#b61d3f"/>
    <path id="Pfad_5620" data-name="Pfad 5620" d="M197.568,11.848c-.088-.187-.166-.38-.263-.56a6.854,6.854,0,0,0-1.82-2.026c-1.248-1.02-2.592-1.906-3.906-2.837a9.843,9.843,0,0,1-2.2-2.044,5.822,5.822,0,0,1-.71-1.258.17.17,0,0,1,.07-.244c.618-.447,1.257-.864,1.912-1.256.074-.044.132-.1.183.04a6.286,6.286,0,0,0,2.2,2.653c.8.626,1.684,1.121,2.518,1.695a8.259,8.259,0,0,1,1.887,1.781.77.77,0,0,1,.167.5c-.009,1.111,0,2.223-.005,3.334v.217l-.031.005" transform="translate(65.497 0.547)" fill="#b61d3f"/>
    <path id="Pfad_5621" data-name="Pfad 5621" d="M208.59,21.063c.5,0,1,0,1.5,0,.1,0,.182,0,.238.119a6.186,6.186,0,0,0,2.991,2.851c.323.158.322.162.164.476a19.882,19.882,0,0,1-1.164,2.018c-.058.089-.1.152-.225.085a11.027,11.027,0,0,1-4.671-4.353,7.212,7.212,0,0,1-.466-1.029c-.046-.124-.028-.17.119-.167.505.008,1.012,0,1.518,0" transform="translate(71.845 7.312)" fill="#b61d3f"/>
    <path id="Pfad_5622" data-name="Pfad 5622" d="M196.728,24.917c0,.932-.028,1.84.012,2.746a.831.831,0,0,1-.515.9,5.911,5.911,0,0,0-2.442,2.721c-.182.368-.186.366-.552.182a19.66,19.66,0,0,1-1.959-1.133c-.1-.067-.15-.117-.081-.247a10.98,10.98,0,0,1,4.443-4.707,5.863,5.863,0,0,1,1.094-.461" transform="translate(66.369 8.652)" fill="#b61d3f"/>
    <path id="Pfad_5623" data-name="Pfad 5623" d="M187.851,26.67c-.252-.335-.473-.684-.687-1.037-.273-.453-.523-.919-.763-1.39a.261.261,0,0,1,0-.288,10.726,10.726,0,0,1,2.378-2.8.3.3,0,0,1,.2-.088c1.277,0,2.554,0,3.883,0a15.094,15.094,0,0,0-5.01,5.608" transform="translate(64.702 7.313)" fill="#b61d3f"/>
    <path id="Pfad_5624" data-name="Pfad 5624" d="M203.084,25.2a15.059,15.059,0,0,0,5.565,4.959c-.023.073-.109.1-.172.144a19.366,19.366,0,0,1-2.243,1.319.265.265,0,0,1-.292-.007,10.578,10.578,0,0,1-2.8-2.38.306.306,0,0,1-.078-.2q0-1.883,0-3.767a.265.265,0,0,1,.019-.063" transform="translate(70.502 8.751)" fill="#b61d3f"/>
  </g>
</svg>
