<svg xmlns="http://www.w3.org/2000/svg" width="167.104" height="154.458" viewBox="0 0 167.104 154.458">
  <g id="logoBlue" transform="translate(0.002 -0.021)">
    <g id="Ebene_1" data-name="Ebene 1" transform="translate(-0.002 0.021)">
      <path id="Pfad_2670" data-name="Pfad 2670" d="M35.838,59.295s.055.332.071.42c.938,6.257,1.985,12.6,3.082,18.872a4.81,4.81,0,0,1-.105,2.2,3.419,3.419,0,0,1-3.364,2.494,3.562,3.562,0,0,1-3.629-2.737c-1.4-5.7-1.842-11.353-2.691-17.139a11.651,11.651,0,0,0-1.152,2.674,27.332,27.332,0,0,1-2.216,4.4,15.682,15.682,0,0,1-7.111,6.135c-4.592,1.8-11.269.118-12.951-4.987a12.128,12.128,0,0,1,.261-7.594c.156-.53.378-1.068.6-1.636a6.782,6.782,0,0,0-.778-.42A9.656,9.656,0,0,1,.386,50.355c1.333-4.794,5.693-7.758,10.882-7.569a25.465,25.465,0,0,1,7.682,1.657c1.43.517,2.834,1.068,4.264,1.552a6.085,6.085,0,0,0,3.713.341L26.789,44.8c-.538-4.882-.929-6.286-1.434-11.168a8.237,8.237,0,0,1,.034-2.229,3.566,3.566,0,0,1,3.225-2.859A3.625,3.625,0,0,1,32.3,30.8a5.546,5.546,0,0,1,.353,1.644c.542,4.55,1.055,9.112,1.774,13.767a39.884,39.884,0,0,0,1.842-5.025l1.854-5.349c.42-1.261.841-2.489,1.291-3.738a15.4,15.4,0,0,1,.656-1.682,3.709,3.709,0,0,1,4.2-2.1,3.511,3.511,0,0,1,2.822,3.629,6.572,6.572,0,0,1-.383,1.774c-1.741,5.088-3.41,10.2-5.323,15.239a6.176,6.176,0,0,0,.841,6.434c3.692,4.953,7.249,9.949,10.878,14.94,1.261,1.724,2.632,3.364,3.839,5.134a5.736,5.736,0,0,1,1,2.422,3.133,3.133,0,0,1-1.9,3.364,3.524,3.524,0,0,1-3.99-.383,7.3,7.3,0,0,1-1.346-1.459c-1.632-2.3-3.364-4.541-5.016-6.812l-5.046-6.862-2.216-3.019L37.322,61.2C36.868,60.6,35.838,59.295,35.838,59.295Zm-10.4-4.987c-.139-.151-.526-.16-.841-.2a19.377,19.377,0,0,1-3.318-.727c-1.682-.509-3.288-1.165-4.937-1.741-2.048-.715-4.39-1.682-6.6-1.182a3.08,3.08,0,0,0-2.523,2.771,3.329,3.329,0,0,0,1.753,2.552c.912.563,1.968.879,2.918,1.383,1.4.748,3.141,1.438,3.4,2.834s-.959,3.49-1.535,4.8a11.164,11.164,0,0,0-.791,2.018,2.211,2.211,0,0,0,2.4,2.864,4.588,4.588,0,0,0,2.271-.795c2.081-1.346,3.154-3.612,4.125-5.8l2.014-4.533L24.783,56.3C24.947,55.923,25.775,54.682,25.435,54.308Z" transform="translate(0.002 -16.363)" fill="#648eb1"/>
      <path id="Pfad_2671" data-name="Pfad 2671" d="M88.369,207.449c2.1-.786,3.978-1.514,5.887-2.1a6.551,6.551,0,0,1,2.6-.349,3.713,3.713,0,0,1,3.2,3.04,3.448,3.448,0,0,1-1.938,3.784,84.258,84.258,0,0,1-8.612,3.318,5.932,5.932,0,0,1-7.771-3.885,42.391,42.391,0,0,1-1.261-5.046c-.711-3.574-1.358-7.186-2-10.765-.055-.219-.109-.421-.21-.816-1.825.37-3.646.77-5.538,1.148.055.576.067,1.055.147,1.564.883,5.395,1.77,10.819,2.62,16.218a6.215,6.215,0,0,1-.021,1.934,3.221,3.221,0,0,1-2.552,2.666,3.528,3.528,0,0,1-3.587-1.072,4.419,4.419,0,0,1-1.152-2.523c-.475-3.242-.95-6.484-1.493-9.718-.42-2.477-.875-4.945-1.362-7.6-1.358.261-2.59.475-4.02.744.055.576.105,1.085.156,1.627l1.581,13.515a15.557,15.557,0,0,1,.139,1.821,3.545,3.545,0,0,1-2.809,3.528,3.633,3.633,0,0,1-4.079-2.018,7.064,7.064,0,0,1-.509-2.178c-.526-4.491-1.055-9.015-1.585-13.51-.038-.42-.143-.841-.219-1.261l-1.682.164a3.784,3.784,0,0,1-4.075-3.086,3.643,3.643,0,0,1,2.658-4.058c.656-.193,1.316-.353,2.077-.526-.1-1.022-.151-1.985-.278-2.943-.618-4.743-2.06-16.164-2.712-20.9a8.023,8.023,0,0,1-.105-1.825,3.456,3.456,0,0,1,3.011-3.192,3.578,3.578,0,0,1,3.856,2.17,10.457,10.457,0,0,1,.568,2.46c.711,4.991,2.187,16.731,2.864,21.727.029.32.126.631.2,1.076l3.717-.652c-.105-1.089-.16-2.048-.286-3.036q-1.022-8.073-2-16.147a5.42,5.42,0,0,1,.139-2.077,3.556,3.556,0,0,1,6.366-.992,6.614,6.614,0,0,1,.795,2.536c.42,2.943.7,5.958,1.081,8.919.362,2.767.761,5.567,1.161,8.33a7.2,7.2,0,0,0,.223.946c1.821-.421,3.545-.761,5.466-1.173-.16-.984-.273-1.842-.391-2.733-.656-3.826-1.346-7.645-1.989-11.471a9.521,9.521,0,0,1,.328-5.3c1.682-3.948,7.068-3.053,10.559-3.145,1.383-.034,2.737,0,4.129.05a3.768,3.768,0,0,1,3.814,3.532,3.637,3.637,0,0,1-3.562,3.763c-1.615.122-3.242.055-4.831.046-.912,0-1.825,0-2.943.029.769,4.567,1.518,8.91,2.283,13.409,1.161-.24,2.1-.458,3.044-.681a3.868,3.868,0,0,1,4.764,2.473,3.535,3.535,0,0,1-2.376,4.55c-1.261.42-2.523.664-4.02,1.064C86.364,197.718,87.427,202.512,88.369,207.449Z" transform="translate(-27.915 -94.526)" fill="#648eb1"/>
      <path id="Pfad_2672" data-name="Pfad 2672" d="M227.423,30.2c-.214,1.261-.328,2.611-.648,3.864a16.4,16.4,0,0,1-1.392,3.843,4.723,4.723,0,0,1-7.346,1.325,22.907,22.907,0,0,1-3.166-3.818,24.084,24.084,0,0,0-1.518-2.1,4.949,4.949,0,0,0-.034.744q.98,10.836,2.014,21.66a5.353,5.353,0,0,1-.063,1.812,3.641,3.641,0,0,1-3.208,2.889,3.73,3.73,0,0,1-3.89-2.17,7.148,7.148,0,0,1-.5-2.048q-1.682-18.884-3.3-37.743a15.86,15.86,0,0,1,0-3.095,6.476,6.476,0,0,1,.664-2.287,3.944,3.944,0,0,1,6.122-1.013,7.354,7.354,0,0,1,1.682,2.254c1.2,2.334,2.271,4.743,3.444,7.111.921,1.833,3.149,6.164,3.616,6.459.122-1.556.24-3.149.4-4.71.315-3.835.627-7.67,1.013-11.475a14.818,14.818,0,0,1,.791-3.431,3.839,3.839,0,0,1,3.608-2.943c3.658-.294,4.512,3.057,5.408,5.887,1.972,6.215,3.166,12.657,4.625,19,1.526,6.555,3.284,13.035,4.907,19.574a9.158,9.158,0,0,1,.265,1.392,3.826,3.826,0,0,1-7.241,2.056,22.677,22.677,0,0,1-1.152-3.6c-1.518-6.072-3.011-12.194-4.533-18.254-.105-.42-.244-.782-.383-1.19A.231.231,0,0,0,227.423,30.2Z" transform="translate(-118.393 -3.084)" fill="#648eb1"/>
      <path id="Pfad_2673" data-name="Pfad 2673" d="M333.306,133.673c-.156,4.907,0,9.831-.189,14.717-.063,1.838-.841,3.364-2.725,3.864a3.9,3.9,0,0,1-4.97-3.162,27.465,27.465,0,0,1-.135-6.307q.063-3.318.168-6.631c.219-6.871.715-13.716.538-20.6-.034-1.287-.038-2.708.807-3.679a3.885,3.885,0,0,1,5.887.42c.479.791.8,1.682,1.219,2.523q4.785,9.882,9.608,19.763c.21.4.446.765.812,1.4.172-2.817.3-5.344.509-7.846a189.145,189.145,0,0,1,2.548-19.515c.151-.917.265-1.863.45-2.784a3.961,3.961,0,0,1,4.175-3.364,3.843,3.843,0,0,1,3.511,4.234c-.282,2.38-.7,4.71-1.085,7.1a157.192,157.192,0,0,0-2.216,25.881c.029,3.864.16,7.754.324,11.639a3.905,3.905,0,0,1-7.262,2.363q-3.259-5.534-6.307-11.181c-1.644-3.065-3.158-6.206-4.7-9.314-.118-.235-.252-.467-.378-.7s-.42-.7-.42-.7-.063.568-.076.807-.025.589-.034.879Z" transform="translate(-188.438 -59.385)" fill="#648eb1"/>
      <path id="Pfad_2674" data-name="Pfad 2674" d="M233,176.872a59.421,59.421,0,0,1,.034,11.374,14.014,14.014,0,0,1-.879,3.536,8.3,8.3,0,0,1-5.239,5.016,16.835,16.835,0,0,1-14.688-1.505,7.46,7.46,0,0,1-2.1-1.547c-.959-1.14-1.072-2.645-1.337-4.045-.353-1.888-.732-3.784-1.093-5.656-.694-3.62-1.375-7.245-2.1-10.866-.921-4.747-1.808-9.461-2.729-14.208a9.024,9.024,0,0,1,.034-5,4.276,4.276,0,0,1,2.582-2.733,19.779,19.779,0,0,1,6.917-1.215,19.024,19.024,0,0,1,7.039,1.186,15.937,15.937,0,0,1,8.864,7.569,39.409,39.409,0,0,1,4.2,14.112C232.736,174.2,232.892,175.535,233,176.872ZM210.652,158v.042a1.922,1.922,0,0,0,.029.887q2.746,14.339,5.55,28.661a3.536,3.536,0,0,0,2.822,2.658c1.854.269,5.244.421,6.026-1.766a10.159,10.159,0,0,0,.353-3.007,73.254,73.254,0,0,0-1.682-16.853,19.99,19.99,0,0,0-2.729-7.052,8.923,8.923,0,0,0-4.68-3.448C215.3,157.782,211.177,156.462,210.652,158Z" transform="translate(-117.361 -86.946)" fill="#648eb1"/>
      <path id="Pfad_2675" data-name="Pfad 2675" d="M295.822,33.4c-3.036-.32-4.533-1.5-4.693-3.541-.168-2.145,1.068-3.364,4.583-4.445,0-1.9-.063-3.86,0-5.832.109-4.907.219-9.818.366-14.717a5.807,5.807,0,0,1,.5-2.178,4.2,4.2,0,0,1,6.854-1.472,8.478,8.478,0,0,1,1.728,2.523c1.816,3.822,3.532,7.687,5.281,11.513.984,2.161,2,4.348,3.028,6.6.4-.038.807-.046,1.169-.114,2.166-.37,4.356-.778,6.522-1.114a9.4,9.4,0,0,1,2.325-.1,3.7,3.7,0,0,1,3.3,3.419,3.784,3.784,0,0,1-2.977,3.9c-1.854.42-3.755.719-5.647,1.064-.332.063-.664.13-1.131.206.177.42.315.807.484,1.177l3.969,7.64a13.094,13.094,0,0,1,.685,1.547,3.641,3.641,0,0,1-1.749,4.361,4.045,4.045,0,0,1-4.966-.807,6.862,6.862,0,0,1-1.072-1.682l-4.97-9.671c-.16-.273-.324-.58-.534-1.009-1.657.353-3.318.673-5.109,1.043v4.508l.177,8.3a5.678,5.678,0,0,1-.16,1.531A3.785,3.785,0,0,1,300.452,49a3.7,3.7,0,0,1-3.965-2.258,9.251,9.251,0,0,1-.454-3.019c-.092-3.082-.08-6.177-.135-9.251A5.771,5.771,0,0,0,295.822,33.4Zm7.346-14.717v5.967l3.036-.475a57.839,57.839,0,0,0-3.036-5.513Z" transform="translate(-168.702 -0.021)" fill="#648eb1"/>
      <path id="Pfad_2676" data-name="Pfad 2676" d="M281.869,152.137c2.1-.631,4.625-1.833,6.8-.959,3.448,1.4,2.91,5.912-.421,7.043-1.047.357-2.17.627-3.255.959-.463.143-.917.315-1.51.5,1,4.836,1.993,9.638,3.028,14.5.421-.042.807-.046,1.173-.114l10.025-2.325c1.753-.4,3.545-.761,5.3-1.093a3.814,3.814,0,0,1,4.44,2.943c.294,2.069-.963,3.784-3.28,4.318l-11.828,2.885c-2.409.589-4.857,1.182-7.3,1.741-2.88.635-4.895-.622-5.5-3.4-.929-4.482-1.829-8.973-2.792-13.456-1.518-7.106-3.032-14.179-4.583-21.281-.42-2.052-.929-4.1-1.329-6.19a4.556,4.556,0,0,1,4.049-5.42c2.67-.353,8.662-.9,11.353-1.026a5.113,5.113,0,0,1,2.6.715,3.313,3.313,0,0,1,1.644,3.784,3.6,3.6,0,0,1-3.074,2.91c-1.093.2-5.546.559-6.686.673l-1.577.151C280.129,144.085,280.974,148.033,281.869,152.137Z" transform="translate(-156.903 -76.365)" fill="#648eb1"/>
      <path id="Pfad_2677" data-name="Pfad 2677" d="M138.941,68.033c.782.5,2.5-.181,3.263-.219a3.77,3.77,0,0,1,4.2,3.978,3.364,3.364,0,0,1-2.712,3.162,52.368,52.368,0,0,1-6.728.782,4.562,4.562,0,0,1-4.815-3.364,67.585,67.585,0,0,1-1.791-6.787c-2.065-9.894-4.041-19.822-6.021-29.72-.576-2.843-1.013-5.7-1.489-8.557a7.809,7.809,0,0,1-.143-1.535,3.721,3.721,0,0,1,3.065-3.486,3.562,3.562,0,0,1,3.961,2.191,18.6,18.6,0,0,1,.723,2.994c1.829,9.671,3.625,19.406,5.521,29.085A101.6,101.6,0,0,0,138.5,67.4a1.506,1.506,0,0,0,.206.458A.8.8,0,0,0,138.941,68.033Z" transform="translate(-71.111 -12.89)" fill="#648eb1"/>
      <path id="Pfad_2678" data-name="Pfad 2678" d="M176.227,199.835c.992.748,3.583-.37,4.655-.5a3.86,3.86,0,0,1,4.344,2.523,3.457,3.457,0,0,1-2.262,4.546,32.334,32.334,0,0,1-6.955,1.1,7.431,7.431,0,0,1-7.178-5.769,58.5,58.5,0,0,1-1.463-7.569c-1.131-7.619-2.166-15.281-3.229-22.908-.294-2.128-.685-4.243-1.013-6.37a10.516,10.516,0,0,1-.168-1.4,3.692,3.692,0,0,1,3.065-3.784,3.831,3.831,0,0,1,4.2,2.548,13.875,13.875,0,0,1,.521,2.33c.967,6.572,1.871,13.153,2.838,19.721.7,4.743.971,9.671,2.044,14.351a2.271,2.271,0,0,0,.479,1.085A.841.841,0,0,0,176.227,199.835Z" transform="translate(-94.432 -92.53)" fill="#648eb1"/>
      <path id="Pfad_2679" data-name="Pfad 2679" d="M178.787,46.849c.185,2.14-.744,3.734-2.43,4.31a3.7,3.7,0,0,1-4.823-2.313,25.478,25.478,0,0,1-.8-4.26c-.841-5.74-2.279-14.41-3.091-20.15a6.143,6.143,0,0,1,.08-2.351,3.574,3.574,0,0,1,3.128-2.578,3.625,3.625,0,0,1,3.713,1.985,11.72,11.72,0,0,1,.757,2.817c.98,6.37,2.447,15.684,3.389,22.059A2.523,2.523,0,0,1,178.787,46.849Z" transform="translate(-97.105 -11.297)" fill="#648eb1"/>
      <path id="Pfad_2680" data-name="Pfad 2680" d="M181.182,107.656c0-.479-.059-.765-.038-1.055a3.6,3.6,0,0,1,3.242-3.587,3.692,3.692,0,0,1,4.138,2.8c.315,1.3.5,2.679.715,4.02.391,2.489.467,2.245.841,4.739a6.021,6.021,0,0,1-.093,2.056,3.6,3.6,0,0,1-3.364,2.691,3.738,3.738,0,0,1-3.65-2.3,5.189,5.189,0,0,1-.345-1.211C181.964,112.109,181.707,111.171,181.182,107.656Z" transform="translate(-104.971 -59.683)" fill="#648eb1"/>
      <g id="Gruppe_1546" data-name="Gruppe 1546" transform="translate(53.364 116.625)" opacity="0.3">
        <path id="Pfad_2681" data-name="Pfad 2681" d="M141.512,309.387h0a19.591,19.591,0,0,0-2.99,1.653l-3.107,1.774a2.787,2.787,0,0,0-.7.5,6.749,6.749,0,0,0-.938,2.792c-.29,1.173-.538,2.355-.727,3.549a31.849,31.849,0,0,0-.374,7.127c.071,1.123-.105,1.484-.685,1.547s-.866-.273-.967-1.392c-.353-4.045.42-8.052,1.261-11.98-1.442.463-2.712,1.951-3.831,2.922-.362.315-.753.635-1.224.244a.863.863,0,0,1,0-1.341,41.371,41.371,0,0,1,4.583-3.608,4.76,4.76,0,0,0,1.732-2.014c.37-.841.576-1.749.921-2.6a25.953,25.953,0,0,1,3.612-6.366,8.613,8.613,0,0,1,1.884-1.787,1.681,1.681,0,0,1,2.691.891,6.9,6.9,0,0,1,.374,1.745c.126,1.14.156,2.292.257,3.591.841-.391,1.581-.736,2.3-1.055a56.91,56.91,0,0,1,9.638-3.755,2.666,2.666,0,0,1,1.2-.084.883.883,0,0,1,.568.656c.055.2-.177.517-.387.656a2.914,2.914,0,0,1-.908.294,76.742,76.742,0,0,0-11.774,4.785,1.329,1.329,0,0,0-.774,1.308c-.42,5.424-.816,10.87-1.228,16.294a4.036,4.036,0,0,1-.2,1.346,1.072,1.072,0,0,1-.786.563c-.261,0-.58-.421-.677-.694a2.191,2.191,0,0,1,.029-.959q.32-4.171.656-8.347c.105-1.367.244-2.729.353-4.1A18.174,18.174,0,0,0,141.512,309.387Zm.063-1.871a31.119,31.119,0,0,0-.055-3.961,4.075,4.075,0,0,0-.421-1.451c-.353-.639-.681,0-1.051.378a15.714,15.714,0,0,0-1.888,2.523,27.172,27.172,0,0,0-2.489,5.715c1.934-1.085,3.89-2.145,5.9-3.2Z" transform="translate(-126.907 -290.509)"/>
        <path id="Pfad_2682" data-name="Pfad 2682" d="M283.5,290.626a7.294,7.294,0,0,1,3.095-.126,3.448,3.448,0,0,1,1.35.563,2.1,2.1,0,0,1,.669,2.6,7.766,7.766,0,0,1-1.114,2.1,13.621,13.621,0,0,1-2.229,2.2,30.478,30.478,0,0,1-8.893,4.6.753.753,0,0,1-1.034-.4.66.66,0,0,1,.042-.534c.248-.509.593-.547,1.072-.736.656-.257,1.287-.484,2.018-.753a9.646,9.646,0,0,0,.109-1.682c.038-.576.08-1.156.118-1.732l.261-3.494q.24-3.444.421-6.892c.025-.454.1-2.266.963-1.421.475.467.3,1.552.282,2.132-.05,1.476-.177,4.457-.177,4.457A22.771,22.771,0,0,1,283.5,290.626Zm3.852,2.01c-.4-.879-2.523-.685-3.238-.605a9.936,9.936,0,0,0-3.343,1.085c-.74.387-.589,1.447-.631,2.145-.088,1.383-.214,2.758-.185,4.142,2.1-1.177,2.342-1.261,2.872-1.581a17.312,17.312,0,0,0,2.9-2.187c.669-.635,1.745-1.724,1.682-2.733a.766.766,0,0,0-.038-.265Z" transform="translate(-212.902 -281.621)"/>
        <path id="Pfad_2683" data-name="Pfad 2683" d="M201.077,299.36a7.95,7.95,0,0,0,1.434-.732v-1.034c-.1-2.767-.172-5.538-.248-8.309-.025-1.156.24-1.606.862-1.577.542,0,.761.42.8,1.522.076,2.771.151,5.672.248,8.595.488-.181.887-.568,1.194-.563a.921.921,0,0,1,.778.421c.278.467-.109.942-.492,1.165a16.325,16.325,0,0,0-1.438,1.009s.08.584.122,1c.235,2.334.421,4.7.639,7.035a1.584,1.584,0,0,0,.042.278c.046.458-.076.841-.568.967a.795.795,0,0,1-1.013-.694,6.123,6.123,0,0,1-.147-.955c-.21-2.157-.42-4.688-.614-6.85a5.683,5.683,0,0,0-1.43.635s.021.812.084,1.447c.2,2.569.45,5.159.648,7.729a3.364,3.364,0,0,1-.072,1.354,1.11,1.11,0,0,1-.841.538c-.2.034-.568-.349-.61-.6a10.933,10.933,0,0,1-.177-1.8c-.1-1.211-.189-2.426-.29-3.637-.05-.6-.1-1.2-.147-1.8-.029-.332-.219-2.523-.219-2.523a3.524,3.524,0,0,1-.841.341.778.778,0,0,1-.816-.727,1.211,1.211,0,0,1,.534-.917c.387-.307.563-.244.9-.61-.1-.841-.143-2.195-.206-3.061-.185-2.493-.37-4.991-.551-7.46-.084-1.018.168-1.547.706-1.581s.841.383.917,1.43c.227,2.9.45,5.8.648,8.708C200.989,298.658,201.027,298.881,201.077,299.36Z" transform="translate(-168.088 -283.362)"/>
        <path id="Pfad_2684" data-name="Pfad 2684" d="M332.306,286.253c-.454-1.421-1.018-3.074-1.48-4.55a27.273,27.273,0,0,0-2.674.908c-.631.235-1.875.984-2.279.063a.753.753,0,0,1,.42-1.022,5.708,5.708,0,0,1,.622-.3c1.219-.421,2.439-.87,3.667-1.262a1.109,1.109,0,0,1,1.581.706,15.683,15.683,0,0,1,.786,2.065c.87,2.893,2.018,5.715,2.611,8.687a.87.87,0,0,1-.021.593.723.723,0,0,1-.513.311.744.744,0,0,1-.593-.092.934.934,0,0,1-.248-.42c-.105-.269-1.367-3.89-1.325-3.9a7.447,7.447,0,0,1-5.492-.53,6.614,6.614,0,0,1-3.81-4.184c-.5-1.96.114-4.827,2.145-5.761a1.682,1.682,0,0,1,1.762.135.706.706,0,0,1,.257.378.664.664,0,0,1-.257.635,9.936,9.936,0,0,1-1.261.677,2.99,2.99,0,0,0-.841.875,3.364,3.364,0,0,0-.315,2.477C325.667,285.467,329.611,287.447,332.306,286.253Z" transform="translate(-240.772 -277.374)"/>
        <path id="Pfad_2685" data-name="Pfad 2685" d="M297.251,288.289v-.025c-.105-.891-.269-1.783-.421-2.67-.071-.446-.135-.887-.21-1.329a2.355,2.355,0,0,0-.185-.942.6.6,0,0,0-.269-.2c-.757-.315-1.114.32-1.076.963a5.441,5.441,0,0,1-.723,3,.841.841,0,0,1-.42.421.7.7,0,0,1-.572-.143,2.528,2.528,0,0,1-.761-1.657l-.273-1.5c-.105-.589-.643-.66-1.085-.353a.564.564,0,0,0-.231.244.6.6,0,0,0-.034.311,5.9,5.9,0,0,0,1.489,4.024,1.758,1.758,0,0,0,2.523-.109,3.615,3.615,0,0,0,.391-.446l.109-.147.105-.147.05.172c.08.324.147.6.244.891a.807.807,0,0,0,1.3.151A.736.736,0,0,0,297.251,288.289Z" transform="translate(-221.99 -280.658)"/>
        <path id="Pfad_2686" data-name="Pfad 2686" d="M311.272,287.543l3.856,2.178c.635.362,1.215.744,1.9,1.089a7.9,7.9,0,0,1,1.291.807c.353.269.942.7.795,1.219a.74.74,0,0,1-.681.475,1.6,1.6,0,0,1-.841-.244c-.929-.5-1.8-1.093-2.729-1.606-1.165-.648-2.342-1.283-3.511-1.922-.307-.156-.383-.214-1.1-.551a1.861,1.861,0,0,1,.029.328,2.74,2.74,0,0,0,.059.421c.038.294.08.593.122.887.063.421.13.841.2,1.287a9.431,9.431,0,0,1,.164,1.081c0,.446-.105.921-.6,1.022s-.891-.273-1.064-1.2c-.555-3-.841-6.03-1.459-9.015a2.693,2.693,0,0,1-.072-1.564,1.644,1.644,0,0,1,1.081-.816,2.893,2.893,0,0,1,3.242,1.261,3.473,3.473,0,0,1,.029,3.805A7.4,7.4,0,0,1,311.272,287.543Zm-1.438-1.2c1.4-1.56,1.152-2.843-.517-3.305C309.413,283.822,309.745,285.866,309.834,286.341Z" transform="translate(-231.583 -279.656)"/>
        <path id="Pfad_2687" data-name="Pfad 2687" d="M266.266,296.314v.366c0,1.438.118,2.569.151,4.012.042,1.072-.324,1.547-.9,1.51-.841-.072-.816-.774-.841-1.362-.042-1.535-.1-3.065-.139-4.6-.034-1.194-.42-3,.421-4.007a.841.841,0,0,1,.4-.282.728.728,0,0,1,.442.055,3.066,3.066,0,0,1,1.232,1.459c.349.643.618,1.32.934,1.981a5.759,5.759,0,0,0,.9,1.741c.08-.475.16-.95.21-1.447q.214-2.081.42-4.163c.08-.807.114-1.623.223-2.426.076-.576.135-1.564.614-1.968a.9.9,0,0,1,.42-.189.652.652,0,0,1,.3,0,.7.7,0,0,1,.391.509,7.865,7.865,0,0,1-.156,2.763c-.122,1-.265,2-.378,3-.206,1.8-.421,3.591-.631,5.382a3.153,3.153,0,0,1-.475,1.442,1.055,1.055,0,0,1-.509.42.942.942,0,0,1-.925-.29,4.848,4.848,0,0,1-.748-1.308c-.265-.547-.362-.782-.6-1.337-.122-.278-.252-.551-.378-.841a5.34,5.34,0,0,0-.387-.812A1.307,1.307,0,0,0,266.266,296.314Z" transform="translate(-206.597 -282.94)"/>
        <path id="Pfad_2688" data-name="Pfad 2688" d="M250.008,309.894a1.164,1.164,0,0,0,0,.513c.046.3.05,1.152.235,1.354s.643,0,.971-.05c.652-.126,1.3-.278,1.976-.387.5-.076.959.055,1.039.715.059.555-.29.791-.761.891-1.022.235-2.035.5-3.057.711-1.4.3-1.745-1.425-2.077-2.561a13.229,13.229,0,0,1-.5-5,2.258,2.258,0,0,1,1.127-1.85,7.151,7.151,0,0,1,1.463-.513c1.261-.383,2.523-.551,2.943,1,.551,1.846.181,2.943-1.371,3.9a12.431,12.431,0,0,1-1.156.669C250.605,309.435,250.105,309.54,250.008,309.894Zm-.391-1.728a6.688,6.688,0,0,0,1.716-.98c.328-.206.706-.446.769-.841.093-.555-.21-1.51-.908-1.194-.311.139-.631.261-.955.374-.235.08-.719.139-.807.42a.93.93,0,0,0,0,.324c.029.332.084.66.122.992A5.808,5.808,0,0,0,249.617,308.165Z" transform="translate(-196.953 -292.491)"/>
        <path id="Pfad_2689" data-name="Pfad 2689" d="M229.535,296.406c.6,0,1.61-.126,1.875.631.147.442-.139.77-.6.921l-.992.257c.071.454.114.887.206,1.308.551,2.868,1.085,5.736,1.682,8.591a1.649,1.649,0,0,1,.046.639.782.782,0,0,1-.471.58.7.7,0,0,1-.723-.139,1.11,1.11,0,0,1-.219-.332c-.841-1.682-1.56-6.82-1.85-8.654a49.556,49.556,0,0,1-.929-7.569,14.05,14.05,0,0,1,.2-3.305,1.9,1.9,0,0,1,1.261-1.484c.534-.147,1.682.257,1.329.992-.135.294-.479.421-.719.635a2.372,2.372,0,0,0-.484,1.728,19.486,19.486,0,0,0,.072,2.044C229.228,293.5,229.459,296.406,229.535,296.406Z" transform="translate(-185.222 -283.427)"/>
        <path id="Pfad_2690" data-name="Pfad 2690" d="M172.956,323.088a.5.5,0,0,0-.332,0,10.231,10.231,0,0,1-1.8.126,8.83,8.83,0,0,1-2.443-.311,1.548,1.548,0,0,1-1.165-1.707,2.4,2.4,0,0,1,.45-.9c.614-.841,5.269-4.857,5.958-2.872.189.534-.177.841-.631,1.051a18.691,18.691,0,0,0-3.81,2.384.639.639,0,0,0-.248.311c-.151.622,3.616.315,4.087.29a1.762,1.762,0,0,1,1.85.971,1.6,1.6,0,0,1-.5,1.88,7.408,7.408,0,0,1-1.48,1.24c-1.913,1.123-3.86,2.174-5.782,3.225a1.039,1.039,0,0,1-.639.177c-.24-.042-.614-.135-.673-.332a.946.946,0,0,1,.046-.841,5.966,5.966,0,0,1,1.261-.841c1.636-.925,3.3-1.833,4.949-2.788C172.271,323.988,173.217,323.235,172.956,323.088Z" transform="translate(-149.403 -300.265)"/>
        <path id="Pfad_2691" data-name="Pfad 2691" d="M220.738,320.518c-.631.257-1.085.479-1.552.631-.782.252-1.261.072-1.341-.664a54.183,54.183,0,0,1-.286-5.778,2.132,2.132,0,0,1,1.854-2.1c.147-.563.046-1.371.87-1.346s.879.816.976,1.446c.265,1.682.526,3.364.8,5.046q.2,1.262.421,2.523c.067.42.139.841.21,1.287a1.6,1.6,0,0,1,0,1.076c-.147.3-.315.627-.69.648a.765.765,0,0,1-.723-.559A22.72,22.72,0,0,1,220.738,320.518Zm-1.371-1.6a1.4,1.4,0,0,0,.95-.16c.185-.189.088-.53.05-.761-.135-1.009-.286-1.989-.471-2.99-.055-.3-.114-.9-.421-.841s-.463,1.636-.42,2.372C219.145,317.369,219.149,318.8,219.368,318.921Z" transform="translate(-179.44 -297.01)"/>
        <path id="Pfad_2692" data-name="Pfad 2692" d="M240.1,295.277c.421.063.912-.118,1.3.092a.774.774,0,0,1,.374.778c-.109.757-.933.8-1.543.921.063.736.122,1.892.257,2.746.24,1.505.572,3,.879,4.5.118.576.261,1.4-.3,1.8s-1.03-.311-1.169-.807a50.094,50.094,0,0,1-1.291-7.094,30.049,30.049,0,0,1,0-6.564,7.009,7.009,0,0,1,.315-1.682,2.645,2.645,0,0,1,1.009-1.375,1.211,1.211,0,0,1,1-.185.694.694,0,0,1,.471.841,1.572,1.572,0,0,1-.467.551,3.576,3.576,0,0,0-.732,2.5Z" transform="translate(-191.531 -283.745)"/>
        <path id="Pfad_2693" data-name="Pfad 2693" d="M188.9,317.3a7.663,7.663,0,0,1-.055-1.6,7.1,7.1,0,0,1,1.114-3.3c.42-.639,1.682-2.43,2.439-1.262a.761.761,0,0,1-.24,1.093c-1.627,1.375-1.863,3.511-1.455,5.5a3.406,3.406,0,0,0,.45,1.224c.421.635,2.023.757,1.682,1.749-.21.622-.7.622-1.261.454C189.95,320.7,189.147,318.98,188.9,317.3Z" transform="translate(-162.789 -296.721)"/>
      </g>
    </g>
  </g>
</svg>
