<svg xmlns="http://www.w3.org/2000/svg" width="136.582" height="126.245" viewBox="0 0 136.582 126.245">
  <g id="logoWhite" transform="translate(0.002 -0.021)">
    <g id="Ebene_1" data-name="Ebene 1" transform="translate(-0.002 0.021)">
      <path id="Pfad_2363" data-name="Pfad 2363" d="M29.291,53.619s.045.272.058.344c.766,5.114,1.622,10.3,2.519,15.425a3.932,3.932,0,0,1-.086,1.8,2.794,2.794,0,0,1-2.749,2.038,2.911,2.911,0,0,1-2.966-2.237c-1.141-4.657-1.505-9.28-2.2-14.009a9.523,9.523,0,0,0-.942,2.186,22.339,22.339,0,0,1-1.811,3.6A12.818,12.818,0,0,1,15.3,67.779c-3.753,1.474-9.211.1-10.586-4.076A9.912,9.912,0,0,1,4.931,57.5c.127-.433.309-.873.488-1.337a5.544,5.544,0,0,0-.636-.344,7.892,7.892,0,0,1-4.468-9.5A8.57,8.57,0,0,1,9.21,40.126a20.814,20.814,0,0,1,6.279,1.354c1.169.423,2.316.873,3.485,1.268a4.974,4.974,0,0,0,3.035.278L21.9,41.776c-.44-3.99-.76-5.138-1.172-9.128a6.733,6.733,0,0,1,.027-1.822,2.914,2.914,0,0,1,2.636-2.337A2.963,2.963,0,0,1,26.4,30.327a4.533,4.533,0,0,1,.289,1.344c.443,3.719.863,7.448,1.45,11.252a32.6,32.6,0,0,0,1.505-4.107l1.516-4.372c.344-1.031.687-2.035,1.055-3.055a12.586,12.586,0,0,1,.536-1.375A3.031,3.031,0,0,1,36.186,28.3a2.87,2.87,0,0,1,2.306,2.966,5.372,5.372,0,0,1-.313,1.45c-1.423,4.159-2.787,8.338-4.351,12.455a5.048,5.048,0,0,0,.687,5.258c3.018,4.049,5.925,8.132,8.891,12.211,1.031,1.409,2.151,2.749,3.138,4.2a4.688,4.688,0,0,1,.815,1.98,2.56,2.56,0,0,1-1.55,2.75,2.88,2.88,0,0,1-3.262-.313,5.963,5.963,0,0,1-1.1-1.193c-1.334-1.88-2.749-3.712-4.1-5.568l-4.124-5.609-1.811-2.468L30.5,55.176C30.133,54.688,29.291,53.619,29.291,53.619Zm-8.5-4.076c-.113-.124-.43-.131-.687-.162a15.837,15.837,0,0,1-2.712-.595c-1.375-.416-2.688-.952-4.035-1.423-1.674-.584-3.588-1.375-5.4-.966A2.517,2.517,0,0,0,5.9,48.663,2.721,2.721,0,0,0,7.33,50.749c.746.461,1.608.718,2.385,1.131,1.148.612,2.567,1.175,2.777,2.316s-.784,2.853-1.254,3.921a9.125,9.125,0,0,0-.646,1.65,1.807,1.807,0,0,0,1.962,2.341,3.75,3.75,0,0,0,1.856-.65c1.7-1.1,2.578-2.952,3.372-4.739l1.646-3.7.828-1.842C20.39,50.863,21.067,49.849,20.789,49.543Z" transform="translate(0.002 -18.529)" fill="#fff"/>
      <path id="Pfad_2364" data-name="Pfad 2364" d="M81.027,199.348c1.718-.643,3.251-1.237,4.812-1.718a5.355,5.355,0,0,1,2.127-.285,3.035,3.035,0,0,1,2.612,2.485,2.818,2.818,0,0,1-1.584,3.093,68.858,68.858,0,0,1-7.039,2.712,4.849,4.849,0,0,1-6.351-3.176,34.648,34.648,0,0,1-1.031-4.124c-.581-2.921-1.11-5.874-1.636-8.8-.045-.179-.089-.344-.172-.667-1.492.3-2.98.629-4.526.938.045.471.055.863.12,1.279.722,4.41,1.447,8.843,2.141,13.256a5.08,5.08,0,0,1-.017,1.581A2.633,2.633,0,0,1,68.4,208.1a2.883,2.883,0,0,1-2.932-.876,3.612,3.612,0,0,1-.942-2.062c-.388-2.65-.777-5.3-1.22-7.943-.344-2.024-.715-4.042-1.114-6.214-1.11.213-2.117.388-3.286.608.045.471.086.887.127,1.33l1.292,11.046a12.716,12.716,0,0,1,.113,1.488,2.9,2.9,0,0,1-2.3,2.884,2.969,2.969,0,0,1-3.334-1.65,5.774,5.774,0,0,1-.416-1.78c-.43-3.671-.863-7.369-1.3-11.043-.031-.344-.117-.687-.179-1.031l-1.375.134a3.093,3.093,0,0,1-3.33-2.523,2.977,2.977,0,0,1,2.172-3.317c.536-.158,1.076-.289,1.7-.43-.079-.835-.124-1.622-.227-2.406-.505-3.877-1.684-13.211-2.217-17.085a6.558,6.558,0,0,1-.086-1.492,2.825,2.825,0,0,1,2.461-2.609,2.925,2.925,0,0,1,3.152,1.773,8.548,8.548,0,0,1,.464,2.011c.581,4.08,1.787,13.675,2.341,17.758.024.261.1.516.165.88l3.038-.533c-.086-.89-.131-1.674-.234-2.481q-.835-6.6-1.636-13.2a4.43,4.43,0,0,1,.113-1.7,2.907,2.907,0,0,1,5.2-.811,5.406,5.406,0,0,1,.65,2.072c.344,2.406.571,4.87.883,7.29.3,2.261.622,4.55.949,6.808a5.887,5.887,0,0,0,.182.773c1.488-.344,2.9-.622,4.468-.959-.131-.8-.223-1.505-.32-2.234-.536-3.128-1.1-6.248-1.626-9.376a7.782,7.782,0,0,1,.268-4.33c1.375-3.227,5.777-2.5,8.63-2.571,1.131-.027,2.237,0,3.375.041a3.08,3.08,0,0,1,3.117,2.887,2.973,2.973,0,0,1-2.911,3.076c-1.32.1-2.65.045-3.949.038-.746,0-1.492,0-2.406.024.629,3.732,1.241,7.283,1.866,10.96.949-.2,1.718-.375,2.488-.557a3.162,3.162,0,0,1,3.894,2.021,2.889,2.889,0,0,1-1.942,3.719c-1.031.344-2.062.543-3.286.87C79.387,191.4,80.257,195.313,81.027,199.348Z" transform="translate(-31.614 -107.051)" fill="#fff"/>
      <path id="Pfad_2365" data-name="Pfad 2365" d="M223.2,25.654c-.175,1.031-.268,2.134-.529,3.158a13.4,13.4,0,0,1-1.138,3.141,3.86,3.86,0,0,1-6,1.083,18.724,18.724,0,0,1-2.588-3.121A19.685,19.685,0,0,0,211.7,28.2a4.044,4.044,0,0,0-.028.608q.8,8.857,1.646,17.7a4.375,4.375,0,0,1-.052,1.481,2.976,2.976,0,0,1-2.622,2.361,3.049,3.049,0,0,1-3.179-1.773,5.844,5.844,0,0,1-.406-1.674q-1.375-15.435-2.7-30.849a12.964,12.964,0,0,1,0-2.53,5.293,5.293,0,0,1,.543-1.87,3.224,3.224,0,0,1,5-.828,6.011,6.011,0,0,1,1.375,1.842c.98,1.907,1.856,3.877,2.815,5.812a40.982,40.982,0,0,0,2.956,5.279c.1-1.272.2-2.574.323-3.849.258-3.134.512-6.269.828-9.379a12.111,12.111,0,0,1,.646-2.8A3.138,3.138,0,0,1,221.8,5.322c2.99-.241,3.688,2.5,4.42,4.812,1.612,5.08,2.588,10.345,3.781,15.528,1.248,5.358,2.684,10.654,4.011,16a7.483,7.483,0,0,1,.217,1.138,3.128,3.128,0,0,1-5.918,1.681,18.534,18.534,0,0,1-.942-2.939c-1.241-4.963-2.461-9.967-3.7-14.919-.086-.344-.2-.639-.313-.973A.189.189,0,0,0,223.2,25.654Z" transform="translate(-134.084 -3.49)" fill="#fff"/>
      <path id="Pfad_2366" data-name="Pfad 2366" d="M331.82,127.971c-.127,4.011,0,8.035-.155,12.029a3.043,3.043,0,0,1-2.227,3.158,3.188,3.188,0,0,1-4.062-2.585,22.45,22.45,0,0,1-.11-5.155q.052-2.712.137-5.42c.179-5.616.584-11.211.44-16.841a4.314,4.314,0,0,1,.66-3.007,3.176,3.176,0,0,1,4.812.344c.392.646.656,1.375,1,2.062q3.911,8.077,7.853,16.153c.172.327.364.626.663,1.148.141-2.3.247-4.368.416-6.413a154.589,154.589,0,0,1,2.083-15.95c.124-.749.217-1.523.368-2.275a3.238,3.238,0,0,1,3.413-2.749,3.141,3.141,0,0,1,2.87,3.461c-.23,1.945-.574,3.849-.887,5.8a128.475,128.475,0,0,0-1.811,21.154c.024,3.158.131,6.338.265,9.513a3.192,3.192,0,0,1-5.935,1.932q-2.664-4.523-5.155-9.139c-1.344-2.505-2.581-5.073-3.842-7.613-.1-.192-.206-.381-.309-.571s-.344-.574-.344-.574-.052.464-.062.66-.021.481-.028.718Z" transform="translate(-213.412 -67.252)" fill="#fff"/>
      <path id="Pfad_2367" data-name="Pfad 2367" d="M227.43,171.967a48.569,48.569,0,0,1,.027,9.3,11.455,11.455,0,0,1-.718,2.89,6.781,6.781,0,0,1-4.282,4.1,13.76,13.76,0,0,1-12.005-1.23,6.1,6.1,0,0,1-1.718-1.265,6.791,6.791,0,0,1-1.093-3.306c-.289-1.543-.6-3.093-.894-4.623-.567-2.959-1.124-5.922-1.718-8.881-.753-3.88-1.478-7.733-2.231-11.613a7.376,7.376,0,0,1,.027-4.086,3.5,3.5,0,0,1,2.11-2.234,16.166,16.166,0,0,1,5.654-.993,15.549,15.549,0,0,1,5.753.969,13.026,13.026,0,0,1,7.245,6.186,32.21,32.21,0,0,1,3.437,11.534C227.217,169.785,227.344,170.874,227.43,171.967Zm-18.264-15.425v.034a1.571,1.571,0,0,0,.024.725q2.244,11.72,4.537,23.426a2.89,2.89,0,0,0,2.306,2.172c1.516.22,4.286.344,4.925-1.443a8.3,8.3,0,0,0,.289-2.457,59.875,59.875,0,0,0-1.375-13.775,16.339,16.339,0,0,0-2.231-5.764,7.293,7.293,0,0,0-3.825-2.818C212.967,156.364,209.6,155.285,209.166,156.543Z" transform="translate(-132.915 -98.467)" fill="#fff"/>
      <path id="Pfad_2368" data-name="Pfad 2368" d="M294.962,27.306c-2.481-.261-3.7-1.224-3.836-2.894-.137-1.753.873-2.749,3.746-3.633,0-1.553-.052-3.155,0-4.767.089-4.011.179-8.025.3-12.029a4.747,4.747,0,0,1,.412-1.78,3.437,3.437,0,0,1,5.6-1.2A6.929,6.929,0,0,1,302.6,3.062c1.485,3.124,2.887,6.283,4.317,9.41.8,1.767,1.636,3.554,2.475,5.4.327-.031.66-.038.955-.093,1.77-.3,3.561-.636,5.331-.911a7.685,7.685,0,0,1,1.9-.079,3.021,3.021,0,0,1,2.695,2.794,3.093,3.093,0,0,1-2.433,3.186c-1.516.344-3.069.588-4.616.87-.272.052-.543.107-.924.168.144.344.258.66.4.962l3.244,6.245a10.7,10.7,0,0,1,.56,1.265,2.976,2.976,0,0,1-1.43,3.564,3.306,3.306,0,0,1-4.059-.66,5.609,5.609,0,0,1-.876-1.375l-4.062-7.9c-.131-.223-.265-.474-.436-.825-1.354.289-2.712.55-4.176.852v3.684L301.6,36.4a4.639,4.639,0,0,1-.131,1.251,3.093,3.093,0,0,1-2.725,2.406,3.021,3.021,0,0,1-3.241-1.846,7.56,7.56,0,0,1-.371-2.468c-.076-2.519-.065-5.049-.11-7.561A4.717,4.717,0,0,0,294.962,27.306Zm6-12.029v4.877l2.481-.388a47.279,47.279,0,0,0-2.481-4.506Z" transform="translate(-191.062 -0.021)" fill="#fff"/>
      <path id="Pfad_2369" data-name="Pfad 2369" d="M279.839,148.415c1.718-.516,3.781-1.5,5.554-.784a3.039,3.039,0,0,1-.344,5.757c-.856.292-1.773.512-2.66.784-.378.117-.749.258-1.234.409.818,3.952,1.629,7.877,2.475,11.85.344-.034.66-.038.959-.093l8.193-1.9c1.433-.323,2.9-.622,4.334-.894a3.012,3.012,0,1,1,.949,5.935l-9.668,2.358c-1.969.481-3.97.966-5.97,1.423-2.354.519-4-.509-4.492-2.78-.76-3.664-1.5-7.334-2.282-11-1.241-5.808-2.478-11.589-3.746-17.394-.344-1.677-.76-3.351-1.086-5.059a3.724,3.724,0,0,1,3.31-4.43c2.182-.289,7.08-.732,9.28-.839a4.179,4.179,0,0,1,2.127.584,2.708,2.708,0,0,1,1.344,3.093,2.944,2.944,0,0,1-2.512,2.378c-.894.165-4.533.457-5.465.55l-1.289.124C278.416,141.833,279.107,145.061,279.839,148.415Z" transform="translate(-177.698 -86.483)" fill="#fff"/>
      <path id="Pfad_2370" data-name="Pfad 2370" d="M135.976,59.666c.639.409,2.045-.148,2.667-.179a3.082,3.082,0,0,1,3.437,3.251,2.75,2.75,0,0,1-2.217,2.585,42.8,42.8,0,0,1-5.5.639,3.729,3.729,0,0,1-3.935-2.749,55.244,55.244,0,0,1-1.464-5.547c-1.687-8.087-3.3-16.2-4.922-24.292-.471-2.323-.828-4.66-1.217-6.994a6.382,6.382,0,0,1-.117-1.254,3.042,3.042,0,0,1,2.505-2.849,2.911,2.911,0,0,1,3.238,1.791,15.2,15.2,0,0,1,.591,2.447c1.5,7.9,2.963,15.861,4.513,23.773a83.05,83.05,0,0,0,2.062,8.86,1.231,1.231,0,0,0,.168.375.656.656,0,0,0,.189.144Z" transform="translate(-80.535 -14.595)" fill="#fff"/>
      <path id="Pfad_2371" data-name="Pfad 2371" d="M173.8,192.5c.811.612,2.928-.3,3.8-.412a3.155,3.155,0,0,1,3.55,2.062,2.825,2.825,0,0,1-1.849,3.715,26.43,26.43,0,0,1-5.685.9,6.073,6.073,0,0,1-5.867-4.715,47.815,47.815,0,0,1-1.2-6.186c-.925-6.228-1.77-12.49-2.64-18.724-.241-1.739-.56-3.468-.828-5.207a8.59,8.59,0,0,1-.137-1.144,3.018,3.018,0,0,1,2.505-3.093,3.131,3.131,0,0,1,3.437,2.083,11.341,11.341,0,0,1,.426,1.9c.79,5.372,1.529,10.751,2.32,16.119.571,3.877.794,7.9,1.67,11.73a1.856,1.856,0,0,0,.392.887A.688.688,0,0,0,173.8,192.5Z" transform="translate(-106.948 -104.79)" fill="#fff"/>
      <path id="Pfad_2372" data-name="Pfad 2372" d="M176.737,41.849a3.139,3.139,0,0,1-1.987,3.523,3.028,3.028,0,0,1-3.942-1.89A20.825,20.825,0,0,1,170.156,40c-.687-4.691-1.863-11.778-2.526-16.469a5.021,5.021,0,0,1,.065-1.921,2.921,2.921,0,0,1,2.557-2.107,2.963,2.963,0,0,1,3.035,1.622,9.578,9.578,0,0,1,.619,2.3c.8,5.207,2,12.82,2.77,18.03A2.061,2.061,0,0,1,176.737,41.849Z" transform="translate(-109.976 -12.791)" fill="#fff"/>
      <path id="Pfad_2373" data-name="Pfad 2373" d="M181.174,106.8c0-.392-.048-.626-.031-.863a2.945,2.945,0,0,1,2.65-2.932,3.018,3.018,0,0,1,3.382,2.292c.258,1.065.409,2.189.584,3.286.32,2.035.382,1.835.687,3.873a4.921,4.921,0,0,1-.076,1.681,2.939,2.939,0,0,1-2.749,2.2,3.055,3.055,0,0,1-2.983-1.883,4.241,4.241,0,0,1-.282-.99C181.813,110.44,181.6,109.674,181.174,106.8Z" transform="translate(-118.883 -67.59)" fill="#fff"/>
      <g id="Gruppe_1522" data-name="Gruppe 1522" transform="translate(43.617 95.323)" opacity="0.45">
        <path id="Pfad_2374" data-name="Pfad 2374" d="M138.844,307.68h0a16.014,16.014,0,0,0-2.444,1.351l-2.54,1.45a2.278,2.278,0,0,0-.574.412,5.516,5.516,0,0,0-.766,2.282c-.237.959-.44,1.925-.595,2.9a26.03,26.03,0,0,0-.306,5.826c.058.918-.086,1.213-.56,1.265s-.708-.223-.79-1.138a33.13,33.13,0,0,1,1.031-9.792c-1.179.378-2.217,1.595-3.131,2.389-.3.258-.615.519-1,.2a.705.705,0,0,1,0-1.1,33.815,33.815,0,0,1,3.746-2.949,3.891,3.891,0,0,0,1.416-1.646c.3-.687.471-1.43.753-2.124a21.213,21.213,0,0,1,2.952-5.2,7.039,7.039,0,0,1,1.54-1.461,1.374,1.374,0,0,1,2.2.729,5.641,5.641,0,0,1,.306,1.426c.1.931.127,1.873.21,2.935.687-.32,1.292-.6,1.883-.863a46.516,46.516,0,0,1,7.877-3.069,2.179,2.179,0,0,1,.98-.069.722.722,0,0,1,.464.536c.045.162-.144.423-.316.536a2.382,2.382,0,0,1-.742.241,62.722,62.722,0,0,0-9.623,3.911,1.086,1.086,0,0,0-.632,1.069c-.344,4.434-.667,8.884-1,13.318a3.3,3.3,0,0,1-.165,1.1.876.876,0,0,1-.643.461c-.213,0-.474-.344-.553-.567a1.791,1.791,0,0,1,.024-.784q.261-3.409.536-6.822c.086-1.117.2-2.231.289-3.348A14.853,14.853,0,0,0,138.844,307.68Zm.052-1.529a25.43,25.43,0,0,0-.045-3.238,3.33,3.33,0,0,0-.344-1.186c-.289-.522-.557,0-.859.309A12.845,12.845,0,0,0,136.1,304.1a22.21,22.21,0,0,0-2.035,4.671C135.651,307.882,137.249,307.016,138.9,306.15Z" transform="translate(-126.907 -292.249)" fill="#fff"/>
        <path id="Pfad_2375" data-name="Pfad 2375" d="M282,289.544a5.962,5.962,0,0,1,2.53-.1,2.818,2.818,0,0,1,1.1.461,1.712,1.712,0,0,1,.546,2.127,6.347,6.347,0,0,1-.911,1.718,11.133,11.133,0,0,1-1.822,1.8,24.911,24.911,0,0,1-7.269,3.76.615.615,0,0,1-.845-.33.54.54,0,0,1,.034-.436c.2-.416.485-.447.876-.6.536-.21,1.052-.4,1.65-.615a7.888,7.888,0,0,0,.089-1.375c.031-.471.065-.945.1-1.416l.213-2.856q.2-2.815.344-5.633c.021-.371.079-1.852.787-1.162.388.382.247,1.268.23,1.742-.041,1.206-.144,3.643-.144,3.643A18.614,18.614,0,0,1,282,289.544Zm3.148,1.643c-.327-.718-2.062-.56-2.646-.495a8.121,8.121,0,0,0-2.732.887c-.6.316-.481,1.182-.516,1.753-.072,1.131-.175,2.255-.151,3.385,1.718-.962,1.914-1.031,2.347-1.292a14.151,14.151,0,0,0,2.371-1.787c.546-.519,1.426-1.409,1.375-2.234a.625.625,0,0,0-.031-.217Z" transform="translate(-224.3 -282.184)" fill="#fff"/>
        <path id="Pfad_2376" data-name="Pfad 2376" d="M200.51,297.232a6.5,6.5,0,0,0,1.172-.6v-.845c-.079-2.261-.141-4.526-.2-6.791-.021-.945.2-1.313.7-1.289.443,0,.622.344.656,1.244.062,2.265.124,4.636.2,7.025.4-.148.725-.464.976-.461a.753.753,0,0,1,.636.344c.227.382-.089.77-.4.952a13.353,13.353,0,0,0-1.175.825s.065.478.1.821c.192,1.907.344,3.839.522,5.75a1.292,1.292,0,0,0,.034.227c.038.375-.062.687-.464.79a.65.65,0,0,1-.828-.567,5,5,0,0,1-.12-.78c-.172-1.763-.344-3.832-.5-5.6a4.646,4.646,0,0,0-1.169.519s.017.663.069,1.182c.162,2.1.368,4.217.529,6.317a2.75,2.75,0,0,1-.058,1.107.907.907,0,0,1-.687.44c-.165.027-.464-.285-.5-.488a8.934,8.934,0,0,1-.144-1.474c-.079-.99-.155-1.983-.237-2.973-.041-.491-.079-.983-.12-1.474-.024-.272-.179-2.062-.179-2.062a2.882,2.882,0,0,1-.687.278.636.636,0,0,1-.667-.595.99.99,0,0,1,.436-.749c.316-.251.461-.2.732-.5-.079-.687-.117-1.794-.168-2.5-.151-2.038-.3-4.08-.45-6.1-.069-.832.137-1.265.577-1.292s.687.313.749,1.169c.186,2.371.368,4.743.529,7.118C200.438,296.658,200.469,296.84,200.51,297.232Z" transform="translate(-173.546 -284.156)" fill="#fff"/>
        <path id="Pfad_2377" data-name="Pfad 2377" d="M330.678,284.631c-.371-1.162-.832-2.512-1.21-3.719a22.284,22.284,0,0,0-2.186.742c-.516.192-1.533.8-1.863.052a.615.615,0,0,1,.344-.835,4.664,4.664,0,0,1,.509-.247c1-.344,1.993-.711,3-1.031a.906.906,0,0,1,1.292.577,12.816,12.816,0,0,1,.643,1.688c.711,2.365,1.65,4.671,2.134,7.1a.711.711,0,0,1-.017.485.591.591,0,0,1-.419.254.608.608,0,0,1-.485-.076.763.763,0,0,1-.2-.344c-.086-.22-1.117-3.179-1.083-3.189a6.087,6.087,0,0,1-4.489-.433,5.406,5.406,0,0,1-3.114-3.42c-.412-1.6.093-3.946,1.753-4.709a1.375,1.375,0,0,1,1.44.11.577.577,0,0,1,.21.309.543.543,0,0,1-.21.519,8.117,8.117,0,0,1-1.031.553,2.444,2.444,0,0,0-.687.715,2.749,2.749,0,0,0-.258,2.024C325.251,283.988,328.475,285.607,330.678,284.631Z" transform="translate(-255.863 -277.374)" fill="#fff"/>
        <path id="Pfad_2378" data-name="Pfad 2378" d="M296.106,287.33v-.021c-.086-.729-.22-1.457-.344-2.182-.058-.364-.11-.725-.172-1.086a1.925,1.925,0,0,0-.151-.77.491.491,0,0,0-.22-.162c-.619-.258-.911.261-.88.787a4.448,4.448,0,0,1-.591,2.454.687.687,0,0,1-.344.344.57.57,0,0,1-.467-.117,2.066,2.066,0,0,1-.622-1.354L292.092,284c-.086-.481-.526-.54-.887-.289a.46.46,0,0,0-.189.2.492.492,0,0,0-.028.254,4.826,4.826,0,0,0,1.217,3.289,1.437,1.437,0,0,0,2.062-.089,2.961,2.961,0,0,0,.32-.364l.089-.12.086-.12.041.141c.065.265.12.488.2.729a.659.659,0,0,0,1.062.124.6.6,0,0,0,.041-.419Z" transform="translate(-234.592 -281.094)" fill="#fff"/>
        <path id="Pfad_2379" data-name="Pfad 2379" d="M310.59,286.405l3.152,1.78c.519.3.993.608,1.557.89a6.453,6.453,0,0,1,1.055.66c.289.22.77.571.65,1a.6.6,0,0,1-.557.388,1.306,1.306,0,0,1-.687-.2c-.76-.412-1.474-.894-2.231-1.313-.952-.529-1.914-1.048-2.87-1.571-.251-.127-.313-.175-.9-.45a1.521,1.521,0,0,1,.024.268,2.241,2.241,0,0,0,.048.344c.031.241.065.485.1.725.052.344.107.687.162,1.052a7.716,7.716,0,0,1,.134.883c0,.364-.086.753-.491.835s-.729-.223-.87-.98c-.454-2.45-.687-4.928-1.193-7.369a2.2,2.2,0,0,1-.058-1.279,1.344,1.344,0,0,1,.883-.667,2.365,2.365,0,0,1,2.65,1.031,2.839,2.839,0,0,1,.024,3.11,6.049,6.049,0,0,1-.584.863Zm-1.175-.983c1.148-1.275.942-2.323-.423-2.7C309.07,283.364,309.342,285.034,309.414,285.422Z" transform="translate(-245.456 -279.959)" fill="#fff"/>
        <path id="Pfad_2380" data-name="Pfad 2380" d="M265.929,294.609v.3c0,1.175.1,2.1.124,3.279.034.876-.265,1.265-.735,1.234-.687-.058-.667-.632-.687-1.114-.034-1.254-.079-2.505-.113-3.757-.027-.976-.344-2.454.344-3.275a.688.688,0,0,1,.323-.23.6.6,0,0,1,.361.045,2.505,2.505,0,0,1,1.007,1.193c.285.526.505,1.079.763,1.619a4.707,4.707,0,0,0,.739,1.423c.065-.388.131-.777.172-1.182q.175-1.7.344-3.4c.065-.66.093-1.327.182-1.983.062-.471.11-1.279.5-1.608a.736.736,0,0,1,.344-.155.533.533,0,0,1,.244,0,.574.574,0,0,1,.32.416,6.43,6.43,0,0,1-.127,2.258c-.1.818-.217,1.636-.309,2.454-.168,1.468-.344,2.935-.516,4.4a2.578,2.578,0,0,1-.388,1.179.863.863,0,0,1-.416.344.77.77,0,0,1-.756-.237,3.963,3.963,0,0,1-.612-1.069c-.217-.447-.3-.639-.491-1.093-.1-.227-.206-.45-.309-.687a4.364,4.364,0,0,0-.316-.663A1.07,1.07,0,0,0,265.929,294.609Z" transform="translate(-217.158 -283.678)" fill="#fff"/>
        <path id="Pfad_2381" data-name="Pfad 2381" d="M249.6,308.718a.952.952,0,0,0,0,.419c.038.247.041.942.192,1.107s.526,0,.794-.041c.533-.1,1.059-.227,1.615-.316.409-.062.784.045.849.584.048.454-.237.646-.622.729-.835.192-1.663.409-2.5.581-1.141.244-1.426-1.165-1.7-2.093a10.812,10.812,0,0,1-.409-4.083,1.846,1.846,0,0,1,.921-1.512,5.843,5.843,0,0,1,1.2-.419c1.031-.313,2.062-.45,2.406.818a2.394,2.394,0,0,1-1.12,3.189,10.153,10.153,0,0,1-.945.546C250.089,308.344,249.68,308.43,249.6,308.718Zm-.32-1.413a5.467,5.467,0,0,0,1.4-.8c.268-.168.577-.364.629-.687.076-.454-.172-1.234-.742-.976-.254.113-.516.213-.78.306-.192.065-.588.113-.66.344a.759.759,0,0,0,0,.265c.024.271.069.54.1.811a4.75,4.75,0,0,0,.052.739Z" transform="translate(-206.237 -294.495)" fill="#fff"/>
        <path id="Pfad_2382" data-name="Pfad 2382" d="M229.17,294.837c.491,0,1.316-.1,1.533.516.12.361-.113.629-.491.753l-.811.21c.058.371.093.725.168,1.069.45,2.344.887,4.688,1.375,7.022a1.347,1.347,0,0,1,.038.522.639.639,0,0,1-.385.474.574.574,0,0,1-.591-.113.907.907,0,0,1-.179-.272c-.687-1.375-1.275-5.575-1.512-7.073a40.5,40.5,0,0,1-.76-6.186,11.485,11.485,0,0,1,.165-2.7,1.557,1.557,0,0,1,1.031-1.213c.436-.12,1.375.21,1.086.811-.11.241-.392.344-.588.519a1.939,1.939,0,0,0-.4,1.413,15.926,15.926,0,0,0,.058,1.67C228.919,292.466,229.108,294.837,229.17,294.837Z" transform="translate(-192.951 -284.229)" fill="#fff"/>
        <path id="Pfad_2383" data-name="Pfad 2383" d="M171.636,321.953a.409.409,0,0,0-.272,0,8.364,8.364,0,0,1-1.468.1,7.216,7.216,0,0,1-2-.254,1.266,1.266,0,0,1-.952-1.4,1.966,1.966,0,0,1,.368-.739c.5-.687,4.306-3.97,4.87-2.347.155.436-.144.687-.516.859a15.276,15.276,0,0,0-3.114,1.949.522.522,0,0,0-.2.254c-.124.509,2.956.258,3.341.237a1.44,1.44,0,0,1,1.512.794,1.306,1.306,0,0,1-.409,1.536,6.056,6.056,0,0,1-1.21,1.014c-1.564.918-3.155,1.777-4.726,2.636a.849.849,0,0,1-.522.144c-.2-.034-.5-.11-.55-.272a.773.773,0,0,1,.038-.687,4.878,4.878,0,0,1,1.031-.687c1.337-.756,2.695-1.5,4.045-2.279C171.076,322.688,171.849,322.073,171.636,321.953Z" transform="translate(-152.385 -303.299)" fill="#fff"/>
        <path id="Pfad_2384" data-name="Pfad 2384" d="M220.158,318.827c-.516.21-.887.392-1.268.516-.639.206-1.031.058-1.1-.543a44.287,44.287,0,0,1-.234-4.722,1.742,1.742,0,0,1,1.516-1.718c.12-.461.038-1.12.711-1.1s.718.667.8,1.182c.217,1.375.43,2.749.653,4.124q.165,1.031.344,2.062c.055.344.113.687.172,1.052a1.309,1.309,0,0,1,0,.88c-.12.244-.258.512-.564.529a.626.626,0,0,1-.591-.457C220.415,320.071,220.309,319.521,220.158,318.827Zm-1.12-1.306a1.141,1.141,0,0,0,.777-.131c.151-.155.072-.433.041-.622-.11-.825-.234-1.626-.385-2.444-.045-.247-.093-.732-.344-.687s-.378,1.337-.344,1.938C218.855,316.253,218.858,317.425,219.037,317.521Z" transform="translate(-186.403 -299.613)" fill="#fff"/>
        <path id="Pfad_2385" data-name="Pfad 2385" d="M239.793,294.015c.344.052.746-.1,1.062.076a.632.632,0,0,1,.306.636c-.089.619-.763.656-1.261.753.052.6.1,1.547.21,2.244.2,1.23.467,2.451.718,3.674.1.471.213,1.148-.247,1.474s-.842-.254-.955-.66a40.939,40.939,0,0,1-1.055-5.8,24.559,24.559,0,0,1,0-5.365,5.73,5.73,0,0,1,.258-1.375,2.162,2.162,0,0,1,.825-1.124.99.99,0,0,1,.821-.151.567.567,0,0,1,.385.687,1.286,1.286,0,0,1-.382.45,2.923,2.923,0,0,0-.6,2.045Z" transform="translate(-200.096 -284.589)" fill="#fff"/>
        <path id="Pfad_2386" data-name="Pfad 2386" d="M188.885,316.107a6.262,6.262,0,0,1-.045-1.306,5.805,5.805,0,0,1,.911-2.694c.344-.522,1.375-1.987,1.993-1.031a.622.622,0,0,1-.2.894,4.48,4.48,0,0,0-1.189,4.5,2.784,2.784,0,0,0,.368,1c.344.519,1.653.619,1.375,1.43-.172.509-.571.509-1.031.371C189.744,318.884,189.088,317.479,188.885,316.107Z" transform="translate(-167.544 -299.285)" fill="#fff"/>
      </g>
    </g>
  </g>
</svg>
