<svg xmlns="http://www.w3.org/2000/svg" xmlns:xlink="http://www.w3.org/1999/xlink" width="52.712" height="70.854" viewBox="0 0 52.712 70.854">
  <defs>
    <clipPath id="clip-path">
      <rect id="Rechteck_637" data-name="Rechteck 637" width="52.712" height="70.854" fill="none"/>
    </clipPath>
  </defs>
  <g id="logoSmall" transform="translate(0 0)">
    <g id="Gruppe_1551" data-name="Gruppe 1551" transform="translate(0 0)" clip-path="url(#clip-path)">
      <path id="Pfad_5779" data-name="Pfad 5779" d="M52.713,28.5c-.142.382-.2.785-.306,1.178A27.018,27.018,0,0,1,32.135,49.14a26.078,26.078,0,0,1-4.864.6A26.954,26.954,0,0,1,.683,31.055C.418,30.236.2,29.4.012,28.56c-.034-.151,0-.174.141-.174q2.591.006,5.183,0a.2.2,0,0,1,.226.176,21.066,21.066,0,0,0,6.145,10.025A21.9,21.9,0,0,0,22.025,43.92c.478.1.961.186,1.462.281v-.265q0-9,.007-17.99c0-.235-.066-.272-.281-.272q-8.032.01-16.064.009a.385.385,0,0,1-.364-.186Q4.95,22.859,3.1,20.227l-.179-.261h.3q10,0,20,.005c.218,0,.279-.044.279-.273q-.012-9.711-.012-19.42c0-.228.056-.279.279-.277q2.581.014,5.162,0c.218,0,.284.042.284.277q-.012,9.709-.012,19.42c0,.232.062.273.28.273q10-.01,20-.005h.247c.027.086-.044.126-.078.175q-1.885,2.7-3.769,5.4a.33.33,0,0,1-.318.141q-8.032,0-16.064-.007c-.226,0-.293.046-.293.285q.012,9,0,18.013c0,.211.058.24.248.211a22.068,22.068,0,0,0,6.781-2.189A21.29,21.29,0,0,0,45.45,32.86a20.741,20.741,0,0,0,1.673-4.243c.044-.159.114-.2.273-.2,1.713.007,3.427,0,5.14,0,.058,0,.118-.005.176-.007Z" transform="translate(0 0.001)" fill="#b51c3e"/>
      <path id="Pfad_5780" data-name="Pfad 5780" d="M11.908,57.3a8.617,8.617,0,0,1-2.7-.4,4.954,4.954,0,0,1-3.3-3.585,10.4,10.4,0,0,1-.219-1.047c-.025-.145,0-.21.17-.224.866-.077,1.733-.167,2.6-.259.155-.016.237,0,.269.184a3.983,3.983,0,0,0,.349,1.077,2.626,2.626,0,0,0,1.7,1.469,4.487,4.487,0,0,0,2.829-.1,2.161,2.161,0,0,0,1.109-.927,1.509,1.509,0,0,0-.621-2.23,7.324,7.324,0,0,0-1.473-.508,34.222,34.222,0,0,1-3.3-.945,4.945,4.945,0,0,1-2.35-1.7,4.042,4.042,0,0,1,1.7-6.026A7.027,7.027,0,0,1,11.36,41.5a8.329,8.329,0,0,1,3.361.455,4.284,4.284,0,0,1,2.846,3.655c.074.552.064.553-.5.574-.781.028-1.562.053-2.342.089-.155.007-.227-.032-.249-.2a2.726,2.726,0,0,0-.2-.662,1.9,1.9,0,0,0-1.34-1.2,4.235,4.235,0,0,0-3,.235,1.159,1.159,0,0,0-.736,1.272,1.215,1.215,0,0,0,.675.917,8.617,8.617,0,0,0,2.16.756,24.765,24.765,0,0,1,3.077.9,4.394,4.394,0,0,1,2.411,1.987,4.621,4.621,0,0,1-2.733,6.633,9.9,9.9,0,0,1-2.887.379" transform="translate(1.855 13.557)" fill="#b61d3f"/>
      <path id="Pfad_5781" data-name="Pfad 5781" d="M19.866,49.774l2.575-2.933c.245-.279.492-.557.736-.838a.243.243,0,0,1,.206-.1q1.719,0,3.439,0c.015.08-.042.113-.08.153q-1.727,1.853-3.461,3.7a.272.272,0,0,0-.052.394q1.908,3.29,3.8,6.587c.033.056.062.114.094.171-.061.072-.131.041-.192.041-.915,0-1.832,0-2.748.007a.288.288,0,0,1-.293-.175q-1.268-2.281-2.545-4.556c-.042-.076-.088-.151-.139-.24-.439.47-.86.921-1.284,1.368-.074.077-.057.165-.057.251,0,1.043-.005,2.086,0,3.128,0,.172-.04.227-.219.224q-1.252-.016-2.5,0c-.172,0-.208-.05-.208-.214q.006-7.407,0-14.814c0-.175.045-.226.223-.224q1.24.016,2.478,0c.2,0,.228.064.228.24q-.008,3.765,0,7.53v.3" transform="translate(5.535 13.624)" fill="#b61d3f"/>
      <path id="Pfad_5782" data-name="Pfad 5782" d="M26.208,49.314q0-3.676,0-7.351c0-.2.04-.263.253-.261q4.991.01,9.985,0c.211,0,.255.06.252.257-.012.7-.015,1.4,0,2.1,0,.208-.064.236-.248.235-2.3-.005-4.6,0-6.9-.009-.2,0-.243.053-.24.245.009,1.043.011,2.086,0,3.128,0,.216.07.249.263.249,1.958-.007,3.916,0,5.875-.008.188,0,.256.033.251.24-.015.7-.013,1.4,0,2.1,0,.194-.045.249-.245.248-1.958-.008-3.916,0-5.876-.011-.216,0-.268.053-.267.268.009,1.982,0,3.963.012,5.944,0,.226-.066.267-.273.263q-1.3-.018-2.591,0c-.2,0-.248-.042-.248-.243.008-2.465.005-4.931.005-7.4" transform="translate(8.561 13.624)" fill="#b61d3f"/>
      <path id="Pfad_5783" data-name="Pfad 5783" d="M8.515,3.648A8.221,8.221,0,0,0,11.5,7.123c1.428,1.047,2.874,2.071,4.257,3.179a8.609,8.609,0,0,1,3.231,5.527c.1.622.1.621-.527.621-.722,0-1.445,0-2.167,0-.089,0-.184.034-.2-.125a7.22,7.22,0,0,0-2.941-4.87c-.9-.7-1.865-1.3-2.814-1.93A13.931,13.931,0,0,1,7.908,7.637a6.158,6.158,0,0,1-1.2-1.656.571.571,0,0,1,.123-.763c.535-.507,1.048-1.036,1.6-1.519a.729.729,0,0,1,.078-.052" transform="translate(2.162 1.192)" fill="#b61d3f"/>
      <path id="Pfad_5784" data-name="Pfad 5784" d="M36.536,5.823a7.1,7.1,0,0,0-2.911,2.263q-1.6,2.119-3.175,4.26a10.149,10.149,0,0,1-3,2.86,8.689,8.689,0,0,1-3.508,1.153c-.161.017-.22-.007-.218-.188.011-.849.007-1.7,0-2.547,0-.145.029-.2.188-.223a7.3,7.3,0,0,0,4.9-3.05c.775-1.011,1.429-2.1,2.143-3.158A10,10,0,0,1,33.494,4.43a3.036,3.036,0,0,1,1.012-.505c.078-.019.153-.045.227.025a25.371,25.371,0,0,1,1.8,1.873" transform="translate(7.751 1.276)" fill="#b61d3f"/>
      <path id="Pfad_5785" data-name="Pfad 5785" d="M5.974,6.28A6.113,6.113,0,0,0,8.859,9.711c1.12.732,2.289,1.393,3.353,2.21a6.779,6.779,0,0,1,2.261,2.74,4.609,4.609,0,0,1,.245.785c.023.1.009.146-.113.146-.923-.005-1.847,0-2.77,0-.078,0-.125-.02-.146-.1a2.873,2.873,0,0,0-1.38-1.739c-.8-.5-1.631-.951-2.437-1.441A14.291,14.291,0,0,1,5.5,10.571,3.881,3.881,0,0,1,4.411,8.635a.178.178,0,0,1,.02-.149A20.967,20.967,0,0,1,5.974,6.28" transform="translate(1.438 2.052)" fill="#b61d3f"/>
      <path id="Pfad_5786" data-name="Pfad 5786" d="M33.044,3.288a5.447,5.447,0,0,0-3.016,2.27c-.663.9-1.2,1.881-1.816,2.809a11.225,11.225,0,0,1-2.124,2.543,5.367,5.367,0,0,1-2.14,1.105c-.175.044-.227.005-.224-.182.009-.872,0-1.742,0-2.614,0-.094-.02-.19.117-.226a2.838,2.838,0,0,0,1.706-1.351c.505-.813.966-1.656,1.465-2.474a12.924,12.924,0,0,1,1.868-2.5,3.805,3.805,0,0,1,1.79-.95.177.177,0,0,1,.149.011,21.047,21.047,0,0,1,2.222,1.554" transform="translate(7.751 0.56)" fill="#b61d3f"/>
      <path id="Pfad_5787" data-name="Pfad 5787" d="M32.924,28.126a19.231,19.231,0,0,1-1.86,1.925c-.088.08-.146.031-.215-.005a14.47,14.47,0,0,1-2.266-1.461A15.234,15.234,0,0,1,25.02,24.86a7.585,7.585,0,0,1-1.233-3.242c-.068-.556-.078-.556.479-.556.723,0,1.445.007,2.167,0,.184,0,.261.036.305.239a8.308,8.308,0,0,0,2.241,3.995A12.55,12.55,0,0,0,32.433,27.9c.153.077.31.141.491.222" transform="translate(7.761 6.88)" fill="#b61d3f"/>
      <path id="Pfad_5788" data-name="Pfad 5788" d="M18.209,22.542c0,.433,0,.864,0,1.3,0,.1-.024.161-.135.183a8.86,8.86,0,0,0-4.74,2.924,11.985,11.985,0,0,0-2,2.86c-.064.131-.107.36-.191.374-.138.025-.244-.161-.36-.261-.524-.455-1.006-.951-1.482-1.454A.264.264,0,0,1,9.25,28.1a17.276,17.276,0,0,1,2.85-3.842,12.032,12.032,0,0,1,3.057-2.368,6.961,6.961,0,0,1,2.87-.827c.155-.009.19.037.186.182-.008.433,0,.864,0,1.3" transform="translate(3.006 6.882)" fill="#b61d3f"/>
      <path id="Pfad_5789" data-name="Pfad 5789" d="M27.82,15.467a6.7,6.7,0,0,0,2.75-2.322C31.48,12,32.287,10.788,33.127,9.6a9.667,9.667,0,0,1,2.125-2.273,5.891,5.891,0,0,1,1.166-.646.166.166,0,0,1,.239.07q.659.913,1.236,1.883c.044.074.092.131-.04.182a6.487,6.487,0,0,0-2.8,2.413c-.609.816-1.1,1.717-1.7,2.537a7.386,7.386,0,0,1-1.607,1.6.431.431,0,0,1-.261.106c-1.222,0-2.442,0-3.663,0" transform="translate(9.089 2.174)" fill="#b61d3f"/>
      <path id="Pfad_5790" data-name="Pfad 5790" d="M18.132,11.691c-.086-.184-.163-.374-.259-.552a6.75,6.75,0,0,0-1.792-2c-1.229-1-2.553-1.877-3.846-2.794a9.693,9.693,0,0,1-2.165-2.013A5.733,5.733,0,0,1,9.37,3.1a.168.168,0,0,1,.069-.24c.609-.44,1.238-.85,1.883-1.236.073-.044.13-.1.18.04a6.19,6.19,0,0,0,2.163,2.612c.785.617,1.658,1.1,2.48,1.669A8.134,8.134,0,0,1,18,7.7a.758.758,0,0,1,.165.492c-.009,1.095,0,2.189,0,3.284v.214l-.032.005" transform="translate(3.053 0.515)" fill="#b61d3f"/>
      <path id="Pfad_5791" data-name="Pfad 5791" d="M29.263,21.063c.491,0,.982,0,1.473,0,.1,0,.179,0,.235.117a6.091,6.091,0,0,0,2.945,2.807c.318.155.317.159.162.468a19.58,19.58,0,0,1-1.146,1.987c-.057.088-.1.15-.222.084a10.86,10.86,0,0,1-4.6-4.287,7.1,7.1,0,0,1-.459-1.014c-.045-.122-.027-.167.117-.165.5.008,1,0,1.5,0" transform="translate(9.027 6.881)" fill="#b61d3f"/>
      <path id="Pfad_5792" data-name="Pfad 5792" d="M17.342,24.917c0,.918-.028,1.812.012,2.7a.818.818,0,0,1-.507.885,5.821,5.821,0,0,0-2.405,2.68c-.179.362-.183.361-.544.179a19.362,19.362,0,0,1-1.929-1.116c-.1-.066-.147-.115-.08-.243a10.813,10.813,0,0,1,4.375-4.635,5.775,5.775,0,0,1,1.077-.454" transform="translate(3.874 8.141)" fill="#b61d3f"/>
      <path id="Pfad_5793" data-name="Pfad 5793" d="M8.527,26.585c-.248-.33-.464-.674-.677-1.022-.269-.446-.515-.9-.751-1.369a.257.257,0,0,1,0-.284A10.543,10.543,0,0,1,9.44,21.148a.291.291,0,0,1,.2-.086c1.258,0,2.515,0,3.824,0a14.864,14.864,0,0,0-4.934,5.523" transform="translate(2.305 6.881)" fill="#b61d3f"/>
      <path id="Pfad_5794" data-name="Pfad 5794" d="M23.781,25.2a14.83,14.83,0,0,0,5.481,4.884c-.023.072-.107.1-.17.142a19.072,19.072,0,0,1-2.209,1.3.261.261,0,0,1-.288-.007,10.417,10.417,0,0,1-2.758-2.344.3.3,0,0,1-.077-.2q0-1.855,0-3.709a.261.261,0,0,1,.019-.062" transform="translate(7.762 8.234)" fill="#b61d3f"/>
    </g>
  </g>
</svg>
