<svg xmlns="http://www.w3.org/2000/svg" xmlns:xlink="http://www.w3.org/1999/xlink" width="244" height="244" viewBox="0 0 244 244">
  <defs>
    <clipPath id="clip-path">
      <circle id="Ellipse_453" data-name="Ellipse 453" cx="122" cy="122" r="122" transform="translate(-14068 12823)" fill="#fff" stroke="#707070" stroke-width="1"/>
    </clipPath>
    <radialGradient id="radial-gradient" cx="0.501" cy="0.5" r="0.5" gradientTransform="matrix(-0.994, 0.112, 0.112, 0.994, -14.119, 0.792)" gradientUnits="objectBoundingBox">
      <stop offset="0" stop-color="#6e3627"/>
      <stop offset="0.11" stop-color="#713b2c"/>
      <stop offset="0.25" stop-color="#7c493c"/>
      <stop offset="0.4" stop-color="#8e6256"/>
      <stop offset="0.56" stop-color="#a6847b"/>
      <stop offset="0.74" stop-color="#c6b0aa"/>
      <stop offset="0.92" stop-color="#ece4e3"/>
      <stop offset="1" stop-color="#fff"/>
    </radialGradient>
    <radialGradient id="radial-gradient-2" cx="0.181" cy="0.827" r="0.923" gradientTransform="translate(-13.111 6.151) rotate(37.01)" gradientUnits="objectBoundingBox">
      <stop offset="0" stop-color="#fff"/>
      <stop offset="0.46" stop-color="#fdfdfd"/>
      <stop offset="0.63" stop-color="#f6f8f9"/>
      <stop offset="0.74" stop-color="#eaeef2"/>
      <stop offset="0.84" stop-color="#d9e1e7"/>
      <stop offset="0.92" stop-color="#c3cfda"/>
      <stop offset="0.99" stop-color="#a9baca"/>
      <stop offset="1" stop-color="#a6b8c8"/>
    </radialGradient>
    <radialGradient id="radial-gradient-3" cx="0.502" cy="0.5" r="0.5" gradientTransform="matrix(-0.994, 0.112, 0.112, 0.994, -28.939, 1.623)" gradientUnits="objectBoundingBox">
      <stop offset="0" stop-color="#210510"/>
      <stop offset="0.29" stop-color="#230610"/>
      <stop offset="0.49" stop-color="#2c0b13"/>
      <stop offset="0.65" stop-color="#3b1418"/>
      <stop offset="0.8" stop-color="#50211f"/>
      <stop offset="0.94" stop-color="#6b3128"/>
      <stop offset="1" stop-color="#7b3b2d"/>
    </radialGradient>
    <radialGradient id="radial-gradient-4" cx="0.5" cy="0.5" r="0.5" gradientTransform="matrix(-0.384, -0.923, -0.923, 0.384, -30.926, -20.633)" xlink:href="#radial-gradient"/>
    <radialGradient id="radial-gradient-5" cx="0.558" cy="0.952" r="0.924" gradientTransform="translate(3.389 -4.403) rotate(-14.41)" xlink:href="#radial-gradient-2"/>
    <radialGradient id="radial-gradient-6" cx="-26.38" cy="-27.691" r="0.5" gradientTransform="matrix(1, 0, 0, 1, 0, 0)" xlink:href="#radial-gradient-3"/>
    <radialGradient id="radial-gradient-7" cx="0.577" cy="0.657" r="0.574" gradientTransform="matrix(0.924, -0.203, 0.163, 0.832, 18.651, -15.278)" gradientUnits="objectBoundingBox">
      <stop offset="0" stop-color="#af606a"/>
      <stop offset="0.23" stop-color="#b0626c"/>
      <stop offset="0.39" stop-color="#b46b75"/>
      <stop offset="0.53" stop-color="#bc7b83"/>
      <stop offset="0.65" stop-color="#c79198"/>
      <stop offset="0.77" stop-color="#d5adb2"/>
      <stop offset="0.88" stop-color="#e7cfd2"/>
      <stop offset="0.98" stop-color="#fbf8f8"/>
      <stop offset="1" stop-color="#fff"/>
    </radialGradient>
    <radialGradient id="radial-gradient-8" cx="74.167" cy="-12.866" r="0.493" gradientUnits="objectBoundingBox">
      <stop offset="0" stop-color="#ffa993"/>
      <stop offset="0.18" stop-color="#ffac97"/>
      <stop offset="0.38" stop-color="#ffb7a5"/>
      <stop offset="0.58" stop-color="#ffc9bb"/>
      <stop offset="0.8" stop-color="#ffe1da"/>
      <stop offset="1" stop-color="#fff"/>
    </radialGradient>
  </defs>
  <g id="mika" transform="translate(14068 -12823)" clip-path="url(#clip-path)">
    <g id="background" transform="translate(-14122.13 13339.066)">
      <path id="Pfad_1530" data-name="Pfad 1530" d="M53.686,4.369C43.855,1.4,33.414-1.587,23.468.966,11.211,4.116-10.717-7.624,6.129,15.925c3.5,4.887,11.337,8.7,17.294,7.888,7.9-1.081,10.1,12.637,17.1,12.108C40.474,42.337,45.982,47.73,52.1,49.685s12.717,1.265,19.1.54l-4.266,13.2c8.624-5.266,16.73-8.049,29.045-5.14,22.4-1.495,17.754-9.67,26.883-8.957,8.808.69,14.178,8.739,23.008,9.072,7.06.264,19.248,2.173,26.274,1.38,15.638-1.759,22.629,5.991,37.14,12.1,14.316,6.025,30.528,4.565,45.982,3,25.136-2.541,39.083-9.13,60.24-4.645,16.431-4.484-2.84-11.533-10.452-13.442s-7.888-4.967-15.73-5.174c-18.271-.46-37.335-8.612-54.457-12.752-11.211-2.714-23.928.529-26.883-5.968-10.452-11.947-36.174-7-46.293-13.442C145.26,9.015,100.784,2.852,66.656,2.162L53.675,4.381Z" transform="translate(-0.001 0)" fill="#a1b9c6" opacity="0.6"/>
    </g>
    <g id="gitl1" transform="translate(-14243.029 12725.4)">
      <g id="Layer_2" transform="translate(0 0)">
        <g id="kids">
          <path id="Pfad_1532" data-name="Pfad 1532" d="M338.586,342.332s-15.324-43.357-66.218-67.979l-11.9-54.892s33.99,4.069,65,28.495,53.928,72.915,52.6,81.038-27.642,19.77-39.5,13.339Z" transform="translate(103.711 87.382)" fill="#f26522"/>
          <path id="Pfad_1533" data-name="Pfad 1533" d="M340.79,326.491c-12.584-8.389-13.618-35.164-31.795-42.155-27.208-11.829-36.786-31.99-46.825-56.976l9.494,43.847c50.894,24.622,66.218,67.979,66.218,67.979,11.843,6.432,38.156-5.215,39.5-13.339.028-.182.028-.419.042-.643-11.1,5.495-25.726,6.753-36.646,1.3Z" transform="translate(104.388 90.528)" fill="#bb5122" opacity="0.4"/>
          <path id="Pfad_1534" data-name="Pfad 1534" d="M325.044,319.734s-15.953,18.568-8.361,27.474,10.934-8.054,17.645-6.152c7.312,6.445,9.717,26.23,18.805,22.553s-.168-22.5-.168-22.5,12.024,21,17.757,16.569-1.943-18.736-1.943-18.736,8.864,14.947,13.548,11.409-3.426-17.435-3.426-17.435,7.131,12.905,12.528,6.488-15-27.265-27.628-30.187C363.8,309.22,326.163,317.875,325.044,319.734Z" transform="translate(125.278 123.123)" fill="#58595b"/>
          <path id="Pfad_1535" data-name="Pfad 1535" d="M227.806,466.863s16.261,31.515,15.45,44.77-30.648,34.046-14.891,48.293,41.456,4.46,51.257-6.529c18.554-20.819,32.06-57.227,29.544-65.029s-7.578-12.094-15.562-17.561-17.323-29.376-17.323-29.376-25.391,19.84-48.475,25.447Z" transform="translate(89.102 175.766)" fill="#603913"/>
          <path id="Pfad_1536" data-name="Pfad 1536" d="M245.535,492.174c-2.852-7.62-8.878-15.87-6.026-19.029,15.869.629,32.172-11.787,37.821-26.509-1.37-3.1-2.2-5.215-2.2-5.215s-25.391,19.84-48.475,25.447c0,0,16.261,31.515,15.45,44.77-.168,2.8-1.636,5.928-3.691,9.256C246.067,511.315,246.668,504.589,245.535,492.174Z" transform="translate(90.248 175.762)" fill="#603913" opacity="0.4"/>
          <path id="Pfad_1537" data-name="Pfad 1537" d="M309.169,475.7a25.1,25.1,0,0,0-.951-2.5c-3.16,12.653-10.766,42.155-35.835,64.372-11.185,8.389-22.846,13.646-34.9,8.571-7.3-3.5-11.13-9.046-11.619-16.764-2.922,6.39-3.37,12.6,2.5,17.9,15.758,14.248,41.456,4.46,51.257-6.53,18.554-20.819,32.06-57.227,29.544-65.029Z" transform="translate(89.099 188.416)" fill="#603913" opacity="0.4"/>
          <path id="Pfad_1538" data-name="Pfad 1538" d="M77.72,287.965s32.242,14.429,65.658,14.555,48.615-15.674,54.081-22.511c12.136-16.834,19.071-38.128,7.061-49.3,0,0-37.653,25.629-58.4,25.964-23.825.378-40.855-9-53.522-9.466C92.6,247.209,91.814,272.082,77.72,287.965Z" transform="translate(30.944 91.862)" fill="#f26522"/>
          <path id="Pfad_1539" data-name="Pfad 1539" d="M204.521,230.71s-2.1,1.426-5.565,3.607c-7.914,20.008-17.421,41.134-27.181,53.326-22.748,14.261-68.637,8.277-72.188-8.92-1.44-6.963,11.787-24.594-.405-30.634a39.859,39.859,0,0,0-6.585-.867S91.814,272.1,77.72,287.979c0,0,32.242,14.429,65.658,14.555s48.615-15.674,54.081-22.511c12.136-16.834,19.071-38.128,7.061-49.3Z" transform="translate(30.944 91.862)" fill="#bb5122" opacity="0.4"/>
          <path id="Pfad_1540" data-name="Pfad 1540" d="M93.73,286.43c-.881.937-21.406-3.356-26.873-1.342s-18.47,8.529-22.832,1.636,16.778-7.746,14.6-11.2-19.714,4.1-23.042-4c-5.033-12.22,24.426-5.439,21.937-10.137-5.984.112-18.148-1.091-21.266-2.978s-5.579-7.7,1.93-9.55,23.489,1.664,22.72-1.454-18.484-3.034-18.61-8.976,2.559-7.844,10.458-5.831c12.6,3.216,23.811,6.809,30.676,9.27,0-2.656-10.039-16.638-2.433-20.637,7.83-4.111,10.081,2.712,12.472,10.207,2.349,7.4,13.367,24.664,11.437,35.682,0,0-4.74,15.771-11.171,19.337Z" transform="translate(13.228 87.595)" fill="#58595b"/>
          <path id="Pfad_1541" data-name="Pfad 1541" d="M67.264,277.024S85.4,255.2,85.748,239.6c0,0,2.251-4.866,7.97-.224,5.956,2.125,12.038,1.146,11.759,7.536-.573,13.129-9.913,36.716-18.344,40.813-4.852,2.349-18.708-4.32-19.882-10.7Z" transform="translate(26.775 94.511)" fill="#ed8948"/>
          <path id="Pfad_1542" data-name="Pfad 1542" d="M315.919,309.894s28.313-1.888,39.862-12.374c0,0,5.075-1.72,5.663,5.621,2.559,5.788,7.466,9.521,2.629,13.716-9.913,8.627-33.444,18.106-42.225,14.807-5.047-1.887-9.745-16.527-5.942-21.784Z" transform="translate(125.232 118.394)" fill="#ed8948"/>
          <path id="Pfad_1543" data-name="Pfad 1543" d="M130.084,419.35s-3.915,37.9-9.368,50.32c-8.333,18.973-41.526-.1-51.663,21.182-3.691,8.627-2.8,19.952,21,29.46,25.265,10.109,68.2,8.571,78.354.321,6.348-10.78.783-15.59,2.545-26.328,1.314-8.039,9.633-54.655,9.633-54.655s-15.226,1.174-29.488-5.509c-11.591-5.425-21-14.793-21-14.793Z" transform="translate(26.845 166.974)" fill="#603913"/>
          <path id="Pfad_1544" data-name="Pfad 1544" d="M170.854,494.3c1.314-8.039,9.633-54.655,9.633-54.655s-15.226,1.175-29.488-5.509c-11.591-5.425-21-14.793-21-14.793s-.545,5.243-1.5,12.458c3.342,10.151,18.6,10.808,24.915,17.128,15.38,16.778,9.815,48.629-7.229,65.267-12.122,11.829-44.8,5.173-63.841-1.5-6.655-3.8-12.612-8.249-14.709-11.633,1.3,6.376,7.145,13.171,22.329,19.239,25.265,10.109,68.2,8.571,78.354.321,6.348-10.78.783-15.59,2.545-26.328Z" transform="translate(26.93 166.97)" fill="#603913" opacity="0.4"/>
          <path id="Pfad_1545" data-name="Pfad 1545" d="M320.638,373.172c-19.155,16.079-30.648,28.9-95.076,15.674-32.773-6.725-76.844-42.8-80.213-52.865,0,0-7.229,9.158-17.407,30.047-14.4,40.7-21.881,81.024-16.75,94.852,13.422,11.814,30.914,18.847,48.782,14.275,0,0,9.438,2.083,11.675-27.139,7.984-31.669,29.32-53.215,29.32-53.215a165.443,165.443,0,0,0,19.658,6.32,104.5,104.5,0,0,0,18.023,2.489s-4.67,32.158-2.363,41.288c15,59.241,27.292,60.919,27.292,60.919,13.143,12.626,54.99-4.055,60.765-23.755,1.035-3.537-6.054-17.505-12.444-42.295,4.111-20.064,8.753-66.609,8.753-66.609Z" transform="translate(43.627 133.778)" fill="#726658"/>
          <path id="Pfad_1546" data-name="Pfad 1546" d="M263.369,497.334c-7.243-9.885,7.271-11.088,8.613-15.072-4.418-.028-18.847-6.655-19.267-9.745-6.1-16.834-20.329-49.551,2.782-45.692,20.12,3.355,40.253-1.076,57.563-19.686,2.642-19.994,4.8-33.976,4.8-33.976-19.155,16.079-30.648,28.9-95.076,15.673-32.773-6.725-76.844-42.8-80.213-52.865,0,0-7.229,9.158-17.407,30.047,11.9,23.573,33.892,13.367,39.568,27.111,12.751,7.55-14.01,60.639-22.091,68.636-7.662,4.782-17.142,7.229-26.076,5.327,12,7.858,26.188,11.745,40.631,8.053,0,0,9.438,2.083,11.675-27.139,7.984-31.669,29.32-53.215,29.32-53.215a165.428,165.428,0,0,0,19.658,6.32,104.5,104.5,0,0,0,18.022,2.489s-4.67,32.158-2.363,41.288c15,59.241,27.292,60.919,27.292,60.919,4.838,4.642,13.548,5.313,22.93,3.342-7.592-2.74-17.253-3.579-20.344-11.829Z" transform="translate(46.409 133.774)" fill="#726658" opacity="0.25"/>
          <path id="Pfad_1547" data-name="Pfad 1547" d="M331.962,423.735c2.265-8.417,9.564-49.747,4.25-104.891-4.25-44.225-15.562-86.785-21.979-94.307-2.727,10.165-47.328,9.284-70.678,7.019-28.243-4.978-35.01-4.614-46.937-9.326-1.356.545-15.24,18.386-13.982,17.128-9.34,18.358-22.385,54.012-34.9,83.681-11.423,27.111-21.882,39.3-23.014,53.536-1.678,17.253,39.4,48.782,81.779,57.982,85.736,18.61,115.741,2.125,125.444-10.822Z" transform="translate(49.64 88.485)" fill="#f26522"/>
          <path id="Pfad_1548" data-name="Pfad 1548" d="M253.982,242.791c6.6-4.139,9.256-13.017,10.207-21.951a154.115,154.115,0,0,1-30.229,11.2c2.573,9.312,12.388,15.324,20.008,10.752Z" transform="translate(93.155 87.932)" fill="#f7941e"/>
          <path id="Pfad_1549" data-name="Pfad 1549" d="M8.5,278.523S-3.426,263.143.978,237.179,36.31,190.117,61.058,198.2,96.4,222,96.515,244.268c.14,26.747-19.742,48.083-39.107,48.6S23.475,290.953,8.5,278.537Z" transform="translate(-0.002 78.22)" fill="#fff"/>
          <path id="Pfad_1550" data-name="Pfad 1550" d="M48.67,279.872c-16.778-5.593-33.4-28.7-29.208-48.279,1.748-13.115,13.562-27.684,25.293-34.912-20.4,2.545-40.309,19.966-43.777,40.407-4.4,25.964,7.522,41.344,7.522,41.344,14.961,12.416,29.53,14.849,48.908,14.331,11.675-.308,23.531-8.193,31.082-20.26-11.451,8.291-25,12.108-39.806,7.368Z" transform="translate(-0.002 78.312)" fill="#d5dbe6" opacity="0.5"/>
          <path id="Pfad_1551" data-name="Pfad 1551" d="M198.019,315.418s-21.812-5.97-17.268-19.141c5.3-15.394,30.271-11.675,27.516,10.319,0,0-.447-24.86,14.429-24.454s16.555,22.063,3.635,27.726c0,0,18.722-5.788,21.28,8.025s-11.255,25.433-24.384,9.34c0,0,12.094,18.624-6,21.937s-12.947-17.351-12.947-17.351a42.337,42.337,0,0,1-7.8,7.48c-4.978,3.509-16.54.014-18.148-8.725-2.307-12.681,6.753-15.813,19.686-15.128Z" transform="translate(70.862 112.339)" fill="#ffc06a"/>
          <ellipse id="Ellipse_250" data-name="Ellipse 250" cx="11.535" cy="12.094" rx="11.535" ry="12.094" transform="translate(269.784 418.241) rotate(-4.43)" fill="#f87cd2"/>
          <path id="Pfad_1552" data-name="Pfad 1552" d="M176.532,342.461c13.884,5.914,31.1,8.053,51.02,6.124-5.816-25.727-.783-47.72,10.151-70.552,2.237-2.181,10.682-5.145,17.743-4.167-.461,20.511,1.4,39.079,8.277,53.327,18.33,5.341,37.737-2.041,40.324-2.265-.14-5.942-3.635-9.955-3.356-16.345.937-32.424,3.02-59.213-1.216-76.578-2.726,10.165-26.719,9.046-50.055,6.781-28.243-4.978-44.56-16.68-56.5-21.406-1.356.545-25.615,28.089-24.356,26.831l-1.552,3.02a66.268,66.268,0,0,0,29.711,20.917c-17.994,21.854-17.184,48.685-20.2,74.3Z" transform="translate(66.497 86.554)" fill="#bb5122" opacity="0.4"/>
          <path id="Pfad_1553" data-name="Pfad 1553" d="M199.55,251.12s-26.16,40.617-20.707,73.516c0,0,14.387,6.725,37.387,6.236a178.835,178.835,0,0,1,1.957-35.681c4.74-28.271,10.934-39.89,10.934-39.89s-7.55-1.119-29.585-4.181Z" transform="translate(70.911 99.988)" fill="#d5dc00"/>
          <path id="Pfad_1554" data-name="Pfad 1554" d="M170.9,226.157s-6.809,7.019-4.195,15.59c2.545,12.486,19.574,31.571,65.728,29.753,38.632-.084,69.923-16.4,72.1-24.51,4.684-17.421,1.9-31.892-3.02-31.305-6.851,8.375-41.218,22.678-69.671,23.28-27.866,1.5-53.354-11.773-60.946-12.835Z" transform="translate(66.14 85.872)" fill="#d5dc00"/>
          <path id="Pfad_1555" data-name="Pfad 1555" d="M298.279,232.235c-1.16-5.495-3.831-9.536-7.131-11.171-8.627-.755-31.892,7.382-34.06,12.709,4.8,2,3.23,16.9,1.272,22.511-3.16,4.824-7.187,7.466-16.526,7.97-19.952,1.118-42.882-2.587-54.571-8.529-12.835-6.515-17.575-16.82-13.478-31.012a21.188,21.188,0,0,0-2.88-.685s-6.809,7.019-4.195,15.59c2.545,12.486,19.574,31.571,65.728,29.753,38.632-.084,69.923-16.4,72.1-24.51a70.8,70.8,0,0,0,2.181-12.262c-3.048,6.362-6.557,11.773-8.459-.378Z" transform="translate(66.14 88.001)" fill="#bc6f1e" opacity="0.3"/>
          <path id="Pfad_1556" data-name="Pfad 1556" d="M242.677,319.508s-8.361-20.413-6.362-55.326c-.965-21.224,1.035-31.235-3.887-30.662-3.356-.587-.182-6.6,16.918-10.416,6.292-1.4,12.486-3.5,15.506-2.139,8.012,2.964,6.641,31.5,7.746,45.133s5.173,29.082,11.283,38.506c-.769,9.312-23.5,23.461-41.2,14.891Z" transform="translate(92.072 87.807)" fill="#d5dc00"/>
          <path id="Pfad_1557" data-name="Pfad 1557" d="M114.469,52.4c2.125,2.447,7.634-2.027,7.634-2.027s-3.831,5.481-2,6.963c2.209,1.79,5.956-4.88,5.956-4.88s-2,5.425.126,6.627,5.355-4.041,5.355-4.041-.629,6.068,2.419,7.1,2.615-7.8,2.615-7.8,2,6.823,3.705,6.376c3.048-.811.168-8.571.168-8.571s3.146,5.858,5.271,5.229-1.16-8.221-1.16-8.221,5.719,7.97,8.305,6.026c1.818-1.356-2.866-8.543-2.866-8.543s4.712,4.488,7.159,2.978-3.174-7.662-3.174-7.662,6.7,3.076,7.62.741-4.7-6.949-4.7-6.949,6.432,1.5,6.4-1.58c-.028-2.866-7-2.5-7-2.5s7.145-.839,6.837-3.663c-.252-2.419-5.145-1.748-7.774-2.055,2.293-.336,7.089-3.551,6.306-5.481-.965-2.363-8.529-.07-8.529-.07s6.879-3.328,6.11-6.04S151,16.12,151,16.12s6.236-3.943,4.111-6.376-7.62,2.069-7.62,2.069,3.8-5.495,1.971-6.963c-2.223-1.79-6.362,4.712-6.362,4.712s2.475-5.914.35-7.117-5.411,4.726-5.411,4.726.6-6.068-2.447-7.089S133.009,7.9,133.009,7.9,130.3.852,128.591,1.314c-3.048.825-.447,7.48-.447,7.48s-4.306-5.719-6.432-5.075,1.37,7.83,1.37,7.83-4.223-6.264-6.823-4.292c-1.8,1.37,3.37,8.417,3.37,8.417s-4.726-4.474-7.159-2.95,3.2,7.662,3.2,7.662-6.711-3.048-7.62-.7,6.222,6.152,6.222,6.152-8.459-1.44-8.767,1.608c-.182,1.832,7.886,3.258,7.886,3.258s-7.466.475-8.1,2.335c-.517,1.5,7.4,3.523,8.361,3.356-2.251.489-7.271,2.545-6.977,4.069.587,3.146,8.4.909,8.4.909s-5.83,2.293-5.075,5.005,8.6-.308,8.6-.308-6.264,3.915-4.139,6.362Z" transform="translate(41.915 -0.001)" fill="#cf3a23"/>
          <path id="Pfad_1558" data-name="Pfad 1558" d="M152.127,23.93s7.131-.951,6.781-3.761a1.671,1.671,0,0,0-1.161-1.356A40.468,40.468,0,0,0,128.4,27.789a37.7,37.7,0,0,0-10.193,15.352s-3.747,5.537-1.9,6.991c2.237,1.762,5.886-4.964,5.886-4.964s-1.915,5.453.224,6.627,5.285-4.111,5.285-4.111-.545,6.082,2.517,7.061,2.5-7.83,2.5-7.83,2.1,6.8,3.8,6.32c3.034-.853.042-8.571.042-8.571s3.23,5.816,5.355,5.159-1.286-8.193-1.286-8.193,5.83,7.886,8.4,5.9c1.79-1.384-2.992-8.5-2.992-8.5s4.782,4.418,7.2,2.866-3.286-7.62-3.286-7.62,6.739,2.964,7.634.615-4.81-6.879-4.81-6.879,6.46,1.4,6.39-1.678c-.07-2.866-7.033-2.391-7.033-2.391Z" transform="translate(46.104 7.429)" fill="#bf3a23" opacity="0.5"/>
          <path id="Pfad_1559" data-name="Pfad 1559" d="M280.537,140.36c4.4,3.272,14.373.364,15.24-5.061.112,4.432,4.013,7.131,8.375,6.4s6.949-2.475,8.5-5.117c-.447,6.362,4.628,8.459,9.06,8.389a8.357,8.357,0,0,0,8.291-6.11,18.083,18.083,0,0,0,17.715,5.97c6.18-1.524,10.962-4.167,10.78-7.019-.322-5.159-6.152-7.075-10.794-7.7-8.319-1.146-13.632,4.223-17.128,6.068-3.887-8.711-11.731-8.962-16.792-4.222-.237-4.139-5.145-8.571-9.284-8.641s-8.389,2.894-8.753,7.033c-1.51-4.614-8.347-9.06-12.528-8.948-10.346,1.384-12.038,12.01-2.684,18.959Z" transform="translate(109.258 48.336)"/>
          <path id="Pfad_1560" data-name="Pfad 1560" d="M317.946,139.289s-4.964,1.888-4.866-1.384a59.629,59.629,0,0,1,.475-7.34c.377-1.874,4.474-1.818,4.642.643s.489,7.62-.266,8.1Z" transform="translate(124.659 51.463)" fill="#48ce00"/>
          <path id="Pfad_1561" data-name="Pfad 1561" d="M276.932,146.613c2.7,4.782,12.989,6.166,15.981,1.566-1.692,4.1.769,8.137,5.061,9.256s7.354.559,9.857-1.23c-2.992,5.635.8,9.605,4.866,11.339a8.364,8.364,0,0,0,10.067-2.223,18.077,18.077,0,0,0,13.772,12.654c6.264,1.119,11.7.629,12.7-2.027,1.8-4.852-2.754-8.962-6.739-11.423-7.131-4.432-14.177-1.678-18.12-1.4-.014-9.536-7.075-12.961-13.632-10.682,1.468-3.887-1.216-9.927-4.977-11.675s-8.851-.755-10.864,2.866c.489-4.838-3.957-11.661-7.816-13.255C277.058,127.444,271.2,136.462,276.932,146.613Z" transform="translate(109.368 51.689)"/>
          <path id="Pfad_1562" data-name="Pfad 1562" d="M311.386,161.451s-5.313-.294-3.887-3.244a56.568,56.568,0,0,1,3.426-6.516c1.1-1.566,4.824.154,3.985,2.475S312.267,161.325,311.386,161.451Z" transform="translate(122.34 60.158)" fill="#ff58c8"/>
          <path id="Pfad_1563" data-name="Pfad 1563" d="M277.337,155.942c1.132,5.369,10.542,9.773,14.779,6.292-2.852,3.4-1.706,8,2.041,10.347s6.851,2.74,9.773,1.79c-4.544,4.474-2.125,9.4,1.244,12.276a8.351,8.351,0,0,0,10.263.909,18.091,18.091,0,0,0,9.34,16.2c5.635,2.95,10.976,4.125,12.724,1.874,3.174-4.083.07-9.368-2.992-12.919-5.481-6.362-13.017-5.858-16.862-6.781,2.852-9.1-2.852-14.485-9.8-14.275,2.573-3.258,1.817-9.829-1.244-12.625s-8.207-3.384-11.213-.517c1.916-4.46-.266-12.318-3.481-15-8.683-5.816-16.974,1.035-14.555,12.43Z" transform="translate(110.263 56.3)"/>
          <path id="Pfad_1564" data-name="Pfad 1564" d="M305.513,180.656s-4.978-1.874-2.727-4.25A60.11,60.11,0,0,1,308,171.219c1.524-1.161,4.558,1.594,3.062,3.551S306.394,180.81,305.513,180.656Z" transform="translate(120.328 68.064)" fill="#48ce00"/>
          <path id="Pfad_1565" data-name="Pfad 1565" d="M140.841,193.022c-5.131,1.943-8.054,11.9-3.971,15.562-3.789-2.293-8.165-.461-9.913,3.607s-1.664,7.187-.28,9.927c-5.117-3.817-9.619-.671-11.954,3.1a8.363,8.363,0,0,0,.671,10.277,18.046,18.046,0,0,0-14.583,11.7c-2.055,6.026-2.391,11.479.1,12.863,4.516,2.517,9.27-1.37,12.318-4.922,5.453-6.39,3.8-13.758,4.125-17.7,9.438,1.426,13.87-5.034,12.612-11.857,3.607,2.041,10,.294,12.29-3.16s2.083-8.627-1.2-11.171c4.7,1.216,12.136-2.153,14.289-5.719,4.418-9.466-3.607-16.61-14.513-12.486Z" transform="translate(39.479 76.391)"/>
          <path id="Pfad_1566" data-name="Pfad 1566" d="M107.36,224.766s1.091-5.2,3.789-3.342a58.36,58.36,0,0,1,5.928,4.362c1.384,1.328-.881,4.754-3.048,3.565S107.346,225.647,107.36,224.766Z" transform="translate(42.746 88.004)" fill="#ff58c8"/>
          <path id="Pfad_1567" data-name="Pfad 1567" d="M145.851,186.725c-5.439-.741-12.751,6.627-10.906,11.787-2.237-3.831-6.949-4.292-10.43-1.552s-4.894,5.523-4.978,8.6c-2.685-5.788-8.137-5.173-11.982-2.964a8.353,8.353,0,0,0-4.306,9.354,18.069,18.069,0,0,0-18.4,3.342c-4.684,4.32-7.578,8.948-6.04,11.353,2.782,4.362,8.794,3.216,13.171,1.538,7.83-3.02,9.9-10.277,12.066-13.59,7.62,5.747,14.6,2.181,16.75-4.418,2.209,3.509,8.641,5.019,12.3,3.076s5.942-6.585,4.264-10.389c3.551,3.314,11.689,3.887,15.3,1.776,8.389-6.208,4.74-16.331-6.809-17.9Z" transform="translate(31.212 74.327)"/>
          <path id="Pfad_1568" data-name="Pfad 1568" d="M92.873,204.294s3.44-4.055,4.922-1.133a58.906,58.906,0,0,1,3.132,6.669c.573,1.832-3.034,3.761-4.376,1.678S92.439,205.077,92.873,204.294Z" transform="translate(36.959 80.471)" fill="#48ce00"/>
          <path id="Pfad_1569" data-name="Pfad 1569" d="M143.393,175.9c-5.341-1.23-13.618,4.614-12.57,10-1.622-4.125-6.222-5.313-10.081-3.132s-5.677,4.712-6.222,7.746c-1.762-6.138-7.257-6.348-11.4-4.754a8.353,8.353,0,0,0-5.677,8.6,18.035,18.035,0,0,0-18.694.5c-5.285,3.551-8.85,7.69-7.7,10.291,2.083,4.74,8.207,4.516,12.793,3.524,8.207-1.79,11.339-8.655,13.982-11.6,6.655,6.837,14.094,4.376,17.226-1.818a9.57,9.57,0,0,0,9.214,3.705c4.348-.573,7.83-2.894,8.976-5.509,3.188,2.6,9.158,2.4,13.045.867C155.529,189.446,152.956,178.092,143.393,175.9Z" transform="translate(28.203 69.97)"/>
          <path id="Pfad_1570" data-name="Pfad 1570" d="M86.8,187.954s4.013-3.482,5.047-.378a55.629,55.629,0,0,1,2.069,7.061c.294,1.887-3.579,3.244-4.572.993s-3.09-6.991-2.545-7.69Z" transform="translate(34.522 74.174)" fill="#ff58c8"/>
          <path id="Pfad_1571" data-name="Pfad 1571" d="M335.251,159.926c5.621,22.049,8.179,38.827,7.718,46.769-5.858,53.508-40.715,75.292-94.8,82.087-69.056,4.25-89.679-28.76-99.368-50.782-4.488-13.283-2.964-16.764-5.355-38.016-6-53.452,34.116-104.793,88.183-110.009S323.283,113,335.251,159.926Z" transform="translate(56.879 35.579)" fill="#dd8053"/>
          <path id="Pfad_1572" data-name="Pfad 1572" d="M245.98,105.133c.21-.14.405-.28.615-.433A2.022,2.022,0,0,0,245.98,105.133Z" transform="translate(97.941 41.687)" fill="#dd8053"/>
          <path id="Pfad_1573" data-name="Pfad 1573" d="M257.13,110.881c.294-.126.6-.266.881-.391A3.213,3.213,0,0,0,257.13,110.881Z" transform="translate(102.381 43.993)" fill="#dd8053"/>
          <path id="Pfad_1574" data-name="Pfad 1574" d="M160.337,206.273a10.086,10.086,0,0,0,1.188-7.55c-.881-1.929-1.748-4.8-4.586-4.894,9.508-.643,18.372-10.794,12.961-19.5-1.86-1.007-2.754-2.936-4.614-3.943,14.178,1.412,19.463-15.492,13.171-26.132.881,1.93,2.782,1.985,3.691,2.964a9.225,9.225,0,0,0,8.557-.671c4.866-3.635,7.914-10.179,3.356-16.009,7.494,3.09,17.03,1.5,21.057-5.956,1.035-2.81.21-6.627-.643-9.508.853,2.866,3.733,2.013,5.621,2.083,6.572,2.111,13.423-4.306,12.709-11.926,5.537,4.922,13.94,8.99,20.721,4.46.028-.951,2.013-3.733,1.133-5.649,3.509,8.655,14.066,5.2,17.086-.391-.028.951-.1,2.838-.126,3.789,4.39,5.635,9.787,7.746,15.394,3.8a2.022,2.022,0,0,1,.615-.433c-.21.154-.405.294-.615.433-1.1,1.16-.461,3.44-.489,4.264,2.447,8.193,10.346,6.278,16.079,3.789a3.414,3.414,0,0,1,.881-.391c-.294.126-.587.266-.881.391-1.79,1.146-1.146,3.565-1.2,5.229,1.748,4.8,7.159,13.506,14,7.089-.1,2.838-1.161,6.6,1.622,8.585,1.9.056,4.67,2.041,6.669-.727-4.1,9.354,2.237,19.043,10.7,21.21H335.4c-.07-.252-.126-.489-.182-.741C323.253,113,285.67,84.757,231.6,89.987S137.421,146.557,143.419,200c.447,4.027.755,7.41,1.007,10.346a11.627,11.627,0,0,0,15.883-4.041Z" transform="translate(56.867 35.582)" fill="#bd8bb0" opacity="0.45"/>
          <path id="Pfad_1575" data-name="Pfad 1575" d="M174.31,146.416a59.85,59.85,0,0,1,5.663-3.677c2.88-1.608,8.193-.811,8.193-.811a5.648,5.648,0,0,0-3.747-5.3c-3.943-1.384-6.613-.126-9.578,3.062s-2.209,6.348-.531,6.711Z" transform="translate(68.816 54.179)" fill="#3c2415"/>
          <path id="Pfad_1576" data-name="Pfad 1576" d="M247.335,133.821a36.3,36.3,0,0,1,6.306-2.768c3.146-.965,7.452.587,7.452.587s.084-3.607-2.741-4.8c-2.419-1.021-5.565-1.985-9.116.517s-3.468,5.76-1.9,6.46Z" transform="translate(98.069 50.079)" fill="#3c2415"/>
          <ellipse id="Ellipse_251" data-name="Ellipse 251" cx="19.756" cy="19.756" rx="19.756" ry="19.756" transform="translate(234.584 211.235)" opacity="0.6" fill="url(#radial-gradient)"/>
          <circle id="Ellipse_252" data-name="Ellipse 252" cx="14.331" cy="14.331" r="14.331" transform="matrix(0.623, -0.782, 0.782, 0.623, 235.437, 235.451)" fill="url(#radial-gradient-2)"/>
          <path id="Pfad_1577" data-name="Pfad 1577" d="M175.948,171.723a10.053,10.053,0,1,0,8.864-11.115A10.047,10.047,0,0,0,175.948,171.723Z" transform="translate(70.031 63.924)" fill="url(#radial-gradient-3)"/>
          <path id="Pfad_1578" data-name="Pfad 1578" d="M177.394,168.423a2.315,2.315,0,1,0,2.041-2.559A2.312,2.312,0,0,0,177.394,168.423Z" transform="translate(70.626 66.036)" fill="#fff"/>
          <path id="Pfad_1579" data-name="Pfad 1579" d="M176.3,160.94s-5.565-2.7-5.984-1.594c.056.517,4.908,3.454,4.908,3.454Z" transform="translate(67.815 63.34)" fill="#3c2415"/>
          <path id="Pfad_1580" data-name="Pfad 1580" d="M183.119,157.936s-.2-5.719-2.055-6.306c-.643.587.559,6.334.559,6.334Z" transform="translate(72.018 60.374)" fill="#3c2415"/>
          <path id="Pfad_1581" data-name="Pfad 1581" d="M179.549,158.383s-3.02-4.25-4.516-4.223c-.2.671,2.992,5.173,2.992,5.173Z" transform="translate(69.688 61.381)" fill="#3c2415"/>
          <path id="Pfad_1582" data-name="Pfad 1582" d="M184.311,158.519c11.06-2.349,14.863,5.145,16.023,6.739-.182-6.432-7.564-10.207-15.45-9.354-4.922.531-9.829,4.754-11.787,8.711-1.188,2.391-1.65,7.326-.252,8.5C173.181,171.829,174.02,160.714,184.311,158.519Z" transform="translate(68.477 62.028)" fill="#3c2415"/>
          <ellipse id="Ellipse_253" data-name="Ellipse 253" cx="19.756" cy="19.756" rx="19.756" ry="19.756" transform="matrix(0.278, -0.961, 0.961, 0.278, 332.606, 228.189)" opacity="0.6" fill="url(#radial-gradient-4)"/>
          <path id="Pfad_1583" data-name="Pfad 1583" d="M246.136,160.838A14.324,14.324,0,1,0,258.762,145,14.311,14.311,0,0,0,246.136,160.838Z" transform="translate(97.967 57.695)" fill="url(#radial-gradient-5)"/>
          <path id="Pfad_1584" data-name="Pfad 1584" d="M249.438,160.083a10.053,10.053,0,1,0,8.865-11.116A10.047,10.047,0,0,0,249.438,160.083Z" transform="translate(99.293 59.289)" fill="url(#radial-gradient-6)"/>
          <path id="Pfad_1585" data-name="Pfad 1585" d="M250.884,156.773a2.314,2.314,0,1,0,2.041-2.559A2.312,2.312,0,0,0,250.884,156.773Z" transform="translate(99.888 61.397)" fill="#fff"/>
          <path id="Pfad_1586" data-name="Pfad 1586" d="M249.8,149.3s-5.565-2.7-5.984-1.594c.056.517,4.908,3.454,4.908,3.454Z" transform="translate(97.081 58.705)" fill="#3c2415"/>
          <path id="Pfad_1587" data-name="Pfad 1587" d="M256.609,146.3s-.2-5.719-2.055-6.306c-.643.587.559,6.334.559,6.334Z" transform="translate(101.28 55.739)" fill="#3c2415"/>
          <path id="Pfad_1588" data-name="Pfad 1588" d="M253.039,146.743s-3.02-4.251-4.516-4.223c-.2.671,2.992,5.173,2.992,5.173Z" transform="translate(98.95 56.746)" fill="#3c2415"/>
          <path id="Pfad_1589" data-name="Pfad 1589" d="M257.8,146.879c11.06-2.349,14.863,5.145,16.023,6.739-.182-6.432-7.564-10.207-15.45-9.354-4.908.531-9.829,4.754-11.787,8.711-1.188,2.391-1.65,7.326-.252,8.5C246.671,160.189,247.51,149.074,257.8,146.879Z" transform="translate(97.74 57.393)" fill="#3c2415"/>
          <path id="Pfad_1590" data-name="Pfad 1590" d="M230.966,176.558l-.867-1.1c2.964-1.818,3.747-6.124,3.02-7.676-.154-.336-.447-.336-2.363.308a19.632,19.632,0,0,1-5.537,1.188c-6.166.224-7.7-8.557-7.76-8.934l1.566-.28c0,.084,1.4,8.012,6.236,7.844a17.142,17.142,0,0,0,5.006-1.091c1.762-.587,3.579-1.2,4.32.391,1.007,2.181-.1,7.187-3.635,9.354Z" transform="translate(86.585 63.73)" fill="url(#radial-gradient-7)"/>
          <path id="Pfad_1591" data-name="Pfad 1591" d="M200.785,195.524l43.288,9.284s-2.726,28.089-27.153,24.454-16.135-33.752-16.135-33.752Z" transform="translate(79.407 77.846)" fill="#923732"/>
          <path id="Pfad_1592" data-name="Pfad 1592" d="M219.768,212.727a21.957,21.957,0,0,0-15.618,4.964,20.267,20.267,0,0,0,10.878,4.754c7.69,1.146,13.227-.867,17.211-4.153C233.721,214.643,225.234,213.343,219.768,212.727Z" transform="translate(81.285 84.677)" fill="#fd827e"/>
          <path id="Pfad_1593" data-name="Pfad 1593" d="M234.2,203.674a6.4,6.4,0,0,0,1.216-.643L203.16,196.11C209.354,205.268,225,208.26,234.2,203.674Z" transform="translate(80.891 78.085)" fill="#fff"/>
          <path id="Pfad_1594" data-name="Pfad 1594" d="M256.041,119.655A12.407,12.407,0,0,0,267.6,112.51c3.342,6.348,13.353,7.662,18.218,2.391,2,7.494,11.577,11.829,18.526,8.389a13.49,13.49,0,0,0,15.436,8.6c.252,7.075,7.788,12.947,14.723,11.465-3.537,3.9,1.119,11.409,6.18,10a11.268,11.268,0,0,0,7.62,13.912,19.784,19.784,0,0,0,2.391-15.268c1.971-1.538,2.656-4.18,2.615-6.907a10.391,10.391,0,0,0-5.145-8.739c5.061-6.054-1.8-16.6-6.571-14.275,2.181-9.2-6.641-13.45-9.941-11.2,2.307-12,1.272-32.27-17.9-33.584-1.384-8.836-18.568-16.988-23.545-11-3.691-12.416-21.364-15.03-29.068-9.13-3.943-7.312-20.833-9.032-24.65,1.943-10.235-10.249-30.956-2.153-31.249,7.2a24.051,24.051,0,0,0-23.979.391A23.666,23.666,0,0,0,170.36,80.324c-5.8-1.2-14.331-.28-17.855,4.488s-6.138,12.905-4.977,16.918c-7.2,1.636-10.836,2.671-16.2,8.948-2.433,2.838-3.3,11.577-1.524,16.694-5.593,1.985-9.116,5.313-11.954,10.542-2.908,5.369-4.167,15.338,1.5,17.114-6.725.923-9.787,8.641-10.738,15.366s6.753,26.426,12.961,29.18a11.06,11.06,0,0,0-5.411,10.43c.294,6.585,4.069,9.494,5.928,10.361-7.634,4.95-2.321,19.365,6.571,20.553-2.908,3.146.517,17.9,12.164,14,2.153,16.079,22.86,19.295,31.1,13.3-6.04-5.537-11.423-19.756-11.074-24.468s2.265-11.619.517-16c7.662-5.327,10.444-15.576,2.433-20.371,4.908-.322,13.031-5.8,13.143-10.724s-.517-8.864-4.306-16.219c4.824.154,11.339-2.852,14.765-9.172,2.894-5.355,3.118-10.99.182-16.317a11.881,11.881,0,0,0,16.093-16.2c9.424,8.431,21.182-7.27,20.637-15.688,7.886,4.88,20.315-.154,20.9-11a12.919,12.919,0,0,0,10.822,7.62Z" transform="translate(43.209 20.413)"/>
          <path id="Pfad_1595" data-name="Pfad 1595" d="M164.134,214.82c-4.348,2.237-20.022,3.258-27.376-10.724s4.908-33.612,18.372-26.048A187.233,187.233,0,0,0,164.134,214.82Z" transform="translate(53.574 70.224)" fill="#dd8053"/>
          <path id="Pfad_1596" data-name="Pfad 1596" d="M143.466,184.055c-6.46,8.459-3.635,17.645,5.02,21.21a15.521,15.521,0,0,0,11.046.112,192.717,192.717,0,0,1-5.467-22.692c-3.887-1.608-8.319-1.119-10.584,1.37Z" transform="translate(55.716 72.369)" fill="#bd8bb0" opacity="0.45"/>
          <path id="Pfad_1598" data-name="Pfad 1598" d="M177.927,214.906a17.116,17.116,0,1,1,17.659-16.554A17.11,17.11,0,0,1,177.927,214.906Z" transform="translate(64.249 71.942)" fill="url(#radial-gradient-8)"/>
          <path id="Pfad_1599" data-name="Pfad 1599" d="M108.353,181.449s-12.821-18.9-3.314-76.7c2.377-14.429,13.422-52,29.068-69.937C143,24.616,150.676,22.84,155.388,21.722c20.637-4.936,65.463,2.419,85.247,8.4,63.715,19.267,88.309,63.7,88.309,63.7s-42.966-16.443-89.358-10.235c-24.65,3.3-48.81,11.269-78.074,30.382-24.161,15.785-40.855,36.912-53.173,67.476Z" transform="translate(40.424 8.002)" fill="#cf3a23"/>
          <path id="Pfad_1600" data-name="Pfad 1600" d="M141.472,108.01c-9.074,8.711-21.322,19.477-24.1,12.052-4.642-8.347,9.7-28.215,16.694-40.8,8.389-9.787,17.617-22.259,6.488-23.182-6.488,1.86-12.975-18.54,10.458-33.962C146.491,23.6,140.633,26.552,134.118,34c-15.646,17.939-26.705,55.508-29.068,69.937-9.508,57.8,3.314,76.7,3.314,76.7,12.318-30.564,29.012-51.691,53.173-67.476C190.8,94.042,214.96,86.087,239.61,82.787,286,76.579,328.968,93.022,328.968,93.022s-5.257-9.466-17.156-21.546C249.257,50.671,183.194,66.288,141.472,108.01Z" transform="translate(40.428 8.806)" fill="#bf3a23" opacity="0.5"/>
          <path id="Pfad_1601" data-name="Pfad 1601" d="M124.761,198.037s4.6-57.731,84.772-85.345c86.491-29.781,124.634-3.426,124.634-3.426s11.9-9.759.937-26.831a67.119,67.119,0,0,0-20.609-20.581c-26.37-10.207-93.161-11.423-137.888,16.373-37.863,23.531-64.834,44.854-73.5,81.584-3.356,12.653,15.394,42.253,21.672,38.226Z" transform="translate(40.892 21.978)" fill="#ff6631"/>
          <path id="Pfad_1602" data-name="Pfad 1602" d="M109.211,115.874a95.31,95.31,0,0,0-4.041,9.466c2.908,14.177,11.311,25.7,21.406,36.408a88.827,88.827,0,0,1,3.384-8.711c-7.76-11.884-18.12-23.336-20.763-37.178Z" transform="translate(41.874 46.131)" fill="#f99250"/>
          <path id="Pfad_1603" data-name="Pfad 1603" d="M157.01,72.1c9.438,16.736,13.143,31.165,22.217,38.9,2.587-1.035,5.243-2.027,8.012-2.992-8.291-12.989-14.219-27.125-21.9-40.421C162.5,68.992,159.722,70.488,157.01,72.1Z" transform="translate(62.515 26.907)" fill="#f99250"/>
          <path id="Pfad_1604" data-name="Pfad 1604" d="M191.043,58.86c-3.412.783-6.823,1.65-10.193,2.615,8.277,13.576,16.261,27.278,20.344,42.868,3.817-.993,7.508-1.846,11.1-2.6C205.71,88.725,201,72.017,191.043,58.86Z" transform="translate(72.008 23.435)" fill="#f99250"/>
          <path id="Pfad_1605" data-name="Pfad 1605" d="M216.856,55.394c-3.146.14-6.32.363-9.536.643,7.41,14.317,16.778,27.754,24.035,42.84,3.216-.224,6.278-.336,9.214-.391-6.362-15.743-16.233-28.523-23.713-43.106Z" transform="translate(82.548 22.049)" fill="#f99250"/>
          <path id="Pfad_1606" data-name="Pfad 1606" d="M240.055,56.4c-3.16-.378-6.46-.685-9.885-.895,9.983,13.52,14.877,28.2,17.841,43.581,3.929.378,7.494.909,10.752,1.524-1.174-13.842-4.726-26.146-18.708-44.2Z" transform="translate(91.646 22.101)" fill="#f99250"/>
          <path id="Pfad_1607" data-name="Pfad 1607" d="M277.465,81.349a67.119,67.119,0,0,0-20.609-20.581,74.332,74.332,0,0,0-9.4-2.838c10.277,5.928,13.115,13.534,18.666,19.91,6.012,8.948,6.613,20.791,5.047,27.544a37.44,37.44,0,0,1,5.355,2.782s11.9-9.759.937-26.831Z" transform="translate(98.531 23.065)" fill="#f99250"/>
          <path id="Pfad_1608" data-name="Pfad 1608" d="M133.63,88.366c7.019,11.9,12.248,24.664,18.861,36.772q4.782-3.628,10.374-7.1c-6.306-12.262-13.548-24.077-20.889-35.835C139.111,84.241,136.315,86.3,133.63,88.366Z" transform="translate(53.206 32.728)" fill="#f99250"/>
          <path id="Pfad_1609" data-name="Pfad 1609" d="M122.949,97.93c-2.559,2.67-4.992,5.425-7.229,8.263,4.558,12.835,12.192,24.3,20.749,35.835,1.706-2.307,3.607-4.656,5.677-7.019C133.141,123.838,125.032,111.6,122.949,97.93Z" transform="translate(46.075 38.992)" fill="#f99250"/>
          <path id="Pfad_1610" data-name="Pfad 1610" d="M326.114,86.7c-34.661-10.235-76.942-4.432-111.854,6.292-48.237,14.807-85.75,43.511-99.9,92.769,2.293,1.943,4.348,2.768,5.774,1.846,0,0,4.6-57.731,84.771-85.345,86.491-29.781,124.634-3.425,124.634-3.425a17.194,17.194,0,0,0,4.936-8.165,33.406,33.406,0,0,0-8.347-3.971Z" transform="translate(45.533 32.395)" fill="#a43322" opacity="0.4"/>
          <path id="Pfad_1611" data-name="Pfad 1611" d="M314.027,77.236c7.844,1.4,15.352,4.222,22.874,6.865a33.108,33.108,0,0,0-3.146-6.18c-.461-.727-.993-1.51-1.566-2.307-61.66-20.12-129.164-6.264-180.351,35.164-19.6,16.135-37.219,41.232-45.748,64.526,1.021,2.111,2.153,4.167,3.342,6.11,29.823-74.131,122.1-118.873,204.6-104.192Z" transform="translate(42.24 26.479)" fill="#ffe6db" opacity="0.44"/>
          <path id="Pfad_1612" data-name="Pfad 1612" d="M324.1,69.251a65.693,65.693,0,0,0-9.606-7.4c-26.37-10.207-93.161-11.423-137.888,16.373-37.863,23.531-64.833,44.854-73.5,81.584-.853,3.216-.28,7.522,1.161,12.08,2.629-13.59,7.257-26.188,15.38-37.024C165.826,69.74,250.122,46.74,324.1,69.251Z" transform="translate(40.892 21.978)" fill="#ffe6db" opacity="0.44"/>
        </g>
      </g>
    </g>
  </g>
</svg>
