<svg xmlns="http://www.w3.org/2000/svg" xmlns:xlink="http://www.w3.org/1999/xlink" width="238.245" height="258.939" viewBox="0 0 238.245 258.939">
  <defs>
    <radialGradient id="radial-gradient" cx="0.5" cy="0.5" r="0.504" gradientTransform="translate(0.008) scale(0.984 1)" gradientUnits="objectBoundingBox">
      <stop offset="0" stop-color="#ffd9ed"/>
      <stop offset="0.32" stop-color="#ffddef"/>
      <stop offset="0.66" stop-color="#ffeaf5"/>
      <stop offset="1" stop-color="#fff"/>
    </radialGradient>
    <radialGradient id="radial-gradient-2" cx="0.5" cy="0.5" r="0.504" gradientTransform="translate(0.008) scale(0.985 1)" gradientUnits="objectBoundingBox">
      <stop offset="0" stop-color="#ffd9ed"/>
      <stop offset="0.37" stop-color="#ffdbee"/>
      <stop offset="0.65" stop-color="#ffe5f2"/>
      <stop offset="0.89" stop-color="#fff5fa"/>
      <stop offset="1" stop-color="#fff"/>
    </radialGradient>
    <linearGradient id="linear-gradient" x1="0.898" y1="-2.908" x2="0.052" y2="-3.657" gradientUnits="objectBoundingBox">
      <stop offset="0" stop-color="#fff"/>
      <stop offset="1" stop-color="#a1b9c6"/>
    </linearGradient>
    <radialGradient id="radial-gradient-3" cx="0.5" cy="0.5" r="0.5" gradientTransform="matrix(0.995, -0.099, 0.099, 0.995, 0.986, -0.038)" gradientUnits="objectBoundingBox">
      <stop offset="0.62" stop-color="#7fa0ce"/>
      <stop offset="0.67" stop-color="#89a7d1"/>
      <stop offset="0.75" stop-color="#a5bcdc"/>
      <stop offset="0.85" stop-color="#d2dded"/>
      <stop offset="0.94" stop-color="#fff"/>
    </radialGradient>
    <radialGradient id="radial-gradient-4" cx="0.5" cy="0.5" r="0.5" gradientTransform="matrix(0.456, 0.89, -0.89, 0.456, -8.986, -5.663)" xlink:href="#radial-gradient-3"/>
    <clipPath id="clip-path">
      <path id="Pfad_3731" data-name="Pfad 3731" d="M1038.973,1739.31c-6.47-3.345-20.888,1.86-17.748,8-2.065.056-5.251-.073-9.054-.2-15.687-.534-41.853-1.068-42.949,11.443,10.824-2,17.274-7.672,29.264-4.009,14.432,4.41,22.542,2.719,32.989,3.406-10.54,7.016-9.75,12.95-16.553,16.638,12.026-4.009,23.251-3.207,30.868-.8,2-10.423,30.066-8.418,35.2-4.267,4.406-13.668,22.275-11.934,33.954-11.32,19.209,1.011,26.722-3.807,43.077-12.678-2.874-5.984-12.808-11.422-25.637-11.823-4.647,3.807-19.242,6.013-35.728.207-4.632-1.631-8.988.351-13.157,2.334-5.555,2.642-10.779,5.283-15.883-.625a21.087,21.087,0,0,0-11.054-3.125c-6.336,0-12.52,2.771-17.583,6.823" transform="translate(-969.221 -1732.487)" fill="none"/>
    </clipPath>
    <radialGradient id="radial-gradient-5" cx="0.5" cy="0.503" r="1.617" gradientTransform="matrix(0.224, 0, 0, -1, -2.433, 7.735)" gradientUnits="objectBoundingBox">
      <stop offset="0" stop-color="#fffeff"/>
      <stop offset="1" stop-color="#fff"/>
    </radialGradient>
  </defs>
  <g id="snowman" transform="translate(-1139.742 -461.005)">
    <g id="snowman-2" data-name="snowman" transform="translate(1139.752 461.005)">
      <g id="Layer_2" transform="translate(-0.01 0)">
        <g id="kids">
          <path id="Pfad_2026" data-name="Pfad 2026" d="M64.173,330.207c.023.5.528,2.584-.632,3.543,0,0-9.316-1.652-11.338-1.956s-10.3-3.312-12.351-4.217a65.945,65.945,0,0,0-7.606-2.923c-1.013-.15-6.047-.508-6.455-.589s-9.7-1.232-11.616-1.44S2.994,319.755-.01,317.895l.223-.362a59.749,59.749,0,0,0,9.555,3.2,60.662,60.662,0,0,0,8.577.886l2.6-.127s-2.823-8.5-3.693-9.859-4.737-6.594-6.825-8.2l.158-.913s3.154,2.958,4.317,4.106a52.294,52.294,0,0,1,3.759,5.038s1.945-5.415.982-8.681l.6-.031a17.908,17.908,0,0,1,.239,4.907,43.11,43.11,0,0,1-1.063,4.972l3.616,8.257s4.737.37,5.939.312,5.145.551,7.063.759,5.681,2.515,5.665,2.215a41.343,41.343,0,0,0-2.176-5.515c-.659-1.171-5.746-6.647-5.746-6.647s-.143-.9.558-.932c0,0,5.7,5.846,6.57,7.11s4.032,6.528,4.032,6.528,4.575,1.182,7.83,2.026a78.669,78.669,0,0,0,10.2,1.309s1.167,1.248,1.2,1.949Z" transform="translate(0.01 -186.008)" fill="#c49a6c"/>
          <path id="Pfad_2027" data-name="Pfad 2027" d="M64.173,330.207c.023.5.528,2.584-.632,3.543,0,0-9.316-1.652-11.338-1.956s-10.3-3.312-12.351-4.217a65.945,65.945,0,0,0-7.606-2.923c-1.013-.15-6.047-.508-6.455-.589s-9.7-1.232-11.616-1.44S2.994,319.755-.01,317.895l.223-.362a59.749,59.749,0,0,0,9.555,3.2,60.662,60.662,0,0,0,8.577.886l2.6-.127s-2.823-8.5-3.693-9.859-4.737-6.594-6.825-8.2l.158-.913s3.154,2.958,4.317,4.106a52.294,52.294,0,0,1,3.759,5.038s1.945-5.415.982-8.681l.6-.031a17.908,17.908,0,0,1,.239,4.907,43.11,43.11,0,0,1-1.063,4.972l3.616,8.257s4.737.37,5.939.312,5.145.551,7.063.759,5.681,2.515,5.665,2.215a41.343,41.343,0,0,0-2.176-5.515c-.659-1.171-5.746-6.647-5.746-6.647s-.143-.9.558-.932c0,0,5.7,5.846,6.57,7.11s4.032,6.528,4.032,6.528,4.575,1.182,7.83,2.026a78.669,78.669,0,0,0,10.2,1.309s1.167,1.248,1.2,1.949Z" transform="translate(0.01 -186.008)" fill="#603913"/>
          <path id="Pfad_2028" data-name="Pfad 2028" d="M99.525,338.9s-3.17-5.265-4.032-6.528-6.57-7.11-6.57-7.11c-.277.015-.089-.069-.162.1,2.076,2.469,4.437,4.579,6.266,7.121,1.344,1.872,2.072,4.048,3.258,6.081.508.158,1.24.331,1.24.331Z" transform="translate(-54.571 -199.985)" fill="#c49a6c" opacity="0.5"/>
          <path id="Pfad_2029" data-name="Pfad 2029" d="M34.042,311.906c-.493-.774-2.419-3.177-3.967-5.072-1.317-1.252-2.985-2.754-2.985-2.754v.312c2.091,1.606,5.958,6.836,6.828,8.2.62.971,2.8,7.26,3.682,9.821l.82-.039s-3.5-9.1-4.375-10.464Z" transform="translate(-16.653 -186.968)" fill="#c49a6c" opacity="0.5"/>
          <path id="Pfad_2030" data-name="Pfad 2030" d="M50.686,308.7a22.127,22.127,0,0,1-1.086,4.321l.32.512c.243-.936.859-3.4,1.071-4.984a17.908,17.908,0,0,0-.239-4.907h-.1a18.52,18.52,0,0,1,.035,5.057Z" transform="translate(-30.493 -186.697)" fill="#c49a6c" opacity="0.5"/>
          <path id="Pfad_2031" data-name="Pfad 2031" d="M50.719,308.8a20.543,20.543,0,0,1-1.159,4.367l.32.512c.243-.936.859-3.4,1.071-4.984a17.908,17.908,0,0,0-.239-4.907h-.1A17.7,17.7,0,0,1,50.719,308.8Z" transform="translate(-30.469 -186.789)" fill="#c49a6c" opacity="0.5"/>
          <path id="Pfad_2032" data-name="Pfad 2032" d="M64.185,354.747a1.586,1.586,0,0,0-.22-.636,2.861,2.861,0,0,1-.747,2.423s-9.316-1.652-11.338-1.956-10.3-3.312-12.351-4.217a48.5,48.5,0,0,0-7.121-2.4c-1.013-.15-5.95-.5-6.355-.578-.22-.042-3.751.042-6.594-.312-.451.023-5.5-.7-9.051-1.329A78.719,78.719,0,0,1,.01,342.43c3,1.86,12.267,4.522,14.185,4.73s11.207,1.36,11.616,1.44,5.442.439,6.455.589a66.673,66.673,0,0,1,7.606,2.923c2.053.905,10.329,3.913,12.351,4.217s11.338,1.956,11.338,1.956c1.159-.959.655-3.043.632-3.543Z" transform="translate(-0.002 -210.548)" fill="#c49a6c" opacity="0.5"/>
          <path id="Pfad_2033" data-name="Pfad 2033" d="M20.038,345.067c.944-.046,2.588.412,3.031,1.152.574.963-.431,1.375-1,1.671s-1.517.447-1.46,1.24c.039.508.3,1.128-.085,1.46a1.308,1.308,0,0,1-1.41.135c-.435-.208-1.171-.7-1.625-.855-1.082-.37-.924,1.071-2.007,2.684-.277.412-.959,1.225-1.394.994-.655-.347-.535-.886-.158-1.521a8.9,8.9,0,0,0,.967-1.86c.139-.431-.046-1.071-.5-1.028-.239.023-.408.239-.547.435-.439.628-.882,1.256-1.321,1.887-.4.57-.967,1.213-1.648,1.075-.751-.15-.986-1.159-.755-1.887s.751-1.348.94-2.091c.046-.173.169-.478.069-.628s-.22-.185-.531.231c-.316.443-.8.99-1.14.643s.3-1.413.35-1.633c-.4-.616-1.36.894-1.856,1.571s-1.406,1.325-2.107.863c-.755-.5-.131-1.529.439-2.23s1.363-1.933,1.2-2.823c-.039-.208-.447-.524-.693-.828-.512-.635,1.132-.316,1.76-.289a8.353,8.353,0,0,1,4.009,1.225,4.478,4.478,0,0,0,2.461,1.051,15.025,15.025,0,0,0,3.69-.3,3.223,3.223,0,0,1,1.329-.347Z" transform="translate(-3.381 -211.101)" fill="#ebedeb"/>
          <path id="Pfad_2034" data-name="Pfad 2034" d="M10.571,345.26c.135.728-.624,1.529-.736,2.261a.53.53,0,0,0,.142.5.51.51,0,0,0,.574-.05,2.629,2.629,0,0,0,.628-.72,1.561,1.561,0,0,1,.7-.628.622.622,0,0,1,.8.323c.042.135.023.3.108.408a.447.447,0,0,0,.547.042,1.423,1.423,0,0,1,.543-.227.767.767,0,0,1,.3.073,1.065,1.065,0,0,1,.651.786,2.227,2.227,0,0,1-.246.974.871.871,0,0,0,.119.947.726.726,0,0,0,.855-.046,3.855,3.855,0,0,0,.616-.682,1.135,1.135,0,0,1,.763-.47,1.012,1.012,0,0,1,.686.281,1.278,1.278,0,0,1,.474,1.152c-.039.2-.131.435,0,.589s.4.085.562-.054a3.386,3.386,0,0,0,.489-.674.915.915,0,0,1,.659-.462.842.842,0,0,1,.416.112c.37.193.659.512,1.032.689a.809.809,0,0,0,1.086-.25.982.982,0,0,0-.3-.955,1.537,1.537,0,0,1-.5-.9.365.365,0,0,1,.158-.327.427.427,0,0,1,.22-.035c.412.019.8.208,1.213.254a.879.879,0,0,0,1-.535c.081-.389-.25-.732-.566-.971a1.868,1.868,0,0,0-.566-.331,2.863,2.863,0,0,0-1.656.266,8.855,8.855,0,0,1-4.614-.246A7.159,7.159,0,0,1,15.558,346a15.946,15.946,0,0,1-1.433-.817,13.541,13.541,0,0,0-2.63-.847s-1.263-.489-1.429-.073c-.073.189.358.231.5.994Z" transform="translate(-6.038 -211.571)" fill="#fff"/>
          <path id="Pfad_2035" data-name="Pfad 2035" d="M39.609,318.371c.258.073.593-.1.778.089.123.127.089.339.169.5.143.273.528.254.824.331a1.31,1.31,0,0,1,.824.747,2.34,2.34,0,0,1,.162,1.128,2.056,2.056,0,0,0,.023.813.533.533,0,0,0,.628.381.507.507,0,0,0,.289-.485,3.108,3.108,0,0,0-.162-.859,13.273,13.273,0,0,0,.713-2.684c.031-.227.012-.531-.208-.6s-.4.169-.458.381-.035.84-.208.974c-.235.181-.639-.351-.816-.585-.27-.358-.316-.859-.751-1.078a3.339,3.339,0,0,0-1.051-.277,1.066,1.066,0,0,0-.982.462c-.127.25-.089.67.227.759Z" transform="translate(-24.169 -195)" fill="#fff"/>
          <path id="Pfad_2036" data-name="Pfad 2036" d="M217.633,314.99s9.162,8.384,21.183,25.149c8.8,12.282,25.858,49.721,11.419,70.276-3.4,4.849-8.461,6.216-17.339,8.523-4.283,1.113-10.456-2.218-13.052-.258-6.332,4.783-11,6.466-19.792,5.045-3.709,1.749-6.031-.3-8.392.813s-4.633,4.287-7.006,5.045c-10.63,3.385-20.2,5.561-31.828,1.687-19.365-6.128-29.84-33.222-30.033-51.666-.246-23.99,11.1-46.12,13.083-48.188,0,0,20.824,9.975,43.725,3.524A105.521,105.521,0,0,0,217.633,314.99Z" transform="translate(-75.495 -193.676)" fill="#fff"/>
          <path id="Pfad_2037" data-name="Pfad 2037" d="M259.782,340.139C247.758,323.371,238.6,314.99,238.6,314.99a105.564,105.564,0,0,1-38.032,19.95,61.136,61.136,0,0,1-41.641-3.362,7.692,7.692,0,0,0-1.841,1.887c-.816,1.3.79,3.786,7.013,6.609,5.715,2.43,16.676,2.8,20.936,2.661,6.594-.2,16.707-2.342,19.519-2.534,2.681.031,5.342,11.612,7.606,21.306,1.876,8.273,3.493,12.794,4.333,18.675,6.69-.678,17.285-2.426,20.936-7.241-.454-1.66-1.271-5.126-2.2-9.455,5.388.616,10.876-3.986,11.331-5.13,14.978,32.563,2.226,58.595-15.579,57.724-8.142-.451-17.793,2.118-24.641,7.807-4.556,4.3-10.275,8.531-17.158,8.5a125.012,125.012,0,0,1-17.9-2.461,17.024,17.024,0,0,0,2.515,1.34c11.627,3.874,21.2,1.7,31.828-1.687,2.372-.755,4.645-3.928,7.006-5.045s4.687.936,8.392-.813c3.713.6,6.89-2.939,9.548-1.529,6.016,3.189,6.929-3.874,10.245-3.512,2.989-1.286,8.7,1.49,10.641-1.456,5.041-7.664,16.349-1.964,19.754-6.813,14.439-20.551-2.611-57.994-11.419-70.276Z" transform="translate(-96.461 -193.676)" fill="#b5b9c6" opacity="0.5"/>
          <path id="Pfad_2038" data-name="Pfad 2038" d="M386.322,340.139c-12.024-16.769-21.183-25.149-21.183-25.149s-.851.759-2.449,2c1.945,1.679,10.915,11.9,17.239,23.062,9.078,16.029,18.009,45.184,15.54,56.2-1.664,7.429-2.792,16.245-10.915,21.587,6.374-1.764,10.352-3.385,13.187-7.422,14.439-20.551-2.611-57.994-11.419-70.276Z" transform="translate(-223.001 -193.676)" fill="#a1b9c6" opacity="0.58"/>
          <path id="Pfad_2039" data-name="Pfad 2039" d="M331.392,375.255s-5.966-20.1-10.892-29.382a20.245,20.245,0,0,0,8.893-5.273s13.041,14.72,14.893,27.464a13.969,13.969,0,0,1,1.044,3.8.243.243,0,0,1-.15.25.328.328,0,0,1-.065.015.237.237,0,0,1-.266-.216,13.95,13.95,0,0,0-.886-3.385c-.092.1-.208.223-.343.358a21.222,21.222,0,0,1,1.217,3.7.244.244,0,0,1-.146.285l-.031.012a.241.241,0,0,1-.293-.177,22.975,22.975,0,0,0-1.109-3.466c-.177.166-.374.347-.6.539a24.2,24.2,0,0,1,1.421,3.763.243.243,0,0,1-.15.254.286.286,0,0,1-.062.015.243.243,0,0,1-.27-.212,22.981,22.981,0,0,0-1.325-3.493c-.127.1-.262.212-.4.32a35.588,35.588,0,0,1,1.325,3.7.242.242,0,0,1-.143.3c-.008,0-.012,0-.019.008a.248.248,0,0,1-.3-.162c-.008-.027-.759-2.492-1.252-3.543-.2.15-.408.3-.628.451.262.632,1.152,2.811,1.336,3.528a.242.242,0,0,1-.146.285c-.008,0-.019.008-.031.008a.244.244,0,0,1-.3-.173c-.166-.647-.982-2.65-1.279-3.37-.185.123-.374.247-.574.37l1.348,3.4a.243.243,0,1,1-.451.181l-1.317-3.324c-.2.119-.412.239-.624.362.285.693,1.128,2.742,1.3,3.3a.242.242,0,0,1-.143.3.065.065,0,0,0-.019.008.244.244,0,0,1-.3-.162c-.158-.516-.963-2.476-1.267-3.2-.135.073-.277.143-.416.216.42,1.144,1.121,3.358,1.152,3.462a.238.238,0,0,1-.143.3.029.029,0,0,0-.015.008.245.245,0,0,1-.3-.158c-.008-.023-.709-2.238-1.125-3.389-.216.1-.435.208-.662.312,0,.008.008.012.012.019.012.031,1.032,2.993,1.24,3.516a.243.243,0,0,1-.451.181c-.2-.516-1.148-3.247-1.24-3.52-.143.062-.289.123-.435.185.246.867,1.2,3.5,1.209,3.528a.241.241,0,0,1-.139.308h-.008a.243.243,0,0,1-.312-.146c-.039-.108-.936-2.588-1.205-3.512-.15.058-.3.119-.458.177.381,1.283.971,3.216,1.09,3.424a.244.244,0,0,1-.089.331.115.115,0,0,1-.031.015.247.247,0,0,1-.3-.1c-.169-.3-.878-2.657-1.125-3.5-.154.054-.312.108-.47.158.37,1.067.882,3.455.905,3.563a.24.24,0,0,1-.146.277l-.039.012a.245.245,0,0,1-.289-.185c0-.027-.535-2.484-.894-3.512-.732.231-1.5.439-2.311.624Z" transform="translate(-197.06 -209.422)" fill="#ed1c24"/>
          <path id="Pfad_2040" data-name="Pfad 2040" d="M191.076,173.079c2.565-1.918,23.443-13.765,18.071-45.442-3.227-19.033-28.069-48.169-56.172-43.586-18.086,2.946-27.811,7.522-34.732,16.364-5.758,7.36-13.437,17-15.656,30.911-2.342,14.681,1.267,36.492,11.677,43.382,0,0,11.631,11.993,42.134,8.034C181.112,179.534,191.076,173.079,191.076,173.079Z" transform="translate(-62.652 -51.383)" fill="#fff"/>
          <g id="Gruppe_415" data-name="Gruppe 415" transform="translate(105.953 51.465)">
            <path id="Pfad_2041" data-name="Pfad 2041" d="M295.051,141.243c-.516-3.046-6.528-8.28-11.027-7.545-2.9.474-4.452,1.205-5.561,2.623-.92,1.179-2.742,3.543-3.2,5.75-.971,4.649,2.461,10.869,8.246,11.273,11.82.824,12-9.447,11.546-12.1Z" transform="translate(-275.096 -133.628)" fill="url(#radial-gradient)"/>
          </g>
          <g id="Gruppe_416" data-name="Gruppe 416" transform="translate(55.938 46.632)">
            <path id="Pfad_2042" data-name="Pfad 2042" d="M162.943,127.988c-.647-3.713-3.871-7.26-9.763-6.882a9.171,9.171,0,0,0-6.05,3.012,10.564,10.564,0,0,0-1.752,4.441c-.867,4.136,2.191,9.675,7.341,10.033C163.239,139.327,163.351,130.345,162.943,127.988Z" transform="translate(-145.231 -121.078)" fill="url(#radial-gradient-2)"/>
          </g>
          <path id="Pfad_2043" data-name="Pfad 2043" d="M229.294,129.305a54.415,54.415,0,0,0-17.547-30.715c-10.071-8.877-29.209-14.038-43.062-11.777-18.086,2.946-24.495,7.271-31.5,16.052a36.623,36.623,0,0,0-2.519,3.593c10.21-10.5,26.2-16.8,42.269-15.8,12.613.786,21.629,4.348,27.838,11.724,8.97,10.649,12.906,26.174,8.5,42.966-2.188,8.342-6.181,19.942-18,27.152-14.616,8.92-32.378,9.447-41.695,8.446-10.087-1.086-10.352-.243-11.685.031,4.479,3.289,11.08,6.5,34.647,3.435,24.714-3.208,34.678-9.663,34.678-9.663,2.565-1.918,23.443-13.765,18.071-45.442Z" transform="translate(-82.8 -53.052)" fill="#b5b9c6" opacity="0.5"/>
          <path id="Pfad_2044" data-name="Pfad 2044" d="M308.765,191.38c-.227-1.34-.531-2.727-.913-4.14-.062,1.063-.154,2.138-.293,3.216-.266,13.534-1.36,22.65-10.283,33.542-16.087,19.638-28.126,18.856-33.357,21.275,18.96-3.385,26.775-8.45,26.775-8.45,2.565-1.918,23.443-13.765,18.071-45.442Z" transform="translate(-162.271 -115.127)" fill="#a1b9c6" opacity="0.58"/>
          <path id="Pfad_2045" data-name="Pfad 2045" d="M229.288,127.66a54.415,54.415,0,0,0-17.547-30.715c-10.071-8.877-24.772-15.132-38.625-12.875-18.086,2.946-28.935,8.365-35.937,17.146a36.624,36.624,0,0,0-2.519,3.593,40.265,40.265,0,0,1,7.841-6.181c11.831-12.586,41.036-15,59.1-5.6a50.863,50.863,0,0,1,18.348,17.123,77.425,77.425,0,0,1,10.087,23.709c-.135-1.98-.377-4.044-.743-6.2Z" transform="translate(-82.794 -51.406)" fill="#a1b9c6" opacity="0.77"/>
          <path id="Pfad_2046" data-name="Pfad 2046" d="M350.839,380.04c.377.712.747,1.44,1.1,2.172-2.993,4.121-8.165,5.546-12.767,7.3q-.4-1.2-.84-2.469c4.5-1.633,9.378-3.189,12.513-7Z" transform="translate(-208.023 -233.673)" fill="#ed826d"/>
          <path id="Pfad_2047" data-name="Pfad 2047" d="M343.416,367.05c.377.713.92,1.4,1.271,2.138-2.992,4.121-8.165,5.546-12.767,7.3q-.4-1.2-.84-2.469c4.5-1.633,9.2-3.154,12.34-6.963Z" transform="translate(-203.565 -225.685)" fill="#ed826d"/>
          <path id="Pfad_2048" data-name="Pfad 2048" d="M356.5,394.91c.285.743.547,1.49.778,2.238-3.123,3.443-9.008,6.239-13.333,6.852-.212-.659-.439-1.375-.686-2.134,3.971-1.333,9.682-3.4,13.241-6.952Z" transform="translate(-211.054 -242.816)" fill="#ed826d"/>
          <path id="Pfad_2049" data-name="Pfad 2049" d="M359.1,255.651c.212.535.674,2.954,2.342,3.408,0,0,8.962-6.151,10.934-7.429s9.2-8.354,10.922-10.275,12.12-11,13.106-11.635,6.085-3.4,6.47-3.678,9.559-5.893,11.466-7.021,10.337-8.307,12.594-11.681l-.4-.273s-5.068,5.542-8.477,7.884a70,70,0,0,1-8.55,5l-2.785,1.1s-1.078-10.229-.816-12.066,1.826-9.147,3.247-11.816l-.6-.878s-1.9,4.591-2.565,6.343a59.643,59.643,0,0,0-1.541,7.052s-4.606-4.741-5.149-8.615l-.643.254a20.454,20.454,0,0,0,2.08,5.246,49.7,49.7,0,0,0,3.47,4.695l.139,10.352s-4.78,2.638-6.062,3.147-5.122,3.019-7.029,4.148-11.284,10.295-11.412,9.971a47.676,47.676,0,0,1-.343-6.8c.131-1.537,2.854-9.678,2.854-9.678s-.273-1.005-1.024-.709c0,0-3.193,8.823-3.5,10.557S376.705,241,376.705,241s-4.225,3.408-7.229,5.839-10.052,6.212-10.052,6.212a5.769,5.769,0,0,0-.331,2.607Z" transform="translate(-220.74 -120.691)" fill="#c49a6c"/>
          <path id="Pfad_2050" data-name="Pfad 2050" d="M359.1,255.651c.212.535.674,2.954,2.342,3.408,0,0,8.962-6.151,10.934-7.429s9.2-8.354,10.922-10.275,12.12-11,13.106-11.635,6.085-3.4,6.47-3.678,9.559-5.893,11.466-7.021,10.337-8.307,12.594-11.681l-.4-.273s-5.068,5.542-8.477,7.884a70,70,0,0,1-8.55,5l-2.785,1.1s-1.078-10.229-.816-12.066,1.826-9.147,3.247-11.816l-.6-.878s-1.9,4.591-2.565,6.343a59.643,59.643,0,0,0-1.541,7.052s-4.606-4.741-5.149-8.615l-.643.254a20.454,20.454,0,0,0,2.08,5.246,49.7,49.7,0,0,0,3.47,4.695l.139,10.352s-4.78,2.638-6.062,3.147-5.122,3.019-7.029,4.148-11.284,10.295-11.412,9.971a47.676,47.676,0,0,1-.343-6.8c.131-1.537,2.854-9.678,2.854-9.678s-.273-1.005-1.024-.709c0,0-3.193,8.823-3.5,10.557S376.705,241,376.705,241s-4.225,3.408-7.229,5.839-10.052,6.212-10.052,6.212a5.769,5.769,0,0,0-.331,2.607Z" transform="translate(-220.74 -120.691)" fill="#603913"/>
          <path id="Pfad_2051" data-name="Pfad 2051" d="M404.96,281.408s.813-7.013,1.121-8.746,3.5-10.557,3.5-10.557c.3-.119.058-.116.22.031-1,3.566-2.469,6.9-3.177,10.426-.52,2.6-.246,5.219-.524,7.907-.458.408-1.14.932-1.14.932Z" transform="translate(-248.991 -161.106)" fill="#c49a6c" opacity="0.5"/>
          <path id="Pfad_2052" data-name="Pfad 2052" d="M479.5,209.2c.15-1.044,1.021-4.471,1.745-7.19.782-1.937,1.818-4.3,1.818-4.3l.142.327c-1.421,2.669-2.985,9.979-3.247,11.816-.189,1.309.512,8.927.813,12.024l-.878.347s-.651-11.188-.389-13.025Z" transform="translate(-294.786 -121.565)" fill="#c49a6c" opacity="0.5"/>
          <path id="Pfad_2053" data-name="Pfad 2053" d="M464.415,214.549a25.443,25.443,0,0,0,3.189,4.005l-.089.689c-.7-.863-2.515-3.15-3.485-4.706a20.51,20.51,0,0,1-2.08-5.246l.1-.042A21.211,21.211,0,0,0,464.415,214.549Z" transform="translate(-284.032 -128.66)" fill="#c49a6c" opacity="0.5"/>
          <path id="Pfad_2054" data-name="Pfad 2054" d="M464.429,214.69a23.719,23.719,0,0,0,3.285,4.021l-.089.689c-.7-.863-2.515-3.15-3.485-4.706a20.508,20.508,0,0,1-2.08-5.246l.1-.039a20.314,20.314,0,0,0,2.265,5.284Z" transform="translate(-284.1 -128.758)" fill="#c49a6c" opacity="0.5"/>
          <path id="Pfad_2055" data-name="Pfad 2055" d="M359.114,273.292a1.822,1.822,0,0,1-.069-.766,3.282,3.282,0,0,0,1.933,2.18s8.962-6.151,10.934-7.429,9.2-8.354,10.922-10.275,11.866-10.214,12.852-10.853,5.989-3.343,6.374-3.62c.208-.15,3.944-1.737,6.751-3.455.481-.193,5.427-3.347,8.835-5.688s9.3-8.4,9.3-8.4c-2.257,3.374-10.688,10.553-12.594,11.681s-11.08,6.744-11.466,7.021-5.484,3.043-6.47,3.678S385.033,257.077,383.316,259s-8.951,9-10.922,10.275-10.934,7.429-10.934,7.429c-1.668-.454-2.13-2.873-2.342-3.409Z" transform="translate(-220.753 -138.332)" fill="#c49a6c" opacity="0.5"/>
          <circle id="Ellipse_256" data-name="Ellipse 256" cx="6.135" cy="6.135" r="6.135" transform="matrix(0.773, -0.634, 0.634, 0.773, 82.073, 156.895)" fill="#a1b9c6" opacity="0.6"/>
          <circle id="Ellipse_257" data-name="Ellipse 257" cx="6.135" cy="6.135" r="6.135" transform="matrix(0.776, -0.631, 0.631, 0.776, 81.286, 156.517)" fill="#414042"/>
          <path id="Pfad_2056" data-name="Pfad 2056" d="M218.771,402.46a5.8,5.8,0,0,0,10.626,4.595,5.794,5.794,0,1,1-10.626-4.591Z" transform="translate(-134.145 -247.458)" fill="#414042" opacity="0.5"/>
          <circle id="Ellipse_258" data-name="Ellipse 258" cx="4.968" cy="4.968" r="4.968" transform="translate(84.152 161.387) rotate(-79.6)" fill="#231f20"/>
          <circle id="Ellipse_259" data-name="Ellipse 259" cx="4.495" cy="4.495" r="4.495" transform="translate(84.017 155.057) rotate(-23.52)" fill="#414042"/>
          <path id="Pfad_2057" data-name="Pfad 2057" d="M234.47,404.814a.688.688,0,1,0,.385-.894A.684.684,0,0,0,234.47,404.814Z" transform="translate(-144.133 -248.325)"/>
          <path id="Pfad_2058" data-name="Pfad 2058" d="M228.34,405.414a.688.688,0,1,0,.385-.894A.684.684,0,0,0,228.34,405.414Z" transform="translate(-140.364 -248.694)"/>
          <path id="Pfad_2059" data-name="Pfad 2059" d="M234.84,410.474a.688.688,0,1,0,.385-.893A.684.684,0,0,0,234.84,410.474Z" transform="translate(-144.36 -251.805)"/>
          <path id="Pfad_2060" data-name="Pfad 2060" d="M228.71,411.084a.688.688,0,1,0,.385-.894A.684.684,0,0,0,228.71,411.084Z" transform="translate(-140.591 -252.18)"/>
          <path id="Pfad_2061" data-name="Pfad 2061" d="M231.4,408.286l1.321-1.6s.169-.535-.312-.393l-1.286,1.583s-.143.231,0,.377A.2.2,0,0,0,231.4,408.286Z" transform="translate(-142.064 -249.799)" fill="#fff"/>
          <path id="Pfad_2062" data-name="Pfad 2062" d="M230.619,407.03l1.591,1.333s.531.173.4-.312l-1.571-1.3s-.231-.142-.377,0a.2.2,0,0,0-.039.277Z" transform="translate(-141.772 -250.056)" fill="#fff"/>
          <path id="Pfad_2063" data-name="Pfad 2063" d="M229.129,469.253a6.136,6.136,0,1,0,3.443-7.965A6.136,6.136,0,0,0,229.129,469.253Z" transform="translate(-140.613 -283.363)" fill="#a1b9c6" opacity="0.6"/>
          <circle id="Ellipse_260" data-name="Ellipse 260" cx="6.135" cy="6.135" r="6.135" transform="translate(85.909 187.981) rotate(-76.9)" fill="#414042"/>
          <path id="Pfad_2064" data-name="Pfad 2064" d="M227.48,469.94a5.8,5.8,0,0,0,10.626,4.595,5.793,5.793,0,1,1-10.622-4.591Z" transform="translate(-139.503 -288.949)" fill="#414042" opacity="0.5"/>
          <path id="Pfad_2065" data-name="Pfad 2065" d="M229.638,470.039a4.969,4.969,0,1,0,2.788-6.451A4.966,4.966,0,0,0,229.638,470.039Z" transform="translate(-140.976 -284.827)" fill="#231f20"/>
          <circle id="Ellipse_261" data-name="Ellipse 261" cx="4.495" cy="4.495" r="4.495" transform="translate(87.538 180.644) rotate(-19.45)" fill="#414042"/>
          <path id="Pfad_2066" data-name="Pfad 2066" d="M243.17,472.294a.688.688,0,1,0,.385-.893A.684.684,0,0,0,243.17,472.294Z" transform="translate(-149.482 -289.816)"/>
          <path id="Pfad_2067" data-name="Pfad 2067" d="M237.04,472.894a.688.688,0,1,0,.385-.894A.684.684,0,0,0,237.04,472.894Z" transform="translate(-145.713 -290.185)"/>
          <path id="Pfad_2068" data-name="Pfad 2068" d="M243.54,477.954a.688.688,0,1,0,.385-.894A.684.684,0,0,0,243.54,477.954Z" transform="translate(-149.71 -293.296)"/>
          <path id="Pfad_2069" data-name="Pfad 2069" d="M237.41,478.554a.688.688,0,1,0,.385-.893A.684.684,0,0,0,237.41,478.554Z" transform="translate(-145.94 -293.665)"/>
          <path id="Pfad_2070" data-name="Pfad 2070" d="M240.1,475.766l1.321-1.6s.169-.535-.312-.393l-1.286,1.583s-.143.231,0,.377A.2.2,0,0,0,240.1,475.766Z" transform="translate(-147.413 -291.29)" fill="#fff"/>
          <path id="Pfad_2071" data-name="Pfad 2071" d="M239.319,474.51l1.591,1.333s.531.173.4-.312l-1.571-1.3s-.231-.142-.377,0a.2.2,0,0,0-.039.277Z" transform="translate(-147.121 -291.547)" fill="#fff"/>
          <path id="Pfad_2072" data-name="Pfad 2072" d="M452.476,249.354c.562-.867,2.022-2.041,2.966-1.96,1.225.108.947,1.263.847,1.956-.1.713-.574,1.633.169,2.091.478.293,1.2.451,1.244,1.009a1.44,1.44,0,0,1-.782,1.344c-.462.254-1.371.593-1.8.9-1.021.728.362,1.506,1.105,3.5.189.508.481,1.637-.008,1.879-.724.362-1.132-.089-1.456-.832a9.494,9.494,0,0,0-1.04-2.049c-.3-.4-.986-.643-1.236-.216a.94.94,0,0,0,.039.766c.277.793.555,1.591.836,2.384.254.72.462,1.637-.1,2.157-.616.574-1.664.139-2.164-.535s-.72-1.533-1.263-2.176c-.127-.15-.32-.454-.516-.462s-.3.077-.135.62c.189.562.366,1.352-.154,1.429S447.958,260,447.8,259.81c-.8-.039-.073,1.783.216,2.657s.281,2.1-.582,2.426c-.924.354-1.444-.859-1.706-1.814s-.851-2.449-1.745-2.873c-.208-.1-.751.066-1.178.089-.89.05.443-1.209.867-1.752a9.14,9.14,0,0,1,3.655-2.788,4.944,4.944,0,0,0,2.511-1.517c.682-1.082,1.879-2.519,2.091-3.478a3.5,3.5,0,0,1,.539-1.4Z" transform="translate(-272.074 -152.111)" fill="#ebedeb"/>
          <path id="Pfad_2073" data-name="Pfad 2073" d="M445.662,262.828c.736.347.963,1.533,1.544,2.1a.579.579,0,0,0,.539.193.561.561,0,0,0,.323-.543,2.882,2.882,0,0,0-.239-1.021,1.707,1.707,0,0,1-.108-1.032.686.686,0,0,1,.8-.5c.146.05.277.169.431.166.22,0,.35-.247.389-.458a1.507,1.507,0,0,1,.146-.632.759.759,0,0,1,.258-.223,1.158,1.158,0,0,1,1.117-.077,2.459,2.459,0,0,1,.713.843.948.948,0,0,0,.92.5.791.791,0,0,0,.5-.793,4.039,4.039,0,0,0-.216-.986,1.245,1.245,0,0,1,.069-.978,1.1,1.1,0,0,1,.689-.431,1.408,1.408,0,0,1,1.333.312c.154.162.3.4.528.377s.335-.3.312-.535a3.757,3.757,0,0,0-.289-.867,1,1,0,0,1,.012-.882.888.888,0,0,1,.366-.3c.4-.2.878-.258,1.275-.481s.7-.739.47-1.128a1.072,1.072,0,0,0-1.04-.343,1.665,1.665,0,0,1-1.125-.127.4.4,0,0,1-.193-.35.49.49,0,0,1,.108-.22c.281-.354.7-.582,1-.917a.961.961,0,0,0,.162-1.229c-.293-.32-.813-.243-1.229-.116a2.114,2.114,0,0,0-.659.293,3.141,3.141,0,0,0-.824,1.645,9.687,9.687,0,0,1-3.17,3.951,7.661,7.661,0,0,1-1.059.813,16.73,16.73,0,0,1-1.644.755,14.868,14.868,0,0,0-2.438,1.8s-1.244.813-.978,1.225c.119.185.435-.173,1.205.193Z" transform="translate(-273.256 -154.966)" fill="#fff"/>
          <path id="Pfad_2074" data-name="Pfad 2074" d="M521.065,228.033s1.063-.466.655.189-1.186.381-1.082.874-.582.674-.4,1.232a4.182,4.182,0,0,1,.351,1.109c.181.909,1,1.745.431,1.879-.285.069-.139.1-.639-.374-.393-.37-.143-.724-.412-1.04s-.447-1.032-1.186-.512c-.52.832-1.086.52-1.329.928s-.069.739-.6.951a.507.507,0,0,1-.709-.435c-.108-.493-.809.1-.15-.832s-.323-.139.659-.928,1.456-.042,2.06-1.44,1.541-1.86,2.353-1.6Z" transform="translate(-317.085 -140.11)" fill="#fff"/>
          <g id="Gruppe_417" data-name="Gruppe 417" transform="translate(74.316 54.077)">
            <path id="Pfad_2075" data-name="Pfad 2075" d="M193.371,147.666c-1.46,4.756.955,8.646,6.251,10.272s31.766,11.65,48.527,16.4c-7.083-6.7-38.059-30.276-46.27-33.407-5.176-1.976-7.048,1.983-8.508,6.74Z" transform="translate(-192.951 -140.41)" opacity="0.6" fill="url(#linear-gradient)"/>
          </g>
          <path id="Pfad_2076" data-name="Pfad 2076" d="M110.236,156.944s11.989,1.39,11.989-9.5c0-8.635-10.087-9.424-16.156-9.147-2.708.123-53.958,3.978-54.389,5.219,8.277,2.126,31.658,10.295,58.56,13.426Z" transform="translate(-31.772 -85.008)" fill="#f06500"/>
          <path id="Pfad_2077" data-name="Pfad 2077" d="M84.327,150.113c13.765,2.1,26.047,5.6,31.485-.381,2.708-4.433,1.937-8.523-3.324-10.792,5.061.674,10.033,2.865,10.033,8.927,0,10.888-11.989,9.5-11.989,9.5-26.9-3.131-54.766-12.409-58.371-13.484.069-.327,18.571,4.156,32.163,6.232Z" transform="translate(-32.067 -85.429)" fill="#de3500" opacity="0.7"/>
          <path id="Pfad_2078" data-name="Pfad 2078" d="M90.252,144.593s22.126,2.815,37.143,3.212c7.294.193,7.063-3.274,4.83-5.554s-11.215-.666-18.5-.289C105.314,142.4,89.131,144.031,90.252,144.593Z" transform="translate(-55.455 -86.73)" fill="#ffa840" opacity="0.38"/>
          <path id="Pfad_2079" data-name="Pfad 2079" d="M108.171,147.356c-.058-.913-1.321-1.04-2.157-.674-1.768.72-3.62.223-3.062-1.483.223-.293-2.057-.116-2.523-.978,3.794-.37,8.227-.755,12.421-1.1.508.674,1.467.793,2.738,1.679.913.678,1.075,2.018-.47,2.2-2.384.35-4.371-1.937-4.429,2.13-.25,1.121-.936,1.248-1.236,1.29-1.325-.289-1.213-1.964-1.286-3.062Z" transform="translate(-61.747 -87.999)" fill="#c85b23" opacity="0.46"/>
          <path id="Pfad_2080" data-name="Pfad 2080" d="M113.352,142.536s3.3.913,2.75,2.134-2.592.693-3.871.466-1.533,1.209-1.541,2.2-1.078,1.956-1.625,1.148c-.782-1.155.143-2.068-.57-2.692s-.9-1.433-2.18-.716c-1.783,1-3.493.2-2.919-1.175.308-.693-1.56.023-2.6-.974-1.109-1.591,4.329-.859,5.1-1.051,1.448-.732,5.692-1.46,7.456.662Z" transform="translate(-61.879 -86.776)" fill="#ebedeb"/>
          <path id="Pfad_2081" data-name="Pfad 2081" d="M102,143.306c-.069.058.362.412,1.128.52s1.849-.108,1.876.389.22.882,1.044.824,1.883-.478,2.388-.042,1.252,1.294,2.03.824.936-1.024,1.791-.932,2.349.647,2.738.254.678-.72-.223-1.2a10.235,10.235,0,0,1-1.764-1.009,6.335,6.335,0,0,0-3.666-.593,7.892,7.892,0,0,1-2.831.747c-1.244-.019-3.559-.543-4.506.216Z" transform="translate(-62.707 -87.465)" fill="#fff"/>
          <path id="Pfad_2082" data-name="Pfad 2082" d="M194.666,168.967s2.642-5.8.6-10.557c0,0,.686,7.668-1.691,10.364Z" transform="translate(-119.021 -97.4)" fill="#b44100"/>
          <path id="Pfad_2083" data-name="Pfad 2083" d="M179.632,169.544s2.018-4.818,1.017-8.7c0,0-.308,5.8-1.9,8.538l.886.166Z" transform="translate(-109.903 -98.895)" fill="#b44100"/>
          <g id="Gruppe_419" data-name="Gruppe 419" transform="translate(102.012 41.68)" opacity="0.59">
            <g id="Gruppe_418" data-name="Gruppe 418">
              <path id="Pfad_2084" data-name="Pfad 2084" d="M265.062,116.055a6.268,6.268,0,1,0,4.506-7.633A6.268,6.268,0,0,0,265.062,116.055Z" transform="translate(-264.863 -108.222)" fill="url(#radial-gradient-3)"/>
            </g>
          </g>
          <path id="Pfad_2085" data-name="Pfad 2085" d="M271.993,119.484a3.7,3.7,0,1,0,2.657-4.5A3.7,3.7,0,0,0,271.993,119.484Z" transform="translate(-167.162 -70.626)"/>
          <path id="Pfad_2086" data-name="Pfad 2086" d="M274.763,123.318a.786.786,0,1,1,.7-.859.786.786,0,0,1-.7.859" transform="translate(-168.407 -74.86)" fill="#fff"/>
          <g id="Gruppe_421" data-name="Gruppe 421" transform="translate(73.165 38.157)" opacity="0.59">
            <g id="Gruppe_420" data-name="Gruppe 420" transform="translate(0 0)">
              <circle id="Ellipse_262" data-name="Ellipse 262" cx="6.266" cy="6.266" r="6.266" transform="translate(0 11.666) rotate(-68.57)" fill="url(#radial-gradient-4)"/>
            </g>
          </g>
          <path id="Pfad_2087" data-name="Pfad 2087" d="M200.5,114.825a3.7,3.7,0,1,0,2.657-4.5,3.7,3.7,0,0,0-2.657,4.5Z" transform="translate(-123.206 -67.761)"/>
          <path id="Pfad_2088" data-name="Pfad 2088" d="M203.273,118.658a.786.786,0,1,1,.7-.859.786.786,0,0,1-.7.859" transform="translate(-124.451 -71.994)" fill="#fff"/>
          <circle id="Ellipse_263" data-name="Ellipse 263" cx="13.772" cy="13.772" r="13.772" transform="matrix(0.607, -0.795, 0.795, 0.607, 148.285, 79.581)" fill="#fff"/>
          <path id="Pfad_2089" data-name="Pfad 2089" d="M411.636,164.217a13.708,13.708,0,0,1,8.866,2.053,14.557,14.557,0,0,0-12.247,19.885,23.15,23.15,0,0,0,3.093,5.411,13.774,13.774,0,0,1,.285-27.349Z" transform="translate(-245.549 -100.92)" fill="#cfdbe2" opacity="0.49"/>
          <path id="Pfad_2090" data-name="Pfad 2090" d="M155.28,45.643A47.119,47.119,0,0,1,176.147,21.3c10.487-5.9,19.854-9.228,41.083-9.336,14.081-.073,27.553,11.254,35.406,21.768,8.646,11.581,12.544,29.432,10.857,40.67a3.359,3.359,0,0,1-3.69.377c.512-5.192-4.367-11.762-6.986-10.5,0,0-2.638,16.638-10.272,20.2,0,0-7.16-35.475-36.588-43.447-31.966-8.658-50.672,4.614-50.672,4.614Z" transform="translate(-95.472 -7.353)" fill="#ed1c24"/>
          <path id="Pfad_2091" data-name="Pfad 2091" d="M172.66,41.85c-.185,1.625-3.2,5.8-2.935,7.468.27,2.831,3.971,2.207,7.121,1.625,9.548-1.394,23.012-1.348,32.69,1.152a50.094,50.094,0,0,1,29.79,20.6c4.464,6.309,7.175,12.24,7.514,18.525,1.306-.412,2.361-6.428,2.084-8.631.539-12.163-6.99-20.543-9.393-25.542,5.507-1.232,11.165,9.2,14.219,15.3.031.054.062.1.092.158a3.986,3.986,0,0,0,7.418-2.353c0-.046-.008-.089-.012-.135,2.392,8.153,3.193,16.488,2.249,22.758a3.359,3.359,0,0,1-3.69.377c.512-5.192-4.367-11.762-6.986-10.5,0,0-2.638,16.638-10.272,20.2,0,0-7.16-35.475-36.588-43.447C174,50.751,155.29,64.022,155.29,64.022A47.018,47.018,0,0,1,172.664,41.85Z" transform="translate(-95.478 -25.732)" fill="#da1c24"/>
          <path id="Pfad_2092" data-name="Pfad 2092" d="M220.574,82.646c10.268,9.983,13.838,19.465,14.281,28.854.312,6.621-2.311,9.548-3.42,10.121-2.461-10.7-5.677-16.26-9.444-22.349-6.455-10.437-19.087-19.357-33.634-22.041-7.422-1.367-22.442-.928-33.438,3.328-10.618,4.106-16.253,13.511-16.958,14.5-2.2-7.187,4.075-14.839,7.294-17.959,2.107-2.041,14.042-7.506,26.617-8.7,24.083-2.3,41.225,6.99,48.7,14.254Z" transform="translate(-84.543 -41.833)" fill="#fff"/>
          <path id="Pfad_2093" data-name="Pfad 2093" d="M394.72,115.012s2.827,1.04,2.7.042a42.6,42.6,0,0,0-2.7-9c-1.783-4.29-6.52-10.618-6.682-9.343s4.618,4.76,6.686,18.3Z" transform="translate(-238.581 -59.363)" fill="#da1c24"/>
          <circle id="Ellipse_264" data-name="Ellipse 264" cx="0.878" cy="0.878" r="0.878" transform="translate(91.066 7.479)" fill="#fff"/>
          <path id="Pfad_2094" data-name="Pfad 2094" d="M247.05,27.456a.88.88,0,1,0,.894-.867A.881.881,0,0,0,247.05,27.456Z" transform="translate(-151.898 -16.349)" fill="#fff"/>
          <path id="Pfad_2095" data-name="Pfad 2095" d="M227.334,23.759a2.186,2.186,0,1,0,2.218-2.149,2.189,2.189,0,0,0-2.218,2.149Z" transform="translate(-139.773 -13.287)" fill="#fff"/>
          <path id="Pfad_2096" data-name="Pfad 2096" d="M145.39,94.819a2.188,2.188,0,1,0,2.222-2.149,2.189,2.189,0,0,0-2.222,2.149Z" transform="translate(-89.391 -56.979)" fill="#fff"/>
          <path id="Pfad_2097" data-name="Pfad 2097" d="M116.95,140.474a.836.836,0,1,0,.847-.824A.835.835,0,0,0,116.95,140.474Z" transform="translate(-71.904 -85.865)" fill="#fff"/>
          <path id="Pfad_2098" data-name="Pfad 2098" d="M129.62,143.5a.464.464,0,1,0,.47-.458A.462.462,0,0,0,129.62,143.5Z" transform="translate(-79.695 -87.95)" fill="#fff"/>
          <path id="Pfad_2099" data-name="Pfad 2099" d="M105.4,143.058a.464.464,0,1,0,.47-.458A.462.462,0,0,0,105.4,143.058Z" transform="translate(-64.803 -87.679)" fill="#fff"/>
          <path id="Pfad_2100" data-name="Pfad 2100" d="M107.77,142.668a.464.464,0,1,0,.47-.458A.462.462,0,0,0,107.77,142.668Z" transform="translate(-66.26 -87.439)" fill="#fff"/>
          <path id="Pfad_2101" data-name="Pfad 2101" d="M120.55,138.784a1.192,1.192,0,1,0,1.209-1.175A1.189,1.189,0,0,0,120.55,138.784Z" transform="translate(-74.118 -84.611)" fill="#fff"/>
          <path id="Pfad_2102" data-name="Pfad 2102" d="M64.3,145.664a1.192,1.192,0,1,0,1.209-1.175A1.189,1.189,0,0,0,64.3,145.664Z" transform="translate(-39.532 -88.841)" fill="#fff"/>
          <path id="Pfad_2103" data-name="Pfad 2103" d="M73.34,146.364a1.192,1.192,0,1,0,1.209-1.175A1.189,1.189,0,0,0,73.34,146.364Z" transform="translate(-45.09 -89.272)" fill="#fff"/>
          <path id="Pfad_2104" data-name="Pfad 2104" d="M60.59,146.427a.861.861,0,1,0,.874-.847.861.861,0,0,0-.874.847Z" transform="translate(-37.251 -89.512)" fill="#fff"/>
          <path id="Pfad_2105" data-name="Pfad 2105" d="M62.43,148.807a.861.861,0,1,0,.874-.847A.861.861,0,0,0,62.43,148.807Z" transform="translate(-38.382 -90.975)" fill="#fff"/>
          <path id="Pfad_2106" data-name="Pfad 2106" d="M58.35,148.165a.543.543,0,1,0,.551-.535A.542.542,0,0,0,58.35,148.165Z" transform="translate(-35.873 -90.772)" fill="#fff"/>
          <path id="Pfad_2107" data-name="Pfad 2107" d="M56.11,149.345a.543.543,0,1,0,.551-.535A.542.542,0,0,0,56.11,149.345Z" transform="translate(-34.496 -91.498)" fill="#fff"/>
          <path id="Pfad_2108" data-name="Pfad 2108" d="M71.26,147.165a.543.543,0,1,0,.551-.535A.542.542,0,0,0,71.26,147.165Z" transform="translate(-43.811 -90.157)" fill="#fff"/>
          <path id="Pfad_2109" data-name="Pfad 2109" d="M206.07,32.736a.88.88,0,1,0,.894-.867A.881.881,0,0,0,206.07,32.736Z" transform="translate(-126.701 -19.595)" fill="#fff"/>
          <path id="Pfad_2110" data-name="Pfad 2110" d="M367.48,37.976a.88.88,0,1,0,.894-.867A.881.881,0,0,0,367.48,37.976Z" transform="translate(-225.946 -22.817)" fill="#fff"/>
          <path id="Pfad_2111" data-name="Pfad 2111" d="M335.21,13.816a.88.88,0,1,0,.893-.867.881.881,0,0,0-.893.867Z" transform="translate(-206.104 -7.962)" fill="#fff"/>
          <path id="Pfad_2112" data-name="Pfad 2112" d="M423.11,188.146a.88.88,0,1,0,.893-.867A.881.881,0,0,0,423.11,188.146Z" transform="translate(-260.151 -115.151)" fill="#fff"/>
          <path id="Pfad_2113" data-name="Pfad 2113" d="M405.24,74.6a.88.88,0,1,0,.894-.867A.881.881,0,0,0,405.24,74.6Z" transform="translate(-249.163 -45.334)" fill="#fff"/>
          <path id="Pfad_2114" data-name="Pfad 2114" d="M436.84,173.136a.88.88,0,1,0,.893-.867A.881.881,0,0,0,436.84,173.136Z" transform="translate(-268.593 -105.922)" fill="#fff"/>
          <path id="Pfad_2115" data-name="Pfad 2115" d="M415.77,176.376a.88.88,0,1,0,.893-.867A.881.881,0,0,0,415.77,176.376Z" transform="translate(-255.638 -107.914)" fill="#fff"/>
          <path id="Pfad_2116" data-name="Pfad 2116" d="M411.99,168.386a.88.88,0,1,0,.894-.867A.881.881,0,0,0,411.99,168.386Z" transform="translate(-253.314 -103.002)" fill="#fff"/>
          <path id="Pfad_2117" data-name="Pfad 2117" d="M407.89,223a.88.88,0,1,0,.893-.867A.881.881,0,0,0,407.89,223Z" transform="translate(-250.793 -136.579)" fill="#fff"/>
          <path id="Pfad_2118" data-name="Pfad 2118" d="M203.26,37.02a1.737,1.737,0,1,0,1.764-1.71A1.738,1.738,0,0,0,203.26,37.02Z" transform="translate(-124.973 -21.71)" fill="#fff"/>
          <path id="Pfad_2119" data-name="Pfad 2119" d="M240.44,20.686a.951.951,0,1,0,.967-.936A.953.953,0,0,0,240.44,20.686Z" transform="translate(-147.834 -12.143)" fill="#fff"/>
          <circle id="Ellipse_265" data-name="Ellipse 265" cx="1.737" cy="1.737" r="1.737" transform="translate(137.036 42.422) rotate(-8.99)" fill="#fff"/>
          <path id="Pfad_2120" data-name="Pfad 2120" d="M326.7,11.7a1.737,1.737,0,1,0,1.764-1.71A1.738,1.738,0,0,0,326.7,11.7Z" transform="translate(-200.872 -6.142)" fill="#fff"/>
          <path id="Pfad_2121" data-name="Pfad 2121" d="M247.61,1.567A1.591,1.591,0,1,0,249.223,0,1.591,1.591,0,0,0,247.61,1.567Z" transform="translate(-152.242 0)" fill="#fff" opacity="0.48"/>
          <path id="Pfad_2122" data-name="Pfad 2122" d="M417.31,204.641a1.749,1.749,0,1,0,1.776-1.722A1.747,1.747,0,0,0,417.31,204.641Z" transform="translate(-256.585 -124.768)" fill="#fff"/>
          <path id="Pfad_2123" data-name="Pfad 2123" d="M409.63,226.551a1.749,1.749,0,1,0,1.775-1.722A1.747,1.747,0,0,0,409.63,226.551Z" transform="translate(-251.862 -138.239)" fill="#fff"/>
          <path id="Pfad_2124" data-name="Pfad 2124" d="M158.49,87.8a.884.884,0,1,0,.9-.87A.883.883,0,0,0,158.49,87.8Z" transform="translate(-97.446 -53.45)" fill="#fff"/>
          <path id="Pfad_2125" data-name="Pfad 2125" d="M153.56,89.081a1.271,1.271,0,1,0,1.29-1.252A1.272,1.272,0,0,0,153.56,89.081Z" transform="translate(-94.414 -54.003)" fill="#fff"/>
          <path id="Pfad_2126" data-name="Pfad 2126" d="M245.09,67.209a1.329,1.329,0,1,0,1.348-1.309A1.327,1.327,0,0,0,245.09,67.209Z" transform="translate(-150.693 -40.519)" fill="#fff"/>
          <path id="Pfad_2127" data-name="Pfad 2127" d="M208.92,33.738a1.2,1.2,0,1,0,1.213-1.179A1.191,1.191,0,0,0,208.92,33.738Z" transform="translate(-128.453 -20.02)" fill="#fff"/>
          <path id="Pfad_2128" data-name="Pfad 2128" d="M407.54,70.371a1.749,1.749,0,1,0,1.776-1.722A1.747,1.747,0,0,0,407.54,70.371Z" transform="translate(-250.577 -42.21)" fill="#fff"/>
          <path id="Pfad_2129" data-name="Pfad 2129" d="M331.392,375.255s-5.966-20.1-10.892-29.382a20.245,20.245,0,0,0,8.893-5.273s.82.924,2.076,2.511c-1.44,1.56-2.735,3.385-3.978,5.011-1.221,1.525.324,3.782,3.474,10.745,3.543,6.678,5.23,11.223,5.7,14.651a29.028,29.028,0,0,1-5.269,1.741Z" transform="translate(-197.06 -209.422)" fill="#918fa9" opacity="0.5"/>
          <path id="Pfad_2130" data-name="Pfad 2130" d="M353.237,421.738a.52.52,0,1,1,.6.424A.515.515,0,0,1,353.237,421.738Z" transform="translate(-217.184 -258.937)" fill="#ed826d"/>
          <path id="Pfad_2131" data-name="Pfad 2131" d="M359.847,418.95a.52.52,0,1,1,.6.424A.515.515,0,0,1,359.847,418.95Z" transform="translate(-221.248 -257.223)" fill="#ed826d"/>
          <path id="Pfad_2132" data-name="Pfad 2132" d="M366.537,415.528a.52.52,0,1,1,.6.424A.515.515,0,0,1,366.537,415.528Z" transform="translate(-225.361 -255.119)" fill="#ed826d"/>
          <path id="Pfad_2133" data-name="Pfad 2133" d="M372.647,411.768a.52.52,0,1,1,.6.424A.515.515,0,0,1,372.647,411.768Z" transform="translate(-229.118 -252.807)" fill="#ed826d"/>
          <path id="Pfad_2134" data-name="Pfad 2134" d="M378.127,407.078a.52.52,0,1,1,.6.424A.515.515,0,0,1,378.127,407.078Z" transform="translate(-232.488 -249.923)" fill="#ed826d"/>
          <path id="Pfad_2135" data-name="Pfad 2135" d="M347.667,405.808a.52.52,0,1,1,.6.424A.515.515,0,0,1,347.667,405.808Z" transform="translate(-213.759 -249.142)" fill="#ed826d"/>
          <path id="Pfad_2136" data-name="Pfad 2136" d="M354.287,403.018a.52.52,0,1,1,.6.424A.515.515,0,0,1,354.287,403.018Z" transform="translate(-217.829 -247.427)" fill="#ed826d"/>
          <path id="Pfad_2137" data-name="Pfad 2137" d="M360.977,399.6a.52.52,0,1,1,.6.424A.515.515,0,0,1,360.977,399.6Z" transform="translate(-221.943 -245.324)" fill="#ed826d"/>
          <path id="Pfad_2138" data-name="Pfad 2138" d="M367.087,395.838a.52.52,0,1,1,.6.424A.515.515,0,0,1,367.087,395.838Z" transform="translate(-225.7 -243.012)" fill="#ed826d"/>
          <path id="Pfad_2139" data-name="Pfad 2139" d="M372.567,391.148a.52.52,0,1,1,.6.424A.515.515,0,0,1,372.567,391.148Z" transform="translate(-229.069 -240.128)" fill="#ed826d"/>
          <path id="Pfad_2140" data-name="Pfad 2140" d="M340.967,392.418a.52.52,0,1,1,.6.424A.515.515,0,0,1,340.967,392.418Z" transform="translate(-209.639 -240.909)" fill="#ed826d"/>
          <path id="Pfad_2141" data-name="Pfad 2141" d="M347.587,389.628a.52.52,0,1,1,.6.424A.515.515,0,0,1,347.587,389.628Z" transform="translate(-213.71 -239.194)" fill="#ed826d"/>
          <path id="Pfad_2142" data-name="Pfad 2142" d="M354.277,386.208a.52.52,0,1,1,.6.424A.515.515,0,0,1,354.277,386.208Z" transform="translate(-217.823 -237.091)" fill="#ed826d"/>
          <path id="Pfad_2143" data-name="Pfad 2143" d="M360.387,382.448a.52.52,0,1,1,.6.424A.515.515,0,0,1,360.387,382.448Z" transform="translate(-221.58 -234.779)" fill="#ed826d"/>
          <path id="Pfad_2144" data-name="Pfad 2144" d="M365.867,377.758a.52.52,0,1,1,.6.424A.515.515,0,0,1,365.867,377.758Z" transform="translate(-224.95 -231.895)" fill="#ed826d"/>
          <path id="Pfad_2145" data-name="Pfad 2145" d="M230.4,293.706s1.7-1.059,1.853,2.777c.9,2.265,3.836.855,3.3,7.056s-21.125,16.607-29.02,19.361-21.548,5.2-30.268,4.876c-9.5-.354-15.744-1.625-20.216-4.722-3.1-2.141-6-4.737-4.306-8.03s-1.333-7.252,3.351-6.717,17.786,6.2,37.582,1.356S230.4,293.7,230.4,293.7Z" transform="translate(-92.991 -180.507)" fill="#870f3b"/>
          <path id="Pfad_2146" data-name="Pfad 2146" d="M249.586,243.945a8.5,8.5,0,0,1-3.262-.277,7.083,7.083,0,0,1-3.258-1.956.738.738,0,0,1,1.128-.951h0c.146.169,3.624,4.075,10.537-.289,5.97-3.767,7.66-9.4,7.294-13.072a.735.735,0,0,1,1.464-.146c.408,4.094-1.437,10.337-7.976,14.466a13.686,13.686,0,0,1-5.931,2.226Z" transform="translate(-149.343 -139.323)" fill="#422918"/>
          <path id="Pfad_2147" data-name="Pfad 2147" d="M151.756,323.327c.031-.058.058-.119.085-.177.262,2.773-.3,4.733,5.742,7.984,4.136,2.222,5.977,2.28,9.644,3.016,8.211,1.641,14.435.6,17.358.435,8.773-.516,16.607-2.226,15.933-5.812-.389-3.493-6.524-9.147-4.972-11.088.47-.27,14.654-5.165,15.109-5.438.466.273.689-.535.986-.27,5.561,3.251,6.043,9.944,8.635,9.374,7.125-.37,15.1-8.088,14.35-14.281.905.816,1.125,2.731.947,4.78-.539,6.2-21.125,16.607-29.02,19.361s-21.548,5.2-30.268,4.876c-9.5-.354-15.744-1.625-20.216-4.722-3.1-2.141-6-4.737-4.306-8.03Z" transform="translate(-93.003 -188.806)" fill="#da1c24"/>
          <path id="Pfad_2148" data-name="Pfad 2148" d="M166.871,354.4a17.844,17.844,0,0,0,.732,2.1l-1,2.064-.8-2.261,1.071-1.9Z" transform="translate(-101.941 -217.907)" fill="#ed826d"/>
          <path id="Pfad_2149" data-name="Pfad 2149" d="M167.831,339.72a17.852,17.852,0,0,0,.732,2.1l-1,2.064-.8-2.261Z" transform="translate(-102.531 -208.881)" fill="#ed826d"/>
          <path id="Pfad_2150" data-name="Pfad 2150" d="M160.013,350.721a17.847,17.847,0,0,0-2.1.732l-2.064-1,2.261-.8Z" transform="translate(-95.823 -214.987)" fill="#ed826d"/>
          <path id="Pfad_2151" data-name="Pfad 2151" d="M174.693,351.671a17.845,17.845,0,0,0-2.1.732l-2.064-1,2.261-.8Z" transform="translate(-104.849 -215.571)" fill="#ed826d"/>
          <path id="Pfad_2152" data-name="Pfad 2152" d="M162.174,353.794a18.031,18.031,0,0,0-.982,1.991l-2.172.736,1.048-2.157,2.107-.574Z" transform="translate(-97.772 -217.532)" fill="#ed826d"/>
          <path id="Pfad_2153" data-name="Pfad 2153" d="M173.294,344.174a18.026,18.026,0,0,0-.982,1.991l-2.172.736,1.048-2.157,2.107-.574Z" transform="translate(-104.609 -211.618)" fill="#ed826d"/>
          <path id="Pfad_2154" data-name="Pfad 2154" d="M162.907,346.014a18.034,18.034,0,0,0-1.991-.982l-.736-2.172,2.157,1.048.574,2.107Z" transform="translate(-98.485 -210.812)" fill="#ed826d"/>
          <path id="Pfad_2155" data-name="Pfad 2155" d="M172.527,357.144a18.024,18.024,0,0,0-1.991-.982l-.736-2.172,2.157,1.048.574,2.107Z" transform="translate(-104.4 -217.655)" fill="#ed826d"/>
          <path id="Pfad_2156" data-name="Pfad 2156" d="M203.031,362.31a17.845,17.845,0,0,0,.732,2.1l-1,2.064-.8-2.261Z" transform="translate(-124.174 -222.771)" fill="#ed826d"/>
          <path id="Pfad_2157" data-name="Pfad 2157" d="M203.981,347.63a17.847,17.847,0,0,0,.732,2.1l-1,2.064-.8-2.261Z" transform="translate(-124.758 -213.745)" fill="#ed826d"/>
          <path id="Pfad_2158" data-name="Pfad 2158" d="M196.173,358.641a17.851,17.851,0,0,0-2.1.732l-2.064-1,2.261-.8Z" transform="translate(-118.056 -219.857)" fill="#ed826d"/>
          <path id="Pfad_2159" data-name="Pfad 2159" d="M210.853,359.591a17.85,17.85,0,0,0-2.1.732l-2.064-1,2.261-.8Z" transform="translate(-127.082 -220.441)" fill="#ed826d"/>
          <path id="Pfad_2160" data-name="Pfad 2160" d="M198.324,361.714a18.031,18.031,0,0,0-.982,1.991l-2.172.736,1.048-2.157,2.107-.574Z" transform="translate(-119.999 -222.402)" fill="#ed826d"/>
          <path id="Pfad_2161" data-name="Pfad 2161" d="M209.454,352.094a18.026,18.026,0,0,0-.982,1.991l-2.172.736,1.048-2.157,2.107-.574Z" transform="translate(-126.842 -216.487)" fill="#ed826d"/>
          <path id="Pfad_2162" data-name="Pfad 2162" d="M199.057,353.934a18.031,18.031,0,0,0-1.991-.982l-.736-2.172,2.157,1.048.574,2.107Z" transform="translate(-120.712 -215.682)" fill="#ed826d"/>
          <path id="Pfad_2163" data-name="Pfad 2163" d="M208.677,365.064a18.033,18.033,0,0,0-1.991-.982l-.736-2.172,2.157,1.048.574,2.107Z" transform="translate(-126.627 -222.525)" fill="#ed826d"/>
          <path id="Pfad_2164" data-name="Pfad 2164" d="M238.641,362.53a17.851,17.851,0,0,0,.732,2.1l-1,2.064-.8-2.261,1.071-1.9Z" transform="translate(-146.069 -222.906)" fill="#ed826d"/>
          <path id="Pfad_2165" data-name="Pfad 2165" d="M239.6,347.85a17.845,17.845,0,0,0,.732,2.1l-1,2.064-.8-2.261,1.071-1.9Z" transform="translate(-146.66 -213.88)" fill="#ed826d"/>
          <path id="Pfad_2166" data-name="Pfad 2166" d="M231.793,358.851a17.845,17.845,0,0,0-2.1.732l-2.064-1,2.261-.8Z" transform="translate(-139.958 -219.986)" fill="#ed826d"/>
          <path id="Pfad_2167" data-name="Pfad 2167" d="M246.463,359.8a17.84,17.84,0,0,0-2.1.732l-2.064-1,2.261-.8Z" transform="translate(-148.978 -220.57)" fill="#ed826d"/>
          <path id="Pfad_2168" data-name="Pfad 2168" d="M233.944,361.924a18.027,18.027,0,0,0-.982,1.991l-2.172.736,1.048-2.157,2.107-.574Z" transform="translate(-141.901 -222.531)" fill="#ed826d"/>
          <path id="Pfad_2169" data-name="Pfad 2169" d="M245.074,352.3a18.026,18.026,0,0,0-.982,1.991l-2.172.736,1.048-2.157,2.107-.574Z" transform="translate(-148.744 -216.616)" fill="#ed826d"/>
          <path id="Pfad_2170" data-name="Pfad 2170" d="M234.677,354.144a18.03,18.03,0,0,0-1.991-.982l-.736-2.172,2.157,1.048.574,2.107Z" transform="translate(-142.614 -215.811)" fill="#ed826d"/>
          <path id="Pfad_2171" data-name="Pfad 2171" d="M244.3,365.274a18.021,18.021,0,0,0-1.991-.982l-.736-2.172,2.157,1.048.574,2.107Z" transform="translate(-148.529 -222.654)" fill="#ed826d"/>
          <path id="Pfad_2172" data-name="Pfad 2172" d="M274.751,356.86a17.845,17.845,0,0,0,.732,2.1l-1,2.064-.8-2.261Z" transform="translate(-168.272 -219.42)" fill="#ed826d"/>
          <path id="Pfad_2173" data-name="Pfad 2173" d="M275.7,342.18a17.852,17.852,0,0,0,.732,2.1l-1,2.064-.8-2.261Z" transform="translate(-168.856 -210.394)" fill="#ed826d"/>
          <path id="Pfad_2174" data-name="Pfad 2174" d="M267.893,353.181a17.852,17.852,0,0,0-2.1.732l-2.064-1,2.261-.8Z" transform="translate(-162.154 -216.499)" fill="#ed826d"/>
          <path id="Pfad_2175" data-name="Pfad 2175" d="M282.573,354.131a17.846,17.846,0,0,0-2.1.732l-2.064-1,2.261-.8Z" transform="translate(-171.18 -217.084)" fill="#ed826d"/>
          <path id="Pfad_2176" data-name="Pfad 2176" d="M270.044,356.254a18.024,18.024,0,0,0-.982,1.991l-2.172.736,1.048-2.157,2.107-.574Z" transform="translate(-164.097 -219.045)" fill="#ed826d"/>
          <path id="Pfad_2177" data-name="Pfad 2177" d="M281.174,346.634a18.029,18.029,0,0,0-.982,1.991l-2.172.736,1.048-2.157,2.107-.574Z" transform="translate(-170.94 -213.13)" fill="#ed826d"/>
          <path id="Pfad_2178" data-name="Pfad 2178" d="M270.787,348.474a18.029,18.029,0,0,0-1.991-.982l-.736-2.172,2.157,1.048.574,2.107Z" transform="translate(-164.816 -212.325)" fill="#ed826d"/>
          <path id="Pfad_2179" data-name="Pfad 2179" d="M280.407,359.6a18.024,18.024,0,0,0-1.991-.982l-.736-2.172,2.157,1.048.574,2.107Z" transform="translate(-170.731 -219.168)" fill="#ed826d"/>
          <path id="Pfad_2180" data-name="Pfad 2180" d="M310.631,341.97a17.851,17.851,0,0,0,.732,2.1l-1,2.064-.8-2.261Z" transform="translate(-190.333 -210.265)" fill="#ed826d"/>
          <path id="Pfad_2181" data-name="Pfad 2181" d="M311.591,327.29a17.847,17.847,0,0,0,.732,2.1l-1,2.064-.8-2.261Z" transform="translate(-190.924 -201.239)" fill="#ed826d"/>
          <path id="Pfad_2182" data-name="Pfad 2182" d="M303.773,338.291a17.847,17.847,0,0,0-2.1.732l-2.064-1,2.261-.8Z" transform="translate(-184.215 -207.344)" fill="#ed826d"/>
          <path id="Pfad_2183" data-name="Pfad 2183" d="M318.453,339.241a17.852,17.852,0,0,0-2.1.732l-2.064-1,2.261-.8Z" transform="translate(-193.242 -207.928)" fill="#ed826d"/>
          <path id="Pfad_2184" data-name="Pfad 2184" d="M305.934,341.364a18.034,18.034,0,0,0-.982,1.991l-2.172.736,1.048-2.157,2.107-.574Z" transform="translate(-186.165 -209.89)" fill="#ed826d"/>
          <path id="Pfad_2185" data-name="Pfad 2185" d="M317.064,331.744a18.029,18.029,0,0,0-.982,1.991l-2.172.736,1.048-2.157,2.107-.574Z" transform="translate(-193.008 -203.975)" fill="#ed826d"/>
          <path id="Pfad_2186" data-name="Pfad 2186" d="M306.667,333.584a18.029,18.029,0,0,0-1.991-.982l-.736-2.172,2.157,1.048.574,2.107Z" transform="translate(-186.878 -203.169)" fill="#ed826d"/>
          <path id="Pfad_2187" data-name="Pfad 2187" d="M316.287,344.714a18.033,18.033,0,0,0-1.991-.982l-.736-2.172,2.157,1.048.574,2.107Z" transform="translate(-192.793 -210.013)" fill="#ed826d"/>
          <path id="Pfad_2188" data-name="Pfad 2188" d="M341.961,324.53a17.839,17.839,0,0,0,.732,2.1l-1,2.064-.8-2.261Z" transform="translate(-209.597 -199.542)" fill="#ed826d"/>
          <path id="Pfad_2189" data-name="Pfad 2189" d="M342.911,309.85a17.851,17.851,0,0,0,.732,2.1l-1,2.064-.8-2.261Z" transform="translate(-210.181 -190.515)" fill="#ed826d"/>
          <path id="Pfad_2190" data-name="Pfad 2190" d="M335.1,320.851a17.847,17.847,0,0,0-2.1.732l-2.064-1,2.261-.8Z" transform="translate(-203.479 -196.621)" fill="#ed826d"/>
          <path id="Pfad_2191" data-name="Pfad 2191" d="M349.783,321.8a17.85,17.85,0,0,0-2.1.732l-2.064-1,2.261-.8Z" transform="translate(-212.505 -197.205)" fill="#ed826d"/>
          <path id="Pfad_2192" data-name="Pfad 2192" d="M337.254,323.924a18.029,18.029,0,0,0-.982,1.991l-2.172.736,1.048-2.157,2.107-.574Z" transform="translate(-205.422 -199.166)" fill="#ed826d"/>
          <path id="Pfad_2193" data-name="Pfad 2193" d="M348.384,314.3a18.028,18.028,0,0,0-.982,1.991l-2.172.736,1.048-2.157,2.107-.574Z" transform="translate(-212.266 -193.251)" fill="#ed826d"/>
          <path id="Pfad_2194" data-name="Pfad 2194" d="M338,316.144a18.026,18.026,0,0,0-1.991-.982l-.736-2.172,2.157,1.048.574,2.107Z" transform="translate(-206.141 -192.446)" fill="#ed826d"/>
          <path id="Pfad_2195" data-name="Pfad 2195" d="M347.617,327.274a18.031,18.031,0,0,0-1.991-.982l-.736-2.172,2.157,1.048.574,2.107Z" transform="translate(-212.056 -199.289)" fill="#ed826d"/>
          <path id="Pfad_2196" data-name="Pfad 2196" d="M286.757,376.055a8.659,8.659,0,0,0-.285-.878,13.758,13.758,0,0,1-.886-3.424c-1.063-1.148-2.13-11.431-6.536-24.957-4.606-14.15-10.6-25.5-11.635-26.844s8.423-5.835,11.442-7.029,3.189.485,3.189.485c6.886,8.08,22.049,47.43,19.569,53.2.231.82,1.109,3.986,1.171,4.664a.246.246,0,0,1-.15.246.225.225,0,0,1-.069.015.242.242,0,0,1-.262-.22c-.046-.512-.655-2.785-1.067-4.26a6.193,6.193,0,0,1-.639.385c.863,2.711,1.275,4.267,1.279,4.283a.238.238,0,0,1-.146.285c-.008,0-.019.008-.027.008a.241.241,0,0,1-.3-.173c0-.015-.4-1.533-1.248-4.183-.235.112-.489.231-.763.347.239.778,1.136,3.674,1.321,4.267a.238.238,0,0,1-.142.3.029.029,0,0,0-.015.008.245.245,0,0,1-.3-.158c-.185-.582-1.048-3.382-1.309-4.225-.316.131-.651.262-1,.393a36.666,36.666,0,0,1,1.479,4.317.246.246,0,0,1-.143.289c-.008,0-.015.008-.027.008a.242.242,0,0,1-.3-.169,36.223,36.223,0,0,0-1.467-4.275q-.3.11-.612.22c.273.743,1.363,3.751,1.425,4.3a.243.243,0,0,1-.15.25.362.362,0,0,1-.062.015.243.243,0,0,1-.27-.216c-.042-.393-.843-2.677-1.4-4.2l-.686.231a31.087,31.087,0,0,1,1.556,4.5.248.248,0,0,1-.146.173.243.243,0,0,1-.331-.235,43.284,43.284,0,0,0-1.533-4.29l-.609.2c.37,1.125,1.29,3.951,1.413,4.337a.243.243,0,0,1-.142.3.023.023,0,0,0-.015,0,.239.239,0,0,1-.3-.154c-.47-1.444-1.128-3.47-1.417-4.34l-.558.173c.4,1.132,1.394,3.959,1.464,4.506a.246.246,0,0,1-.15.258.32.32,0,0,1-.058.015.245.245,0,0,1-.273-.208c-.065-.478-1.055-3.328-1.448-4.429l-.377.112c.366,1.205,1.152,4.46,1.19,4.614a.241.241,0,0,1-.146.281l-.031.012a.244.244,0,0,1-.293-.177c-.008-.039-.828-3.424-1.182-4.595l-.689.2c.285,1.04,1.171,4.271,1.275,4.645a.242.242,0,0,1-.142.289c-.008,0-.015.008-.027.008a.242.242,0,0,1-.3-.169c-.1-.374-.99-3.6-1.275-4.645l-.47.127c.377,1.321,1.071,4.367,1.1,4.51a.24.24,0,0,1-.146.277l-.035.012a.24.24,0,0,1-.289-.185c-.008-.035-.724-3.189-1.1-4.491l-.774.2c.227.855,1.067,4.036,1.175,4.418a.242.242,0,0,1-.143.289c-.008,0-.015.008-.027.008a.242.242,0,0,1-.3-.169c-.1-.385-.955-3.589-1.178-4.433-.212.05-.416.1-.612.142.235,1.144,1.225,4.468,1.236,4.5a.239.239,0,0,1-.142.293c-.008,0-.012,0-.019.008a.242.242,0,0,1-.3-.162c-.042-.146-1-3.347-1.244-4.537l-.67.139a19.3,19.3,0,0,0,1.186,4.3.244.244,0,0,1-.108.327c-.008,0-.015.008-.019.008a.236.236,0,0,1-.3-.116,19.421,19.421,0,0,1-1.229-4.437c-.277.046-.512.073-.689.085a14.758,14.758,0,0,0,.851,3.15c.308.878.354,1.028.289,1.175a.249.249,0,0,1-.135.131.255.255,0,0,1-.185,0,.239.239,0,0,1-.142-.258Z" transform="translate(-164.373 -192.14)" fill="#ed1c24"/>
          <path id="Pfad_2197" data-name="Pfad 2197" d="M324.434,421.67q.324,1.138.6,2.215c-5.4,2.819-11.311,4.325-17.235,5.812-.177-.8-.366-1.641-.57-2.519,5.95-1.437,11.781-2.75,17.2-5.5Z" transform="translate(-188.901 -259.269)" fill="#ed826d"/>
          <path id="Pfad_2198" data-name="Pfad 2198" d="M282.7,360.032c-.882-3.79-2.045-8.3-3.659-13.256-4.606-14.15-10.6-25.5-11.635-26.844s8.423-5.835,11.442-7.029,3.189.485,3.189.485c4.872,5.715,13.884,27.083,17.863,41.136-5.423,2.758-11.25,4.071-17.2,5.5Z" transform="translate(-164.366 -192.128)" fill="#870f3b"/>
          <path id="Pfad_2199" data-name="Pfad 2199" d="M327.893,436.94c.143.732.262,1.421.35,2.057-5.438,2.892-11.342,4.194-17.3,5.3q-.2-.93-.439-2.041a69.219,69.219,0,0,0,17.393-5.315Z" transform="translate(-190.911 -268.658)" fill="#ed826d"/>
          <path id="Pfad_2200" data-name="Pfad 2200" d="M320.864,408.73c.308.886.52,1.517.7,2.23-5.4,2.819-11.157,4.144-17.081,5.631-.177-.8-.424-1.664-.628-2.542C309.81,412.612,315.441,411.488,320.864,408.73Z" transform="translate(-186.829 -251.313)" fill="#ed826d"/>
          <path id="Pfad_2201" data-name="Pfad 2201" d="M309.3,430.846a.521.521,0,1,1-.639-.366A.521.521,0,0,1,309.3,430.846Z" transform="translate(-189.541 -264.675)" fill="#ed826d"/>
          <path id="Pfad_2202" data-name="Pfad 2202" d="M316.675,429.076a.521.521,0,1,1-.639-.366A.521.521,0,0,1,316.675,429.076Z" transform="translate(-194.078 -263.586)" fill="#ed826d"/>
          <path id="Pfad_2203" data-name="Pfad 2203" d="M323.277,427.338a.52.52,0,1,1,.6.424A.515.515,0,0,1,323.277,427.338Z" transform="translate(-198.763 -262.38)" fill="#ed826d"/>
          <path id="Pfad_2204" data-name="Pfad 2204" d="M311.057,445.18a.52.52,0,1,1,.6.424A.515.515,0,0,1,311.057,445.18Z" transform="translate(-191.249 -273.351)" fill="#ed826d"/>
          <path id="Pfad_2205" data-name="Pfad 2205" d="M318.167,443.728a.52.52,0,1,1,.6.424A.515.515,0,0,1,318.167,443.728Z" transform="translate(-195.621 -272.458)" fill="#ed826d"/>
          <path id="Pfad_2206" data-name="Pfad 2206" d="M325.687,441.558a.52.52,0,1,1,.6.424A.515.515,0,0,1,325.687,441.558Z" transform="translate(-200.244 -271.123)" fill="#ed826d"/>
          <path id="Pfad_2207" data-name="Pfad 2207" d="M333.177,439.268a.52.52,0,1,1,.6.424A.515.515,0,0,1,333.177,439.268Z" transform="translate(-204.85 -269.715)" fill="#ed826d"/>
          <path id="Pfad_2208" data-name="Pfad 2208" d="M340.837,436.688a.52.52,0,1,1,.6.424A.515.515,0,0,1,340.837,436.688Z" transform="translate(-209.56 -268.129)" fill="#ed826d"/>
          <path id="Pfad_2209" data-name="Pfad 2209" d="M348.057,433.858a.52.52,0,1,1,.6.424A.515.515,0,0,1,348.057,433.858Z" transform="translate(-213.999 -266.389)" fill="#ed826d"/>
          <path id="Pfad_2210" data-name="Pfad 2210" d="M314.767,459.658a.52.52,0,1,1,.6.424A.515.515,0,0,1,314.767,459.658Z" transform="translate(-193.53 -282.252)" fill="#ed826d"/>
          <path id="Pfad_2211" data-name="Pfad 2211" d="M321.477,458.568a.52.52,0,1,1,.6.424A.515.515,0,0,1,321.477,458.568Z" transform="translate(-197.656 -281.582)" fill="#ed826d"/>
          <path id="Pfad_2212" data-name="Pfad 2212" d="M329.087,456.738a.52.52,0,1,1,.6.424A.515.515,0,0,1,329.087,456.738Z" transform="translate(-202.335 -280.457)" fill="#ed826d"/>
          <path id="Pfad_2213" data-name="Pfad 2213" d="M336.357,454.508a.52.52,0,1,1,.6.424A.515.515,0,0,1,336.357,454.508Z" transform="translate(-206.805 -279.086)" fill="#ed826d"/>
          <path id="Pfad_2214" data-name="Pfad 2214" d="M343.077,452.548a.52.52,0,1,1,.6.424A.515.515,0,0,1,343.077,452.548Z" transform="translate(-210.937 -277.881)" fill="#ed826d"/>
          <path id="Pfad_2215" data-name="Pfad 2215" d="M350.117,449.518a.52.52,0,1,1,.6.424A.515.515,0,0,1,350.117,449.518Z" transform="translate(-215.265 -276.018)" fill="#ed826d"/>
          <path id="Pfad_2216" data-name="Pfad 2216" d="M331.585,424.766a.521.521,0,1,1-.639-.366A.521.521,0,0,1,331.585,424.766Z" transform="translate(-203.246 -260.936)" fill="#ed826d"/>
          <path id="Pfad_2217" data-name="Pfad 2217" d="M339.325,422.266a.521.521,0,1,1-.639-.366A.521.521,0,0,1,339.325,422.266Z" transform="translate(-208.005 -259.399)" fill="#ed826d"/>
          <path id="Pfad_2218" data-name="Pfad 2218" d="M346.725,419.426a.521.521,0,1,1-.639-.366A.521.521,0,0,1,346.725,419.426Z" transform="translate(-212.555 -257.653)" fill="#ed826d"/>
        </g>
      </g>
    </g>
    <g id="Gruppe_1488" data-name="Gruppe 1488" transform="translate(219.973 -1054.644)">
      <g id="Gruppe_1363" data-name="Gruppe 1363" transform="translate(969.221 1732.487)" clip-path="url(#clip-path)">
        <rect id="Rechteck_569" data-name="Rechteck 569" width="188.793" height="42.313" transform="translate(0 -0.213)" fill="url(#radial-gradient-5)"/>
      </g>
    </g>
  </g>
</svg>
