<svg xmlns="http://www.w3.org/2000/svg" xmlns:xlink="http://www.w3.org/1999/xlink" width="545.735" height="438.989" viewBox="0 0 545.735 438.989">
  <defs>
    <clipPath id="clip-path">
      <rect id="Rechteck_771" data-name="Rechteck 771" width="257.886" height="373.42" fill="none"/>
    </clipPath>
    <clipPath id="clip-path-2">
      <rect id="Rechteck_770" data-name="Rechteck 770" width="257.886" height="373.419" fill="none"/>
    </clipPath>
    <clipPath id="clip-path-3">
      <rect id="Rechteck_756" data-name="Rechteck 756" width="47.601" height="20.669" fill="none"/>
    </clipPath>
    <clipPath id="clip-path-4">
      <rect id="Rechteck_757" data-name="Rechteck 757" width="79.011" height="46.195" fill="none"/>
    </clipPath>
    <clipPath id="clip-path-5">
      <rect id="Rechteck_758" data-name="Rechteck 758" width="59.632" height="17.973" fill="none"/>
    </clipPath>
    <clipPath id="clip-path-6">
      <rect id="Rechteck_759" data-name="Rechteck 759" width="44.687" height="22.885" fill="none"/>
    </clipPath>
    <clipPath id="clip-path-7">
      <rect id="Rechteck_760" data-name="Rechteck 760" width="130.172" height="126.75" fill="none"/>
    </clipPath>
    <clipPath id="clip-path-8">
      <rect id="Rechteck_761" data-name="Rechteck 761" width="99.537" height="37.437" fill="none"/>
    </clipPath>
    <clipPath id="clip-path-9">
      <rect id="Rechteck_762" data-name="Rechteck 762" width="42.401" height="80.939" fill="none"/>
    </clipPath>
    <clipPath id="clip-path-10">
      <rect id="Rechteck_763" data-name="Rechteck 763" width="116.833" height="101.36" fill="none"/>
    </clipPath>
    <clipPath id="clip-path-11">
      <rect id="Rechteck_764" data-name="Rechteck 764" width="114.653" height="84.072" fill="none"/>
    </clipPath>
    <clipPath id="clip-path-12">
      <rect id="Rechteck_765" data-name="Rechteck 765" width="109.227" height="32.593" fill="none"/>
    </clipPath>
    <clipPath id="clip-path-13">
      <rect id="Rechteck_766" data-name="Rechteck 766" width="20.87" height="31.885" fill="none"/>
    </clipPath>
    <clipPath id="clip-path-14">
      <rect id="Rechteck_767" data-name="Rechteck 767" width="123.931" height="73.178" fill="none"/>
    </clipPath>
    <clipPath id="clip-path-15">
      <rect id="Rechteck_768" data-name="Rechteck 768" width="29.824" height="31.887" fill="none"/>
    </clipPath>
    <clipPath id="clip-path-16">
      <rect id="Rechteck_769" data-name="Rechteck 769" width="108.502" height="38.404" fill="none"/>
    </clipPath>
    <clipPath id="clip-path-17">
      <rect id="Rechteck_788" data-name="Rechteck 788" width="261.236" height="397.841" fill="none"/>
    </clipPath>
    <clipPath id="clip-path-18">
      <rect id="Rechteck_787" data-name="Rechteck 787" width="261.236" height="397.843" fill="none"/>
    </clipPath>
    <clipPath id="clip-path-19">
      <rect id="Rechteck_772" data-name="Rechteck 772" width="123.224" height="177.719" fill="none"/>
    </clipPath>
    <clipPath id="clip-path-20">
      <rect id="Rechteck_773" data-name="Rechteck 773" width="28.862" height="51.422" fill="none"/>
    </clipPath>
    <clipPath id="clip-path-21">
      <rect id="Rechteck_774" data-name="Rechteck 774" width="27.209" height="47.171" fill="none"/>
    </clipPath>
    <clipPath id="clip-path-22">
      <rect id="Rechteck_775" data-name="Rechteck 775" width="31.981" height="34.545" fill="none"/>
    </clipPath>
    <clipPath id="clip-path-23">
      <rect id="Rechteck_776" data-name="Rechteck 776" width="34.927" height="17.766" fill="none"/>
    </clipPath>
    <clipPath id="clip-path-24">
      <rect id="Rechteck_777" data-name="Rechteck 777" width="109.309" height="30.873" fill="none"/>
    </clipPath>
    <clipPath id="clip-path-25">
      <rect id="Rechteck_778" data-name="Rechteck 778" width="26.241" height="28.096" fill="none"/>
    </clipPath>
    <clipPath id="clip-path-27">
      <rect id="Rechteck_780" data-name="Rechteck 780" width="120.548" height="82.179" fill="none"/>
    </clipPath>
    <clipPath id="clip-path-28">
      <rect id="Rechteck_781" data-name="Rechteck 781" width="183.637" height="100.472" fill="none"/>
    </clipPath>
    <clipPath id="clip-path-29">
      <rect id="Rechteck_782" data-name="Rechteck 782" width="139.432" height="69.586" fill="none"/>
    </clipPath>
    <clipPath id="clip-path-30">
      <rect id="Rechteck_783" data-name="Rechteck 783" width="79.191" height="51.218" fill="none"/>
    </clipPath>
    <clipPath id="clip-path-31">
      <rect id="Rechteck_784" data-name="Rechteck 784" width="51.783" height="32.299" fill="none"/>
    </clipPath>
    <clipPath id="clip-path-32">
      <rect id="Rechteck_785" data-name="Rechteck 785" width="59.216" height="38.743" fill="none"/>
    </clipPath>
    <clipPath id="clip-path-33">
      <rect id="Rechteck_786" data-name="Rechteck 786" width="90.677" height="56.222" fill="none"/>
    </clipPath>
  </defs>
  <g id="successKidsSmall" transform="translate(-7644.765 -1978.123)">
    <path id="Pfad_3874" data-name="Pfad 3874" d="M3081.459,831.695c-14.753-4.035,43.732-13.1,139.1,3.57C3220.216,836.694,3161.889,867.65,3081.459,831.695Z" transform="translate(4639.309 1568.099)" fill="#83b1c9" opacity="0.14"/>
    <path id="Pfad_3875" data-name="Pfad 3875" d="M3082.024,831.695c-18.427-4.035,54.621-13.1,173.735,3.57C3255.331,836.694,3182.481,867.65,3082.024,831.695Z" transform="translate(4891.109 1568.099)" fill="#83b1c9" opacity="0.14"/>
    <g id="Gruppe_1848" data-name="Gruppe 1848" transform="translate(7932.614 2002.545)">
      <g id="Gruppe_1847" data-name="Gruppe 1847" clip-path="url(#clip-path)">
        <g id="Gruppe_1846" data-name="Gruppe 1846" transform="translate(0 0)">
          <g id="Gruppe_1845" data-name="Gruppe 1845" clip-path="url(#clip-path-2)">
            <path id="Pfad_3738" data-name="Pfad 3738" d="M71.572,503.335a37.972,37.972,0,0,0,4.616,4.2h0c.048.039.094.078.143.115.167.136.337.272.507.4,1.2.956,2.4,1.9,3.525,2.892.213.184.42.368.623.558a22.3,22.3,0,0,1,2.464,2.623c.073.093.146.187.216.28.179.235.353.48.513.727.076.109.149.22.216.332s.152.241.222.365.158.274.234.413c.058.109.116.217.17.326.009.021.021.042.033.066q.087.172.164.344.091.2.173.4t.164.407c.061.16.116.32.17.479a13.372,13.372,0,0,1,.395,1.465c.1.473.176.947.237,1.427.028.205.049.41.067.618.03.308.054.618.073.929.082,1.378.067,2.78.067,4.179a36.646,36.646,0,0,0,.21,4.481c.568,4.532,3.975,9.547,8.527,8.878a127.207,127.207,0,0,0,13.662-2.789v0c.337-.084.672-.175,1.006-.265a.01.01,0,0,0,.009,0c.371-.1.739-.2,1.109-.3s.742-.208,1.112-.316.729-.211,1.094-.32.736-.22,1.1-.335.723-.223,1.085-.338c.249-.078.5-.157.75-.238l.717-.235q3.761-1.235,7.445-2.684.333-.127.666-.262c.462-.181.924-.368,1.383-.558.307-.124.614-.25.918-.38q2.078-.864,4.136-1.8c.316-.142.635-.286.951-.434q.948-.434,1.89-.887c.174-.081.344-.163.514-.247.3-.145.608-.289.912-.44.261-.127.526-.256.79-.389q1.709-.845,3.4-1.737.989-.52,1.975-1.055,1.782-.964,3.546-1.975c.283-.16.562-.323.839-.483q2.347-1.361,4.661-2.8.989-.615,1.975-1.242c.328-.208.656-.419.982-.63s.656-.425.981-.639.65-.428.975-.643q.975-.647,1.945-1.306l.17-.115q.875-.6,1.747-1.206c.647-.449,1.289-.9,1.93-1.363.319-.226.638-.455.954-.685.48-.347.963-.7,1.44-1.049l.857-.633q.7-.52,1.392-1.043c.106-.078.21-.157.313-.235.553-.419,1.106-.841,1.653-1.267.577-.446,1.155-.9,1.726-1.345.143-.111.282-.223.422-.335q.725-.574,1.446-1.152c.185-.148.368-.3.55-.446q.633-.511,1.258-1.025.191-.154.383-.317.784-.642,1.565-1.3c.006,0,.009-.006.015-.012.6-.5,1.2-1.01,1.8-1.523q.707-.6,1.41-1.212c.246-.211.489-.422.732-.636.447-.389.89-.778,1.331-1.173.046-.036.088-.076.131-.115q.87-.769,1.738-1.553,1.746-1.574,3.464-3.178,1.108-1.031,2.2-2.084.6-.565,1.188-1.137c.076-.069.149-.141.222-.217q.78-.746,1.55-1.508.807-.787,1.6-1.583l.273-.271q.556-.556,1.119-1.122c.216-.217.428-.434.641-.651.4-.407.8-.814,1.2-1.221l.264-.271q.716-.733,1.422-1.472,3.6-3.741,7.053-7.572c.347-.38.687-.76,1.03-1.14.082-.091.161-.181.24-.271.419-.468.838-.938,1.251-1.408.1-.106.192-.214.283-.32q.693-.783,1.379-1.568a.251.251,0,0,0,.027-.033q.679-.773,1.352-1.556c.1-.112.192-.22.286-.332q.6-.7,1.191-1.393,2.374-2.777,4.67-5.572c-8.068-11.839-17.2-25.206-25.27-37.045-10.359-6.661-25.3-9.01-41.308-11.142-19.995-2.663-41.658-4.991-58.143-14.975a16.167,16.167,0,0,1-.411,7.505c-.039.13-.079.262-.124.392,0,.006,0,.012,0,.018-.058.175-.119.353-.182.528-.055.151-.112.3-.173.449-.04.1-.082.2-.124.3-.122.3-.258.594-.4.884-.085.175-.176.35-.271.525s-.182.338-.28.506c-.015.027-.03.051-.046.078-.088.148-.176.3-.267.44-.1.16-.2.32-.31.476a.2.2,0,0,1-.03.045c-.094.142-.192.284-.292.422s-.216.3-.331.446c-.064.087-.131.172-.2.256a19.58,19.58,0,0,1-1.924,2.1c-.225.211-.459.422-.7.627-.088.082-.182.16-.273.235-.216.184-.435.365-.66.546-.006,0-.012.009-.021.015-.228.187-.462.368-.7.549-.118.094-.237.184-.355.274-3.738,2.862-7.87,5.53-8.223,10a8.572,8.572,0,0,0,.243,2.684c.024.1.048.2.076.3l.082.3c.085.3.182.6.286.9.036.1.07.2.106.3l.109.3c.109.3.228.591.349.887a.139.139,0,0,1,.012.033,38.753,38.753,0,0,1,1.486,3.956,9.223,9.223,0,0,1,.383,2.807v.018c-.006.166-.018.332-.036.5-.009.084-.022.169-.034.256q-.041.29-.109.57c-.012.057-.028.112-.043.166-.018.079-.04.154-.064.229-.028.1-.061.2-.094.3-.06.178-.128.35-.2.519-.033.075-.067.151-.1.226,0,0,0,.006-.006.009-.034.078-.073.154-.112.229a8.3,8.3,0,0,1-.529.893c-.048.072-.1.145-.152.217s-.1.141-.155.211c-.091.123-.185.247-.289.368-.07.091-.146.178-.222.268-.055.06-.109.123-.164.184-.164.184-.334.368-.513.549-.21.214-.429.425-.65.633-.118.111-.24.223-.362.335-.1.094-.209.19-.316.284s-.234.205-.349.3l-.213.184c-.286.244-.577.492-.866.736-.155.129-.307.259-.459.389-.079.069-.161.136-.24.205s-.179.154-.267.229a14.525,14.525,0,0,0-4.27,5.2c-1.911,4.641.814,9.471,2.37,14.417.079.25.155.5.228.757.046.154.088.31.128.464a.777.777,0,0,1,.021.082c.052.187.1.371.14.558.055.229.106.458.152.687.034.169.064.335.091.5.027.151.049.3.07.455.006.039.012.079.015.118.036.283.067.564.085.847,0,.015,0,.033,0,.051,0,.054.006.108.009.163.009.142.012.286.015.428,0,.066,0,.13,0,.2,0,.157,0,.311-.009.464-.006.13-.012.256-.021.386-.006.1-.012.2-.024.3,0,.045-.009.091-.012.133-.006.082-.015.16-.027.242s-.018.157-.027.232c-.009.054-.016.109-.024.16-.015.109-.03.217-.052.326-.079.474-.182.944-.3,1.411-.04.147-.079.3-.122.443-.255.911-.574,1.809-.921,2.7l-.31.778c-.006.015-.012.027-.018.042-.058.145-.119.292-.18.437-.091.229-.188.458-.283.687-.088.208-.173.419-.261.627-.128.31-.258.621-.383.932-.106.253-.207.506-.307.76-.155.4-.31.8-.453,1.2-.048.133-.094.262-.14.395q-.273.787-.492,1.583a21.214,21.214,0,0,0,4.591,19.356" transform="translate(-42.844 -255.789)" fill="#ef709d"/>
            <g id="Gruppe_1805" data-name="Gruppe 1805" transform="translate(29.441 170.237)" opacity="0.4" style="mix-blend-mode: overlay;isolation: isolate">
              <g id="Gruppe_1804" data-name="Gruppe 1804">
                <g id="Gruppe_1803" data-name="Gruppe 1803" clip-path="url(#clip-path-3)">
                  <path id="Pfad_3739" data-name="Pfad 3739" d="M127.221,499.521a6.733,6.733,0,0,1,3.635,2.032c-15.722.859-31.863.829-47.6-1.365,2.835-2.45,5.953-4.678,6.479-8.231.537-3.628-1.979-7-2.819-10.549a330.4,330.4,0,0,0,40.306,18.113" transform="translate(-83.255 -481.408)" fill="#230211"/>
                </g>
              </g>
            </g>
            <g id="Gruppe_1808" data-name="Gruppe 1808" transform="translate(33.345 224.898)" opacity="0.4" style="mix-blend-mode: overlay;isolation: isolate">
              <g id="Gruppe_1807" data-name="Gruppe 1807">
                <g id="Gruppe_1806" data-name="Gruppe 1806" clip-path="url(#clip-path-4)">
                  <path id="Pfad_3740" data-name="Pfad 3740" d="M169.705,637.043c1.032-.52,2.186-1.5,3.6-.836a232.781,232.781,0,0,1-67.811,45.618l-.82.353c0-3.107.08-6.216-1.01-9.1-1.665-4.4-5.605-7.232-9.369-10.25,1.447-.363,2.911-.741,4.4-1.115,25.278-6.918,47.1-15.426,71.01-24.673" transform="translate(-94.294 -635.983)" fill="#230211"/>
                </g>
              </g>
            </g>
            <g id="Gruppe_1811" data-name="Gruppe 1811" transform="translate(24.629 208.635)" opacity="0.4" style="mix-blend-mode: overlay;isolation: isolate">
              <g id="Gruppe_1810" data-name="Gruppe 1810">
                <g id="Gruppe_1809" data-name="Gruppe 1809" clip-path="url(#clip-path-5)">
                  <path id="Pfad_3741" data-name="Pfad 3741" d="M83.441,591.151c2.607.285,4.789,1.051,7.537,1.177,3.82.207,7.195.593,11.156.64,9.317.457,18.009.652,27.145.667-15.252,6.574-31.209,11.682-48.13,13.679-3.867.4-7.7.6-11.5.652,1.478-4.286,3.944-8.353,3.872-12.858a18.089,18.089,0,0,0-.959-5.115q5.334.829,10.88,1.158" transform="translate(-69.648 -589.993)" fill="#230211"/>
                </g>
              </g>
            </g>
            <g id="Gruppe_1814" data-name="Gruppe 1814" transform="translate(41.08 147.293)" opacity="0.4" style="mix-blend-mode: overlay;isolation: isolate">
              <g id="Gruppe_1813" data-name="Gruppe 1813">
                <g id="Gruppe_1812" data-name="Gruppe 1812" clip-path="url(#clip-path-6)">
                  <path id="Pfad_3742" data-name="Pfad 3742" d="M123.872,416.523c11.6,8.827,23.184,17.62,36.985,22.886a66.825,66.825,0,0,1-10.507-2.345c-10.708-3.087-21.093-5.892-31.516-9.3q-1.352-.455-2.664-.977a34.274,34.274,0,0,0,2.7-2.248,17.866,17.866,0,0,0,5-8.017" transform="translate(-116.17 -416.523)" fill="#230211"/>
                </g>
              </g>
            </g>
            <g id="Gruppe_1817" data-name="Gruppe 1817" transform="translate(43.697 154.913)" opacity="0.2" style="mix-blend-mode: overlay;isolation: isolate">
              <g id="Gruppe_1816" data-name="Gruppe 1816">
                <g id="Gruppe_1815" data-name="Gruppe 1815" clip-path="url(#clip-path-7)">
                  <path id="Pfad_3743" data-name="Pfad 3743" d="M125.438,531.569a13.61,13.61,0,0,0,2.246,2.479c4.194,3.79,8.648,7.807,12.119,12.381,3.768,4.957,6.381,10.569,6.266,17.257-.012.38-.04.757-.073,1.134v0c.337-.087.672-.178,1.006-.268a.012.012,0,0,0,.009,0c.371-.1.738-.2,1.109-.3s.742-.208,1.112-.316.729-.211,1.094-.32.736-.22,1.1-.335.723-.223,1.085-.338c.249-.079.5-.157.75-.238l.717-.235q3.76-1.235,7.445-2.684.333-.127.666-.262.693-.272,1.383-.558.46-.185.918-.38,2.078-.864,4.136-1.8c.316-.142.635-.286.951-.434q.948-.435,1.89-.887c.173-.082.344-.163.514-.247.3-.145.608-.289.912-.44.261-.127.525-.256.79-.389q1.709-.845,3.4-1.737.989-.52,1.975-1.056,1.782-.963,3.546-1.975c.283-.16.562-.323.838-.482q2.348-1.362,4.661-2.8.989-.615,1.975-1.242c.328-.208.657-.419.982-.63s.656-.425.982-.639.65-.428.975-.642q.975-.647,1.945-1.306l.17-.115q.875-.6,1.747-1.206c.647-.449,1.288-.9,1.93-1.363.319-.226.638-.455.954-.684.48-.347.963-.7,1.44-1.05l.857-.633q.7-.52,1.392-1.043c.106-.078.21-.157.313-.235.553-.419,1.106-.841,1.653-1.267.577-.443,1.155-.893,1.726-1.345.143-.111.283-.223.423-.335q.725-.574,1.446-1.152c.185-.147.368-.3.55-.446q.634-.511,1.258-1.025.191-.154.383-.317.783-.642,1.565-1.3c.006,0,.009-.006.015-.012.6-.5,1.2-1.01,1.8-1.523q.707-.6,1.41-1.212c.246-.211.489-.422.732-.636.447-.389.89-.778,1.331-1.173.046-.036.088-.075.13-.115q.871-.769,1.738-1.553,1.746-1.574,3.464-3.178,1.108-1.031,2.2-2.084.6-.565,1.188-1.137c.076-.069.149-.142.222-.217q.779-.746,1.55-1.508.807-.787,1.6-1.583l.273-.271q.556-.556,1.118-1.122c.216-.217.429-.434.641-.651.4-.407.8-.814,1.2-1.221l.264-.271q.716-.733,1.422-1.471,3.6-3.741,7.053-7.572c.347-.38.687-.76,1.03-1.14.082-.091.161-.181.24-.272.419-.467.839-.938,1.252-1.408.1-.106.192-.214.283-.32q.693-.782,1.379-1.568a.283.283,0,0,0,.027-.033q.679-.773,1.352-1.556c.1-.111.191-.22.286-.332q.6-.7,1.191-1.393,2.375-2.777,4.671-5.572c-8.068-11.839-17.2-25.206-25.27-37.044-10.359-6.661-25.3-9.01-41.308-11.142-1.647,11.268-5.123,27.163-7.849,33.42-4.029,9.215-9.472,17.743-17.218,23.936q-1.289,1.036-2.665,1.978-1.7,1.167-3.552,2.189c-7.041,4.08-14.646,6.535-22.192,9.891-6.068,2.657-8.888,8.431-9.988,14.848a9.64,9.64,0,0,0,1.738,7.234" transform="translate(-123.569 -438.073)" fill="#230211"/>
                </g>
              </g>
            </g>
            <path id="Pfad_3744" data-name="Pfad 3744" d="M86.174,496.389c-.6-2.259-2.967-3.5-5.1-4.454a57.289,57.289,0,0,0-12.638-4.378c-.816-.152-1.944-.076-2.11.737a1.337,1.337,0,0,0,.619,1.3A42.4,42.4,0,0,0,71.05,491.8c.039.318.088.405-.2.541a26.78,26.78,0,0,0-7.66-.521c-.682.052-1.632.41-1.811,1.174-.2.871.658,1.872,1.388,2.218a19.545,19.545,0,0,0,6.488,1.773c-.092.422.121.383.029.8a30.741,30.741,0,0,0-8.048,2.662,3.946,3.946,0,0,0-1.324.915,1.465,1.465,0,0,0-.3,1.508,3.436,3.436,0,0,0,2.669,1.412,38.1,38.1,0,0,0,7.824-1.02c.117.591.184.387.3.977a49.432,49.432,0,0,0-5.009,2.908,3.769,3.769,0,0,0-.982.834,1.2,1.2,0,0,0,.75,2.009,3.732,3.732,0,0,0,1.326-.021,45.54,45.54,0,0,0,9.264-2.238,11.54,11.54,0,0,0-1.644,5.136,2,2,0,0,0,.487,1.743,1.5,1.5,0,0,0,1.77-.091,5.164,5.164,0,0,0,1.195-1.47,19.453,19.453,0,0,1,4.459-4.828,21.424,21.424,0,0,0,2.528-2.034,4.163,4.163,0,0,0,1.3-2.885c.011.1-.1-.051-.093.045.543-2.525,1.087-4.467.419-6.962" transform="translate(-38.467 -315.105)" fill="#ffc294"/>
            <path id="Pfad_3745" data-name="Pfad 3745" d="M125.682,485.909a128.334,128.334,0,0,1,29.675-2.963,121.707,121.707,0,0,1,33.736,5.333v0a116.041,116.041,0,0,1,15.213,5.894c6.246-11.154,12.4-22.807,17.927-34.3q-2.935-.616-5.889-1.11-.981-.169-1.967-.32a154.194,154.194,0,0,0-18.4-1.73h0a158.014,158.014,0,0,0-39.879,3.72,154.345,154.345,0,0,0-33.4,11.6c1.016,4.617,1.97,9.265,2.986,13.881" transform="translate(-79.308 -295.148)" fill="#ffc294"/>
            <path id="Pfad_3746" data-name="Pfad 3746" d="M515.558,553.257l7.456,9.094s-18.57,24.959-33.291,27.339-39.2-50.978-39.172-51.469c.246-4.91,18.057-31.261,27.974-29.452,3.446.628,18.767,52.586,18.767,52.586Z" transform="translate(-291.225 -328.799)" fill="#ffc294"/>
            <g id="Gruppe_1820" data-name="Gruppe 1820" transform="translate(43.389 161.586)" opacity="0.3" style="mix-blend-mode: overlay;isolation: isolate">
              <g id="Gruppe_1819" data-name="Gruppe 1819">
                <g id="Gruppe_1818" data-name="Gruppe 1818" clip-path="url(#clip-path-8)">
                  <path id="Pfad_3747" data-name="Pfad 3747" d="M155.551,460.768a57.861,57.861,0,0,0,19.3,21.012c10.269,6.418,17.328-8.343,19.9-17.329a56.107,56.107,0,0,0,1.731-7.508,154.049,154.049,0,0,1,17.9,1.709q.986.15,1.967.319,2.955.495,5.889,1.11c-5.525,11.491-11.682,23.144-17.927,34.3a115.987,115.987,0,0,0-15.213-5.894v0a121.705,121.705,0,0,0-33.736-5.333,128.314,128.314,0,0,0-29.675,2.962c-1.016-4.616-1.969-9.264-2.985-13.881a154.311,154.311,0,0,1,32.854-11.469" transform="translate(-122.697 -456.943)" fill="#230211"/>
                </g>
              </g>
            </g>
            <g id="Gruppe_1823" data-name="Gruppe 1823" transform="translate(159.325 179.881)" opacity="0.3" style="mix-blend-mode: overlay;isolation: isolate">
              <g id="Gruppe_1822" data-name="Gruppe 1822">
                <g id="Gruppe_1821" data-name="Gruppe 1821" clip-path="url(#clip-path-9)">
                  <path id="Pfad_3748" data-name="Pfad 3748" d="M450.55,538.22c.246-4.91,18.057-31.261,27.974-29.453,2.259.412,9.622,22.886,14.426,38.317-3.127,13.841-4.486,28.159-5.623,42.532-14.829-3.006-36.8-50.932-36.777-51.4" transform="translate(-450.55 -508.679)" fill="#230211"/>
                </g>
              </g>
            </g>
            <path id="Pfad_3749" data-name="Pfad 3749" d="M140.253,694.978A121.4,121.4,0,0,1,164,698.4c6.99-18.174,13.573-36.065,18.838-54.811,3.851-13.712,17.411-22.274,30.853-24.5a52.6,52.6,0,0,1,22.042,1.167c24.137,6.426,39.385,27.853,34.059,47.857-.031.116-.065.229-.1.344,6.373,15.737,14.034,37.686,15.914,56.072,0,0-1.675,26.559-2.657,38.917-1.9.853-7.21,3.932-7.21,3.932-3.208-8.906-13-35.858-13-35.858-4.937-10.085-23.452-25.571-34.51-37.033a54.112,54.112,0,0,1-11.787-1.79q-1.626-.433-3.2-.956c-6.437,6.1-20.734,19.053-33.157,26.095-5.2,2.948-10.622,5.352-15.7,2.2l-.029-.018c-10.549-6.489-27.876-19.792-27.876-19.792Z" transform="translate(-88.22 -399.733)" fill="#ffc294"/>
            <path id="Pfad_3750" data-name="Pfad 3750" d="M95,827.375c3.594-6.3,11.293-8.828,17.022-13.271a16.189,16.189,0,0,1,3.005,4.394,96.25,96.25,0,0,1,15.6,2.091c.82,5.4.049,11.035-3.267,15.595a12.336,12.336,0,0,1-3.043,2.94c-5.011-4.089-10.2-7.954-15.507-11.7l-13.136,1.8A1.628,1.628,0,0,1,95,827.375" transform="translate(-61.343 -526.218)" fill="#f4b942"/>
            <path id="Pfad_3751" data-name="Pfad 3751" d="M181.141,848.037c3.316-4.56,4.086-10.19,3.267-15.595q.963.195,1.936.4a91.905,91.905,0,0,1,2.694,27.76c-3.524-3.365-7.181-6.557-10.939-9.624a12.328,12.328,0,0,0,3.043-2.94" transform="translate(-115.118 -538.071)" fill="#fce3ac"/>
            <path id="Pfad_3752" data-name="Pfad 3752" d="M513.469,968.789a30.328,30.328,0,0,0-5.586,5.6q-1.285-3.007-2.31-6.144A208.57,208.57,0,0,1,525.9,956.207q-.552,4.484-1.1,8.968a16.145,16.145,0,0,0-11.325,3.614" transform="translate(-326.791 -618.07)" fill="#fce3ac"/>
            <path id="Pfad_3753" data-name="Pfad 3753" d="M517.691,985.1a16.145,16.145,0,0,1,11.325-3.614q-.81,6.582-1.62,13.163l11.38-.692a1.627,1.627,0,0,1,.534,1.9c-4.059,6.008-11.926,7.95-17.975,11.948a16.21,16.21,0,0,1-2.992-5.568A70.743,70.743,0,0,1,512.1,990.7a30.33,30.33,0,0,1,5.586-5.6" transform="translate(-331.012 -634.382)" fill="#f4b942"/>
            <g id="Gruppe_1826" data-name="Gruppe 1826" transform="translate(78.072 218.688)" opacity="0.4" style="mix-blend-mode: overlay;isolation: isolate">
              <g id="Gruppe_1825" data-name="Gruppe 1825">
                <g id="Gruppe_1824" data-name="Gruppe 1824" clip-path="url(#clip-path-10)">
                  <path id="Pfad_3754" data-name="Pfad 3754" d="M220.775,692.4c6.13-16.128,11.859-32.132,16.544-48.811,3.851-13.712,17.411-22.274,30.852-24.5a52.6,52.6,0,0,1,22.042,1.167c24.137,6.426,39.385,27.853,34.059,47.857-.031.116-.065.229-.1.344,4.733,11.688,10.175,26.8,13.433,41.337a106.959,106.959,0,0,1-29.257,9.988c-7.752-8.374-18.325-17.714-25.638-25.294a54.109,54.109,0,0,1-11.787-1.79q-1.625-.433-3.2-.956a253.259,253.259,0,0,1-22.1,18.776,100.984,100.984,0,0,1-10.591-6.273A103.212,103.212,0,0,1,220.775,692.4" transform="translate(-220.775 -618.421)" fill="#230211"/>
                </g>
              </g>
            </g>
            <path id="Pfad_3755" data-name="Pfad 3755" d="M.255,78.558C1.275,88.871,5.475,99,12.766,106.366a40.406,40.406,0,0,0,29.679,11.812,40.407,40.407,0,0,0,28.829-13.766c5.616-6.5,8.969-14.575,12.807-22.254S92.6,66.8,99.857,62.214s17.71-5.118,23.852.876A10.663,10.663,0,0,1,125.3,61.6c.661-.527,1.4-1.056,2.125-1.585.234-.17.469-.343.7-.513a19.463,19.463,0,0,0,1.659-1.354,7.3,7.3,0,0,0,.7-.725A70.934,70.934,0,0,0,89.954,35.048,68,68,0,0,0,44.5,43.372C38.024,47.2,32.078,52.19,24.867,54.317c-6.078,1.79-13.593.732-17.688-3.732A10.934,10.934,0,0,1,5.27,47.726q-.506,1.242-.969,2.512C1.025,59.208-.679,69.13.255,78.558" transform="translate(0 -22.055)" fill="#f2e0bc"/>
            <path id="Pfad_3756" data-name="Pfad 3756" d="M19.216,98.422c6.479,10.952,18.74,19.5,31.9,15.891,13.3-3.649,20.9-16.17,27.526-27.234C85.448,75.725,94,62.857,108.488,61.6c9.1-.786,17.168,2.615,23.711,8.164.661-.527,1.4-1.056,2.124-1.585a46.386,46.386,0,0,0-21.031-13.673A45.475,45.475,0,0,0,80.311,57.19a44.79,44.79,0,0,0-13.7,10.143c-3.7,4.053-6.7,8.68-10.327,12.8-3.61,4.1-7.99,7.669-13.526,8.59-5.622.934-11.417-.947-16.032-4.126C19.142,79.37,15.548,71.1,13.886,62.4a26.918,26.918,0,0,0,12.98,11.979A23.883,23.883,0,0,0,41.5,75.558c5.179-1.222,9.293-4.393,13.185-7.872a70.709,70.709,0,0,1,13.7-9.983,93.3,93.3,0,0,1,16.378-6.9A41.561,41.561,0,0,1,102.038,49a46.238,46.238,0,0,1,16.324,5.337,64.545,64.545,0,0,1,16.657,13.33,19.473,19.473,0,0,0,1.659-1.354,64.389,64.389,0,0,0-18.74-14.565A44.384,44.384,0,0,0,86.5,48.183a91.3,91.3,0,0,0-16.061,6.232A61.364,61.364,0,0,0,56.7,63.306c-4.069,3.559-7.872,7.724-13.022,9.72a22.144,22.144,0,0,1-15.75.023,24.149,24.149,0,0,1-13.853-14.3,10.943,10.943,0,0,1-1.909-2.859q-.506,1.242-.969,2.512a63.847,63.847,0,0,0,8.016,40.015M12.432,61.2C13.883,71.2,18,80.949,26.651,86.61a24,24,0,0,0,15,4.13c5.282-.475,9.868-3.119,13.635-6.745,4-3.851,7.088-8.513,10.606-12.781A45.134,45.134,0,0,1,79.13,60.1a42.757,42.757,0,0,1,44.056,1.283,31.306,31.306,0,0,0-14.7-2.118C95.19,60.611,86.3,71.021,79.679,81.7c-7.069,11.411-13.593,25.424-27.109,30.376a23.3,23.3,0,0,1-19.6-1.867c-6.02-3.386-10.484-8.866-13.651-14.922-5.51-10.544-7.448-22.344-6.886-34.082" transform="translate(-6.899 -30.222)" fill="#e5cfa8"/>
            <g id="Gruppe_1829" data-name="Gruppe 1829" transform="translate(15.823 12.072)" opacity="0.4" style="mix-blend-mode: overlay;isolation: isolate">
              <g id="Gruppe_1828" data-name="Gruppe 1828">
                <g id="Gruppe_1827" data-name="Gruppe 1827" clip-path="url(#clip-path-11)">
                  <path id="Pfad_3757" data-name="Pfad 3757" d="M74.087,103.527c8.343-5.455,13.157-13.8,17.007-22.783,6.491-15.626,10.461-31.432,17.306-46.608a67.227,67.227,0,0,1,10.476.922A70.936,70.936,0,0,1,159.4,57.43a7.3,7.3,0,0,1-.7.725,19.415,19.415,0,0,1-1.659,1.354c-.228.17-.462.343-.7.513-.725.529-1.463,1.059-2.124,1.585A10.628,10.628,0,0,0,152.63,63.1c-6.142-5.994-16.593-5.461-23.852-.876S116.844,74.488,113,82.167s-7.191,15.759-12.807,22.254a39.858,39.858,0,0,1-55.451,4.728c10.17,1.2,20.183.135,29.342-5.622" transform="translate(-44.745 -34.137)" fill="#230211"/>
                </g>
              </g>
            </g>
            <path id="Pfad_3758" data-name="Pfad 3758" d="M260.043,68.947c2.231.217,4.474.545,6.7.986a66.953,66.953,0,0,1,9.611,2.639c8.647-7.96,19.524-15.262,29.057-22.138a191.671,191.671,0,0,0-15.739-19.566q-1.789-1.95-3.633-3.848a103.034,103.034,0,0,0-27.634,9.119c-.071,11.079-.071,21.86,1.635,32.808" transform="translate(-167.015 -17.466)" fill="#fce3ac"/>
            <path id="Pfad_3759" data-name="Pfad 3759" d="M279.591,76.966a66.958,66.958,0,0,1,9.611,2.639c8.647-7.96,19.524-15.262,29.057-22.138A191.572,191.572,0,0,0,302.52,37.9a106.485,106.485,0,0,0-24.24,8.482c-.065,10.33-.071,20.4,1.311,30.582" transform="translate(-179.86 -24.499)" fill="#f4b942"/>
            <path id="Pfad_3760" data-name="Pfad 3760" d="M643.046,613.742c1.941,1.3,4.538.688,6.773,0a57.279,57.279,0,0,0,12.4-5.013c.715-.422,1.515-1.221,1.1-1.943a1.337,1.337,0,0,0-1.32-.57,42.291,42.291,0,0,0-4.547,1.036c-.239-.214-.333-.247-.2-.541a26.766,26.766,0,0,0,6.114-4.645,1.945,1.945,0,0,0,.592-2.075c-.419-.79-1.589-.221-2.366,0-2.049.579-4.349,1.669-6.192,2.174a3.962,3.962,0,0,1-.551-.587,30.724,30.724,0,0,0,4.312-7.3,3.943,3.943,0,0,0,.4-1.56,1.438,1.438,0,0,0-.768-1.33c-2.016-.828-5.789,5.71-8.163,6.6-.477-.368-.393-.17-.87-.538a49.45,49.45,0,0,0,1.861-5.485,3.766,3.766,0,0,0,.192-1.274,1.2,1.2,0,0,0-1.886-1.021,3.738,3.738,0,0,0-.985.887,45.549,45.549,0,0,0-5.507,7.779,11.544,11.544,0,0,0-2.139-4.95,2.005,2.005,0,0,0-1.512-.993,1.5,1.5,0,0,0-1.274,1.232,5.172,5.172,0,0,0,.067,1.893,19.457,19.457,0,0,1-.184,6.57,21.425,21.425,0,0,0-.566,3.2,4.164,4.164,0,0,0,.92,3.027c-.071-.065.112-.03.041-.1,1.251,2.26,2.119,4.08,4.262,5.521" transform="translate(-412.27 -381.026)" fill="#ffc294"/>
            <path id="Pfad_3761" data-name="Pfad 3761" d="M427.677,439.438l6.153-9.87,20.809,6.2-2.282,11.155a40.073,40.073,0,0,1-24.68-7.485" transform="translate(-276.44 -277.663)" fill="#f4a178"/>
            <path id="Pfad_3762" data-name="Pfad 3762" d="M444.2,464.963l-1.721,8.412L415.05,464.64l4.465-7.162a40.073,40.073,0,0,0,24.68,7.485" transform="translate(-268.278 -295.703)" fill="#ffc294"/>
            <path id="Pfad_3763" data-name="Pfad 3763" d="M318.483,137.139c3.086,14.684,6.444,29.5,13.193,42.895s17.316,25.439,31.23,31.048c10.736,4.326,22.694,4.575,34.207,3.405,9.006-.912,18.1-2.714,26-7.135,12.265-6.867,20.322-19.526,23.843-33.263a64.933,64.933,0,0,0,1.7-9.575,85.739,85.739,0,0,0-.622-21.1,150.547,150.547,0,0,0-7.931-29.588,54.3,54.3,0,0,0-33.565-32.679c-15.391-5.008-32.485-3.045-47.45,3.12-10.868,4.471-20.949,11.2-28.358,20.324s-14.663,21.046-12.246,32.545" transform="translate(-205.554 -50.617)" fill="#ffc294"/>
            <path id="Pfad_3764" data-name="Pfad 3764" d="M618.389,205.976a3.983,3.983,0,0,1,1.8,2.852,2.839,2.839,0,0,1-1.571,2.342,6.625,6.625,0,0,1-2.86.652,20.473,20.473,0,0,1-10.149-1.993c-2.2-1.1-7.733-4.5-5-7.412a3.425,3.425,0,0,1,1.649-.871c3.88-1.038,8.718.195,12.214,1.923a20.813,20.813,0,0,1,3.908,2.506" transform="translate(-387.743 -130.029)" fill="#f2e0bc"/>
            <path id="Pfad_3765" data-name="Pfad 3765" d="M418.522,219.37a3.985,3.985,0,0,0-.48,3.34,2.839,2.839,0,0,0,2.391,1.5,6.63,6.63,0,0,0,2.876-.574,20.475,20.475,0,0,0,8.447-5.967c1.558-1.9,5.221-7.264,1.53-8.807a3.422,3.422,0,0,0-1.861-.121c-3.964.639-7.877,3.741-10.361,6.748a20.772,20.772,0,0,0-2.543,3.884" transform="translate(-270.078 -134.877)" fill="#f2e0bc"/>
            <g id="Gruppe_1832" data-name="Gruppe 1832" transform="translate(127.415 131.878)" opacity="0.2" style="mix-blend-mode: overlay;isolation: isolate">
              <g id="Gruppe_1831" data-name="Gruppe 1831">
                <g id="Gruppe_1830" data-name="Gruppe 1830" clip-path="url(#clip-path-12)">
                  <path id="Pfad_3766" data-name="Pfad 3766" d="M441.377,394.315a82.978,82.978,0,0,0,28.161-17.1c-4.345,8.551-10.74,15.907-19.085,20.58-7.9,4.421-16.991,6.224-26,7.137-11.514,1.167-23.473.92-34.207-3.408-13.058-5.264-23.165-16.189-29.939-28.587,21.161,20.927,50.2,32.244,81.065,21.38" transform="translate(-360.312 -372.935)" fill="#230211"/>
                </g>
              </g>
            </g>
            <g id="Gruppe_1835" data-name="Gruppe 1835" transform="translate(222.619 92.194)" opacity="0.2">
              <g id="Gruppe_1834" data-name="Gruppe 1834">
                <g id="Gruppe_1833" data-name="Gruppe 1833" clip-path="url(#clip-path-13)">
                  <path id="Pfad_3767" data-name="Pfad 3767" d="M640.973,292.03a11.774,11.774,0,0,0,7.344-.039,64.881,64.881,0,0,0,1.7-9.575,85.738,85.738,0,0,0-.622-21.1c-5.853-1.492-12.2-.314-16.4,4.461-7.286,8.267-2.31,23.1,7.982,26.251" transform="translate(-629.535 -260.713)" fill="#f25c68"/>
                </g>
              </g>
            </g>
            <path id="Pfad_3768" data-name="Pfad 3768" d="M571.295,310.395c2.639-2.275,3.894-6.273,2.421-9.431.088.19-.317.99-.391,1.19q-.23.614-.509,1.207a16.6,16.6,0,0,1-1.3,2.272A17.44,17.44,0,0,1,568,309.424a17.045,17.045,0,0,1-4.528,2.606c-.219.084-.652.127-.64.426.008.222.362.418.53.5a4.49,4.49,0,0,0,2.39-.065,11.348,11.348,0,0,0,5.545-2.492" transform="translate(-363.799 -194.536)" fill="#ef8860"/>
            <path id="Pfad_3769" data-name="Pfad 3769" d="M621.335,272.318c-.251,1.043-.814,2.072-1.977,2.006-1.137-.064-2.092-1.26-2.525-2.213a7.743,7.743,0,0,1-.434-5.189c.228-.837.743-1.746,1.6-1.85a2.143,2.143,0,0,1,1.688.792,7.046,7.046,0,0,1,1.806,5.368,6.679,6.679,0,0,1-.163,1.086" transform="translate(-398.257 -171.33)" fill="#470621"/>
            <path id="Pfad_3770" data-name="Pfad 3770" d="M456.616,284.111c-.251,1.043-.814,2.072-1.977,2.006-1.137-.064-2.092-1.26-2.525-2.213a7.744,7.744,0,0,1-.434-5.189c.228-.837.743-1.746,1.6-1.849a2.142,2.142,0,0,1,1.688.792,7.046,7.046,0,0,1,1.806,5.368,6.685,6.685,0,0,1-.163,1.086" transform="translate(-291.787 -178.954)" fill="#470621"/>
            <path id="Pfad_3771" data-name="Pfad 3771" d="M445.733,480.06c-9.627,8.022-23.425,2.888-29.522-7.06a36.057,36.057,0,0,1-3.02-7.8c11.036,1.477,26.558,6.9,35.6,11.52a24.828,24.828,0,0,1-3.056,3.335" transform="translate(-267.077 -300.698)" fill="#ffc294"/>
            <path id="Pfad_3772" data-name="Pfad 3772" d="M293.292,505.028c12.817-16.082,13.477-38.264,18.5-40.2,2.29-.882,5.883-.9,10.146-.33a36.043,36.043,0,0,0,3.02,7.8c6.1,9.948,19.9,15.082,29.522,7.06a24.8,24.8,0,0,0,3.056-3.335,34.274,34.274,0,0,1,5.712,3.488c2.056,1.672,6.266,22.957,3.216,47.149a239.461,239.461,0,0,1-9.088,42.093L272.022,539.6s3.769-12.617,21.27-34.576" transform="translate(-175.829 -299.989)" fill="#ef709d"/>
            <path id="Pfad_3773" data-name="Pfad 3773" d="M477.074,358.792a16.347,16.347,0,0,1,4.085-2.7c.4-.149.889.254.6.673a7.48,7.48,0,0,1-.753.914c.016.016.033.03.049.047,3.74,3.918,7.757,7.864,12.8,10.05,4.6,1.992,9.928,2.553,14.649.651.962-.388,1.707,1.006.74,1.458-11.078,5.18-23.146-1.8-30.036-10.519-.021-.027-.039-.053-.057-.08-.331.253-.661.5-.98.745-.836.641-1.939-.575-1.1-1.235" transform="translate(-308.175 -230.147)" fill="#ef8860"/>
            <path id="Pfad_3774" data-name="Pfad 3774" d="M322.46,690.627a277.181,277.181,0,0,1,14.459,30.988,105.838,105.838,0,0,1-120.6-25.147A109.521,109.521,0,0,1,238.3,657.835C264.84,672.3,293.348,682.5,322.46,690.627" transform="translate(-139.821 -425.209)" fill="#ef709d"/>
            <path id="Pfad_3775" data-name="Pfad 3775" d="M609.864,636.978c-2.474-4.509-5.161-8.162-7.889-12.495-5.954,2.3-11.932,5.9-17.531,8.028a32.822,32.822,0,0,1-3.265,1.072c-.009,5.652.227,11.455.7,17.184a63.422,63.422,0,0,0,13.213,6.368q1.2-1.279,2.355-2.606a107.481,107.481,0,0,0,12.416-17.551" transform="translate(-375.66 -403.651)" fill="#fce3ac"/>
            <path id="Pfad_3776" data-name="Pfad 3776" d="M603.415,658.129a63.311,63.311,0,0,1-12.3-6.044c-.441-5.323-.674-10.709-.7-15.974,4.17-1.587,8.55-3.985,12.974-6.058,3.375,4.846,6.6,9.812,9.932,14.719a106.237,106.237,0,0,1-9.9,13.357" transform="translate(-381.628 -407.252)" fill="#f4b942"/>
            <g id="Gruppe_1838" data-name="Gruppe 1838" transform="translate(112.456 27.691)" opacity="0.3" style="mix-blend-mode: overlay;isolation: isolate">
              <g id="Gruppe_1837" data-name="Gruppe 1837">
                <g id="Gruppe_1836" data-name="Gruppe 1836" clip-path="url(#clip-path-14)">
                  <path id="Pfad_3777" data-name="Pfad 3777" d="M330.729,104.6c7.409-9.12,17.49-15.853,28.359-20.324,14.965-6.164,32.059-8.128,47.45-3.12A54.306,54.306,0,0,1,440.1,113.83q.949,2.6,1.838,5.227a27.167,27.167,0,0,0-10.88-5.269c0,11.873-.321,23.746-2.567,35.619-14.761-11.553-23.1-29.2-36.9-41.716,3.53,8.022,7.06,15.724,8.343,24.388-12.836-7.7-24.067-17.97-37.224-25.03a54.361,54.361,0,0,1-30.164,37.224c-.321.321.321.963.321,1.284a37.545,37.545,0,0,1-11.171,5.93c-1.172-4.761-2.207-9.561-3.213-14.347-2.416-11.5,4.837-23.421,12.246-32.544" transform="translate(-318.01 -78.308)" fill="#230211"/>
                </g>
              </g>
            </g>
            <path id="Pfad_3778" data-name="Pfad 3778" d="M296.987,117.469A36.806,36.806,0,0,0,301.6,92.15,78.394,78.394,0,0,0,324.3,49.109c6.517-1.154,13.115.443,18.934,3.734S354.1,60.72,359.1,65.267a46.814,46.814,0,0,0-6.618-20.135A99.77,99.77,0,0,1,392.5,86.257a84.423,84.423,0,0,0-2.4-31.537,40.157,40.157,0,0,1,25.466,20.108,44.075,44.075,0,0,1,2.673,33.455c8.537-9.324,12.276-22.818,13.319-35.71.949-11.72.13-23.719-3.55-34.827S417.646,16.453,408.382,9.853C397.91,2.392,384.85-.086,372.2,0a104.011,104.011,0,0,0-65.975,24.736c-10.229,8.67-24.355,12.8-30.7,24.9A56.548,56.548,0,0,0,271.06,89.76a53.8,53.8,0,0,0,23.525,31.953c.152-1.759,1.539-2.729,2.4-4.244" transform="translate(-174.031 -0.001)" fill="#f2e0bc"/>
            <path id="Pfad_3779" data-name="Pfad 3779" d="M613.33,40.89c9.924,2.043,18.48,8.321,24.592,16.256,7.055,9.158,10.569,20.4,11.718,31.8a96.661,96.661,0,0,1,.459,10.422,62.579,62.579,0,0,1-.684,10.551c-.094.523-.9.384-.906-.123-.068-5.912.466-11.756.027-17.679A75.941,75.941,0,0,0,645.221,74.5c-3.153-9.816-8.957-18.9-17.255-25.142a39.066,39.066,0,0,0-15.046-6.975c-.973-.216-.559-1.689.411-1.489" transform="translate(-395.818 -26.419)" fill="#e5cfa8"/>
            <path id="Pfad_3780" data-name="Pfad 3780" d="M610.12,72.608a46.04,46.04,0,0,1,28.432,34.44c.108.614-.814.887-.948.261a46.264,46.264,0,0,0-27.921-33.115c-.973-.382-.553-1.97.437-1.586" transform="translate(-393.728 -46.894)" fill="#e5cfa8"/>
            <path id="Pfad_3781" data-name="Pfad 3781" d="M469.078,77.75a74.8,74.8,0,0,1,39.52,29.624,69.358,69.358,0,0,1,6.683,12.421c.216.521-.676.9-.916.387a77.514,77.514,0,0,0-32.9-35.255,81.472,81.472,0,0,0-12.815-5.61c-.981-.333-.577-1.873.432-1.567" transform="translate(-302.558 -50.23)" fill="#e5cfa8"/>
            <path id="Pfad_3782" data-name="Pfad 3782" d="M448.74,112.071c9.023,2.277,17.912,8.553,21.838,17.19a.432.432,0,0,1-.745.435,41.469,41.469,0,0,0-9.326-10.269,35.44,35.44,0,0,0-12.184-5.848.783.783,0,0,1,.416-1.509" transform="translate(-289.426 -72.423)" fill="#e5cfa8"/>
            <path id="Pfad_3783" data-name="Pfad 3783" d="M536.269,81.875c8.5,5.506,17.177,11.937,20.414,21.99.2.635-.757.877-.987.272-3.583-9.481-12.047-15.571-20.237-20.876-.864-.559-.06-1.949.81-1.386" transform="translate(-345.869 -52.837)" fill="#e5cfa8"/>
            <path id="Pfad_3784" data-name="Pfad 3784" d="M345.409,181.608A64.5,64.5,0,0,0,367.115,142.9c.078-.5.951-.385.887.12a62.4,62.4,0,0,1-21.473,39.708c-.774.651-1.9-.452-1.12-1.12" transform="translate(-223.094 -92.16)" fill="#e5cfa8"/>
            <path id="Pfad_3785" data-name="Pfad 3785" d="M301.68,195.215a72.556,72.556,0,0,0,29.609-32.905c.2-.462,1.022-.126.825.348a69.486,69.486,0,0,1-29.664,33.874.763.763,0,0,1-.769-1.316" transform="translate(-194.761 -104.771)" fill="#e5cfa8"/>
            <path id="Pfad_3786" data-name="Pfad 3786" d="M315.7,326.146c-1.688-7.609-3.271-13.9-7.681-20.322-3.386-4.934-10.889-6.173-15.982-3.031s-7.4,9.918-5.841,15.695,6.593,10.314,12.368,11.88a22.673,22.673,0,0,0,17.26-2.722Z" transform="translate(-184.678 -194.605)" fill="#ffc294"/>
            <path id="Pfad_3787" data-name="Pfad 3787" d="M303.1,336.6c-1.861.669-3.681,1.892-4.034,3.713-.393,2.026,1.158,4.031,2.9,5.425a19.072,19.072,0,0,0,12.552,4.058c2.52-.116,4.661-1.082,5.2-3.486a10.1,10.1,0,0,0-.527-5.349c-1.133-3.058-4.425-4.145-7.545-4.817a15.71,15.71,0,0,0-8.553.455" transform="translate(-193.272 -217.028)" fill="#f4a178"/>
            <g id="Gruppe_1841" data-name="Gruppe 1841" transform="translate(127.107 106.672)" opacity="0.2">
              <g id="Gruppe_1840" data-name="Gruppe 1840">
                <g id="Gruppe_1839" data-name="Gruppe 1839" clip-path="url(#clip-path-15)">
                  <path id="Pfad_3788" data-name="Pfad 3788" d="M386.087,326.235c-3.238,5.255-8.7,8.731-15.207,6.74-10.292-3.149-15.267-17.983-7.982-26.249,4.859-5.515,12.565-6.232,19.074-3.586,8.83,3.59,8.919,15.3,4.115,23.1" transform="translate(-359.442 -301.656)" fill="#f25c68"/>
                </g>
              </g>
            </g>
            <path id="Pfad_3789" data-name="Pfad 3789" d="M342.028,467.841a228.021,228.021,0,0,0,2.474-55.409c2,1,3.937,2.115,5.823,3.313,1.143,17.757-1.385,35.737-8.3,52.1" transform="translate(-221.079 -266.587)" fill="#fce3ac"/>
            <path id="Pfad_3790" data-name="Pfad 3790" d="M348.457,421.8a68.042,68.042,0,0,1,16.988,15.348A224.522,224.522,0,0,1,339.138,479.5c.368-1.86.7-3.728,1.022-5.6,6.912-16.359,9.44-34.34,8.3-52.1" transform="translate(-219.211 -272.642)" fill="#f25c68"/>
            <path id="Pfad_3791" data-name="Pfad 3791" d="M552.378,494.131a74.9,74.9,0,0,1-12.217,37.5,126.983,126.983,0,0,0,5.689-37.123,27.364,27.364,0,0,1,6.527-.38" transform="translate(-349.147 -319.361)" fill="#fce3ac"/>
            <path id="Pfad_3792" data-name="Pfad 3792" d="M508.434,505.043a28.649,28.649,0,0,1,16.909-9.741,126.974,126.974,0,0,1-5.689,37.123,69.669,69.669,0,0,1-10.51,12.414,119.788,119.788,0,0,0-.709-39.8" transform="translate(-328.64 -320.152)" fill="#f25c68"/>
            <path id="Pfad_3793" data-name="Pfad 3793" d="M121.425,478.16c.558,5.125,1.508,10.008,2.458,15.075,8.2.308,15.476-.46,23.167-.139,1.518.061,2.987.17,4.4.343,2.956-5.163,5.7-10.564,8.131-15.993a70.906,70.906,0,0,0-12.213-11.177q-2.075.683-4.127,1.428a128.864,128.864,0,0,0-21.813,10.463" transform="translate(-78.486 -301.385)" fill="#fce3ac"/>
            <path id="Pfad_3794" data-name="Pfad 3794" d="M155.566,470.307a70.409,70.409,0,0,1,11.315,10.513c-2.256,5.044-4.788,10.063-7.5,14.886-5.53-.231-11.684.149-17.753.267-.566-6.386-.986-12.793-1.127-19.264a151.077,151.077,0,0,1,15.068-6.4" transform="translate(-90.815 -303.996)" fill="#f4b942"/>
            <path id="Pfad_3795" data-name="Pfad 3795" d="M433.885,564.916a6.3,6.3,0,0,0-5.238-5.007,10.336,10.336,0,0,0-7.337,1.855,37.486,37.486,0,0,0-6.15,5.921,18.381,18.381,0,0,0-2.011-7.61,10.64,10.64,0,0,0-5.83-5.1,7.533,7.533,0,0,0-7.412,1.476c-2.4,2.29-2.671,6.013-2.316,9.31.946,8.82,5.2,17.033,10.8,23.916A108.792,108.792,0,0,0,421.6,581.49,36.773,36.773,0,0,0,432.371,570.3a8.716,8.716,0,0,0,1.514-5.386m-15.742,14.6a64.3,64.3,0,0,1-7.874,4.878,27.725,27.725,0,0,1-6.437-14.251c-.21-1.966-.048-4.186,1.379-5.551a4.491,4.491,0,0,1,4.416-.877,6.343,6.343,0,0,1,3.477,3.038,10.947,10.947,0,0,1,1.2,4.537,22.412,22.412,0,0,1,3.667-3.528,6.156,6.156,0,0,1,4.373-1.107,3.759,3.759,0,0,1,3.121,2.985,5.183,5.183,0,0,1-.9,3.209,21.884,21.884,0,0,1-6.416,6.665" transform="translate(-256.912 -358.471)" fill="#f4b942"/>
            <path id="Pfad_3796" data-name="Pfad 3796" d="M495.06,767.311a.661.661,0,0,1,1.125,0,43.921,43.921,0,0,1,7.668,18.069c.105.612-.809.887-.948.261a47.318,47.318,0,0,0-7.158-16.7,14.253,14.253,0,0,0-.157,4.364q.068,2.695.176,5.388c.15,3.592.415,7.175.638,10.762.055.884-1.283.862-1.364,0-.377-4-.558-8.018-.7-12.03q-.1-2.852-.129-5.706a7.5,7.5,0,0,1,.846-4.408" transform="translate(-319.446 -495.769)" fill="#e03f53"/>
            <path id="Pfad_3797" data-name="Pfad 3797" d="M377.725,773.815c1.883-5.112,4.025-10.13,6.268-15.093,1.106-2.447,2.273-4.868,3.456-7.278.637-1.3,1.29-2.59,1.936-3.884a6.492,6.492,0,0,1,1.552-2.551c1.583-1.117,2.085.974,2.328,2.083q.8,3.652,1.286,7.364a85.861,85.861,0,0,1,.54,16.417c-.037.6-.967.61-.943,0a92.483,92.483,0,0,0-.432-13.391q-.373-3.557-1.043-7.072a15.125,15.125,0,0,0-.76-3.576c-.308-.617-.208-.722-.722-.011a10.8,10.8,0,0,0-.815,1.675c-4.027,8.437-7.553,17.1-11.084,25.75-.386.946-1.933.564-1.567-.432" transform="translate(-244.116 -481.351)" fill="#e03f53"/>
            <path id="Pfad_3798" data-name="Pfad 3798" d="M293.213,737.859a110.834,110.834,0,0,1,9.3-9.453,55.253,55.253,0,0,1,4.92-3.879c1.014-.7,2.859-2.5,4.146-1.48,1.227.971.772,3.051.472,4.337a61.939,61.939,0,0,1-1.995,6.692,66.711,66.711,0,0,1-5.776,12.25.522.522,0,0,1-.9-.526A87.632,87.632,0,0,0,308,735.315q.983-2.737,1.761-5.544.35-1.262.654-2.536a8.745,8.745,0,0,0,.3-1.6c0-.17.005-.342.008-.512q.108-.948-.374-.494c-.559.033-1.625,1.065-2.06,1.375q-1.253.891-2.443,1.868c-1.349,1.105-2.639,2.279-3.892,3.491-2.582,2.5-5,5.168-7.451,7.792-.806.863-2.07-.419-1.29-1.291" transform="translate(-189.368 -467.163)" fill="#e03f53"/>
            <path id="Pfad_3799" data-name="Pfad 3799" d="M253.8,707.239a39.567,39.567,0,0,1,14.007-9.492c.61-.253,1.055.549.8,1.036a64.861,64.861,0,0,1-7.466,11.119c-.368.441-1.156-.156-.8-.62a74.03,74.03,0,0,0,6.049-9.318,43.334,43.334,0,0,0-11.377,8.479c-.77.788-1.952-.4-1.206-1.205" transform="translate(-163.897 -450.976)" fill="#e03f53"/>
            <g id="Gruppe_1844" data-name="Gruppe 1844" transform="translate(77.018 232.626)" opacity="0.2" style="mix-blend-mode: overlay;isolation: isolate">
              <g id="Gruppe_1843" data-name="Gruppe 1843">
                <g id="Gruppe_1842" data-name="Gruppe 1842" clip-path="url(#clip-path-16)">
                  <path id="Pfad_3800" data-name="Pfad 3800" d="M323.418,690.627q1.474,2.709,2.881,5.455c-20.746,1.13-42.429-4.051-63.341-8.721-15.793-3.509-32.384-1.951-45.161,7.584a109.064,109.064,0,0,1,21.459-37.111C265.8,672.3,294.305,682.5,323.418,690.627" transform="translate(-217.797 -657.835)" fill="#230211"/>
                </g>
              </g>
            </g>
            <path id="Pfad_3801" data-name="Pfad 3801" d="M362.413,666.291s-1.475,10.979-2.131,11.47-19.335-3.113-40.637-10.323-47.192-23.432-47.683-23.924,4.752-8.848,5.244-9.013,23.187,10.323,45.308,19.417a266.018,266.018,0,0,0,39.9,12.372" transform="translate(-175.769 -410.126)" fill="#f4b942"/>
            <path id="Pfad_3802" data-name="Pfad 3802" d="M494.839,711.5a90.314,90.314,0,0,1-4.365,16.915,8.4,8.4,0,0,1-3.9-1.366c1.284-5.554,2.266-11.424,3.191-17.049a16.173,16.173,0,0,0,5.074,1.5" transform="translate(-314.509 -458.926)" fill="#f25c68"/>
            <path id="Pfad_3803" data-name="Pfad 3803" d="M441.089,694.816a90.317,90.317,0,0,1-4.365,16.915,8.4,8.4,0,0,1-3.9-1.366c1.284-5.555,2.266-11.424,3.191-17.049a16.173,16.173,0,0,0,5.074,1.5" transform="translate(-279.766 -448.143)" fill="#f25c68"/>
            <path id="Pfad_3804" data-name="Pfad 3804" d="M389.076,677.6a90.3,90.3,0,0,1-8.338,15.351,8.4,8.4,0,0,1-3.453-2.272c2.593-5.077,4.969-10.533,7.232-15.766a16.164,16.164,0,0,0,4.559,2.686" transform="translate(-243.868 -436.247)" fill="#f25c68"/>
            <path id="Pfad_3805" data-name="Pfad 3805" d="M341.864,657.444a90.306,90.306,0,0,1-9.48,14.674,8.4,8.4,0,0,1-3.27-2.528c2.971-4.866,5.755-10.125,8.408-15.171a16.161,16.161,0,0,0,4.342,3.025" transform="translate(-212.731 -423.001)" fill="#f25c68"/>
            <path id="Pfad_3806" data-name="Pfad 3806" d="M301.087,637.055a90.3,90.3,0,0,1-9.48,14.674,8.4,8.4,0,0,1-3.27-2.528c2.971-4.865,5.755-10.125,8.408-15.171a16.168,16.168,0,0,0,4.342,3.025" transform="translate(-186.374 -409.822)" fill="#f25c68"/>
          </g>
        </g>
      </g>
    </g>
    <g id="Gruppe_1902" data-name="Gruppe 1902" transform="translate(7644.765 1978.123)">
      <g id="Gruppe_1896" data-name="Gruppe 1896" clip-path="url(#clip-path-17)">
        <g id="Gruppe_1895" data-name="Gruppe 1895" transform="translate(0 -0.002)">
          <g id="Gruppe_1894" data-name="Gruppe 1894" clip-path="url(#clip-path-18)">
            <path id="Pfad_3807" data-name="Pfad 3807" d="M286.442,551.22c18.048,11.25,34.547,20.04,55.075,25.6s43.889,4.534,61.27-7.722c6.663,9.462,3.683,24.742-4.457,32.967-3.683,3.721-8.7,6.506-10.587,11.389-2.445,6.316,1.333,13.122,2.878,19.715A30.483,30.483,0,0,1,387.7,654.26a12.873,12.873,0,0,1-12.022,6.7c-10.747-.494-22.92,6.523-27.2,16.091-2.2,4.921-2.749,10.388-3.7,15.693s-2.461,10.765-6.11,14.733-9.988,5.914-14.6,3.117c-2-1.216-3.525-3.2-5.692-4.091-2.992-1.236-6.511-.06-9.056,1.941s-4.4,4.729-6.523,7.17c-10.749,12.338-29.641,16.767-44.754,10.491-22.223-52.246-34.323-108.066-33.333-164.834,20.661-1.167,42.694-1.924,61.725-10.051" transform="translate(-145.215 -356.294)" fill="#56b085"/>
            <g id="Gruppe_1851" data-name="Gruppe 1851" transform="translate(79.445 194.926)" opacity="0.2" style="mix-blend-mode: overlay;isolation: isolate">
              <g id="Gruppe_1850" data-name="Gruppe 1850">
                <g id="Gruppe_1849" data-name="Gruppe 1849" clip-path="url(#clip-path-19)">
                  <path id="Pfad_3808" data-name="Pfad 3808" d="M314.319,609.889c-.168-14.146,6.382-26.7,16.122-36.5-15.645-5.482-29.309-13.008-44-22.165-19.031,8.127-41.064,8.885-61.725,10.051-.99,56.767,11.11,112.588,33.333,164.834,15.112,6.276,34,1.847,44.753-10.491,2.127-2.441,3.978-5.17,6.523-7.171s6.064-3.177,9.056-1.941c2.167.9,3.688,2.874,5.692,4.091,4.608,2.8,10.947.852,14.6-3.117s5.155-9.428,6.11-14.733c.861-4.783,1.4-9.7,3.105-14.224a43.19,43.19,0,0,0-10.462-26.272c-10.91-12.515-22.783-25.03-23.1-42.358" transform="translate(-224.66 -551.22)" fill="#230211"/>
                </g>
              </g>
            </g>
            <path id="Pfad_3809" data-name="Pfad 3809" d="M76.141,439.142C68.8,432.464,61.047,425.564,55.4,417.3c-3.9,2.665-4.288,3.4-8.193,6.063,4.222,11.036,7.417,22.891,14.04,32.672a158.176,158.176,0,0,0,17.667,21.671c3.639-9.081,8.16-17.887,12.652-26.62a123.6,123.6,0,0,1-15.423-11.95" transform="translate(-30.512 -269.734)" fill="#c67d3c"/>
            <path id="Pfad_3810" data-name="Pfad 3810" d="M572.789,407.445c1.9,1.368,4.512.837,6.769.222a57.3,57.3,0,0,0,12.558-4.6c.728-.4,1.554-1.171,1.168-1.906a1.338,1.338,0,0,0-1.3-.613,42.253,42.253,0,0,0-4.579.887c-.232-.221-.325-.258-.186-.547a26.778,26.778,0,0,0,6.263-4.442,1.945,1.945,0,0,0,.66-2.055,2.333,2.333,0,0,0-2.478-.84,19.545,19.545,0,0,0-6.147,2.73c-.2-.385-.336-.22-.531-.6a30.72,30.72,0,0,0,4.549-7.152,3.939,3.939,0,0,0,.447-1.547,1.464,1.464,0,0,0-.724-1.354,3.434,3.434,0,0,0-2.96.594,38.1,38.1,0,0,0-5.416,5.738c-.464-.383-.387-.182-.852-.566a49.455,49.455,0,0,0,2.041-5.42,3.771,3.771,0,0,0,.233-1.267,1.2,1.2,0,0,0-1.851-1.082,3.742,3.742,0,0,0-1.013.855,45.521,45.521,0,0,0-5.76,7.593,11.542,11.542,0,0,0-1.975-5.018,2,2,0,0,0-1.479-1.042,1.5,1.5,0,0,0-1.314,1.19,5.16,5.16,0,0,0,0,1.894,19.456,19.456,0,0,1-.4,6.56,21.377,21.377,0,0,0-.671,3.174,4.164,4.164,0,0,0,.82,3.056c-.069-.067.113-.027.044-.094,1.177,2.3,1.983,4.148,4.079,5.658" transform="translate(-367.03 -247.848)" fill="#c67d3c"/>
            <path id="Pfad_3811" data-name="Pfad 3811" d="M478.463,450.6c7.8-6.142,16.015-12.478,22.233-20.318,3.707,2.934,4.038,3.693,7.745,6.626-4.991,10.71-9.015,22.31-16.312,31.6a158.16,158.16,0,0,1-19.153,20.37c-2.989-9.316-6.877-18.419-10.741-27.447A123.586,123.586,0,0,0,478.463,450.6" transform="translate(-298.777 -278.12)" fill="#c67d3c"/>
            <g id="Gruppe_1854" data-name="Gruppe 1854" transform="translate(32.189 156.555)" opacity="0.2" style="mix-blend-mode: overlay;isolation: isolate">
              <g id="Gruppe_1853" data-name="Gruppe 1853">
                <g id="Gruppe_1852" data-name="Gruppe 1852" clip-path="url(#clip-path-20)">
                  <path id="Pfad_3812" data-name="Pfad 3812" d="M119.889,467.514a123.623,123.623,0,0,1-15.423-11.95c-4.522-4.111-9.2-8.307-13.439-12.852q3.98,11.586,7.273,23.556c1.679,6.381,1.512,12.676.88,18.927q3.861,4.618,8.058,8.939c3.639-9.081,8.16-17.887,12.652-26.62" transform="translate(-91.027 -442.712)" fill="#230211"/>
                </g>
              </g>
            </g>
            <g id="Gruppe_1857" data-name="Gruppe 1857" transform="translate(163.457 163.583)" opacity="0.2" style="mix-blend-mode: overlay;isolation: isolate">
              <g id="Gruppe_1856" data-name="Gruppe 1856">
                <g id="Gruppe_1855" data-name="Gruppe 1855" clip-path="url(#clip-path-21)">
                  <path id="Pfad_3813" data-name="Pfad 3813" d="M478.463,471.479a123.586,123.586,0,0,1-16.229,10.831c3.864,9.028,7.752,18.131,10.741,27.447q2.954-2.633,5.77-5.416c.367-14.56,4.484-28.595,10.7-41.755-3.587,3.1-7.328,6.017-10.981,8.893" transform="translate(-462.234 -462.586)" fill="#230211"/>
                </g>
              </g>
            </g>
            <path id="Pfad_3814" data-name="Pfad 3814" d="M464.741,852.418a138.825,138.825,0,0,0-13.485-18.155c-6.744,9.93-13.487,19.895-20.98,29.27,5.519,1.9,10.889,3.777,15.378,5.393a119.223,119.223,0,0,0-3.012,22.307l5.3,5.189S461,878.783,467.259,868.1l.018-.03c3.044-5.145.523-10.513-2.536-15.648" transform="translate(-278.12 -539.246)" fill="#c67d3c"/>
            <path id="Pfad_3815" data-name="Pfad 3815" d="M228.6,970.96a12.662,12.662,0,0,0,5.273,6.861c9.569,6.092,22.525,11.857,32.259,16.646,1.7-1.194,3.892-6.718,3.892-6.718-6.015-7.309-8.992-14.633-14.168-22.549h0c-.273-.417-.547-.845-.822-1.279a154.874,154.874,0,0,1,.89-15.876c-11.639-.463-23.3-1.9-34.927-3.059,2.925,10.923,5.928,20.685,7.6,25.975" transform="translate(-142.845 -610.814)" fill="#c67d3c"/>
            <path id="Pfad_3816" data-name="Pfad 3816" d="M457.961,997.615,460.3,1012.3a1.628,1.628,0,0,1-1.834.715c-6.374-3.457-9.07-11.1-13.636-16.731a14.964,14.964,0,0,1,7.3-4.162,43.794,43.794,0,0,1,5.831,5.494" transform="translate(-287.527 -641.282)" fill="#f4b942"/>
            <path id="Pfad_3817" data-name="Pfad 3817" d="M346.88,1069.355l3.5,14.45a1.628,1.628,0,0,0,1.968-.047c4.548-5.647,4.089-13.738,6.131-20.695a13.859,13.859,0,0,0-7.994-1.17,22.579,22.579,0,0,0-3.609,7.462" transform="translate(-224.215 -686.269)" fill="#f4b942"/>
            <g id="Gruppe_1860" data-name="Gruppe 1860" transform="translate(152.156 295.018)" opacity="0.2" style="mix-blend-mode: overlay;isolation: isolate">
              <g id="Gruppe_1859" data-name="Gruppe 1859">
                <g id="Gruppe_1858" data-name="Gruppe 1858" clip-path="url(#clip-path-22)">
                  <path id="Pfad_3818" data-name="Pfad 3818" d="M462.258,848.513a158.381,158.381,0,0,0-11-14.25c-6.744,9.93-13.488,19.895-20.98,29.27,5.386,1.854,10.628,3.686,15.051,5.275a88.55,88.55,0,0,1,16.93-20.3" transform="translate(-430.277 -834.263)" fill="#230211"/>
                </g>
              </g>
            </g>
            <g id="Gruppe_1863" data-name="Gruppe 1863" transform="translate(78.149 334.171)" opacity="0.2" style="mix-blend-mode: overlay;isolation: isolate">
              <g id="Gruppe_1862" data-name="Gruppe 1862">
                <g id="Gruppe_1861" data-name="Gruppe 1861" clip-path="url(#clip-path-23)">
                  <path id="Pfad_3819" data-name="Pfad 3819" d="M255.044,962.751c.055-4.67.333-9.659.878-14.706-11.639-.463-23.3-1.9-34.927-3.06,1.368,5.108,2.752,9.962,4.01,14.224,10.153-.37,20.241.336,30.039,3.542" transform="translate(-220.994 -944.985)" fill="#230211"/>
                </g>
              </g>
            </g>
            <path id="Pfad_3820" data-name="Pfad 3820" d="M286.292,734.964c-3.613-17.7-22.2-31.187-44.587-31.187-24.977,0-45.225,16.782-45.225,37.483,0,2.345,2.022,39.259,5.793,53.34,11.625,1.155,27.2,2.323,38.835,2.786.484-4.484.144-14.263,1.077-18.648a52.366,52.366,0,0,0,21.611-4.766A108.989,108.989,0,0,0,279.779,784.6c7.493-9.375,18.983-20.384,25.726-30.314-5.409-6.319-16.071-16.17-19.212-19.326" transform="translate(-127 -454.902)" fill="#56b085"/>
            <path id="Pfad_3821" data-name="Pfad 3821" d="M20.531,392.676c-1.989,1.23-4.561.516-6.768-.256a57.285,57.285,0,0,1-12.2-5.477c-.7-.449-1.468-1.278-1.03-1.983a1.338,1.338,0,0,1,1.34-.52,42.308,42.308,0,0,1,4.5,1.208c.246-.2.342-.235.224-.533a26.777,26.777,0,0,1-5.934-4.872,1.946,1.946,0,0,1-.513-2.1,2.332,2.332,0,0,1,2.53-.663,19.548,19.548,0,0,1,5.939,3.157c.222-.37.351-.2.573-.565a30.727,30.727,0,0,1-4.033-7.456,3.937,3.937,0,0,1-.337-1.574,1.464,1.464,0,0,1,.818-1.3,3.434,3.434,0,0,1,2.911.8,38.091,38.091,0,0,1,5,6.106c.49-.349.4-.155.889-.5a49.47,49.47,0,0,1-1.653-5.551,3.771,3.771,0,0,1-.143-1.28,1.344,1.344,0,0,1,.651-1.059,1.343,1.343,0,0,1,1.272.111,3.733,3.733,0,0,1,.951.924,45.511,45.511,0,0,1,5.21,7.981,11.548,11.548,0,0,1,2.324-4.866,2,2,0,0,1,1.549-.935,1.5,1.5,0,0,1,1.227,1.279,5.169,5.169,0,0,1-.138,1.889,19.455,19.455,0,0,0-.064,6.572,21.415,21.415,0,0,1,.445,3.214,4.163,4.163,0,0,1-1.033,2.99c.073-.062-.111-.035-.037-.1-1.336,2.211-2.271,4-4.468,5.356" transform="translate(0 -237.957)" fill="#c67d3c"/>
            <path id="Pfad_3822" data-name="Pfad 3822" d="M151.079,516.945v0c-4.416-2.166-10.441-6.359-14.548-9.048-5.817,6.063-13.4,19.922-17.041,29,2.83,2.9,32.7,28.125,34.411,29.167,3.856-12.154,9.193-30.579,12.294-42.982a116.017,116.017,0,0,1-15.116-6.139" transform="translate(-77.235 -328.289)" fill="#56b085"/>
            <path id="Pfad_3823" data-name="Pfad 3823" d="M30.98,412.957a9.887,9.887,0,0,0,4.105.5,27.7,27.7,0,0,0,3.755-1.023.5.5,0,0,1,.455.852c-2,2.281-6.22,2.224-8.818,1.261-1-.371-.525-1.937.5-1.593" transform="translate(-19.343 -266.578)" fill="#aa6227"/>
            <path id="Pfad_3824" data-name="Pfad 3824" d="M396.341,521.772v0c4.558-1.849,10.864-5.606,15.151-8,5.374,6.458,11.962,20.818,14.951,30.134-3.027,2.7-34.608,25.746-36.384,26.665-2.988-12.4-7.011-31.152-9.229-43.742a116.015,116.015,0,0,0,15.512-5.056" transform="translate(-246.159 -332.088)" fill="#56b085"/>
            <path id="Pfad_3825" data-name="Pfad 3825" d="M593.2,427.553a9.883,9.883,0,0,1-4.131.213,27.793,27.793,0,0,1-3.673-1.286.5.5,0,0,0-.514.818c1.836,2.417,6.048,2.657,8.707,1.881a.836.836,0,0,0-.389-1.625" transform="translate(-377.978 -275.648)" fill="#aa6227"/>
            <path id="Pfad_3826" data-name="Pfad 3826" d="M306.057,519.4l-.908-14.162-21.7.637-.689,11.787c7.317,2.869,15.365,3.149,23.3,1.738" transform="translate(-182.767 -326.575)" fill="#aa6227"/>
            <path id="Pfad_3827" data-name="Pfad 3827" d="M281.884,540.375l-.477,8.152,24.157-.493-.38-5.921c-7.936,1.411-15.984,1.132-23.3-1.738" transform="translate(-181.895 -349.284)" fill="#c67d3c"/>
            <path id="Pfad_3828" data-name="Pfad 3828" d="M460.313,400.092c2.026-7.527,3.887-13.736,8.579-19.96,3.6-4.779,11.154-5.682,16.1-2.316s6.954,10.238,5.136,15.939-7.046,10.011-12.885,11.317a22.673,22.673,0,0,1-17.122-3.488Z" transform="translate(-297.412 -242.907)" fill="#c67d3c"/>
            <path id="Pfad_3829" data-name="Pfad 3829" d="M490.694,411.379c1.829.752,3.593,2.053,3.864,3.889.3,2.041-1.337,3.975-3.142,5.291a19.07,19.07,0,0,1-12.72,3.495c-2.513-.228-4.608-1.288-5.044-3.714a10.1,10.1,0,0,1,.765-5.32c1.268-3,4.605-3.944,7.752-4.476a15.714,15.714,0,0,1,8.524.836" transform="translate(-306.092 -265.208)" fill="#aa6227"/>
            <path id="Pfad_3830" data-name="Pfad 3830" d="M120.7,330.472c.752-7.758,1.194-14.225-1.008-21.7-1.69-5.74-8.441-9.243-14.256-7.833S95.32,308.074,95.016,314.05,98.09,325.9,103.1,329.177a22.673,22.673,0,0,0,17.254,2.759Z" transform="translate(-61.404 -194.316)" fill="#c67d3c"/>
            <path id="Pfad_3831" data-name="Pfad 3831" d="M111.267,334.27c-1.976.06-4.086.658-4.986,2.281-1,1.8-.147,4.191,1.08,6.058a19.07,19.07,0,0,0,10.677,7.746c2.432.671,4.767.415,6.028-1.7a10.1,10.1,0,0,0,1.156-5.249c-.129-3.259-2.923-5.312-5.682-6.918a15.71,15.71,0,0,0-8.273-2.217" transform="translate(-68.413 -216.058)" fill="#aa6227"/>
            <path id="Pfad_3832" data-name="Pfad 3832" d="M277.295,206.383c-3.737,14.531-7.751,29.182-15.091,42.265s-18.432,24.642-32.582,29.626c-10.918,3.844-22.875,3.56-34.325,1.878-8.956-1.312-17.96-3.517-25.654-8.286-11.948-7.406-19.432-20.412-22.338-34.292a64.958,64.958,0,0,1-1.272-9.641,85.76,85.76,0,0,1,1.561-21.049,150.56,150.56,0,0,1,9.241-29.2,54.307,54.307,0,0,1,34.988-31.151c15.6-4.318,32.588-1.594,47.264,5.23,10.658,4.951,20.43,12.126,27.425,21.567s13.71,21.678,10.784,33.058" transform="translate(-94.315 -93.365)" fill="#c67d3c"/>
            <path id="Pfad_3833" data-name="Pfad 3833" d="M415.821,299.866a3.982,3.982,0,0,1,.373,3.354,2.838,2.838,0,0,1-2.437,1.419,6.622,6.622,0,0,1-2.857-.665,20.474,20.474,0,0,1-8.254-6.233c-1.5-1.95-4.987-7.426-1.249-8.851a3.426,3.426,0,0,1,1.864-.062c3.943.765,7.754,3.99,10.142,7.075a20.774,20.774,0,0,1,2.418,3.963" transform="translate(-258.374 -186.626)" fill="#230211"/>
            <g id="Gruppe_1866" data-name="Gruppe 1866" transform="translate(57.179 157.091)" opacity="0.15" style="mix-blend-mode: overlay;isolation: isolate">
              <g id="Gruppe_1865" data-name="Gruppe 1865">
                <g id="Gruppe_1864" data-name="Gruppe 1864" clip-path="url(#clip-path-24)">
                  <path id="Pfad_3834" data-name="Pfad 3834" d="M189.067,462.566a82.987,82.987,0,0,1-27.372-18.34c3.96,8.736,10.02,16.37,18.15,21.409,7.692,4.769,16.7,6.975,25.652,8.288,11.451,1.679,23.408,1.964,34.324-1.881C253.1,467.365,263.684,456.9,271,444.818c-22.073,19.963-51.591,29.975-81.937,17.748" transform="translate(-161.695 -444.226)" fill="#230211"/>
                </g>
              </g>
            </g>
            <g id="Gruppe_1869" data-name="Gruppe 1869" transform="translate(141.82 129.198)" opacity="0.3">
              <g id="Gruppe_1868" data-name="Gruppe 1868">
                <g id="Gruppe_1867" data-name="Gruppe 1867" clip-path="url(#clip-path-25)">
                  <path id="Pfad_3835" data-name="Pfad 3835" d="M403.43,386.549c2.645,4.753,7.316,8.027,13.122,6.53,9.184-2.368,14.145-15.231,8.057-22.794-4.061-5.045-10.816-5.979-16.65-3.905-7.914,2.814-8.451,13.118-4.529,20.169" transform="translate(-401.048 -365.349)" fill="#af1731"/>
                </g>
              </g>
            </g>
            <g id="Gruppe_1872" data-name="Gruppe 1872" transform="translate(54.543 117.592)" opacity="0.3">
              <g id="Gruppe_1871" data-name="Gruppe 1871">
                <g id="Gruppe_1870" data-name="Gruppe 1870" clip-path="url(#clip-path-25)">
                  <path id="Pfad_3836" data-name="Pfad 3836" d="M156.622,353.729c2.645,4.753,7.316,8.027,13.122,6.53,9.184-2.368,14.145-15.231,8.057-22.794-4.061-5.045-10.816-5.979-16.65-3.905-7.914,2.814-8.452,13.118-4.529,20.169" transform="translate(-154.241 -332.529)" fill="#af1731"/>
                </g>
              </g>
            </g>
            <path id="Pfad_3837" data-name="Pfad 3837" d="M289.369,349.145c3.34-.995,7.383.106,9.247,3.05-.112-.176-1-.267-1.213-.312q-.641-.138-1.291-.223a16.605,16.605,0,0,0-2.614-.131,17.434,17.434,0,0,0-5.09.916,17.049,17.049,0,0,0-4.637,2.406c-.188.139-.459.48-.7.309-.182-.127-.156-.531-.131-.714a4.493,4.493,0,0,1,1.344-1.977,11.349,11.349,0,0,1,5.09-3.324" transform="translate(-182.871 -225.446)" fill="#aa6227"/>
            <path id="Pfad_3838" data-name="Pfad 3838" d="M269.07,564.572a14.571,14.571,0,0,0,10.269,1.925c7.957-1.79,12.706-7.528,15.933-14.305a104.772,104.772,0,0,1-37.353-.586,28.793,28.793,0,0,0,11.152,12.966" transform="translate(-166.712 -356.543)" fill="#c67d3c"/>
            <path id="Pfad_3839" data-name="Pfad 3839" d="M266.681,546.327c-4.067,1.051-7.958,1.849-11.685,2.443-3.226,6.778-7.976,12.515-15.933,14.305a14.571,14.571,0,0,1-10.269-1.926,28.794,28.794,0,0,1-11.152-12.965c-2.173-.426-4.235-.9-6.187-1.383-2.571-.643-10.3,25.87-13.573,50.032a239.489,239.489,0,0,0-2.048,43.013l90.451-6.483s-14.389-88.386-19.606-87.037" transform="translate(-126.437 -353.121)" fill="#f4b942"/>
            <path id="Pfad_3840" data-name="Pfad 3840" d="M235.143,450.176a32.91,32.91,0,0,0,13.409,9.237,44.041,44.041,0,0,0,25.464,1.333,38.334,38.334,0,0,0,18.3-10.2c-16.917-7.011-38.244-5.155-57.175-.365" transform="translate(-151.991 -288.227)" fill="#f25c68"/>
            <path id="Pfad_3841" data-name="Pfad 3841" d="M288,404.437a7.279,7.279,0,0,0-4.293-4.029,17.328,17.328,0,0,0-5.92-1.057,39.882,39.882,0,0,1-24.8,11.386c-11.726,1.173-20.07-5.7-26.142-13.354a19.887,19.887,0,0,0-2.634.464c-8.183,2.031-5.1,12.146-2.533,16.723a25.618,25.618,0,0,0,1.754,2.709c.385.522.8,1.029,1.221,1.528,18.931-4.79,40.257-6.646,57.174.365a25.339,25.339,0,0,0,5.757-9.079,8.607,8.607,0,0,0,.413-5.655" transform="translate(-141.498 -256.856)" fill="#a52422"/>
            <path id="Pfad_3842" data-name="Pfad 3842" d="M275.294,405.576c6.3,1.811,12.222-1.4,17.585-4.477-5.985.858-11.953,1.787-17.765.883-4.6-.716-8.828-2.551-13.362-3.5a36.012,36.012,0,0,0,13.542,7.094" transform="translate(-169.19 -257.567)" fill="#dbd5d1"/>
            <path id="Pfad_3843" data-name="Pfad 3843" d="M291.856,399.1a75.745,75.745,0,0,0-12.17,1.051c-5.362,3.078-11.281,6.288-17.585,4.477a36.012,36.012,0,0,1-13.542-7.094l-.188-.041a22.953,22.953,0,0,0-7.029-.348c6.071,7.652,14.416,14.526,26.142,13.354a39.882,39.882,0,0,0,24.8-11.386c-.142,0-.284-.011-.426-.013" transform="translate(-155.998 -256.624)" fill="#fff"/>
            <path id="Pfad_3844" data-name="Pfad 3844" d="M234.3,312.547c-3.113.332-4.675,4.4-4.79,7.081-.021.492.741.753.963.273.795-1.717,1.28-3.751,2.85-4.964a1.6,1.6,0,0,1,2.7.674c.454,1.079.1,2.239.171,3.359a.967.967,0,0,0,1.888.281c.772-2.617-.277-7.077-3.783-6.7" transform="translate(-148.346 -202.007)" fill="#470621"/>
            <path id="Pfad_3845" data-name="Pfad 3845" d="M397.834,338.615c-3.124-.21-5.364,3.527-5.94,6.148-.105.481.6.869.9.435,1.079-1.554,1.908-3.473,3.664-4.4A1.6,1.6,0,0,1,399,341.93c.261,1.141-.283,2.223-.412,3.338a.967.967,0,0,0,1.811.6c1.212-2.444.948-7.019-2.569-7.256" transform="translate(-253.304 -218.866)" fill="#470621"/>
            <path id="Pfad_3846" data-name="Pfad 3846" d="M221.717,264.508a3.984,3.984,0,0,0-1.893,2.794,2.838,2.838,0,0,0,1.5,2.391,6.624,6.624,0,0,0,2.837.743,20.474,20.474,0,0,0,10.207-1.669c2.233-1.028,7.872-4.247,5.229-7.249a3.426,3.426,0,0,0-1.621-.923c-3.845-1.161-8.72-.083-12.27,1.534a20.8,20.8,0,0,0-3.986,2.38" transform="translate(-142.088 -168.125)" fill="#230211"/>
            <path id="Pfad_3847" data-name="Pfad 3847" d="M331.169,885.249c-13.527,7.611-29.149,12.7-44.786,10-.527-.091-.76.7-.224.812a52.365,52.365,0,0,0,11.636,1.019l-1.322.28c-.577.122-.322.958.24.87,12.155-1.9,24.5-5.307,35.235-11.648a.773.773,0,0,0-.779-1.333" transform="translate(-184.769 -572.133)" fill="#52a852"/>
            <path id="Pfad_3848" data-name="Pfad 3848" d="M297.359,621.094a11.191,11.191,0,1,0-20.231,5.519c3.7,5.139,10.851,6.242,15.905,10.052,2.3,1.734,4.274,4.46,3.753,7.294a5.92,5.92,0,0,1-5.246,4.522,8.143,8.143,0,0,1-6.607-2.782,13.274,13.274,0,0,1-3.035-6.677,19.36,19.36,0,0,0-6.186,5.274c.878,5.649,5.863,11.053,11.522,11.864a13.46,13.46,0,0,0,10.945-23.3c-4.129-3.738-10.346-4.742-14-8.948a6.882,6.882,0,0,1-1.875-4.371,3.909,3.909,0,0,1,2.525-3.766,4.188,4.188,0,0,1,4.472,2.021,10.624,10.624,0,0,1,1.291,5.052,27.665,27.665,0,0,0,6.764-1.752" transform="translate(-177.818 -393.602)" fill="#56b085"/>
            <g id="Gruppe_1875" data-name="Gruppe 1875" transform="translate(63.135 51.082)" opacity="0.2" style="mix-blend-mode: overlay;isolation: isolate">
              <g id="Gruppe_1874" data-name="Gruppe 1874">
                <g id="Gruppe_1873" data-name="Gruppe 1873" clip-path="url(#clip-path-27)">
                  <path id="Pfad_3849" data-name="Pfad 3849" d="M287.6,173.325c-7-9.441-16.767-16.616-27.425-21.567-14.675-6.825-31.665-9.548-47.264-5.23a54.3,54.3,0,0,0-34.371,29.734,8.909,8.909,0,0,0,7.774,1.267c2.246-.963,4.493-1.925,5.776-4.171,3.209,5.134,6.739,10.589,12.835,12.515a23.613,23.613,0,0,0,18.612-2.246c3.209-1.925,4.492-5.134,7.381-7.06a8.485,8.485,0,0,0,4.492,5.455c3.851.963,6.418-2.246,9.627-3.53-.642,4.813,0,10.269,3.53,13.477,2.567,2.567,6.1.321,9.306-.321a12.255,12.255,0,0,0,2.567,15.4c4.492,3.53,10.269,1.6,14.761-.963-1.6,3.53-1.283,7.7-.642,11.552,1.6,7.059,9.627,11.552,15.724,7.38q1.923-1.366,3.76-2.8c1.581-5.241,2.98-10.548,4.34-15.839,2.926-11.38-3.788-23.614-10.784-33.058" transform="translate(-178.538 -144.447)" fill="#230211"/>
                </g>
              </g>
            </g>
            <path id="Pfad_3850" data-name="Pfad 3850" d="M248.171,107.311a6.563,6.563,0,0,1,1.389,5.863,11.049,11.049,0,0,1-2.262,4.688,18.933,18.933,0,0,1-7.891,5.259c-.719.292-1.447.562-2.169.821a5.5,5.5,0,0,1-8.376,7.079,5.09,5.09,0,0,1-2.211,7.361c-2.757,1.065-6.017-1.617-6.363-4.55a4.956,4.956,0,0,1-4.749-2.259,6.2,6.2,0,0,1,.138-5.93c-2.05,1.046-4.7-.039-6.042-1.909a10.972,10.972,0,0,1-1.6-6.6,28.357,28.357,0,0,1,1.486-8.626,9.132,9.132,0,0,0,.263-1,5.791,5.791,0,0,1-4.907.837c-2.792-.863-4.692-3.584-5.388-6.424a25.579,25.579,0,0,1-.106-8.722,12.14,12.14,0,0,1-15.012,2.092c-4.643-2.93-7.8-9.428-5.693-14.5a9.394,9.394,0,0,1-15.939-7.323c.135.109-.154-.26-.238-.395a20.09,20.09,0,0,1-37.163-2.423,6,6,0,0,1-4.675,4.919c-2.368.459-4.153-2.278-5.362-4.367a156.7,156.7,0,0,0-18.143,38.125c-5.786-.08-11.3-5.263-12.457-10.933A31.938,31.938,0,0,1,67.222,77.927a19.033,19.033,0,0,1,.035-11.485c1.348-3.652,4.582-6.758,8.452-7.162a23.134,23.134,0,0,1-5.128-5.369,27,27,0,0,1-4.637-16.291,24.112,24.112,0,0,1,3.629-11.954c3.292-5.186,9.633-9.277,15.441-7.281-2.182-2.391-.385-6.155,2.41-7.782a5.684,5.684,0,0,1,6.225.645A7.515,7.515,0,0,1,94.039,5,10.275,10.275,0,0,1,101.728.12a19.318,19.318,0,0,1,9.252,1.38,35.241,35.241,0,0,1,19.452,18.054c-1.73-4.512.064-11.539,4.306-13.85,4.457-2.426,10.079.27,13.58,3.944S154.29,18,158.362,21.029c-1.723-3.138.606-7.332,3.947-8.626s7.136-.388,10.4,1.094a31.982,31.982,0,0,1,18,23.39c4.027-3.928,11.446-5.157,16.356-2.413a13.531,13.531,0,0,1,6.421,14.373A15.458,15.458,0,0,1,232.434,71.9a10.087,10.087,0,0,1,10.156,17.421c5.048-3.26,12.864-.424,14.645,5.317s-3.058,12.505-9.065,12.675" transform="translate(-42.611 0.005)" fill="#1b2845"/>
            <path id="Pfad_3851" data-name="Pfad 3851" d="M106.173,77.33c.44.315,1.014-.418.583-.756a8.481,8.481,0,0,0-9.424-.494c-3.246,1.861-4.871,5.623-5.115,9.226-.3,4.407,1.544,8.654,3.827,12.318a53.611,53.611,0,0,0,7.59,9.5,9.345,9.345,0,0,0-7.7,8.253c-.541,5.37,3.577,10.035,8.292,11.929.93.373,1.615-1.23.688-1.631-3.692-1.6-7.041-4.937-7.186-9.179-.14-4.083,3.567-8.289,7.838-7.646.794.12,1.585-.82.862-1.482-5.376-4.922-11.249-11.624-12.5-19.051-.581-3.445.121-7.355,2.652-9.905a7.527,7.527,0,0,1,9.591-1.08" transform="translate(-59.587 -48.404)" fill="#230211"/>
            <path id="Pfad_3852" data-name="Pfad 3852" d="M220.909,64.146a23.71,23.71,0,0,0-4.727-8.577c-1.987-2.32-4.649-4.7-7.823-5.036-5.614-.585-9.13,5.909-10.669,10.98-3.592-6.745-7.819-13.338-13.992-17.98-2.735-2.057-6.949-4.411-10.153-1.9a5.555,5.555,0,0,0-1.214,7.4c.355.514,1.175.057.849-.5a4.387,4.387,0,0,1,4.038-6.633c3.513.277,6.762,3.458,9.095,5.856,4.668,4.8,7.93,10.737,10.887,16.687a.91.91,0,0,0,1.646-.215,22.576,22.576,0,0,1,3.174-7.571c1.486-2.253,3.574-4.727,6.581-4.126,2.61.522,4.706,2.678,6.314,4.669a25.406,25.406,0,0,1,4.079,7.462c.422,1.189,2.292.709,1.915-.528" transform="translate(-110.801 -26.208)" fill="#230211"/>
            <path id="Pfad_3853" data-name="Pfad 3853" d="M301.274,181.21a15.815,15.815,0,0,0-3.431,1.892c-1.588.932-2.811.476-3.746-1.046-1.625-2.646-2.662-6.876-1.6-9.829.317-.883-1.022-1.7-1.623-.945-4.078,5.15-10.029,8.04-15.859,10.755-3.3,1.535-6.954,3.01-10.4,1.046-2.732-1.557-4.5-4.526-5.694-7.344-.209-.492-1.023-.141-.861.363a15.05,15.05,0,0,0,5.073,7.735c3.062,2.267,6.711,2.027,10.127.722,5.869-2.243,12.219-5.138,16.859-9.594a15.8,15.8,0,0,0,.562,3.6,14.863,14.863,0,0,0,2.123,5.186,4.335,4.335,0,0,0,3.841,1.937c2.019-.169,3.342-1.9,5.168-2.548,1.2-.424.718-2.308-.533-1.934" transform="translate(-166.787 -110.517)" fill="#230211"/>
            <path id="Pfad_3854" data-name="Pfad 3854" d="M436.439,239.062c-1.3.493-2.859,1.182-4.278.917a4.027,4.027,0,0,1-2.788-2.912,12.035,12.035,0,0,1,.564-8.608.97.97,0,0,0-1.08-1.4c-3.215.85-6.715,1.516-9.992.6a9.25,9.25,0,0,1-6.561-7.393.473.473,0,0,0-.926.125,9.97,9.97,0,0,0,6.075,8.36c3.192,1.361,6.759,1.178,10.126.532a12.526,12.526,0,0,0,.406,9.621c1.981,3.817,5.78,3.435,9.165,1.846.935-.44.27-2.058-.711-1.686" transform="translate(-265.904 -142.156)" fill="#230211"/>
            <path id="Pfad_3855" data-name="Pfad 3855" d="M498.14,178.485c-1.732-3.429-6.367-3.83-9.79-2.59,1.363-5.426,1.215-11.907-2.034-16.5-3.057-4.32-9.238-5.029-12.8-.865-.4.465.242,1.13.68.681a6.948,6.948,0,0,1,6.6-1.948,7.722,7.722,0,0,1,5.009,4.542c2.253,4.838,1.812,10.8.058,15.705a.971.971,0,0,0,1.412,1.086c2.334-1.6,7.133-2.295,8.878.629,1.412,2.368-.418,6.942-2.9,7.94a.954.954,0,0,0,.507,1.837,5.867,5.867,0,0,0,3.936-3.769c.812-1.957,1.443-4.763.439-6.751" transform="translate(-305.99 -100.675)" fill="#230211"/>
            <g id="Gruppe_1878" data-name="Gruppe 1878" transform="translate(23.312 22.655)" opacity="0.5" style="mix-blend-mode: overlay;isolation: isolate">
              <g id="Gruppe_1877" data-name="Gruppe 1877">
                <g id="Gruppe_1876" data-name="Gruppe 1876" clip-path="url(#clip-path-28)">
                  <path id="Pfad_3856" data-name="Pfad 3856" d="M249.56,154.586a11.053,11.053,0,0,1-2.262,4.688,18.93,18.93,0,0,1-7.891,5.259,22.649,22.649,0,0,0-15.83-10.291c1.265-5.394,1.492-11.517-1.752-16.006s-10.978-5.75-14.148-1.21c1.068-4.679,2.143-9.476,1.537-14.241s-3.244-9.56-7.682-11.392-10.513.491-11.507,5.186c-2.859-5.6-5.776-11.286-10.06-15.888s-10.2-8.07-16.491-8-12.691,4.438-13.76,10.634c-3.51-4.576-7.146-9.194-11.905-12.454s-10.894-5.012-16.394-3.27-9.771,7.672-8.427,13.282c-4.451-4.313-8.972-8.68-14.392-11.687S86.649,84.66,80.7,86.4a13.824,13.824,0,0,0-1.852.69,14.877,14.877,0,0,0-1.373.7,16.825,16.825,0,0,0-6.893,7.531,27,27,0,0,1-4.637-16.292,20.278,20.278,0,0,1,7.987-6.572A19.24,19.24,0,0,1,77.9,71.183a20.525,20.525,0,0,1,2.342-.34,21.358,21.358,0,0,1,18.24,7.49c-1.983-4.653,1.03-10.32,5.532-12.621s9.935-1.906,14.809-.549a15.233,15.233,0,0,1,1.81.645,32.926,32.926,0,0,1,3.161,1.566h0a85.542,85.542,0,0,1,7.515,4.836c.539.385,1.078.773,1.611,1.162,6.96,5.08,13.269,10.554,13.269,10.554a29.606,29.606,0,0,1,5.423-3.379h0c.34-.167.69-.334,1.059-.5,5.985-2.683,15.291-4.647,24.333,2.359,7.159,5.545,10.49,14.639,13.9,23.027,1.274-5.054,7.435-7.8,12.476-6.472s8.792,5.77,10.654,10.638,2.137,10.179,2.394,15.387c1.819-3.7,7.175-4.608,10.7-2.484a10.531,10.531,0,0,1,4,4.544,13.9,13.9,0,0,1,.786,2.022v0a15.626,15.626,0,0,1,.655,3.96c.154,4.114-1.052,8.144-2.246,12.088a16.328,16.328,0,0,1,15.448,3.8,15.9,15.9,0,0,1,3.777,5.664" transform="translate(-65.922 -64.062)" fill="#fff"/>
                </g>
              </g>
            </g>
            <g id="Gruppe_1881" data-name="Gruppe 1881" transform="translate(46.839 85.101)" opacity="0.4">
              <g id="Gruppe_1880" data-name="Gruppe 1880">
                <g id="Gruppe_1879" data-name="Gruppe 1879" clip-path="url(#clip-path-29)">
                  <path id="Pfad_3857" data-name="Pfad 3857" d="M136.5,245.248l-4.043,46.85,42.8-.5,9.385-18.666L206.653,277l5.616,18.6,38.679,14.629,20.939-35.794s-17.83-30.016-71.595-33.027-63.8,3.834-63.8,3.834" transform="translate(-132.455 -240.649)" fill="#88aed8"/>
                </g>
              </g>
            </g>
            <g id="Gruppe_1884" data-name="Gruppe 1884" transform="translate(46.839 85.332)" opacity="0.4">
              <g id="Gruppe_1883" data-name="Gruppe 1883">
                <g id="Gruppe_1882" data-name="Gruppe 1882" clip-path="url(#clip-path-30)">
                  <path id="Pfad_3858" data-name="Pfad 3858" d="M200.293,241.837q-6.325-.354-11.86-.534l-54.553,34.7-1.425,16.516,3.927-.046,75.264-49.545c-3.594-.5-7.372-.87-11.353-1.093" transform="translate(-132.455 -241.303)" fill="#fff"/>
                </g>
              </g>
            </g>
            <g id="Gruppe_1887" data-name="Gruppe 1887" transform="translate(107.961 91.775)" opacity="0.4">
              <g id="Gruppe_1886" data-name="Gruppe 1886">
                <g id="Gruppe_1885" data-name="Gruppe 1885" clip-path="url(#clip-path-31)">
                  <path id="Pfad_3859" data-name="Pfad 3859" d="M344.336,259.522,305.3,286.785l13.076,2.418.79,2.617,37.916-27.043a96.892,96.892,0,0,0-12.746-5.256" transform="translate(-305.299 -259.522)" fill="#fff"/>
                </g>
              </g>
            </g>
            <g id="Gruppe_1890" data-name="Gruppe 1890" transform="translate(127.056 109.569)" opacity="0.4">
              <g id="Gruppe_1889" data-name="Gruppe 1889">
                <g id="Gruppe_1888" data-name="Gruppe 1888" clip-path="url(#clip-path-32)">
                  <path id="Pfad_3860" data-name="Pfad 3860" d="M418.513,319.165a47.558,47.558,0,0,0-8.127-9.324L359.3,340.483l21.419,8.1,31.535-18.715Z" transform="translate(-359.297 -309.841)" fill="#fff"/>
                </g>
              </g>
            </g>
            <path id="Pfad_3861" data-name="Pfad 3861" d="M205.024,230.325c-24.575-4.3-50.938-.294-75.29,5.142a213.9,213.9,0,0,0-6.084,51.587c14.762,3.305,33.258.843,48.345-.3,3.377-6.939,4.679-10.775,8.382-17.965a86.968,86.968,0,0,1,17.458,1.121c1.809,6.634,2.958,12.53,4.768,19.164,13.275,7.527,30.029,13.851,44.831,17.557,10.442-12.942,17.708-25.417,22.471-41.352a116.921,116.921,0,0,0-64.88-34.95m38.59,69.125c-13.6-3.2-23.238-7.8-35.447-14.254-1.675-5.667-2.109-13.594-3.784-19.261-4.537-.879-23.139-2.492-27.767-2.37-3.38,6.126-5.208,12.287-8.294,18.2-13.848.944-26.834.69-38.434.672-.113-14.817.033-26.765,3.77-41.152,22.351-4.58,46.551-7.938,69.13-4.2s44.017,14.357,59.667,29.99c-4.332,13.588-9.284,21.353-18.841,32.375" transform="translate(-79.923 -147.702)" fill="#f2f2f2"/>
            <g id="Gruppe_1893" data-name="Gruppe 1893" transform="translate(69.172 230.504)" opacity="0.3" style="mix-blend-mode: overlay;isolation: isolate">
              <g id="Gruppe_1892" data-name="Gruppe 1892">
                <g id="Gruppe_1891" data-name="Gruppe 1891" clip-path="url(#clip-path-33)">
                  <path id="Pfad_3862" data-name="Pfad 3862" d="M270.832,662.726c-17.719,25.414-46.281,36.086-75.222,36.208.005,5.734.226,9.116.226,9.116l90.451-6.483s-4.252-26.116-8.971-49.739a78.27,78.27,0,0,1-6.484,10.9" transform="translate(-195.61 -651.828)" fill="#230211"/>
                </g>
              </g>
            </g>
            <path id="Pfad_3863" data-name="Pfad 3863" d="M185.913,793.965a49.384,49.384,0,0,1-1-13.634c28.474-5.6,62.148-11.568,96.19-13.4.46,1.343.921,2.77,1.367,4.151s.9,2.782,1.355,4.115a365.781,365.781,0,0,1-97.916,18.768" transform="translate(-119.457 -495.723)" fill="#fce3ac"/>
            <path id="Pfad_3864" data-name="Pfad 3864" d="M280.7,766.792c.446,1.308.893,2.691,1.326,4.032.426,1.318.865,2.677,1.3,3.968a362.6,362.6,0,0,1-48,12.628,371.459,371.459,0,0,1-49.579,6.074,49.211,49.211,0,0,1-.971-13.333c28.407-5.588,61.983-11.531,95.925-13.368m.225-.333c-32.545,1.743-64.59,7.162-96.454,13.434a49.574,49.574,0,0,0,1.019,13.935,368.508,368.508,0,0,0,98.248-18.836c-.946-2.755-1.867-5.778-2.813-8.533" transform="translate(-119.164 -495.418)" fill="#fce3ac"/>
            <path id="Pfad_3865" data-name="Pfad 3865" d="M207.7,813.033a76.043,76.043,0,0,1-2.782-19.331c.977-.127,2.168-.261,3.321-.391s2.314-.261,3.286-.387a137.775,137.775,0,0,0,1.1,19.347c-.773.127-1.625.255-2.449.378s-1.7.254-2.479.383" transform="translate(-132.453 -512.526)" fill="#6dbc6d"/>
            <path id="Pfad_3866" data-name="Pfad 3866" d="M211.064,792.772A138.018,138.018,0,0,0,212.15,811.8c-.734.119-1.53.238-2.3.354s-1.587.237-2.33.358a75.881,75.881,0,0,1-2.735-19.008c.948-.122,2.08-.249,3.177-.373,1.069-.12,2.169-.244,3.1-.363m.326-.366c-2.007.266-4.926.554-6.932.82a76.2,76.2,0,0,0,2.828,19.653c1.634-.273,3.59-.536,5.223-.81a138.063,138.063,0,0,1-1.119-19.664" transform="translate(-132.156 -512.19)" fill="#6dbc6d"/>
            <path id="Pfad_3867" data-name="Pfad 3867" d="M266.083,800.058a76.044,76.044,0,0,1-2.782-19.331c.977-.127,2.168-.261,3.321-.391s2.314-.261,3.286-.387a137.78,137.78,0,0,0,1.1,19.347c-.773.127-1.625.255-2.449.378s-1.7.254-2.479.383" transform="translate(-170.191 -504.139)" fill="#6dbc6d"/>
            <path id="Pfad_3868" data-name="Pfad 3868" d="M269.45,779.8a138,138,0,0,0,1.087,19.031c-.734.12-1.53.239-2.3.354s-1.587.237-2.33.358a75.883,75.883,0,0,1-2.735-19.008c.948-.122,2.08-.249,3.177-.373,1.069-.12,2.169-.244,3.1-.363m.326-.366c-2.007.266-4.926.554-6.932.82a76.2,76.2,0,0,0,2.828,19.653c1.634-.273,3.59-.536,5.223-.81a138.07,138.07,0,0,1-1.118-19.664" transform="translate(-169.895 -503.804)" fill="#6dbc6d"/>
            <path id="Pfad_3869" data-name="Pfad 3869" d="M339.76,792.182a76.045,76.045,0,0,1-2.782-19.331c.977-.127,2.168-.261,3.321-.391s2.314-.261,3.286-.387a137.783,137.783,0,0,0,1.1,19.347c-.773.127-1.625.255-2.449.378s-1.7.254-2.479.383" transform="translate(-217.815 -499.048)" fill="#6dbc6d"/>
            <path id="Pfad_3870" data-name="Pfad 3870" d="M343.126,771.92a137.964,137.964,0,0,0,1.087,19.032c-.734.119-1.53.238-2.3.354s-1.587.237-2.33.358a75.883,75.883,0,0,1-2.735-19.008c.948-.122,2.08-.249,3.177-.373,1.069-.12,2.169-.244,3.1-.363m.326-.366c-2.007.266-4.926.554-6.932.82a76.205,76.205,0,0,0,2.828,19.653c1.634-.273,3.59-.537,5.223-.81a138.063,138.063,0,0,1-1.118-19.664" transform="translate(-217.518 -498.712)" fill="#6dbc6d"/>
            <path id="Pfad_3871" data-name="Pfad 3871" d="M411.583,781.987a76.046,76.046,0,0,1-2.782-19.331c.977-.127,2.168-.261,3.321-.391s2.314-.261,3.286-.386a137.78,137.78,0,0,0,1.1,19.347c-.773.127-1.625.255-2.449.378s-1.7.254-2.479.383" transform="translate(-264.239 -492.459)" fill="#6dbc6d"/>
            <path id="Pfad_3872" data-name="Pfad 3872" d="M414.949,761.726a138,138,0,0,0,1.087,19.031c-.734.12-1.53.239-2.3.354s-1.587.237-2.33.358a75.886,75.886,0,0,1-2.735-19.008c.948-.122,2.08-.249,3.177-.373,1.069-.12,2.169-.244,3.1-.363m.326-.366c-2.007.266-4.926.554-6.933.82a76.216,76.216,0,0,0,2.828,19.653c1.634-.273,3.59-.536,5.223-.81a138.01,138.01,0,0,1-1.118-19.664" transform="translate(-263.943 -492.123)" fill="#6dbc6d"/>
          </g>
        </g>
      </g>
    </g>
  </g>
</svg>
