<svg xmlns="http://www.w3.org/2000/svg" width="1933.396" height="176.119" viewBox="0 0 1933.396 176.119">
  <g id="top" transform="translate(2061.396 177.129) rotate(180)">
    <path id="Pfad_1374" data-name="Pfad 1374" d="M0,22.577S20.826,54.829,78.908,49.992C91.331,48.96,125.547,56.371,136.99,64.5s13.778,13.769,54.655,14.511c88.826,1.612,84.818,16.209,131.138,19.38,21.6,1.478,32.747-7.895,56.761-6.482,23.764,1.4,45.557,13.21,71.746,14.511,27.1,1.349,41.936,2.865,100.064,4.214,36.175-1.817,39.83,2.225,95.646-4.171,37.279-4.273,50.989,5.976,71.006,7.976,16.693,1.666,42.073-1.489,58.264.322s28.2,7.008,54.985,6.019c23.1-.855,32.338-14.425,86.378.908,15.474,4.391,43.656,1.9,61.419,1.811,19.323-.091,29.013,2.977,47.983,2.719,25.335-.344,34.854-7.535,59.506-8.153,17.387-.435,36.721,2.37,53.744,1.811,14.859-.489,46.855,1.478,61.419.908,20.12-.79,34.216-5.4,53.744-6.342,20.86-1,29.753-.661,49.907-1.811,16.191-.924,41.879-3.526,57.581-4.531,14.9-.957,33.533,1.924,47.983.908,11.147-.785,29.445-6.428,40.308-7.25,23.581-1.779,41.128,1.9,63.343,0,31.483-2.693,61.68-8.04,90.214-10.872,40.194-3.988,69.879-18.7,103.651-22.648,73.386-8.594,58.082-34.369,140.076-39.206C1903.165,25.812,1933.4.01,1933.4.01V176.129H0Z" transform="translate(128 1)" fill="#fff"/>
  </g>
</svg>
